<svg xmlns="http://www.w3.org/2000/svg" viewBox="0 0 1920 780"><defs><style>.cls-1{fill:#d8d8d8;}.cls-2{opacity:0.86;}.cls-3{fill:#939393;}.cls-4{fill:#898989;}.cls-5{fill:#605f5f;}.cls-6{fill:#a5a5a5;}</style></defs><title>smog_10</title><g id="fond"><rect class="cls-1" x="2.78" width="1917.22" height="780"/></g><g id="nuage1"><g class="cls-2"><polygon class="cls-3" points="868.59 80.09 859.23 80.09 849.86 80.09 840.5 80.09 831.13 80.09 831.13 70.7 831.13 61.3 821.76 61.3 821.76 51.91 812.4 51.91 803.03 51.91 803.03 42.52 793.67 42.52 784.3 42.52 784.3 33.13 774.93 33.13 765.57 33.13 756.2 33.13 746.84 33.13 737.47 33.13 737.47 42.52 728.11 42.52 718.74 42.52 718.74 51.91 709.37 51.91 709.37 42.52 700.01 42.52 700.01 33.13 690.64 33.13 681.28 33.13 671.91 33.13 671.91 23.74 662.54 23.74 653.18 23.74 643.81 23.74 634.45 23.74 634.45 33.13 625.08 33.13 615.72 33.13 615.72 42.52 606.35 42.52 606.35 51.91 606.35 61.3 596.98 61.3 596.98 70.7 596.98 80.09 596.98 89.48 587.62 89.48 578.25 89.48 568.89 89.48 559.52 89.48 550.15 89.48 540.79 89.48 531.42 89.48 531.42 98.87 522.06 98.87 522.06 108.26 512.69 108.26 512.69 117.65 512.69 127.04 503.32 127.04 503.32 136.44 493.96 136.44 484.59 136.44 475.23 136.44 465.86 136.44 456.5 136.44 447.13 136.44 437.76 136.44 428.4 136.44 428.4 145.83 419.03 145.83 419.03 155.22 409.67 155.22 400.3 155.22 400.3 145.83 390.94 145.83 381.57 145.83 381.57 136.44 372.2 136.44 372.2 127.04 362.84 127.04 353.47 127.04 344.11 127.04 344.11 136.44 334.74 136.44 334.74 145.83 325.37 145.83 325.37 136.44 316.01 136.44 306.64 136.44 297.28 136.44 287.91 136.44 278.54 136.44 278.54 145.83 269.18 145.83 259.81 145.83 259.81 155.22 250.45 155.22 250.45 164.61 241.08 164.61 241.08 174 241.08 183.39 241.08 192.78 231.72 192.78 231.72 202.17 222.35 202.17 222.35 192.78 212.98 192.78 212.98 183.39 203.62 183.39 203.62 174 194.25 174 184.89 174 175.52 174 166.15 174 156.79 174 147.42 174 147.42 183.39 138.06 183.39 138.06 192.78 128.69 192.78 119.33 192.78 109.96 192.78 100.59 192.78 100.59 202.17 91.23 202.17 91.23 211.56 91.23 220.96 81.86 220.96 81.86 230.35 72.5 230.35 63.13 230.35 53.76 230.35 44.4 230.35 35.03 230.35 35.03 239.74 25.67 239.74 25.67 249.13 25.67 258.52 25.67 267.91 25.67 277.3 35.03 277.3 35.03 267.91 44.4 267.91 53.76 267.91 53.76 258.52 63.13 258.52 72.5 258.52 72.5 249.13 81.86 249.13 91.23 249.13 91.23 239.74 100.59 239.74 100.59 230.35 109.96 230.35 109.96 220.96 119.33 220.96 128.69 220.96 128.69 211.56 138.06 211.56 147.42 211.56 147.42 202.17 156.79 202.17 166.15 202.17 175.52 202.17 184.89 202.17 184.89 211.56 194.25 211.56 203.62 211.56 203.62 220.96 212.98 220.96 212.98 230.35 222.35 230.35 222.35 239.74 222.35 249.13 231.72 249.13 241.08 249.13 241.08 239.74 250.45 239.74 259.81 239.74 259.81 230.35 269.18 230.35 269.18 220.96 278.54 220.96 287.91 220.96 287.91 211.56 297.28 211.56 297.28 202.17 306.64 202.17 316.01 202.17 325.37 202.17 325.37 192.78 334.74 192.78 344.11 192.78 353.47 192.78 353.47 183.39 362.84 183.39 372.2 183.39 372.2 192.78 381.57 192.78 390.94 192.78 390.94 202.17 400.3 202.17 409.67 202.17 419.03 202.17 419.03 211.56 428.4 211.56 437.76 211.56 437.76 202.17 447.13 202.17 447.13 192.78 456.5 192.78 456.5 183.39 465.86 183.39 465.86 174 475.23 174 475.23 164.61 484.59 164.61 493.96 164.61 503.32 164.61 503.32 155.22 512.69 155.22 522.06 155.22 531.42 155.22 540.79 155.22 550.15 155.22 559.52 155.22 559.52 164.61 568.89 164.61 568.89 174 578.25 174 578.25 183.39 587.62 183.39 596.98 183.39 596.98 192.78 606.35 192.78 606.35 183.39 606.35 174 615.72 174 615.72 164.61 615.72 155.22 625.08 155.22 625.08 145.83 625.08 136.44 634.45 136.44 643.81 136.44 643.81 127.04 653.18 127.04 662.54 127.04 671.91 127.04 681.28 127.04 690.64 127.04 700.01 127.04 709.37 127.04 718.74 127.04 718.74 136.44 728.11 136.44 737.47 136.44 737.47 145.83 746.84 145.83 756.2 145.83 756.2 155.22 765.57 155.22 774.93 155.22 774.93 164.61 784.3 164.61 793.67 164.61 803.03 164.61 803.03 155.22 812.4 155.22 812.4 145.83 812.4 136.44 821.76 136.44 821.76 127.04 831.13 127.04 831.13 117.65 840.5 117.65 840.5 108.26 849.86 108.26 859.23 108.26 859.23 98.87 868.59 98.87 877.96 98.87 877.96 89.48 887.33 89.48 887.33 80.09 877.96 80.09 868.59 80.09"/><rect class="cls-3" x="971.62" y="136.43" width="9.37" height="9.39"/><polygon class="cls-4" points="222.35 249.13 222.35 239.74 222.35 230.35 212.98 230.35 212.98 220.96 203.62 220.96 203.62 211.56 194.25 211.56 184.89 211.56 184.89 202.17 175.52 202.17 166.15 202.17 156.79 202.17 147.42 202.17 147.42 211.56 138.06 211.56 128.69 211.56 128.69 220.96 119.33 220.96 109.96 220.96 109.96 230.35 100.59 230.35 100.59 239.74 91.23 239.74 91.23 249.13 81.86 249.13 72.5 249.13 72.5 258.52 63.13 258.52 53.76 258.52 53.76 267.91 44.4 267.91 35.03 267.91 35.03 277.3 35.03 286.7 44.4 286.7 53.76 286.7 63.13 286.7 72.5 286.7 72.5 296.09 81.86 296.09 91.23 296.09 100.59 296.09 109.96 296.09 119.33 296.09 119.33 286.7 128.69 286.7 138.06 286.7 147.42 286.7 156.79 286.7 166.15 286.7 166.15 296.09 175.52 296.09 184.89 296.09 194.25 296.09 194.25 286.7 203.62 286.7 203.62 277.3 212.98 277.3 212.98 267.91 222.35 267.91 222.35 258.52 231.72 258.52 241.08 258.52 241.08 249.13 231.72 249.13 222.35 249.13"/><polygon class="cls-4" points="1009.08 249.13 1009.08 239.74 1009.08 230.35 1009.08 220.96 999.72 220.96 990.35 220.96 990.35 211.56 980.98 211.56 980.98 202.17 980.98 192.78 990.35 192.78 990.35 183.39 990.35 174 990.35 164.61 980.98 164.61 980.98 155.22 980.98 145.83 971.62 145.83 971.62 136.44 962.25 136.44 952.89 136.44 943.52 136.44 934.15 136.44 934.15 127.04 924.79 127.04 924.79 117.65 924.79 108.26 915.42 108.26 915.42 98.87 906.06 98.87 906.06 89.48 896.69 89.48 887.33 89.48 877.96 89.48 877.96 98.87 868.59 98.87 859.23 98.87 859.23 108.26 849.86 108.26 840.5 108.26 840.5 117.65 831.13 117.65 831.13 127.04 821.76 127.04 821.76 136.44 812.4 136.44 812.4 145.83 812.4 155.22 803.03 155.22 803.03 164.61 793.67 164.61 784.3 164.61 774.93 164.61 774.93 155.22 765.57 155.22 756.2 155.22 756.2 145.83 746.84 145.83 737.47 145.83 737.47 136.44 728.11 136.44 718.74 136.44 718.74 127.04 709.37 127.04 700.01 127.04 690.64 127.04 681.28 127.04 671.91 127.04 662.54 127.04 653.18 127.04 643.81 127.04 643.81 136.44 634.45 136.44 625.08 136.44 625.08 145.83 625.08 155.22 615.72 155.22 615.72 164.61 615.72 174 606.35 174 606.35 183.39 606.35 192.78 596.98 192.78 596.98 183.39 587.62 183.39 578.25 183.39 578.25 174 568.89 174 568.89 164.61 559.52 164.61 559.52 155.22 550.15 155.22 540.79 155.22 531.42 155.22 522.06 155.22 512.69 155.22 503.32 155.22 503.32 164.61 493.96 164.61 484.59 164.61 475.23 164.61 475.23 174 465.86 174 465.86 183.39 456.5 183.39 456.5 192.78 447.13 192.78 447.13 202.17 437.76 202.17 437.76 211.56 428.4 211.56 419.03 211.56 419.03 202.17 409.67 202.17 400.3 202.17 390.94 202.17 390.94 192.78 381.57 192.78 372.2 192.78 372.2 183.39 362.84 183.39 353.47 183.39 353.47 192.78 344.11 192.78 334.74 192.78 325.37 192.78 325.37 202.17 316.01 202.17 306.64 202.17 297.28 202.17 297.28 211.56 287.91 211.56 287.91 220.96 278.54 220.96 269.18 220.96 269.18 230.35 259.81 230.35 259.81 239.74 250.45 239.74 241.08 239.74 241.08 249.13 250.45 249.13 259.81 249.13 259.81 258.52 269.18 258.52 278.54 258.52 287.91 258.52 287.91 267.91 297.28 267.91 297.28 277.3 306.64 277.3 306.64 286.7 316.01 286.7 325.37 286.7 334.74 286.7 334.74 296.09 344.11 296.09 353.47 296.09 362.84 296.09 372.2 296.09 381.57 296.09 390.94 296.09 390.94 286.7 400.3 286.7 409.67 286.7 409.67 277.3 419.03 277.3 428.4 277.3 437.76 277.3 447.13 277.3 447.13 286.7 456.5 286.7 465.86 286.7 465.86 296.09 475.23 296.09 484.59 296.09 493.96 296.09 503.32 296.09 512.69 296.09 522.06 296.09 531.42 296.09 540.79 296.09 540.79 305.48 550.15 305.48 550.15 296.09 559.52 296.09 559.52 286.7 568.89 286.7 568.89 277.3 568.89 267.91 578.25 267.91 578.25 258.52 587.62 258.52 596.98 258.52 606.35 258.52 615.72 258.52 625.08 258.52 634.45 258.52 634.45 267.91 643.81 267.91 653.18 267.91 653.18 277.3 662.54 277.3 662.54 286.7 671.91 286.7 671.91 296.09 681.28 296.09 681.28 305.48 690.64 305.48 690.64 296.09 700.01 296.09 709.37 296.09 718.74 296.09 718.74 286.7 728.11 286.7 728.11 277.3 737.47 277.3 746.84 277.3 746.84 267.91 756.2 267.91 765.57 267.91 774.93 267.91 784.3 267.91 793.67 267.91 803.03 267.91 803.03 277.3 812.4 277.3 812.4 286.7 821.76 286.7 821.76 296.09 831.13 296.09 840.5 296.09 849.86 296.09 849.86 286.7 859.23 286.7 859.23 277.3 868.59 277.3 877.96 277.3 887.33 277.3 896.69 277.3 906.06 277.3 906.06 286.7 915.42 286.7 924.79 286.7 934.15 286.7 934.15 277.3 943.52 277.3 943.52 267.91 952.89 267.91 952.89 258.52 962.25 258.52 971.62 258.52 980.98 258.52 990.35 258.52 990.35 267.91 999.72 267.91 1009.08 267.91 1018.45 267.91 1018.45 258.52 1018.45 249.13 1009.08 249.13"/><polygon class="cls-5" points="1027.81 286.7 1027.81 277.3 1018.45 277.3 1018.45 267.91 1009.08 267.91 999.72 267.91 990.35 267.91 990.35 258.52 980.98 258.52 971.62 258.52 962.25 258.52 952.89 258.52 952.89 267.91 943.52 267.91 943.52 277.3 934.15 277.3 934.15 286.7 924.79 286.7 915.42 286.7 906.06 286.7 906.06 277.3 896.69 277.3 887.33 277.3 877.96 277.3 868.59 277.3 859.23 277.3 859.23 286.7 849.86 286.7 849.86 296.09 840.5 296.09 831.13 296.09 821.76 296.09 821.76 286.7 812.4 286.7 812.4 277.3 803.03 277.3 803.03 267.91 793.67 267.91 784.3 267.91 774.93 267.91 765.57 267.91 756.2 267.91 746.84 267.91 746.84 277.3 737.47 277.3 728.11 277.3 728.11 286.7 718.74 286.7 718.74 296.09 709.37 296.09 700.01 296.09 690.64 296.09 690.64 305.48 681.28 305.48 681.28 296.09 671.91 296.09 671.91 286.7 662.54 286.7 662.54 277.3 653.18 277.3 653.18 267.91 643.81 267.91 634.45 267.91 634.45 258.52 625.08 258.52 615.72 258.52 606.35 258.52 596.98 258.52 587.62 258.52 578.25 258.52 578.25 267.91 568.89 267.91 568.89 277.3 568.89 286.7 559.52 286.7 559.52 296.09 550.15 296.09 550.15 305.48 540.79 305.48 540.79 296.09 531.42 296.09 522.06 296.09 512.69 296.09 503.32 296.09 493.96 296.09 484.59 296.09 475.23 296.09 465.86 296.09 465.86 286.7 456.5 286.7 447.13 286.7 447.13 277.3 437.76 277.3 428.4 277.3 419.03 277.3 409.67 277.3 409.67 286.7 400.3 286.7 390.94 286.7 390.94 296.09 381.57 296.09 372.2 296.09 362.84 296.09 353.47 296.09 344.11 296.09 334.74 296.09 334.74 286.7 325.37 286.7 316.01 286.7 306.64 286.7 306.64 277.3 297.28 277.3 297.28 267.91 287.91 267.91 287.91 258.52 278.54 258.52 269.18 258.52 259.81 258.52 259.81 249.13 250.45 249.13 241.08 249.13 241.08 258.52 231.72 258.52 222.35 258.52 222.35 267.91 212.98 267.91 212.98 277.3 203.62 277.3 203.62 286.7 194.25 286.7 194.25 296.09 184.89 296.09 175.52 296.09 166.15 296.09 166.15 286.7 156.79 286.7 147.42 286.7 138.06 286.7 128.69 286.7 119.33 286.7 119.33 296.09 109.96 296.09 100.59 296.09 91.23 296.09 81.86 296.09 72.5 296.09 72.5 286.7 63.13 286.7 53.76 286.7 44.4 286.7 35.03 286.7 35.03 296.09 25.67 296.09 25.67 305.48 35.03 305.48 35.03 314.87 44.4 314.87 44.4 324.26 53.76 324.26 63.13 324.26 72.5 324.26 81.86 324.26 91.23 324.26 100.59 324.26 109.96 324.26 119.33 324.26 119.33 314.87 128.69 314.87 138.06 314.87 147.42 314.87 156.79 314.87 166.15 314.87 175.52 314.87 184.89 314.87 194.25 314.87 194.25 324.26 203.62 324.26 212.98 324.26 212.98 333.65 222.35 333.65 231.72 333.65 231.72 343.04 241.08 343.04 241.08 352.44 250.45 352.44 259.81 352.44 269.18 352.44 278.54 352.44 287.91 352.44 297.28 352.44 306.64 352.44 316.01 352.44 316.01 343.04 325.37 343.04 334.74 343.04 344.11 343.04 353.47 343.04 362.84 343.04 372.2 343.04 372.2 333.65 381.57 333.65 390.94 333.65 400.3 333.65 409.67 333.65 419.03 333.65 428.4 333.65 437.76 333.65 447.13 333.65 456.5 333.65 456.5 343.04 465.86 343.04 475.23 343.04 484.59 343.04 493.96 343.04 503.32 343.04 503.32 352.44 512.69 352.44 522.06 352.44 531.42 352.44 540.79 352.44 550.15 352.44 559.52 352.44 568.89 352.44 578.25 352.44 587.62 352.44 596.98 352.44 596.98 343.04 606.35 343.04 615.72 343.04 625.08 343.04 634.45 343.04 643.81 343.04 653.18 343.04 662.54 343.04 671.91 343.04 681.28 343.04 690.64 343.04 700.01 343.04 709.37 343.04 709.37 333.65 718.74 333.65 728.11 333.65 737.47 333.65 746.84 333.65 756.2 333.65 765.57 333.65 774.93 333.65 784.3 333.65 793.67 333.65 803.03 333.65 812.4 333.65 821.76 333.65 831.13 333.65 831.13 343.04 840.5 343.04 849.86 343.04 859.23 343.04 859.23 352.44 868.59 352.44 877.96 352.44 887.33 352.44 896.69 352.44 906.06 352.44 915.42 352.44 924.79 352.44 934.15 352.44 943.52 352.44 952.89 352.44 952.89 343.04 962.25 343.04 971.62 343.04 980.98 343.04 980.98 333.65 990.35 333.65 999.72 333.65 1009.08 333.65 1009.08 324.26 1018.45 324.26 1027.81 324.26 1037.18 324.26 1037.18 314.87 1037.18 305.48 1037.18 296.09 1037.18 286.7 1027.81 286.7"/></g></g><g id="nuage2"><g class="cls-2"><polygon class="cls-6" points="32.16 176.7 32.16 167.3 32.16 157.91 22.8 157.91 13.43 157.91 4.06 157.91 4.06 148.52 4.06 139.13 -5.3 139.13 -5.3 129.74 -14.67 129.74 -14.67 120.35 -24.03 120.35 -33.4 120.35 -33.4 110.96 -42.77 110.96 -52.13 110.96 -61.5 110.96 -70.86 110.96 -70.86 101.56 -80.23 101.56 -80.23 92.17 -89.59 92.17 -98.96 92.17 -108.33 92.17 -117.69 92.17 -127.06 92.17 -127.06 82.78 -136.42 82.78 -136.42 73.39 -145.79 73.39 -155.16 73.39 -164.52 73.39 -164.52 64 -173.89 64 -183.25 64 -183.25 73.39 -192.62 73.39 -201.99 73.39 -201.99 82.78 -211.35 82.78 -220.72 82.78 -230.08 82.78 -239.45 82.78 -248.81 82.78 -258.18 82.78 -267.55 82.78 -276.91 82.78 -276.91 92.17 -286.28 92.17 -295.64 92.17 -295.64 101.56 -295.64 110.96 -295.64 120.35 -305.01 120.35 -305.01 129.74 -314.38 129.74 -314.38 139.13 -323.74 139.13 -323.74 148.52 -323.74 157.91 -323.74 167.3 -333.11 167.3 -333.11 176.7 -333.11 186.09 -323.74 186.09 -323.74 176.7 -314.38 176.7 -314.38 167.3 -305.01 167.3 -305.01 157.91 -295.64 157.91 -295.64 148.52 -286.28 148.52 -286.28 139.13 -276.91 139.13 -267.55 139.13 -258.18 139.13 -248.81 139.13 -239.45 139.13 -239.45 148.52 -230.08 148.52 -230.08 157.91 -220.72 157.91 -211.35 157.91 -211.35 148.52 -201.99 148.52 -201.99 139.13 -192.62 139.13 -192.62 129.74 -183.25 129.74 -183.25 120.35 -173.89 120.35 -173.89 110.96 -164.52 110.96 -164.52 101.56 -155.16 101.56 -145.79 101.56 -136.42 101.56 -127.06 101.56 -127.06 110.96 -117.69 110.96 -108.33 110.96 -108.33 120.35 -98.96 120.35 -89.59 120.35 -89.59 129.74 -89.59 139.13 -89.59 148.52 -89.59 157.91 -80.23 157.91 -70.86 157.91 -61.5 157.91 -61.5 148.52 -52.13 148.52 -52.13 139.13 -42.77 139.13 -33.4 139.13 -24.03 139.13 -24.03 148.52 -24.03 157.91 -14.67 157.91 -14.67 167.3 -5.3 167.3 4.06 167.3 13.43 167.3 13.43 176.7 22.8 176.7 22.8 186.09 32.16 186.09 32.16 195.48 41.53 195.48 41.53 186.09 41.53 176.7 32.16 176.7"/><polygon class="cls-5" points="32.16 195.48 32.16 186.09 22.8 186.09 22.8 176.7 13.43 176.7 13.43 167.3 4.06 167.3 -5.3 167.3 -14.67 167.3 -14.67 176.7 -24.03 176.7 -24.03 186.09 -24.03 195.48 -33.4 195.48 -33.4 186.09 -42.77 186.09 -42.77 176.7 -52.13 176.7 -52.13 167.3 -61.5 167.3 -61.5 157.91 -70.86 157.91 -80.23 157.91 -89.59 157.91 -89.59 167.3 -98.96 167.3 -108.33 167.3 -108.33 176.7 -117.69 176.7 -117.69 186.09 -127.06 186.09 -127.06 195.48 -136.42 195.48 -145.79 195.48 -155.16 195.48 -155.16 186.09 -164.52 186.09 -173.89 186.09 -173.89 176.7 -183.25 176.7 -192.62 176.7 -201.99 176.7 -211.35 176.7 -211.35 186.09 -220.72 186.09 -220.72 195.48 -220.72 204.87 -230.08 204.87 -230.08 195.48 -239.45 195.48 -248.81 195.48 -258.18 195.48 -267.55 195.48 -267.55 204.87 -276.91 204.87 -286.28 204.87 -286.28 214.26 -295.64 214.26 -305.01 214.26 -314.38 214.26 -314.38 204.87 -323.74 204.87 -323.74 214.26 -323.74 223.65 -314.38 223.65 -314.38 233.04 -305.01 233.04 -305.01 242.44 -295.64 242.44 -286.28 242.44 -276.91 242.44 -267.55 242.44 -258.18 242.44 -248.81 242.44 -248.81 251.83 -239.45 251.83 -230.08 251.83 -220.72 251.83 -211.35 251.83 -201.99 251.83 -201.99 242.44 -192.62 242.44 -183.25 242.44 -173.89 242.44 -164.52 242.44 -164.52 233.04 -155.16 233.04 -155.16 242.44 -145.79 242.44 -136.42 242.44 -127.06 242.44 -117.69 242.44 -117.69 251.83 -108.33 251.83 -98.96 251.83 -89.59 251.83 -80.23 251.83 -70.86 251.83 -61.5 251.83 -52.13 251.83 -52.13 242.44 -42.77 242.44 -33.4 242.44 -24.03 242.44 -14.67 242.44 -5.3 242.44 4.06 242.44 13.43 242.44 22.8 242.44 22.8 233.04 32.16 233.04 32.16 223.65 41.53 223.65 41.53 214.26 41.53 204.87 41.53 195.48 32.16 195.48"/></g></g><g id="nuage3"><g class="cls-2"><polygon class="cls-6" points="971.76 624.78 962.4 624.78 962.4 615.39 953.03 615.39 943.67 615.39 943.67 606 934.3 606 924.93 606 915.57 606 906.2 606 906.2 596.61 896.84 596.61 887.47 596.61 878.11 596.61 878.11 587.22 868.74 587.22 868.74 577.83 859.37 577.83 859.37 568.43 850.01 568.43 840.64 568.43 831.28 568.43 821.91 568.43 821.91 577.83 812.54 577.83 812.54 568.43 812.54 559.04 803.18 559.04 803.18 549.65 803.18 540.26 793.81 540.26 784.45 540.26 784.45 530.87 775.08 530.87 775.08 521.48 775.08 512.09 765.72 512.09 756.35 512.09 746.98 512.09 737.62 512.09 728.25 512.09 728.25 502.7 718.89 502.7 709.52 502.7 700.15 502.7 690.79 502.7 681.42 502.7 672.06 502.7 672.06 512.09 662.69 512.09 653.33 512.09 643.96 512.09 634.59 512.09 625.23 512.09 625.23 521.48 615.86 521.48 606.5 521.48 606.5 512.09 597.13 512.09 597.13 502.7 587.76 502.7 578.4 502.7 569.03 502.7 569.03 493.3 559.67 493.3 550.3 493.3 540.93 493.3 531.57 493.3 522.2 493.3 512.84 493.3 512.84 483.91 512.84 474.52 512.84 465.13 503.47 465.13 503.47 455.74 494.11 455.74 484.74 455.74 484.74 446.35 475.37 446.35 466.01 446.35 466.01 436.96 456.64 436.96 447.28 436.96 437.91 436.96 428.54 436.96 428.54 427.56 419.18 427.56 419.18 418.17 409.81 418.17 400.45 418.17 391.08 418.17 391.08 408.78 381.71 408.78 372.35 408.78 362.98 408.78 353.62 408.78 344.25 408.78 344.25 399.39 334.89 399.39 334.89 390 325.52 390 325.52 380.61 316.15 380.61 316.15 371.22 306.79 371.22 297.42 371.22 297.42 361.83 288.06 361.83 278.69 361.83 269.32 361.83 259.96 361.83 250.59 361.83 241.23 361.83 241.23 371.22 231.86 371.22 222.5 371.22 213.13 371.22 213.13 380.61 203.76 380.61 203.76 371.22 194.4 371.22 194.4 361.83 185.03 361.83 185.03 352.44 175.67 352.44 166.3 352.44 156.94 352.44 147.57 352.44 138.2 352.44 128.84 352.44 119.47 352.44 110.11 352.44 100.74 352.44 91.37 352.44 82.01 352.44 82.01 361.83 72.64 361.83 63.28 361.83 53.91 361.83 53.91 371.22 44.54 371.22 44.54 380.61 35.18 380.61 35.18 390 25.81 390 25.81 399.39 16.45 399.39 16.45 408.78 7.08 408.78 -2.29 408.78 -11.65 408.78 -11.65 418.17 -21.02 418.17 -30.38 418.17 -39.75 418.17 -49.11 418.17 -49.11 408.78 -58.48 408.78 -67.85 408.78 -77.21 408.78 -86.58 408.78 -95.94 408.78 -95.94 418.17 -105.31 418.17 -114.67 418.17 -124.04 418.17 -133.41 418.17 -133.41 427.56 -133.41 436.96 -142.77 436.96 -142.77 446.35 -142.77 455.74 -142.77 465.13 -133.41 465.13 -133.41 455.74 -124.04 455.74 -114.67 455.74 -105.31 455.74 -95.94 455.74 -86.58 455.74 -77.21 455.74 -67.85 455.74 -58.48 455.74 -49.11 455.74 -39.75 455.74 -30.38 455.74 -21.02 455.74 -21.02 465.13 -11.65 465.13 -2.29 465.13 7.08 465.13 7.08 474.52 16.45 474.52 25.81 474.52 25.81 483.91 35.18 483.91 35.18 474.52 35.18 465.13 44.54 465.13 44.54 455.74 44.54 446.35 53.91 446.35 53.91 436.96 63.28 436.96 63.28 427.56 72.64 427.56 72.64 418.17 82.01 418.17 91.37 418.17 91.37 408.78 100.74 408.78 110.11 408.78 110.11 399.39 119.47 399.39 128.84 399.39 138.2 399.39 147.57 399.39 147.57 408.78 156.94 408.78 166.3 408.78 175.67 408.78 185.03 408.78 194.4 408.78 203.76 408.78 203.76 418.17 213.13 418.17 213.13 427.56 222.5 427.56 222.5 436.96 231.86 436.96 231.86 446.35 231.86 455.74 241.23 455.74 241.23 465.13 250.59 465.13 250.59 474.52 259.96 474.52 259.96 483.91 259.96 493.3 269.32 493.3 278.69 493.3 288.06 493.3 288.06 483.91 297.42 483.91 306.79 483.91 306.79 474.52 316.15 474.52 325.52 474.52 334.89 474.52 334.89 465.13 344.25 465.13 353.62 465.13 362.98 465.13 372.35 465.13 381.71 465.13 381.71 474.52 391.08 474.52 400.45 474.52 409.81 474.52 409.81 483.91 419.18 483.91 419.18 493.3 428.54 493.3 437.91 493.3 437.91 502.7 447.28 502.7 447.28 512.09 456.64 512.09 456.64 521.48 456.64 530.87 456.64 540.26 466.01 540.26 466.01 549.65 475.37 549.65 484.74 549.65 494.11 549.65 494.11 559.04 503.47 559.04 512.84 559.04 522.2 559.04 531.57 559.04 531.57 549.65 540.93 549.65 550.3 549.65 559.67 549.65 569.03 549.65 569.03 559.04 578.4 559.04 587.76 559.04 597.13 559.04 597.13 568.43 606.5 568.43 615.86 568.43 615.86 559.04 625.23 559.04 625.23 549.65 634.59 549.65 634.59 540.26 643.96 540.26 643.96 530.87 653.33 530.87 662.69 530.87 672.06 530.87 681.42 530.87 690.79 530.87 690.79 540.26 700.15 540.26 709.52 540.26 709.52 549.65 718.89 549.65 728.25 549.65 728.25 559.04 737.62 559.04 746.98 559.04 746.98 568.43 746.98 577.83 756.35 577.83 756.35 587.22 765.72 587.22 765.72 596.61 775.08 596.61 775.08 606 784.45 606 793.81 606 803.18 606 812.54 606 821.91 606 831.28 606 831.28 596.61 840.64 596.61 850.01 596.61 859.37 596.61 859.37 606 868.74 606 878.11 606 887.47 606 887.47 615.39 896.84 615.39 906.2 615.39 906.2 624.78 915.57 624.78 915.57 634.17 924.93 634.17 934.3 634.17 943.67 634.17 953.03 634.17 962.4 634.17 971.76 634.17 981.13 634.17 990.5 634.17 990.5 624.78 981.13 624.78 971.76 624.78"/><polygon class="cls-6" points="1037.33 643.57 1037.33 652.96 1046.69 652.96 1056.06 652.96 1056.06 643.57 1046.69 643.57 1037.33 643.57"/><polygon class="cls-6" points="1159.08 643.57 1149.71 643.57 1140.35 643.57 1130.98 643.57 1121.62 643.57 1112.25 643.57 1112.25 652.96 1121.62 652.96 1130.98 652.96 1140.35 652.96 1149.71 652.96 1159.08 652.96 1168.45 652.96 1168.45 643.57 1159.08 643.57"/><polygon class="cls-6" points="1093.52 652.96 1084.15 652.96 1074.79 652.96 1065.42 652.96 1065.42 662.35 1074.79 662.35 1084.15 662.35 1093.52 662.35 1102.89 662.35 1112.25 662.35 1112.25 652.96 1102.89 652.96 1093.52 652.96"/><polygon class="cls-6" points="1168.45 652.96 1168.45 662.35 1177.81 662.35 1187.18 662.35 1187.18 652.96 1177.81 652.96 1168.45 652.96"/><polygon class="cls-6" points="1280.84 662.35 1271.47 662.35 1262.11 662.35 1262.11 652.96 1252.74 652.96 1243.37 652.96 1234.01 652.96 1224.64 652.96 1215.28 652.96 1215.28 662.35 1224.64 662.35 1234.01 662.35 1234.01 671.74 1243.37 671.74 1243.37 681.13 1252.74 681.13 1262.11 681.13 1271.47 681.13 1280.84 681.13 1290.2 681.13 1290.2 671.74 1290.2 662.35 1280.84 662.35"/><polygon class="cls-4" points="494.11 549.65 484.74 549.65 475.37 549.65 466.01 549.65 466.01 540.26 456.64 540.26 456.64 530.87 456.64 521.48 456.64 512.09 447.28 512.09 447.28 502.7 437.91 502.7 437.91 493.3 428.54 493.3 419.18 493.3 419.18 483.91 409.81 483.91 409.81 474.52 400.45 474.52 391.08 474.52 381.71 474.52 381.71 465.13 372.35 465.13 362.98 465.13 353.62 465.13 344.25 465.13 334.89 465.13 334.89 474.52 325.52 474.52 316.15 474.52 306.79 474.52 306.79 483.91 297.42 483.91 288.06 483.91 288.06 493.3 278.69 493.3 269.32 493.3 259.96 493.3 259.96 483.91 259.96 474.52 250.59 474.52 250.59 465.13 241.23 465.13 241.23 455.74 231.86 455.74 231.86 446.35 231.86 436.96 222.5 436.96 222.5 427.56 213.13 427.56 213.13 418.17 203.76 418.17 203.76 408.78 194.4 408.78 185.03 408.78 175.67 408.78 166.3 408.78 156.94 408.78 147.57 408.78 147.57 399.39 138.2 399.39 128.84 399.39 119.47 399.39 110.11 399.39 110.11 408.78 100.74 408.78 91.37 408.78 91.37 418.17 82.01 418.17 72.64 418.17 72.64 427.56 63.28 427.56 63.28 436.96 53.91 436.96 53.91 446.35 44.54 446.35 44.54 455.74 44.54 465.13 35.18 465.13 35.18 474.52 35.18 483.91 25.81 483.91 25.81 474.52 16.45 474.52 7.08 474.52 7.08 465.13 -2.29 465.13 -11.65 465.13 -21.02 465.13 -21.02 455.74 -30.38 455.74 -39.75 455.74 -49.11 455.74 -58.48 455.74 -67.85 455.74 -77.21 455.74 -86.58 455.74 -95.94 455.74 -105.31 455.74 -114.67 455.74 -124.04 455.74 -133.41 455.74 -133.41 465.13 -142.77 465.13 -142.77 474.52 -152.14 474.52 -152.14 483.91 -161.5 483.91 -161.5 493.3 -170.87 493.3 -170.87 502.7 -170.87 512.09 -170.87 521.48 -170.87 530.87 -180.24 530.87 -180.24 540.26 -180.24 549.65 -180.24 559.04 -189.6 559.04 -198.97 559.04 -208.33 559.04 -208.33 549.65 -217.7 549.65 -227.06 549.65 -236.43 549.65 -236.43 540.26 -245.8 540.26 -255.16 540.26 -264.53 540.26 -273.89 540.26 -283.26 540.26 -283.26 549.65 -292.63 549.65 -292.63 559.04 -292.63 568.43 -301.99 568.43 -301.99 577.83 -301.99 587.22 -311.36 587.22 -311.36 596.61 -320.72 596.61 -320.72 606 -330.09 606 -339.46 606 -348.82 606 -358.19 606 -367.55 606 -376.92 606 -386.29 606 -395.65 606 -405.02 606 -414.38 606 -423.75 606 -423.75 615.39 -433.11 615.39 -433.11 624.78 -442.48 624.78 -442.48 634.17 -451.85 634.17 -461.21 634.17 -461.21 643.57 -470.58 643.57 -479.94 643.57 -479.94 652.96 -489.31 652.96 -489.31 662.35 -498.68 662.35 -498.68 671.74 -498.68 681.13 -489.31 681.13 -489.31 671.74 -479.94 671.74 -470.58 671.74 -470.58 662.35 -461.21 662.35 -451.85 662.35 -451.85 652.96 -442.48 652.96 -433.11 652.96 -423.75 652.96 -414.38 652.96 -405.02 652.96 -395.65 652.96 -386.29 652.96 -376.92 652.96 -367.55 652.96 -367.55 643.57 -358.19 643.57 -348.82 643.57 -339.46 643.57 -339.46 634.17 -330.09 634.17 -330.09 624.78 -320.72 624.78 -311.36 624.78 -311.36 615.39 -301.99 615.39 -301.99 606 -292.63 606 -283.26 606 -283.26 596.61 -273.89 596.61 -273.89 587.22 -264.53 587.22 -255.16 587.22 -245.8 587.22 -236.43 587.22 -236.43 577.83 -227.06 577.83 -217.7 577.83 -208.33 577.83 -198.97 577.83 -189.6 577.83 -180.24 577.83 -180.24 587.22 -170.87 587.22 -161.5 587.22 -152.14 587.22 -142.77 587.22 -142.77 596.61 -133.41 596.61 -124.04 596.61 -114.67 596.61 -114.67 606 -105.31 606 -105.31 596.61 -95.94 596.61 -95.94 587.22 -86.58 587.22 -86.58 577.83 -86.58 568.43 -77.21 568.43 -77.21 559.04 -77.21 549.65 -67.85 549.65 -67.85 540.26 -58.48 540.26 -58.48 530.87 -49.11 530.87 -49.11 521.48 -39.75 521.48 -30.38 521.48 -21.02 521.48 -11.65 521.48 -2.29 521.48 7.08 521.48 16.45 521.48 25.81 521.48 35.18 521.48 44.54 521.48 44.54 530.87 53.91 530.87 53.91 540.26 63.28 540.26 72.64 540.26 72.64 549.65 82.01 549.65 91.37 549.65 91.37 559.04 100.74 559.04 100.74 549.65 110.11 549.65 119.47 549.65 119.47 540.26 128.84 540.26 138.2 540.26 147.57 540.26 156.94 540.26 166.3 540.26 166.3 549.65 175.67 549.65 185.03 549.65 185.03 559.04 185.03 568.43 194.4 568.43 203.76 568.43 213.13 568.43 213.13 559.04 222.5 559.04 222.5 549.65 231.86 549.65 241.23 549.65 250.59 549.65 259.96 549.65 269.32 549.65 269.32 559.04 278.69 559.04 288.06 559.04 297.42 559.04 297.42 568.43 306.79 568.43 316.15 568.43 316.15 577.83 325.52 577.83 325.52 587.22 325.52 596.61 334.89 596.61 334.89 606 334.89 615.39 344.25 615.39 344.25 606 353.62 606 362.98 606 362.98 596.61 372.35 596.61 381.71 596.61 391.08 596.61 391.08 587.22 400.45 587.22 409.81 587.22 419.18 587.22 419.18 577.83 428.54 577.83 437.91 577.83 447.28 577.83 447.28 568.43 456.64 568.43 466.01 568.43 466.01 577.83 466.01 587.22 475.37 587.22 484.74 587.22 484.74 577.83 494.11 577.83 494.11 568.43 503.47 568.43 503.47 559.04 494.11 559.04 494.11 549.65"/><polygon class="cls-4" points="746.98 559.04 737.62 559.04 728.25 559.04 728.25 549.65 718.89 549.65 709.52 549.65 709.52 540.26 700.15 540.26 690.79 540.26 690.79 530.87 681.42 530.87 672.06 530.87 662.69 530.87 653.33 530.87 643.96 530.87 643.96 540.26 634.59 540.26 634.59 549.65 625.23 549.65 625.23 559.04 615.86 559.04 615.86 568.43 606.5 568.43 597.13 568.43 597.13 559.04 587.76 559.04 578.4 559.04 569.03 559.04 569.03 549.65 559.67 549.65 550.3 549.65 540.93 549.65 531.57 549.65 531.57 559.04 540.93 559.04 550.3 559.04 550.3 568.43 559.67 568.43 559.67 577.83 569.03 577.83 569.03 587.22 578.4 587.22 578.4 596.61 578.4 606 587.76 606 587.76 615.39 597.13 615.39 597.13 624.78 606.5 624.78 606.5 634.17 615.86 634.17 625.23 634.17 634.59 634.17 634.59 624.78 643.96 624.78 653.33 624.78 653.33 615.39 662.69 615.39 672.06 615.39 672.06 606 681.42 606 681.42 596.61 690.79 596.61 700.15 596.61 700.15 587.22 709.52 587.22 709.52 577.83 718.89 577.83 728.25 577.83 737.62 577.83 746.98 577.83 746.98 568.43 746.98 559.04"/><rect class="cls-4" x="746.98" y="577.83" width="9.37" height="9.39"/><rect class="cls-4" x="765.72" y="596.61" width="9.37" height="9.39"/><polygon class="cls-4" points="906.2 615.39 896.84 615.39 887.47 615.39 887.47 606 878.11 606 868.74 606 859.37 606 859.37 596.61 850.01 596.61 840.64 596.61 831.28 596.61 831.28 606 821.91 606 812.54 606 803.18 606 793.81 606 784.45 606 775.08 606 775.08 615.39 784.45 615.39 784.45 624.78 793.81 624.78 803.18 624.78 812.54 624.78 821.91 624.78 821.91 615.39 831.28 615.39 840.64 615.39 850.01 615.39 859.37 615.39 868.74 615.39 878.11 615.39 878.11 624.78 887.47 624.78 896.84 624.78 896.84 634.17 896.84 643.57 906.2 643.57 915.57 643.57 915.57 634.17 915.57 624.78 906.2 624.78 906.2 615.39"/><rect class="cls-4" x="1018.59" y="634.17" width="9.37" height="9.39"/><rect class="cls-4" x="1027.96" y="643.57" width="9.37" height="9.39"/><polygon class="cls-4" points="1149.71 652.96 1140.35 652.96 1130.98 652.96 1121.62 652.96 1112.25 652.96 1112.25 662.35 1102.89 662.35 1093.52 662.35 1084.15 662.35 1074.79 662.35 1065.42 662.35 1065.42 652.96 1056.06 652.96 1046.69 652.96 1037.33 652.96 1037.33 662.35 1046.69 662.35 1046.69 671.74 1056.06 671.74 1065.42 671.74 1074.79 671.74 1084.15 671.74 1084.15 681.13 1093.52 681.13 1093.52 671.74 1102.89 671.74 1112.25 671.74 1121.62 671.74 1130.98 671.74 1130.98 662.35 1140.35 662.35 1149.71 662.35 1159.08 662.35 1168.45 662.35 1168.45 652.96 1159.08 652.96 1149.71 652.96"/><polygon class="cls-4" points="1243.37 681.13 1243.37 671.74 1234.01 671.74 1234.01 662.35 1224.64 662.35 1215.28 662.35 1205.91 662.35 1196.54 662.35 1187.18 662.35 1177.81 662.35 1177.81 671.74 1187.18 671.74 1196.54 671.74 1205.91 671.74 1215.28 671.74 1224.64 671.74 1224.64 681.13 1234.01 681.13 1234.01 690.52 1243.37 690.52 1252.74 690.52 1252.74 681.13 1243.37 681.13"/><polygon class="cls-5" points="1224.64 681.13 1224.64 671.74 1215.28 671.74 1205.91 671.74 1196.54 671.74 1187.18 671.74 1177.81 671.74 1177.81 662.35 1168.45 662.35 1159.08 662.35 1149.71 662.35 1140.35 662.35 1130.98 662.35 1130.98 671.74 1121.62 671.74 1112.25 671.74 1102.89 671.74 1093.52 671.74 1093.52 681.13 1084.15 681.13 1084.15 671.74 1074.79 671.74 1065.42 671.74 1056.06 671.74 1046.69 671.74 1046.69 662.35 1037.33 662.35 1037.33 652.96 1027.96 652.96 1027.96 643.57 1018.59 643.57 1018.59 634.17 1009.23 634.17 999.86 634.17 990.5 634.17 981.13 634.17 971.76 634.17 962.4 634.17 953.03 634.17 943.67 634.17 934.3 634.17 924.93 634.17 915.57 634.17 915.57 643.57 906.2 643.57 896.84 643.57 896.84 634.17 896.84 624.78 887.47 624.78 878.11 624.78 878.11 615.39 868.74 615.39 859.37 615.39 850.01 615.39 840.64 615.39 831.28 615.39 821.91 615.39 821.91 624.78 812.54 624.78 803.18 624.78 793.81 624.78 784.45 624.78 784.45 615.39 775.08 615.39 775.08 606 765.72 606 765.72 596.61 765.72 587.22 756.35 587.22 746.98 587.22 746.98 577.83 737.62 577.83 728.25 577.83 718.89 577.83 709.52 577.83 709.52 587.22 700.15 587.22 700.15 596.61 690.79 596.61 681.42 596.61 681.42 606 672.06 606 672.06 615.39 662.69 615.39 653.33 615.39 653.33 624.78 643.96 624.78 634.59 624.78 634.59 634.17 625.23 634.17 615.86 634.17 606.5 634.17 606.5 624.78 597.13 624.78 597.13 615.39 587.76 615.39 587.76 606 578.4 606 578.4 596.61 578.4 587.22 569.03 587.22 569.03 577.83 559.67 577.83 559.67 568.43 550.3 568.43 550.3 559.04 540.93 559.04 531.57 559.04 522.2 559.04 512.84 559.04 503.47 559.04 503.47 568.43 494.11 568.43 494.11 577.83 484.74 577.83 484.74 587.22 475.37 587.22 466.01 587.22 466.01 577.83 466.01 568.43 456.64 568.43 447.28 568.43 447.28 577.83 437.91 577.83 428.54 577.83 419.18 577.83 419.18 587.22 409.81 587.22 400.45 587.22 391.08 587.22 391.08 596.61 381.71 596.61 372.35 596.61 362.98 596.61 362.98 606 353.62 606 344.25 606 344.25 615.39 334.89 615.39 334.89 606 334.89 596.61 325.52 596.61 325.52 587.22 325.52 577.83 316.15 577.83 316.15 568.43 306.79 568.43 297.42 568.43 297.42 559.04 288.06 559.04 278.69 559.04 269.32 559.04 269.32 549.65 259.96 549.65 250.59 549.65 241.23 549.65 231.86 549.65 222.5 549.65 222.5 559.04 213.13 559.04 213.13 568.43 203.76 568.43 194.4 568.43 185.03 568.43 185.03 559.04 185.03 549.65 175.67 549.65 166.3 549.65 166.3 540.26 156.94 540.26 147.57 540.26 138.2 540.26 128.84 540.26 119.47 540.26 119.47 549.65 110.11 549.65 100.74 549.65 100.74 559.04 91.37 559.04 91.37 549.65 82.01 549.65 72.64 549.65 72.64 540.26 63.28 540.26 53.91 540.26 53.91 530.87 44.54 530.87 44.54 521.48 35.18 521.48 25.81 521.48 16.45 521.48 7.08 521.48 -2.29 521.48 -11.65 521.48 -21.02 521.48 -30.38 521.48 -39.75 521.48 -49.11 521.48 -49.11 530.87 -58.48 530.87 -58.48 540.26 -67.85 540.26 -67.85 549.65 -77.21 549.65 -77.21 559.04 -77.21 568.43 -86.58 568.43 -86.58 577.83 -86.58 587.22 -95.94 587.22 -95.94 596.61 -105.31 596.61 -105.31 606 -114.67 606 -114.67 596.61 -124.04 596.61 -133.41 596.61 -142.77 596.61 -142.77 587.22 -152.14 587.22 -161.5 587.22 -170.87 587.22 -180.24 587.22 -180.24 577.83 -189.6 577.83 -198.97 577.83 -208.33 577.83 -217.7 577.83 -227.06 577.83 -236.43 577.83 -236.43 587.22 -245.8 587.22 -255.16 587.22 -264.53 587.22 -273.89 587.22 -273.89 596.61 -283.26 596.61 -283.26 606 -292.63 606 -301.99 606 -301.99 615.39 -311.36 615.39 -311.36 624.78 -320.72 624.78 -330.09 624.78 -330.09 634.17 -339.46 634.17 -339.46 643.57 -348.82 643.57 -358.19 643.57 -367.55 643.57 -367.55 652.96 -376.92 652.96 -386.29 652.96 -395.65 652.96 -405.02 652.96 -414.38 652.96 -423.75 652.96 -433.11 652.96 -442.48 652.96 -451.85 652.96 -451.85 662.35 -461.21 662.35 -470.58 662.35 -470.58 671.74 -479.94 671.74 -489.31 671.74 -489.31 681.13 -489.31 690.52 -479.94 690.52 -470.58 690.52 -461.21 690.52 -451.85 690.52 -442.48 690.52 -433.11 690.52 -423.75 690.52 -414.38 690.52 -414.38 681.13 -405.02 681.13 -405.02 690.52 -395.65 690.52 -386.29 690.52 -376.92 690.52 -367.55 690.52 -358.19 690.52 -358.19 681.13 -348.82 681.13 -339.46 681.13 -339.46 671.74 -330.09 671.74 -320.72 671.74 -320.72 662.35 -311.36 662.35 -301.99 662.35 -301.99 652.96 -292.63 652.96 -283.26 652.96 -273.89 652.96 -264.53 652.96 -255.16 652.96 -245.8 652.96 -236.43 652.96 -236.43 662.35 -227.06 662.35 -217.7 662.35 -208.33 662.35 -198.97 662.35 -198.97 671.74 -189.6 671.74 -180.24 671.74 -180.24 681.13 -170.87 681.13 -161.5 681.13 -152.14 681.13 -152.14 690.52 -142.77 690.52 -133.41 690.52 -124.04 690.52 -124.04 699.91 -114.67 699.91 -105.31 699.91 -95.94 699.91 -86.58 699.91 -77.21 699.91 -67.85 699.91 -58.48 699.91 -49.11 699.91 -39.75 699.91 -30.38 699.91 -21.02 699.91 -11.65 699.91 -2.29 699.91 7.08 699.91 16.45 699.91 25.81 699.91 35.18 699.91 35.18 690.52 44.54 690.52 53.91 690.52 63.28 690.52 72.64 690.52 82.01 690.52 82.01 681.13 91.37 681.13 91.37 690.52 100.74 690.52 110.11 690.52 119.47 690.52 128.84 690.52 138.2 690.52 138.2 699.91 147.57 699.91 156.94 699.91 166.3 699.91 175.67 699.91 185.03 699.91 185.03 709.3 194.4 709.3 203.76 709.3 213.13 709.3 222.5 709.3 222.5 718.7 231.86 718.7 241.23 718.7 250.59 718.7 259.96 718.7 269.32 718.7 278.69 718.7 288.06 718.7 297.42 718.7 306.79 718.7 306.79 728.09 316.15 728.09 325.52 728.09 334.89 728.09 344.25 728.09 353.62 728.09 362.98 728.09 372.35 728.09 372.35 718.7 381.71 718.7 391.08 718.7 400.45 718.7 409.81 718.7 419.18 718.7 428.54 718.7 428.54 709.3 437.91 709.3 447.28 709.3 456.64 709.3 466.01 709.3 475.37 709.3 475.37 699.91 484.74 699.91 494.11 699.91 503.47 699.91 512.84 699.91 512.84 690.52 522.2 690.52 531.57 690.52 531.57 681.13 540.93 681.13 550.3 681.13 550.3 671.74 559.67 671.74 569.03 671.74 578.4 671.74 578.4 662.35 587.76 662.35 597.13 662.35 606.5 662.35 615.86 662.35 625.23 662.35 634.59 662.35 643.96 662.35 653.33 662.35 662.69 662.35 662.69 671.74 672.06 671.74 681.42 671.74 690.79 671.74 690.79 681.13 700.15 681.13 709.52 681.13 718.89 681.13 718.89 690.52 728.25 690.52 737.62 690.52 746.98 690.52 756.35 690.52 756.35 699.91 765.72 699.91 775.08 699.91 784.45 699.91 793.81 699.91 803.18 699.91 812.54 699.91 821.91 699.91 821.91 690.52 831.28 690.52 840.64 690.52 850.01 690.52 859.37 690.52 859.37 681.13 868.74 681.13 878.11 681.13 887.47 681.13 887.47 671.74 896.84 671.74 906.2 671.74 915.57 671.74 924.93 671.74 934.3 671.74 943.67 671.74 953.03 671.74 953.03 681.13 962.4 681.13 971.76 681.13 981.13 681.13 990.5 681.13 990.5 690.52 999.86 690.52 1009.23 690.52 1018.59 690.52 1027.96 690.52 1037.33 690.52 1046.69 690.52 1056.06 690.52 1065.42 690.52 1065.42 699.91 1074.79 699.91 1084.15 699.91 1093.52 699.91 1102.89 699.91 1112.25 699.91 1121.62 699.91 1130.98 699.91 1140.35 699.91 1149.71 699.91 1159.08 699.91 1159.08 690.52 1168.45 690.52 1177.81 690.52 1187.18 690.52 1196.54 690.52 1196.54 699.91 1205.91 699.91 1215.28 699.91 1215.28 690.52 1224.64 690.52 1234.01 690.52 1234.01 681.13 1224.64 681.13"/></g></g><g id="nuage4"><g class="cls-2"><polygon class="cls-6" points="1900.89 507.39 1900.89 498 1900.89 488.61 1910.25 488.61 1919.62 488.61 1928.98 488.61 1928.98 479.22 1928.98 469.83 1938.35 469.83 1938.35 460.44 1947.71 460.44 1947.71 451.04 1957.08 451.04 1966.45 451.04 1966.45 441.65 1975.81 441.65 1985.18 441.65 1994.54 441.65 2003.91 441.65 2003.91 432.26 2013.28 432.26 2013.28 422.87 2022.64 422.87 2032.01 422.87 2041.37 422.87 2050.74 422.87 2060.11 422.87 2060.11 413.48 2069.47 413.48 2069.47 404.09 2078.84 404.09 2088.2 404.09 2097.57 404.09 2097.57 394.7 2106.93 394.7 2116.3 394.7 2116.3 404.09 2125.67 404.09 2135.03 404.09 2135.03 413.48 2144.4 413.48 2153.76 413.48 2163.13 413.48 2172.5 413.48 2181.86 413.48 2191.23 413.48 2200.59 413.48 2209.96 413.48 2209.96 422.87 2219.32 422.87 2228.69 422.87 2228.69 432.26 2228.69 441.65 2228.69 451.04 2238.06 451.04 2238.06 460.44 2247.42 460.44 2247.42 469.83 2256.79 469.83 2256.79 479.22 2256.79 488.61 2256.79 498 2266.15 498 2266.15 507.39 2266.15 516.78 2256.79 516.78 2256.79 507.39 2247.42 507.39 2247.42 498 2238.06 498 2238.06 488.61 2228.69 488.61 2228.69 479.22 2219.32 479.22 2219.32 469.83 2209.96 469.83 2200.59 469.83 2191.23 469.83 2181.86 469.83 2172.5 469.83 2172.5 479.22 2163.13 479.22 2163.13 488.61 2153.76 488.61 2144.4 488.61 2144.4 479.22 2135.03 479.22 2135.03 469.83 2125.67 469.83 2125.67 460.44 2116.3 460.44 2116.3 451.04 2106.93 451.04 2106.93 441.65 2097.57 441.65 2097.57 432.26 2088.2 432.26 2078.84 432.26 2069.47 432.26 2060.11 432.26 2060.11 441.65 2050.74 441.65 2041.37 441.65 2041.37 451.04 2032.01 451.04 2022.64 451.04 2022.64 460.44 2022.64 469.83 2022.64 479.22 2022.64 488.61 2013.28 488.61 2003.91 488.61 1994.54 488.61 1994.54 479.22 1985.18 479.22 1985.18 469.83 1975.81 469.83 1966.45 469.83 1957.08 469.83 1957.08 479.22 1957.08 488.61 1947.71 488.61 1947.71 498 1938.35 498 1928.98 498 1919.62 498 1919.62 507.39 1910.25 507.39 1910.25 516.78 1900.89 516.78 1900.89 526.17 1891.52 526.17 1891.52 516.78 1891.52 507.39 1900.89 507.39"/><polygon class="cls-5" points="2376.43 526.17 2376.43 535.57 2367.06 535.57 2357.7 535.57 2348.33 535.57 2348.33 526.17 2338.97 526.17 2329.6 526.17 2329.6 516.78 2320.24 516.78 2310.87 516.78 2301.5 516.78 2292.14 516.78 2292.14 526.17 2282.77 526.17 2282.77 516.78 2282.77 507.39 2273.41 507.39 2273.41 498 2264.04 498 2254.67 498 2245.31 498 2235.94 498 2235.94 507.39 2226.58 507.39 2217.21 507.39 2217.21 516.78 2207.84 516.78 2198.48 516.78 2189.11 516.78 2189.11 507.39 2179.75 507.39 2179.75 498 2170.38 498 2170.38 488.61 2161.01 488.61 2151.65 488.61 2151.65 479.22 2142.28 479.22 2132.92 479.22 2123.55 479.22 2123.55 488.61 2114.19 488.61 2114.19 498 2104.82 498 2104.82 507.39 2095.45 507.39 2095.45 516.78 2088.2 516.78 2086.09 516.78 2086.09 507.39 2086.09 498 2076.72 498 2076.72 488.61 2067.36 488.61 2057.99 488.61 2048.63 488.61 2048.63 498 2041.37 498 2039.26 498 2032.01 498 2022.64 498 2022.64 488.61 2013.28 488.61 2003.91 488.61 1994.54 488.61 1994.54 498 1985.18 498 1985.18 507.39 1975.81 507.39 1975.81 516.78 1966.45 516.78 1966.45 526.17 1957.08 526.17 1957.08 516.78 1957.08 507.39 1947.71 507.39 1947.71 498 1938.35 498 1928.98 498 1919.62 498 1919.62 507.39 1910.25 507.39 1910.25 516.78 1900.89 516.78 1900.89 526.17 1891.52 526.17 1891.52 535.57 1891.52 544.96 1891.52 554.35 1900.89 554.35 1900.89 563.74 1910.25 563.74 1910.25 573.13 1919.62 573.13 1928.98 573.13 1938.35 573.13 1947.71 573.13 1957.08 573.13 1966.45 573.13 1975.81 573.13 1985.18 573.13 1985.18 582.52 1994.54 582.52 2003.91 582.52 2013.28 582.52 2022.64 582.52 2032.01 582.52 2041.37 582.52 2050.74 582.52 2050.74 573.13 2060.11 573.13 2069.47 573.13 2078.84 573.13 2088.2 573.13 2088.2 563.74 2095.45 563.74 2097.57 563.74 2097.57 573.13 2106.93 573.13 2114.19 573.13 2116.3 573.13 2123.55 573.13 2125.67 573.13 2132.92 573.13 2135.03 573.13 2135.03 582.52 2144.4 582.52 2153.76 582.52 2163.13 582.52 2172.5 582.52 2181.86 582.52 2181.86 573.13 2191.23 573.13 2200.59 573.13 2209.96 573.13 2219.32 573.13 2228.69 573.13 2238.06 573.13 2238.06 563.74 2245.31 563.74 2247.42 563.74 2254.67 563.74 2264.04 563.74 2264.04 573.13 2273.41 573.13 2282.77 573.13 2292.14 573.13 2301.5 573.13 2310.87 573.13 2310.87 563.74 2320.24 563.74 2329.6 563.74 2338.97 563.74 2348.33 563.74 2357.7 563.74 2367.06 563.74 2367.06 554.35 2376.43 554.35 2376.43 544.96 2385.8 544.96 2385.8 535.57 2385.8 526.17 2376.43 526.17"/></g></g><g id="nuage5"><g class="cls-2"><rect class="cls-3" x="1846.84" y="307.83" width="9.37" height="9.39"/><path class="cls-3" d="M2207.42,199.83H2170V181h-9.37v-9.39h-18.73v-9.39h-18.73v-9.39H2076.3v9.39h-18.73v9.39h-9.37v-9.39h-9.36v-9.39h-28.1v-9.39h-37.46v9.39h-18.74v9.39h-26v-9.39H1909.8v-9.39H1903v-4.7h-56.19V120h-9.37v-9.39h-18.73v-9.39H1800V91.83h-46.83v9.39h-18.73v9.39h-9.37v-9.39h-9.36V91.83h-28.1v-9.4h-37.47v9.4h-18.73v9.39h-9.36V120h-9.37v28.17h-65.56v9.4h-9.37V167h-9.36v18.78H1519v9.39h-74.92v9.39h-9.37v9.39h-14v-4.69h9.36v-9.39h-32.78v-4.7h-9.37v-9.39h-14V181h-9.37v-9.39h-18.73v-9.39H1327v-9.39h-46.83v9.39h-18.73v9.39h-9.37v-9.39h-9.36v-9.39h-28.1v-9.39h-37.46v9.39h-18.74v9.39h-9.36V181h-9.37v28.18h-65.56v9.39h-9.36V228h-9.37v18.78h-9.37v9.39H971.14v9.4h-9.37V275H943v-9.39H924.31v-9.4h-9.37v-9.39h-28.1v9.39h-9.36v9.4h-9.37v-9.4H821.28v9.4H802.55V275h-9.36v9.39h-9.37v28.17h-9.37v9.39h-9.36v-9.39h-9.37v-9.39h-9.36v-9.39h-56.2v9.39H680.8v9.39H643.33v9.39H634V340.7H624.6v9.39H577.77v9.39h-9.36V397h9.36v-9.39H596.5v-9.39h18.73v-9.39H634v-9.39h9.36v-9.39h9.37V340.7h18.73v-9.4h18.73v-9.39h37.46v9.39h18.74v9.4h9.36v9.39h9.37v18.78h18.73v-9.39h18.73v-9.39h9.37V340.7h18.73v-9.4H840v-9.39h28.09v-9.39h28.1v-9.39h18.73v9.39h18.73v9.39h28.1v9.39H980.5v-9.39h9.37v-9.39h9.36v-9.39h9.37v-9.39H1018v-9.39h28.09V275h56.2v4.69h-4.69V289h-46.83v9.39h-9.37V336h9.37v-9.39h18.73v-9.39h18.73v-9.39h18.73v-9.4h9.37v-4.69H1121v9.39h18.73v9.39h9.37V293.74h9.36V275h9.37V260.87h32.77v9.39h18.73v9.39h9.37V289h9.37v9.39h-18.74v4.7h-51.5v4.7h-14.06v9.39H1135v4.69h-14v9.39h-9.37V336h-9.36v9.39h-9.37v14.09h-4.69v-4.7h-9.36v-9.39h-56.2v9.39h-9.36v9.39H975.81v9.4h-9.36v18.78h-9.37v9.39H910.25v9.39h-9.36V448.7h9.36v-9.4H929v-9.39h18.74v-9.39h18.73v-9.39h9.36v-9.39h9.37v-9.39h18.73V383h18.73v-9.39h14.06V383h-9.37v37.56h9.37v-9.39h18.73v-4.7h0v-4.69h18.73V397h0v-4.69h14v9.39h9.37v18.78h18.73v-9.39H1135v14.09h9.37v-9.39h18.73v-9.4h18.73V397h18.73v-9.39H1210v-9.39h9.36v-4.69h4.7v18.78h18.73V383h18.73v-4.7h0v-4.69h32.77V383H1313v-9.39h9.37v4.69h9.37V397h18.73v-9.39h14V397h9.36v-9.39h18.73v-9.39h18.73v-9.39h18.74v-9.39h9.36v-4.7h0v-4.69h9.36v-4.7h4.68v9.39h18.73v9.39h9.37V345.39h9.36V340.7h9.37v9.39h28.1v9.39h18.73v-9.39h14v18.78h18.73v-9.39h18.73v-9.39H1608V340.7h18.73v-9.4h9.37v-4.69h14V336h28.1v-9.39h9.37v-4.7h0v9.39h18.73v9.4h9.37V321.91h9.36v-9.39h4.68v9.39h28.1v9.39h18.73v-9.39H1786v-9.39h9.36v-4.69h9.38v-9.4h9.36v-4.69h9.37v-9.39h23.41v9.39h18.73v9.39h18.73v9.39h28.1v-9.39h23.41v9.39h9.37V293.74h9.36V275h9.37V256.17h18.73v-9.39h74.93v9.39h18.73v9.4H2095V275h18.73v9.39h28.1V275h9.37V256.17h9.36v-9.39H2170v-9.39h9.36V228h18.74v-9.39h18.73v-9.39h9.36v-9.39h-18.73Zm-838.24,51.65v-4.7h4.69v-4.69h14v9.39h16.14v4.69H1364.5v9.4h-9.36v4.69h0V256.17h9.36v-4.69Zm-140.49,0v-4.7h28.1v4.7h-9.37v9.39h-9.36v-9.39Zm-46.83,126.78h-2.59v-4.69h12v4.69Z"/><polygon class="cls-4" points="2347.91 368.87 2347.91 359.48 2347.91 350.09 2347.91 340.7 2338.54 340.7 2329.18 340.7 2329.18 331.3 2319.81 331.3 2319.81 321.91 2319.81 312.52 2329.18 312.52 2329.18 303.13 2329.18 293.74 2329.18 284.35 2319.81 284.35 2319.81 274.96 2319.81 265.56 2310.45 265.56 2310.45 256.17 2301.08 256.17 2291.72 256.17 2282.35 256.17 2272.98 256.17 2272.98 246.78 2263.62 246.78 2263.62 237.39 2263.62 228 2254.25 228 2254.25 218.61 2244.89 218.61 2244.89 209.22 2235.52 209.22 2226.15 209.22 2216.79 209.22 2216.79 218.61 2207.42 218.61 2198.06 218.61 2198.06 228 2188.69 228 2179.32 228 2179.32 237.39 2169.96 237.39 2169.96 246.78 2160.59 246.78 2160.59 256.17 2151.23 256.17 2151.23 265.56 2151.23 274.96 2141.86 274.96 2141.86 284.35 2132.49 284.35 2123.13 284.35 2113.76 284.35 2113.76 274.96 2104.4 274.96 2095.03 274.96 2095.03 265.56 2085.67 265.56 2076.3 265.56 2076.3 256.17 2066.93 256.17 2057.57 256.17 2057.57 246.78 2048.2 246.78 2038.84 246.78 2029.47 246.78 2020.11 246.78 2010.74 246.78 2001.37 246.78 1992.01 246.78 1982.64 246.78 1982.64 256.17 1977.96 256.17 1973.28 256.17 1968.59 256.17 1963.91 256.17 1959.23 256.17 1949.86 256.17 1949.86 246.78 1940.5 246.78 1940.5 237.39 1940.5 228 1931.13 228 1931.13 218.61 1921.76 218.61 1921.76 209.22 1912.4 209.22 1903.03 209.22 1893.67 209.22 1893.67 218.61 1884.3 218.61 1874.93 218.61 1874.93 228 1865.57 228 1856.2 228 1856.2 237.39 1846.84 237.39 1846.84 246.78 1837.47 246.78 1837.47 256.17 1828.11 256.17 1828.11 265.56 1828.11 274.96 1818.74 274.96 1818.74 284.35 1814.06 284.35 1809.37 284.35 1800.01 284.35 1790.64 284.35 1790.64 274.96 1781.28 274.96 1771.91 274.96 1771.91 265.56 1762.54 265.56 1753.18 265.56 1753.18 256.17 1743.81 256.17 1734.45 256.17 1734.45 246.78 1725.08 246.78 1715.71 246.78 1706.35 246.78 1696.98 246.78 1687.62 246.78 1678.25 246.78 1668.89 246.78 1659.52 246.78 1659.52 256.17 1650.15 256.17 1640.79 256.17 1640.79 265.56 1640.79 274.96 1631.42 274.96 1631.42 284.35 1631.42 293.74 1622.06 293.74 1622.06 303.13 1622.06 312.52 1612.69 312.52 1612.69 303.13 1603.33 303.13 1593.96 303.13 1593.96 293.74 1584.59 293.74 1584.59 284.35 1575.23 284.35 1575.23 274.96 1565.86 274.96 1556.5 274.96 1547.13 274.96 1537.76 274.96 1528.4 274.96 1523.72 274.96 1523.72 265.56 1514.36 265.56 1514.36 256.17 1504.99 256.17 1495.63 256.17 1486.26 256.17 1476.89 256.17 1476.89 246.78 1467.53 246.78 1467.53 237.39 1467.53 228 1458.16 228 1458.16 218.61 1448.8 218.61 1448.8 209.22 1439.43 209.22 1430.06 209.22 1420.7 209.22 1420.7 218.61 1411.33 218.61 1401.97 218.61 1401.97 228 1392.6 228 1383.23 228 1383.23 237.39 1373.87 237.39 1373.87 246.78 1364.5 246.78 1364.5 256.17 1355.14 256.17 1355.14 265.56 1355.14 274.96 1345.77 274.96 1345.77 284.35 1336.4 284.35 1327.04 284.35 1317.67 284.35 1317.67 274.96 1308.31 274.96 1298.94 274.96 1298.94 265.56 1289.58 265.56 1280.21 265.56 1280.21 256.17 1270.84 256.17 1261.48 256.17 1261.48 246.78 1252.11 246.78 1242.75 246.78 1233.38 246.78 1224.02 246.78 1214.65 246.78 1205.28 246.78 1195.92 246.78 1186.55 246.78 1186.55 256.17 1177.19 256.17 1167.82 256.17 1167.82 265.56 1167.82 274.96 1158.45 274.96 1158.45 284.35 1158.45 293.74 1149.09 293.74 1149.09 303.13 1149.09 312.52 1139.72 312.52 1139.72 303.13 1130.36 303.13 1120.99 303.13 1120.99 293.74 1111.63 293.74 1111.63 284.35 1102.26 284.35 1102.26 274.96 1092.89 274.96 1083.53 274.96 1074.16 274.96 1064.8 274.96 1055.43 274.96 1046.06 274.96 1046.06 284.35 1036.7 284.35 1027.33 284.35 1017.97 284.35 1017.97 293.74 1008.6 293.74 1008.6 303.13 999.24 303.13 999.24 312.52 989.87 312.52 989.87 321.91 980.5 321.91 980.5 331.3 971.14 331.3 961.77 331.3 961.77 321.91 952.4 321.91 943.04 321.91 933.67 321.91 933.67 312.52 924.31 312.52 914.94 312.52 914.94 303.13 905.58 303.13 896.21 303.13 896.21 312.52 886.84 312.52 877.48 312.52 868.11 312.52 868.11 321.91 858.75 321.91 849.38 321.91 840.01 321.91 840.01 331.3 830.65 331.3 830.65 340.7 821.28 340.7 811.92 340.7 811.92 350.09 802.55 350.09 802.55 359.48 793.19 359.48 783.82 359.48 783.82 368.87 793.19 368.87 802.55 368.87 802.55 378.26 811.92 378.26 821.28 378.26 830.65 378.26 830.65 387.65 840.01 387.65 840.01 397.04 849.38 397.04 849.38 406.44 858.75 406.44 868.11 406.44 877.48 406.44 877.48 415.83 886.84 415.83 896.21 415.83 905.58 415.83 914.94 415.83 924.31 415.83 933.67 415.83 933.67 406.44 943.04 406.44 952.4 406.44 952.4 397.04 961.77 397.04 971.14 397.04 980.5 397.04 989.87 397.04 989.87 406.44 999.24 406.44 1008.6 406.44 1008.6 415.83 1017.97 415.83 1027.33 415.83 1036.7 415.83 1046.06 415.83 1055.43 415.83 1064.8 415.83 1074.16 415.83 1083.53 415.83 1083.53 425.22 1092.89 425.22 1092.89 415.83 1097.57 415.83 1102.26 415.83 1106.93 415.83 1116.3 415.83 1125.67 415.83 1135.03 415.83 1135.03 406.44 1144.4 406.44 1153.76 406.44 1163.13 406.44 1172.5 406.44 1181.86 406.44 1181.86 415.83 1191.23 415.83 1200.59 415.83 1209.96 415.83 1209.96 406.44 1214.65 406.44 1214.65 415.83 1224.02 415.83 1224.02 425.22 1233.38 425.22 1233.38 415.83 1242.75 415.83 1252.11 415.83 1261.48 415.83 1261.48 406.44 1270.84 406.44 1270.84 397.04 1280.21 397.04 1289.58 397.04 1289.58 387.65 1298.94 387.65 1303.62 387.65 1308.31 387.65 1312.98 387.65 1312.98 397.04 1322.35 397.04 1322.35 406.44 1331.71 406.44 1341.08 406.44 1350.45 406.44 1350.45 415.83 1359.81 415.83 1364.5 415.83 1369.18 415.83 1373.87 415.83 1378.54 415.83 1383.23 415.83 1387.91 415.83 1392.6 415.83 1397.28 415.83 1406.64 415.83 1406.64 406.44 1411.33 406.44 1411.33 415.83 1420.69 415.83 1430.06 415.83 1439.42 415.83 1448.79 415.83 1458.15 415.83 1458.15 406.44 1458.16 406.44 1462.84 406.44 1467.52 406.44 1467.53 406.44 1472.2 406.44 1476.89 406.44 1476.89 406.44 1481.57 406.44 1481.57 415.83 1490.93 415.83 1500.3 415.83 1504.98 415.83 1509.67 415.83 1514.35 415.83 1519.03 415.83 1523.71 415.83 1528.4 415.83 1533.08 415.83 1537.76 415.83 1547.13 415.83 1556.5 415.83 1556.5 425.22 1565.86 425.22 1565.86 415.83 1575.23 415.83 1575.23 406.44 1584.59 406.44 1584.59 397.04 1584.59 387.65 1593.96 387.65 1593.96 378.26 1598.64 378.26 1603.33 378.26 1608.01 378.26 1612.69 378.26 1617.37 378.26 1622.06 378.26 1626.74 378.26 1626.74 387.65 1636.11 387.65 1636.11 397.04 1645.47 397.04 1645.47 406.44 1654.84 406.44 1664.2 406.44 1673.57 406.44 1673.57 415.83 1682.93 415.83 1687.62 415.83 1692.3 415.83 1696.98 415.83 1696.98 425.22 1706.35 425.22 1706.35 415.83 1711.03 415.83 1715.71 415.83 1720.4 415.83 1725.08 415.83 1729.76 415.83 1734.45 415.83 1734.45 406.44 1739.13 406.44 1743.81 406.44 1748.49 406.44 1748.49 397.04 1753.18 397.04 1757.86 397.04 1762.54 397.04 1767.23 397.04 1776.59 397.04 1785.96 397.04 1785.96 406.44 1795.33 406.44 1804.69 406.44 1804.69 415.83 1814.06 415.83 1823.42 415.83 1832.79 415.83 1837.47 415.83 1842.15 415.83 1846.84 415.83 1851.52 415.83 1856.2 415.83 1860.89 415.83 1865.57 415.83 1870.25 415.83 1879.62 415.83 1879.62 425.22 1888.98 425.22 1888.98 415.83 1898.35 415.83 1898.35 406.44 1907.71 406.44 1907.71 397.04 1912.4 397.04 1921.76 397.04 1921.76 406.44 1931.13 406.44 1940.5 406.44 1949.86 406.44 1949.86 397.04 1959.23 397.04 1959.23 387.65 1968.59 387.65 1968.59 378.26 1973.28 378.26 1973.28 387.65 1982.64 387.65 1992.01 387.65 1992.01 397.04 2001.37 397.04 2001.37 406.44 2010.74 406.44 2010.74 415.83 2020.11 415.83 2020.11 425.22 2029.47 425.22 2029.47 415.83 2038.84 415.83 2048.2 415.83 2057.57 415.83 2057.57 406.44 2066.93 406.44 2066.93 397.04 2076.3 397.04 2085.67 397.04 2085.67 387.65 2095.03 387.65 2104.4 387.65 2113.76 387.65 2123.13 387.65 2132.49 387.65 2141.86 387.65 2141.86 397.04 2151.23 397.04 2151.23 406.44 2160.59 406.44 2160.59 415.83 2169.96 415.83 2179.32 415.83 2188.69 415.83 2188.69 406.44 2198.06 406.44 2198.06 397.04 2207.42 397.04 2216.79 397.04 2226.15 397.04 2235.52 397.04 2244.89 397.04 2244.89 406.44 2254.25 406.44 2263.62 406.44 2272.98 406.44 2272.98 397.04 2282.35 397.04 2282.35 387.65 2291.72 387.65 2291.72 378.26 2301.08 378.26 2310.45 378.26 2319.81 378.26 2329.18 378.26 2329.18 387.65 2338.54 387.65 2347.91 387.65 2357.28 387.65 2357.28 378.26 2357.28 368.87 2347.91 368.87"/><polygon class="cls-4" points="765.09 368.87 765.09 359.48 765.09 350.09 755.72 350.09 755.72 340.7 746.36 340.7 746.36 331.3 736.99 331.3 727.63 331.3 727.63 321.91 718.26 321.91 708.89 321.91 699.53 321.91 690.16 321.91 690.16 331.3 680.8 331.3 671.43 331.3 671.43 340.7 662.06 340.7 652.7 340.7 652.7 350.09 643.33 350.09 643.33 359.48 633.97 359.48 633.97 368.87 624.6 368.87 615.24 368.87 615.24 378.26 605.87 378.26 596.5 378.26 596.5 387.65 587.14 387.65 577.77 387.65 577.77 397.04 577.77 406.44 587.14 406.44 596.5 406.44 605.87 406.44 615.24 406.44 615.24 415.83 624.6 415.83 633.97 415.83 643.33 415.83 652.7 415.83 662.06 415.83 662.06 406.44 671.43 406.44 680.8 406.44 690.16 406.44 699.53 406.44 708.89 406.44 708.89 415.83 718.26 415.83 727.63 415.83 736.99 415.83 736.99 406.44 746.36 406.44 746.36 397.04 755.72 397.04 755.72 387.65 765.09 387.65 765.09 378.26 774.45 378.26 783.82 378.26 783.82 368.87 774.45 368.87 765.09 368.87"/><polygon class="cls-5" points="2366.64 406.44 2366.64 397.04 2357.28 397.04 2357.28 387.65 2347.91 387.65 2338.54 387.65 2329.18 387.65 2329.18 378.26 2319.81 378.26 2310.45 378.26 2301.08 378.26 2291.72 378.26 2291.72 387.65 2282.35 387.65 2282.35 397.04 2272.98 397.04 2272.98 406.44 2263.62 406.44 2254.25 406.44 2244.89 406.44 2244.89 397.04 2235.52 397.04 2226.15 397.04 2216.79 397.04 2207.42 397.04 2198.06 397.04 2198.06 406.44 2188.69 406.44 2188.69 415.83 2179.32 415.83 2169.96 415.83 2160.59 415.83 2160.59 406.44 2151.23 406.44 2151.23 397.04 2141.86 397.04 2141.86 387.65 2132.49 387.65 2123.13 387.65 2113.76 387.65 2104.4 387.65 2095.03 387.65 2085.67 387.65 2085.67 397.04 2076.3 397.04 2066.93 397.04 2066.93 406.44 2057.57 406.44 2057.57 415.83 2052.89 415.83 2052.89 406.44 2043.52 406.44 2043.52 397.04 2034.15 397.04 2034.15 387.65 2024.79 387.65 2015.42 387.65 2006.06 387.65 2006.06 378.26 1996.69 378.26 1987.33 378.26 1977.96 378.26 1973.28 378.26 1968.59 378.26 1963.91 378.26 1954.54 378.26 1945.18 378.26 1935.81 378.26 1926.45 378.26 1917.08 378.26 1917.08 387.65 1907.71 387.65 1907.71 397.04 1903.03 397.04 1893.67 397.04 1884.3 397.04 1874.93 397.04 1874.93 406.44 1865.57 406.44 1865.57 415.83 1860.89 415.83 1856.2 415.83 1851.52 415.83 1846.84 415.83 1842.15 415.83 1837.47 415.83 1837.47 406.44 1828.11 406.44 1828.11 397.04 1818.74 397.04 1818.74 387.65 1809.37 387.65 1800.01 387.65 1790.64 387.65 1781.28 387.65 1771.91 387.65 1762.54 387.65 1762.54 397.04 1757.86 397.04 1753.18 397.04 1748.49 397.04 1743.81 397.04 1743.81 406.44 1739.13 406.44 1734.45 406.44 1729.76 406.44 1729.76 415.83 1725.08 415.83 1720.4 415.83 1715.71 415.83 1711.03 415.83 1706.35 415.83 1701.67 415.83 1696.98 415.83 1692.3 415.83 1687.62 415.83 1687.62 406.44 1678.25 406.44 1678.25 397.04 1668.89 397.04 1668.89 387.65 1659.52 387.65 1650.15 387.65 1650.15 378.26 1640.79 378.26 1631.42 378.26 1626.74 378.26 1622.06 378.26 1617.37 378.26 1612.69 378.26 1608.01 378.26 1603.33 378.26 1598.64 378.26 1598.64 368.87 1589.28 368.87 1579.91 368.87 1579.91 378.26 1570.54 378.26 1561.18 378.26 1561.18 387.65 1551.82 387.65 1551.81 387.65 1542.45 387.65 1533.09 387.65 1533.09 378.26 1523.72 378.26 1514.36 378.26 1504.99 378.26 1495.63 378.26 1495.63 387.65 1486.26 387.65 1486.26 397.04 1476.89 397.04 1476.89 406.44 1476.89 406.44 1472.2 406.44 1467.53 406.44 1467.52 406.44 1462.84 406.44 1462.84 397.04 1453.47 397.04 1448.8 397.04 1444.11 397.04 1439.43 397.04 1434.74 397.04 1430.06 397.04 1425.37 397.04 1420.7 397.04 1411.33 397.04 1401.97 397.04 1401.97 406.44 1401.96 406.44 1392.6 406.44 1392.59 406.44 1383.23 406.44 1373.86 406.44 1373.86 415.83 1369.18 415.83 1364.5 415.83 1364.5 406.44 1355.14 406.44 1355.14 397.04 1345.77 397.04 1345.77 387.65 1336.4 387.65 1327.04 387.65 1317.67 387.65 1312.98 387.65 1308.31 387.65 1303.62 387.65 1303.62 378.26 1294.25 378.26 1284.89 378.26 1275.52 378.26 1275.52 368.87 1266.15 368.87 1256.79 368.87 1256.79 378.26 1247.42 378.26 1238.06 378.26 1238.06 387.65 1228.69 387.65 1228.69 397.04 1219.33 397.04 1219.33 406.44 1214.65 406.44 1209.96 406.44 1205.28 406.44 1205.28 397.04 1195.92 397.04 1195.92 387.65 1186.55 387.65 1177.19 387.65 1177.19 378.26 1167.82 378.26 1158.45 378.26 1149.09 378.26 1139.72 378.26 1130.36 378.26 1120.99 378.26 1120.99 387.65 1111.63 387.65 1111.63 397.04 1111.63 406.44 1102.26 406.44 1102.26 415.83 1097.57 415.83 1092.89 415.83 1088.2 415.83 1088.2 406.44 1078.84 406.44 1069.47 406.44 1060.11 406.44 1050.74 406.44 1050.74 415.83 1046.06 415.83 1041.37 415.83 1036.7 415.83 1027.33 415.83 1017.97 415.83 1008.6 415.83 1008.6 406.44 999.24 406.44 989.87 406.44 989.87 397.04 980.5 397.04 971.14 397.04 961.77 397.04 952.4 397.04 952.4 406.44 943.04 406.44 933.67 406.44 933.67 415.83 924.31 415.83 914.94 415.83 905.58 415.83 896.21 415.83 886.84 415.83 877.48 415.83 877.48 406.44 868.11 406.44 858.75 406.44 849.38 406.44 849.38 397.04 840.01 397.04 840.01 387.65 830.65 387.65 830.65 378.26 821.28 378.26 811.92 378.26 802.55 378.26 802.55 368.87 793.19 368.87 783.82 368.87 783.82 378.26 774.45 378.26 765.09 378.26 765.09 387.65 755.72 387.65 755.72 397.04 746.36 397.04 746.36 406.44 736.99 406.44 736.99 415.83 727.63 415.83 718.26 415.83 708.89 415.83 708.89 406.44 699.53 406.44 690.16 406.44 680.8 406.44 671.43 406.44 662.06 406.44 662.06 415.83 652.7 415.83 643.33 415.83 633.97 415.83 624.6 415.83 615.24 415.83 615.24 406.44 605.87 406.44 596.5 406.44 587.14 406.44 577.77 406.44 577.77 415.83 568.4 415.83 568.4 425.22 577.77 425.22 577.77 434.61 587.14 434.61 587.14 444 596.5 444 605.87 444 615.24 444 624.6 444 633.97 444 643.33 444 652.7 444 662.06 444 662.06 434.61 671.43 434.61 680.8 434.61 690.16 434.61 699.53 434.61 708.89 434.61 718.26 434.61 727.63 434.61 736.99 434.61 736.99 444 746.36 444 755.72 444 755.72 453.39 765.09 453.39 774.45 453.39 774.45 462.78 783.82 462.78 783.82 472.17 793.19 472.17 802.55 472.17 811.92 472.17 821.28 472.17 830.65 472.17 840.01 472.17 849.38 472.17 858.75 472.17 858.75 462.78 868.11 462.78 877.48 462.78 886.84 462.78 896.21 462.78 905.58 462.78 914.94 462.78 914.94 453.39 924.31 453.39 933.67 453.39 943.04 453.39 952.4 453.39 961.77 453.39 971.14 453.39 980.5 453.39 989.87 453.39 999.24 453.39 999.24 462.78 1008.6 462.78 1017.97 462.78 1027.33 462.78 1036.7 462.78 1046.06 462.78 1046.06 472.17 1055.43 472.17 1064.8 472.17 1074.16 472.17 1083.53 472.17 1092.89 472.17 1102.26 472.17 1111.63 472.17 1120.99 472.17 1130.36 472.17 1139.72 472.17 1139.72 462.78 1149.09 462.78 1158.45 462.78 1167.82 462.78 1177.19 462.78 1186.55 462.78 1195.92 462.78 1205.28 462.78 1214.65 462.78 1224.02 462.78 1233.38 462.78 1242.75 462.78 1247.42 462.78 1252.11 462.78 1256.79 462.78 1256.79 472.17 1266.15 472.17 1275.52 472.17 1284.89 472.17 1294.25 472.17 1303.62 472.17 1312.98 472.17 1322.35 472.17 1331.71 472.17 1331.71 462.78 1341.08 462.78 1350.45 462.78 1359.81 462.78 1369.18 462.78 1373.87 462.78 1378.54 462.78 1383.23 462.78 1387.91 462.78 1392.6 462.78 1401.97 462.78 1401.97 472.17 1411.33 472.17 1420.7 472.17 1430.06 472.17 1439.43 472.17 1448.8 472.17 1458.16 472.17 1467.53 472.17 1476.89 472.17 1486.26 472.17 1495.63 472.17 1495.63 462.78 1500.3 462.78 1504.99 462.78 1509.67 462.78 1514.36 462.78 1519.03 462.78 1519.03 472.17 1528.4 472.17 1537.76 472.17 1547.13 472.17 1556.5 472.17 1565.86 472.17 1575.23 472.17 1579.91 472.17 1584.59 472.17 1589.28 472.17 1593.96 472.17 1598.64 472.17 1603.33 472.17 1608.01 472.17 1612.69 472.17 1617.37 472.17 1626.74 472.17 1636.11 472.17 1645.47 472.17 1654.84 472.17 1654.84 462.78 1659.52 462.78 1664.2 462.78 1668.89 462.78 1673.57 462.78 1678.25 462.78 1682.93 462.78 1687.62 462.78 1692.3 462.78 1696.98 462.78 1701.67 462.78 1706.35 462.78 1711.03 462.78 1715.71 462.78 1725.08 462.78 1725.08 453.39 1729.76 453.39 1734.45 453.39 1739.13 453.39 1743.81 453.39 1748.49 453.39 1753.18 453.39 1757.86 453.39 1762.54 453.39 1767.23 453.39 1771.91 453.39 1776.59 453.39 1781.28 453.39 1785.96 453.39 1790.64 453.39 1795.33 453.39 1795.33 462.78 1804.69 462.78 1814.06 462.78 1823.42 462.78 1832.79 462.78 1842.15 462.78 1842.15 472.17 1851.52 472.17 1860.89 472.17 1870.25 472.17 1874.93 472.17 1879.62 472.17 1884.3 472.17 1888.98 472.17 1893.67 472.17 1898.35 472.17 1903.03 472.17 1907.71 472.17 1912.4 472.17 1917.08 472.17 1921.76 472.17 1926.45 472.17 1931.13 472.17 1935.81 472.17 1940.5 472.17 1949.86 472.17 1959.23 472.17 1968.59 472.17 1968.59 462.78 1973.28 462.78 1977.96 462.78 1982.64 462.78 1987.33 462.78 1992.01 462.78 1996.69 462.78 2001.37 462.78 2010.74 462.78 2020.11 462.78 2029.47 462.78 2038.84 462.78 2048.2 462.78 2048.2 453.39 2057.57 453.39 2066.93 453.39 2076.3 453.39 2085.67 453.39 2095.03 453.39 2104.4 453.39 2113.76 453.39 2123.13 453.39 2132.49 453.39 2141.86 453.39 2151.23 453.39 2160.59 453.39 2169.96 453.39 2169.96 462.78 2179.32 462.78 2188.69 462.78 2198.06 462.78 2198.06 472.17 2207.42 472.17 2216.79 472.17 2226.15 472.17 2235.52 472.17 2244.89 472.17 2254.25 472.17 2263.62 472.17 2272.98 472.17 2282.35 472.17 2291.72 472.17 2291.72 462.78 2301.08 462.78 2310.45 462.78 2319.81 462.78 2319.81 453.39 2329.18 453.39 2338.54 453.39 2347.91 453.39 2347.91 444 2357.28 444 2366.64 444 2376.01 444 2376.01 434.61 2376.01 425.22 2376.01 415.83 2376.01 406.44 2366.64 406.44"/></g></g></svg>