<svg xmlns="http://www.w3.org/2000/svg" viewBox="0 0 1920 780"><defs><style>.cls-1{fill:#d8d8d8;}.cls-2{opacity:0.86;}.cls-3{fill:#939393;}.cls-4{fill:#898989;}.cls-5{fill:#605f5f;}.cls-6{fill:#a5a5a5;}</style></defs><title>smog_2</title><g id="fond"><rect class="cls-1" x="2.78" width="1917.22" height="780"/></g><g id="nuage1"><g class="cls-2"><polygon class="cls-3" points="1478.59 80.09 1469.23 80.09 1459.86 80.09 1450.5 80.09 1441.13 80.09 1441.13 70.7 1441.13 61.3 1431.76 61.3 1431.76 51.91 1422.4 51.91 1413.03 51.91 1413.03 42.52 1403.67 42.52 1394.3 42.52 1394.3 33.13 1384.93 33.13 1375.57 33.13 1366.2 33.13 1356.84 33.13 1347.47 33.13 1347.47 42.52 1338.11 42.52 1328.74 42.52 1328.74 51.91 1319.37 51.91 1319.37 42.52 1310.01 42.52 1310.01 33.13 1300.64 33.13 1291.28 33.13 1281.91 33.13 1281.91 23.74 1272.54 23.74 1263.18 23.74 1253.81 23.74 1244.45 23.74 1244.45 33.13 1235.08 33.13 1225.71 33.13 1225.71 42.52 1216.35 42.52 1216.35 51.91 1216.35 61.3 1206.98 61.3 1206.98 70.7 1206.98 80.09 1206.98 89.48 1197.62 89.48 1188.25 89.48 1178.89 89.48 1169.52 89.48 1160.15 89.48 1150.79 89.48 1141.42 89.48 1141.42 98.87 1132.06 98.87 1132.06 108.26 1122.69 108.26 1122.69 117.65 1122.69 127.04 1113.33 127.04 1113.33 136.44 1103.96 136.44 1094.59 136.44 1085.23 136.44 1075.86 136.44 1066.5 136.44 1057.13 136.44 1047.76 136.44 1038.4 136.44 1038.4 145.83 1029.03 145.83 1029.03 155.22 1019.67 155.22 1010.3 155.22 1010.3 145.83 1000.93 145.83 991.57 145.83 991.57 136.44 982.2 136.44 982.2 127.04 972.84 127.04 963.47 127.04 954.11 127.04 954.11 136.44 944.74 136.44 944.74 145.83 935.37 145.83 935.37 136.44 926.01 136.44 916.64 136.44 907.28 136.44 897.91 136.44 888.54 136.44 888.54 145.83 879.18 145.83 869.81 145.83 869.81 155.22 860.45 155.22 860.45 164.61 851.08 164.61 851.08 174 851.08 183.39 851.08 192.78 841.72 192.78 841.72 202.17 832.35 202.17 832.35 192.78 822.98 192.78 822.98 183.39 813.62 183.39 813.62 174 804.25 174 794.89 174 785.52 174 776.15 174 766.79 174 757.42 174 757.42 183.39 748.06 183.39 748.06 192.78 738.69 192.78 729.33 192.78 719.96 192.78 710.59 192.78 710.59 202.17 701.23 202.17 701.23 211.56 701.23 220.96 691.86 220.96 691.86 230.35 682.5 230.35 673.13 230.35 663.76 230.35 654.4 230.35 645.03 230.35 645.03 239.74 635.67 239.74 635.67 249.13 635.67 258.52 635.67 267.91 635.67 277.3 645.03 277.3 645.03 267.91 654.4 267.91 663.76 267.91 663.76 258.52 673.13 258.52 682.5 258.52 682.5 249.13 691.86 249.13 701.23 249.13 701.23 239.74 710.59 239.74 710.59 230.35 719.96 230.35 719.96 220.96 729.33 220.96 738.69 220.96 738.69 211.56 748.06 211.56 757.42 211.56 757.42 202.17 766.79 202.17 776.15 202.17 785.52 202.17 794.89 202.17 794.89 211.56 804.25 211.56 813.62 211.56 813.62 220.96 822.98 220.96 822.98 230.35 832.35 230.35 832.35 239.74 832.35 249.13 841.72 249.13 851.08 249.13 851.08 239.74 860.45 239.74 869.81 239.74 869.81 230.35 879.18 230.35 879.18 220.96 888.54 220.96 897.91 220.96 897.91 211.56 907.28 211.56 907.28 202.17 916.64 202.17 926.01 202.17 935.37 202.17 935.37 192.78 944.74 192.78 954.11 192.78 963.47 192.78 963.47 183.39 972.84 183.39 982.2 183.39 982.2 192.78 991.57 192.78 1000.93 192.78 1000.93 202.17 1010.3 202.17 1019.67 202.17 1029.03 202.17 1029.03 211.56 1038.4 211.56 1047.76 211.56 1047.76 202.17 1057.13 202.17 1057.13 192.78 1066.5 192.78 1066.5 183.39 1075.86 183.39 1075.86 174 1085.23 174 1085.23 164.61 1094.59 164.61 1103.96 164.61 1113.33 164.61 1113.33 155.22 1122.69 155.22 1132.06 155.22 1141.42 155.22 1150.79 155.22 1160.15 155.22 1169.52 155.22 1169.52 164.61 1178.89 164.61 1178.89 174 1188.25 174 1188.25 183.39 1197.62 183.39 1206.98 183.39 1206.98 192.78 1216.35 192.78 1216.35 183.39 1216.35 174 1225.71 174 1225.71 164.61 1225.71 155.22 1235.08 155.22 1235.08 145.83 1235.08 136.44 1244.45 136.44 1253.81 136.44 1253.81 127.04 1263.18 127.04 1272.54 127.04 1281.91 127.04 1291.28 127.04 1300.64 127.04 1310.01 127.04 1319.37 127.04 1328.74 127.04 1328.74 136.44 1338.11 136.44 1347.47 136.44 1347.47 145.83 1356.84 145.83 1366.2 145.83 1366.2 155.22 1375.57 155.22 1384.93 155.22 1384.93 164.61 1394.3 164.61 1403.67 164.61 1413.03 164.61 1413.03 155.22 1422.4 155.22 1422.4 145.83 1422.4 136.44 1431.76 136.44 1431.76 127.04 1441.13 127.04 1441.13 117.65 1450.5 117.65 1450.5 108.26 1459.86 108.26 1469.23 108.26 1469.23 98.87 1478.59 98.87 1487.96 98.87 1487.96 89.48 1497.33 89.48 1497.33 80.09 1487.96 80.09 1478.59 80.09"/><rect class="cls-3" x="1581.62" y="136.43" width="9.37" height="9.39"/><polygon class="cls-4" points="832.35 249.13 832.35 239.74 832.35 230.35 822.98 230.35 822.98 220.96 813.62 220.96 813.62 211.56 804.25 211.56 794.89 211.56 794.89 202.17 785.52 202.17 776.15 202.17 766.79 202.17 757.42 202.17 757.42 211.56 748.06 211.56 738.69 211.56 738.69 220.96 729.33 220.96 719.96 220.96 719.96 230.35 710.59 230.35 710.59 239.74 701.23 239.74 701.23 249.13 691.86 249.13 682.5 249.13 682.5 258.52 673.13 258.52 663.76 258.52 663.76 267.91 654.4 267.91 645.03 267.91 645.03 277.3 645.03 286.7 654.4 286.7 663.76 286.7 673.13 286.7 682.5 286.7 682.5 296.09 691.86 296.09 701.23 296.09 710.59 296.09 719.96 296.09 729.33 296.09 729.33 286.7 738.69 286.7 748.06 286.7 757.42 286.7 766.79 286.7 776.15 286.7 776.15 296.09 785.52 296.09 794.89 296.09 804.25 296.09 804.25 286.7 813.62 286.7 813.62 277.3 822.98 277.3 822.98 267.91 832.35 267.91 832.35 258.52 841.72 258.52 851.08 258.52 851.08 249.13 841.72 249.13 832.35 249.13"/><polygon class="cls-4" points="1619.08 249.13 1619.08 239.74 1619.08 230.35 1619.08 220.96 1609.71 220.96 1600.35 220.96 1600.35 211.56 1590.98 211.56 1590.98 202.17 1590.98 192.78 1600.35 192.78 1600.35 183.39 1600.35 174 1600.35 164.61 1590.98 164.61 1590.98 155.22 1590.98 145.83 1581.62 145.83 1581.62 136.44 1572.25 136.44 1562.89 136.44 1553.52 136.44 1544.15 136.44 1544.15 127.04 1534.79 127.04 1534.79 117.65 1534.79 108.26 1525.42 108.26 1525.42 98.87 1516.06 98.87 1516.06 89.48 1506.69 89.48 1497.33 89.48 1487.96 89.48 1487.96 98.87 1478.59 98.87 1469.23 98.87 1469.23 108.26 1459.86 108.26 1450.5 108.26 1450.5 117.65 1441.13 117.65 1441.13 127.04 1431.76 127.04 1431.76 136.44 1422.4 136.44 1422.4 145.83 1422.4 155.22 1413.03 155.22 1413.03 164.61 1403.67 164.61 1394.3 164.61 1384.93 164.61 1384.93 155.22 1375.57 155.22 1366.2 155.22 1366.2 145.83 1356.84 145.83 1347.47 145.83 1347.47 136.44 1338.11 136.44 1328.74 136.44 1328.74 127.04 1319.37 127.04 1310.01 127.04 1300.64 127.04 1291.28 127.04 1281.91 127.04 1272.54 127.04 1263.18 127.04 1253.81 127.04 1253.81 136.44 1244.45 136.44 1235.08 136.44 1235.08 145.83 1235.08 155.22 1225.71 155.22 1225.71 164.61 1225.71 174 1216.35 174 1216.35 183.39 1216.35 192.78 1206.98 192.78 1206.98 183.39 1197.62 183.39 1188.25 183.39 1188.25 174 1178.89 174 1178.89 164.61 1169.52 164.61 1169.52 155.22 1160.15 155.22 1150.79 155.22 1141.42 155.22 1132.06 155.22 1122.69 155.22 1113.33 155.22 1113.33 164.61 1103.96 164.61 1094.59 164.61 1085.23 164.61 1085.23 174 1075.86 174 1075.86 183.39 1066.5 183.39 1066.5 192.78 1057.13 192.78 1057.13 202.17 1047.76 202.17 1047.76 211.56 1038.4 211.56 1029.03 211.56 1029.03 202.17 1019.67 202.17 1010.3 202.17 1000.93 202.17 1000.93 192.78 991.57 192.78 982.2 192.78 982.2 183.39 972.84 183.39 963.47 183.39 963.47 192.78 954.11 192.78 944.74 192.78 935.37 192.78 935.37 202.17 926.01 202.17 916.64 202.17 907.28 202.17 907.28 211.56 897.91 211.56 897.91 220.96 888.54 220.96 879.18 220.96 879.18 230.35 869.81 230.35 869.81 239.74 860.45 239.74 851.08 239.74 851.08 249.13 860.45 249.13 869.81 249.13 869.81 258.52 879.18 258.52 888.54 258.52 897.91 258.52 897.91 267.91 907.28 267.91 907.28 277.3 916.64 277.3 916.64 286.7 926.01 286.7 935.37 286.7 944.74 286.7 944.74 296.09 954.11 296.09 963.47 296.09 972.84 296.09 982.2 296.09 991.57 296.09 1000.93 296.09 1000.93 286.7 1010.3 286.7 1019.67 286.7 1019.67 277.3 1029.03 277.3 1038.4 277.3 1047.76 277.3 1057.13 277.3 1057.13 286.7 1066.5 286.7 1075.86 286.7 1075.86 296.09 1085.23 296.09 1094.59 296.09 1103.96 296.09 1113.33 296.09 1122.69 296.09 1132.06 296.09 1141.42 296.09 1150.79 296.09 1150.79 305.48 1160.15 305.48 1160.15 296.09 1169.52 296.09 1169.52 286.7 1178.89 286.7 1178.89 277.3 1178.89 267.91 1188.25 267.91 1188.25 258.52 1197.62 258.52 1206.98 258.52 1216.35 258.52 1225.71 258.52 1235.08 258.52 1244.45 258.52 1244.45 267.91 1253.81 267.91 1263.18 267.91 1263.18 277.3 1272.54 277.3 1272.54 286.7 1281.91 286.7 1281.91 296.09 1291.28 296.09 1291.28 305.48 1300.64 305.48 1300.64 296.09 1310.01 296.09 1319.37 296.09 1328.74 296.09 1328.74 286.7 1338.11 286.7 1338.11 277.3 1347.47 277.3 1356.84 277.3 1356.84 267.91 1366.2 267.91 1375.57 267.91 1384.93 267.91 1394.3 267.91 1403.67 267.91 1413.03 267.91 1413.03 277.3 1422.4 277.3 1422.4 286.7 1431.76 286.7 1431.76 296.09 1441.13 296.09 1450.5 296.09 1459.86 296.09 1459.86 286.7 1469.23 286.7 1469.23 277.3 1478.59 277.3 1487.96 277.3 1497.33 277.3 1506.69 277.3 1516.06 277.3 1516.06 286.7 1525.42 286.7 1534.79 286.7 1544.15 286.7 1544.15 277.3 1553.52 277.3 1553.52 267.91 1562.89 267.91 1562.89 258.52 1572.25 258.52 1581.62 258.52 1590.98 258.52 1600.35 258.52 1600.35 267.91 1609.71 267.91 1619.08 267.91 1628.45 267.91 1628.45 258.52 1628.45 249.13 1619.08 249.13"/><polygon class="cls-5" points="1637.81 286.7 1637.81 277.3 1628.45 277.3 1628.45 267.91 1619.08 267.91 1609.71 267.91 1600.35 267.91 1600.35 258.52 1590.98 258.52 1581.62 258.52 1572.25 258.52 1562.89 258.52 1562.89 267.91 1553.52 267.91 1553.52 277.3 1544.15 277.3 1544.15 286.7 1534.79 286.7 1525.42 286.7 1516.06 286.7 1516.06 277.3 1506.69 277.3 1497.33 277.3 1487.96 277.3 1478.59 277.3 1469.23 277.3 1469.23 286.7 1459.86 286.7 1459.86 296.09 1450.5 296.09 1441.13 296.09 1431.76 296.09 1431.76 286.7 1422.4 286.7 1422.4 277.3 1413.03 277.3 1413.03 267.91 1403.67 267.91 1394.3 267.91 1384.93 267.91 1375.57 267.91 1366.2 267.91 1356.84 267.91 1356.84 277.3 1347.47 277.3 1338.11 277.3 1338.11 286.7 1328.74 286.7 1328.74 296.09 1319.37 296.09 1310.01 296.09 1300.64 296.09 1300.64 305.48 1291.28 305.48 1291.28 296.09 1281.91 296.09 1281.91 286.7 1272.54 286.7 1272.54 277.3 1263.18 277.3 1263.18 267.91 1253.81 267.91 1244.45 267.91 1244.45 258.52 1235.08 258.52 1225.71 258.52 1216.35 258.52 1206.98 258.52 1197.62 258.52 1188.25 258.52 1188.25 267.91 1178.89 267.91 1178.89 277.3 1178.89 286.7 1169.52 286.7 1169.52 296.09 1160.15 296.09 1160.15 305.48 1150.79 305.48 1150.79 296.09 1141.42 296.09 1132.06 296.09 1122.69 296.09 1113.33 296.09 1103.96 296.09 1094.59 296.09 1085.23 296.09 1075.86 296.09 1075.86 286.7 1066.5 286.7 1057.13 286.7 1057.13 277.3 1047.76 277.3 1038.4 277.3 1029.03 277.3 1019.67 277.3 1019.67 286.7 1010.3 286.7 1000.93 286.7 1000.93 296.09 991.57 296.09 982.2 296.09 972.84 296.09 963.47 296.09 954.11 296.09 944.74 296.09 944.74 286.7 935.37 286.7 926.01 286.7 916.64 286.7 916.64 277.3 907.28 277.3 907.28 267.91 897.91 267.91 897.91 258.52 888.54 258.52 879.18 258.52 869.81 258.52 869.81 249.13 860.45 249.13 851.08 249.13 851.08 258.52 841.72 258.52 832.35 258.52 832.35 267.91 822.98 267.91 822.98 277.3 813.62 277.3 813.62 286.7 804.25 286.7 804.25 296.09 794.89 296.09 785.52 296.09 776.15 296.09 776.15 286.7 766.79 286.7 757.42 286.7 748.06 286.7 738.69 286.7 729.33 286.7 729.33 296.09 719.96 296.09 710.59 296.09 701.23 296.09 691.86 296.09 682.5 296.09 682.5 286.7 673.13 286.7 663.76 286.7 654.4 286.7 645.03 286.7 645.03 296.09 635.67 296.09 635.67 305.48 645.03 305.48 645.03 314.87 654.4 314.87 654.4 324.26 663.76 324.26 673.13 324.26 682.5 324.26 691.86 324.26 701.23 324.26 710.59 324.26 719.96 324.26 729.33 324.26 729.33 314.87 738.69 314.87 748.06 314.87 757.42 314.87 766.79 314.87 776.15 314.87 785.52 314.87 794.89 314.87 804.25 314.87 804.25 324.26 813.62 324.26 822.98 324.26 822.98 333.65 832.35 333.65 841.72 333.65 841.72 343.04 851.08 343.04 851.08 352.44 860.45 352.44 869.81 352.44 879.18 352.44 888.54 352.44 897.91 352.44 907.28 352.44 916.64 352.44 926.01 352.44 926.01 343.04 935.37 343.04 944.74 343.04 954.11 343.04 963.47 343.04 972.84 343.04 982.2 343.04 982.2 333.65 991.57 333.65 1000.93 333.65 1010.3 333.65 1019.67 333.65 1029.03 333.65 1038.4 333.65 1047.76 333.65 1057.13 333.65 1066.5 333.65 1066.5 343.04 1075.86 343.04 1085.23 343.04 1094.59 343.04 1103.96 343.04 1113.33 343.04 1113.33 352.44 1122.69 352.44 1132.06 352.44 1141.42 352.44 1150.79 352.44 1160.15 352.44 1169.52 352.44 1178.89 352.44 1188.25 352.44 1197.62 352.44 1206.98 352.44 1206.98 343.04 1216.35 343.04 1225.71 343.04 1235.08 343.04 1244.45 343.04 1253.81 343.04 1263.18 343.04 1272.54 343.04 1281.91 343.04 1291.28 343.04 1300.64 343.04 1310.01 343.04 1319.37 343.04 1319.37 333.65 1328.74 333.65 1338.11 333.65 1347.47 333.65 1356.84 333.65 1366.2 333.65 1375.57 333.65 1384.93 333.65 1394.3 333.65 1403.67 333.65 1413.03 333.65 1422.4 333.65 1431.76 333.65 1441.13 333.65 1441.13 343.04 1450.5 343.04 1459.86 343.04 1469.23 343.04 1469.23 352.44 1478.59 352.44 1487.96 352.44 1497.33 352.44 1506.69 352.44 1516.06 352.44 1525.42 352.44 1534.79 352.44 1544.15 352.44 1553.52 352.44 1562.89 352.44 1562.89 343.04 1572.25 343.04 1581.62 343.04 1590.98 343.04 1590.98 333.65 1600.35 333.65 1609.71 333.65 1619.08 333.65 1619.08 324.26 1628.45 324.26 1637.81 324.26 1647.18 324.26 1647.18 314.87 1647.18 305.48 1647.18 296.09 1647.18 286.7 1637.81 286.7"/></g></g><g id="nuage2"><g class="cls-2"><polygon class="cls-6" points="412.16 176.7 412.16 167.3 412.16 157.91 402.8 157.91 393.43 157.91 384.06 157.91 384.06 148.52 384.06 139.13 374.7 139.13 374.7 129.74 365.33 129.74 365.33 120.35 355.97 120.35 346.6 120.35 346.6 110.96 337.24 110.96 327.87 110.96 318.5 110.96 309.14 110.96 309.14 101.56 299.77 101.56 299.77 92.17 290.4 92.17 281.04 92.17 271.67 92.17 262.31 92.17 252.94 92.17 252.94 82.78 243.58 82.78 243.58 73.39 234.21 73.39 224.84 73.39 215.48 73.39 215.48 64 206.11 64 196.75 64 196.75 73.39 187.38 73.39 178.01 73.39 178.01 82.78 168.65 82.78 159.28 82.78 149.92 82.78 140.55 82.78 131.19 82.78 121.82 82.78 112.45 82.78 103.09 82.78 103.09 92.17 93.72 92.17 84.36 92.17 84.36 101.56 84.36 110.96 84.36 120.35 74.99 120.35 74.99 129.74 65.63 129.74 65.63 139.13 56.26 139.13 56.26 148.52 56.26 157.91 56.26 167.3 46.89 167.3 46.89 176.7 46.89 186.09 56.26 186.09 56.26 176.7 65.63 176.7 65.63 167.3 74.99 167.3 74.99 157.91 84.36 157.91 84.36 148.52 93.72 148.52 93.72 139.13 103.09 139.13 112.45 139.13 121.82 139.13 131.19 139.13 140.55 139.13 140.55 148.52 149.92 148.52 149.92 157.91 159.28 157.91 168.65 157.91 168.65 148.52 178.01 148.52 178.01 139.13 187.38 139.13 187.38 129.74 196.75 129.74 196.75 120.35 206.11 120.35 206.11 110.96 215.48 110.96 215.48 101.56 224.84 101.56 234.21 101.56 243.58 101.56 252.94 101.56 252.94 110.96 262.31 110.96 271.67 110.96 271.67 120.35 281.04 120.35 290.4 120.35 290.4 129.74 290.4 139.13 290.4 148.52 290.4 157.91 299.77 157.91 309.14 157.91 318.5 157.91 318.5 148.52 327.87 148.52 327.87 139.13 337.24 139.13 346.6 139.13 355.97 139.13 355.97 148.52 355.97 157.91 365.33 157.91 365.33 167.3 374.7 167.3 384.06 167.3 393.43 167.3 393.43 176.7 402.8 176.7 402.8 186.09 412.16 186.09 412.16 195.48 421.53 195.48 421.53 186.09 421.53 176.7 412.16 176.7"/><polygon class="cls-4" points="271.67 120.35 271.67 110.96 262.31 110.96 252.94 110.96 252.94 101.56 243.58 101.56 234.21 101.56 224.84 101.56 215.48 101.56 215.48 110.96 206.11 110.96 206.11 120.35 196.75 120.35 196.75 129.74 187.38 129.74 187.38 139.13 178.01 139.13 178.01 148.52 168.65 148.52 168.65 157.91 159.28 157.91 149.92 157.91 149.92 148.52 140.55 148.52 140.55 139.13 131.19 139.13 121.82 139.13 112.45 139.13 103.09 139.13 93.72 139.13 93.72 148.52 84.36 148.52 84.36 157.91 74.99 157.91 74.99 167.3 65.63 167.3 65.63 176.7 56.26 176.7 56.26 186.09 46.89 186.09 46.89 195.48 56.26 195.48 56.26 204.87 65.63 204.87 65.63 214.26 74.99 214.26 84.36 214.26 93.72 214.26 93.72 204.87 103.09 204.87 112.45 204.87 112.45 195.48 121.82 195.48 131.19 195.48 140.55 195.48 149.92 195.48 149.92 204.87 159.28 204.87 159.28 195.48 159.28 186.09 168.65 186.09 168.65 176.7 178.01 176.7 187.38 176.7 196.75 176.7 206.11 176.7 206.11 186.09 215.48 186.09 224.84 186.09 224.84 195.48 234.21 195.48 243.58 195.48 252.94 195.48 252.94 186.09 262.31 186.09 262.31 176.7 271.67 176.7 271.67 167.3 281.04 167.3 290.4 167.3 290.4 157.91 290.4 148.52 290.4 139.13 290.4 129.74 290.4 120.35 281.04 120.35 271.67 120.35"/><polygon class="cls-4" points="355.97 157.91 355.97 148.52 355.97 139.13 346.6 139.13 337.24 139.13 327.87 139.13 327.87 148.52 318.5 148.52 318.5 157.91 318.5 167.3 327.87 167.3 327.87 176.7 337.24 176.7 337.24 186.09 346.6 186.09 346.6 195.48 355.97 195.48 355.97 186.09 355.97 176.7 365.33 176.7 365.33 167.3 365.33 157.91 355.97 157.91"/><polygon class="cls-5" points="412.16 195.48 412.16 186.09 402.8 186.09 402.8 176.7 393.43 176.7 393.43 167.3 384.06 167.3 374.7 167.3 365.33 167.3 365.33 176.7 355.97 176.7 355.97 186.09 355.97 195.48 346.6 195.48 346.6 186.09 337.24 186.09 337.24 176.7 327.87 176.7 327.87 167.3 318.5 167.3 318.5 157.91 309.14 157.91 299.77 157.91 290.4 157.91 290.4 167.3 281.04 167.3 271.67 167.3 271.67 176.7 262.31 176.7 262.31 186.09 252.94 186.09 252.94 195.48 243.58 195.48 234.21 195.48 224.84 195.48 224.84 186.09 215.48 186.09 206.11 186.09 206.11 176.7 196.75 176.7 187.38 176.7 178.01 176.7 168.65 176.7 168.65 186.09 159.28 186.09 159.28 195.48 159.28 204.87 149.92 204.87 149.92 195.48 140.55 195.48 131.19 195.48 121.82 195.48 112.45 195.48 112.45 204.87 103.09 204.87 93.72 204.87 93.72 214.26 84.36 214.26 74.99 214.26 65.63 214.26 65.63 204.87 56.26 204.87 56.26 214.26 56.26 223.65 65.63 223.65 65.63 233.04 74.99 233.04 74.99 242.44 84.36 242.44 93.72 242.44 103.09 242.44 112.45 242.44 121.82 242.44 131.19 242.44 131.19 251.83 140.55 251.83 149.92 251.83 159.28 251.83 168.65 251.83 178.01 251.83 178.01 242.44 187.38 242.44 196.75 242.44 206.11 242.44 215.48 242.44 215.48 233.04 224.84 233.04 224.84 242.44 234.21 242.44 243.58 242.44 252.94 242.44 262.31 242.44 262.31 251.83 271.67 251.83 281.04 251.83 290.4 251.83 299.77 251.83 309.14 251.83 318.5 251.83 327.87 251.83 327.87 242.44 337.24 242.44 346.6 242.44 355.97 242.44 365.33 242.44 374.7 242.44 384.06 242.44 393.43 242.44 402.8 242.44 402.8 233.04 412.16 233.04 412.16 223.65 421.53 223.65 421.53 214.26 421.53 204.87 421.53 195.48 412.16 195.48"/></g></g><g id="nuage3"><g class="cls-2"><rect class="cls-6" x="307.86" y="465.13" width="9.37" height="9.39"/><polygon class="cls-6" points="289.13 474.52 279.76 474.52 270.4 474.52 261.03 474.52 251.67 474.52 242.3 474.52 242.3 483.91 232.94 483.91 223.57 483.91 223.57 493.3 214.2 493.3 214.2 502.7 204.84 502.7 195.47 502.7 186.1 502.7 186.1 512.09 176.74 512.09 167.37 512.09 158.01 512.09 158.01 521.48 148.64 521.48 148.64 530.87 139.28 530.87 139.28 540.26 139.28 549.65 139.28 559.04 139.28 568.43 129.91 568.43 129.91 577.83 120.54 577.83 111.18 577.83 101.81 577.83 101.81 587.22 92.45 587.22 83.08 587.22 73.72 587.22 73.72 596.61 64.35 596.61 54.98 596.61 45.62 596.61 36.25 596.61 36.25 606 45.62 606 54.98 606 64.35 606 73.72 606 83.08 606 92.45 606 101.81 606 111.18 606 120.54 606 129.91 606 139.28 606 139.28 596.61 148.64 596.61 148.64 587.22 158.01 587.22 158.01 577.83 158.01 568.43 167.37 568.43 167.37 559.04 167.37 549.65 176.74 549.65 176.74 540.26 186.1 540.26 195.47 540.26 204.84 540.26 214.2 540.26 223.57 540.26 223.57 549.65 232.94 549.65 242.3 549.65 251.67 549.65 251.67 559.04 261.03 559.04 270.4 559.04 279.76 559.04 279.76 549.65 279.76 540.26 279.76 530.87 289.13 530.87 289.13 521.48 289.13 512.09 289.13 502.7 289.13 493.3 298.5 493.3 298.5 483.91 307.86 483.91 307.86 474.52 298.5 474.52 289.13 474.52"/><polygon class="cls-6" points="17.52 606 8.15 606 -1.21 606 -1.21 615.39 -10.58 615.39 -19.94 615.39 -19.94 624.78 -29.31 624.78 -29.31 634.17 -38.67 634.17 -38.67 643.57 -38.67 652.96 -38.67 662.35 -29.31 662.35 -29.31 652.96 -19.94 652.96 -19.94 643.57 -10.58 643.57 -1.21 643.57 -1.21 634.17 8.15 634.17 17.52 634.17 17.52 624.78 26.89 624.78 26.89 615.39 36.25 615.39 36.25 606 26.89 606 17.52 606"/><polygon class="cls-6" points="1431.76 624.78 1422.4 624.78 1422.4 615.39 1413.03 615.39 1403.67 615.39 1403.67 606 1394.3 606 1384.93 606 1375.57 606 1366.2 606 1366.2 596.61 1356.84 596.61 1347.47 596.61 1338.11 596.61 1338.11 587.22 1328.74 587.22 1328.74 577.83 1319.37 577.83 1319.37 568.43 1310.01 568.43 1300.64 568.43 1291.28 568.43 1281.91 568.43 1281.91 577.83 1272.54 577.83 1272.54 568.43 1272.54 559.04 1263.18 559.04 1263.18 549.65 1263.18 540.26 1253.81 540.26 1244.45 540.26 1244.45 530.87 1235.08 530.87 1235.08 521.48 1235.08 512.09 1225.71 512.09 1216.35 512.09 1206.98 512.09 1197.62 512.09 1188.25 512.09 1188.25 502.7 1178.89 502.7 1169.52 502.7 1160.15 502.7 1150.79 502.7 1141.42 502.7 1132.06 502.7 1132.06 512.09 1122.69 512.09 1113.33 512.09 1103.96 512.09 1094.59 512.09 1085.23 512.09 1085.23 521.48 1075.86 521.48 1066.5 521.48 1066.5 512.09 1057.13 512.09 1057.13 502.7 1047.76 502.7 1038.4 502.7 1029.03 502.7 1029.03 493.3 1019.67 493.3 1010.3 493.3 1000.93 493.3 991.57 493.3 982.2 493.3 972.84 493.3 972.84 483.91 972.84 474.52 972.84 465.13 963.47 465.13 963.47 455.74 954.11 455.74 944.74 455.74 944.74 446.35 935.37 446.35 926.01 446.35 926.01 436.96 916.64 436.96 907.28 436.96 897.91 436.96 888.54 436.96 888.54 427.56 879.18 427.56 879.18 418.17 869.81 418.17 860.45 418.17 851.08 418.17 851.08 408.78 841.72 408.78 832.35 408.78 822.98 408.78 813.62 408.78 804.25 408.78 804.25 399.39 794.89 399.39 794.89 390 785.52 390 785.52 380.61 776.15 380.61 776.15 371.22 766.79 371.22 757.42 371.22 757.42 361.83 748.06 361.83 738.69 361.83 729.33 361.83 719.96 361.83 710.59 361.83 701.23 361.83 701.23 371.22 691.86 371.22 682.5 371.22 673.13 371.22 673.13 380.61 663.76 380.61 663.76 371.22 654.4 371.22 654.4 361.83 645.03 361.83 645.03 352.44 635.67 352.44 626.3 352.44 616.93 352.44 607.57 352.44 598.2 352.44 588.84 352.44 579.47 352.44 570.11 352.44 560.74 352.44 551.37 352.44 542.01 352.44 542.01 361.83 532.64 361.83 523.28 361.83 513.91 361.83 513.91 371.22 504.54 371.22 504.54 380.61 495.18 380.61 495.18 390 485.81 390 485.81 399.39 476.45 399.39 476.45 408.78 467.08 408.78 457.71 408.78 448.35 408.78 448.35 418.17 438.98 418.17 429.62 418.17 420.25 418.17 410.89 418.17 410.89 408.78 401.52 408.78 392.15 408.78 382.79 408.78 373.42 408.78 364.06 408.78 364.06 418.17 354.69 418.17 345.32 418.17 335.96 418.17 326.59 418.17 326.59 427.56 326.59 436.96 317.23 436.96 317.23 446.35 317.23 455.74 317.23 465.13 326.59 465.13 326.59 455.74 335.96 455.74 345.32 455.74 354.69 455.74 364.06 455.74 373.42 455.74 382.79 455.74 392.15 455.74 401.52 455.74 410.89 455.74 420.25 455.74 429.62 455.74 438.98 455.74 438.98 465.13 448.35 465.13 457.71 465.13 467.08 465.13 467.08 474.52 476.45 474.52 485.81 474.52 485.81 483.91 495.18 483.91 495.18 474.52 495.18 465.13 504.54 465.13 504.54 455.74 504.54 446.35 513.91 446.35 513.91 436.96 523.28 436.96 523.28 427.56 532.64 427.56 532.64 418.17 542.01 418.17 551.37 418.17 551.37 408.78 560.74 408.78 570.11 408.78 570.11 399.39 579.47 399.39 588.84 399.39 598.2 399.39 607.57 399.39 607.57 408.78 616.93 408.78 626.3 408.78 635.67 408.78 645.03 408.78 654.4 408.78 663.76 408.78 663.76 418.17 673.13 418.17 673.13 427.56 682.5 427.56 682.5 436.96 691.86 436.96 691.86 446.35 691.86 455.74 701.23 455.74 701.23 465.13 710.59 465.13 710.59 474.52 719.96 474.52 719.96 483.91 719.96 493.3 729.33 493.3 738.69 493.3 748.06 493.3 748.06 483.91 757.42 483.91 766.79 483.91 766.79 474.52 776.15 474.52 785.52 474.52 794.89 474.52 794.89 465.13 804.25 465.13 813.62 465.13 822.98 465.13 832.35 465.13 841.72 465.13 841.72 474.52 851.08 474.52 860.45 474.52 869.81 474.52 869.81 483.91 879.18 483.91 879.18 493.3 888.54 493.3 897.91 493.3 897.91 502.7 907.28 502.7 907.28 512.09 916.64 512.09 916.64 521.48 916.64 530.87 916.64 540.26 926.01 540.26 926.01 549.65 935.37 549.65 944.74 549.65 954.11 549.65 954.11 559.04 963.47 559.04 972.84 559.04 982.2 559.04 991.57 559.04 991.57 549.65 1000.93 549.65 1010.3 549.65 1019.67 549.65 1029.03 549.65 1029.03 559.04 1038.4 559.04 1047.76 559.04 1057.13 559.04 1057.13 568.43 1066.5 568.43 1075.86 568.43 1075.86 559.04 1085.23 559.04 1085.23 549.65 1094.59 549.65 1094.59 540.26 1103.96 540.26 1103.96 530.87 1113.33 530.87 1122.69 530.87 1132.06 530.87 1141.42 530.87 1150.79 530.87 1150.79 540.26 1160.15 540.26 1169.52 540.26 1169.52 549.65 1178.89 549.65 1188.25 549.65 1188.25 559.04 1197.62 559.04 1206.98 559.04 1206.98 568.43 1206.98 577.83 1216.35 577.83 1216.35 587.22 1225.71 587.22 1225.71 596.61 1235.08 596.61 1235.08 606 1244.45 606 1253.81 606 1263.18 606 1272.54 606 1281.91 606 1291.28 606 1291.28 596.61 1300.64 596.61 1310.01 596.61 1319.37 596.61 1319.37 606 1328.74 606 1338.11 606 1347.47 606 1347.47 615.39 1356.84 615.39 1366.2 615.39 1366.2 624.78 1375.57 624.78 1375.57 634.17 1384.93 634.17 1394.3 634.17 1403.67 634.17 1413.03 634.17 1422.4 634.17 1431.76 634.17 1441.13 634.17 1450.49 634.17 1450.49 624.78 1441.13 624.78 1431.76 624.78"/><polygon class="cls-6" points="1497.33 643.57 1497.33 652.96 1506.69 652.96 1516.06 652.96 1516.06 643.57 1506.69 643.57 1497.33 643.57"/><polygon class="cls-6" points="1619.08 643.57 1609.71 643.57 1600.35 643.57 1590.98 643.57 1581.62 643.57 1572.25 643.57 1572.25 652.96 1581.62 652.96 1590.98 652.96 1600.35 652.96 1609.71 652.96 1619.08 652.96 1628.45 652.96 1628.45 643.57 1619.08 643.57"/><polygon class="cls-6" points="1553.52 652.96 1544.15 652.96 1534.79 652.96 1525.42 652.96 1525.42 662.35 1534.79 662.35 1544.15 662.35 1553.52 662.35 1562.89 662.35 1572.25 662.35 1572.25 652.96 1562.89 652.96 1553.52 652.96"/><polygon class="cls-6" points="1628.45 652.96 1628.45 662.35 1637.81 662.35 1647.18 662.35 1647.18 652.96 1637.81 652.96 1628.45 652.96"/><polygon class="cls-6" points="1740.84 662.35 1731.47 662.35 1722.11 662.35 1722.11 652.96 1712.74 652.96 1703.37 652.96 1694.01 652.96 1684.64 652.96 1675.28 652.96 1675.28 662.35 1684.64 662.35 1694.01 662.35 1694.01 671.74 1703.37 671.74 1703.37 681.13 1712.74 681.13 1722.11 681.13 1731.47 681.13 1740.84 681.13 1750.2 681.13 1750.2 671.74 1750.2 662.35 1740.84 662.35"/><polygon class="cls-4" points="954.11 549.65 944.74 549.65 935.37 549.65 926.01 549.65 926.01 540.26 916.64 540.26 916.64 530.87 916.64 521.48 916.64 512.09 907.28 512.09 907.28 502.7 897.91 502.7 897.91 493.3 888.54 493.3 879.18 493.3 879.18 483.91 869.81 483.91 869.81 474.52 860.45 474.52 851.08 474.52 841.72 474.52 841.72 465.13 832.35 465.13 822.98 465.13 813.62 465.13 804.25 465.13 794.89 465.13 794.89 474.52 785.52 474.52 776.15 474.52 766.79 474.52 766.79 483.91 757.42 483.91 748.06 483.91 748.06 493.3 738.69 493.3 729.33 493.3 719.96 493.3 719.96 483.91 719.96 474.52 710.59 474.52 710.59 465.13 701.23 465.13 701.23 455.74 691.86 455.74 691.86 446.35 691.86 436.96 682.5 436.96 682.5 427.56 673.13 427.56 673.13 418.17 663.76 418.17 663.76 408.78 654.4 408.78 645.03 408.78 635.67 408.78 626.3 408.78 616.93 408.78 607.57 408.78 607.57 399.39 598.2 399.39 588.84 399.39 579.47 399.39 570.11 399.39 570.11 408.78 560.74 408.78 551.37 408.78 551.37 418.17 542.01 418.17 532.64 418.17 532.64 427.56 523.28 427.56 523.28 436.96 513.91 436.96 513.91 446.35 504.54 446.35 504.54 455.74 504.54 465.13 495.18 465.13 495.18 474.52 495.18 483.91 485.81 483.91 485.81 474.52 476.45 474.52 467.08 474.52 467.08 465.13 457.71 465.13 448.35 465.13 438.98 465.13 438.98 455.74 429.62 455.74 420.25 455.74 410.89 455.74 401.52 455.74 392.15 455.74 382.79 455.74 373.42 455.74 364.06 455.74 354.69 455.74 345.32 455.74 335.96 455.74 326.59 455.74 326.59 465.13 317.23 465.13 317.23 474.52 307.86 474.52 307.86 483.91 298.5 483.91 298.5 493.3 289.13 493.3 289.13 502.7 289.13 512.09 289.13 521.48 289.13 530.87 279.76 530.87 279.76 540.26 279.76 549.65 279.76 559.04 270.4 559.04 261.03 559.04 251.67 559.04 251.67 549.65 242.3 549.65 232.94 549.65 223.57 549.65 223.57 540.26 214.2 540.26 204.84 540.26 195.47 540.26 186.1 540.26 176.74 540.26 176.74 549.65 167.37 549.65 167.37 559.04 167.37 568.43 158.01 568.43 158.01 577.83 158.01 587.22 148.64 587.22 148.64 596.61 139.28 596.61 139.28 606 129.91 606 120.54 606 111.18 606 101.81 606 92.45 606 83.08 606 73.72 606 64.35 606 54.98 606 45.62 606 36.25 606 36.25 615.39 26.89 615.39 26.89 624.78 17.52 624.78 17.52 634.17 8.15 634.17 -1.21 634.17 -1.21 643.57 -10.58 643.57 -19.94 643.57 -19.94 652.96 -29.31 652.96 -29.31 662.35 -38.67 662.35 -38.67 671.74 -38.67 681.13 -29.31 681.13 -29.31 671.74 -19.94 671.74 -10.58 671.74 -10.58 662.35 -1.21 662.35 8.15 662.35 8.15 652.96 17.52 652.96 26.89 652.96 36.25 652.96 45.62 652.96 54.98 652.96 64.35 652.96 73.72 652.96 83.08 652.96 92.45 652.96 92.45 643.57 101.81 643.57 111.18 643.57 120.54 643.57 120.54 634.17 129.91 634.17 129.91 624.78 139.28 624.78 148.64 624.78 148.64 615.39 158.01 615.39 158.01 606 167.37 606 176.74 606 176.74 596.61 186.1 596.61 186.1 587.22 195.47 587.22 204.84 587.22 214.2 587.22 223.57 587.22 223.57 577.83 232.94 577.83 242.3 577.83 251.67 577.83 261.03 577.83 270.4 577.83 279.76 577.83 279.76 587.22 289.13 587.22 298.5 587.22 307.86 587.22 317.23 587.22 317.23 596.61 326.59 596.61 335.96 596.61 345.32 596.61 345.32 606 354.69 606 354.69 596.61 364.06 596.61 364.06 587.22 373.42 587.22 373.42 577.83 373.42 568.43 382.79 568.43 382.79 559.04 382.79 549.65 392.15 549.65 392.15 540.26 401.52 540.26 401.52 530.87 410.89 530.87 410.89 521.48 420.25 521.48 429.62 521.48 438.98 521.48 448.35 521.48 457.71 521.48 467.08 521.48 476.45 521.48 485.81 521.48 495.18 521.48 504.54 521.48 504.54 530.87 513.91 530.87 513.91 540.26 523.28 540.26 532.64 540.26 532.64 549.65 542.01 549.65 551.37 549.65 551.37 559.04 560.74 559.04 560.74 549.65 570.11 549.65 579.47 549.65 579.47 540.26 588.84 540.26 598.2 540.26 607.57 540.26 616.93 540.26 626.3 540.26 626.3 549.65 635.67 549.65 645.03 549.65 645.03 559.04 645.03 568.43 654.4 568.43 663.76 568.43 673.13 568.43 673.13 559.04 682.5 559.04 682.5 549.65 691.86 549.65 701.23 549.65 710.59 549.65 719.96 549.65 729.33 549.65 729.33 559.04 738.69 559.04 748.06 559.04 757.42 559.04 757.42 568.43 766.79 568.43 776.15 568.43 776.15 577.83 785.52 577.83 785.52 587.22 785.52 596.61 794.89 596.61 794.89 606 794.89 615.39 804.25 615.39 804.25 606 813.62 606 822.98 606 822.98 596.61 832.35 596.61 841.72 596.61 851.08 596.61 851.08 587.22 860.45 587.22 869.81 587.22 879.18 587.22 879.18 577.83 888.54 577.83 897.91 577.83 907.28 577.83 907.28 568.43 916.64 568.43 926.01 568.43 926.01 577.83 926.01 587.22 935.37 587.22 944.74 587.22 944.74 577.83 954.11 577.83 954.11 568.43 963.47 568.43 963.47 559.04 954.11 559.04 954.11 549.65"/><polygon class="cls-4" points="1206.98 559.04 1197.62 559.04 1188.25 559.04 1188.25 549.65 1178.89 549.65 1169.52 549.65 1169.52 540.26 1160.15 540.26 1150.79 540.26 1150.79 530.87 1141.42 530.87 1132.06 530.87 1122.69 530.87 1113.33 530.87 1103.96 530.87 1103.96 540.26 1094.59 540.26 1094.59 549.65 1085.23 549.65 1085.23 559.04 1075.86 559.04 1075.86 568.43 1066.5 568.43 1057.13 568.43 1057.13 559.04 1047.76 559.04 1038.4 559.04 1029.03 559.04 1029.03 549.65 1019.67 549.65 1010.3 549.65 1000.93 549.65 991.57 549.65 991.57 559.04 1000.93 559.04 1010.3 559.04 1010.3 568.43 1019.67 568.43 1019.67 577.83 1029.03 577.83 1029.03 587.22 1038.4 587.22 1038.4 596.61 1038.4 606 1047.76 606 1047.76 615.39 1057.13 615.39 1057.13 624.78 1066.5 624.78 1066.5 634.17 1075.86 634.17 1085.23 634.17 1094.59 634.17 1094.59 624.78 1103.96 624.78 1113.33 624.78 1113.33 615.39 1122.69 615.39 1132.06 615.39 1132.06 606 1141.42 606 1141.42 596.61 1150.79 596.61 1160.15 596.61 1160.15 587.22 1169.52 587.22 1169.52 577.83 1178.89 577.83 1188.25 577.83 1197.62 577.83 1206.98 577.83 1206.98 568.43 1206.98 559.04"/><rect class="cls-4" x="1206.98" y="577.83" width="9.37" height="9.39"/><rect class="cls-4" x="1225.72" y="596.61" width="9.37" height="9.39"/><polygon class="cls-4" points="1366.2 615.39 1356.84 615.39 1347.47 615.39 1347.47 606 1338.11 606 1328.74 606 1319.37 606 1319.37 596.61 1310.01 596.61 1300.64 596.61 1291.28 596.61 1291.28 606 1281.91 606 1272.54 606 1263.18 606 1253.81 606 1244.45 606 1235.08 606 1235.08 615.39 1244.45 615.39 1244.45 624.78 1253.81 624.78 1263.18 624.78 1272.54 624.78 1281.91 624.78 1281.91 615.39 1291.28 615.39 1300.64 615.39 1310.01 615.39 1319.37 615.39 1328.74 615.39 1338.11 615.39 1338.11 624.78 1347.47 624.78 1356.84 624.78 1356.84 634.17 1356.84 643.57 1366.2 643.57 1375.57 643.57 1375.57 634.17 1375.57 624.78 1366.2 624.78 1366.2 615.39"/><rect class="cls-4" x="1478.59" y="634.17" width="9.37" height="9.39"/><rect class="cls-4" x="1487.96" y="643.57" width="9.37" height="9.39"/><polygon class="cls-4" points="1609.71 652.96 1600.35 652.96 1590.98 652.96 1581.62 652.96 1572.25 652.96 1572.25 662.35 1562.89 662.35 1553.52 662.35 1544.15 662.35 1534.79 662.35 1525.42 662.35 1525.42 652.96 1516.06 652.96 1506.69 652.96 1497.33 652.96 1497.33 662.35 1506.69 662.35 1506.69 671.74 1516.06 671.74 1525.42 671.74 1534.79 671.74 1544.15 671.74 1544.15 681.13 1553.52 681.13 1553.52 671.74 1562.89 671.74 1572.25 671.74 1581.62 671.74 1590.98 671.74 1590.98 662.35 1600.35 662.35 1609.71 662.35 1619.08 662.35 1628.45 662.35 1628.45 652.96 1619.08 652.96 1609.71 652.96"/><polygon class="cls-4" points="1703.37 681.13 1703.37 671.74 1694.01 671.74 1694.01 662.35 1684.64 662.35 1675.28 662.35 1665.91 662.35 1656.54 662.35 1647.18 662.35 1637.81 662.35 1637.81 671.74 1647.18 671.74 1656.54 671.74 1665.91 671.74 1675.28 671.74 1684.64 671.74 1684.64 681.13 1694.01 681.13 1694.01 690.52 1703.37 690.52 1712.74 690.52 1712.74 681.13 1703.37 681.13"/><polygon class="cls-5" points="1684.64 681.13 1684.64 671.74 1675.28 671.74 1665.91 671.74 1656.54 671.74 1647.18 671.74 1637.81 671.74 1637.81 662.35 1628.45 662.35 1619.08 662.35 1609.71 662.35 1600.35 662.35 1590.98 662.35 1590.98 671.74 1581.62 671.74 1572.25 671.74 1562.89 671.74 1553.52 671.74 1553.52 681.13 1544.15 681.13 1544.15 671.74 1534.79 671.74 1525.42 671.74 1516.06 671.74 1506.69 671.74 1506.69 662.35 1497.33 662.35 1497.33 652.96 1487.96 652.96 1487.96 643.57 1478.59 643.57 1478.59 634.17 1469.23 634.17 1459.86 634.17 1450.49 634.17 1441.13 634.17 1431.76 634.17 1422.4 634.17 1413.03 634.17 1403.67 634.17 1394.3 634.17 1384.93 634.17 1375.57 634.17 1375.57 643.57 1366.2 643.57 1356.84 643.57 1356.84 634.17 1356.84 624.78 1347.47 624.78 1338.11 624.78 1338.11 615.39 1328.74 615.39 1319.37 615.39 1310.01 615.39 1300.64 615.39 1291.28 615.39 1281.91 615.39 1281.91 624.78 1272.54 624.78 1263.18 624.78 1253.81 624.78 1244.45 624.78 1244.45 615.39 1235.08 615.39 1235.08 606 1225.71 606 1225.71 596.61 1225.71 587.22 1216.35 587.22 1206.98 587.22 1206.98 577.83 1197.62 577.83 1188.25 577.83 1178.89 577.83 1169.52 577.83 1169.52 587.22 1160.15 587.22 1160.15 596.61 1150.79 596.61 1141.42 596.61 1141.42 606 1132.06 606 1132.06 615.39 1122.69 615.39 1113.33 615.39 1113.33 624.78 1103.96 624.78 1094.59 624.78 1094.59 634.17 1085.23 634.17 1075.86 634.17 1066.5 634.17 1066.5 624.78 1057.13 624.78 1057.13 615.39 1047.76 615.39 1047.76 606 1038.4 606 1038.4 596.61 1038.4 587.22 1029.03 587.22 1029.03 577.83 1019.67 577.83 1019.67 568.43 1010.3 568.43 1010.3 559.04 1000.93 559.04 991.57 559.04 982.2 559.04 972.84 559.04 963.47 559.04 963.47 568.43 954.11 568.43 954.11 577.83 944.74 577.83 944.74 587.22 935.37 587.22 926.01 587.22 926.01 577.83 926.01 568.43 916.64 568.43 907.28 568.43 907.28 577.83 897.91 577.83 888.54 577.83 879.18 577.83 879.18 587.22 869.81 587.22 860.45 587.22 851.08 587.22 851.08 596.61 841.72 596.61 832.35 596.61 822.98 596.61 822.98 606 813.62 606 804.25 606 804.25 615.39 794.89 615.39 794.89 606 794.89 596.61 785.52 596.61 785.52 587.22 785.52 577.83 776.15 577.83 776.15 568.43 766.79 568.43 757.42 568.43 757.42 559.04 748.06 559.04 738.69 559.04 729.33 559.04 729.33 549.65 719.96 549.65 710.59 549.65 701.23 549.65 691.86 549.65 682.5 549.65 682.5 559.04 673.13 559.04 673.13 568.43 663.76 568.43 654.4 568.43 645.03 568.43 645.03 559.04 645.03 549.65 635.67 549.65 626.3 549.65 626.3 540.26 616.93 540.26 607.57 540.26 598.2 540.26 588.84 540.26 579.47 540.26 579.47 549.65 570.11 549.65 560.74 549.65 560.74 559.04 551.37 559.04 551.37 549.65 542.01 549.65 532.64 549.65 532.64 540.26 523.28 540.26 513.91 540.26 513.91 530.87 504.54 530.87 504.54 521.48 495.18 521.48 485.81 521.48 476.45 521.48 467.08 521.48 457.71 521.48 448.35 521.48 438.98 521.48 429.62 521.48 420.25 521.48 410.89 521.48 410.89 530.87 401.52 530.87 401.52 540.26 392.15 540.26 392.15 549.65 382.79 549.65 382.79 559.04 382.79 568.43 373.42 568.43 373.42 577.83 373.42 587.22 364.06 587.22 364.06 596.61 354.69 596.61 354.69 606 345.32 606 345.32 596.61 335.96 596.61 326.59 596.61 317.23 596.61 317.23 587.22 307.86 587.22 298.5 587.22 289.13 587.22 279.76 587.22 279.76 577.83 270.4 577.83 261.03 577.83 251.67 577.83 242.3 577.83 232.94 577.83 223.57 577.83 223.57 587.22 214.2 587.22 204.84 587.22 195.47 587.22 186.1 587.22 186.1 596.61 176.74 596.61 176.74 606 167.37 606 158.01 606 158.01 615.39 148.64 615.39 148.64 624.78 139.28 624.78 129.91 624.78 129.91 634.17 120.54 634.17 120.54 643.57 111.18 643.57 101.81 643.57 92.45 643.57 92.45 652.96 83.08 652.96 73.72 652.96 64.35 652.96 54.98 652.96 45.62 652.96 36.25 652.96 26.89 652.96 17.52 652.96 8.15 652.96 8.15 662.35 -1.21 662.35 -10.58 662.35 -10.58 671.74 -19.94 671.74 -29.31 671.74 -29.31 681.13 -29.31 690.52 -19.94 690.52 -10.58 690.52 -1.21 690.52 8.15 690.52 17.52 690.52 26.89 690.52 36.25 690.52 45.62 690.52 45.62 681.13 54.98 681.13 54.98 690.52 64.35 690.52 73.72 690.52 83.08 690.52 92.45 690.52 101.81 690.52 101.81 681.13 111.18 681.13 120.54 681.13 120.54 671.74 129.91 671.74 139.28 671.74 139.28 662.35 148.64 662.35 158.01 662.35 158.01 652.96 167.37 652.96 176.74 652.96 186.1 652.96 195.47 652.96 204.84 652.96 214.2 652.96 223.57 652.96 223.57 662.35 232.94 662.35 242.3 662.35 251.67 662.35 261.03 662.35 261.03 671.74 270.4 671.74 279.76 671.74 279.76 681.13 289.13 681.13 298.5 681.13 307.86 681.13 307.86 690.52 317.23 690.52 326.59 690.52 335.96 690.52 335.96 699.91 345.32 699.91 354.69 699.91 364.06 699.91 373.42 699.91 382.79 699.91 392.15 699.91 401.52 699.91 410.89 699.91 420.25 699.91 429.62 699.91 438.98 699.91 448.35 699.91 457.71 699.91 467.08 699.91 476.45 699.91 485.81 699.91 495.18 699.91 495.18 690.52 504.54 690.52 513.91 690.52 523.28 690.52 532.64 690.52 542.01 690.52 542.01 681.13 551.37 681.13 551.37 690.52 560.74 690.52 570.11 690.52 579.47 690.52 588.84 690.52 598.2 690.52 598.2 699.91 607.57 699.91 616.93 699.91 626.3 699.91 635.67 699.91 645.03 699.91 645.03 709.3 654.4 709.3 663.76 709.3 673.13 709.3 682.5 709.3 682.5 718.7 691.86 718.7 701.23 718.7 710.59 718.7 719.96 718.7 729.33 718.7 738.69 718.7 748.06 718.7 757.42 718.7 766.79 718.7 766.79 728.09 776.15 728.09 785.52 728.09 794.89 728.09 804.25 728.09 813.62 728.09 822.98 728.09 832.35 728.09 832.35 718.7 841.72 718.7 851.08 718.7 860.45 718.7 869.81 718.7 879.18 718.7 888.54 718.7 888.54 709.3 897.91 709.3 907.28 709.3 916.64 709.3 926.01 709.3 935.37 709.3 935.37 699.91 944.74 699.91 954.11 699.91 963.47 699.91 972.84 699.91 972.84 690.52 982.2 690.52 991.57 690.52 991.57 681.13 1000.93 681.13 1010.3 681.13 1010.3 671.74 1019.67 671.74 1029.03 671.74 1038.4 671.74 1038.4 662.35 1047.76 662.35 1057.13 662.35 1066.5 662.35 1075.86 662.35 1085.23 662.35 1094.59 662.35 1103.96 662.35 1113.33 662.35 1122.69 662.35 1122.69 671.74 1132.06 671.74 1141.42 671.74 1150.79 671.74 1150.79 681.13 1160.15 681.13 1169.52 681.13 1178.89 681.13 1178.89 690.52 1188.25 690.52 1197.62 690.52 1206.98 690.52 1216.35 690.52 1216.35 699.91 1225.71 699.91 1235.08 699.91 1244.45 699.91 1253.81 699.91 1263.18 699.91 1272.54 699.91 1281.91 699.91 1281.91 690.52 1291.28 690.52 1300.64 690.52 1310.01 690.52 1319.37 690.52 1319.37 681.13 1328.74 681.13 1338.11 681.13 1347.47 681.13 1347.47 671.74 1356.84 671.74 1366.2 671.74 1375.57 671.74 1384.93 671.74 1394.3 671.74 1403.67 671.74 1413.03 671.74 1413.03 681.13 1422.4 681.13 1431.76 681.13 1441.13 681.13 1450.49 681.13 1450.49 690.52 1459.86 690.52 1469.23 690.52 1478.59 690.52 1487.96 690.52 1497.33 690.52 1506.69 690.52 1516.06 690.52 1525.42 690.52 1525.42 699.91 1534.79 699.91 1544.15 699.91 1553.52 699.91 1562.89 699.91 1572.25 699.91 1581.62 699.91 1590.98 699.91 1600.35 699.91 1609.71 699.91 1619.08 699.91 1619.08 690.52 1628.45 690.52 1637.81 690.52 1647.18 690.52 1656.54 690.52 1656.54 699.91 1665.91 699.91 1675.28 699.91 1675.28 690.52 1684.64 690.52 1694.01 690.52 1694.01 681.13 1684.64 681.13"/></g></g><g id="nuage4"><g class="cls-2"><polygon class="cls-6" points="1599.89 498 1599.89 488.61 1599.89 479.22 1609.26 479.22 1618.63 479.22 1627.99 479.22 1627.99 469.83 1627.99 460.44 1637.36 460.44 1637.36 451.04 1646.72 451.04 1646.72 441.65 1656.09 441.65 1665.45 441.65 1665.45 432.26 1674.82 432.26 1684.19 432.26 1693.55 432.26 1702.92 432.26 1702.92 422.87 1712.28 422.87 1712.28 413.48 1721.65 413.48 1731.02 413.48 1740.38 413.48 1749.75 413.48 1759.11 413.48 1759.11 404.09 1768.48 404.09 1768.48 394.7 1777.85 394.7 1787.21 394.7 1796.58 394.7 1796.58 385.3 1805.94 385.3 1815.31 385.3 1815.31 394.7 1824.67 394.7 1834.04 394.7 1834.04 404.09 1843.41 404.09 1852.77 404.09 1862.14 404.09 1871.5 404.09 1880.87 404.09 1890.23 404.09 1899.6 404.09 1908.97 404.09 1908.97 413.48 1918.33 413.48 1927.7 413.48 1927.7 422.87 1927.7 432.26 1927.7 441.65 1937.06 441.65 1937.06 451.04 1946.43 451.04 1946.43 460.44 1955.8 460.44 1955.8 469.83 1955.8 479.22 1955.8 488.61 1965.16 488.61 1965.16 498 1965.16 507.39 1955.8 507.39 1955.8 498 1946.43 498 1946.43 488.61 1937.06 488.61 1937.06 479.22 1927.7 479.22 1927.7 469.83 1918.33 469.83 1918.33 460.44 1908.97 460.44 1899.6 460.44 1890.23 460.44 1880.87 460.44 1871.5 460.44 1871.5 469.83 1862.14 469.83 1862.14 479.22 1852.77 479.22 1843.41 479.22 1843.41 469.83 1834.04 469.83 1834.04 460.44 1824.67 460.44 1824.67 451.04 1815.31 451.04 1815.31 441.65 1805.94 441.65 1805.94 432.26 1796.58 432.26 1796.58 422.87 1787.21 422.87 1777.85 422.87 1768.48 422.87 1759.11 422.87 1759.11 432.26 1749.75 432.26 1740.38 432.26 1740.38 441.65 1731.02 441.65 1721.65 441.65 1721.65 451.04 1721.65 460.44 1721.65 469.83 1721.65 479.22 1712.28 479.22 1702.92 479.22 1693.55 479.22 1693.55 469.83 1684.19 469.83 1684.19 460.44 1674.82 460.44 1665.45 460.44 1656.09 460.44 1656.09 469.83 1656.09 479.22 1646.72 479.22 1646.72 488.61 1637.36 488.61 1627.99 488.61 1618.63 488.61 1618.63 498 1609.26 498 1609.26 507.39 1599.89 507.39 1599.89 516.78 1590.53 516.78 1590.53 507.39 1590.53 498 1599.89 498"/><polygon class="cls-6" points="1470.89 507.39 1470.89 498 1470.89 488.61 1480.25 488.61 1489.62 488.61 1498.98 488.61 1498.98 479.22 1498.98 469.83 1508.35 469.83 1508.35 460.44 1517.71 460.44 1517.71 451.04 1527.08 451.04 1536.45 451.04 1536.45 441.65 1545.81 441.65 1555.18 441.65 1564.54 441.65 1573.91 441.65 1573.91 432.26 1583.28 432.26 1583.28 422.87 1592.64 422.87 1602.01 422.87 1611.37 422.87 1620.74 422.87 1630.11 422.87 1630.11 413.48 1639.47 413.48 1639.47 404.09 1648.84 404.09 1658.2 404.09 1667.57 404.09 1667.57 394.7 1676.93 394.7 1686.3 394.7 1686.3 404.09 1695.67 404.09 1705.03 404.09 1705.03 413.48 1714.4 413.48 1723.76 413.48 1733.13 413.48 1742.5 413.48 1751.86 413.48 1761.23 413.48 1770.59 413.48 1779.96 413.48 1779.96 422.87 1789.33 422.87 1798.69 422.87 1798.69 432.26 1798.69 441.65 1798.69 451.04 1808.06 451.04 1808.06 460.44 1817.42 460.44 1817.42 469.83 1826.79 469.83 1826.79 479.22 1826.79 488.61 1826.79 498 1836.15 498 1836.15 507.39 1836.15 516.78 1826.79 516.78 1826.79 507.39 1817.42 507.39 1817.42 498 1808.06 498 1808.06 488.61 1798.69 488.61 1798.69 479.22 1789.33 479.22 1789.33 469.83 1779.96 469.83 1770.59 469.83 1761.23 469.83 1751.86 469.83 1742.5 469.83 1742.5 479.22 1733.13 479.22 1733.13 488.61 1723.76 488.61 1714.4 488.61 1714.4 479.22 1705.03 479.22 1705.03 469.83 1695.67 469.83 1695.67 460.44 1686.3 460.44 1686.3 451.04 1676.93 451.04 1676.93 441.65 1667.57 441.65 1667.57 432.26 1658.2 432.26 1648.84 432.26 1639.47 432.26 1630.11 432.26 1630.11 441.65 1620.74 441.65 1611.37 441.65 1611.37 451.04 1602.01 451.04 1592.64 451.04 1592.64 460.44 1592.64 469.83 1592.64 479.22 1592.64 488.61 1583.28 488.61 1573.91 488.61 1564.54 488.61 1564.54 479.22 1555.18 479.22 1555.18 469.83 1545.81 469.83 1536.45 469.83 1527.08 469.83 1527.08 479.22 1527.08 488.61 1517.71 488.61 1517.71 498 1508.35 498 1498.98 498 1489.62 498 1489.62 507.39 1480.25 507.39 1480.25 516.78 1470.89 516.78 1470.89 526.17 1461.52 526.17 1461.52 516.78 1461.52 507.39 1470.89 507.39"/><polygon class="cls-5" points="1946.43 526.17 1946.43 535.57 1937.06 535.57 1927.7 535.57 1918.33 535.57 1918.33 526.17 1908.97 526.17 1899.6 526.17 1899.6 516.78 1890.23 516.78 1880.87 516.78 1871.5 516.78 1862.14 516.78 1862.14 526.17 1852.77 526.17 1852.77 516.78 1852.77 507.39 1843.41 507.39 1843.41 498 1834.04 498 1824.67 498 1815.31 498 1805.94 498 1805.94 507.39 1796.58 507.39 1787.21 507.39 1787.21 516.78 1777.85 516.78 1768.48 516.78 1759.11 516.78 1759.11 507.39 1749.75 507.39 1749.75 498 1740.38 498 1740.38 488.61 1731.02 488.61 1721.65 488.61 1721.65 479.22 1712.28 479.22 1702.92 479.22 1693.55 479.22 1693.55 488.61 1684.19 488.61 1684.19 498 1674.82 498 1674.82 507.39 1665.45 507.39 1665.45 516.78 1658.2 516.78 1656.09 516.78 1656.09 507.39 1656.09 498 1646.72 498 1646.72 488.61 1637.36 488.61 1627.99 488.61 1618.63 488.61 1618.63 498 1611.37 498 1609.26 498 1602.01 498 1592.64 498 1592.64 488.61 1583.28 488.61 1573.91 488.61 1564.54 488.61 1564.54 498 1555.18 498 1555.18 507.39 1545.81 507.39 1545.81 516.78 1536.45 516.78 1536.45 526.17 1527.08 526.17 1527.08 516.78 1527.08 507.39 1517.71 507.39 1517.71 498 1508.35 498 1498.98 498 1489.62 498 1489.62 507.39 1480.25 507.39 1480.25 516.78 1470.89 516.78 1470.89 526.17 1461.52 526.17 1461.52 535.57 1461.52 544.96 1461.52 554.35 1470.89 554.35 1470.89 563.74 1480.25 563.74 1480.25 573.13 1489.62 573.13 1498.98 573.13 1508.35 573.13 1517.71 573.13 1527.08 573.13 1536.45 573.13 1545.81 573.13 1555.18 573.13 1555.18 582.52 1564.54 582.52 1573.91 582.52 1583.28 582.52 1592.64 582.52 1602.01 582.52 1611.37 582.52 1620.74 582.52 1620.74 573.13 1630.11 573.13 1639.47 573.13 1648.84 573.13 1658.2 573.13 1658.2 563.74 1665.45 563.74 1667.57 563.74 1667.57 573.13 1676.93 573.13 1684.19 573.13 1686.3 573.13 1693.55 573.13 1695.67 573.13 1702.92 573.13 1705.03 573.13 1705.03 582.52 1714.4 582.52 1723.76 582.52 1733.13 582.52 1742.5 582.52 1751.86 582.52 1751.86 573.13 1761.23 573.13 1770.59 573.13 1779.96 573.13 1789.33 573.13 1798.69 573.13 1808.06 573.13 1808.06 563.74 1815.31 563.74 1817.42 563.74 1824.67 563.74 1834.04 563.74 1834.04 573.13 1843.41 573.13 1852.77 573.13 1862.14 573.13 1871.5 573.13 1880.87 573.13 1880.87 563.74 1890.23 563.74 1899.6 563.74 1908.97 563.74 1918.33 563.74 1927.7 563.74 1937.06 563.74 1937.06 554.35 1946.43 554.35 1946.43 544.96 1955.8 544.96 1955.8 535.57 1955.8 526.17 1946.43 526.17"/><polygon class="cls-4" points="1555.18 469.83 1545.81 469.83 1536.45 469.83 1527.08 469.83 1527.08 479.22 1527.08 488.61 1517.71 488.61 1517.71 498 1517.71 507.39 1527.08 507.39 1527.08 516.78 1527.08 526.17 1536.45 526.17 1536.45 516.78 1545.81 516.78 1545.81 507.39 1555.18 507.39 1555.18 498 1564.54 498 1564.54 488.61 1564.54 479.22 1555.18 479.22 1555.18 469.83"/><polygon class="cls-4" points="1955.8 507.39 1955.8 498 1946.43 498 1946.43 488.61 1937.06 488.61 1937.06 479.22 1927.7 479.22 1927.7 469.83 1918.33 469.83 1918.33 460.44 1908.97 460.44 1899.6 460.44 1890.23 460.44 1880.87 460.44 1871.5 460.44 1871.5 469.83 1862.14 469.83 1862.14 479.22 1852.77 479.22 1843.41 479.22 1843.41 469.83 1834.04 469.83 1834.04 460.44 1824.67 460.44 1824.67 451.04 1815.31 451.04 1815.31 441.65 1805.94 441.65 1805.94 432.26 1796.58 432.26 1796.58 422.87 1787.21 422.87 1777.85 422.87 1768.48 422.87 1759.11 422.87 1759.11 432.26 1749.75 432.26 1740.38 432.26 1740.38 441.65 1731.02 441.65 1721.65 441.65 1721.65 451.04 1721.65 460.44 1721.65 469.83 1721.65 479.22 1721.65 488.61 1714.4 488.61 1714.4 479.22 1705.03 479.22 1705.03 469.83 1695.67 469.83 1695.67 460.44 1686.3 460.44 1686.3 451.04 1676.93 451.04 1676.93 441.65 1667.57 441.65 1667.57 432.26 1658.2 432.26 1648.84 432.26 1639.47 432.26 1630.11 432.26 1630.11 441.65 1620.74 441.65 1611.37 441.65 1611.37 451.04 1602.01 451.04 1592.64 451.04 1592.64 460.44 1592.64 469.83 1592.64 479.22 1592.64 488.61 1592.64 498 1602.01 498 1611.37 498 1611.37 507.39 1620.74 507.39 1620.74 516.78 1630.11 516.78 1630.11 526.17 1639.47 526.17 1648.84 526.17 1658.2 526.17 1658.2 516.78 1665.45 516.78 1667.57 516.78 1676.93 516.78 1676.93 507.39 1686.3 507.39 1695.67 507.39 1705.03 507.39 1714.4 507.39 1714.4 516.78 1723.76 516.78 1723.76 526.17 1723.76 535.57 1733.13 535.57 1733.13 526.17 1742.5 526.17 1751.86 526.17 1761.23 526.17 1770.59 526.17 1770.59 535.57 1779.96 535.57 1789.33 535.57 1789.33 544.96 1798.69 544.96 1808.06 544.96 1817.42 544.96 1817.42 535.57 1826.79 535.57 1826.79 526.17 1836.15 526.17 1836.15 516.78 1826.79 516.78 1826.79 507.39 1817.42 507.39 1817.42 498 1824.67 498 1834.04 498 1843.41 498 1843.41 507.39 1852.77 507.39 1852.77 516.78 1852.77 526.17 1862.14 526.17 1862.14 516.78 1871.5 516.78 1880.87 516.78 1890.23 516.78 1899.6 516.78 1899.6 526.17 1908.97 526.17 1918.33 526.17 1918.33 535.57 1927.7 535.57 1937.06 535.57 1946.43 535.57 1946.43 526.17 1955.8 526.17 1955.8 516.78 1965.16 516.78 1965.16 507.39 1955.8 507.39"/></g></g><g id="nuage5"><g class="cls-2"><rect class="cls-3" x="1630.98" y="284.35" width="9.37" height="9.39"/><rect class="cls-3" x="1523.28" y="279.65" width="9.37" height="9.39"/><rect class="cls-3" x="1396.84" y="307.83" width="9.37" height="9.39"/><rect class="cls-3" x="1542.02" y="265.57" width="9.37" height="9.39"/><path class="cls-3" d="M1757.42,199.83H1720V181h-9.37v-9.39h-18.73v-9.39h-18.73v-9.39H1626.3v9.39h-18.73v9.39h-9.37v-9.39h-9.36v-9.39h-28.1v-9.39h-37.46v9.39h-18.74v9.39h-26v-9.39H1459.8v-9.39H1453v-4.7h-56.19V120h-9.37v-9.39h-18.73v-9.39H1350V91.83h-46.83v9.39h-18.73v9.39h-9.37v-9.39h-9.36V91.83h-28.1v-9.4h-37.47v9.4h-18.73v9.39h-9.36V120h-9.37v28.17h-65.56v9.4h-9.37V167h-9.36v18.78H1069v9.39H994.11v9.39h-9.37v9.39h-14v-4.69h9.36v-9.39H947.28v-4.7h-9.37v-9.39h-14V181H914.5v-9.39H895.77v-9.39H877v-9.39H830.21v9.39H811.48v9.39h-9.37v-9.39h-9.36v-9.39h-28.1v-9.39H727.19v9.39H708.45v9.39h-9.36V181h-9.37v28.18H624.16v9.39H614.8V228h-9.37v18.78h-9.37v9.39H521.14v9.4h-9.37V275H493v-9.39H474.31v-9.4h-9.37v-9.39h-28.1v9.39h-9.36v9.4h-9.37v-9.4H371.28v9.4H352.55V275h-9.36v9.39h-9.37v28.17h-9.37v9.39h-9.36v-9.39h-9.37v-9.39h-9.36v-9.39h-56.2v9.39H230.8v9.39H193.33v9.39H184V340.7H174.6v9.39H127.77v9.39h-9.36V397h9.36v-9.39H146.5v-9.39h18.73v-9.39H184v-9.39h9.36v-9.39h9.37V340.7h18.73v-9.4h18.73v-9.39h37.46v9.39h18.74v9.4h9.36v9.39h9.37v18.78h18.73v-9.39h18.73v-9.39h9.37V340.7h18.73v-9.4H390v-9.39h28.09v-9.39h28.1v-9.39h18.73v9.39h18.73v9.39h28.1v9.39H530.5v-9.39h9.37v-9.39h9.36v-9.39h9.37v-9.39H568v-9.39h28.09V275h56.2v4.69h-4.69V289H600.74v9.39h-9.37V336h9.37v-9.39h18.73v-9.39H638.2v-9.39h18.73v-9.4h9.37v-4.69H671v9.39h18.73v9.39h9.37V293.74h9.36V275h9.37V260.87h32.77v9.39h18.73v9.39h9.37V289h9.37v9.39H769.32v4.7h-51.5v4.7H703.76v9.39H685v4.69H671v9.39h-9.37V336h-9.36v9.39h-9.37v14.09H638.2v-4.7h-9.36v-9.39h-56.2v9.39h-9.36v9.39H525.81v9.4h-9.36v18.78h-9.37v9.39H460.25v9.39h-9.36V448.7h9.36v-9.4H479v-9.39h18.74v-9.39h18.73v-9.39h9.36v-9.39h9.37v-9.39h18.73V383h18.73v-9.39H586.7V383h-9.37v37.56h9.37v-9.39h18.73v-4.7h0v-4.69h18.73V397h0v-4.69h14v9.39h9.37v18.78H666.3v-9.39H685v14.09h9.37v-9.39h18.73v-9.4h18.73V397h18.73v-9.39H760v-9.39h9.36v-4.69H774v18.78h18.73V383h18.73v-4.7h0v-4.69h32.77V383H863v-9.39h9.37v4.69h9.37V397h18.73v-9.39h14V397h9.36v-9.39h18.73v-9.39h18.73v-9.39h18.74v-9.39h9.36v-4.7h0v-4.69h9.36v-4.7h4.68v9.39h18.73v9.39h9.37V345.39h9.36V340.7h9.37v9.39h28.1v9.39h18.73v-9.39h14v18.78h18.73v-9.39h18.73v-9.39H1158V340.7h18.73v-9.4h9.37v-4.69h14V336h28.1v-9.39h9.37v-4.7h0v9.39h18.73v9.4h9.37V321.91h9.36v-9.39h4.68v9.39h28.1v9.39h18.73v-9.39H1336v-9.39h9.36v-4.69h9.38v-9.4h9.36v-4.69h9.37v-9.39h23.41v9.39h18.73v9.39h18.73v9.39h28.1v-9.39h23.41v9.39h9.37V293.74h9.36V275h9.37V256.17h18.73v-9.39h74.93v9.39h18.73v9.4H1645V275h18.73v9.39h28.1V275h9.37V256.17h9.36v-9.39H1720v-9.39h9.36V228h18.74v-9.39h18.73v-9.39h9.36v-9.39h-18.73ZM919.18,251.48v-4.7h4.69v-4.69h14v9.39h16.14v4.69H914.5v9.4h-9.36v4.69h0V256.17h9.36v-4.69Zm-140.49,0v-4.7h28.1v4.7h-9.37v9.39h-9.36v-9.39ZM731.86,378.26h-2.59v-4.69h12v4.69Z"/><rect class="cls-3" x="1860.45" y="256.17" width="9.37" height="9.39"/><polygon class="cls-4" points="1897.91 368.87 1897.91 359.48 1897.91 350.09 1897.91 340.7 1888.54 340.7 1879.18 340.7 1879.18 331.3 1869.81 331.3 1869.81 321.91 1869.81 312.52 1879.18 312.52 1879.18 303.13 1879.18 293.74 1879.18 284.35 1869.81 284.35 1869.81 274.96 1869.81 265.56 1860.45 265.56 1860.45 256.17 1851.08 256.17 1841.71 256.17 1832.35 256.17 1822.98 256.17 1822.98 246.78 1813.62 246.78 1813.62 237.39 1813.62 228 1804.25 228 1804.25 218.61 1794.89 218.61 1794.89 209.22 1785.52 209.22 1776.15 209.22 1766.79 209.22 1766.79 218.61 1757.42 218.61 1748.06 218.61 1748.06 228 1738.69 228 1729.33 228 1729.33 237.39 1719.96 237.39 1719.96 246.78 1710.59 246.78 1710.59 256.17 1701.23 256.17 1701.23 265.56 1701.23 274.96 1691.86 274.96 1691.86 284.35 1682.49 284.35 1673.13 284.35 1663.76 284.35 1663.76 274.96 1654.4 274.96 1645.03 274.96 1645.03 265.56 1635.67 265.56 1626.3 265.56 1626.3 256.17 1616.93 256.17 1607.57 256.17 1607.57 246.78 1598.2 246.78 1588.84 246.78 1579.47 246.78 1570.11 246.78 1560.74 246.78 1551.37 246.78 1542.01 246.78 1532.64 246.78 1532.64 256.17 1527.96 256.17 1523.28 256.17 1518.59 256.17 1513.91 256.17 1509.23 256.17 1499.86 256.17 1499.86 246.78 1490.5 246.78 1490.5 237.39 1490.5 228 1481.13 228 1481.13 218.61 1471.76 218.61 1471.76 209.22 1462.4 209.22 1453.03 209.22 1443.67 209.22 1443.67 218.61 1434.3 218.61 1424.93 218.61 1424.93 228 1415.57 228 1406.2 228 1406.2 237.39 1396.84 237.39 1396.84 246.78 1387.47 246.78 1387.47 256.17 1378.11 256.17 1378.11 265.56 1378.11 274.96 1368.74 274.96 1368.74 284.35 1364.06 284.35 1359.37 284.35 1350.01 284.35 1340.64 284.35 1340.64 274.96 1331.28 274.96 1321.91 274.96 1321.91 265.56 1312.54 265.56 1303.18 265.56 1303.18 256.17 1293.81 256.17 1284.45 256.17 1284.45 246.78 1275.08 246.78 1265.71 246.78 1256.35 246.78 1246.98 246.78 1237.62 246.78 1228.25 246.78 1218.89 246.78 1209.52 246.78 1209.52 256.17 1200.15 256.17 1190.79 256.17 1190.79 265.56 1190.79 274.96 1181.42 274.96 1181.42 284.35 1181.42 293.74 1172.06 293.74 1172.06 303.13 1172.06 312.52 1162.69 312.52 1162.69 303.13 1153.33 303.13 1143.96 303.13 1143.96 293.74 1134.59 293.74 1134.59 284.35 1125.23 284.35 1125.23 274.96 1115.86 274.96 1106.5 274.96 1097.13 274.96 1087.76 274.96 1078.4 274.96 1073.72 274.96 1073.72 265.56 1064.36 265.56 1064.36 256.17 1054.99 256.17 1045.63 256.17 1036.26 256.17 1026.89 256.17 1026.89 246.78 1017.53 246.78 1017.53 237.39 1017.53 228 1008.16 228 1008.16 218.61 998.8 218.61 998.8 209.22 989.43 209.22 980.06 209.22 970.7 209.22 970.7 218.61 961.33 218.61 951.97 218.61 951.97 228 942.6 228 933.24 228 933.24 237.39 923.87 237.39 923.87 246.78 914.5 246.78 914.5 256.17 905.14 256.17 905.14 265.56 905.14 274.96 895.77 274.96 895.77 284.35 886.4 284.35 877.04 284.35 867.67 284.35 867.67 274.96 858.31 274.96 848.94 274.96 848.94 265.56 839.58 265.56 830.21 265.56 830.21 256.17 820.84 256.17 811.48 256.17 811.48 246.78 802.11 246.78 792.75 246.78 783.38 246.78 774.01 246.78 764.65 246.78 755.28 246.78 745.92 246.78 736.55 246.78 736.55 256.17 727.19 256.17 717.82 256.17 717.82 265.56 717.82 274.96 708.45 274.96 708.45 284.35 708.45 293.74 699.09 293.74 699.09 303.13 699.09 312.52 689.72 312.52 689.72 303.13 680.36 303.13 670.99 303.13 670.99 293.74 661.63 293.74 661.63 284.35 652.26 284.35 652.26 274.96 642.89 274.96 633.53 274.96 624.16 274.96 614.8 274.96 605.43 274.96 596.06 274.96 596.06 284.35 586.7 284.35 577.33 284.35 567.97 284.35 567.97 293.74 558.6 293.74 558.6 303.13 549.24 303.13 549.24 312.52 539.87 312.52 539.87 321.91 530.5 321.91 530.5 331.3 521.14 331.3 511.77 331.3 511.77 321.91 502.4 321.91 493.04 321.91 483.67 321.91 483.67 312.52 474.31 312.52 464.94 312.52 464.94 303.13 455.58 303.13 446.21 303.13 446.21 312.52 436.84 312.52 427.48 312.52 418.11 312.52 418.11 321.91 408.75 321.91 399.38 321.91 390.01 321.91 390.01 331.3 380.65 331.3 380.65 340.7 371.28 340.7 361.92 340.7 361.92 350.09 352.55 350.09 352.55 359.48 343.19 359.48 333.82 359.48 333.82 368.87 343.19 368.87 352.55 368.87 352.55 378.26 361.92 378.26 371.28 378.26 380.65 378.26 380.65 387.65 390.01 387.65 390.01 397.04 399.38 397.04 399.38 406.44 408.75 406.44 418.11 406.44 427.48 406.44 427.48 415.83 436.84 415.83 446.21 415.83 455.58 415.83 464.94 415.83 474.31 415.83 483.67 415.83 483.67 406.44 493.04 406.44 502.4 406.44 502.4 397.04 511.77 397.04 521.14 397.04 530.5 397.04 539.87 397.04 539.87 406.44 549.24 406.44 558.6 406.44 558.6 415.83 567.97 415.83 577.33 415.83 586.7 415.83 596.06 415.83 605.43 415.83 614.8 415.83 624.16 415.83 633.53 415.83 633.53 425.22 642.89 425.22 642.89 415.83 647.57 415.83 652.26 415.83 656.93 415.83 666.3 415.83 675.67 415.83 685.03 415.83 685.03 406.44 694.4 406.44 703.76 406.44 713.13 406.44 722.5 406.44 731.86 406.44 731.86 415.83 741.23 415.83 750.59 415.83 759.96 415.83 759.96 406.44 764.65 406.44 764.65 415.83 774.01 415.83 774.01 425.22 783.38 425.22 783.38 415.83 792.75 415.83 802.11 415.83 811.48 415.83 811.48 406.44 820.84 406.44 820.84 397.04 830.21 397.04 839.58 397.04 839.58 387.65 848.94 387.65 853.62 387.65 858.31 387.65 862.98 387.65 862.98 397.04 872.35 397.04 872.35 406.44 881.72 406.44 891.08 406.44 900.45 406.44 900.45 415.83 909.81 415.83 914.5 415.83 919.18 415.83 923.87 415.83 928.54 415.83 933.24 415.83 937.91 415.83 942.6 415.83 947.28 415.83 956.64 415.83 956.64 406.44 961.33 406.44 961.33 415.83 970.69 415.83 980.06 415.83 989.42 415.83 998.79 415.83 1008.15 415.83 1008.15 406.44 1008.16 406.44 1012.84 406.44 1017.52 406.44 1017.53 406.44 1022.2 406.44 1026.89 406.44 1026.89 406.44 1031.57 406.44 1031.57 415.83 1040.93 415.83 1050.3 415.83 1054.98 415.83 1059.67 415.83 1064.35 415.83 1069.03 415.83 1073.71 415.83 1078.4 415.83 1083.08 415.83 1087.76 415.83 1097.13 415.83 1106.5 415.83 1106.5 425.22 1115.86 425.22 1115.86 415.83 1125.23 415.83 1125.23 406.44 1134.59 406.44 1134.59 397.04 1134.59 387.65 1143.96 387.65 1143.96 378.26 1148.64 378.26 1153.33 378.26 1158.01 378.26 1162.69 378.26 1167.37 378.26 1172.06 378.26 1176.74 378.26 1176.74 387.65 1186.11 387.65 1186.11 397.04 1195.47 397.04 1195.47 406.44 1204.84 406.44 1214.2 406.44 1223.57 406.44 1223.57 415.83 1232.93 415.83 1237.62 415.83 1242.3 415.83 1246.98 415.83 1246.98 425.22 1256.35 425.22 1256.35 415.83 1261.03 415.83 1265.71 415.83 1270.4 415.83 1275.08 415.83 1279.76 415.83 1284.45 415.83 1284.45 406.44 1289.13 406.44 1293.81 406.44 1298.49 406.44 1298.49 397.04 1303.18 397.04 1307.86 397.04 1312.54 397.04 1317.23 397.04 1326.59 397.04 1335.96 397.04 1335.96 406.44 1345.33 406.44 1354.69 406.44 1354.69 415.83 1364.06 415.83 1373.42 415.83 1382.79 415.83 1387.47 415.83 1392.15 415.83 1396.84 415.83 1401.52 415.83 1406.2 415.83 1410.89 415.83 1415.57 415.83 1420.25 415.83 1429.62 415.83 1429.62 425.22 1438.98 425.22 1438.98 415.83 1448.35 415.83 1448.35 406.44 1457.71 406.44 1457.71 397.04 1462.4 397.04 1471.76 397.04 1471.76 406.44 1481.13 406.44 1490.5 406.44 1499.86 406.44 1499.86 397.04 1509.23 397.04 1509.23 387.65 1518.59 387.65 1518.59 378.26 1523.28 378.26 1523.28 387.65 1532.64 387.65 1542.01 387.65 1542.01 397.04 1551.37 397.04 1551.37 406.44 1560.74 406.44 1560.74 415.83 1570.11 415.83 1570.11 425.22 1579.47 425.22 1579.47 415.83 1588.84 415.83 1598.2 415.83 1607.57 415.83 1607.57 406.44 1616.93 406.44 1616.93 397.04 1626.3 397.04 1635.67 397.04 1635.67 387.65 1645.03 387.65 1654.4 387.65 1663.76 387.65 1673.13 387.65 1682.49 387.65 1691.86 387.65 1691.86 397.04 1701.23 397.04 1701.23 406.44 1710.59 406.44 1710.59 415.83 1719.96 415.83 1729.33 415.83 1738.69 415.83 1738.69 406.44 1748.06 406.44 1748.06 397.04 1757.42 397.04 1766.79 397.04 1776.15 397.04 1785.52 397.04 1794.89 397.04 1794.89 406.44 1804.25 406.44 1813.62 406.44 1822.98 406.44 1822.98 397.04 1832.35 397.04 1832.35 387.65 1841.71 387.65 1841.71 378.26 1851.08 378.26 1860.45 378.26 1869.81 378.26 1879.18 378.26 1879.18 387.65 1888.54 387.65 1897.91 387.65 1907.28 387.65 1907.28 378.26 1907.28 368.87 1897.91 368.87"/><polygon class="cls-4" points="315.09 368.87 315.09 359.48 315.09 350.09 305.72 350.09 305.72 340.7 296.36 340.7 296.36 331.3 286.99 331.3 277.63 331.3 277.63 321.91 268.26 321.91 258.89 321.91 249.53 321.91 240.16 321.91 240.16 331.3 230.8 331.3 221.43 331.3 221.43 340.7 212.06 340.7 202.7 340.7 202.7 350.09 193.33 350.09 193.33 359.48 183.97 359.48 183.97 368.87 174.6 368.87 165.24 368.87 165.24 378.26 155.87 378.26 146.5 378.26 146.5 387.65 137.14 387.65 127.77 387.65 127.77 397.04 127.77 406.44 137.14 406.44 146.5 406.44 155.87 406.44 165.24 406.44 165.24 415.83 174.6 415.83 183.97 415.83 193.33 415.83 202.7 415.83 212.06 415.83 212.06 406.44 221.43 406.44 230.8 406.44 240.16 406.44 249.53 406.44 258.89 406.44 258.89 415.83 268.26 415.83 277.63 415.83 286.99 415.83 286.99 406.44 296.36 406.44 296.36 397.04 305.72 397.04 305.72 387.65 315.09 387.65 315.09 378.26 324.45 378.26 333.82 378.26 333.82 368.87 324.45 368.87 315.09 368.87"/><polygon class="cls-5" points="1916.64 406.44 1916.64 397.04 1907.28 397.04 1907.28 387.65 1897.91 387.65 1888.54 387.65 1879.18 387.65 1879.18 378.26 1869.81 378.26 1860.45 378.26 1851.08 378.26 1841.71 378.26 1841.71 387.65 1832.35 387.65 1832.35 397.04 1822.98 397.04 1822.98 406.44 1813.62 406.44 1804.25 406.44 1794.89 406.44 1794.89 397.04 1785.52 397.04 1776.15 397.04 1766.79 397.04 1757.42 397.04 1748.06 397.04 1748.06 406.44 1738.69 406.44 1738.69 415.83 1729.33 415.83 1719.96 415.83 1710.59 415.83 1710.59 406.44 1701.23 406.44 1701.23 397.04 1691.86 397.04 1691.86 387.65 1682.49 387.65 1673.13 387.65 1663.76 387.65 1654.4 387.65 1645.03 387.65 1635.67 387.65 1635.67 397.04 1626.3 397.04 1616.93 397.04 1616.93 406.44 1607.57 406.44 1607.57 415.83 1602.89 415.83 1602.89 406.44 1593.52 406.44 1593.52 397.04 1584.15 397.04 1584.15 387.65 1574.79 387.65 1565.42 387.65 1556.06 387.65 1556.06 378.26 1546.69 378.26 1537.33 378.26 1527.96 378.26 1523.28 378.26 1518.59 378.26 1513.91 378.26 1504.54 378.26 1495.18 378.26 1485.81 378.26 1476.45 378.26 1467.08 378.26 1467.08 387.65 1457.71 387.65 1457.71 397.04 1453.03 397.04 1443.67 397.04 1434.3 397.04 1424.93 397.04 1424.93 406.44 1415.57 406.44 1415.57 415.83 1410.89 415.83 1406.2 415.83 1401.52 415.83 1396.84 415.83 1392.15 415.83 1387.47 415.83 1387.47 406.44 1378.11 406.44 1378.11 397.04 1368.74 397.04 1368.74 387.65 1359.37 387.65 1350.01 387.65 1340.64 387.65 1331.28 387.65 1321.91 387.65 1312.54 387.65 1312.54 397.04 1307.86 397.04 1303.18 397.04 1298.49 397.04 1293.81 397.04 1293.81 406.44 1289.13 406.44 1284.45 406.44 1279.76 406.44 1279.76 415.83 1275.08 415.83 1270.4 415.83 1265.71 415.83 1261.03 415.83 1256.35 415.83 1251.67 415.83 1246.98 415.83 1242.3 415.83 1237.62 415.83 1237.62 406.44 1228.25 406.44 1228.25 397.04 1218.89 397.04 1218.89 387.65 1209.52 387.65 1200.15 387.65 1200.15 378.26 1190.79 378.26 1181.42 378.26 1176.74 378.26 1172.06 378.26 1167.37 378.26 1162.69 378.26 1158.01 378.26 1153.33 378.26 1148.64 378.26 1148.64 368.87 1139.28 368.87 1129.91 368.87 1129.91 378.26 1120.54 378.26 1111.18 378.26 1111.18 387.65 1101.82 387.65 1101.81 387.65 1092.45 387.65 1083.09 387.65 1083.09 378.26 1073.72 378.26 1064.36 378.26 1054.99 378.26 1045.63 378.26 1045.63 387.65 1036.26 387.65 1036.26 397.04 1026.89 397.04 1026.89 406.44 1026.89 406.44 1022.2 406.44 1017.53 406.44 1017.52 406.44 1012.84 406.44 1012.84 397.04 1003.47 397.04 998.8 397.04 994.11 397.04 989.43 397.04 984.74 397.04 980.06 397.04 975.37 397.04 970.7 397.04 961.33 397.04 951.97 397.04 951.97 406.44 951.96 406.44 942.6 406.44 942.59 406.44 933.23 406.44 923.86 406.44 923.86 415.83 919.18 415.83 914.5 415.83 914.5 406.44 905.14 406.44 905.14 397.04 895.77 397.04 895.77 387.65 886.4 387.65 877.04 387.65 867.67 387.65 862.98 387.65 858.31 387.65 853.62 387.65 853.62 378.26 844.25 378.26 834.89 378.26 825.52 378.26 825.52 368.87 816.15 368.87 806.79 368.87 806.79 378.26 797.42 378.26 788.06 378.26 788.06 387.65 778.69 387.65 778.69 397.04 769.33 397.04 769.33 406.44 764.65 406.44 759.96 406.44 755.28 406.44 755.28 397.04 745.92 397.04 745.92 387.65 736.55 387.65 727.19 387.65 727.19 378.26 717.82 378.26 708.45 378.26 699.09 378.26 689.72 378.26 680.36 378.26 670.99 378.26 670.99 387.65 661.63 387.65 661.63 397.04 661.63 406.44 652.26 406.44 652.26 415.83 647.57 415.83 642.89 415.83 638.2 415.83 638.2 406.44 628.84 406.44 619.47 406.44 610.11 406.44 600.74 406.44 600.74 415.83 596.06 415.83 591.37 415.83 586.7 415.83 577.33 415.83 567.97 415.83 558.6 415.83 558.6 406.44 549.24 406.44 539.87 406.44 539.87 397.04 530.5 397.04 521.14 397.04 511.77 397.04 502.4 397.04 502.4 406.44 493.04 406.44 483.67 406.44 483.67 415.83 474.31 415.83 464.94 415.83 455.58 415.83 446.21 415.83 436.84 415.83 427.48 415.83 427.48 406.44 418.11 406.44 408.75 406.44 399.38 406.44 399.38 397.04 390.01 397.04 390.01 387.65 380.65 387.65 380.65 378.26 371.28 378.26 361.92 378.26 352.55 378.26 352.55 368.87 343.19 368.87 333.82 368.87 333.82 378.26 324.45 378.26 315.09 378.26 315.09 387.65 305.72 387.65 305.72 397.04 296.36 397.04 296.36 406.44 286.99 406.44 286.99 415.83 277.63 415.83 268.26 415.83 258.89 415.83 258.89 406.44 249.53 406.44 240.16 406.44 230.8 406.44 221.43 406.44 212.06 406.44 212.06 415.83 202.7 415.83 193.33 415.83 183.97 415.83 174.6 415.83 165.24 415.83 165.24 406.44 155.87 406.44 146.5 406.44 137.14 406.44 127.77 406.44 127.77 415.83 118.41 415.83 118.41 425.22 127.77 425.22 127.77 434.61 137.14 434.61 137.14 444 146.5 444 155.87 444 165.24 444 174.6 444 183.97 444 193.33 444 202.7 444 212.06 444 212.06 434.61 221.43 434.61 230.8 434.61 240.16 434.61 249.53 434.61 258.89 434.61 268.26 434.61 277.63 434.61 286.99 434.61 286.99 444 296.36 444 305.72 444 305.72 453.39 315.09 453.39 324.45 453.39 324.45 462.78 333.82 462.78 333.82 472.17 343.19 472.17 352.55 472.17 361.92 472.17 371.28 472.17 380.65 472.17 390.01 472.17 399.38 472.17 408.75 472.17 408.75 462.78 418.11 462.78 427.48 462.78 436.84 462.78 446.21 462.78 455.58 462.78 464.94 462.78 464.94 453.39 474.31 453.39 483.67 453.39 493.04 453.39 502.4 453.39 511.77 453.39 521.14 453.39 530.5 453.39 539.87 453.39 549.24 453.39 549.24 462.78 558.6 462.78 567.97 462.78 577.33 462.78 586.7 462.78 596.06 462.78 596.06 472.17 605.43 472.17 614.8 472.17 624.16 472.17 633.53 472.17 642.89 472.17 652.26 472.17 661.63 472.17 670.99 472.17 680.36 472.17 689.72 472.17 689.72 462.78 699.09 462.78 708.45 462.78 717.82 462.78 727.19 462.78 736.55 462.78 745.92 462.78 755.28 462.78 764.65 462.78 774.01 462.78 783.38 462.78 792.75 462.78 797.42 462.78 802.11 462.78 806.79 462.78 806.79 472.17 816.15 472.17 825.52 472.17 834.89 472.17 844.25 472.17 853.62 472.17 862.98 472.17 872.35 472.17 881.72 472.17 881.72 462.78 891.08 462.78 900.45 462.78 909.81 462.78 919.18 462.78 923.87 462.78 928.54 462.78 933.24 462.78 937.91 462.78 942.6 462.78 951.97 462.78 951.97 472.17 961.33 472.17 970.7 472.17 980.06 472.17 989.43 472.17 998.8 472.17 1008.16 472.17 1017.53 472.17 1026.89 472.17 1036.26 472.17 1045.63 472.17 1045.63 462.78 1050.3 462.78 1054.99 462.78 1059.67 462.78 1064.36 462.78 1069.03 462.78 1069.03 472.17 1078.4 472.17 1087.76 472.17 1097.13 472.17 1106.5 472.17 1115.86 472.17 1125.23 472.17 1129.91 472.17 1134.59 472.17 1139.28 472.17 1143.96 472.17 1148.64 472.17 1153.33 472.17 1158.01 472.17 1162.69 472.17 1167.37 472.17 1176.74 472.17 1186.11 472.17 1195.47 472.17 1204.84 472.17 1204.84 462.78 1209.52 462.78 1214.2 462.78 1218.89 462.78 1223.57 462.78 1228.25 462.78 1232.93 462.78 1237.62 462.78 1242.3 462.78 1246.98 462.78 1251.67 462.78 1256.35 462.78 1261.03 462.78 1265.71 462.78 1275.08 462.78 1275.08 453.39 1279.76 453.39 1284.45 453.39 1289.13 453.39 1293.81 453.39 1298.49 453.39 1303.18 453.39 1307.86 453.39 1312.54 453.39 1317.23 453.39 1321.91 453.39 1326.59 453.39 1331.28 453.39 1335.96 453.39 1340.64 453.39 1345.33 453.39 1345.33 462.78 1354.69 462.78 1364.06 462.78 1373.42 462.78 1382.79 462.78 1392.15 462.78 1392.15 472.17 1401.52 472.17 1410.89 472.17 1420.25 472.17 1424.93 472.17 1429.62 472.17 1434.3 472.17 1438.98 472.17 1443.67 472.17 1448.35 472.17 1453.03 472.17 1457.71 472.17 1462.4 472.17 1467.08 472.17 1471.76 472.17 1476.45 472.17 1481.13 472.17 1485.81 472.17 1490.5 472.17 1499.86 472.17 1509.23 472.17 1518.59 472.17 1518.59 462.78 1523.28 462.78 1527.96 462.78 1532.64 462.78 1537.33 462.78 1542.01 462.78 1546.69 462.78 1551.37 462.78 1560.74 462.78 1570.11 462.78 1579.47 462.78 1588.84 462.78 1598.2 462.78 1598.2 453.39 1607.57 453.39 1616.93 453.39 1626.3 453.39 1635.67 453.39 1645.03 453.39 1654.4 453.39 1663.76 453.39 1673.13 453.39 1682.49 453.39 1691.86 453.39 1701.23 453.39 1710.59 453.39 1719.96 453.39 1719.96 462.78 1729.33 462.78 1738.69 462.78 1748.06 462.78 1748.06 472.17 1757.42 472.17 1766.79 472.17 1776.15 472.17 1785.52 472.17 1794.89 472.17 1804.25 472.17 1813.62 472.17 1822.98 472.17 1832.35 472.17 1841.71 472.17 1841.71 462.78 1851.08 462.78 1860.45 462.78 1869.81 462.78 1869.81 453.39 1879.18 453.39 1888.54 453.39 1897.91 453.39 1897.91 444 1907.28 444 1916.64 444 1926.01 444 1926.01 434.61 1926.01 425.22 1926.01 415.83 1926.01 406.44 1916.64 406.44"/></g></g></svg>