<svg xmlns="http://www.w3.org/2000/svg" viewBox="0 0 1920 780"><defs><style>.cls-1{fill:#d8d8d8;}.cls-2{opacity:0.86;}.cls-3{fill:#939393;}.cls-4{fill:#898989;}.cls-5{fill:#605f5f;}.cls-6{fill:#a5a5a5;}</style></defs><title>smog_3</title><g id="fond"><rect class="cls-1" x="2.78" width="1917.22" height="780"/></g><g id="nuage1"><g class="cls-2"><polygon class="cls-3" points="1408.59 80.09 1399.23 80.09 1389.86 80.09 1380.5 80.09 1371.13 80.09 1371.13 70.7 1371.13 61.3 1361.76 61.3 1361.76 51.91 1352.4 51.91 1343.03 51.91 1343.03 42.52 1333.67 42.52 1324.3 42.52 1324.3 33.13 1314.93 33.13 1305.57 33.13 1296.2 33.13 1286.84 33.13 1277.47 33.13 1277.47 42.52 1268.11 42.52 1258.74 42.52 1258.74 51.91 1249.37 51.91 1249.37 42.52 1240.01 42.52 1240.01 33.13 1230.64 33.13 1221.28 33.13 1211.91 33.13 1211.91 23.74 1202.54 23.74 1193.18 23.74 1183.81 23.74 1174.45 23.74 1174.45 33.13 1165.08 33.13 1155.71 33.13 1155.71 42.52 1146.35 42.52 1146.35 51.91 1146.35 61.3 1136.98 61.3 1136.98 70.7 1136.98 80.09 1136.98 89.48 1127.62 89.48 1118.25 89.48 1108.89 89.48 1099.52 89.48 1090.15 89.48 1080.79 89.48 1071.42 89.48 1071.42 98.87 1062.06 98.87 1062.06 108.26 1052.69 108.26 1052.69 117.65 1052.69 127.04 1043.33 127.04 1043.33 136.44 1033.96 136.44 1024.59 136.44 1015.23 136.44 1005.86 136.44 996.5 136.44 987.13 136.44 977.76 136.44 968.4 136.44 968.4 145.83 959.03 145.83 959.03 155.22 949.67 155.22 940.3 155.22 940.3 145.83 930.93 145.83 921.57 145.83 921.57 136.44 912.2 136.44 912.2 127.04 902.84 127.04 893.47 127.04 884.11 127.04 884.11 136.44 874.74 136.44 874.74 145.83 865.37 145.83 865.37 136.44 856.01 136.44 846.64 136.44 837.28 136.44 827.91 136.44 818.54 136.44 818.54 145.83 809.18 145.83 799.81 145.83 799.81 155.22 790.45 155.22 790.45 164.61 781.08 164.61 781.08 174 781.08 183.39 781.08 192.78 771.72 192.78 771.72 202.17 762.35 202.17 762.35 192.78 752.98 192.78 752.98 183.39 743.62 183.39 743.62 174 734.25 174 724.89 174 715.52 174 706.15 174 696.79 174 687.42 174 687.42 183.39 678.06 183.39 678.06 192.78 668.69 192.78 659.33 192.78 649.96 192.78 640.59 192.78 640.59 202.17 631.23 202.17 631.23 211.56 631.23 220.96 621.86 220.96 621.86 230.35 612.5 230.35 603.13 230.35 593.76 230.35 584.4 230.35 575.03 230.35 575.03 239.74 565.67 239.74 565.67 249.13 565.67 258.52 565.67 267.91 565.67 277.3 575.03 277.3 575.03 267.91 584.4 267.91 593.76 267.91 593.76 258.52 603.13 258.52 612.5 258.52 612.5 249.13 621.86 249.13 631.23 249.13 631.23 239.74 640.59 239.74 640.59 230.35 649.96 230.35 649.96 220.96 659.33 220.96 668.69 220.96 668.69 211.56 678.06 211.56 687.42 211.56 687.42 202.17 696.79 202.17 706.15 202.17 715.52 202.17 724.89 202.17 724.89 211.56 734.25 211.56 743.62 211.56 743.62 220.96 752.98 220.96 752.98 230.35 762.35 230.35 762.35 239.74 762.35 249.13 771.72 249.13 781.08 249.13 781.08 239.74 790.45 239.74 799.81 239.74 799.81 230.35 809.18 230.35 809.18 220.96 818.54 220.96 827.91 220.96 827.91 211.56 837.28 211.56 837.28 202.17 846.64 202.17 856.01 202.17 865.37 202.17 865.37 192.78 874.74 192.78 884.11 192.78 893.47 192.78 893.47 183.39 902.84 183.39 912.2 183.39 912.2 192.78 921.57 192.78 930.93 192.78 930.93 202.17 940.3 202.17 949.67 202.17 959.03 202.17 959.03 211.56 968.4 211.56 977.76 211.56 977.76 202.17 987.13 202.17 987.13 192.78 996.5 192.78 996.5 183.39 1005.86 183.39 1005.86 174 1015.23 174 1015.23 164.61 1024.59 164.61 1033.96 164.61 1043.33 164.61 1043.33 155.22 1052.69 155.22 1062.06 155.22 1071.42 155.22 1080.79 155.22 1090.15 155.22 1099.52 155.22 1099.52 164.61 1108.89 164.61 1108.89 174 1118.25 174 1118.25 183.39 1127.62 183.39 1136.98 183.39 1136.98 192.78 1146.35 192.78 1146.35 183.39 1146.35 174 1155.71 174 1155.71 164.61 1155.71 155.22 1165.08 155.22 1165.08 145.83 1165.08 136.44 1174.45 136.44 1183.81 136.44 1183.81 127.04 1193.18 127.04 1202.54 127.04 1211.91 127.04 1221.28 127.04 1230.64 127.04 1240.01 127.04 1249.37 127.04 1258.74 127.04 1258.74 136.44 1268.11 136.44 1277.47 136.44 1277.47 145.83 1286.84 145.83 1296.2 145.83 1296.2 155.22 1305.57 155.22 1314.93 155.22 1314.93 164.61 1324.3 164.61 1333.67 164.61 1343.03 164.61 1343.03 155.22 1352.4 155.22 1352.4 145.83 1352.4 136.44 1361.76 136.44 1361.76 127.04 1371.13 127.04 1371.13 117.65 1380.5 117.65 1380.5 108.26 1389.86 108.26 1399.23 108.26 1399.23 98.87 1408.59 98.87 1417.96 98.87 1417.96 89.48 1427.33 89.48 1427.33 80.09 1417.96 80.09 1408.59 80.09"/><rect class="cls-3" x="1511.62" y="136.43" width="9.37" height="9.39"/><polygon class="cls-4" points="762.35 249.13 762.35 239.74 762.35 230.35 752.98 230.35 752.98 220.96 743.62 220.96 743.62 211.56 734.25 211.56 724.89 211.56 724.89 202.17 715.52 202.17 706.15 202.17 696.79 202.17 687.42 202.17 687.42 211.56 678.06 211.56 668.69 211.56 668.69 220.96 659.33 220.96 649.96 220.96 649.96 230.35 640.59 230.35 640.59 239.74 631.23 239.74 631.23 249.13 621.86 249.13 612.5 249.13 612.5 258.52 603.13 258.52 593.76 258.52 593.76 267.91 584.4 267.91 575.03 267.91 575.03 277.3 575.03 286.7 584.4 286.7 593.76 286.7 603.13 286.7 612.5 286.7 612.5 296.09 621.86 296.09 631.23 296.09 640.59 296.09 649.96 296.09 659.33 296.09 659.33 286.7 668.69 286.7 678.06 286.7 687.42 286.7 696.79 286.7 706.15 286.7 706.15 296.09 715.52 296.09 724.89 296.09 734.25 296.09 734.25 286.7 743.62 286.7 743.62 277.3 752.98 277.3 752.98 267.91 762.35 267.91 762.35 258.52 771.72 258.52 781.08 258.52 781.08 249.13 771.72 249.13 762.35 249.13"/><polygon class="cls-4" points="1549.08 249.13 1549.08 239.74 1549.08 230.35 1549.08 220.96 1539.71 220.96 1530.35 220.96 1530.35 211.56 1520.98 211.56 1520.98 202.17 1520.98 192.78 1530.35 192.78 1530.35 183.39 1530.35 174 1530.35 164.61 1520.98 164.61 1520.98 155.22 1520.98 145.83 1511.62 145.83 1511.62 136.44 1502.25 136.44 1492.89 136.44 1483.52 136.44 1474.15 136.44 1474.15 127.04 1464.79 127.04 1464.79 117.65 1464.79 108.26 1455.42 108.26 1455.42 98.87 1446.06 98.87 1446.06 89.48 1436.69 89.48 1427.33 89.48 1417.96 89.48 1417.96 98.87 1408.59 98.87 1399.23 98.87 1399.23 108.26 1389.86 108.26 1380.5 108.26 1380.5 117.65 1371.13 117.65 1371.13 127.04 1361.76 127.04 1361.76 136.44 1352.4 136.44 1352.4 145.83 1352.4 155.22 1343.03 155.22 1343.03 164.61 1333.67 164.61 1324.3 164.61 1314.93 164.61 1314.93 155.22 1305.57 155.22 1296.2 155.22 1296.2 145.83 1286.84 145.83 1277.47 145.83 1277.47 136.44 1268.11 136.44 1258.74 136.44 1258.74 127.04 1249.37 127.04 1240.01 127.04 1230.64 127.04 1221.28 127.04 1211.91 127.04 1202.54 127.04 1193.18 127.04 1183.81 127.04 1183.81 136.44 1174.45 136.44 1165.08 136.44 1165.08 145.83 1165.08 155.22 1155.71 155.22 1155.71 164.61 1155.71 174 1146.35 174 1146.35 183.39 1146.35 192.78 1136.98 192.78 1136.98 183.39 1127.62 183.39 1118.25 183.39 1118.25 174 1108.89 174 1108.89 164.61 1099.52 164.61 1099.52 155.22 1090.15 155.22 1080.79 155.22 1071.42 155.22 1062.06 155.22 1052.69 155.22 1043.33 155.22 1043.33 164.61 1033.96 164.61 1024.59 164.61 1015.23 164.61 1015.23 174 1005.86 174 1005.86 183.39 996.5 183.39 996.5 192.78 987.13 192.78 987.13 202.17 977.76 202.17 977.76 211.56 968.4 211.56 959.03 211.56 959.03 202.17 949.67 202.17 940.3 202.17 930.93 202.17 930.93 192.78 921.57 192.78 912.2 192.78 912.2 183.39 902.84 183.39 893.47 183.39 893.47 192.78 884.11 192.78 874.74 192.78 865.37 192.78 865.37 202.17 856.01 202.17 846.64 202.17 837.28 202.17 837.28 211.56 827.91 211.56 827.91 220.96 818.54 220.96 809.18 220.96 809.18 230.35 799.81 230.35 799.81 239.74 790.45 239.74 781.08 239.74 781.08 249.13 790.45 249.13 799.81 249.13 799.81 258.52 809.18 258.52 818.54 258.52 827.91 258.52 827.91 267.91 837.28 267.91 837.28 277.3 846.64 277.3 846.64 286.7 856.01 286.7 865.37 286.7 874.74 286.7 874.74 296.09 884.11 296.09 893.47 296.09 902.84 296.09 912.2 296.09 921.57 296.09 930.93 296.09 930.93 286.7 940.3 286.7 949.67 286.7 949.67 277.3 959.03 277.3 968.4 277.3 977.76 277.3 987.13 277.3 987.13 286.7 996.5 286.7 1005.86 286.7 1005.86 296.09 1015.23 296.09 1024.59 296.09 1033.96 296.09 1043.33 296.09 1052.69 296.09 1062.06 296.09 1071.42 296.09 1080.79 296.09 1080.79 305.48 1090.15 305.48 1090.15 296.09 1099.52 296.09 1099.52 286.7 1108.89 286.7 1108.89 277.3 1108.89 267.91 1118.25 267.91 1118.25 258.52 1127.62 258.52 1136.98 258.52 1146.35 258.52 1155.71 258.52 1165.08 258.52 1174.45 258.52 1174.45 267.91 1183.81 267.91 1193.18 267.91 1193.18 277.3 1202.54 277.3 1202.54 286.7 1211.91 286.7 1211.91 296.09 1221.28 296.09 1221.28 305.48 1230.64 305.48 1230.64 296.09 1240.01 296.09 1249.37 296.09 1258.74 296.09 1258.74 286.7 1268.11 286.7 1268.11 277.3 1277.47 277.3 1286.84 277.3 1286.84 267.91 1296.2 267.91 1305.57 267.91 1314.93 267.91 1324.3 267.91 1333.67 267.91 1343.03 267.91 1343.03 277.3 1352.4 277.3 1352.4 286.7 1361.76 286.7 1361.76 296.09 1371.13 296.09 1380.5 296.09 1389.86 296.09 1389.86 286.7 1399.23 286.7 1399.23 277.3 1408.59 277.3 1417.96 277.3 1427.33 277.3 1436.69 277.3 1446.06 277.3 1446.06 286.7 1455.42 286.7 1464.79 286.7 1474.15 286.7 1474.15 277.3 1483.52 277.3 1483.52 267.91 1492.89 267.91 1492.89 258.52 1502.25 258.52 1511.62 258.52 1520.98 258.52 1530.35 258.52 1530.35 267.91 1539.71 267.91 1549.08 267.91 1558.45 267.91 1558.45 258.52 1558.45 249.13 1549.08 249.13"/><polygon class="cls-5" points="1567.81 286.7 1567.81 277.3 1558.45 277.3 1558.45 267.91 1549.08 267.91 1539.71 267.91 1530.35 267.91 1530.35 258.52 1520.98 258.52 1511.62 258.52 1502.25 258.52 1492.89 258.52 1492.89 267.91 1483.52 267.91 1483.52 277.3 1474.15 277.3 1474.15 286.7 1464.79 286.7 1455.42 286.7 1446.06 286.7 1446.06 277.3 1436.69 277.3 1427.33 277.3 1417.96 277.3 1408.59 277.3 1399.23 277.3 1399.23 286.7 1389.86 286.7 1389.86 296.09 1380.5 296.09 1371.13 296.09 1361.76 296.09 1361.76 286.7 1352.4 286.7 1352.4 277.3 1343.03 277.3 1343.03 267.91 1333.67 267.91 1324.3 267.91 1314.93 267.91 1305.57 267.91 1296.2 267.91 1286.84 267.91 1286.84 277.3 1277.47 277.3 1268.11 277.3 1268.11 286.7 1258.74 286.7 1258.74 296.09 1249.37 296.09 1240.01 296.09 1230.64 296.09 1230.64 305.48 1221.28 305.48 1221.28 296.09 1211.91 296.09 1211.91 286.7 1202.54 286.7 1202.54 277.3 1193.18 277.3 1193.18 267.91 1183.81 267.91 1174.45 267.91 1174.45 258.52 1165.08 258.52 1155.71 258.52 1146.35 258.52 1136.98 258.52 1127.62 258.52 1118.25 258.52 1118.25 267.91 1108.89 267.91 1108.89 277.3 1108.89 286.7 1099.52 286.7 1099.52 296.09 1090.15 296.09 1090.15 305.48 1080.79 305.48 1080.79 296.09 1071.42 296.09 1062.06 296.09 1052.69 296.09 1043.33 296.09 1033.96 296.09 1024.59 296.09 1015.23 296.09 1005.86 296.09 1005.86 286.7 996.5 286.7 987.13 286.7 987.13 277.3 977.76 277.3 968.4 277.3 959.03 277.3 949.67 277.3 949.67 286.7 940.3 286.7 930.93 286.7 930.93 296.09 921.57 296.09 912.2 296.09 902.84 296.09 893.47 296.09 884.11 296.09 874.74 296.09 874.74 286.7 865.37 286.7 856.01 286.7 846.64 286.7 846.64 277.3 837.28 277.3 837.28 267.91 827.91 267.91 827.91 258.52 818.54 258.52 809.18 258.52 799.81 258.52 799.81 249.13 790.45 249.13 781.08 249.13 781.08 258.52 771.72 258.52 762.35 258.52 762.35 267.91 752.98 267.91 752.98 277.3 743.62 277.3 743.62 286.7 734.25 286.7 734.25 296.09 724.89 296.09 715.52 296.09 706.15 296.09 706.15 286.7 696.79 286.7 687.42 286.7 678.06 286.7 668.69 286.7 659.33 286.7 659.33 296.09 649.96 296.09 640.59 296.09 631.23 296.09 621.86 296.09 612.5 296.09 612.5 286.7 603.13 286.7 593.76 286.7 584.4 286.7 575.03 286.7 575.03 296.09 565.67 296.09 565.67 305.48 575.03 305.48 575.03 314.87 584.4 314.87 584.4 324.26 593.76 324.26 603.13 324.26 612.5 324.26 621.86 324.26 631.23 324.26 640.59 324.26 649.96 324.26 659.33 324.26 659.33 314.87 668.69 314.87 678.06 314.87 687.42 314.87 696.79 314.87 706.15 314.87 715.52 314.87 724.89 314.87 734.25 314.87 734.25 324.26 743.62 324.26 752.98 324.26 752.98 333.65 762.35 333.65 771.72 333.65 771.72 343.04 781.08 343.04 781.08 352.44 790.45 352.44 799.81 352.44 809.18 352.44 818.54 352.44 827.91 352.44 837.28 352.44 846.64 352.44 856.01 352.44 856.01 343.04 865.37 343.04 874.74 343.04 884.11 343.04 893.47 343.04 902.84 343.04 912.2 343.04 912.2 333.65 921.57 333.65 930.93 333.65 940.3 333.65 949.67 333.65 959.03 333.65 968.4 333.65 977.76 333.65 987.13 333.65 996.5 333.65 996.5 343.04 1005.86 343.04 1015.23 343.04 1024.59 343.04 1033.96 343.04 1043.33 343.04 1043.33 352.44 1052.69 352.44 1062.06 352.44 1071.42 352.44 1080.79 352.44 1090.15 352.44 1099.52 352.44 1108.89 352.44 1118.25 352.44 1127.62 352.44 1136.98 352.44 1136.98 343.04 1146.35 343.04 1155.71 343.04 1165.08 343.04 1174.45 343.04 1183.81 343.04 1193.18 343.04 1202.54 343.04 1211.91 343.04 1221.28 343.04 1230.64 343.04 1240.01 343.04 1249.37 343.04 1249.37 333.65 1258.74 333.65 1268.11 333.65 1277.47 333.65 1286.84 333.65 1296.2 333.65 1305.57 333.65 1314.93 333.65 1324.3 333.65 1333.67 333.65 1343.03 333.65 1352.4 333.65 1361.76 333.65 1371.13 333.65 1371.13 343.04 1380.5 343.04 1389.86 343.04 1399.23 343.04 1399.23 352.44 1408.59 352.44 1417.96 352.44 1427.33 352.44 1436.69 352.44 1446.06 352.44 1455.42 352.44 1464.79 352.44 1474.15 352.44 1483.52 352.44 1492.89 352.44 1492.89 343.04 1502.25 343.04 1511.62 343.04 1520.98 343.04 1520.98 333.65 1530.35 333.65 1539.71 333.65 1549.08 333.65 1549.08 324.26 1558.45 324.26 1567.81 324.26 1577.18 324.26 1577.18 314.87 1577.18 305.48 1577.18 296.09 1577.18 286.7 1567.81 286.7"/></g></g><g id="nuage2"><g class="cls-2"><polygon class="cls-6" points="372.16 176.7 372.16 167.3 372.16 157.91 362.8 157.91 353.43 157.91 344.06 157.91 344.06 148.52 344.06 139.13 334.7 139.13 334.7 129.74 325.33 129.74 325.33 120.35 315.97 120.35 306.6 120.35 306.6 110.96 297.24 110.96 287.87 110.96 278.5 110.96 269.14 110.96 269.14 101.56 259.77 101.56 259.77 92.17 250.41 92.17 241.04 92.17 231.67 92.17 222.31 92.17 212.94 92.17 212.94 82.78 203.58 82.78 203.58 73.39 194.21 73.39 184.84 73.39 175.48 73.39 175.48 64 166.11 64 156.75 64 156.75 73.39 147.38 73.39 138.01 73.39 138.01 82.78 128.65 82.78 119.28 82.78 109.92 82.78 100.55 82.78 91.19 82.78 81.82 82.78 72.45 82.78 63.09 82.78 63.09 92.17 53.72 92.17 44.36 92.17 44.36 101.56 44.36 110.96 44.36 120.35 34.99 120.35 34.99 129.74 25.63 129.74 25.63 139.13 16.26 139.13 16.26 148.52 16.26 157.91 16.26 167.3 6.89 167.3 6.89 176.7 6.89 186.09 16.26 186.09 16.26 176.7 25.63 176.7 25.63 167.3 34.99 167.3 34.99 157.91 44.36 157.91 44.36 148.52 53.72 148.52 53.72 139.13 63.09 139.13 72.45 139.13 81.82 139.13 91.19 139.13 100.55 139.13 100.55 148.52 109.92 148.52 109.92 157.91 119.28 157.91 128.65 157.91 128.65 148.52 138.01 148.52 138.01 139.13 147.38 139.13 147.38 129.74 156.75 129.74 156.75 120.35 166.11 120.35 166.11 110.96 175.48 110.96 175.48 101.56 184.84 101.56 194.21 101.56 203.58 101.56 212.94 101.56 212.94 110.96 222.31 110.96 231.67 110.96 231.67 120.35 241.04 120.35 250.41 120.35 250.41 129.74 250.41 139.13 250.41 148.52 250.41 157.91 259.77 157.91 269.14 157.91 278.5 157.91 278.5 148.52 287.87 148.52 287.87 139.13 297.24 139.13 306.6 139.13 315.97 139.13 315.97 148.52 315.97 157.91 325.33 157.91 325.33 167.3 334.7 167.3 344.06 167.3 353.43 167.3 353.43 176.7 362.8 176.7 362.8 186.09 372.16 186.09 372.16 195.48 381.53 195.48 381.53 186.09 381.53 176.7 372.16 176.7"/><polygon class="cls-4" points="231.67 120.35 231.67 110.96 222.31 110.96 212.94 110.96 212.94 101.56 203.58 101.56 194.21 101.56 184.84 101.56 175.48 101.56 175.48 110.96 166.11 110.96 166.11 120.35 156.75 120.35 156.75 129.74 147.38 129.74 147.38 139.13 138.01 139.13 138.01 148.52 128.65 148.52 128.65 157.91 119.28 157.91 109.92 157.91 109.92 148.52 100.55 148.52 100.55 139.13 91.19 139.13 81.82 139.13 72.45 139.13 63.09 139.13 53.72 139.13 53.72 148.52 44.36 148.52 44.36 157.91 34.99 157.91 34.99 167.3 25.63 167.3 25.63 176.7 16.26 176.7 16.26 186.09 6.89 186.09 6.89 195.48 16.26 195.48 16.26 204.87 25.63 204.87 25.63 214.26 34.99 214.26 44.36 214.26 53.72 214.26 53.72 204.87 63.09 204.87 72.45 204.87 72.45 195.48 81.82 195.48 91.19 195.48 100.55 195.48 109.92 195.48 109.92 204.87 119.28 204.87 119.28 195.48 119.28 186.09 128.65 186.09 128.65 176.7 138.01 176.7 147.38 176.7 156.75 176.7 166.11 176.7 166.11 186.09 175.48 186.09 184.84 186.09 184.84 195.48 194.21 195.48 203.58 195.48 212.94 195.48 212.94 186.09 222.31 186.09 222.31 176.7 231.67 176.7 231.67 167.3 241.04 167.3 250.41 167.3 250.41 157.91 250.41 148.52 250.41 139.13 250.41 129.74 250.41 120.35 241.04 120.35 231.67 120.35"/><polygon class="cls-4" points="315.97 157.91 315.97 148.52 315.97 139.13 306.6 139.13 297.24 139.13 287.87 139.13 287.87 148.52 278.5 148.52 278.5 157.91 278.5 167.3 287.87 167.3 287.87 176.7 297.24 176.7 297.24 186.09 306.6 186.09 306.6 195.48 315.97 195.48 315.97 186.09 315.97 176.7 325.33 176.7 325.33 167.3 325.33 157.91 315.97 157.91"/><polygon class="cls-5" points="372.16 195.48 372.16 186.09 362.8 186.09 362.8 176.7 353.43 176.7 353.43 167.3 344.06 167.3 334.7 167.3 325.33 167.3 325.33 176.7 315.97 176.7 315.97 186.09 315.97 195.48 306.6 195.48 306.6 186.09 297.24 186.09 297.24 176.7 287.87 176.7 287.87 167.3 278.5 167.3 278.5 157.91 269.14 157.91 259.77 157.91 250.41 157.91 250.41 167.3 241.04 167.3 231.67 167.3 231.67 176.7 222.31 176.7 222.31 186.09 212.94 186.09 212.94 195.48 203.58 195.48 194.21 195.48 184.84 195.48 184.84 186.09 175.48 186.09 166.11 186.09 166.11 176.7 156.75 176.7 147.38 176.7 138.01 176.7 128.65 176.7 128.65 186.09 119.28 186.09 119.28 195.48 119.28 204.87 109.92 204.87 109.92 195.48 100.55 195.48 91.19 195.48 81.82 195.48 72.45 195.48 72.45 204.87 63.09 204.87 53.72 204.87 53.72 214.26 44.36 214.26 34.99 214.26 25.63 214.26 25.63 204.87 16.26 204.87 16.26 214.26 16.26 223.65 25.63 223.65 25.63 233.04 34.99 233.04 34.99 242.44 44.36 242.44 53.72 242.44 63.09 242.44 72.45 242.44 81.82 242.44 91.19 242.44 91.19 251.83 100.55 251.83 109.92 251.83 119.28 251.83 128.65 251.83 138.01 251.83 138.01 242.44 147.38 242.44 156.75 242.44 166.11 242.44 175.48 242.44 175.48 233.04 184.84 233.04 184.84 242.44 194.21 242.44 203.58 242.44 212.94 242.44 222.31 242.44 222.31 251.83 231.67 251.83 241.04 251.83 250.41 251.83 259.77 251.83 269.14 251.83 278.5 251.83 287.87 251.83 287.87 242.44 297.24 242.44 306.6 242.44 315.97 242.44 325.33 242.44 334.7 242.44 344.06 242.44 353.43 242.44 362.8 242.44 362.8 233.04 372.16 233.04 372.16 223.65 381.53 223.65 381.53 214.26 381.53 204.87 381.53 195.48 372.16 195.48"/></g></g><g id="nuage3"><g class="cls-2"><rect class="cls-6" x="247.86" y="465.13" width="9.37" height="9.39"/><polygon class="cls-6" points="229.13 474.52 219.76 474.52 210.4 474.52 201.03 474.52 191.67 474.52 182.3 474.52 182.3 483.91 172.94 483.91 163.57 483.91 163.57 493.3 154.2 493.3 154.2 502.7 144.84 502.7 135.47 502.7 126.11 502.7 126.11 512.09 116.74 512.09 107.37 512.09 98.01 512.09 98.01 521.48 88.64 521.48 88.64 530.87 79.28 530.87 79.28 540.26 79.28 549.65 79.28 559.04 79.28 568.43 69.91 568.43 69.91 577.83 60.54 577.83 51.18 577.83 41.81 577.83 41.81 587.22 32.45 587.22 23.08 587.22 13.71 587.22 13.71 596.61 4.35 596.61 -5.02 596.61 -14.38 596.61 -23.75 596.61 -23.75 606 -14.38 606 -5.02 606 4.35 606 13.71 606 23.08 606 32.45 606 41.81 606 51.18 606 60.54 606 69.91 606 79.28 606 79.28 596.61 88.64 596.61 88.64 587.22 98.01 587.22 98.01 577.83 98.01 568.43 107.37 568.43 107.37 559.04 107.37 549.65 116.74 549.65 116.74 540.26 126.11 540.26 135.47 540.26 144.84 540.26 154.2 540.26 163.57 540.26 163.57 549.65 172.94 549.65 182.3 549.65 191.67 549.65 191.67 559.04 201.03 559.04 210.4 559.04 219.76 559.04 219.76 549.65 219.76 540.26 219.76 530.87 229.13 530.87 229.13 521.48 229.13 512.09 229.13 502.7 229.13 493.3 238.5 493.3 238.5 483.91 247.86 483.91 247.86 474.52 238.5 474.52 229.13 474.52"/><polygon class="cls-6" points="1371.76 624.78 1362.4 624.78 1362.4 615.39 1353.03 615.39 1343.67 615.39 1343.67 606 1334.3 606 1324.93 606 1315.57 606 1306.2 606 1306.2 596.61 1296.84 596.61 1287.47 596.61 1278.11 596.61 1278.11 587.22 1268.74 587.22 1268.74 577.83 1259.37 577.83 1259.37 568.43 1250.01 568.43 1240.64 568.43 1231.28 568.43 1221.91 568.43 1221.91 577.83 1212.54 577.83 1212.54 568.43 1212.54 559.04 1203.18 559.04 1203.18 549.65 1203.18 540.26 1193.81 540.26 1184.45 540.26 1184.45 530.87 1175.08 530.87 1175.08 521.48 1175.08 512.09 1165.71 512.09 1156.35 512.09 1146.98 512.09 1137.62 512.09 1128.25 512.09 1128.25 502.7 1118.89 502.7 1109.52 502.7 1100.15 502.7 1090.79 502.7 1081.42 502.7 1072.06 502.7 1072.06 512.09 1062.69 512.09 1053.33 512.09 1043.96 512.09 1034.59 512.09 1025.23 512.09 1025.23 521.48 1015.86 521.48 1006.5 521.48 1006.5 512.09 997.13 512.09 997.13 502.7 987.76 502.7 978.4 502.7 969.03 502.7 969.03 493.3 959.67 493.3 950.3 493.3 940.93 493.3 931.57 493.3 922.2 493.3 912.84 493.3 912.84 483.91 912.84 474.52 912.84 465.13 903.47 465.13 903.47 455.74 894.11 455.74 884.74 455.74 884.74 446.35 875.37 446.35 866.01 446.35 866.01 436.96 856.64 436.96 847.28 436.96 837.91 436.96 828.54 436.96 828.54 427.56 819.18 427.56 819.18 418.17 809.81 418.17 800.45 418.17 791.08 418.17 791.08 408.78 781.72 408.78 772.35 408.78 762.98 408.78 753.62 408.78 744.25 408.78 744.25 399.39 734.89 399.39 734.89 390 725.52 390 725.52 380.61 716.15 380.61 716.15 371.22 706.79 371.22 697.42 371.22 697.42 361.83 688.06 361.83 678.69 361.83 669.33 361.83 659.96 361.83 650.59 361.83 641.23 361.83 641.23 371.22 631.86 371.22 622.5 371.22 613.13 371.22 613.13 380.61 603.76 380.61 603.76 371.22 594.4 371.22 594.4 361.83 585.03 361.83 585.03 352.44 575.67 352.44 566.3 352.44 556.93 352.44 547.57 352.44 538.2 352.44 528.84 352.44 519.47 352.44 510.11 352.44 500.74 352.44 491.37 352.44 482.01 352.44 482.01 361.83 472.64 361.83 463.28 361.83 453.91 361.83 453.91 371.22 444.54 371.22 444.54 380.61 435.18 380.61 435.18 390 425.81 390 425.81 399.39 416.45 399.39 416.45 408.78 407.08 408.78 397.71 408.78 388.35 408.78 388.35 418.17 378.98 418.17 369.62 418.17 360.25 418.17 350.89 418.17 350.89 408.78 341.52 408.78 332.15 408.78 322.79 408.78 313.42 408.78 304.06 408.78 304.06 418.17 294.69 418.17 285.32 418.17 275.96 418.17 266.59 418.17 266.59 427.56 266.59 436.96 257.23 436.96 257.23 446.35 257.23 455.74 257.23 465.13 266.59 465.13 266.59 455.74 275.96 455.74 285.32 455.74 294.69 455.74 304.06 455.74 313.42 455.74 322.79 455.74 332.15 455.74 341.52 455.74 350.89 455.74 360.25 455.74 369.62 455.74 378.98 455.74 378.98 465.13 388.35 465.13 397.71 465.13 407.08 465.13 407.08 474.52 416.45 474.52 425.81 474.52 425.81 483.91 435.18 483.91 435.18 474.52 435.18 465.13 444.54 465.13 444.54 455.74 444.54 446.35 453.91 446.35 453.91 436.96 463.28 436.96 463.28 427.56 472.64 427.56 472.64 418.17 482.01 418.17 491.37 418.17 491.37 408.78 500.74 408.78 510.11 408.78 510.11 399.39 519.47 399.39 528.84 399.39 538.2 399.39 547.57 399.39 547.57 408.78 556.93 408.78 566.3 408.78 575.67 408.78 585.03 408.78 594.4 408.78 603.76 408.78 603.76 418.17 613.13 418.17 613.13 427.56 622.5 427.56 622.5 436.96 631.86 436.96 631.86 446.35 631.86 455.74 641.23 455.74 641.23 465.13 650.59 465.13 650.59 474.52 659.96 474.52 659.96 483.91 659.96 493.3 669.33 493.3 678.69 493.3 688.06 493.3 688.06 483.91 697.42 483.91 706.79 483.91 706.79 474.52 716.15 474.52 725.52 474.52 734.89 474.52 734.89 465.13 744.25 465.13 753.62 465.13 762.98 465.13 772.35 465.13 781.72 465.13 781.72 474.52 791.08 474.52 800.45 474.52 809.81 474.52 809.81 483.91 819.18 483.91 819.18 493.3 828.54 493.3 837.91 493.3 837.91 502.7 847.28 502.7 847.28 512.09 856.64 512.09 856.64 521.48 856.64 530.87 856.64 540.26 866.01 540.26 866.01 549.65 875.37 549.65 884.74 549.65 894.11 549.65 894.11 559.04 903.47 559.04 912.84 559.04 922.2 559.04 931.57 559.04 931.57 549.65 940.93 549.65 950.3 549.65 959.67 549.65 969.03 549.65 969.03 559.04 978.4 559.04 987.76 559.04 997.13 559.04 997.13 568.43 1006.5 568.43 1015.86 568.43 1015.86 559.04 1025.23 559.04 1025.23 549.65 1034.59 549.65 1034.59 540.26 1043.96 540.26 1043.96 530.87 1053.33 530.87 1062.69 530.87 1072.06 530.87 1081.42 530.87 1090.79 530.87 1090.79 540.26 1100.15 540.26 1109.52 540.26 1109.52 549.65 1118.89 549.65 1128.25 549.65 1128.25 559.04 1137.62 559.04 1146.98 559.04 1146.98 568.43 1146.98 577.83 1156.35 577.83 1156.35 587.22 1165.71 587.22 1165.71 596.61 1175.08 596.61 1175.08 606 1184.45 606 1193.81 606 1203.18 606 1212.54 606 1221.91 606 1231.28 606 1231.28 596.61 1240.64 596.61 1250.01 596.61 1259.37 596.61 1259.37 606 1268.74 606 1278.11 606 1287.47 606 1287.47 615.39 1296.84 615.39 1306.2 615.39 1306.2 624.78 1315.57 624.78 1315.57 634.17 1324.93 634.17 1334.3 634.17 1343.67 634.17 1353.03 634.17 1362.4 634.17 1371.76 634.17 1381.13 634.17 1390.49 634.17 1390.49 624.78 1381.13 624.78 1371.76 624.78"/><polygon class="cls-6" points="1437.33 643.57 1437.33 652.96 1446.69 652.96 1456.06 652.96 1456.06 643.57 1446.69 643.57 1437.33 643.57"/><polygon class="cls-6" points="1559.08 643.57 1549.71 643.57 1540.35 643.57 1530.98 643.57 1521.62 643.57 1512.25 643.57 1512.25 652.96 1521.62 652.96 1530.98 652.96 1540.35 652.96 1549.71 652.96 1559.08 652.96 1568.45 652.96 1568.45 643.57 1559.08 643.57"/><polygon class="cls-6" points="1493.52 652.96 1484.15 652.96 1474.79 652.96 1465.42 652.96 1465.42 662.35 1474.79 662.35 1484.15 662.35 1493.52 662.35 1502.89 662.35 1512.25 662.35 1512.25 652.96 1502.89 652.96 1493.52 652.96"/><polygon class="cls-6" points="1568.45 652.96 1568.45 662.35 1577.81 662.35 1587.18 662.35 1587.18 652.96 1577.81 652.96 1568.45 652.96"/><polygon class="cls-6" points="1680.84 662.35 1671.47 662.35 1662.11 662.35 1662.11 652.96 1652.74 652.96 1643.37 652.96 1634.01 652.96 1624.64 652.96 1615.28 652.96 1615.28 662.35 1624.64 662.35 1634.01 662.35 1634.01 671.74 1643.37 671.74 1643.37 681.13 1652.74 681.13 1662.11 681.13 1671.47 681.13 1680.84 681.13 1690.2 681.13 1690.2 671.74 1690.2 662.35 1680.84 662.35"/><polygon class="cls-4" points="894.11 549.65 884.74 549.65 875.37 549.65 866.01 549.65 866.01 540.26 856.64 540.26 856.64 530.87 856.64 521.48 856.64 512.09 847.28 512.09 847.28 502.7 837.91 502.7 837.91 493.3 828.54 493.3 819.18 493.3 819.18 483.91 809.81 483.91 809.81 474.52 800.45 474.52 791.08 474.52 781.72 474.52 781.72 465.13 772.35 465.13 762.98 465.13 753.62 465.13 744.25 465.13 734.89 465.13 734.89 474.52 725.52 474.52 716.15 474.52 706.79 474.52 706.79 483.91 697.42 483.91 688.06 483.91 688.06 493.3 678.69 493.3 669.33 493.3 659.96 493.3 659.96 483.91 659.96 474.52 650.59 474.52 650.59 465.13 641.23 465.13 641.23 455.74 631.86 455.74 631.86 446.35 631.86 436.96 622.5 436.96 622.5 427.56 613.13 427.56 613.13 418.17 603.76 418.17 603.76 408.78 594.4 408.78 585.03 408.78 575.67 408.78 566.3 408.78 556.93 408.78 547.57 408.78 547.57 399.39 538.2 399.39 528.84 399.39 519.47 399.39 510.11 399.39 510.11 408.78 500.74 408.78 491.37 408.78 491.37 418.17 482.01 418.17 472.64 418.17 472.64 427.56 463.28 427.56 463.28 436.96 453.91 436.96 453.91 446.35 444.54 446.35 444.54 455.74 444.54 465.13 435.18 465.13 435.18 474.52 435.18 483.91 425.81 483.91 425.81 474.52 416.45 474.52 407.08 474.52 407.08 465.13 397.71 465.13 388.35 465.13 378.98 465.13 378.98 455.74 369.62 455.74 360.25 455.74 350.89 455.74 341.52 455.74 332.15 455.74 322.79 455.74 313.42 455.74 304.06 455.74 294.69 455.74 285.32 455.74 275.96 455.74 266.59 455.74 266.59 465.13 257.23 465.13 257.23 474.52 247.86 474.52 247.86 483.91 238.5 483.91 238.5 493.3 229.13 493.3 229.13 502.7 229.13 512.09 229.13 521.48 229.13 530.87 219.76 530.87 219.76 540.26 219.76 549.65 219.76 559.04 210.4 559.04 201.03 559.04 191.67 559.04 191.67 549.65 182.3 549.65 172.94 549.65 163.57 549.65 163.57 540.26 154.2 540.26 144.84 540.26 135.47 540.26 126.11 540.26 116.74 540.26 116.74 549.65 107.37 549.65 107.37 559.04 107.37 568.43 98.01 568.43 98.01 577.83 98.01 587.22 88.64 587.22 88.64 596.61 79.28 596.61 79.28 606 69.91 606 60.54 606 51.18 606 41.81 606 32.45 606 23.08 606 13.71 606 4.35 606 -5.02 606 -14.38 606 -23.75 606 -23.75 615.39 -33.11 615.39 -33.11 624.78 -42.48 624.78 -42.48 634.17 -51.85 634.17 -61.21 634.17 -61.21 643.57 -70.58 643.57 -79.94 643.57 -79.94 652.96 -89.31 652.96 -89.31 662.35 -98.67 662.35 -98.67 671.74 -98.67 681.13 -89.31 681.13 -89.31 671.74 -79.94 671.74 -70.58 671.74 -70.58 662.35 -61.21 662.35 -51.85 662.35 -51.85 652.96 -42.48 652.96 -33.11 652.96 -23.75 652.96 -14.38 652.96 -5.02 652.96 4.35 652.96 13.71 652.96 23.08 652.96 32.45 652.96 32.45 643.57 41.81 643.57 51.18 643.57 60.54 643.57 60.54 634.17 69.91 634.17 69.91 624.78 79.28 624.78 88.64 624.78 88.64 615.39 98.01 615.39 98.01 606 107.37 606 116.74 606 116.74 596.61 126.11 596.61 126.11 587.22 135.47 587.22 144.84 587.22 154.2 587.22 163.57 587.22 163.57 577.83 172.94 577.83 182.3 577.83 191.67 577.83 201.03 577.83 210.4 577.83 219.76 577.83 219.76 587.22 229.13 587.22 238.5 587.22 247.86 587.22 257.23 587.22 257.23 596.61 266.59 596.61 275.96 596.61 285.32 596.61 285.32 606 294.69 606 294.69 596.61 304.06 596.61 304.06 587.22 313.42 587.22 313.42 577.83 313.42 568.43 322.79 568.43 322.79 559.04 322.79 549.65 332.15 549.65 332.15 540.26 341.52 540.26 341.52 530.87 350.89 530.87 350.89 521.48 360.25 521.48 369.62 521.48 378.98 521.48 388.35 521.48 397.71 521.48 407.08 521.48 416.45 521.48 425.81 521.48 435.18 521.48 444.54 521.48 444.54 530.87 453.91 530.87 453.91 540.26 463.28 540.26 472.64 540.26 472.64 549.65 482.01 549.65 491.37 549.65 491.37 559.04 500.74 559.04 500.74 549.65 510.11 549.65 519.47 549.65 519.47 540.26 528.84 540.26 538.2 540.26 547.57 540.26 556.93 540.26 566.3 540.26 566.3 549.65 575.67 549.65 585.03 549.65 585.03 559.04 585.03 568.43 594.4 568.43 603.76 568.43 613.13 568.43 613.13 559.04 622.5 559.04 622.5 549.65 631.86 549.65 641.23 549.65 650.59 549.65 659.96 549.65 669.33 549.65 669.33 559.04 678.69 559.04 688.06 559.04 697.42 559.04 697.42 568.43 706.79 568.43 716.15 568.43 716.15 577.83 725.52 577.83 725.52 587.22 725.52 596.61 734.89 596.61 734.89 606 734.89 615.39 744.25 615.39 744.25 606 753.62 606 762.98 606 762.98 596.61 772.35 596.61 781.72 596.61 791.08 596.61 791.08 587.22 800.45 587.22 809.81 587.22 819.18 587.22 819.18 577.83 828.54 577.83 837.91 577.83 847.28 577.83 847.28 568.43 856.64 568.43 866.01 568.43 866.01 577.83 866.01 587.22 875.37 587.22 884.74 587.22 884.74 577.83 894.11 577.83 894.11 568.43 903.47 568.43 903.47 559.04 894.11 559.04 894.11 549.65"/><polygon class="cls-4" points="1146.98 559.04 1137.62 559.04 1128.25 559.04 1128.25 549.65 1118.89 549.65 1109.52 549.65 1109.52 540.26 1100.15 540.26 1090.79 540.26 1090.79 530.87 1081.42 530.87 1072.06 530.87 1062.69 530.87 1053.33 530.87 1043.96 530.87 1043.96 540.26 1034.59 540.26 1034.59 549.65 1025.23 549.65 1025.23 559.04 1015.86 559.04 1015.86 568.43 1006.5 568.43 997.13 568.43 997.13 559.04 987.76 559.04 978.4 559.04 969.03 559.04 969.03 549.65 959.67 549.65 950.3 549.65 940.93 549.65 931.57 549.65 931.57 559.04 940.93 559.04 950.3 559.04 950.3 568.43 959.67 568.43 959.67 577.83 969.03 577.83 969.03 587.22 978.4 587.22 978.4 596.61 978.4 606 987.76 606 987.76 615.39 997.13 615.39 997.13 624.78 1006.5 624.78 1006.5 634.17 1015.86 634.17 1025.23 634.17 1034.59 634.17 1034.59 624.78 1043.96 624.78 1053.33 624.78 1053.33 615.39 1062.69 615.39 1072.06 615.39 1072.06 606 1081.42 606 1081.42 596.61 1090.79 596.61 1100.15 596.61 1100.15 587.22 1109.52 587.22 1109.52 577.83 1118.89 577.83 1128.25 577.83 1137.62 577.83 1146.98 577.83 1146.98 568.43 1146.98 559.04"/><rect class="cls-4" x="1146.98" y="577.83" width="9.37" height="9.39"/><rect class="cls-4" x="1165.72" y="596.61" width="9.37" height="9.39"/><polygon class="cls-4" points="1306.2 615.39 1296.84 615.39 1287.47 615.39 1287.47 606 1278.11 606 1268.74 606 1259.37 606 1259.37 596.61 1250.01 596.61 1240.64 596.61 1231.28 596.61 1231.28 606 1221.91 606 1212.54 606 1203.18 606 1193.81 606 1184.45 606 1175.08 606 1175.08 615.39 1184.45 615.39 1184.45 624.78 1193.81 624.78 1203.18 624.78 1212.54 624.78 1221.91 624.78 1221.91 615.39 1231.28 615.39 1240.64 615.39 1250.01 615.39 1259.37 615.39 1268.74 615.39 1278.11 615.39 1278.11 624.78 1287.47 624.78 1296.84 624.78 1296.84 634.17 1296.84 643.57 1306.2 643.57 1315.57 643.57 1315.57 634.17 1315.57 624.78 1306.2 624.78 1306.2 615.39"/><rect class="cls-4" x="1418.59" y="634.17" width="9.37" height="9.39"/><rect class="cls-4" x="1427.96" y="643.57" width="9.37" height="9.39"/><polygon class="cls-4" points="1549.71 652.96 1540.35 652.96 1530.98 652.96 1521.62 652.96 1512.25 652.96 1512.25 662.35 1502.89 662.35 1493.52 662.35 1484.15 662.35 1474.79 662.35 1465.42 662.35 1465.42 652.96 1456.06 652.96 1446.69 652.96 1437.33 652.96 1437.33 662.35 1446.69 662.35 1446.69 671.74 1456.06 671.74 1465.42 671.74 1474.79 671.74 1484.15 671.74 1484.15 681.13 1493.52 681.13 1493.52 671.74 1502.89 671.74 1512.25 671.74 1521.62 671.74 1530.98 671.74 1530.98 662.35 1540.35 662.35 1549.71 662.35 1559.08 662.35 1568.45 662.35 1568.45 652.96 1559.08 652.96 1549.71 652.96"/><polygon class="cls-4" points="1643.37 681.13 1643.37 671.74 1634.01 671.74 1634.01 662.35 1624.64 662.35 1615.28 662.35 1605.91 662.35 1596.54 662.35 1587.18 662.35 1577.81 662.35 1577.81 671.74 1587.18 671.74 1596.54 671.74 1605.91 671.74 1615.28 671.74 1624.64 671.74 1624.64 681.13 1634.01 681.13 1634.01 690.52 1643.37 690.52 1652.74 690.52 1652.74 681.13 1643.37 681.13"/><polygon class="cls-5" points="1624.64 681.13 1624.64 671.74 1615.28 671.74 1605.91 671.74 1596.54 671.74 1587.18 671.74 1577.81 671.74 1577.81 662.35 1568.45 662.35 1559.08 662.35 1549.71 662.35 1540.35 662.35 1530.98 662.35 1530.98 671.74 1521.62 671.74 1512.25 671.74 1502.89 671.74 1493.52 671.74 1493.52 681.13 1484.15 681.13 1484.15 671.74 1474.79 671.74 1465.42 671.74 1456.06 671.74 1446.69 671.74 1446.69 662.35 1437.33 662.35 1437.33 652.96 1427.96 652.96 1427.96 643.57 1418.59 643.57 1418.59 634.17 1409.23 634.17 1399.86 634.17 1390.49 634.17 1381.13 634.17 1371.76 634.17 1362.4 634.17 1353.03 634.17 1343.67 634.17 1334.3 634.17 1324.93 634.17 1315.57 634.17 1315.57 643.57 1306.2 643.57 1296.84 643.57 1296.84 634.17 1296.84 624.78 1287.47 624.78 1278.11 624.78 1278.11 615.39 1268.74 615.39 1259.37 615.39 1250.01 615.39 1240.64 615.39 1231.28 615.39 1221.91 615.39 1221.91 624.78 1212.54 624.78 1203.18 624.78 1193.81 624.78 1184.45 624.78 1184.45 615.39 1175.08 615.39 1175.08 606 1165.71 606 1165.71 596.61 1165.71 587.22 1156.35 587.22 1146.98 587.22 1146.98 577.83 1137.62 577.83 1128.25 577.83 1118.89 577.83 1109.52 577.83 1109.52 587.22 1100.15 587.22 1100.15 596.61 1090.79 596.61 1081.42 596.61 1081.42 606 1072.06 606 1072.06 615.39 1062.69 615.39 1053.33 615.39 1053.33 624.78 1043.96 624.78 1034.59 624.78 1034.59 634.17 1025.23 634.17 1015.86 634.17 1006.5 634.17 1006.5 624.78 997.13 624.78 997.13 615.39 987.76 615.39 987.76 606 978.4 606 978.4 596.61 978.4 587.22 969.03 587.22 969.03 577.83 959.67 577.83 959.67 568.43 950.3 568.43 950.3 559.04 940.93 559.04 931.57 559.04 922.2 559.04 912.84 559.04 903.47 559.04 903.47 568.43 894.11 568.43 894.11 577.83 884.74 577.83 884.74 587.22 875.37 587.22 866.01 587.22 866.01 577.83 866.01 568.43 856.64 568.43 847.28 568.43 847.28 577.83 837.91 577.83 828.54 577.83 819.18 577.83 819.18 587.22 809.81 587.22 800.45 587.22 791.08 587.22 791.08 596.61 781.72 596.61 772.35 596.61 762.98 596.61 762.98 606 753.62 606 744.25 606 744.25 615.39 734.89 615.39 734.89 606 734.89 596.61 725.52 596.61 725.52 587.22 725.52 577.83 716.15 577.83 716.15 568.43 706.79 568.43 697.42 568.43 697.42 559.04 688.06 559.04 678.69 559.04 669.33 559.04 669.33 549.65 659.96 549.65 650.59 549.65 641.23 549.65 631.86 549.65 622.5 549.65 622.5 559.04 613.13 559.04 613.13 568.43 603.76 568.43 594.4 568.43 585.03 568.43 585.03 559.04 585.03 549.65 575.67 549.65 566.3 549.65 566.3 540.26 556.93 540.26 547.57 540.26 538.2 540.26 528.84 540.26 519.47 540.26 519.47 549.65 510.11 549.65 500.74 549.65 500.74 559.04 491.37 559.04 491.37 549.65 482.01 549.65 472.64 549.65 472.64 540.26 463.28 540.26 453.91 540.26 453.91 530.87 444.54 530.87 444.54 521.48 435.18 521.48 425.81 521.48 416.45 521.48 407.08 521.48 397.71 521.48 388.35 521.48 378.98 521.48 369.62 521.48 360.25 521.48 350.89 521.48 350.89 530.87 341.52 530.87 341.52 540.26 332.15 540.26 332.15 549.65 322.79 549.65 322.79 559.04 322.79 568.43 313.42 568.43 313.42 577.83 313.42 587.22 304.06 587.22 304.06 596.61 294.69 596.61 294.69 606 285.32 606 285.32 596.61 275.96 596.61 266.59 596.61 257.23 596.61 257.23 587.22 247.86 587.22 238.5 587.22 229.13 587.22 219.76 587.22 219.76 577.83 210.4 577.83 201.03 577.83 191.67 577.83 182.3 577.83 172.94 577.83 163.57 577.83 163.57 587.22 154.2 587.22 144.84 587.22 135.47 587.22 126.11 587.22 126.11 596.61 116.74 596.61 116.74 606 107.37 606 98.01 606 98.01 615.39 88.64 615.39 88.64 624.78 79.28 624.78 69.91 624.78 69.91 634.17 60.54 634.17 60.54 643.57 51.18 643.57 41.81 643.57 32.45 643.57 32.45 652.96 23.08 652.96 13.71 652.96 4.35 652.96 -5.02 652.96 -14.38 652.96 -23.75 652.96 -33.11 652.96 -42.48 652.96 -51.85 652.96 -51.85 662.35 -61.21 662.35 -70.58 662.35 -70.58 671.74 -79.94 671.74 -89.31 671.74 -89.31 681.13 -89.31 690.52 -79.94 690.52 -70.58 690.52 -61.21 690.52 -51.85 690.52 -42.48 690.52 -33.11 690.52 -23.75 690.52 -14.38 690.52 -14.38 681.13 -5.02 681.13 -5.02 690.52 4.35 690.52 13.71 690.52 23.08 690.52 32.45 690.52 41.81 690.52 41.81 681.13 51.18 681.13 60.54 681.13 60.54 671.74 69.91 671.74 79.28 671.74 79.28 662.35 88.64 662.35 98.01 662.35 98.01 652.96 107.37 652.96 116.74 652.96 126.11 652.96 135.47 652.96 144.84 652.96 154.2 652.96 163.57 652.96 163.57 662.35 172.94 662.35 182.3 662.35 191.67 662.35 201.03 662.35 201.03 671.74 210.4 671.74 219.76 671.74 219.76 681.13 229.13 681.13 238.5 681.13 247.86 681.13 247.86 690.52 257.23 690.52 266.59 690.52 275.96 690.52 275.96 699.91 285.32 699.91 294.69 699.91 304.06 699.91 313.42 699.91 322.79 699.91 332.15 699.91 341.52 699.91 350.89 699.91 360.25 699.91 369.62 699.91 378.98 699.91 388.35 699.91 397.71 699.91 407.08 699.91 416.45 699.91 425.81 699.91 435.18 699.91 435.18 690.52 444.54 690.52 453.91 690.52 463.28 690.52 472.64 690.52 482.01 690.52 482.01 681.13 491.37 681.13 491.37 690.52 500.74 690.52 510.11 690.52 519.47 690.52 528.84 690.52 538.2 690.52 538.2 699.91 547.57 699.91 556.93 699.91 566.3 699.91 575.67 699.91 585.03 699.91 585.03 709.3 594.4 709.3 603.76 709.3 613.13 709.3 622.5 709.3 622.5 718.7 631.86 718.7 641.23 718.7 650.59 718.7 659.96 718.7 669.33 718.7 678.69 718.7 688.06 718.7 697.42 718.7 706.79 718.7 706.79 728.09 716.15 728.09 725.52 728.09 734.89 728.09 744.25 728.09 753.62 728.09 762.98 728.09 772.35 728.09 772.35 718.7 781.72 718.7 791.08 718.7 800.45 718.7 809.81 718.7 819.18 718.7 828.54 718.7 828.54 709.3 837.91 709.3 847.28 709.3 856.64 709.3 866.01 709.3 875.37 709.3 875.37 699.91 884.74 699.91 894.11 699.91 903.47 699.91 912.84 699.91 912.84 690.52 922.2 690.52 931.57 690.52 931.57 681.13 940.93 681.13 950.3 681.13 950.3 671.74 959.67 671.74 969.03 671.74 978.4 671.74 978.4 662.35 987.76 662.35 997.13 662.35 1006.5 662.35 1015.86 662.35 1025.23 662.35 1034.59 662.35 1043.96 662.35 1053.33 662.35 1062.69 662.35 1062.69 671.74 1072.06 671.74 1081.42 671.74 1090.79 671.74 1090.79 681.13 1100.15 681.13 1109.52 681.13 1118.89 681.13 1118.89 690.52 1128.25 690.52 1137.62 690.52 1146.98 690.52 1156.35 690.52 1156.35 699.91 1165.71 699.91 1175.08 699.91 1184.45 699.91 1193.81 699.91 1203.18 699.91 1212.54 699.91 1221.91 699.91 1221.91 690.52 1231.28 690.52 1240.64 690.52 1250.01 690.52 1259.37 690.52 1259.37 681.13 1268.74 681.13 1278.11 681.13 1287.47 681.13 1287.47 671.74 1296.84 671.74 1306.2 671.74 1315.57 671.74 1324.93 671.74 1334.3 671.74 1343.67 671.74 1353.03 671.74 1353.03 681.13 1362.4 681.13 1371.76 681.13 1381.13 681.13 1390.49 681.13 1390.49 690.52 1399.86 690.52 1409.23 690.52 1418.59 690.52 1427.96 690.52 1437.33 690.52 1446.69 690.52 1456.06 690.52 1465.42 690.52 1465.42 699.91 1474.79 699.91 1484.15 699.91 1493.52 699.91 1502.89 699.91 1512.25 699.91 1521.62 699.91 1530.98 699.91 1540.35 699.91 1549.71 699.91 1559.08 699.91 1559.08 690.52 1568.45 690.52 1577.81 690.52 1587.18 690.52 1596.54 690.52 1596.54 699.91 1605.91 699.91 1615.28 699.91 1615.28 690.52 1624.64 690.52 1634.01 690.52 1634.01 681.13 1624.64 681.13"/></g></g><g id="nuage4"><g class="cls-2"><polygon class="cls-6" points="1659.89 498 1659.89 488.61 1659.89 479.22 1669.26 479.22 1678.63 479.22 1687.99 479.22 1687.99 469.83 1687.99 460.44 1697.36 460.44 1697.36 451.04 1706.72 451.04 1706.72 441.65 1716.09 441.65 1725.45 441.65 1725.45 432.26 1734.82 432.26 1744.19 432.26 1753.55 432.26 1762.92 432.26 1762.92 422.87 1772.28 422.87 1772.28 413.48 1781.65 413.48 1791.02 413.48 1800.38 413.48 1809.75 413.48 1819.11 413.48 1819.11 404.09 1828.48 404.09 1828.48 394.7 1837.85 394.7 1847.21 394.7 1856.58 394.7 1856.58 385.3 1865.94 385.3 1875.31 385.3 1875.31 394.7 1884.67 394.7 1894.04 394.7 1894.04 404.09 1903.41 404.09 1912.77 404.09 1922.14 404.09 1931.5 404.09 1940.87 404.09 1950.23 404.09 1959.6 404.09 1968.97 404.09 1968.97 413.48 1978.33 413.48 1987.7 413.48 1987.7 422.87 1987.7 432.26 1987.7 441.65 1997.06 441.65 1997.06 451.04 2006.43 451.04 2006.43 460.44 2015.8 460.44 2015.8 469.83 2015.8 479.22 2015.8 488.61 2025.16 488.61 2025.16 498 2025.16 507.39 2015.8 507.39 2015.8 498 2006.43 498 2006.43 488.61 1997.06 488.61 1997.06 479.22 1987.7 479.22 1987.7 469.83 1978.33 469.83 1978.33 460.44 1968.97 460.44 1959.6 460.44 1950.23 460.44 1940.87 460.44 1931.5 460.44 1931.5 469.83 1922.14 469.83 1922.14 479.22 1912.77 479.22 1903.41 479.22 1903.41 469.83 1894.04 469.83 1894.04 460.44 1884.67 460.44 1884.67 451.04 1875.31 451.04 1875.31 441.65 1865.94 441.65 1865.94 432.26 1856.58 432.26 1856.58 422.87 1847.21 422.87 1837.85 422.87 1828.48 422.87 1819.11 422.87 1819.11 432.26 1809.75 432.26 1800.38 432.26 1800.38 441.65 1791.02 441.65 1781.65 441.65 1781.65 451.04 1781.65 460.44 1781.65 469.83 1781.65 479.22 1772.28 479.22 1762.92 479.22 1753.55 479.22 1753.55 469.83 1744.19 469.83 1744.19 460.44 1734.82 460.44 1725.45 460.44 1716.09 460.44 1716.09 469.83 1716.09 479.22 1706.72 479.22 1706.72 488.61 1697.36 488.61 1687.99 488.61 1678.63 488.61 1678.63 498 1669.26 498 1669.26 507.39 1659.89 507.39 1659.89 516.78 1650.53 516.78 1650.53 507.39 1650.53 498 1659.89 498"/><polygon class="cls-6" points="1530.89 507.39 1530.89 498 1530.89 488.61 1540.25 488.61 1549.62 488.61 1558.98 488.61 1558.98 479.22 1558.98 469.83 1568.35 469.83 1568.35 460.44 1577.71 460.44 1577.71 451.04 1587.08 451.04 1596.45 451.04 1596.45 441.65 1605.81 441.65 1615.18 441.65 1624.54 441.65 1633.91 441.65 1633.91 432.26 1643.28 432.26 1643.28 422.87 1652.64 422.87 1662.01 422.87 1671.37 422.87 1680.74 422.87 1690.11 422.87 1690.11 413.48 1699.47 413.48 1699.47 404.09 1708.84 404.09 1718.2 404.09 1727.57 404.09 1727.57 394.7 1736.93 394.7 1746.3 394.7 1746.3 404.09 1755.67 404.09 1765.03 404.09 1765.03 413.48 1774.4 413.48 1783.76 413.48 1793.13 413.48 1802.5 413.48 1811.86 413.48 1821.23 413.48 1830.59 413.48 1839.96 413.48 1839.96 422.87 1849.33 422.87 1858.69 422.87 1858.69 432.26 1858.69 441.65 1858.69 451.04 1868.06 451.04 1868.06 460.44 1877.42 460.44 1877.42 469.83 1886.79 469.83 1886.79 479.22 1886.79 488.61 1886.79 498 1896.15 498 1896.15 507.39 1896.15 516.78 1886.79 516.78 1886.79 507.39 1877.42 507.39 1877.42 498 1868.06 498 1868.06 488.61 1858.69 488.61 1858.69 479.22 1849.33 479.22 1849.33 469.83 1839.96 469.83 1830.59 469.83 1821.23 469.83 1811.86 469.83 1802.5 469.83 1802.5 479.22 1793.13 479.22 1793.13 488.61 1783.76 488.61 1774.4 488.61 1774.4 479.22 1765.03 479.22 1765.03 469.83 1755.67 469.83 1755.67 460.44 1746.3 460.44 1746.3 451.04 1736.93 451.04 1736.93 441.65 1727.57 441.65 1727.57 432.26 1718.2 432.26 1708.84 432.26 1699.47 432.26 1690.11 432.26 1690.11 441.65 1680.74 441.65 1671.37 441.65 1671.37 451.04 1662.01 451.04 1652.64 451.04 1652.64 460.44 1652.64 469.83 1652.64 479.22 1652.64 488.61 1643.28 488.61 1633.91 488.61 1624.54 488.61 1624.54 479.22 1615.18 479.22 1615.18 469.83 1605.81 469.83 1596.45 469.83 1587.08 469.83 1587.08 479.22 1587.08 488.61 1577.71 488.61 1577.71 498 1568.35 498 1558.98 498 1549.62 498 1549.62 507.39 1540.25 507.39 1540.25 516.78 1530.89 516.78 1530.89 526.17 1521.52 526.17 1521.52 516.78 1521.52 507.39 1530.89 507.39"/><polygon class="cls-5" points="2006.43 526.17 2006.43 535.57 1997.06 535.57 1987.7 535.57 1978.33 535.57 1978.33 526.17 1968.97 526.17 1959.6 526.17 1959.6 516.78 1950.23 516.78 1940.87 516.78 1931.5 516.78 1922.14 516.78 1922.14 526.17 1912.77 526.17 1912.77 516.78 1912.77 507.39 1903.41 507.39 1903.41 498 1894.04 498 1884.67 498 1875.31 498 1865.94 498 1865.94 507.39 1856.58 507.39 1847.21 507.39 1847.21 516.78 1837.85 516.78 1828.48 516.78 1819.11 516.78 1819.11 507.39 1809.75 507.39 1809.75 498 1800.38 498 1800.38 488.61 1791.02 488.61 1781.65 488.61 1781.65 479.22 1772.28 479.22 1762.92 479.22 1753.55 479.22 1753.55 488.61 1744.19 488.61 1744.19 498 1734.82 498 1734.82 507.39 1725.45 507.39 1725.45 516.78 1718.2 516.78 1716.09 516.78 1716.09 507.39 1716.09 498 1706.72 498 1706.72 488.61 1697.36 488.61 1687.99 488.61 1678.63 488.61 1678.63 498 1671.37 498 1669.26 498 1662.01 498 1652.64 498 1652.64 488.61 1643.28 488.61 1633.91 488.61 1624.54 488.61 1624.54 498 1615.18 498 1615.18 507.39 1605.81 507.39 1605.81 516.78 1596.45 516.78 1596.45 526.17 1587.08 526.17 1587.08 516.78 1587.08 507.39 1577.71 507.39 1577.71 498 1568.35 498 1558.98 498 1549.62 498 1549.62 507.39 1540.25 507.39 1540.25 516.78 1530.89 516.78 1530.89 526.17 1521.52 526.17 1521.52 535.57 1521.52 544.96 1521.52 554.35 1530.89 554.35 1530.89 563.74 1540.25 563.74 1540.25 573.13 1549.62 573.13 1558.98 573.13 1568.35 573.13 1577.71 573.13 1587.08 573.13 1596.45 573.13 1605.81 573.13 1615.18 573.13 1615.18 582.52 1624.54 582.52 1633.91 582.52 1643.28 582.52 1652.64 582.52 1662.01 582.52 1671.37 582.52 1680.74 582.52 1680.74 573.13 1690.11 573.13 1699.47 573.13 1708.84 573.13 1718.2 573.13 1718.2 563.74 1725.45 563.74 1727.57 563.74 1727.57 573.13 1736.93 573.13 1744.19 573.13 1746.3 573.13 1753.55 573.13 1755.67 573.13 1762.92 573.13 1765.03 573.13 1765.03 582.52 1774.4 582.52 1783.76 582.52 1793.13 582.52 1802.5 582.52 1811.86 582.52 1811.86 573.13 1821.23 573.13 1830.59 573.13 1839.96 573.13 1849.33 573.13 1858.69 573.13 1868.06 573.13 1868.06 563.74 1875.31 563.74 1877.42 563.74 1884.67 563.74 1894.04 563.74 1894.04 573.13 1903.41 573.13 1912.77 573.13 1922.14 573.13 1931.5 573.13 1940.87 573.13 1940.87 563.74 1950.23 563.74 1959.6 563.74 1968.97 563.74 1978.33 563.74 1987.7 563.74 1997.06 563.74 1997.06 554.35 2006.43 554.35 2006.43 544.96 2015.8 544.96 2015.8 535.57 2015.8 526.17 2006.43 526.17"/><polygon class="cls-4" points="1615.18 469.83 1605.81 469.83 1596.45 469.83 1587.08 469.83 1587.08 479.22 1587.08 488.61 1577.71 488.61 1577.71 498 1577.71 507.39 1587.08 507.39 1587.08 516.78 1587.08 526.17 1596.45 526.17 1596.45 516.78 1605.81 516.78 1605.81 507.39 1615.18 507.39 1615.18 498 1624.54 498 1624.54 488.61 1624.54 479.22 1615.18 479.22 1615.18 469.83"/><polygon class="cls-4" points="2015.8 507.39 2015.8 498 2006.43 498 2006.43 488.61 1997.06 488.61 1997.06 479.22 1987.7 479.22 1987.7 469.83 1978.33 469.83 1978.33 460.44 1968.97 460.44 1959.6 460.44 1950.23 460.44 1940.87 460.44 1931.5 460.44 1931.5 469.83 1922.14 469.83 1922.14 479.22 1912.77 479.22 1903.41 479.22 1903.41 469.83 1894.04 469.83 1894.04 460.44 1884.67 460.44 1884.67 451.04 1875.31 451.04 1875.31 441.65 1865.94 441.65 1865.94 432.26 1856.58 432.26 1856.58 422.87 1847.21 422.87 1837.85 422.87 1828.48 422.87 1819.11 422.87 1819.11 432.26 1809.75 432.26 1800.38 432.26 1800.38 441.65 1791.02 441.65 1781.65 441.65 1781.65 451.04 1781.65 460.44 1781.65 469.83 1781.65 479.22 1781.65 488.61 1774.4 488.61 1774.4 479.22 1765.03 479.22 1765.03 469.83 1755.67 469.83 1755.67 460.44 1746.3 460.44 1746.3 451.04 1736.93 451.04 1736.93 441.65 1727.57 441.65 1727.57 432.26 1718.2 432.26 1708.84 432.26 1699.47 432.26 1690.11 432.26 1690.11 441.65 1680.74 441.65 1671.37 441.65 1671.37 451.04 1662.01 451.04 1652.64 451.04 1652.64 460.44 1652.64 469.83 1652.64 479.22 1652.64 488.61 1652.64 498 1662.01 498 1671.37 498 1671.37 507.39 1680.74 507.39 1680.74 516.78 1690.11 516.78 1690.11 526.17 1699.47 526.17 1708.84 526.17 1718.2 526.17 1718.2 516.78 1725.45 516.78 1727.57 516.78 1736.93 516.78 1736.93 507.39 1746.3 507.39 1755.67 507.39 1765.03 507.39 1774.4 507.39 1774.4 516.78 1783.76 516.78 1783.76 526.17 1783.76 535.57 1793.13 535.57 1793.13 526.17 1802.5 526.17 1811.86 526.17 1821.23 526.17 1830.59 526.17 1830.59 535.57 1839.96 535.57 1849.33 535.57 1849.33 544.96 1858.69 544.96 1868.06 544.96 1877.42 544.96 1877.42 535.57 1886.79 535.57 1886.79 526.17 1896.15 526.17 1896.15 516.78 1886.79 516.78 1886.79 507.39 1877.42 507.39 1877.42 498 1884.67 498 1894.04 498 1903.41 498 1903.41 507.39 1912.77 507.39 1912.77 516.78 1912.77 526.17 1922.14 526.17 1922.14 516.78 1931.5 516.78 1940.87 516.78 1950.23 516.78 1959.6 516.78 1959.6 526.17 1968.97 526.17 1978.33 526.17 1978.33 535.57 1987.7 535.57 1997.06 535.57 2006.43 535.57 2006.43 526.17 2015.8 526.17 2015.8 516.78 2025.16 516.78 2025.16 507.39 2015.8 507.39"/></g></g><g id="nuage5"><g class="cls-2"><rect class="cls-3" x="1680.98" y="284.35" width="9.37" height="9.39"/><rect class="cls-3" x="1573.28" y="279.65" width="9.37" height="9.39"/><rect class="cls-3" x="1446.84" y="307.83" width="9.37" height="9.39"/><rect class="cls-3" x="1592.02" y="265.57" width="9.37" height="9.39"/><path class="cls-3" d="M1807.42,199.83H1770V181h-9.37v-9.39h-18.73v-9.39h-18.73v-9.39H1676.3v9.39h-18.73v9.39h-9.37v-9.39h-9.36v-9.39h-28.1v-9.39h-37.46v9.39h-18.74v9.39h-26v-9.39H1509.8v-9.39H1503v-4.7h-56.19V120h-9.37v-9.39h-18.73v-9.39H1400V91.83h-46.83v9.39h-18.73v9.39h-9.37v-9.39h-9.36V91.83h-28.1v-9.4h-37.47v9.4h-18.73v9.39h-9.36V120h-9.37v28.17h-65.56v9.4h-9.37V167h-9.36v18.78H1119v9.39h-74.92v9.39h-9.37v9.39h-14v-4.69h9.36v-9.39H997.28v-4.7h-9.37v-9.39h-14V181H964.5v-9.39H945.77v-9.39H927v-9.39H880.21v9.39H861.48v9.39h-9.37v-9.39h-9.36v-9.39h-28.1v-9.39H777.19v9.39H758.45v9.39h-9.36V181h-9.37v28.18H674.16v9.39H664.8V228h-9.37v18.78h-9.37v9.39H571.14v9.4h-9.37V275H543v-9.39H524.31v-9.4h-9.37v-9.39h-28.1v9.39h-9.36v9.4h-9.37v-9.4H421.28v9.4H402.55V275h-9.36v9.39h-9.37v28.17h-9.37v9.39h-9.36v-9.39h-9.37v-9.39h-9.36v-9.39h-56.2v9.39H280.8v9.39H243.33v9.39H234V340.7H224.6v9.39H177.77v9.39h-9.36V397h9.36v-9.39H196.5v-9.39h18.73v-9.39H234v-9.39h9.36v-9.39h9.37V340.7h18.73v-9.4h18.73v-9.39h37.46v9.39h18.74v9.4h9.36v9.39h9.37v18.78h18.73v-9.39h18.73v-9.39h9.37V340.7h18.73v-9.4H440v-9.39h28.09v-9.39h28.1v-9.39h18.73v9.39h18.73v9.39h28.1v9.39H580.5v-9.39h9.37v-9.39h9.36v-9.39h9.37v-9.39H618v-9.39h28.09V275h56.2v4.69h-4.69V289H650.74v9.39h-9.37V336h9.37v-9.39h18.73v-9.39H688.2v-9.39h18.73v-9.4h9.37v-4.69H721v9.39h18.73v9.39h9.37V293.74h9.36V275h9.37V260.87h32.77v9.39h18.73v9.39h9.37V289h9.37v9.39H819.32v4.7h-51.5v4.7H753.76v9.39H735v4.69H721v9.39h-9.37V336h-9.36v9.39h-9.37v14.09H688.2v-4.7h-9.36v-9.39h-56.2v9.39h-9.36v9.39H575.81v9.4h-9.36v18.78h-9.37v9.39H510.25v9.39h-9.36V448.7h9.36v-9.4H529v-9.39h18.74v-9.39h18.73v-9.39h9.36v-9.39h9.37v-9.39h18.73V383h18.73v-9.39H636.7V383h-9.37v37.56h9.37v-9.39h18.73v-4.7h0v-4.69h18.73V397h0v-4.69h14v9.39h9.37v18.78H716.3v-9.39H735v14.09h9.37v-9.39h18.73v-9.4h18.73V397h18.73v-9.39H810v-9.39h9.36v-4.69H824v18.78h18.73V383h18.73v-4.7h0v-4.69h32.77V383H913v-9.39h9.37v4.69h9.37V397h18.73v-9.39h14V397h9.36v-9.39h18.73v-9.39h18.73v-9.39h18.74v-9.39h9.36v-4.7h0v-4.69h9.36v-4.7h4.68v9.39h18.73v9.39h9.37V345.39h9.36V340.7h9.37v9.39h28.1v9.39h18.73v-9.39h14v18.78h18.73v-9.39h18.73v-9.39H1208V340.7h18.73v-9.4h9.37v-4.69h14V336h28.1v-9.39h9.37v-4.7h0v9.39h18.73v9.4h9.37V321.91h9.36v-9.39h4.68v9.39h28.1v9.39h18.73v-9.39H1386v-9.39h9.36v-4.69h9.38v-9.4h9.36v-4.69h9.37v-9.39h23.41v9.39h18.73v9.39h18.73v9.39h28.1v-9.39h23.41v9.39h9.37V293.74h9.36V275h9.37V256.17h18.73v-9.39h74.93v9.39h18.73v9.4H1695V275h18.73v9.39h28.1V275h9.37V256.17h9.36v-9.39H1770v-9.39h9.36V228h18.74v-9.39h18.73v-9.39h9.36v-9.39h-18.73ZM969.18,251.48v-4.7h4.69v-4.69h14v9.39h16.14v4.69H964.5v9.4h-9.36v4.69h0V256.17h9.36v-4.69Zm-140.49,0v-4.7h28.1v4.7h-9.37v9.39h-9.36v-9.39ZM781.86,378.26h-2.59v-4.69h12v4.69Z"/><rect class="cls-3" x="1910.45" y="256.17" width="9.37" height="9.39"/><polygon class="cls-4" points="1947.91 368.87 1947.91 359.48 1947.91 350.09 1947.91 340.7 1938.54 340.7 1929.18 340.7 1929.18 331.3 1919.81 331.3 1919.81 321.91 1919.81 312.52 1929.18 312.52 1929.18 303.13 1929.18 293.74 1929.18 284.35 1919.81 284.35 1919.81 274.96 1919.81 265.56 1910.45 265.56 1910.45 256.17 1901.08 256.17 1891.71 256.17 1882.35 256.17 1872.98 256.17 1872.98 246.78 1863.62 246.78 1863.62 237.39 1863.62 228 1854.25 228 1854.25 218.61 1844.89 218.61 1844.89 209.22 1835.52 209.22 1826.15 209.22 1816.79 209.22 1816.79 218.61 1807.42 218.61 1798.06 218.61 1798.06 228 1788.69 228 1779.33 228 1779.33 237.39 1769.96 237.39 1769.96 246.78 1760.59 246.78 1760.59 256.17 1751.23 256.17 1751.23 265.56 1751.23 274.96 1741.86 274.96 1741.86 284.35 1732.49 284.35 1723.13 284.35 1713.76 284.35 1713.76 274.96 1704.4 274.96 1695.03 274.96 1695.03 265.56 1685.67 265.56 1676.3 265.56 1676.3 256.17 1666.93 256.17 1657.57 256.17 1657.57 246.78 1648.2 246.78 1638.84 246.78 1629.47 246.78 1620.11 246.78 1610.74 246.78 1601.37 246.78 1592.01 246.78 1582.64 246.78 1582.64 256.17 1577.96 256.17 1573.28 256.17 1568.59 256.17 1563.91 256.17 1559.23 256.17 1549.86 256.17 1549.86 246.78 1540.5 246.78 1540.5 237.39 1540.5 228 1531.13 228 1531.13 218.61 1521.76 218.61 1521.76 209.22 1512.4 209.22 1503.03 209.22 1493.67 209.22 1493.67 218.61 1484.3 218.61 1474.93 218.61 1474.93 228 1465.57 228 1456.2 228 1456.2 237.39 1446.84 237.39 1446.84 246.78 1437.47 246.78 1437.47 256.17 1428.11 256.17 1428.11 265.56 1428.11 274.96 1418.74 274.96 1418.74 284.35 1414.06 284.35 1409.37 284.35 1400.01 284.35 1390.64 284.35 1390.64 274.96 1381.28 274.96 1371.91 274.96 1371.91 265.56 1362.54 265.56 1353.18 265.56 1353.18 256.17 1343.81 256.17 1334.45 256.17 1334.45 246.78 1325.08 246.78 1315.71 246.78 1306.35 246.78 1296.98 246.78 1287.62 246.78 1278.25 246.78 1268.89 246.78 1259.52 246.78 1259.52 256.17 1250.15 256.17 1240.79 256.17 1240.79 265.56 1240.79 274.96 1231.42 274.96 1231.42 284.35 1231.42 293.74 1222.06 293.74 1222.06 303.13 1222.06 312.52 1212.69 312.52 1212.69 303.13 1203.33 303.13 1193.96 303.13 1193.96 293.74 1184.59 293.74 1184.59 284.35 1175.23 284.35 1175.23 274.96 1165.86 274.96 1156.5 274.96 1147.13 274.96 1137.76 274.96 1128.4 274.96 1123.72 274.96 1123.72 265.56 1114.36 265.56 1114.36 256.17 1104.99 256.17 1095.63 256.17 1086.26 256.17 1076.89 256.17 1076.89 246.78 1067.53 246.78 1067.53 237.39 1067.53 228 1058.16 228 1058.16 218.61 1048.8 218.61 1048.8 209.22 1039.43 209.22 1030.06 209.22 1020.7 209.22 1020.7 218.61 1011.33 218.61 1001.97 218.61 1001.97 228 992.6 228 983.24 228 983.24 237.39 973.87 237.39 973.87 246.78 964.5 246.78 964.5 256.17 955.14 256.17 955.14 265.56 955.14 274.96 945.77 274.96 945.77 284.35 936.4 284.35 927.04 284.35 917.67 284.35 917.67 274.96 908.31 274.96 898.94 274.96 898.94 265.56 889.58 265.56 880.21 265.56 880.21 256.17 870.84 256.17 861.48 256.17 861.48 246.78 852.11 246.78 842.75 246.78 833.38 246.78 824.01 246.78 814.65 246.78 805.28 246.78 795.92 246.78 786.55 246.78 786.55 256.17 777.19 256.17 767.82 256.17 767.82 265.56 767.82 274.96 758.45 274.96 758.45 284.35 758.45 293.74 749.09 293.74 749.09 303.13 749.09 312.52 739.72 312.52 739.72 303.13 730.36 303.13 720.99 303.13 720.99 293.74 711.63 293.74 711.63 284.35 702.26 284.35 702.26 274.96 692.89 274.96 683.53 274.96 674.16 274.96 664.8 274.96 655.43 274.96 646.06 274.96 646.06 284.35 636.7 284.35 627.33 284.35 617.97 284.35 617.97 293.74 608.6 293.74 608.6 303.13 599.24 303.13 599.24 312.52 589.87 312.52 589.87 321.91 580.5 321.91 580.5 331.3 571.14 331.3 561.77 331.3 561.77 321.91 552.4 321.91 543.04 321.91 533.67 321.91 533.67 312.52 524.31 312.52 514.94 312.52 514.94 303.13 505.58 303.13 496.21 303.13 496.21 312.52 486.84 312.52 477.48 312.52 468.11 312.52 468.11 321.91 458.75 321.91 449.38 321.91 440.01 321.91 440.01 331.3 430.65 331.3 430.65 340.7 421.28 340.7 411.92 340.7 411.92 350.09 402.55 350.09 402.55 359.48 393.19 359.48 383.82 359.48 383.82 368.87 393.19 368.87 402.55 368.87 402.55 378.26 411.92 378.26 421.28 378.26 430.65 378.26 430.65 387.65 440.01 387.65 440.01 397.04 449.38 397.04 449.38 406.44 458.75 406.44 468.11 406.44 477.48 406.44 477.48 415.83 486.84 415.83 496.21 415.83 505.58 415.83 514.94 415.83 524.31 415.83 533.67 415.83 533.67 406.44 543.04 406.44 552.4 406.44 552.4 397.04 561.77 397.04 571.14 397.04 580.5 397.04 589.87 397.04 589.87 406.44 599.24 406.44 608.6 406.44 608.6 415.83 617.97 415.83 627.33 415.83 636.7 415.83 646.06 415.83 655.43 415.83 664.8 415.83 674.16 415.83 683.53 415.83 683.53 425.22 692.89 425.22 692.89 415.83 697.57 415.83 702.26 415.83 706.93 415.83 716.3 415.83 725.67 415.83 735.03 415.83 735.03 406.44 744.4 406.44 753.76 406.44 763.13 406.44 772.5 406.44 781.86 406.44 781.86 415.83 791.23 415.83 800.59 415.83 809.96 415.83 809.96 406.44 814.65 406.44 814.65 415.83 824.01 415.83 824.01 425.22 833.38 425.22 833.38 415.83 842.75 415.83 852.11 415.83 861.48 415.83 861.48 406.44 870.84 406.44 870.84 397.04 880.21 397.04 889.58 397.04 889.58 387.65 898.94 387.65 903.62 387.65 908.31 387.65 912.98 387.65 912.98 397.04 922.35 397.04 922.35 406.44 931.72 406.44 941.08 406.44 950.45 406.44 950.45 415.83 959.81 415.83 964.5 415.83 969.18 415.83 973.87 415.83 978.54 415.83 983.24 415.83 987.91 415.83 992.6 415.83 997.28 415.83 1006.64 415.83 1006.64 406.44 1011.33 406.44 1011.33 415.83 1020.69 415.83 1030.06 415.83 1039.42 415.83 1048.79 415.83 1058.15 415.83 1058.15 406.44 1058.16 406.44 1062.84 406.44 1067.52 406.44 1067.53 406.44 1072.2 406.44 1076.89 406.44 1076.89 406.44 1081.57 406.44 1081.57 415.83 1090.93 415.83 1100.3 415.83 1104.98 415.83 1109.67 415.83 1114.35 415.83 1119.03 415.83 1123.71 415.83 1128.4 415.83 1133.08 415.83 1137.76 415.83 1147.13 415.83 1156.5 415.83 1156.5 425.22 1165.86 425.22 1165.86 415.83 1175.23 415.83 1175.23 406.44 1184.59 406.44 1184.59 397.04 1184.59 387.65 1193.96 387.65 1193.96 378.26 1198.64 378.26 1203.33 378.26 1208.01 378.26 1212.69 378.26 1217.37 378.26 1222.06 378.26 1226.74 378.26 1226.74 387.65 1236.11 387.65 1236.11 397.04 1245.47 397.04 1245.47 406.44 1254.84 406.44 1264.2 406.44 1273.57 406.44 1273.57 415.83 1282.93 415.83 1287.62 415.83 1292.3 415.83 1296.98 415.83 1296.98 425.22 1306.35 425.22 1306.35 415.83 1311.03 415.83 1315.71 415.83 1320.4 415.83 1325.08 415.83 1329.76 415.83 1334.45 415.83 1334.45 406.44 1339.13 406.44 1343.81 406.44 1348.49 406.44 1348.49 397.04 1353.18 397.04 1357.86 397.04 1362.54 397.04 1367.23 397.04 1376.59 397.04 1385.96 397.04 1385.96 406.44 1395.33 406.44 1404.69 406.44 1404.69 415.83 1414.06 415.83 1423.42 415.83 1432.79 415.83 1437.47 415.83 1442.15 415.83 1446.84 415.83 1451.52 415.83 1456.2 415.83 1460.89 415.83 1465.57 415.83 1470.25 415.83 1479.62 415.83 1479.62 425.22 1488.98 425.22 1488.98 415.83 1498.35 415.83 1498.35 406.44 1507.71 406.44 1507.71 397.04 1512.4 397.04 1521.76 397.04 1521.76 406.44 1531.13 406.44 1540.5 406.44 1549.86 406.44 1549.86 397.04 1559.23 397.04 1559.23 387.65 1568.59 387.65 1568.59 378.26 1573.28 378.26 1573.28 387.65 1582.64 387.65 1592.01 387.65 1592.01 397.04 1601.37 397.04 1601.37 406.44 1610.74 406.44 1610.74 415.83 1620.11 415.83 1620.11 425.22 1629.47 425.22 1629.47 415.83 1638.84 415.83 1648.2 415.83 1657.57 415.83 1657.57 406.44 1666.93 406.44 1666.93 397.04 1676.3 397.04 1685.67 397.04 1685.67 387.65 1695.03 387.65 1704.4 387.65 1713.76 387.65 1723.13 387.65 1732.49 387.65 1741.86 387.65 1741.86 397.04 1751.23 397.04 1751.23 406.44 1760.59 406.44 1760.59 415.83 1769.96 415.83 1779.33 415.83 1788.69 415.83 1788.69 406.44 1798.06 406.44 1798.06 397.04 1807.42 397.04 1816.79 397.04 1826.15 397.04 1835.52 397.04 1844.89 397.04 1844.89 406.44 1854.25 406.44 1863.62 406.44 1872.98 406.44 1872.98 397.04 1882.35 397.04 1882.35 387.65 1891.71 387.65 1891.71 378.26 1901.08 378.26 1910.45 378.26 1919.81 378.26 1929.18 378.26 1929.18 387.65 1938.54 387.65 1947.91 387.65 1957.28 387.65 1957.28 378.26 1957.28 368.87 1947.91 368.87"/><polygon class="cls-4" points="365.09 368.87 365.09 359.48 365.09 350.09 355.72 350.09 355.72 340.7 346.36 340.7 346.36 331.3 336.99 331.3 327.63 331.3 327.63 321.91 318.26 321.91 308.89 321.91 299.53 321.91 290.16 321.91 290.16 331.3 280.8 331.3 271.43 331.3 271.43 340.7 262.06 340.7 252.7 340.7 252.7 350.09 243.33 350.09 243.33 359.48 233.97 359.48 233.97 368.87 224.6 368.87 215.24 368.87 215.24 378.26 205.87 378.26 196.5 378.26 196.5 387.65 187.14 387.65 177.77 387.65 177.77 397.04 177.77 406.44 187.14 406.44 196.5 406.44 205.87 406.44 215.24 406.44 215.24 415.83 224.6 415.83 233.97 415.83 243.33 415.83 252.7 415.83 262.06 415.83 262.06 406.44 271.43 406.44 280.8 406.44 290.16 406.44 299.53 406.44 308.89 406.44 308.89 415.83 318.26 415.83 327.63 415.83 336.99 415.83 336.99 406.44 346.36 406.44 346.36 397.04 355.72 397.04 355.72 387.65 365.09 387.65 365.09 378.26 374.45 378.26 383.82 378.26 383.82 368.87 374.45 368.87 365.09 368.87"/><polygon class="cls-5" points="1966.64 406.44 1966.64 397.04 1957.28 397.04 1957.28 387.65 1947.91 387.65 1938.54 387.65 1929.18 387.65 1929.18 378.26 1919.81 378.26 1910.45 378.26 1901.08 378.26 1891.71 378.26 1891.71 387.65 1882.35 387.65 1882.35 397.04 1872.98 397.04 1872.98 406.44 1863.62 406.44 1854.25 406.44 1844.89 406.44 1844.89 397.04 1835.52 397.04 1826.15 397.04 1816.79 397.04 1807.42 397.04 1798.06 397.04 1798.06 406.44 1788.69 406.44 1788.69 415.83 1779.33 415.83 1769.96 415.83 1760.59 415.83 1760.59 406.44 1751.23 406.44 1751.23 397.04 1741.86 397.04 1741.86 387.65 1732.49 387.65 1723.13 387.65 1713.76 387.65 1704.4 387.65 1695.03 387.65 1685.67 387.65 1685.67 397.04 1676.3 397.04 1666.93 397.04 1666.93 406.44 1657.57 406.44 1657.57 415.83 1652.89 415.83 1652.89 406.44 1643.52 406.44 1643.52 397.04 1634.15 397.04 1634.15 387.65 1624.79 387.65 1615.42 387.65 1606.06 387.65 1606.06 378.26 1596.69 378.26 1587.33 378.26 1577.96 378.26 1573.28 378.26 1568.59 378.26 1563.91 378.26 1554.54 378.26 1545.18 378.26 1535.81 378.26 1526.45 378.26 1517.08 378.26 1517.08 387.65 1507.71 387.65 1507.71 397.04 1503.03 397.04 1493.67 397.04 1484.3 397.04 1474.93 397.04 1474.93 406.44 1465.57 406.44 1465.57 415.83 1460.89 415.83 1456.2 415.83 1451.52 415.83 1446.84 415.83 1442.15 415.83 1437.47 415.83 1437.47 406.44 1428.11 406.44 1428.11 397.04 1418.74 397.04 1418.74 387.65 1409.37 387.65 1400.01 387.65 1390.64 387.65 1381.28 387.65 1371.91 387.65 1362.54 387.65 1362.54 397.04 1357.86 397.04 1353.18 397.04 1348.49 397.04 1343.81 397.04 1343.81 406.44 1339.13 406.44 1334.45 406.44 1329.76 406.44 1329.76 415.83 1325.08 415.83 1320.4 415.83 1315.71 415.83 1311.03 415.83 1306.35 415.83 1301.67 415.83 1296.98 415.83 1292.3 415.83 1287.62 415.83 1287.62 406.44 1278.25 406.44 1278.25 397.04 1268.89 397.04 1268.89 387.65 1259.52 387.65 1250.15 387.65 1250.15 378.26 1240.79 378.26 1231.42 378.26 1226.74 378.26 1222.06 378.26 1217.37 378.26 1212.69 378.26 1208.01 378.26 1203.33 378.26 1198.64 378.26 1198.64 368.87 1189.28 368.87 1179.91 368.87 1179.91 378.26 1170.54 378.26 1161.18 378.26 1161.18 387.65 1151.82 387.65 1151.81 387.65 1142.45 387.65 1133.09 387.65 1133.09 378.26 1123.72 378.26 1114.36 378.26 1104.99 378.26 1095.63 378.26 1095.63 387.65 1086.26 387.65 1086.26 397.04 1076.89 397.04 1076.89 406.44 1076.89 406.44 1072.2 406.44 1067.53 406.44 1067.52 406.44 1062.84 406.44 1062.84 397.04 1053.47 397.04 1048.8 397.04 1044.11 397.04 1039.43 397.04 1034.74 397.04 1030.06 397.04 1025.37 397.04 1020.7 397.04 1011.33 397.04 1001.97 397.04 1001.97 406.44 1001.96 406.44 992.6 406.44 992.59 406.44 983.23 406.44 973.86 406.44 973.86 415.83 969.18 415.83 964.5 415.83 964.5 406.44 955.14 406.44 955.14 397.04 945.77 397.04 945.77 387.65 936.4 387.65 927.04 387.65 917.67 387.65 912.98 387.65 908.31 387.65 903.62 387.65 903.62 378.26 894.25 378.26 884.89 378.26 875.52 378.26 875.52 368.87 866.15 368.87 856.79 368.87 856.79 378.26 847.42 378.26 838.06 378.26 838.06 387.65 828.69 387.65 828.69 397.04 819.33 397.04 819.33 406.44 814.65 406.44 809.96 406.44 805.28 406.44 805.28 397.04 795.92 397.04 795.92 387.65 786.55 387.65 777.19 387.65 777.19 378.26 767.82 378.26 758.45 378.26 749.09 378.26 739.72 378.26 730.36 378.26 720.99 378.26 720.99 387.65 711.63 387.65 711.63 397.04 711.63 406.44 702.26 406.44 702.26 415.83 697.57 415.83 692.89 415.83 688.2 415.83 688.2 406.44 678.84 406.44 669.47 406.44 660.11 406.44 650.74 406.44 650.74 415.83 646.06 415.83 641.37 415.83 636.7 415.83 627.33 415.83 617.97 415.83 608.6 415.83 608.6 406.44 599.24 406.44 589.87 406.44 589.87 397.04 580.5 397.04 571.14 397.04 561.77 397.04 552.4 397.04 552.4 406.44 543.04 406.44 533.67 406.44 533.67 415.83 524.31 415.83 514.94 415.83 505.58 415.83 496.21 415.83 486.84 415.83 477.48 415.83 477.48 406.44 468.11 406.44 458.75 406.44 449.38 406.44 449.38 397.04 440.01 397.04 440.01 387.65 430.65 387.65 430.65 378.26 421.28 378.26 411.92 378.26 402.55 378.26 402.55 368.87 393.19 368.87 383.82 368.87 383.82 378.26 374.45 378.26 365.09 378.26 365.09 387.65 355.72 387.65 355.72 397.04 346.36 397.04 346.36 406.44 336.99 406.44 336.99 415.83 327.63 415.83 318.26 415.83 308.89 415.83 308.89 406.44 299.53 406.44 290.16 406.44 280.8 406.44 271.43 406.44 262.06 406.44 262.06 415.83 252.7 415.83 243.33 415.83 233.97 415.83 224.6 415.83 215.24 415.83 215.24 406.44 205.87 406.44 196.5 406.44 187.14 406.44 177.77 406.44 177.77 415.83 168.41 415.83 168.41 425.22 177.77 425.22 177.77 434.61 187.14 434.61 187.14 444 196.5 444 205.87 444 215.24 444 224.6 444 233.97 444 243.33 444 252.7 444 262.06 444 262.06 434.61 271.43 434.61 280.8 434.61 290.16 434.61 299.53 434.61 308.89 434.61 318.26 434.61 327.63 434.61 336.99 434.61 336.99 444 346.36 444 355.72 444 355.72 453.39 365.09 453.39 374.45 453.39 374.45 462.78 383.82 462.78 383.82 472.17 393.19 472.17 402.55 472.17 411.92 472.17 421.28 472.17 430.65 472.17 440.01 472.17 449.38 472.17 458.75 472.17 458.75 462.78 468.11 462.78 477.48 462.78 486.84 462.78 496.21 462.78 505.58 462.78 514.94 462.78 514.94 453.39 524.31 453.39 533.67 453.39 543.04 453.39 552.4 453.39 561.77 453.39 571.14 453.39 580.5 453.39 589.87 453.39 599.24 453.39 599.24 462.78 608.6 462.78 617.97 462.78 627.33 462.78 636.7 462.78 646.06 462.78 646.06 472.17 655.43 472.17 664.8 472.17 674.16 472.17 683.53 472.17 692.89 472.17 702.26 472.17 711.63 472.17 720.99 472.17 730.36 472.17 739.72 472.17 739.72 462.78 749.09 462.78 758.45 462.78 767.82 462.78 777.19 462.78 786.55 462.78 795.92 462.78 805.28 462.78 814.65 462.78 824.01 462.78 833.38 462.78 842.75 462.78 847.42 462.78 852.11 462.78 856.79 462.78 856.79 472.17 866.15 472.17 875.52 472.17 884.89 472.17 894.25 472.17 903.62 472.17 912.98 472.17 922.35 472.17 931.72 472.17 931.72 462.78 941.08 462.78 950.45 462.78 959.81 462.78 969.18 462.78 973.87 462.78 978.54 462.78 983.24 462.78 987.91 462.78 992.6 462.78 1001.97 462.78 1001.97 472.17 1011.33 472.17 1020.7 472.17 1030.06 472.17 1039.43 472.17 1048.8 472.17 1058.16 472.17 1067.53 472.17 1076.89 472.17 1086.26 472.17 1095.63 472.17 1095.63 462.78 1100.3 462.78 1104.99 462.78 1109.67 462.78 1114.36 462.78 1119.03 462.78 1119.03 472.17 1128.4 472.17 1137.76 472.17 1147.13 472.17 1156.5 472.17 1165.86 472.17 1175.23 472.17 1179.91 472.17 1184.59 472.17 1189.28 472.17 1193.96 472.17 1198.64 472.17 1203.33 472.17 1208.01 472.17 1212.69 472.17 1217.37 472.17 1226.74 472.17 1236.11 472.17 1245.47 472.17 1254.84 472.17 1254.84 462.78 1259.52 462.78 1264.2 462.78 1268.89 462.78 1273.57 462.78 1278.25 462.78 1282.93 462.78 1287.62 462.78 1292.3 462.78 1296.98 462.78 1301.67 462.78 1306.35 462.78 1311.03 462.78 1315.71 462.78 1325.08 462.78 1325.08 453.39 1329.76 453.39 1334.45 453.39 1339.13 453.39 1343.81 453.39 1348.49 453.39 1353.18 453.39 1357.86 453.39 1362.54 453.39 1367.23 453.39 1371.91 453.39 1376.59 453.39 1381.28 453.39 1385.96 453.39 1390.64 453.39 1395.33 453.39 1395.33 462.78 1404.69 462.78 1414.06 462.78 1423.42 462.78 1432.79 462.78 1442.15 462.78 1442.15 472.17 1451.52 472.17 1460.89 472.17 1470.25 472.17 1474.93 472.17 1479.62 472.17 1484.3 472.17 1488.98 472.17 1493.67 472.17 1498.35 472.17 1503.03 472.17 1507.71 472.17 1512.4 472.17 1517.08 472.17 1521.76 472.17 1526.45 472.17 1531.13 472.17 1535.81 472.17 1540.5 472.17 1549.86 472.17 1559.23 472.17 1568.59 472.17 1568.59 462.78 1573.28 462.78 1577.96 462.78 1582.64 462.78 1587.33 462.78 1592.01 462.78 1596.69 462.78 1601.37 462.78 1610.74 462.78 1620.11 462.78 1629.47 462.78 1638.84 462.78 1648.2 462.78 1648.2 453.39 1657.57 453.39 1666.93 453.39 1676.3 453.39 1685.67 453.39 1695.03 453.39 1704.4 453.39 1713.76 453.39 1723.13 453.39 1732.49 453.39 1741.86 453.39 1751.23 453.39 1760.59 453.39 1769.96 453.39 1769.96 462.78 1779.33 462.78 1788.69 462.78 1798.06 462.78 1798.06 472.17 1807.42 472.17 1816.79 472.17 1826.15 472.17 1835.52 472.17 1844.89 472.17 1854.25 472.17 1863.62 472.17 1872.98 472.17 1882.35 472.17 1891.71 472.17 1891.71 462.78 1901.08 462.78 1910.45 462.78 1919.81 462.78 1919.81 453.39 1929.18 453.39 1938.54 453.39 1947.91 453.39 1947.91 444 1957.28 444 1966.64 444 1976.01 444 1976.01 434.61 1976.01 425.22 1976.01 415.83 1976.01 406.44 1966.64 406.44"/></g></g></svg>