<svg xmlns="http://www.w3.org/2000/svg" viewBox="0 0 1920 780"><defs><style>.cls-1{fill:#d8d8d8;}.cls-2{opacity:0.86;}.cls-3{fill:#939393;}.cls-4{fill:#898989;}.cls-5{fill:#605f5f;}.cls-6{fill:#a5a5a5;}</style></defs><title>smog_4</title><g id="fond"><rect class="cls-1" x="2.78" width="1917.22" height="780"/></g><g id="nuage1"><g class="cls-2"><polygon class="cls-3" points="1328.59 80.09 1319.23 80.09 1309.86 80.09 1300.5 80.09 1291.13 80.09 1291.13 70.7 1291.13 61.3 1281.76 61.3 1281.76 51.91 1272.4 51.91 1263.03 51.91 1263.03 42.52 1253.67 42.52 1244.3 42.52 1244.3 33.13 1234.93 33.13 1225.57 33.13 1216.2 33.13 1206.84 33.13 1197.47 33.13 1197.47 42.52 1188.11 42.52 1178.74 42.52 1178.74 51.91 1169.37 51.91 1169.37 42.52 1160.01 42.52 1160.01 33.13 1150.64 33.13 1141.28 33.13 1131.91 33.13 1131.91 23.74 1122.54 23.74 1113.18 23.74 1103.81 23.74 1094.45 23.74 1094.45 33.13 1085.08 33.13 1075.71 33.13 1075.71 42.52 1066.35 42.52 1066.35 51.91 1066.35 61.3 1056.98 61.3 1056.98 70.7 1056.98 80.09 1056.98 89.48 1047.62 89.48 1038.25 89.48 1028.89 89.48 1019.52 89.48 1010.15 89.48 1000.79 89.48 991.42 89.48 991.42 98.87 982.06 98.87 982.06 108.26 972.69 108.26 972.69 117.65 972.69 127.04 963.33 127.04 963.33 136.44 953.96 136.44 944.59 136.44 935.23 136.44 925.86 136.44 916.5 136.44 907.13 136.44 897.76 136.44 888.4 136.44 888.4 145.83 879.03 145.83 879.03 155.22 869.67 155.22 860.3 155.22 860.3 145.83 850.93 145.83 841.57 145.83 841.57 136.44 832.2 136.44 832.2 127.04 822.84 127.04 813.47 127.04 804.11 127.04 804.11 136.44 794.74 136.44 794.74 145.83 785.37 145.83 785.37 136.44 776.01 136.44 766.64 136.44 757.28 136.44 747.91 136.44 738.54 136.44 738.54 145.83 729.18 145.83 719.81 145.83 719.81 155.22 710.45 155.22 710.45 164.61 701.08 164.61 701.08 174 701.08 183.39 701.08 192.78 691.72 192.78 691.72 202.17 682.35 202.17 682.35 192.78 672.98 192.78 672.98 183.39 663.62 183.39 663.62 174 654.25 174 644.89 174 635.52 174 626.15 174 616.79 174 607.42 174 607.42 183.39 598.06 183.39 598.06 192.78 588.69 192.78 579.33 192.78 569.96 192.78 560.59 192.78 560.59 202.17 551.23 202.17 551.23 211.56 551.23 220.96 541.86 220.96 541.86 230.35 532.5 230.35 523.13 230.35 513.76 230.35 504.4 230.35 495.03 230.35 495.03 239.74 485.67 239.74 485.67 249.13 485.67 258.52 485.67 267.91 485.67 277.3 495.03 277.3 495.03 267.91 504.4 267.91 513.76 267.91 513.76 258.52 523.13 258.52 532.5 258.52 532.5 249.13 541.86 249.13 551.23 249.13 551.23 239.74 560.59 239.74 560.59 230.35 569.96 230.35 569.96 220.96 579.33 220.96 588.69 220.96 588.69 211.56 598.06 211.56 607.42 211.56 607.42 202.17 616.79 202.17 626.15 202.17 635.52 202.17 644.89 202.17 644.89 211.56 654.25 211.56 663.62 211.56 663.62 220.96 672.98 220.96 672.98 230.35 682.35 230.35 682.35 239.74 682.35 249.13 691.72 249.13 701.08 249.13 701.08 239.74 710.45 239.74 719.81 239.74 719.81 230.35 729.18 230.35 729.18 220.96 738.54 220.96 747.91 220.96 747.91 211.56 757.28 211.56 757.28 202.17 766.64 202.17 776.01 202.17 785.37 202.17 785.37 192.78 794.74 192.78 804.11 192.78 813.47 192.78 813.47 183.39 822.84 183.39 832.2 183.39 832.2 192.78 841.57 192.78 850.93 192.78 850.93 202.17 860.3 202.17 869.67 202.17 879.03 202.17 879.03 211.56 888.4 211.56 897.76 211.56 897.76 202.17 907.13 202.17 907.13 192.78 916.5 192.78 916.5 183.39 925.86 183.39 925.86 174 935.23 174 935.23 164.61 944.59 164.61 953.96 164.61 963.33 164.61 963.33 155.22 972.69 155.22 982.06 155.22 991.42 155.22 1000.79 155.22 1010.15 155.22 1019.52 155.22 1019.52 164.61 1028.89 164.61 1028.89 174 1038.25 174 1038.25 183.39 1047.62 183.39 1056.98 183.39 1056.98 192.78 1066.35 192.78 1066.35 183.39 1066.35 174 1075.71 174 1075.71 164.61 1075.71 155.22 1085.08 155.22 1085.08 145.83 1085.08 136.44 1094.45 136.44 1103.81 136.44 1103.81 127.04 1113.18 127.04 1122.54 127.04 1131.91 127.04 1141.28 127.04 1150.64 127.04 1160.01 127.04 1169.37 127.04 1178.74 127.04 1178.74 136.44 1188.11 136.44 1197.47 136.44 1197.47 145.83 1206.84 145.83 1216.2 145.83 1216.2 155.22 1225.57 155.22 1234.93 155.22 1234.93 164.61 1244.3 164.61 1253.67 164.61 1263.03 164.61 1263.03 155.22 1272.4 155.22 1272.4 145.83 1272.4 136.44 1281.76 136.44 1281.76 127.04 1291.13 127.04 1291.13 117.65 1300.5 117.65 1300.5 108.26 1309.86 108.26 1319.23 108.26 1319.23 98.87 1328.59 98.87 1337.96 98.87 1337.96 89.48 1347.33 89.48 1347.33 80.09 1337.96 80.09 1328.59 80.09"/><rect class="cls-3" x="1431.62" y="136.43" width="9.37" height="9.39"/><polygon class="cls-4" points="682.35 249.13 682.35 239.74 682.35 230.35 672.98 230.35 672.98 220.96 663.62 220.96 663.62 211.56 654.25 211.56 644.89 211.56 644.89 202.17 635.52 202.17 626.15 202.17 616.79 202.17 607.42 202.17 607.42 211.56 598.06 211.56 588.69 211.56 588.69 220.96 579.33 220.96 569.96 220.96 569.96 230.35 560.59 230.35 560.59 239.74 551.23 239.74 551.23 249.13 541.86 249.13 532.5 249.13 532.5 258.52 523.13 258.52 513.76 258.52 513.76 267.91 504.4 267.91 495.03 267.91 495.03 277.3 495.03 286.7 504.4 286.7 513.76 286.7 523.13 286.7 532.5 286.7 532.5 296.09 541.86 296.09 551.23 296.09 560.59 296.09 569.96 296.09 579.33 296.09 579.33 286.7 588.69 286.7 598.06 286.7 607.42 286.7 616.79 286.7 626.15 286.7 626.15 296.09 635.52 296.09 644.89 296.09 654.25 296.09 654.25 286.7 663.62 286.7 663.62 277.3 672.98 277.3 672.98 267.91 682.35 267.91 682.35 258.52 691.72 258.52 701.08 258.52 701.08 249.13 691.72 249.13 682.35 249.13"/><polygon class="cls-4" points="1469.08 249.13 1469.08 239.74 1469.08 230.35 1469.08 220.96 1459.71 220.96 1450.35 220.96 1450.35 211.56 1440.98 211.56 1440.98 202.17 1440.98 192.78 1450.35 192.78 1450.35 183.39 1450.35 174 1450.35 164.61 1440.98 164.61 1440.98 155.22 1440.98 145.83 1431.62 145.83 1431.62 136.44 1422.25 136.44 1412.89 136.44 1403.52 136.44 1394.15 136.44 1394.15 127.04 1384.79 127.04 1384.79 117.65 1384.79 108.26 1375.42 108.26 1375.42 98.87 1366.06 98.87 1366.06 89.48 1356.69 89.48 1347.33 89.48 1337.96 89.48 1337.96 98.87 1328.59 98.87 1319.23 98.87 1319.23 108.26 1309.86 108.26 1300.5 108.26 1300.5 117.65 1291.13 117.65 1291.13 127.04 1281.76 127.04 1281.76 136.44 1272.4 136.44 1272.4 145.83 1272.4 155.22 1263.03 155.22 1263.03 164.61 1253.67 164.61 1244.3 164.61 1234.93 164.61 1234.93 155.22 1225.57 155.22 1216.2 155.22 1216.2 145.83 1206.84 145.83 1197.47 145.83 1197.47 136.44 1188.11 136.44 1178.74 136.44 1178.74 127.04 1169.37 127.04 1160.01 127.04 1150.64 127.04 1141.28 127.04 1131.91 127.04 1122.54 127.04 1113.18 127.04 1103.81 127.04 1103.81 136.44 1094.45 136.44 1085.08 136.44 1085.08 145.83 1085.08 155.22 1075.71 155.22 1075.71 164.61 1075.71 174 1066.35 174 1066.35 183.39 1066.35 192.78 1056.98 192.78 1056.98 183.39 1047.62 183.39 1038.25 183.39 1038.25 174 1028.89 174 1028.89 164.61 1019.52 164.61 1019.52 155.22 1010.15 155.22 1000.79 155.22 991.42 155.22 982.06 155.22 972.69 155.22 963.33 155.22 963.33 164.61 953.96 164.61 944.59 164.61 935.23 164.61 935.23 174 925.86 174 925.86 183.39 916.5 183.39 916.5 192.78 907.13 192.78 907.13 202.17 897.76 202.17 897.76 211.56 888.4 211.56 879.03 211.56 879.03 202.17 869.67 202.17 860.3 202.17 850.93 202.17 850.93 192.78 841.57 192.78 832.2 192.78 832.2 183.39 822.84 183.39 813.47 183.39 813.47 192.78 804.11 192.78 794.74 192.78 785.37 192.78 785.37 202.17 776.01 202.17 766.64 202.17 757.28 202.17 757.28 211.56 747.91 211.56 747.91 220.96 738.54 220.96 729.18 220.96 729.18 230.35 719.81 230.35 719.81 239.74 710.45 239.74 701.08 239.74 701.08 249.13 710.45 249.13 719.81 249.13 719.81 258.52 729.18 258.52 738.54 258.52 747.91 258.52 747.91 267.91 757.28 267.91 757.28 277.3 766.64 277.3 766.64 286.7 776.01 286.7 785.37 286.7 794.74 286.7 794.74 296.09 804.11 296.09 813.47 296.09 822.84 296.09 832.2 296.09 841.57 296.09 850.93 296.09 850.93 286.7 860.3 286.7 869.67 286.7 869.67 277.3 879.03 277.3 888.4 277.3 897.76 277.3 907.13 277.3 907.13 286.7 916.5 286.7 925.86 286.7 925.86 296.09 935.23 296.09 944.59 296.09 953.96 296.09 963.33 296.09 972.69 296.09 982.06 296.09 991.42 296.09 1000.79 296.09 1000.79 305.48 1010.15 305.48 1010.15 296.09 1019.52 296.09 1019.52 286.7 1028.89 286.7 1028.89 277.3 1028.89 267.91 1038.25 267.91 1038.25 258.52 1047.62 258.52 1056.98 258.52 1066.35 258.52 1075.71 258.52 1085.08 258.52 1094.45 258.52 1094.45 267.91 1103.81 267.91 1113.18 267.91 1113.18 277.3 1122.54 277.3 1122.54 286.7 1131.91 286.7 1131.91 296.09 1141.28 296.09 1141.28 305.48 1150.64 305.48 1150.64 296.09 1160.01 296.09 1169.37 296.09 1178.74 296.09 1178.74 286.7 1188.11 286.7 1188.11 277.3 1197.47 277.3 1206.84 277.3 1206.84 267.91 1216.2 267.91 1225.57 267.91 1234.93 267.91 1244.3 267.91 1253.67 267.91 1263.03 267.91 1263.03 277.3 1272.4 277.3 1272.4 286.7 1281.76 286.7 1281.76 296.09 1291.13 296.09 1300.5 296.09 1309.86 296.09 1309.86 286.7 1319.23 286.7 1319.23 277.3 1328.59 277.3 1337.96 277.3 1347.33 277.3 1356.69 277.3 1366.06 277.3 1366.06 286.7 1375.42 286.7 1384.79 286.7 1394.15 286.7 1394.15 277.3 1403.52 277.3 1403.52 267.91 1412.89 267.91 1412.89 258.52 1422.25 258.52 1431.62 258.52 1440.98 258.52 1450.35 258.52 1450.35 267.91 1459.71 267.91 1469.08 267.91 1478.45 267.91 1478.45 258.52 1478.45 249.13 1469.08 249.13"/><polygon class="cls-5" points="1487.81 286.7 1487.81 277.3 1478.45 277.3 1478.45 267.91 1469.08 267.91 1459.71 267.91 1450.35 267.91 1450.35 258.52 1440.98 258.52 1431.62 258.52 1422.25 258.52 1412.89 258.52 1412.89 267.91 1403.52 267.91 1403.52 277.3 1394.15 277.3 1394.15 286.7 1384.79 286.7 1375.42 286.7 1366.06 286.7 1366.06 277.3 1356.69 277.3 1347.33 277.3 1337.96 277.3 1328.59 277.3 1319.23 277.3 1319.23 286.7 1309.86 286.7 1309.86 296.09 1300.5 296.09 1291.13 296.09 1281.76 296.09 1281.76 286.7 1272.4 286.7 1272.4 277.3 1263.03 277.3 1263.03 267.91 1253.67 267.91 1244.3 267.91 1234.93 267.91 1225.57 267.91 1216.2 267.91 1206.84 267.91 1206.84 277.3 1197.47 277.3 1188.11 277.3 1188.11 286.7 1178.74 286.7 1178.74 296.09 1169.37 296.09 1160.01 296.09 1150.64 296.09 1150.64 305.48 1141.28 305.48 1141.28 296.09 1131.91 296.09 1131.91 286.7 1122.54 286.7 1122.54 277.3 1113.18 277.3 1113.18 267.91 1103.81 267.91 1094.45 267.91 1094.45 258.52 1085.08 258.52 1075.71 258.52 1066.35 258.52 1056.98 258.52 1047.62 258.52 1038.25 258.52 1038.25 267.91 1028.89 267.91 1028.89 277.3 1028.89 286.7 1019.52 286.7 1019.52 296.09 1010.15 296.09 1010.15 305.48 1000.79 305.48 1000.79 296.09 991.42 296.09 982.06 296.09 972.69 296.09 963.33 296.09 953.96 296.09 944.59 296.09 935.23 296.09 925.86 296.09 925.86 286.7 916.5 286.7 907.13 286.7 907.13 277.3 897.76 277.3 888.4 277.3 879.03 277.3 869.67 277.3 869.67 286.7 860.3 286.7 850.93 286.7 850.93 296.09 841.57 296.09 832.2 296.09 822.84 296.09 813.47 296.09 804.11 296.09 794.74 296.09 794.74 286.7 785.37 286.7 776.01 286.7 766.64 286.7 766.64 277.3 757.28 277.3 757.28 267.91 747.91 267.91 747.91 258.52 738.54 258.52 729.18 258.52 719.81 258.52 719.81 249.13 710.45 249.13 701.08 249.13 701.08 258.52 691.72 258.52 682.35 258.52 682.35 267.91 672.98 267.91 672.98 277.3 663.62 277.3 663.62 286.7 654.25 286.7 654.25 296.09 644.89 296.09 635.52 296.09 626.15 296.09 626.15 286.7 616.79 286.7 607.42 286.7 598.06 286.7 588.69 286.7 579.33 286.7 579.33 296.09 569.96 296.09 560.59 296.09 551.23 296.09 541.86 296.09 532.5 296.09 532.5 286.7 523.13 286.7 513.76 286.7 504.4 286.7 495.03 286.7 495.03 296.09 485.67 296.09 485.67 305.48 495.03 305.48 495.03 314.87 504.4 314.87 504.4 324.26 513.76 324.26 523.13 324.26 532.5 324.26 541.86 324.26 551.23 324.26 560.59 324.26 569.96 324.26 579.33 324.26 579.33 314.87 588.69 314.87 598.06 314.87 607.42 314.87 616.79 314.87 626.15 314.87 635.52 314.87 644.89 314.87 654.25 314.87 654.25 324.26 663.62 324.26 672.98 324.26 672.98 333.65 682.35 333.65 691.72 333.65 691.72 343.04 701.08 343.04 701.08 352.44 710.45 352.44 719.81 352.44 729.18 352.44 738.54 352.44 747.91 352.44 757.28 352.44 766.64 352.44 776.01 352.44 776.01 343.04 785.37 343.04 794.74 343.04 804.11 343.04 813.47 343.04 822.84 343.04 832.2 343.04 832.2 333.65 841.57 333.65 850.93 333.65 860.3 333.65 869.67 333.65 879.03 333.65 888.4 333.65 897.76 333.65 907.13 333.65 916.5 333.65 916.5 343.04 925.86 343.04 935.23 343.04 944.59 343.04 953.96 343.04 963.33 343.04 963.33 352.44 972.69 352.44 982.06 352.44 991.42 352.44 1000.79 352.44 1010.15 352.44 1019.52 352.44 1028.89 352.44 1038.25 352.44 1047.62 352.44 1056.98 352.44 1056.98 343.04 1066.35 343.04 1075.71 343.04 1085.08 343.04 1094.45 343.04 1103.81 343.04 1113.18 343.04 1122.54 343.04 1131.91 343.04 1141.28 343.04 1150.64 343.04 1160.01 343.04 1169.37 343.04 1169.37 333.65 1178.74 333.65 1188.11 333.65 1197.47 333.65 1206.84 333.65 1216.2 333.65 1225.57 333.65 1234.93 333.65 1244.3 333.65 1253.67 333.65 1263.03 333.65 1272.4 333.65 1281.76 333.65 1291.13 333.65 1291.13 343.04 1300.5 343.04 1309.86 343.04 1319.23 343.04 1319.23 352.44 1328.59 352.44 1337.96 352.44 1347.33 352.44 1356.69 352.44 1366.06 352.44 1375.42 352.44 1384.79 352.44 1394.15 352.44 1403.52 352.44 1412.89 352.44 1412.89 343.04 1422.25 343.04 1431.62 343.04 1440.98 343.04 1440.98 333.65 1450.35 333.65 1459.71 333.65 1469.08 333.65 1469.08 324.26 1478.45 324.26 1487.81 324.26 1497.18 324.26 1497.18 314.87 1497.18 305.48 1497.18 296.09 1497.18 286.7 1487.81 286.7"/></g></g><g id="nuage2"><g class="cls-2"><polygon class="cls-6" points="312.16 176.7 312.16 167.3 312.16 157.91 302.8 157.91 293.43 157.91 284.06 157.91 284.06 148.52 284.06 139.13 274.7 139.13 274.7 129.74 265.33 129.74 265.33 120.35 255.97 120.35 246.6 120.35 246.6 110.96 237.24 110.96 227.87 110.96 218.5 110.96 209.14 110.96 209.14 101.56 199.77 101.56 199.77 92.17 190.41 92.17 181.04 92.17 171.67 92.17 162.31 92.17 152.94 92.17 152.94 82.78 143.58 82.78 143.58 73.39 134.21 73.39 124.84 73.39 115.48 73.39 115.48 64 106.11 64 96.75 64 96.75 73.39 87.38 73.39 78.02 73.39 78.02 82.78 68.65 82.78 59.28 82.78 49.92 82.78 40.55 82.78 31.19 82.78 21.82 82.78 12.45 82.78 3.09 82.78 3.09 92.17 -6.28 92.17 -15.64 92.17 -15.64 101.56 -15.64 110.96 -15.64 120.35 -25.01 120.35 -25.01 129.74 -34.38 129.74 -34.38 139.13 -43.74 139.13 -43.74 148.52 -43.74 157.91 -43.74 167.3 -53.11 167.3 -53.11 176.7 -53.11 186.09 -43.74 186.09 -43.74 176.7 -34.38 176.7 -34.38 167.3 -25.01 167.3 -25.01 157.91 -15.64 157.91 -15.64 148.52 -6.28 148.52 -6.28 139.13 3.09 139.13 12.45 139.13 21.82 139.13 31.19 139.13 40.55 139.13 40.55 148.52 49.92 148.52 49.92 157.91 59.28 157.91 68.65 157.91 68.65 148.52 78.02 148.52 78.02 139.13 87.38 139.13 87.38 129.74 96.75 129.74 96.75 120.35 106.11 120.35 106.11 110.96 115.48 110.96 115.48 101.56 124.84 101.56 134.21 101.56 143.58 101.56 152.94 101.56 152.94 110.96 162.31 110.96 171.67 110.96 171.67 120.35 181.04 120.35 190.41 120.35 190.41 129.74 190.41 139.13 190.41 148.52 190.41 157.91 199.77 157.91 209.14 157.91 218.5 157.91 218.5 148.52 227.87 148.52 227.87 139.13 237.24 139.13 246.6 139.13 255.97 139.13 255.97 148.52 255.97 157.91 265.33 157.91 265.33 167.3 274.7 167.3 284.06 167.3 293.43 167.3 293.43 176.7 302.8 176.7 302.8 186.09 312.16 186.09 312.16 195.48 321.53 195.48 321.53 186.09 321.53 176.7 312.16 176.7"/><polygon class="cls-4" points="171.67 120.35 171.67 110.96 162.31 110.96 152.94 110.96 152.94 101.56 143.58 101.56 134.21 101.56 124.84 101.56 115.48 101.56 115.48 110.96 106.11 110.96 106.11 120.35 96.75 120.35 96.75 129.74 87.38 129.74 87.38 139.13 78.02 139.13 78.02 148.52 68.65 148.52 68.65 157.91 59.28 157.91 49.92 157.91 49.92 148.52 40.55 148.52 40.55 139.13 31.19 139.13 21.82 139.13 12.45 139.13 3.09 139.13 -6.28 139.13 -6.28 148.52 -15.64 148.52 -15.64 157.91 -25.01 157.91 -25.01 167.3 -34.38 167.3 -34.38 176.7 -43.74 176.7 -43.74 186.09 -53.11 186.09 -53.11 195.48 -43.74 195.48 -43.74 204.87 -34.38 204.87 -34.38 214.26 -25.01 214.26 -15.64 214.26 -6.28 214.26 -6.28 204.87 3.09 204.87 12.45 204.87 12.45 195.48 21.82 195.48 31.19 195.48 40.55 195.48 49.92 195.48 49.92 204.87 59.28 204.87 59.28 195.48 59.28 186.09 68.65 186.09 68.65 176.7 78.02 176.7 87.38 176.7 96.75 176.7 106.11 176.7 106.11 186.09 115.48 186.09 124.84 186.09 124.84 195.48 134.21 195.48 143.58 195.48 152.94 195.48 152.94 186.09 162.31 186.09 162.31 176.7 171.67 176.7 171.67 167.3 181.04 167.3 190.41 167.3 190.41 157.91 190.41 148.52 190.41 139.13 190.41 129.74 190.41 120.35 181.04 120.35 171.67 120.35"/><polygon class="cls-4" points="255.97 157.91 255.97 148.52 255.97 139.13 246.6 139.13 237.24 139.13 227.87 139.13 227.87 148.52 218.5 148.52 218.5 157.91 218.5 167.3 227.87 167.3 227.87 176.7 237.24 176.7 237.24 186.09 246.6 186.09 246.6 195.48 255.97 195.48 255.97 186.09 255.97 176.7 265.33 176.7 265.33 167.3 265.33 157.91 255.97 157.91"/><polygon class="cls-5" points="312.16 195.48 312.16 186.09 302.8 186.09 302.8 176.7 293.43 176.7 293.43 167.3 284.06 167.3 274.7 167.3 265.33 167.3 265.33 176.7 255.97 176.7 255.97 186.09 255.97 195.48 246.6 195.48 246.6 186.09 237.24 186.09 237.24 176.7 227.87 176.7 227.87 167.3 218.5 167.3 218.5 157.91 209.14 157.91 199.77 157.91 190.41 157.91 190.41 167.3 181.04 167.3 171.67 167.3 171.67 176.7 162.31 176.7 162.31 186.09 152.94 186.09 152.94 195.48 143.58 195.48 134.21 195.48 124.84 195.48 124.84 186.09 115.48 186.09 106.11 186.09 106.11 176.7 96.75 176.7 87.38 176.7 78.02 176.7 68.65 176.7 68.65 186.09 59.28 186.09 59.28 195.48 59.28 204.87 49.92 204.87 49.92 195.48 40.55 195.48 31.19 195.48 21.82 195.48 12.45 195.48 12.45 204.87 3.09 204.87 -6.28 204.87 -6.28 214.26 -15.64 214.26 -25.01 214.26 -34.38 214.26 -34.38 204.87 -43.74 204.87 -43.74 214.26 -43.74 223.65 -34.38 223.65 -34.38 233.04 -25.01 233.04 -25.01 242.44 -15.64 242.44 -6.28 242.44 3.09 242.44 12.45 242.44 21.82 242.44 31.19 242.44 31.19 251.83 40.55 251.83 49.92 251.83 59.28 251.83 68.65 251.83 78.02 251.83 78.02 242.44 87.38 242.44 96.75 242.44 106.11 242.44 115.48 242.44 115.48 233.04 124.84 233.04 124.84 242.44 134.21 242.44 143.58 242.44 152.94 242.44 162.31 242.44 162.31 251.83 171.67 251.83 181.04 251.83 190.41 251.83 199.77 251.83 209.14 251.83 218.5 251.83 227.87 251.83 227.87 242.44 237.24 242.44 246.6 242.44 255.97 242.44 265.33 242.44 274.7 242.44 284.06 242.44 293.43 242.44 302.8 242.44 302.8 233.04 312.16 233.04 312.16 223.65 321.53 223.65 321.53 214.26 321.53 204.87 321.53 195.48 312.16 195.48"/></g></g><g id="nuage3"><g class="cls-2"><rect class="cls-6" x="187.86" y="465.13" width="9.37" height="9.39"/><polygon class="cls-6" points="169.13 474.52 159.76 474.52 150.4 474.52 141.03 474.52 131.67 474.52 122.3 474.52 122.3 483.91 112.94 483.91 103.57 483.91 103.57 493.3 94.2 493.3 94.2 502.7 84.84 502.7 75.47 502.7 66.11 502.7 66.11 512.09 56.74 512.09 47.37 512.09 38.01 512.09 38.01 521.48 28.64 521.48 28.64 530.87 19.28 530.87 19.28 540.26 19.28 549.65 19.28 559.04 19.28 568.43 9.91 568.43 9.91 577.83 0.54 577.83 -8.82 577.83 -18.19 577.83 -18.19 587.22 -27.55 587.22 -36.92 587.22 -46.28 587.22 -46.28 596.61 -55.65 596.61 -65.02 596.61 -74.38 596.61 -83.75 596.61 -83.75 606 -74.38 606 -65.02 606 -55.65 606 -46.28 606 -36.92 606 -27.55 606 -18.19 606 -8.82 606 0.54 606 9.91 606 19.28 606 19.28 596.61 28.64 596.61 28.64 587.22 38.01 587.22 38.01 577.83 38.01 568.43 47.37 568.43 47.37 559.04 47.37 549.65 56.74 549.65 56.74 540.26 66.11 540.26 75.47 540.26 84.84 540.26 94.2 540.26 103.57 540.26 103.57 549.65 112.94 549.65 122.3 549.65 131.67 549.65 131.67 559.04 141.03 559.04 150.4 559.04 159.76 559.04 159.76 549.65 159.76 540.26 159.76 530.87 169.13 530.87 169.13 521.48 169.13 512.09 169.13 502.7 169.13 493.3 178.5 493.3 178.5 483.91 187.86 483.91 187.86 474.52 178.5 474.52 169.13 474.52"/><polygon class="cls-6" points="1311.76 624.78 1302.4 624.78 1302.4 615.39 1293.03 615.39 1283.67 615.39 1283.67 606 1274.3 606 1264.93 606 1255.57 606 1246.2 606 1246.2 596.61 1236.84 596.61 1227.47 596.61 1218.11 596.61 1218.11 587.22 1208.74 587.22 1208.74 577.83 1199.37 577.83 1199.37 568.43 1190.01 568.43 1180.64 568.43 1171.28 568.43 1161.91 568.43 1161.91 577.83 1152.54 577.83 1152.54 568.43 1152.54 559.04 1143.18 559.04 1143.18 549.65 1143.18 540.26 1133.81 540.26 1124.45 540.26 1124.45 530.87 1115.08 530.87 1115.08 521.48 1115.08 512.09 1105.71 512.09 1096.35 512.09 1086.98 512.09 1077.62 512.09 1068.25 512.09 1068.25 502.7 1058.89 502.7 1049.52 502.7 1040.15 502.7 1030.79 502.7 1021.42 502.7 1012.06 502.7 1012.06 512.09 1002.69 512.09 993.33 512.09 983.96 512.09 974.59 512.09 965.23 512.09 965.23 521.48 955.86 521.48 946.5 521.48 946.5 512.09 937.13 512.09 937.13 502.7 927.76 502.7 918.4 502.7 909.03 502.7 909.03 493.3 899.67 493.3 890.3 493.3 880.93 493.3 871.57 493.3 862.2 493.3 852.84 493.3 852.84 483.91 852.84 474.52 852.84 465.13 843.47 465.13 843.47 455.74 834.11 455.74 824.74 455.74 824.74 446.35 815.37 446.35 806.01 446.35 806.01 436.96 796.64 436.96 787.28 436.96 777.91 436.96 768.54 436.96 768.54 427.56 759.18 427.56 759.18 418.17 749.81 418.17 740.45 418.17 731.08 418.17 731.08 408.78 721.72 408.78 712.35 408.78 702.98 408.78 693.62 408.78 684.25 408.78 684.25 399.39 674.89 399.39 674.89 390 665.52 390 665.52 380.61 656.15 380.61 656.15 371.22 646.79 371.22 637.42 371.22 637.42 361.83 628.06 361.83 618.69 361.83 609.33 361.83 599.96 361.83 590.59 361.83 581.23 361.83 581.23 371.22 571.86 371.22 562.5 371.22 553.13 371.22 553.13 380.61 543.76 380.61 543.76 371.22 534.4 371.22 534.4 361.83 525.03 361.83 525.03 352.44 515.67 352.44 506.3 352.44 496.94 352.44 487.57 352.44 478.2 352.44 468.84 352.44 459.47 352.44 450.11 352.44 440.74 352.44 431.37 352.44 422.01 352.44 422.01 361.83 412.64 361.83 403.28 361.83 393.91 361.83 393.91 371.22 384.54 371.22 384.54 380.61 375.18 380.61 375.18 390 365.81 390 365.81 399.39 356.45 399.39 356.45 408.78 347.08 408.78 337.71 408.78 328.35 408.78 328.35 418.17 318.98 418.17 309.62 418.17 300.25 418.17 290.89 418.17 290.89 408.78 281.52 408.78 272.15 408.78 262.79 408.78 253.42 408.78 244.06 408.78 244.06 418.17 234.69 418.17 225.32 418.17 215.96 418.17 206.59 418.17 206.59 427.56 206.59 436.96 197.23 436.96 197.23 446.35 197.23 455.74 197.23 465.13 206.59 465.13 206.59 455.74 215.96 455.74 225.32 455.74 234.69 455.74 244.06 455.74 253.42 455.74 262.79 455.74 272.15 455.74 281.52 455.74 290.89 455.74 300.25 455.74 309.62 455.74 318.98 455.74 318.98 465.13 328.35 465.13 337.71 465.13 347.08 465.13 347.08 474.52 356.45 474.52 365.81 474.52 365.81 483.91 375.18 483.91 375.18 474.52 375.18 465.13 384.54 465.13 384.54 455.74 384.54 446.35 393.91 446.35 393.91 436.96 403.28 436.96 403.28 427.56 412.64 427.56 412.64 418.17 422.01 418.17 431.37 418.17 431.37 408.78 440.74 408.78 450.11 408.78 450.11 399.39 459.47 399.39 468.84 399.39 478.2 399.39 487.57 399.39 487.57 408.78 496.94 408.78 506.3 408.78 515.67 408.78 525.03 408.78 534.4 408.78 543.76 408.78 543.76 418.17 553.13 418.17 553.13 427.56 562.5 427.56 562.5 436.96 571.86 436.96 571.86 446.35 571.86 455.74 581.23 455.74 581.23 465.13 590.59 465.13 590.59 474.52 599.96 474.52 599.96 483.91 599.96 493.3 609.33 493.3 618.69 493.3 628.06 493.3 628.06 483.91 637.42 483.91 646.79 483.91 646.79 474.52 656.15 474.52 665.52 474.52 674.89 474.52 674.89 465.13 684.25 465.13 693.62 465.13 702.98 465.13 712.35 465.13 721.72 465.13 721.72 474.52 731.08 474.52 740.45 474.52 749.81 474.52 749.81 483.91 759.18 483.91 759.18 493.3 768.54 493.3 777.91 493.3 777.91 502.7 787.28 502.7 787.28 512.09 796.64 512.09 796.64 521.48 796.64 530.87 796.64 540.26 806.01 540.26 806.01 549.65 815.37 549.65 824.74 549.65 834.11 549.65 834.11 559.04 843.47 559.04 852.84 559.04 862.2 559.04 871.57 559.04 871.57 549.65 880.93 549.65 890.3 549.65 899.67 549.65 909.03 549.65 909.03 559.04 918.4 559.04 927.76 559.04 937.13 559.04 937.13 568.43 946.5 568.43 955.86 568.43 955.86 559.04 965.23 559.04 965.23 549.65 974.59 549.65 974.59 540.26 983.96 540.26 983.96 530.87 993.33 530.87 1002.69 530.87 1012.06 530.87 1021.42 530.87 1030.79 530.87 1030.79 540.26 1040.15 540.26 1049.52 540.26 1049.52 549.65 1058.89 549.65 1068.25 549.65 1068.25 559.04 1077.62 559.04 1086.98 559.04 1086.98 568.43 1086.98 577.83 1096.35 577.83 1096.35 587.22 1105.71 587.22 1105.71 596.61 1115.08 596.61 1115.08 606 1124.45 606 1133.81 606 1143.18 606 1152.54 606 1161.91 606 1171.28 606 1171.28 596.61 1180.64 596.61 1190.01 596.61 1199.37 596.61 1199.37 606 1208.74 606 1218.11 606 1227.47 606 1227.47 615.39 1236.84 615.39 1246.2 615.39 1246.2 624.78 1255.57 624.78 1255.57 634.17 1264.93 634.17 1274.3 634.17 1283.67 634.17 1293.03 634.17 1302.4 634.17 1311.76 634.17 1321.13 634.17 1330.49 634.17 1330.49 624.78 1321.13 624.78 1311.76 624.78"/><polygon class="cls-6" points="1377.33 643.57 1377.33 652.96 1386.69 652.96 1396.06 652.96 1396.06 643.57 1386.69 643.57 1377.33 643.57"/><polygon class="cls-6" points="1499.08 643.57 1489.71 643.57 1480.35 643.57 1470.98 643.57 1461.62 643.57 1452.25 643.57 1452.25 652.96 1461.62 652.96 1470.98 652.96 1480.35 652.96 1489.71 652.96 1499.08 652.96 1508.45 652.96 1508.45 643.57 1499.08 643.57"/><polygon class="cls-6" points="1433.52 652.96 1424.15 652.96 1414.79 652.96 1405.42 652.96 1405.42 662.35 1414.79 662.35 1424.15 662.35 1433.52 662.35 1442.89 662.35 1452.25 662.35 1452.25 652.96 1442.89 652.96 1433.52 652.96"/><polygon class="cls-6" points="1508.45 652.96 1508.45 662.35 1517.81 662.35 1527.18 662.35 1527.18 652.96 1517.81 652.96 1508.45 652.96"/><polygon class="cls-6" points="1620.84 662.35 1611.47 662.35 1602.11 662.35 1602.11 652.96 1592.74 652.96 1583.37 652.96 1574.01 652.96 1564.64 652.96 1555.28 652.96 1555.28 662.35 1564.64 662.35 1574.01 662.35 1574.01 671.74 1583.37 671.74 1583.37 681.13 1592.74 681.13 1602.11 681.13 1611.47 681.13 1620.84 681.13 1630.2 681.13 1630.2 671.74 1630.2 662.35 1620.84 662.35"/><polygon class="cls-4" points="834.11 549.65 824.74 549.65 815.37 549.65 806.01 549.65 806.01 540.26 796.64 540.26 796.64 530.87 796.64 521.48 796.64 512.09 787.28 512.09 787.28 502.7 777.91 502.7 777.91 493.3 768.54 493.3 759.18 493.3 759.18 483.91 749.81 483.91 749.81 474.52 740.45 474.52 731.08 474.52 721.72 474.52 721.72 465.13 712.35 465.13 702.98 465.13 693.62 465.13 684.25 465.13 674.89 465.13 674.89 474.52 665.52 474.52 656.15 474.52 646.79 474.52 646.79 483.91 637.42 483.91 628.06 483.91 628.06 493.3 618.69 493.3 609.33 493.3 599.96 493.3 599.96 483.91 599.96 474.52 590.59 474.52 590.59 465.13 581.23 465.13 581.23 455.74 571.86 455.74 571.86 446.35 571.86 436.96 562.5 436.96 562.5 427.56 553.13 427.56 553.13 418.17 543.76 418.17 543.76 408.78 534.4 408.78 525.03 408.78 515.67 408.78 506.3 408.78 496.94 408.78 487.57 408.78 487.57 399.39 478.2 399.39 468.84 399.39 459.47 399.39 450.11 399.39 450.11 408.78 440.74 408.78 431.37 408.78 431.37 418.17 422.01 418.17 412.64 418.17 412.64 427.56 403.28 427.56 403.28 436.96 393.91 436.96 393.91 446.35 384.54 446.35 384.54 455.74 384.54 465.13 375.18 465.13 375.18 474.52 375.18 483.91 365.81 483.91 365.81 474.52 356.45 474.52 347.08 474.52 347.08 465.13 337.71 465.13 328.35 465.13 318.98 465.13 318.98 455.74 309.62 455.74 300.25 455.74 290.89 455.74 281.52 455.74 272.15 455.74 262.79 455.74 253.42 455.74 244.06 455.74 234.69 455.74 225.32 455.74 215.96 455.74 206.59 455.74 206.59 465.13 197.23 465.13 197.23 474.52 187.86 474.52 187.86 483.91 178.5 483.91 178.5 493.3 169.13 493.3 169.13 502.7 169.13 512.09 169.13 521.48 169.13 530.87 159.76 530.87 159.76 540.26 159.76 549.65 159.76 559.04 150.4 559.04 141.03 559.04 131.67 559.04 131.67 549.65 122.3 549.65 112.94 549.65 103.57 549.65 103.57 540.26 94.2 540.26 84.84 540.26 75.47 540.26 66.11 540.26 56.74 540.26 56.74 549.65 47.37 549.65 47.37 559.04 47.37 568.43 38.01 568.43 38.01 577.83 38.01 587.22 28.64 587.22 28.64 596.61 19.28 596.61 19.28 606 9.91 606 0.54 606 -8.82 606 -18.19 606 -27.55 606 -36.92 606 -46.28 606 -55.65 606 -65.02 606 -74.38 606 -83.75 606 -83.75 615.39 -93.11 615.39 -93.11 624.78 -102.48 624.78 -102.48 634.17 -111.85 634.17 -121.21 634.17 -121.21 643.57 -130.58 643.57 -139.94 643.57 -139.94 652.96 -149.31 652.96 -149.31 662.35 -158.68 662.35 -158.68 671.74 -158.68 681.13 -149.31 681.13 -149.31 671.74 -139.94 671.74 -130.58 671.74 -130.58 662.35 -121.21 662.35 -111.85 662.35 -111.85 652.96 -102.48 652.96 -93.11 652.96 -83.75 652.96 -74.38 652.96 -65.02 652.96 -55.65 652.96 -46.28 652.96 -36.92 652.96 -27.55 652.96 -27.55 643.57 -18.19 643.57 -8.82 643.57 0.54 643.57 0.54 634.17 9.91 634.17 9.91 624.78 19.28 624.78 28.64 624.78 28.64 615.39 38.01 615.39 38.01 606 47.37 606 56.74 606 56.74 596.61 66.11 596.61 66.11 587.22 75.47 587.22 84.84 587.22 94.2 587.22 103.57 587.22 103.57 577.83 112.94 577.83 122.3 577.83 131.67 577.83 141.03 577.83 150.4 577.83 159.76 577.83 159.76 587.22 169.13 587.22 178.5 587.22 187.86 587.22 197.23 587.22 197.23 596.61 206.59 596.61 215.96 596.61 225.32 596.61 225.32 606 234.69 606 234.69 596.61 244.06 596.61 244.06 587.22 253.42 587.22 253.42 577.83 253.42 568.43 262.79 568.43 262.79 559.04 262.79 549.65 272.15 549.65 272.15 540.26 281.52 540.26 281.52 530.87 290.89 530.87 290.89 521.48 300.25 521.48 309.62 521.48 318.98 521.48 328.35 521.48 337.71 521.48 347.08 521.48 356.45 521.48 365.81 521.48 375.18 521.48 384.54 521.48 384.54 530.87 393.91 530.87 393.91 540.26 403.28 540.26 412.64 540.26 412.64 549.65 422.01 549.65 431.37 549.65 431.37 559.04 440.74 559.04 440.74 549.65 450.11 549.65 459.47 549.65 459.47 540.26 468.84 540.26 478.2 540.26 487.57 540.26 496.94 540.26 506.3 540.26 506.3 549.65 515.67 549.65 525.03 549.65 525.03 559.04 525.03 568.43 534.4 568.43 543.76 568.43 553.13 568.43 553.13 559.04 562.5 559.04 562.5 549.65 571.86 549.65 581.23 549.65 590.59 549.65 599.96 549.65 609.33 549.65 609.33 559.04 618.69 559.04 628.06 559.04 637.42 559.04 637.42 568.43 646.79 568.43 656.15 568.43 656.15 577.83 665.52 577.83 665.52 587.22 665.52 596.61 674.89 596.61 674.89 606 674.89 615.39 684.25 615.39 684.25 606 693.62 606 702.98 606 702.98 596.61 712.35 596.61 721.72 596.61 731.08 596.61 731.08 587.22 740.45 587.22 749.81 587.22 759.18 587.22 759.18 577.83 768.54 577.83 777.91 577.83 787.28 577.83 787.28 568.43 796.64 568.43 806.01 568.43 806.01 577.83 806.01 587.22 815.37 587.22 824.74 587.22 824.74 577.83 834.11 577.83 834.11 568.43 843.47 568.43 843.47 559.04 834.11 559.04 834.11 549.65"/><polygon class="cls-4" points="1086.98 559.04 1077.62 559.04 1068.25 559.04 1068.25 549.65 1058.89 549.65 1049.52 549.65 1049.52 540.26 1040.15 540.26 1030.79 540.26 1030.79 530.87 1021.42 530.87 1012.06 530.87 1002.69 530.87 993.33 530.87 983.96 530.87 983.96 540.26 974.59 540.26 974.59 549.65 965.23 549.65 965.23 559.04 955.86 559.04 955.86 568.43 946.5 568.43 937.13 568.43 937.13 559.04 927.76 559.04 918.4 559.04 909.03 559.04 909.03 549.65 899.67 549.65 890.3 549.65 880.93 549.65 871.57 549.65 871.57 559.04 880.93 559.04 890.3 559.04 890.3 568.43 899.67 568.43 899.67 577.83 909.03 577.83 909.03 587.22 918.4 587.22 918.4 596.61 918.4 606 927.76 606 927.76 615.39 937.13 615.39 937.13 624.78 946.5 624.78 946.5 634.17 955.86 634.17 965.23 634.17 974.59 634.17 974.59 624.78 983.96 624.78 993.33 624.78 993.33 615.39 1002.69 615.39 1012.06 615.39 1012.06 606 1021.42 606 1021.42 596.61 1030.79 596.61 1040.15 596.61 1040.15 587.22 1049.52 587.22 1049.52 577.83 1058.89 577.83 1068.25 577.83 1077.62 577.83 1086.98 577.83 1086.98 568.43 1086.98 559.04"/><rect class="cls-4" x="1086.98" y="577.83" width="9.37" height="9.39"/><rect class="cls-4" x="1105.72" y="596.61" width="9.37" height="9.39"/><polygon class="cls-4" points="1246.2 615.39 1236.84 615.39 1227.47 615.39 1227.47 606 1218.11 606 1208.74 606 1199.37 606 1199.37 596.61 1190.01 596.61 1180.64 596.61 1171.28 596.61 1171.28 606 1161.91 606 1152.54 606 1143.18 606 1133.81 606 1124.45 606 1115.08 606 1115.08 615.39 1124.45 615.39 1124.45 624.78 1133.81 624.78 1143.18 624.78 1152.54 624.78 1161.91 624.78 1161.91 615.39 1171.28 615.39 1180.64 615.39 1190.01 615.39 1199.37 615.39 1208.74 615.39 1218.11 615.39 1218.11 624.78 1227.47 624.78 1236.84 624.78 1236.84 634.17 1236.84 643.57 1246.2 643.57 1255.57 643.57 1255.57 634.17 1255.57 624.78 1246.2 624.78 1246.2 615.39"/><rect class="cls-4" x="1358.59" y="634.17" width="9.37" height="9.39"/><rect class="cls-4" x="1367.96" y="643.57" width="9.37" height="9.39"/><polygon class="cls-4" points="1489.71 652.96 1480.35 652.96 1470.98 652.96 1461.62 652.96 1452.25 652.96 1452.25 662.35 1442.89 662.35 1433.52 662.35 1424.15 662.35 1414.79 662.35 1405.42 662.35 1405.42 652.96 1396.06 652.96 1386.69 652.96 1377.33 652.96 1377.33 662.35 1386.69 662.35 1386.69 671.74 1396.06 671.74 1405.42 671.74 1414.79 671.74 1424.15 671.74 1424.15 681.13 1433.52 681.13 1433.52 671.74 1442.89 671.74 1452.25 671.74 1461.62 671.74 1470.98 671.74 1470.98 662.35 1480.35 662.35 1489.71 662.35 1499.08 662.35 1508.45 662.35 1508.45 652.96 1499.08 652.96 1489.71 652.96"/><polygon class="cls-4" points="1583.37 681.13 1583.37 671.74 1574.01 671.74 1574.01 662.35 1564.64 662.35 1555.28 662.35 1545.91 662.35 1536.54 662.35 1527.18 662.35 1517.81 662.35 1517.81 671.74 1527.18 671.74 1536.54 671.74 1545.91 671.74 1555.28 671.74 1564.64 671.74 1564.64 681.13 1574.01 681.13 1574.01 690.52 1583.37 690.52 1592.74 690.52 1592.74 681.13 1583.37 681.13"/><polygon class="cls-5" points="1564.64 681.13 1564.64 671.74 1555.28 671.74 1545.91 671.74 1536.54 671.74 1527.18 671.74 1517.81 671.74 1517.81 662.35 1508.45 662.35 1499.08 662.35 1489.71 662.35 1480.35 662.35 1470.98 662.35 1470.98 671.74 1461.62 671.74 1452.25 671.74 1442.89 671.74 1433.52 671.74 1433.52 681.13 1424.15 681.13 1424.15 671.74 1414.79 671.74 1405.42 671.74 1396.06 671.74 1386.69 671.74 1386.69 662.35 1377.33 662.35 1377.33 652.96 1367.96 652.96 1367.96 643.57 1358.59 643.57 1358.59 634.17 1349.23 634.17 1339.86 634.17 1330.49 634.17 1321.13 634.17 1311.76 634.17 1302.4 634.17 1293.03 634.17 1283.67 634.17 1274.3 634.17 1264.93 634.17 1255.57 634.17 1255.57 643.57 1246.2 643.57 1236.84 643.57 1236.84 634.17 1236.84 624.78 1227.47 624.78 1218.11 624.78 1218.11 615.39 1208.74 615.39 1199.37 615.39 1190.01 615.39 1180.64 615.39 1171.28 615.39 1161.91 615.39 1161.91 624.78 1152.54 624.78 1143.18 624.78 1133.81 624.78 1124.45 624.78 1124.45 615.39 1115.08 615.39 1115.08 606 1105.71 606 1105.71 596.61 1105.71 587.22 1096.35 587.22 1086.98 587.22 1086.98 577.83 1077.62 577.83 1068.25 577.83 1058.89 577.83 1049.52 577.83 1049.52 587.22 1040.15 587.22 1040.15 596.61 1030.79 596.61 1021.42 596.61 1021.42 606 1012.06 606 1012.06 615.39 1002.69 615.39 993.33 615.39 993.33 624.78 983.96 624.78 974.59 624.78 974.59 634.17 965.23 634.17 955.86 634.17 946.5 634.17 946.5 624.78 937.13 624.78 937.13 615.39 927.76 615.39 927.76 606 918.4 606 918.4 596.61 918.4 587.22 909.03 587.22 909.03 577.83 899.67 577.83 899.67 568.43 890.3 568.43 890.3 559.04 880.93 559.04 871.57 559.04 862.2 559.04 852.84 559.04 843.47 559.04 843.47 568.43 834.11 568.43 834.11 577.83 824.74 577.83 824.74 587.22 815.37 587.22 806.01 587.22 806.01 577.83 806.01 568.43 796.64 568.43 787.28 568.43 787.28 577.83 777.91 577.83 768.54 577.83 759.18 577.83 759.18 587.22 749.81 587.22 740.45 587.22 731.08 587.22 731.08 596.61 721.72 596.61 712.35 596.61 702.98 596.61 702.98 606 693.62 606 684.25 606 684.25 615.39 674.89 615.39 674.89 606 674.89 596.61 665.52 596.61 665.52 587.22 665.52 577.83 656.15 577.83 656.15 568.43 646.79 568.43 637.42 568.43 637.42 559.04 628.06 559.04 618.69 559.04 609.33 559.04 609.33 549.65 599.96 549.65 590.59 549.65 581.23 549.65 571.86 549.65 562.5 549.65 562.5 559.04 553.13 559.04 553.13 568.43 543.76 568.43 534.4 568.43 525.03 568.43 525.03 559.04 525.03 549.65 515.67 549.65 506.3 549.65 506.3 540.26 496.94 540.26 487.57 540.26 478.2 540.26 468.84 540.26 459.47 540.26 459.47 549.65 450.11 549.65 440.74 549.65 440.74 559.04 431.37 559.04 431.37 549.65 422.01 549.65 412.64 549.65 412.64 540.26 403.28 540.26 393.91 540.26 393.91 530.87 384.54 530.87 384.54 521.48 375.18 521.48 365.81 521.48 356.45 521.48 347.08 521.48 337.71 521.48 328.35 521.48 318.98 521.48 309.62 521.48 300.25 521.48 290.89 521.48 290.89 530.87 281.52 530.87 281.52 540.26 272.15 540.26 272.15 549.65 262.79 549.65 262.79 559.04 262.79 568.43 253.42 568.43 253.42 577.83 253.42 587.22 244.06 587.22 244.06 596.61 234.69 596.61 234.69 606 225.32 606 225.32 596.61 215.96 596.61 206.59 596.61 197.23 596.61 197.23 587.22 187.86 587.22 178.5 587.22 169.13 587.22 159.76 587.22 159.76 577.83 150.4 577.83 141.03 577.83 131.67 577.83 122.3 577.83 112.94 577.83 103.57 577.83 103.57 587.22 94.2 587.22 84.84 587.22 75.47 587.22 66.11 587.22 66.11 596.61 56.74 596.61 56.74 606 47.37 606 38.01 606 38.01 615.39 28.64 615.39 28.64 624.78 19.28 624.78 9.91 624.78 9.91 634.17 0.54 634.17 0.54 643.57 -8.82 643.57 -18.19 643.57 -27.55 643.57 -27.55 652.96 -36.92 652.96 -46.28 652.96 -55.65 652.96 -65.02 652.96 -74.38 652.96 -83.75 652.96 -93.11 652.96 -102.48 652.96 -111.85 652.96 -111.85 662.35 -121.21 662.35 -130.58 662.35 -130.58 671.74 -139.94 671.74 -149.31 671.74 -149.31 681.13 -149.31 690.52 -139.94 690.52 -130.58 690.52 -121.21 690.52 -111.85 690.52 -102.48 690.52 -93.11 690.52 -83.75 690.52 -74.38 690.52 -74.38 681.13 -65.02 681.13 -65.02 690.52 -55.65 690.52 -46.28 690.52 -36.92 690.52 -27.55 690.52 -18.19 690.52 -18.19 681.13 -8.82 681.13 0.54 681.13 0.54 671.74 9.91 671.74 19.28 671.74 19.28 662.35 28.64 662.35 38.01 662.35 38.01 652.96 47.37 652.96 56.74 652.96 66.11 652.96 75.47 652.96 84.84 652.96 94.2 652.96 103.57 652.96 103.57 662.35 112.94 662.35 122.3 662.35 131.67 662.35 141.03 662.35 141.03 671.74 150.4 671.74 159.76 671.74 159.76 681.13 169.13 681.13 178.5 681.13 187.86 681.13 187.86 690.52 197.23 690.52 206.59 690.52 215.96 690.52 215.96 699.91 225.32 699.91 234.69 699.91 244.06 699.91 253.42 699.91 262.79 699.91 272.15 699.91 281.52 699.91 290.89 699.91 300.25 699.91 309.62 699.91 318.98 699.91 328.35 699.91 337.71 699.91 347.08 699.91 356.45 699.91 365.81 699.91 375.18 699.91 375.18 690.52 384.54 690.52 393.91 690.52 403.28 690.52 412.64 690.52 422.01 690.52 422.01 681.13 431.37 681.13 431.37 690.52 440.74 690.52 450.11 690.52 459.47 690.52 468.84 690.52 478.2 690.52 478.2 699.91 487.57 699.91 496.94 699.91 506.3 699.91 515.67 699.91 525.03 699.91 525.03 709.3 534.4 709.3 543.76 709.3 553.13 709.3 562.5 709.3 562.5 718.7 571.86 718.7 581.23 718.7 590.59 718.7 599.96 718.7 609.33 718.7 618.69 718.7 628.06 718.7 637.42 718.7 646.79 718.7 646.79 728.09 656.15 728.09 665.52 728.09 674.89 728.09 684.25 728.09 693.62 728.09 702.98 728.09 712.35 728.09 712.35 718.7 721.72 718.7 731.08 718.7 740.45 718.7 749.81 718.7 759.18 718.7 768.54 718.7 768.54 709.3 777.91 709.3 787.28 709.3 796.64 709.3 806.01 709.3 815.37 709.3 815.37 699.91 824.74 699.91 834.11 699.91 843.47 699.91 852.84 699.91 852.84 690.52 862.2 690.52 871.57 690.52 871.57 681.13 880.93 681.13 890.3 681.13 890.3 671.74 899.67 671.74 909.03 671.74 918.4 671.74 918.4 662.35 927.76 662.35 937.13 662.35 946.5 662.35 955.86 662.35 965.23 662.35 974.59 662.35 983.96 662.35 993.33 662.35 1002.69 662.35 1002.69 671.74 1012.06 671.74 1021.42 671.74 1030.79 671.74 1030.79 681.13 1040.15 681.13 1049.52 681.13 1058.89 681.13 1058.89 690.52 1068.25 690.52 1077.62 690.52 1086.98 690.52 1096.35 690.52 1096.35 699.91 1105.71 699.91 1115.08 699.91 1124.45 699.91 1133.81 699.91 1143.18 699.91 1152.54 699.91 1161.91 699.91 1161.91 690.52 1171.28 690.52 1180.64 690.52 1190.01 690.52 1199.37 690.52 1199.37 681.13 1208.74 681.13 1218.11 681.13 1227.47 681.13 1227.47 671.74 1236.84 671.74 1246.2 671.74 1255.57 671.74 1264.93 671.74 1274.3 671.74 1283.67 671.74 1293.03 671.74 1293.03 681.13 1302.4 681.13 1311.76 681.13 1321.13 681.13 1330.49 681.13 1330.49 690.52 1339.86 690.52 1349.23 690.52 1358.59 690.52 1367.96 690.52 1377.33 690.52 1386.69 690.52 1396.06 690.52 1405.42 690.52 1405.42 699.91 1414.79 699.91 1424.15 699.91 1433.52 699.91 1442.89 699.91 1452.25 699.91 1461.62 699.91 1470.98 699.91 1480.35 699.91 1489.71 699.91 1499.08 699.91 1499.08 690.52 1508.45 690.52 1517.81 690.52 1527.18 690.52 1536.54 690.52 1536.54 699.91 1545.91 699.91 1555.28 699.91 1555.28 690.52 1564.64 690.52 1574.01 690.52 1574.01 681.13 1564.64 681.13"/></g></g><g id="nuage4"><g class="cls-2"><polygon class="cls-6" points="1729.89 498 1729.89 488.61 1729.89 479.22 1739.26 479.22 1748.63 479.22 1757.99 479.22 1757.99 469.83 1757.99 460.44 1767.36 460.44 1767.36 451.04 1776.72 451.04 1776.72 441.65 1786.09 441.65 1795.45 441.65 1795.45 432.26 1804.82 432.26 1814.19 432.26 1823.55 432.26 1832.92 432.26 1832.92 422.87 1842.28 422.87 1842.28 413.48 1851.65 413.48 1861.02 413.48 1870.38 413.48 1879.75 413.48 1889.11 413.48 1889.11 404.09 1898.48 404.09 1898.48 394.7 1907.85 394.7 1917.21 394.7 1926.58 394.7 1926.58 385.3 1935.94 385.3 1945.31 385.3 1945.31 394.7 1954.67 394.7 1964.04 394.7 1964.04 404.09 1973.41 404.09 1982.77 404.09 1992.14 404.09 2001.5 404.09 2010.87 404.09 2020.23 404.09 2029.6 404.09 2038.97 404.09 2038.97 413.48 2048.33 413.48 2057.7 413.48 2057.7 422.87 2057.7 432.26 2057.7 441.65 2067.06 441.65 2067.06 451.04 2076.43 451.04 2076.43 460.44 2085.8 460.44 2085.8 469.83 2085.8 479.22 2085.8 488.61 2095.16 488.61 2095.16 498 2095.16 507.39 2085.8 507.39 2085.8 498 2076.43 498 2076.43 488.61 2067.06 488.61 2067.06 479.22 2057.7 479.22 2057.7 469.83 2048.33 469.83 2048.33 460.44 2038.97 460.44 2029.6 460.44 2020.23 460.44 2010.87 460.44 2001.5 460.44 2001.5 469.83 1992.14 469.83 1992.14 479.22 1982.77 479.22 1973.41 479.22 1973.41 469.83 1964.04 469.83 1964.04 460.44 1954.67 460.44 1954.67 451.04 1945.31 451.04 1945.31 441.65 1935.94 441.65 1935.94 432.26 1926.58 432.26 1926.58 422.87 1917.21 422.87 1907.85 422.87 1898.48 422.87 1889.11 422.87 1889.11 432.26 1879.75 432.26 1870.38 432.26 1870.38 441.65 1861.02 441.65 1851.65 441.65 1851.65 451.04 1851.65 460.44 1851.65 469.83 1851.65 479.22 1842.28 479.22 1832.92 479.22 1823.55 479.22 1823.55 469.83 1814.19 469.83 1814.19 460.44 1804.82 460.44 1795.45 460.44 1786.09 460.44 1786.09 469.83 1786.09 479.22 1776.72 479.22 1776.72 488.61 1767.36 488.61 1757.99 488.61 1748.63 488.61 1748.63 498 1739.26 498 1739.26 507.39 1729.89 507.39 1729.89 516.78 1720.53 516.78 1720.53 507.39 1720.53 498 1729.89 498"/><polygon class="cls-6" points="1600.89 507.39 1600.89 498 1600.89 488.61 1610.25 488.61 1619.62 488.61 1628.98 488.61 1628.98 479.22 1628.98 469.83 1638.35 469.83 1638.35 460.44 1647.71 460.44 1647.71 451.04 1657.08 451.04 1666.45 451.04 1666.45 441.65 1675.81 441.65 1685.18 441.65 1694.54 441.65 1703.91 441.65 1703.91 432.26 1713.28 432.26 1713.28 422.87 1722.64 422.87 1732.01 422.87 1741.37 422.87 1750.74 422.87 1760.11 422.87 1760.11 413.48 1769.47 413.48 1769.47 404.09 1778.84 404.09 1788.2 404.09 1797.57 404.09 1797.57 394.7 1806.93 394.7 1816.3 394.7 1816.3 404.09 1825.67 404.09 1835.03 404.09 1835.03 413.48 1844.4 413.48 1853.76 413.48 1863.13 413.48 1872.5 413.48 1881.86 413.48 1891.23 413.48 1900.59 413.48 1909.96 413.48 1909.96 422.87 1919.33 422.87 1928.69 422.87 1928.69 432.26 1928.69 441.65 1928.69 451.04 1938.06 451.04 1938.06 460.44 1947.42 460.44 1947.42 469.83 1956.79 469.83 1956.79 479.22 1956.79 488.61 1956.79 498 1966.15 498 1966.15 507.39 1966.15 516.78 1956.79 516.78 1956.79 507.39 1947.42 507.39 1947.42 498 1938.06 498 1938.06 488.61 1928.69 488.61 1928.69 479.22 1919.33 479.22 1919.33 469.83 1909.96 469.83 1900.59 469.83 1891.23 469.83 1881.86 469.83 1872.5 469.83 1872.5 479.22 1863.13 479.22 1863.13 488.61 1853.76 488.61 1844.4 488.61 1844.4 479.22 1835.03 479.22 1835.03 469.83 1825.67 469.83 1825.67 460.44 1816.3 460.44 1816.3 451.04 1806.93 451.04 1806.93 441.65 1797.57 441.65 1797.57 432.26 1788.2 432.26 1778.84 432.26 1769.47 432.26 1760.11 432.26 1760.11 441.65 1750.74 441.65 1741.37 441.65 1741.37 451.04 1732.01 451.04 1722.64 451.04 1722.64 460.44 1722.64 469.83 1722.64 479.22 1722.64 488.61 1713.28 488.61 1703.91 488.61 1694.54 488.61 1694.54 479.22 1685.18 479.22 1685.18 469.83 1675.81 469.83 1666.45 469.83 1657.08 469.83 1657.08 479.22 1657.08 488.61 1647.71 488.61 1647.71 498 1638.35 498 1628.98 498 1619.62 498 1619.62 507.39 1610.25 507.39 1610.25 516.78 1600.89 516.78 1600.89 526.17 1591.52 526.17 1591.52 516.78 1591.52 507.39 1600.89 507.39"/><polygon class="cls-5" points="2076.43 526.17 2076.43 535.57 2067.06 535.57 2057.7 535.57 2048.33 535.57 2048.33 526.17 2038.97 526.17 2029.6 526.17 2029.6 516.78 2020.23 516.78 2010.87 516.78 2001.5 516.78 1992.14 516.78 1992.14 526.17 1982.77 526.17 1982.77 516.78 1982.77 507.39 1973.41 507.39 1973.41 498 1964.04 498 1954.67 498 1945.31 498 1935.94 498 1935.94 507.39 1926.58 507.39 1917.21 507.39 1917.21 516.78 1907.85 516.78 1898.48 516.78 1889.11 516.78 1889.11 507.39 1879.75 507.39 1879.75 498 1870.38 498 1870.38 488.61 1861.02 488.61 1851.65 488.61 1851.65 479.22 1842.28 479.22 1832.92 479.22 1823.55 479.22 1823.55 488.61 1814.19 488.61 1814.19 498 1804.82 498 1804.82 507.39 1795.45 507.39 1795.45 516.78 1788.2 516.78 1786.09 516.78 1786.09 507.39 1786.09 498 1776.72 498 1776.72 488.61 1767.36 488.61 1757.99 488.61 1748.63 488.61 1748.63 498 1741.37 498 1739.26 498 1732.01 498 1722.64 498 1722.64 488.61 1713.28 488.61 1703.91 488.61 1694.54 488.61 1694.54 498 1685.18 498 1685.18 507.39 1675.81 507.39 1675.81 516.78 1666.45 516.78 1666.45 526.17 1657.08 526.17 1657.08 516.78 1657.08 507.39 1647.71 507.39 1647.71 498 1638.35 498 1628.98 498 1619.62 498 1619.62 507.39 1610.25 507.39 1610.25 516.78 1600.89 516.78 1600.89 526.17 1591.52 526.17 1591.52 535.57 1591.52 544.96 1591.52 554.35 1600.89 554.35 1600.89 563.74 1610.25 563.74 1610.25 573.13 1619.62 573.13 1628.98 573.13 1638.35 573.13 1647.71 573.13 1657.08 573.13 1666.45 573.13 1675.81 573.13 1685.18 573.13 1685.18 582.52 1694.54 582.52 1703.91 582.52 1713.28 582.52 1722.64 582.52 1732.01 582.52 1741.37 582.52 1750.74 582.52 1750.74 573.13 1760.11 573.13 1769.47 573.13 1778.84 573.13 1788.2 573.13 1788.2 563.74 1795.45 563.74 1797.57 563.74 1797.57 573.13 1806.93 573.13 1814.19 573.13 1816.3 573.13 1823.55 573.13 1825.67 573.13 1832.92 573.13 1835.03 573.13 1835.03 582.52 1844.4 582.52 1853.76 582.52 1863.13 582.52 1872.5 582.52 1881.86 582.52 1881.86 573.13 1891.23 573.13 1900.59 573.13 1909.96 573.13 1919.33 573.13 1928.69 573.13 1938.06 573.13 1938.06 563.74 1945.31 563.74 1947.42 563.74 1954.67 563.74 1964.04 563.74 1964.04 573.13 1973.41 573.13 1982.77 573.13 1992.14 573.13 2001.5 573.13 2010.87 573.13 2010.87 563.74 2020.23 563.74 2029.6 563.74 2038.97 563.74 2048.33 563.74 2057.7 563.74 2067.06 563.74 2067.06 554.35 2076.43 554.35 2076.43 544.96 2085.8 544.96 2085.8 535.57 2085.8 526.17 2076.43 526.17"/><polygon class="cls-4" points="1685.18 469.83 1675.81 469.83 1666.45 469.83 1657.08 469.83 1657.08 479.22 1657.08 488.61 1647.71 488.61 1647.71 498 1647.71 507.39 1657.08 507.39 1657.08 516.78 1657.08 526.17 1666.45 526.17 1666.45 516.78 1675.81 516.78 1675.81 507.39 1685.18 507.39 1685.18 498 1694.54 498 1694.54 488.61 1694.54 479.22 1685.18 479.22 1685.18 469.83"/><polygon class="cls-4" points="2085.8 507.39 2085.8 498 2076.43 498 2076.43 488.61 2067.06 488.61 2067.06 479.22 2057.7 479.22 2057.7 469.83 2048.33 469.83 2048.33 460.44 2038.97 460.44 2029.6 460.44 2020.23 460.44 2010.87 460.44 2001.5 460.44 2001.5 469.83 1992.14 469.83 1992.14 479.22 1982.77 479.22 1973.41 479.22 1973.41 469.83 1964.04 469.83 1964.04 460.44 1954.67 460.44 1954.67 451.04 1945.31 451.04 1945.31 441.65 1935.94 441.65 1935.94 432.26 1926.58 432.26 1926.58 422.87 1917.21 422.87 1907.85 422.87 1898.48 422.87 1889.11 422.87 1889.11 432.26 1879.75 432.26 1870.38 432.26 1870.38 441.65 1861.02 441.65 1851.65 441.65 1851.65 451.04 1851.65 460.44 1851.65 469.83 1851.65 479.22 1851.65 488.61 1844.4 488.61 1844.4 479.22 1835.03 479.22 1835.03 469.83 1825.67 469.83 1825.67 460.44 1816.3 460.44 1816.3 451.04 1806.93 451.04 1806.93 441.65 1797.57 441.65 1797.57 432.26 1788.2 432.26 1778.84 432.26 1769.47 432.26 1760.11 432.26 1760.11 441.65 1750.74 441.65 1741.37 441.65 1741.37 451.04 1732.01 451.04 1722.64 451.04 1722.64 460.44 1722.64 469.83 1722.64 479.22 1722.64 488.61 1722.64 498 1732.01 498 1741.37 498 1741.37 507.39 1750.74 507.39 1750.74 516.78 1760.11 516.78 1760.11 526.17 1769.47 526.17 1778.84 526.17 1788.2 526.17 1788.2 516.78 1795.45 516.78 1797.57 516.78 1806.93 516.78 1806.93 507.39 1816.3 507.39 1825.67 507.39 1835.03 507.39 1844.4 507.39 1844.4 516.78 1853.76 516.78 1853.76 526.17 1853.76 535.57 1863.13 535.57 1863.13 526.17 1872.5 526.17 1881.86 526.17 1891.23 526.17 1900.59 526.17 1900.59 535.57 1909.96 535.57 1919.33 535.57 1919.33 544.96 1928.69 544.96 1938.06 544.96 1947.42 544.96 1947.42 535.57 1956.79 535.57 1956.79 526.17 1966.15 526.17 1966.15 516.78 1956.79 516.78 1956.79 507.39 1947.42 507.39 1947.42 498 1954.67 498 1964.04 498 1973.41 498 1973.41 507.39 1982.77 507.39 1982.77 516.78 1982.77 526.17 1992.14 526.17 1992.14 516.78 2001.5 516.78 2010.87 516.78 2020.23 516.78 2029.6 516.78 2029.6 526.17 2038.97 526.17 2048.33 526.17 2048.33 535.57 2057.7 535.57 2067.06 535.57 2076.43 535.57 2076.43 526.17 2085.8 526.17 2085.8 516.78 2095.16 516.78 2095.16 507.39 2085.8 507.39"/></g></g><g id="nuage5"><g class="cls-2"><rect class="cls-3" x="1750.98" y="284.35" width="9.37" height="9.39"/><rect class="cls-3" x="1643.28" y="279.65" width="9.37" height="9.39"/><rect class="cls-3" x="1516.84" y="307.83" width="9.37" height="9.39"/><rect class="cls-3" x="1662.02" y="265.57" width="9.37" height="9.39"/><path class="cls-3" d="M1877.42,199.83H1840V181h-9.37v-9.39h-18.73v-9.39h-18.73v-9.39H1746.3v9.39h-18.73v9.39h-9.37v-9.39h-9.36v-9.39h-28.1v-9.39h-37.46v9.39h-18.74v9.39h-26v-9.39H1579.8v-9.39H1573v-4.7h-56.19V120h-9.37v-9.39h-18.73v-9.39H1470V91.83h-46.83v9.39h-18.73v9.39h-9.37v-9.39h-9.36V91.83h-28.1v-9.4h-37.47v9.4h-18.73v9.39h-9.36V120h-9.37v28.17h-65.56v9.4h-9.37V167h-9.36v18.78H1189v9.39h-74.92v9.39h-9.37v9.39h-14v-4.69h9.36v-9.39h-32.78v-4.7h-9.37v-9.39h-14V181h-9.37v-9.39h-18.73v-9.39H997v-9.39H950.21v9.39H931.48v9.39h-9.37v-9.39h-9.36v-9.39h-28.1v-9.39H847.19v9.39H828.45v9.39h-9.36V181h-9.37v28.18H744.16v9.39H734.8V228h-9.37v18.78h-9.37v9.39H641.14v9.4h-9.37V275H613v-9.39H594.31v-9.4h-9.37v-9.39h-28.1v9.39h-9.36v9.4h-9.37v-9.4H491.28v9.4H472.55V275h-9.36v9.39h-9.37v28.17h-9.37v9.39h-9.36v-9.39h-9.37v-9.39h-9.36v-9.39h-56.2v9.39H350.8v9.39H313.33v9.39H304V340.7H294.6v9.39H247.77v9.39h-9.36V397h9.36v-9.39H266.5v-9.39h18.73v-9.39H304v-9.39h9.36v-9.39h9.37V340.7h18.73v-9.4h18.73v-9.39h37.46v9.39h18.74v9.4h9.36v9.39h9.37v18.78h18.73v-9.39h18.73v-9.39h9.37V340.7h18.73v-9.4H510v-9.39h28.09v-9.39h28.1v-9.39h18.73v9.39h18.73v9.39h28.1v9.39H650.5v-9.39h9.37v-9.39h9.36v-9.39h9.37v-9.39H688v-9.39h28.09V275h56.2v4.69h-4.69V289H720.74v9.39h-9.37V336h9.37v-9.39h18.73v-9.39H758.2v-9.39h18.73v-9.4h9.37v-4.69H791v9.39h18.73v9.39h9.37V293.74h9.36V275h9.37V260.87h32.77v9.39h18.73v9.39h9.37V289h9.37v9.39H889.32v4.7h-51.5v4.7H823.76v9.39H805v4.69H791v9.39h-9.37V336h-9.36v9.39h-9.37v14.09H758.2v-4.7h-9.36v-9.39h-56.2v9.39h-9.36v9.39H645.81v9.4h-9.36v18.78h-9.37v9.39H580.25v9.39h-9.36V448.7h9.36v-9.4H599v-9.39h18.74v-9.39h18.73v-9.39h9.36v-9.39h9.37v-9.39h18.73V383h18.73v-9.39H706.7V383h-9.37v37.56h9.37v-9.39h18.73v-4.7h0v-4.69h18.73V397h0v-4.69h14v9.39h9.37v18.78H786.3v-9.39H805v14.09h9.37v-9.39h18.73v-9.4h18.73V397h18.73v-9.39H880v-9.39h9.36v-4.69H894v18.78h18.73V383h18.73v-4.7h0v-4.69h32.77V383H983v-9.39h9.37v4.69h9.37V397h18.73v-9.39h14V397h9.36v-9.39h18.73v-9.39h18.73v-9.39h18.74v-9.39h9.36v-4.7h0v-4.69h9.36v-4.7h4.68v9.39h18.73v9.39h9.37V345.39h9.36V340.7h9.37v9.39h28.1v9.39h18.73v-9.39h14v18.78h18.73v-9.39h18.73v-9.39H1278V340.7h18.73v-9.4h9.37v-4.69h14V336h28.1v-9.39h9.37v-4.7h0v9.39h18.73v9.4h9.37V321.91h9.36v-9.39h4.68v9.39h28.1v9.39h18.73v-9.39H1456v-9.39h9.36v-4.69h9.38v-9.4h9.36v-4.69h9.37v-9.39h23.41v9.39h18.73v9.39h18.73v9.39h28.1v-9.39h23.41v9.39h9.37V293.74h9.36V275h9.37V256.17h18.73v-9.39h74.93v9.39h18.73v9.4H1765V275h18.73v9.39h28.1V275h9.37V256.17h9.36v-9.39H1840v-9.39h9.36V228h18.74v-9.39h18.73v-9.39h9.36v-9.39h-18.73Zm-838.24,51.65v-4.7h4.69v-4.69h14v9.39h16.14v4.69H1034.5v9.4h-9.36v4.69h0V256.17h9.36v-4.69Zm-140.49,0v-4.7h28.1v4.7h-9.37v9.39h-9.36v-9.39ZM851.86,378.26h-2.59v-4.69h12v4.69Z"/><polygon class="cls-4" points="2017.91 368.87 2017.91 359.48 2017.91 350.09 2017.91 340.7 2008.54 340.7 1999.18 340.7 1999.18 331.3 1989.81 331.3 1989.81 321.91 1989.81 312.52 1999.18 312.52 1999.18 303.13 1999.18 293.74 1999.18 284.35 1989.81 284.35 1989.81 274.96 1989.81 265.56 1980.45 265.56 1980.45 256.17 1971.08 256.17 1961.71 256.17 1952.35 256.17 1942.98 256.17 1942.98 246.78 1933.62 246.78 1933.62 237.39 1933.62 228 1924.25 228 1924.25 218.61 1914.89 218.61 1914.89 209.22 1905.52 209.22 1896.15 209.22 1886.79 209.22 1886.79 218.61 1877.42 218.61 1868.06 218.61 1868.06 228 1858.69 228 1849.33 228 1849.33 237.39 1839.96 237.39 1839.96 246.78 1830.59 246.78 1830.59 256.17 1821.23 256.17 1821.23 265.56 1821.23 274.96 1811.86 274.96 1811.86 284.35 1802.49 284.35 1793.13 284.35 1783.76 284.35 1783.76 274.96 1774.4 274.96 1765.03 274.96 1765.03 265.56 1755.67 265.56 1746.3 265.56 1746.3 256.17 1736.93 256.17 1727.57 256.17 1727.57 246.78 1718.2 246.78 1708.84 246.78 1699.47 246.78 1690.11 246.78 1680.74 246.78 1671.37 246.78 1662.01 246.78 1652.64 246.78 1652.64 256.17 1647.96 256.17 1643.28 256.17 1638.59 256.17 1633.91 256.17 1629.23 256.17 1619.86 256.17 1619.86 246.78 1610.5 246.78 1610.5 237.39 1610.5 228 1601.13 228 1601.13 218.61 1591.76 218.61 1591.76 209.22 1582.4 209.22 1573.03 209.22 1563.67 209.22 1563.67 218.61 1554.3 218.61 1544.93 218.61 1544.93 228 1535.57 228 1526.2 228 1526.2 237.39 1516.84 237.39 1516.84 246.78 1507.47 246.78 1507.47 256.17 1498.11 256.17 1498.11 265.56 1498.11 274.96 1488.74 274.96 1488.74 284.35 1484.06 284.35 1479.37 284.35 1470.01 284.35 1460.64 284.35 1460.64 274.96 1451.28 274.96 1441.91 274.96 1441.91 265.56 1432.54 265.56 1423.18 265.56 1423.18 256.17 1413.81 256.17 1404.45 256.17 1404.45 246.78 1395.08 246.78 1385.71 246.78 1376.35 246.78 1366.98 246.78 1357.62 246.78 1348.25 246.78 1338.89 246.78 1329.52 246.78 1329.52 256.17 1320.15 256.17 1310.79 256.17 1310.79 265.56 1310.79 274.96 1301.42 274.96 1301.42 284.35 1301.42 293.74 1292.06 293.74 1292.06 303.13 1292.06 312.52 1282.69 312.52 1282.69 303.13 1273.33 303.13 1263.96 303.13 1263.96 293.74 1254.59 293.74 1254.59 284.35 1245.23 284.35 1245.23 274.96 1235.86 274.96 1226.5 274.96 1217.13 274.96 1207.76 274.96 1198.4 274.96 1193.72 274.96 1193.72 265.56 1184.36 265.56 1184.36 256.17 1174.99 256.17 1165.63 256.17 1156.26 256.17 1146.89 256.17 1146.89 246.78 1137.53 246.78 1137.53 237.39 1137.53 228 1128.16 228 1128.16 218.61 1118.8 218.61 1118.8 209.22 1109.43 209.22 1100.06 209.22 1090.7 209.22 1090.7 218.61 1081.33 218.61 1071.97 218.61 1071.97 228 1062.6 228 1053.23 228 1053.23 237.39 1043.87 237.39 1043.87 246.78 1034.5 246.78 1034.5 256.17 1025.14 256.17 1025.14 265.56 1025.14 274.96 1015.77 274.96 1015.77 284.35 1006.4 284.35 997.04 284.35 987.67 284.35 987.67 274.96 978.31 274.96 968.94 274.96 968.94 265.56 959.58 265.56 950.21 265.56 950.21 256.17 940.84 256.17 931.48 256.17 931.48 246.78 922.11 246.78 912.75 246.78 903.38 246.78 894.01 246.78 884.65 246.78 875.28 246.78 865.92 246.78 856.55 246.78 856.55 256.17 847.19 256.17 837.82 256.17 837.82 265.56 837.82 274.96 828.45 274.96 828.45 284.35 828.45 293.74 819.09 293.74 819.09 303.13 819.09 312.52 809.72 312.52 809.72 303.13 800.36 303.13 790.99 303.13 790.99 293.74 781.63 293.74 781.63 284.35 772.26 284.35 772.26 274.96 762.89 274.96 753.53 274.96 744.16 274.96 734.8 274.96 725.43 274.96 716.06 274.96 716.06 284.35 706.7 284.35 697.33 284.35 687.97 284.35 687.97 293.74 678.6 293.74 678.6 303.13 669.24 303.13 669.24 312.52 659.87 312.52 659.87 321.91 650.5 321.91 650.5 331.3 641.14 331.3 631.77 331.3 631.77 321.91 622.4 321.91 613.04 321.91 603.67 321.91 603.67 312.52 594.31 312.52 584.94 312.52 584.94 303.13 575.58 303.13 566.21 303.13 566.21 312.52 556.84 312.52 547.48 312.52 538.11 312.52 538.11 321.91 528.75 321.91 519.38 321.91 510.01 321.91 510.01 331.3 500.65 331.3 500.65 340.7 491.28 340.7 481.92 340.7 481.92 350.09 472.55 350.09 472.55 359.48 463.19 359.48 453.82 359.48 453.82 368.87 463.19 368.87 472.55 368.87 472.55 378.26 481.92 378.26 491.28 378.26 500.65 378.26 500.65 387.65 510.01 387.65 510.01 397.04 519.38 397.04 519.38 406.44 528.75 406.44 538.11 406.44 547.48 406.44 547.48 415.83 556.84 415.83 566.21 415.83 575.58 415.83 584.94 415.83 594.31 415.83 603.67 415.83 603.67 406.44 613.04 406.44 622.4 406.44 622.4 397.04 631.77 397.04 641.14 397.04 650.5 397.04 659.87 397.04 659.87 406.44 669.24 406.44 678.6 406.44 678.6 415.83 687.97 415.83 697.33 415.83 706.7 415.83 716.06 415.83 725.43 415.83 734.8 415.83 744.16 415.83 753.53 415.83 753.53 425.22 762.89 425.22 762.89 415.83 767.57 415.83 772.26 415.83 776.93 415.83 786.3 415.83 795.67 415.83 805.03 415.83 805.03 406.44 814.4 406.44 823.76 406.44 833.13 406.44 842.5 406.44 851.86 406.44 851.86 415.83 861.23 415.83 870.59 415.83 879.96 415.83 879.96 406.44 884.65 406.44 884.65 415.83 894.01 415.83 894.01 425.22 903.38 425.22 903.38 415.83 912.75 415.83 922.11 415.83 931.48 415.83 931.48 406.44 940.84 406.44 940.84 397.04 950.21 397.04 959.58 397.04 959.58 387.65 968.94 387.65 973.62 387.65 978.31 387.65 982.98 387.65 982.98 397.04 992.35 397.04 992.35 406.44 1001.72 406.44 1011.08 406.44 1020.45 406.44 1020.45 415.83 1029.81 415.83 1034.5 415.83 1039.18 415.83 1043.87 415.83 1048.54 415.83 1053.23 415.83 1057.91 415.83 1062.6 415.83 1067.28 415.83 1076.64 415.83 1076.64 406.44 1081.33 406.44 1081.33 415.83 1090.69 415.83 1100.06 415.83 1109.42 415.83 1118.79 415.83 1128.15 415.83 1128.15 406.44 1128.16 406.44 1132.84 406.44 1137.52 406.44 1137.53 406.44 1142.2 406.44 1146.89 406.44 1146.89 406.44 1151.57 406.44 1151.57 415.83 1160.93 415.83 1170.3 415.83 1174.98 415.83 1179.67 415.83 1184.35 415.83 1189.03 415.83 1193.71 415.83 1198.4 415.83 1203.08 415.83 1207.76 415.83 1217.13 415.83 1226.5 415.83 1226.5 425.22 1235.86 425.22 1235.86 415.83 1245.23 415.83 1245.23 406.44 1254.59 406.44 1254.59 397.04 1254.59 387.65 1263.96 387.65 1263.96 378.26 1268.64 378.26 1273.33 378.26 1278.01 378.26 1282.69 378.26 1287.37 378.26 1292.06 378.26 1296.74 378.26 1296.74 387.65 1306.11 387.65 1306.11 397.04 1315.47 397.04 1315.47 406.44 1324.84 406.44 1334.2 406.44 1343.57 406.44 1343.57 415.83 1352.93 415.83 1357.62 415.83 1362.3 415.83 1366.98 415.83 1366.98 425.22 1376.35 425.22 1376.35 415.83 1381.03 415.83 1385.71 415.83 1390.4 415.83 1395.08 415.83 1399.76 415.83 1404.45 415.83 1404.45 406.44 1409.13 406.44 1413.81 406.44 1418.49 406.44 1418.49 397.04 1423.18 397.04 1427.86 397.04 1432.54 397.04 1437.23 397.04 1446.59 397.04 1455.96 397.04 1455.96 406.44 1465.33 406.44 1474.69 406.44 1474.69 415.83 1484.06 415.83 1493.42 415.83 1502.79 415.83 1507.47 415.83 1512.15 415.83 1516.84 415.83 1521.52 415.83 1526.2 415.83 1530.89 415.83 1535.57 415.83 1540.25 415.83 1549.62 415.83 1549.62 425.22 1558.98 425.22 1558.98 415.83 1568.35 415.83 1568.35 406.44 1577.71 406.44 1577.71 397.04 1582.4 397.04 1591.76 397.04 1591.76 406.44 1601.13 406.44 1610.5 406.44 1619.86 406.44 1619.86 397.04 1629.23 397.04 1629.23 387.65 1638.59 387.65 1638.59 378.26 1643.28 378.26 1643.28 387.65 1652.64 387.65 1662.01 387.65 1662.01 397.04 1671.37 397.04 1671.37 406.44 1680.74 406.44 1680.74 415.83 1690.11 415.83 1690.11 425.22 1699.47 425.22 1699.47 415.83 1708.84 415.83 1718.2 415.83 1727.57 415.83 1727.57 406.44 1736.93 406.44 1736.93 397.04 1746.3 397.04 1755.67 397.04 1755.67 387.65 1765.03 387.65 1774.4 387.65 1783.76 387.65 1793.13 387.65 1802.49 387.65 1811.86 387.65 1811.86 397.04 1821.23 397.04 1821.23 406.44 1830.59 406.44 1830.59 415.83 1839.96 415.83 1849.33 415.83 1858.69 415.83 1858.69 406.44 1868.06 406.44 1868.06 397.04 1877.42 397.04 1886.79 397.04 1896.15 397.04 1905.52 397.04 1914.89 397.04 1914.89 406.44 1924.25 406.44 1933.62 406.44 1942.98 406.44 1942.98 397.04 1952.35 397.04 1952.35 387.65 1961.71 387.65 1961.71 378.26 1971.08 378.26 1980.45 378.26 1989.81 378.26 1999.18 378.26 1999.18 387.65 2008.54 387.65 2017.91 387.65 2027.28 387.65 2027.28 378.26 2027.28 368.87 2017.91 368.87"/><polygon class="cls-4" points="435.09 368.87 435.09 359.48 435.09 350.09 425.72 350.09 425.72 340.7 416.36 340.7 416.36 331.3 406.99 331.3 397.63 331.3 397.63 321.91 388.26 321.91 378.89 321.91 369.53 321.91 360.16 321.91 360.16 331.3 350.8 331.3 341.43 331.3 341.43 340.7 332.06 340.7 322.7 340.7 322.7 350.09 313.33 350.09 313.33 359.48 303.97 359.48 303.97 368.87 294.6 368.87 285.24 368.87 285.24 378.26 275.87 378.26 266.5 378.26 266.5 387.65 257.14 387.65 247.77 387.65 247.77 397.04 247.77 406.44 257.14 406.44 266.5 406.44 275.87 406.44 285.24 406.44 285.24 415.83 294.6 415.83 303.97 415.83 313.33 415.83 322.7 415.83 332.06 415.83 332.06 406.44 341.43 406.44 350.8 406.44 360.16 406.44 369.53 406.44 378.89 406.44 378.89 415.83 388.26 415.83 397.63 415.83 406.99 415.83 406.99 406.44 416.36 406.44 416.36 397.04 425.72 397.04 425.72 387.65 435.09 387.65 435.09 378.26 444.45 378.26 453.82 378.26 453.82 368.87 444.45 368.87 435.09 368.87"/><polygon class="cls-5" points="2036.64 406.44 2036.64 397.04 2027.28 397.04 2027.28 387.65 2017.91 387.65 2008.54 387.65 1999.18 387.65 1999.18 378.26 1989.81 378.26 1980.45 378.26 1971.08 378.26 1961.71 378.26 1961.71 387.65 1952.35 387.65 1952.35 397.04 1942.98 397.04 1942.98 406.44 1933.62 406.44 1924.25 406.44 1914.89 406.44 1914.89 397.04 1905.52 397.04 1896.15 397.04 1886.79 397.04 1877.42 397.04 1868.06 397.04 1868.06 406.44 1858.69 406.44 1858.69 415.83 1849.33 415.83 1839.96 415.83 1830.59 415.83 1830.59 406.44 1821.23 406.44 1821.23 397.04 1811.86 397.04 1811.86 387.65 1802.49 387.65 1793.13 387.65 1783.76 387.65 1774.4 387.65 1765.03 387.65 1755.67 387.65 1755.67 397.04 1746.3 397.04 1736.93 397.04 1736.93 406.44 1727.57 406.44 1727.57 415.83 1722.89 415.83 1722.89 406.44 1713.52 406.44 1713.52 397.04 1704.15 397.04 1704.15 387.65 1694.79 387.65 1685.42 387.65 1676.06 387.65 1676.06 378.26 1666.69 378.26 1657.33 378.26 1647.96 378.26 1643.28 378.26 1638.59 378.26 1633.91 378.26 1624.54 378.26 1615.18 378.26 1605.81 378.26 1596.45 378.26 1587.08 378.26 1587.08 387.65 1577.71 387.65 1577.71 397.04 1573.03 397.04 1563.67 397.04 1554.3 397.04 1544.93 397.04 1544.93 406.44 1535.57 406.44 1535.57 415.83 1530.89 415.83 1526.2 415.83 1521.52 415.83 1516.84 415.83 1512.15 415.83 1507.47 415.83 1507.47 406.44 1498.11 406.44 1498.11 397.04 1488.74 397.04 1488.74 387.65 1479.37 387.65 1470.01 387.65 1460.64 387.65 1451.28 387.65 1441.91 387.65 1432.54 387.65 1432.54 397.04 1427.86 397.04 1423.18 397.04 1418.49 397.04 1413.81 397.04 1413.81 406.44 1409.13 406.44 1404.45 406.44 1399.76 406.44 1399.76 415.83 1395.08 415.83 1390.4 415.83 1385.71 415.83 1381.03 415.83 1376.35 415.83 1371.67 415.83 1366.98 415.83 1362.3 415.83 1357.62 415.83 1357.62 406.44 1348.25 406.44 1348.25 397.04 1338.89 397.04 1338.89 387.65 1329.52 387.65 1320.15 387.65 1320.15 378.26 1310.79 378.26 1301.42 378.26 1296.74 378.26 1292.06 378.26 1287.37 378.26 1282.69 378.26 1278.01 378.26 1273.33 378.26 1268.64 378.26 1268.64 368.87 1259.28 368.87 1249.91 368.87 1249.91 378.26 1240.54 378.26 1231.18 378.26 1231.18 387.65 1221.82 387.65 1221.81 387.65 1212.45 387.65 1203.09 387.65 1203.09 378.26 1193.72 378.26 1184.36 378.26 1174.99 378.26 1165.63 378.26 1165.63 387.65 1156.26 387.65 1156.26 397.04 1146.89 397.04 1146.89 406.44 1146.89 406.44 1142.2 406.44 1137.53 406.44 1137.52 406.44 1132.84 406.44 1132.84 397.04 1123.47 397.04 1118.8 397.04 1114.11 397.04 1109.43 397.04 1104.74 397.04 1100.06 397.04 1095.37 397.04 1090.7 397.04 1081.33 397.04 1071.97 397.04 1071.97 406.44 1071.96 406.44 1062.6 406.44 1062.59 406.44 1053.23 406.44 1043.86 406.44 1043.86 415.83 1039.18 415.83 1034.5 415.83 1034.5 406.44 1025.14 406.44 1025.14 397.04 1015.77 397.04 1015.77 387.65 1006.4 387.65 997.04 387.65 987.67 387.65 982.98 387.65 978.31 387.65 973.62 387.65 973.62 378.26 964.25 378.26 954.89 378.26 945.52 378.26 945.52 368.87 936.15 368.87 926.79 368.87 926.79 378.26 917.42 378.26 908.06 378.26 908.06 387.65 898.69 387.65 898.69 397.04 889.33 397.04 889.33 406.44 884.65 406.44 879.96 406.44 875.28 406.44 875.28 397.04 865.92 397.04 865.92 387.65 856.55 387.65 847.19 387.65 847.19 378.26 837.82 378.26 828.45 378.26 819.09 378.26 809.72 378.26 800.36 378.26 790.99 378.26 790.99 387.65 781.63 387.65 781.63 397.04 781.63 406.44 772.26 406.44 772.26 415.83 767.57 415.83 762.89 415.83 758.2 415.83 758.2 406.44 748.84 406.44 739.47 406.44 730.11 406.44 720.74 406.44 720.74 415.83 716.06 415.83 711.37 415.83 706.7 415.83 697.33 415.83 687.97 415.83 678.6 415.83 678.6 406.44 669.24 406.44 659.87 406.44 659.87 397.04 650.5 397.04 641.14 397.04 631.77 397.04 622.4 397.04 622.4 406.44 613.04 406.44 603.67 406.44 603.67 415.83 594.31 415.83 584.94 415.83 575.58 415.83 566.21 415.83 556.84 415.83 547.48 415.83 547.48 406.44 538.11 406.44 528.75 406.44 519.38 406.44 519.38 397.04 510.01 397.04 510.01 387.65 500.65 387.65 500.65 378.26 491.28 378.26 481.92 378.26 472.55 378.26 472.55 368.87 463.19 368.87 453.82 368.87 453.82 378.26 444.45 378.26 435.09 378.26 435.09 387.65 425.72 387.65 425.72 397.04 416.36 397.04 416.36 406.44 406.99 406.44 406.99 415.83 397.63 415.83 388.26 415.83 378.89 415.83 378.89 406.44 369.53 406.44 360.16 406.44 350.8 406.44 341.43 406.44 332.06 406.44 332.06 415.83 322.7 415.83 313.33 415.83 303.97 415.83 294.6 415.83 285.24 415.83 285.24 406.44 275.87 406.44 266.5 406.44 257.14 406.44 247.77 406.44 247.77 415.83 238.41 415.83 238.41 425.22 247.77 425.22 247.77 434.61 257.14 434.61 257.14 444 266.5 444 275.87 444 285.24 444 294.6 444 303.97 444 313.33 444 322.7 444 332.06 444 332.06 434.61 341.43 434.61 350.8 434.61 360.16 434.61 369.53 434.61 378.89 434.61 388.26 434.61 397.63 434.61 406.99 434.61 406.99 444 416.36 444 425.72 444 425.72 453.39 435.09 453.39 444.45 453.39 444.45 462.78 453.82 462.78 453.82 472.17 463.19 472.17 472.55 472.17 481.92 472.17 491.28 472.17 500.65 472.17 510.01 472.17 519.38 472.17 528.75 472.17 528.75 462.78 538.11 462.78 547.48 462.78 556.84 462.78 566.21 462.78 575.58 462.78 584.94 462.78 584.94 453.39 594.31 453.39 603.67 453.39 613.04 453.39 622.4 453.39 631.77 453.39 641.14 453.39 650.5 453.39 659.87 453.39 669.24 453.39 669.24 462.78 678.6 462.78 687.97 462.78 697.33 462.78 706.7 462.78 716.06 462.78 716.06 472.17 725.43 472.17 734.8 472.17 744.16 472.17 753.53 472.17 762.89 472.17 772.26 472.17 781.63 472.17 790.99 472.17 800.36 472.17 809.72 472.17 809.72 462.78 819.09 462.78 828.45 462.78 837.82 462.78 847.19 462.78 856.55 462.78 865.92 462.78 875.28 462.78 884.65 462.78 894.01 462.78 903.38 462.78 912.75 462.78 917.42 462.78 922.11 462.78 926.79 462.78 926.79 472.17 936.15 472.17 945.52 472.17 954.89 472.17 964.25 472.17 973.62 472.17 982.98 472.17 992.35 472.17 1001.72 472.17 1001.72 462.78 1011.08 462.78 1020.45 462.78 1029.81 462.78 1039.18 462.78 1043.87 462.78 1048.54 462.78 1053.23 462.78 1057.91 462.78 1062.6 462.78 1071.97 462.78 1071.97 472.17 1081.33 472.17 1090.7 472.17 1100.06 472.17 1109.43 472.17 1118.8 472.17 1128.16 472.17 1137.53 472.17 1146.89 472.17 1156.26 472.17 1165.63 472.17 1165.63 462.78 1170.3 462.78 1174.99 462.78 1179.67 462.78 1184.36 462.78 1189.03 462.78 1189.03 472.17 1198.4 472.17 1207.76 472.17 1217.13 472.17 1226.5 472.17 1235.86 472.17 1245.23 472.17 1249.91 472.17 1254.59 472.17 1259.28 472.17 1263.96 472.17 1268.64 472.17 1273.33 472.17 1278.01 472.17 1282.69 472.17 1287.37 472.17 1296.74 472.17 1306.11 472.17 1315.47 472.17 1324.84 472.17 1324.84 462.78 1329.52 462.78 1334.2 462.78 1338.89 462.78 1343.57 462.78 1348.25 462.78 1352.93 462.78 1357.62 462.78 1362.3 462.78 1366.98 462.78 1371.67 462.78 1376.35 462.78 1381.03 462.78 1385.71 462.78 1395.08 462.78 1395.08 453.39 1399.76 453.39 1404.45 453.39 1409.13 453.39 1413.81 453.39 1418.49 453.39 1423.18 453.39 1427.86 453.39 1432.54 453.39 1437.23 453.39 1441.91 453.39 1446.59 453.39 1451.28 453.39 1455.96 453.39 1460.64 453.39 1465.33 453.39 1465.33 462.78 1474.69 462.78 1484.06 462.78 1493.42 462.78 1502.79 462.78 1512.15 462.78 1512.15 472.17 1521.52 472.17 1530.89 472.17 1540.25 472.17 1544.93 472.17 1549.62 472.17 1554.3 472.17 1558.98 472.17 1563.67 472.17 1568.35 472.17 1573.03 472.17 1577.71 472.17 1582.4 472.17 1587.08 472.17 1591.76 472.17 1596.45 472.17 1601.13 472.17 1605.81 472.17 1610.5 472.17 1619.86 472.17 1629.23 472.17 1638.59 472.17 1638.59 462.78 1643.28 462.78 1647.96 462.78 1652.64 462.78 1657.33 462.78 1662.01 462.78 1666.69 462.78 1671.37 462.78 1680.74 462.78 1690.11 462.78 1699.47 462.78 1708.84 462.78 1718.2 462.78 1718.2 453.39 1727.57 453.39 1736.93 453.39 1746.3 453.39 1755.67 453.39 1765.03 453.39 1774.4 453.39 1783.76 453.39 1793.13 453.39 1802.49 453.39 1811.86 453.39 1821.23 453.39 1830.59 453.39 1839.96 453.39 1839.96 462.78 1849.33 462.78 1858.69 462.78 1868.06 462.78 1868.06 472.17 1877.42 472.17 1886.79 472.17 1896.15 472.17 1905.52 472.17 1914.89 472.17 1924.25 472.17 1933.62 472.17 1942.98 472.17 1952.35 472.17 1961.71 472.17 1961.71 462.78 1971.08 462.78 1980.45 462.78 1989.81 462.78 1989.81 453.39 1999.18 453.39 2008.54 453.39 2017.91 453.39 2017.91 444 2027.28 444 2036.64 444 2046.01 444 2046.01 434.61 2046.01 425.22 2046.01 415.83 2046.01 406.44 2036.64 406.44"/></g></g></svg>