<svg xmlns="http://www.w3.org/2000/svg" viewBox="0 0 1920 780"><defs><style>.cls-1{fill:#d8d8d8;}.cls-2{opacity:0.86;}.cls-3{fill:#939393;}.cls-4{fill:#898989;}.cls-5{fill:#605f5f;}.cls-6{fill:#a5a5a5;}</style></defs><title>smog_7</title><g id="fond"><rect class="cls-1" x="2.78" width="1917.22" height="780"/></g><g id="nuage1"><g class="cls-2"><polygon class="cls-3" points="1088.59 80.09 1079.23 80.09 1069.86 80.09 1060.5 80.09 1051.13 80.09 1051.13 70.7 1051.13 61.3 1041.76 61.3 1041.76 51.91 1032.4 51.91 1023.03 51.91 1023.03 42.52 1013.67 42.52 1004.3 42.52 1004.3 33.13 994.93 33.13 985.57 33.13 976.2 33.13 966.84 33.13 957.47 33.13 957.47 42.52 948.11 42.52 938.74 42.52 938.74 51.91 929.37 51.91 929.37 42.52 920.01 42.52 920.01 33.13 910.64 33.13 901.28 33.13 891.91 33.13 891.91 23.74 882.54 23.74 873.18 23.74 863.81 23.74 854.45 23.74 854.45 33.13 845.08 33.13 835.72 33.13 835.72 42.52 826.35 42.52 826.35 51.91 826.35 61.3 816.98 61.3 816.98 70.7 816.98 80.09 816.98 89.48 807.62 89.48 798.25 89.48 788.89 89.48 779.52 89.48 770.15 89.48 760.79 89.48 751.42 89.48 751.42 98.87 742.06 98.87 742.06 108.26 732.69 108.26 732.69 117.65 732.69 127.04 723.33 127.04 723.33 136.44 713.96 136.44 704.59 136.44 695.23 136.44 685.86 136.44 676.5 136.44 667.13 136.44 657.76 136.44 648.4 136.44 648.4 145.83 639.03 145.83 639.03 155.22 629.67 155.22 620.3 155.22 620.3 145.83 610.93 145.83 601.57 145.83 601.57 136.44 592.2 136.44 592.2 127.04 582.84 127.04 573.47 127.04 564.11 127.04 564.11 136.44 554.74 136.44 554.74 145.83 545.37 145.83 545.37 136.44 536.01 136.44 526.64 136.44 517.28 136.44 507.91 136.44 498.54 136.44 498.54 145.83 489.18 145.83 479.81 145.83 479.81 155.22 470.45 155.22 470.45 164.61 461.08 164.61 461.08 174 461.08 183.39 461.08 192.78 451.71 192.78 451.71 202.17 442.35 202.17 442.35 192.78 432.98 192.78 432.98 183.39 423.62 183.39 423.62 174 414.25 174 404.89 174 395.52 174 386.15 174 376.79 174 367.42 174 367.42 183.39 358.06 183.39 358.06 192.78 348.69 192.78 339.32 192.78 329.96 192.78 320.59 192.78 320.59 202.17 311.23 202.17 311.23 211.56 311.23 220.96 301.86 220.96 301.86 230.35 292.5 230.35 283.13 230.35 273.76 230.35 264.4 230.35 255.03 230.35 255.03 239.74 245.67 239.74 245.67 249.13 245.67 258.52 245.67 267.91 245.67 277.3 255.03 277.3 255.03 267.91 264.4 267.91 273.76 267.91 273.76 258.52 283.13 258.52 292.5 258.52 292.5 249.13 301.86 249.13 311.23 249.13 311.23 239.74 320.59 239.74 320.59 230.35 329.96 230.35 329.96 220.96 339.32 220.96 348.69 220.96 348.69 211.56 358.06 211.56 367.42 211.56 367.42 202.17 376.79 202.17 386.15 202.17 395.52 202.17 404.89 202.17 404.89 211.56 414.25 211.56 423.62 211.56 423.62 220.96 432.98 220.96 432.98 230.35 442.35 230.35 442.35 239.74 442.35 249.13 451.71 249.13 461.08 249.13 461.08 239.74 470.45 239.74 479.81 239.74 479.81 230.35 489.18 230.35 489.18 220.96 498.54 220.96 507.91 220.96 507.91 211.56 517.28 211.56 517.28 202.17 526.64 202.17 536.01 202.17 545.37 202.17 545.37 192.78 554.74 192.78 564.11 192.78 573.47 192.78 573.47 183.39 582.84 183.39 592.2 183.39 592.2 192.78 601.57 192.78 610.93 192.78 610.93 202.17 620.3 202.17 629.67 202.17 639.03 202.17 639.03 211.56 648.4 211.56 657.76 211.56 657.76 202.17 667.13 202.17 667.13 192.78 676.5 192.78 676.5 183.39 685.86 183.39 685.86 174 695.23 174 695.23 164.61 704.59 164.61 713.96 164.61 723.33 164.61 723.33 155.22 732.69 155.22 742.06 155.22 751.42 155.22 760.79 155.22 770.15 155.22 779.52 155.22 779.52 164.61 788.89 164.61 788.89 174 798.25 174 798.25 183.39 807.62 183.39 816.98 183.39 816.98 192.78 826.35 192.78 826.35 183.39 826.35 174 835.72 174 835.72 164.61 835.72 155.22 845.08 155.22 845.08 145.83 845.08 136.44 854.45 136.44 863.81 136.44 863.81 127.04 873.18 127.04 882.54 127.04 891.91 127.04 901.28 127.04 910.64 127.04 920.01 127.04 929.37 127.04 938.74 127.04 938.74 136.44 948.11 136.44 957.47 136.44 957.47 145.83 966.84 145.83 976.2 145.83 976.2 155.22 985.57 155.22 994.93 155.22 994.93 164.61 1004.3 164.61 1013.67 164.61 1023.03 164.61 1023.03 155.22 1032.4 155.22 1032.4 145.83 1032.4 136.44 1041.76 136.44 1041.76 127.04 1051.13 127.04 1051.13 117.65 1060.5 117.65 1060.5 108.26 1069.86 108.26 1079.23 108.26 1079.23 98.87 1088.59 98.87 1097.96 98.87 1097.96 89.48 1107.33 89.48 1107.33 80.09 1097.96 80.09 1088.59 80.09"/><rect class="cls-3" x="1191.62" y="136.43" width="9.37" height="9.39"/><polygon class="cls-4" points="442.35 249.13 442.35 239.74 442.35 230.35 432.98 230.35 432.98 220.96 423.62 220.96 423.62 211.56 414.25 211.56 404.89 211.56 404.89 202.17 395.52 202.17 386.15 202.17 376.79 202.17 367.42 202.17 367.42 211.56 358.06 211.56 348.69 211.56 348.69 220.96 339.32 220.96 329.96 220.96 329.96 230.35 320.59 230.35 320.59 239.74 311.23 239.74 311.23 249.13 301.86 249.13 292.5 249.13 292.5 258.52 283.13 258.52 273.76 258.52 273.76 267.91 264.4 267.91 255.03 267.91 255.03 277.3 255.03 286.7 264.4 286.7 273.76 286.7 283.13 286.7 292.5 286.7 292.5 296.09 301.86 296.09 311.23 296.09 320.59 296.09 329.96 296.09 339.32 296.09 339.32 286.7 348.69 286.7 358.06 286.7 367.42 286.7 376.79 286.7 386.15 286.7 386.15 296.09 395.52 296.09 404.89 296.09 414.25 296.09 414.25 286.7 423.62 286.7 423.62 277.3 432.98 277.3 432.98 267.91 442.35 267.91 442.35 258.52 451.71 258.52 461.08 258.52 461.08 249.13 451.71 249.13 442.35 249.13"/><polygon class="cls-4" points="1229.08 249.13 1229.08 239.74 1229.08 230.35 1229.08 220.96 1219.71 220.96 1210.35 220.96 1210.35 211.56 1200.98 211.56 1200.98 202.17 1200.98 192.78 1210.35 192.78 1210.35 183.39 1210.35 174 1210.35 164.61 1200.98 164.61 1200.98 155.22 1200.98 145.83 1191.62 145.83 1191.62 136.44 1182.25 136.44 1172.89 136.44 1163.52 136.44 1154.15 136.44 1154.15 127.04 1144.79 127.04 1144.79 117.65 1144.79 108.26 1135.42 108.26 1135.42 98.87 1126.06 98.87 1126.06 89.48 1116.69 89.48 1107.33 89.48 1097.96 89.48 1097.96 98.87 1088.59 98.87 1079.23 98.87 1079.23 108.26 1069.86 108.26 1060.5 108.26 1060.5 117.65 1051.13 117.65 1051.13 127.04 1041.76 127.04 1041.76 136.44 1032.4 136.44 1032.4 145.83 1032.4 155.22 1023.03 155.22 1023.03 164.61 1013.67 164.61 1004.3 164.61 994.93 164.61 994.93 155.22 985.57 155.22 976.2 155.22 976.2 145.83 966.84 145.83 957.47 145.83 957.47 136.44 948.11 136.44 938.74 136.44 938.74 127.04 929.37 127.04 920.01 127.04 910.64 127.04 901.28 127.04 891.91 127.04 882.54 127.04 873.18 127.04 863.81 127.04 863.81 136.44 854.45 136.44 845.08 136.44 845.08 145.83 845.08 155.22 835.72 155.22 835.72 164.61 835.72 174 826.35 174 826.35 183.39 826.35 192.78 816.98 192.78 816.98 183.39 807.62 183.39 798.25 183.39 798.25 174 788.89 174 788.89 164.61 779.52 164.61 779.52 155.22 770.15 155.22 760.79 155.22 751.42 155.22 742.06 155.22 732.69 155.22 723.33 155.22 723.33 164.61 713.96 164.61 704.59 164.61 695.23 164.61 695.23 174 685.86 174 685.86 183.39 676.5 183.39 676.5 192.78 667.13 192.78 667.13 202.17 657.76 202.17 657.76 211.56 648.4 211.56 639.03 211.56 639.03 202.17 629.67 202.17 620.3 202.17 610.93 202.17 610.93 192.78 601.57 192.78 592.2 192.78 592.2 183.39 582.84 183.39 573.47 183.39 573.47 192.78 564.11 192.78 554.74 192.78 545.37 192.78 545.37 202.17 536.01 202.17 526.64 202.17 517.28 202.17 517.28 211.56 507.91 211.56 507.91 220.96 498.54 220.96 489.18 220.96 489.18 230.35 479.81 230.35 479.81 239.74 470.45 239.74 461.08 239.74 461.08 249.13 470.45 249.13 479.81 249.13 479.81 258.52 489.18 258.52 498.54 258.52 507.91 258.52 507.91 267.91 517.28 267.91 517.28 277.3 526.64 277.3 526.64 286.7 536.01 286.7 545.37 286.7 554.74 286.7 554.74 296.09 564.11 296.09 573.47 296.09 582.84 296.09 592.2 296.09 601.57 296.09 610.93 296.09 610.93 286.7 620.3 286.7 629.67 286.7 629.67 277.3 639.03 277.3 648.4 277.3 657.76 277.3 667.13 277.3 667.13 286.7 676.5 286.7 685.86 286.7 685.86 296.09 695.23 296.09 704.59 296.09 713.96 296.09 723.33 296.09 732.69 296.09 742.06 296.09 751.42 296.09 760.79 296.09 760.79 305.48 770.15 305.48 770.15 296.09 779.52 296.09 779.52 286.7 788.89 286.7 788.89 277.3 788.89 267.91 798.25 267.91 798.25 258.52 807.62 258.52 816.98 258.52 826.35 258.52 835.72 258.52 845.08 258.52 854.45 258.52 854.45 267.91 863.81 267.91 873.18 267.91 873.18 277.3 882.54 277.3 882.54 286.7 891.91 286.7 891.91 296.09 901.28 296.09 901.28 305.48 910.64 305.48 910.64 296.09 920.01 296.09 929.37 296.09 938.74 296.09 938.74 286.7 948.11 286.7 948.11 277.3 957.47 277.3 966.84 277.3 966.84 267.91 976.2 267.91 985.57 267.91 994.93 267.91 1004.3 267.91 1013.67 267.91 1023.03 267.91 1023.03 277.3 1032.4 277.3 1032.4 286.7 1041.76 286.7 1041.76 296.09 1051.13 296.09 1060.5 296.09 1069.86 296.09 1069.86 286.7 1079.23 286.7 1079.23 277.3 1088.59 277.3 1097.96 277.3 1107.33 277.3 1116.69 277.3 1126.06 277.3 1126.06 286.7 1135.42 286.7 1144.79 286.7 1154.15 286.7 1154.15 277.3 1163.52 277.3 1163.52 267.91 1172.89 267.91 1172.89 258.52 1182.25 258.52 1191.62 258.52 1200.98 258.52 1210.35 258.52 1210.35 267.91 1219.71 267.91 1229.08 267.91 1238.45 267.91 1238.45 258.52 1238.45 249.13 1229.08 249.13"/><polygon class="cls-5" points="1247.81 286.7 1247.81 277.3 1238.45 277.3 1238.45 267.91 1229.08 267.91 1219.71 267.91 1210.35 267.91 1210.35 258.52 1200.98 258.52 1191.62 258.52 1182.25 258.52 1172.89 258.52 1172.89 267.91 1163.52 267.91 1163.52 277.3 1154.15 277.3 1154.15 286.7 1144.79 286.7 1135.42 286.7 1126.06 286.7 1126.06 277.3 1116.69 277.3 1107.33 277.3 1097.96 277.3 1088.59 277.3 1079.23 277.3 1079.23 286.7 1069.86 286.7 1069.86 296.09 1060.5 296.09 1051.13 296.09 1041.76 296.09 1041.76 286.7 1032.4 286.7 1032.4 277.3 1023.03 277.3 1023.03 267.91 1013.67 267.91 1004.3 267.91 994.93 267.91 985.57 267.91 976.2 267.91 966.84 267.91 966.84 277.3 957.47 277.3 948.11 277.3 948.11 286.7 938.74 286.7 938.74 296.09 929.37 296.09 920.01 296.09 910.64 296.09 910.64 305.48 901.28 305.48 901.28 296.09 891.91 296.09 891.91 286.7 882.54 286.7 882.54 277.3 873.18 277.3 873.18 267.91 863.81 267.91 854.45 267.91 854.45 258.52 845.08 258.52 835.72 258.52 826.35 258.52 816.98 258.52 807.62 258.52 798.25 258.52 798.25 267.91 788.89 267.91 788.89 277.3 788.89 286.7 779.52 286.7 779.52 296.09 770.15 296.09 770.15 305.48 760.79 305.48 760.79 296.09 751.42 296.09 742.06 296.09 732.69 296.09 723.33 296.09 713.96 296.09 704.59 296.09 695.23 296.09 685.86 296.09 685.86 286.7 676.5 286.7 667.13 286.7 667.13 277.3 657.76 277.3 648.4 277.3 639.03 277.3 629.67 277.3 629.67 286.7 620.3 286.7 610.93 286.7 610.93 296.09 601.57 296.09 592.2 296.09 582.84 296.09 573.47 296.09 564.11 296.09 554.74 296.09 554.74 286.7 545.37 286.7 536.01 286.7 526.64 286.7 526.64 277.3 517.28 277.3 517.28 267.91 507.91 267.91 507.91 258.52 498.54 258.52 489.18 258.52 479.81 258.52 479.81 249.13 470.45 249.13 461.08 249.13 461.08 258.52 451.71 258.52 442.35 258.52 442.35 267.91 432.98 267.91 432.98 277.3 423.62 277.3 423.62 286.7 414.25 286.7 414.25 296.09 404.89 296.09 395.52 296.09 386.15 296.09 386.15 286.7 376.79 286.7 367.42 286.7 358.06 286.7 348.69 286.7 339.32 286.7 339.32 296.09 329.96 296.09 320.59 296.09 311.23 296.09 301.86 296.09 292.5 296.09 292.5 286.7 283.13 286.7 273.76 286.7 264.4 286.7 255.03 286.7 255.03 296.09 245.67 296.09 245.67 305.48 255.03 305.48 255.03 314.87 264.4 314.87 264.4 324.26 273.76 324.26 283.13 324.26 292.5 324.26 301.86 324.26 311.23 324.26 320.59 324.26 329.96 324.26 339.32 324.26 339.32 314.87 348.69 314.87 358.06 314.87 367.42 314.87 376.79 314.87 386.15 314.87 395.52 314.87 404.89 314.87 414.25 314.87 414.25 324.26 423.62 324.26 432.98 324.26 432.98 333.65 442.35 333.65 451.71 333.65 451.71 343.04 461.08 343.04 461.08 352.44 470.45 352.44 479.81 352.44 489.18 352.44 498.54 352.44 507.91 352.44 517.28 352.44 526.64 352.44 536.01 352.44 536.01 343.04 545.37 343.04 554.74 343.04 564.11 343.04 573.47 343.04 582.84 343.04 592.2 343.04 592.2 333.65 601.57 333.65 610.93 333.65 620.3 333.65 629.67 333.65 639.03 333.65 648.4 333.65 657.76 333.65 667.13 333.65 676.5 333.65 676.5 343.04 685.86 343.04 695.23 343.04 704.59 343.04 713.96 343.04 723.33 343.04 723.33 352.44 732.69 352.44 742.06 352.44 751.42 352.44 760.79 352.44 770.15 352.44 779.52 352.44 788.89 352.44 798.25 352.44 807.62 352.44 816.98 352.44 816.98 343.04 826.35 343.04 835.72 343.04 845.08 343.04 854.45 343.04 863.81 343.04 873.18 343.04 882.54 343.04 891.91 343.04 901.28 343.04 910.64 343.04 920.01 343.04 929.37 343.04 929.37 333.65 938.74 333.65 948.11 333.65 957.47 333.65 966.84 333.65 976.2 333.65 985.57 333.65 994.93 333.65 1004.3 333.65 1013.67 333.65 1023.03 333.65 1032.4 333.65 1041.76 333.65 1051.13 333.65 1051.13 343.04 1060.5 343.04 1069.86 343.04 1079.23 343.04 1079.23 352.44 1088.59 352.44 1097.96 352.44 1107.33 352.44 1116.69 352.44 1126.06 352.44 1135.42 352.44 1144.79 352.44 1154.15 352.44 1163.52 352.44 1172.89 352.44 1172.89 343.04 1182.25 343.04 1191.62 343.04 1200.98 343.04 1200.98 333.65 1210.35 333.65 1219.71 333.65 1229.08 333.65 1229.08 324.26 1238.45 324.26 1247.81 324.26 1257.18 324.26 1257.18 314.87 1257.18 305.48 1257.18 296.09 1257.18 286.7 1247.81 286.7"/></g></g><g id="nuage2"><g class="cls-2"><polygon class="cls-6" points="172.16 176.7 172.16 167.3 172.16 157.91 162.8 157.91 153.43 157.91 144.06 157.91 144.06 148.52 144.06 139.13 134.7 139.13 134.7 129.74 125.33 129.74 125.33 120.35 115.97 120.35 106.6 120.35 106.6 110.96 97.23 110.96 87.87 110.96 78.5 110.96 69.14 110.96 69.14 101.56 59.77 101.56 59.77 92.17 50.41 92.17 41.04 92.17 31.67 92.17 22.31 92.17 12.94 92.17 12.94 82.78 3.58 82.78 3.58 73.39 -5.79 73.39 -15.16 73.39 -24.52 73.39 -24.52 64 -33.89 64 -43.25 64 -43.25 73.39 -52.62 73.39 -61.98 73.39 -61.98 82.78 -71.35 82.78 -80.72 82.78 -90.08 82.78 -99.45 82.78 -108.81 82.78 -118.18 82.78 -127.55 82.78 -136.91 82.78 -136.91 92.17 -146.28 92.17 -155.64 92.17 -155.64 101.56 -155.64 110.96 -155.64 120.35 -165.01 120.35 -165.01 129.74 -174.38 129.74 -174.38 139.13 -183.74 139.13 -183.74 148.52 -183.74 157.91 -183.74 167.3 -193.11 167.3 -193.11 176.7 -193.11 186.09 -183.74 186.09 -183.74 176.7 -174.38 176.7 -174.38 167.3 -165.01 167.3 -165.01 157.91 -155.64 157.91 -155.64 148.52 -146.28 148.52 -146.28 139.13 -136.91 139.13 -127.55 139.13 -118.18 139.13 -108.81 139.13 -99.45 139.13 -99.45 148.52 -90.08 148.52 -90.08 157.91 -80.72 157.91 -71.35 157.91 -71.35 148.52 -61.98 148.52 -61.98 139.13 -52.62 139.13 -52.62 129.74 -43.25 129.74 -43.25 120.35 -33.89 120.35 -33.89 110.96 -24.52 110.96 -24.52 101.56 -15.16 101.56 -5.79 101.56 3.58 101.56 12.94 101.56 12.94 110.96 22.31 110.96 31.67 110.96 31.67 120.35 41.04 120.35 50.41 120.35 50.41 129.74 50.41 139.13 50.41 148.52 50.41 157.91 59.77 157.91 69.14 157.91 78.5 157.91 78.5 148.52 87.87 148.52 87.87 139.13 97.23 139.13 106.6 139.13 115.97 139.13 115.97 148.52 115.97 157.91 125.33 157.91 125.33 167.3 134.7 167.3 144.06 167.3 153.43 167.3 153.43 176.7 162.8 176.7 162.8 186.09 172.16 186.09 172.16 195.48 181.53 195.48 181.53 186.09 181.53 176.7 172.16 176.7"/><polygon class="cls-4" points="31.67 120.35 31.67 110.96 22.31 110.96 12.94 110.96 12.94 101.56 3.58 101.56 -5.79 101.56 -15.16 101.56 -24.52 101.56 -24.52 110.96 -33.89 110.96 -33.89 120.35 -43.25 120.35 -43.25 129.74 -52.62 129.74 -52.62 139.13 -61.98 139.13 -61.98 148.52 -71.35 148.52 -71.35 157.91 -80.72 157.91 -90.08 157.91 -90.08 148.52 -99.45 148.52 -99.45 139.13 -108.81 139.13 -118.18 139.13 -127.55 139.13 -136.91 139.13 -146.28 139.13 -146.28 148.52 -155.64 148.52 -155.64 157.91 -165.01 157.91 -165.01 167.3 -174.38 167.3 -174.38 176.7 -183.74 176.7 -183.74 186.09 -193.11 186.09 -193.11 195.48 -183.74 195.48 -183.74 204.87 -174.38 204.87 -174.38 214.26 -165.01 214.26 -155.64 214.26 -146.28 214.26 -146.28 204.87 -136.91 204.87 -127.55 204.87 -127.55 195.48 -118.18 195.48 -108.81 195.48 -99.45 195.48 -90.08 195.48 -90.08 204.87 -80.72 204.87 -80.72 195.48 -80.72 186.09 -71.35 186.09 -71.35 176.7 -61.98 176.7 -52.62 176.7 -43.25 176.7 -33.89 176.7 -33.89 186.09 -24.52 186.09 -15.16 186.09 -15.16 195.48 -5.79 195.48 3.58 195.48 12.94 195.48 12.94 186.09 22.31 186.09 22.31 176.7 31.67 176.7 31.67 167.3 41.04 167.3 50.41 167.3 50.41 157.91 50.41 148.52 50.41 139.13 50.41 129.74 50.41 120.35 41.04 120.35 31.67 120.35"/><polygon class="cls-4" points="115.97 157.91 115.97 148.52 115.97 139.13 106.6 139.13 97.23 139.13 87.87 139.13 87.87 148.52 78.5 148.52 78.5 157.91 78.5 167.3 87.87 167.3 87.87 176.7 97.23 176.7 97.23 186.09 106.6 186.09 106.6 195.48 115.97 195.48 115.97 186.09 115.97 176.7 125.33 176.7 125.33 167.3 125.33 157.91 115.97 157.91"/><polygon class="cls-5" points="172.16 195.48 172.16 186.09 162.8 186.09 162.8 176.7 153.43 176.7 153.43 167.3 144.06 167.3 134.7 167.3 125.33 167.3 125.33 176.7 115.97 176.7 115.97 186.09 115.97 195.48 106.6 195.48 106.6 186.09 97.23 186.09 97.23 176.7 87.87 176.7 87.87 167.3 78.5 167.3 78.5 157.91 69.14 157.91 59.77 157.91 50.41 157.91 50.41 167.3 41.04 167.3 31.67 167.3 31.67 176.7 22.31 176.7 22.31 186.09 12.94 186.09 12.94 195.48 3.58 195.48 -5.79 195.48 -15.16 195.48 -15.16 186.09 -24.52 186.09 -33.89 186.09 -33.89 176.7 -43.25 176.7 -52.62 176.7 -61.98 176.7 -71.35 176.7 -71.35 186.09 -80.72 186.09 -80.72 195.48 -80.72 204.87 -90.08 204.87 -90.08 195.48 -99.45 195.48 -108.81 195.48 -118.18 195.48 -127.55 195.48 -127.55 204.87 -136.91 204.87 -146.28 204.87 -146.28 214.26 -155.64 214.26 -165.01 214.26 -174.38 214.26 -174.38 204.87 -183.74 204.87 -183.74 214.26 -183.74 223.65 -174.38 223.65 -174.38 233.04 -165.01 233.04 -165.01 242.44 -155.64 242.44 -146.28 242.44 -136.91 242.44 -127.55 242.44 -118.18 242.44 -108.81 242.44 -108.81 251.83 -99.45 251.83 -90.08 251.83 -80.72 251.83 -71.35 251.83 -61.98 251.83 -61.98 242.44 -52.62 242.44 -43.25 242.44 -33.89 242.44 -24.52 242.44 -24.52 233.04 -15.16 233.04 -15.16 242.44 -5.79 242.44 3.58 242.44 12.94 242.44 22.31 242.44 22.31 251.83 31.67 251.83 41.04 251.83 50.41 251.83 59.77 251.83 69.14 251.83 78.5 251.83 87.87 251.83 87.87 242.44 97.23 242.44 106.6 242.44 115.97 242.44 125.33 242.44 134.7 242.44 144.06 242.44 153.43 242.44 162.8 242.44 162.8 233.04 172.16 233.04 172.16 223.65 181.53 223.65 181.53 214.26 181.53 204.87 181.53 195.48 172.16 195.48"/></g></g><g id="nuage3"><g class="cls-2"><rect class="cls-6" x="17.86" y="465.13" width="9.37" height="9.39"/><polygon class="cls-6" points="-0.87 474.52 -10.24 474.52 -19.6 474.52 -28.97 474.52 -38.33 474.52 -47.7 474.52 -47.7 483.91 -57.06 483.91 -66.43 483.91 -66.43 493.3 -75.8 493.3 -75.8 502.7 -85.16 502.7 -94.53 502.7 -103.89 502.7 -103.89 512.09 -113.26 512.09 -122.63 512.09 -131.99 512.09 -131.99 521.48 -141.36 521.48 -141.36 530.87 -150.72 530.87 -150.72 540.26 -150.72 549.65 -150.72 559.04 -150.72 568.43 -160.09 568.43 -160.09 577.83 -169.46 577.83 -178.82 577.83 -188.19 577.83 -188.19 587.22 -197.55 587.22 -206.92 587.22 -216.28 587.22 -216.28 596.61 -225.65 596.61 -235.02 596.61 -244.38 596.61 -253.75 596.61 -253.75 606 -244.38 606 -235.02 606 -225.65 606 -216.28 606 -206.92 606 -197.55 606 -188.19 606 -178.82 606 -169.46 606 -160.09 606 -150.72 606 -150.72 596.61 -141.36 596.61 -141.36 587.22 -131.99 587.22 -131.99 577.83 -131.99 568.43 -122.63 568.43 -122.63 559.04 -122.63 549.65 -113.26 549.65 -113.26 540.26 -103.89 540.26 -94.53 540.26 -85.16 540.26 -75.8 540.26 -66.43 540.26 -66.43 549.65 -57.06 549.65 -47.7 549.65 -38.33 549.65 -38.33 559.04 -28.97 559.04 -19.6 559.04 -10.24 559.04 -10.24 549.65 -10.24 540.26 -10.24 530.87 -0.87 530.87 -0.87 521.48 -0.87 512.09 -0.87 502.7 -0.87 493.3 8.5 493.3 8.5 483.91 17.86 483.91 17.86 474.52 8.5 474.52 -0.87 474.52"/><polygon class="cls-6" points="1141.76 624.78 1132.4 624.78 1132.4 615.39 1123.03 615.39 1113.67 615.39 1113.67 606 1104.3 606 1094.93 606 1085.57 606 1076.2 606 1076.2 596.61 1066.84 596.61 1057.47 596.61 1048.11 596.61 1048.11 587.22 1038.74 587.22 1038.74 577.83 1029.37 577.83 1029.37 568.43 1020.01 568.43 1010.64 568.43 1001.28 568.43 991.91 568.43 991.91 577.83 982.54 577.83 982.54 568.43 982.54 559.04 973.18 559.04 973.18 549.65 973.18 540.26 963.81 540.26 954.45 540.26 954.45 530.87 945.08 530.87 945.08 521.48 945.08 512.09 935.72 512.09 926.35 512.09 916.98 512.09 907.62 512.09 898.25 512.09 898.25 502.7 888.89 502.7 879.52 502.7 870.15 502.7 860.79 502.7 851.42 502.7 842.06 502.7 842.06 512.09 832.69 512.09 823.33 512.09 813.96 512.09 804.59 512.09 795.23 512.09 795.23 521.48 785.86 521.48 776.5 521.48 776.5 512.09 767.13 512.09 767.13 502.7 757.76 502.7 748.4 502.7 739.03 502.7 739.03 493.3 729.67 493.3 720.3 493.3 710.93 493.3 701.57 493.3 692.2 493.3 682.84 493.3 682.84 483.91 682.84 474.52 682.84 465.13 673.47 465.13 673.47 455.74 664.11 455.74 654.74 455.74 654.74 446.35 645.37 446.35 636.01 446.35 636.01 436.96 626.64 436.96 617.28 436.96 607.91 436.96 598.54 436.96 598.54 427.56 589.18 427.56 589.18 418.17 579.81 418.17 570.45 418.17 561.08 418.17 561.08 408.78 551.72 408.78 542.35 408.78 532.98 408.78 523.62 408.78 514.25 408.78 514.25 399.39 504.89 399.39 504.89 390 495.52 390 495.52 380.61 486.15 380.61 486.15 371.22 476.79 371.22 467.42 371.22 467.42 361.83 458.06 361.83 448.69 361.83 439.32 361.83 429.96 361.83 420.59 361.83 411.23 361.83 411.23 371.22 401.86 371.22 392.5 371.22 383.13 371.22 383.13 380.61 373.76 380.61 373.76 371.22 364.4 371.22 364.4 361.83 355.03 361.83 355.03 352.44 345.67 352.44 336.3 352.44 326.94 352.44 317.57 352.44 308.2 352.44 298.84 352.44 289.47 352.44 280.11 352.44 270.74 352.44 261.37 352.44 252.01 352.44 252.01 361.83 242.64 361.83 233.28 361.83 223.91 361.83 223.91 371.22 214.54 371.22 214.54 380.61 205.18 380.61 205.18 390 195.81 390 195.81 399.39 186.45 399.39 186.45 408.78 177.08 408.78 167.72 408.78 158.35 408.78 158.35 418.17 148.98 418.17 139.62 418.17 130.25 418.17 120.89 418.17 120.89 408.78 111.52 408.78 102.15 408.78 92.79 408.78 83.42 408.78 74.06 408.78 74.06 418.17 64.69 418.17 55.33 418.17 45.96 418.17 36.59 418.17 36.59 427.56 36.59 436.96 27.23 436.96 27.23 446.35 27.23 455.74 27.23 465.13 36.59 465.13 36.59 455.74 45.96 455.74 55.33 455.74 64.69 455.74 74.06 455.74 83.42 455.74 92.79 455.74 102.15 455.74 111.52 455.74 120.89 455.74 130.25 455.74 139.62 455.74 148.98 455.74 148.98 465.13 158.35 465.13 167.72 465.13 177.08 465.13 177.08 474.52 186.45 474.52 195.81 474.52 195.81 483.91 205.18 483.91 205.18 474.52 205.18 465.13 214.54 465.13 214.54 455.74 214.54 446.35 223.91 446.35 223.91 436.96 233.28 436.96 233.28 427.56 242.64 427.56 242.64 418.17 252.01 418.17 261.37 418.17 261.37 408.78 270.74 408.78 280.11 408.78 280.11 399.39 289.47 399.39 298.84 399.39 308.2 399.39 317.57 399.39 317.57 408.78 326.94 408.78 336.3 408.78 345.67 408.78 355.03 408.78 364.4 408.78 373.76 408.78 373.76 418.17 383.13 418.17 383.13 427.56 392.5 427.56 392.5 436.96 401.86 436.96 401.86 446.35 401.86 455.74 411.23 455.74 411.23 465.13 420.59 465.13 420.59 474.52 429.96 474.52 429.96 483.91 429.96 493.3 439.32 493.3 448.69 493.3 458.06 493.3 458.06 483.91 467.42 483.91 476.79 483.91 476.79 474.52 486.15 474.52 495.52 474.52 504.89 474.52 504.89 465.13 514.25 465.13 523.62 465.13 532.98 465.13 542.35 465.13 551.72 465.13 551.72 474.52 561.08 474.52 570.45 474.52 579.81 474.52 579.81 483.91 589.18 483.91 589.18 493.3 598.54 493.3 607.91 493.3 607.91 502.7 617.28 502.7 617.28 512.09 626.64 512.09 626.64 521.48 626.64 530.87 626.64 540.26 636.01 540.26 636.01 549.65 645.37 549.65 654.74 549.65 664.11 549.65 664.11 559.04 673.47 559.04 682.84 559.04 692.2 559.04 701.57 559.04 701.57 549.65 710.93 549.65 720.3 549.65 729.67 549.65 739.03 549.65 739.03 559.04 748.4 559.04 757.76 559.04 767.13 559.04 767.13 568.43 776.5 568.43 785.86 568.43 785.86 559.04 795.23 559.04 795.23 549.65 804.59 549.65 804.59 540.26 813.96 540.26 813.96 530.87 823.33 530.87 832.69 530.87 842.06 530.87 851.42 530.87 860.79 530.87 860.79 540.26 870.15 540.26 879.52 540.26 879.52 549.65 888.89 549.65 898.25 549.65 898.25 559.04 907.62 559.04 916.98 559.04 916.98 568.43 916.98 577.83 926.35 577.83 926.35 587.22 935.72 587.22 935.72 596.61 945.08 596.61 945.08 606 954.45 606 963.81 606 973.18 606 982.54 606 991.91 606 1001.28 606 1001.28 596.61 1010.64 596.61 1020.01 596.61 1029.37 596.61 1029.37 606 1038.74 606 1048.11 606 1057.47 606 1057.47 615.39 1066.84 615.39 1076.2 615.39 1076.2 624.78 1085.57 624.78 1085.57 634.17 1094.93 634.17 1104.3 634.17 1113.67 634.17 1123.03 634.17 1132.4 634.17 1141.76 634.17 1151.13 634.17 1160.49 634.17 1160.49 624.78 1151.13 624.78 1141.76 624.78"/><polygon class="cls-6" points="1207.33 643.57 1207.33 652.96 1216.69 652.96 1226.06 652.96 1226.06 643.57 1216.69 643.57 1207.33 643.57"/><polygon class="cls-6" points="1329.08 643.57 1319.71 643.57 1310.35 643.57 1300.98 643.57 1291.62 643.57 1282.25 643.57 1282.25 652.96 1291.62 652.96 1300.98 652.96 1310.35 652.96 1319.71 652.96 1329.08 652.96 1338.45 652.96 1338.45 643.57 1329.08 643.57"/><polygon class="cls-6" points="1263.52 652.96 1254.15 652.96 1244.79 652.96 1235.42 652.96 1235.42 662.35 1244.79 662.35 1254.15 662.35 1263.52 662.35 1272.89 662.35 1282.25 662.35 1282.25 652.96 1272.89 652.96 1263.52 652.96"/><polygon class="cls-6" points="1338.45 652.96 1338.45 662.35 1347.81 662.35 1357.18 662.35 1357.18 652.96 1347.81 652.96 1338.45 652.96"/><polygon class="cls-6" points="1450.84 662.35 1441.47 662.35 1432.11 662.35 1432.11 652.96 1422.74 652.96 1413.37 652.96 1404.01 652.96 1394.64 652.96 1385.28 652.96 1385.28 662.35 1394.64 662.35 1404.01 662.35 1404.01 671.74 1413.37 671.74 1413.37 681.13 1422.74 681.13 1432.11 681.13 1441.47 681.13 1450.84 681.13 1460.2 681.13 1460.2 671.74 1460.2 662.35 1450.84 662.35"/><polygon class="cls-4" points="664.11 549.65 654.74 549.65 645.37 549.65 636.01 549.65 636.01 540.26 626.64 540.26 626.64 530.87 626.64 521.48 626.64 512.09 617.28 512.09 617.28 502.7 607.91 502.7 607.91 493.3 598.54 493.3 589.18 493.3 589.18 483.91 579.81 483.91 579.81 474.52 570.45 474.52 561.08 474.52 551.72 474.52 551.72 465.13 542.35 465.13 532.98 465.13 523.62 465.13 514.25 465.13 504.89 465.13 504.89 474.52 495.52 474.52 486.15 474.52 476.79 474.52 476.79 483.91 467.42 483.91 458.06 483.91 458.06 493.3 448.69 493.3 439.32 493.3 429.96 493.3 429.96 483.91 429.96 474.52 420.59 474.52 420.59 465.13 411.23 465.13 411.23 455.74 401.86 455.74 401.86 446.35 401.86 436.96 392.5 436.96 392.5 427.56 383.13 427.56 383.13 418.17 373.76 418.17 373.76 408.78 364.4 408.78 355.03 408.78 345.67 408.78 336.3 408.78 326.94 408.78 317.57 408.78 317.57 399.39 308.2 399.39 298.84 399.39 289.47 399.39 280.11 399.39 280.11 408.78 270.74 408.78 261.37 408.78 261.37 418.17 252.01 418.17 242.64 418.17 242.64 427.56 233.28 427.56 233.28 436.96 223.91 436.96 223.91 446.35 214.54 446.35 214.54 455.74 214.54 465.13 205.18 465.13 205.18 474.52 205.18 483.91 195.81 483.91 195.81 474.52 186.45 474.52 177.08 474.52 177.08 465.13 167.72 465.13 158.35 465.13 148.98 465.13 148.98 455.74 139.62 455.74 130.25 455.74 120.89 455.74 111.52 455.74 102.15 455.74 92.79 455.74 83.42 455.74 74.06 455.74 64.69 455.74 55.33 455.74 45.96 455.74 36.59 455.74 36.59 465.13 27.23 465.13 27.23 474.52 17.86 474.52 17.86 483.91 8.5 483.91 8.5 493.3 -0.87 493.3 -0.87 502.7 -0.87 512.09 -0.87 521.48 -0.87 530.87 -10.24 530.87 -10.24 540.26 -10.24 549.65 -10.24 559.04 -19.6 559.04 -28.97 559.04 -38.33 559.04 -38.33 549.65 -47.7 549.65 -57.06 549.65 -66.43 549.65 -66.43 540.26 -75.8 540.26 -85.16 540.26 -94.53 540.26 -103.89 540.26 -113.26 540.26 -113.26 549.65 -122.63 549.65 -122.63 559.04 -122.63 568.43 -131.99 568.43 -131.99 577.83 -131.99 587.22 -141.36 587.22 -141.36 596.61 -150.72 596.61 -150.72 606 -160.09 606 -169.46 606 -178.82 606 -188.19 606 -197.55 606 -206.92 606 -216.28 606 -225.65 606 -235.02 606 -244.38 606 -253.75 606 -253.75 615.39 -263.11 615.39 -263.11 624.78 -272.48 624.78 -272.48 634.17 -281.85 634.17 -291.21 634.17 -291.21 643.57 -300.58 643.57 -309.94 643.57 -309.94 652.96 -319.31 652.96 -319.31 662.35 -328.68 662.35 -328.68 671.74 -328.68 681.13 -319.31 681.13 -319.31 671.74 -309.94 671.74 -300.58 671.74 -300.58 662.35 -291.21 662.35 -281.85 662.35 -281.85 652.96 -272.48 652.96 -263.11 652.96 -253.75 652.96 -244.38 652.96 -235.02 652.96 -225.65 652.96 -216.28 652.96 -206.92 652.96 -197.55 652.96 -197.55 643.57 -188.19 643.57 -178.82 643.57 -169.46 643.57 -169.46 634.17 -160.09 634.17 -160.09 624.78 -150.72 624.78 -141.36 624.78 -141.36 615.39 -131.99 615.39 -131.99 606 -122.63 606 -113.26 606 -113.26 596.61 -103.89 596.61 -103.89 587.22 -94.53 587.22 -85.16 587.22 -75.8 587.22 -66.43 587.22 -66.43 577.83 -57.06 577.83 -47.7 577.83 -38.33 577.83 -28.97 577.83 -19.6 577.83 -10.24 577.83 -10.24 587.22 -0.87 587.22 8.5 587.22 17.86 587.22 27.23 587.22 27.23 596.61 36.59 596.61 45.96 596.61 55.33 596.61 55.33 606 64.69 606 64.69 596.61 74.06 596.61 74.06 587.22 83.42 587.22 83.42 577.83 83.42 568.43 92.79 568.43 92.79 559.04 92.79 549.65 102.15 549.65 102.15 540.26 111.52 540.26 111.52 530.87 120.89 530.87 120.89 521.48 130.25 521.48 139.62 521.48 148.98 521.48 158.35 521.48 167.72 521.48 177.08 521.48 186.45 521.48 195.81 521.48 205.18 521.48 214.54 521.48 214.54 530.87 223.91 530.87 223.91 540.26 233.28 540.26 242.64 540.26 242.64 549.65 252.01 549.65 261.37 549.65 261.37 559.04 270.74 559.04 270.74 549.65 280.11 549.65 289.47 549.65 289.47 540.26 298.84 540.26 308.2 540.26 317.57 540.26 326.94 540.26 336.3 540.26 336.3 549.65 345.67 549.65 355.03 549.65 355.03 559.04 355.03 568.43 364.4 568.43 373.76 568.43 383.13 568.43 383.13 559.04 392.5 559.04 392.5 549.65 401.86 549.65 411.23 549.65 420.59 549.65 429.96 549.65 439.32 549.65 439.32 559.04 448.69 559.04 458.06 559.04 467.42 559.04 467.42 568.43 476.79 568.43 486.15 568.43 486.15 577.83 495.52 577.83 495.52 587.22 495.52 596.61 504.89 596.61 504.89 606 504.89 615.39 514.25 615.39 514.25 606 523.62 606 532.98 606 532.98 596.61 542.35 596.61 551.72 596.61 561.08 596.61 561.08 587.22 570.45 587.22 579.81 587.22 589.18 587.22 589.18 577.83 598.54 577.83 607.91 577.83 617.28 577.83 617.28 568.43 626.64 568.43 636.01 568.43 636.01 577.83 636.01 587.22 645.37 587.22 654.74 587.22 654.74 577.83 664.11 577.83 664.11 568.43 673.47 568.43 673.47 559.04 664.11 559.04 664.11 549.65"/><polygon class="cls-4" points="916.98 559.04 907.62 559.04 898.25 559.04 898.25 549.65 888.89 549.65 879.52 549.65 879.52 540.26 870.15 540.26 860.79 540.26 860.79 530.87 851.42 530.87 842.06 530.87 832.69 530.87 823.33 530.87 813.96 530.87 813.96 540.26 804.59 540.26 804.59 549.65 795.23 549.65 795.23 559.04 785.86 559.04 785.86 568.43 776.5 568.43 767.13 568.43 767.13 559.04 757.76 559.04 748.4 559.04 739.03 559.04 739.03 549.65 729.67 549.65 720.3 549.65 710.93 549.65 701.57 549.65 701.57 559.04 710.93 559.04 720.3 559.04 720.3 568.43 729.67 568.43 729.67 577.83 739.03 577.83 739.03 587.22 748.4 587.22 748.4 596.61 748.4 606 757.76 606 757.76 615.39 767.13 615.39 767.13 624.78 776.5 624.78 776.5 634.17 785.86 634.17 795.23 634.17 804.59 634.17 804.59 624.78 813.96 624.78 823.33 624.78 823.33 615.39 832.69 615.39 842.06 615.39 842.06 606 851.42 606 851.42 596.61 860.79 596.61 870.15 596.61 870.15 587.22 879.52 587.22 879.52 577.83 888.89 577.83 898.25 577.83 907.62 577.83 916.98 577.83 916.98 568.43 916.98 559.04"/><rect class="cls-4" x="916.98" y="577.83" width="9.37" height="9.39"/><rect class="cls-4" x="935.72" y="596.61" width="9.37" height="9.39"/><polygon class="cls-4" points="1076.2 615.39 1066.84 615.39 1057.47 615.39 1057.47 606 1048.11 606 1038.74 606 1029.37 606 1029.37 596.61 1020.01 596.61 1010.64 596.61 1001.28 596.61 1001.28 606 991.91 606 982.54 606 973.18 606 963.81 606 954.45 606 945.08 606 945.08 615.39 954.45 615.39 954.45 624.78 963.81 624.78 973.18 624.78 982.54 624.78 991.91 624.78 991.91 615.39 1001.28 615.39 1010.64 615.39 1020.01 615.39 1029.37 615.39 1038.74 615.39 1048.11 615.39 1048.11 624.78 1057.47 624.78 1066.84 624.78 1066.84 634.17 1066.84 643.57 1076.2 643.57 1085.57 643.57 1085.57 634.17 1085.57 624.78 1076.2 624.78 1076.2 615.39"/><rect class="cls-4" x="1188.59" y="634.17" width="9.37" height="9.39"/><rect class="cls-4" x="1197.96" y="643.57" width="9.37" height="9.39"/><polygon class="cls-4" points="1319.71 652.96 1310.35 652.96 1300.98 652.96 1291.62 652.96 1282.25 652.96 1282.25 662.35 1272.89 662.35 1263.52 662.35 1254.15 662.35 1244.79 662.35 1235.42 662.35 1235.42 652.96 1226.06 652.96 1216.69 652.96 1207.33 652.96 1207.33 662.35 1216.69 662.35 1216.69 671.74 1226.06 671.74 1235.42 671.74 1244.79 671.74 1254.15 671.74 1254.15 681.13 1263.52 681.13 1263.52 671.74 1272.89 671.74 1282.25 671.74 1291.62 671.74 1300.98 671.74 1300.98 662.35 1310.35 662.35 1319.71 662.35 1329.08 662.35 1338.45 662.35 1338.45 652.96 1329.08 652.96 1319.71 652.96"/><polygon class="cls-4" points="1413.37 681.13 1413.37 671.74 1404.01 671.74 1404.01 662.35 1394.64 662.35 1385.28 662.35 1375.91 662.35 1366.54 662.35 1357.18 662.35 1347.81 662.35 1347.81 671.74 1357.18 671.74 1366.54 671.74 1375.91 671.74 1385.28 671.74 1394.64 671.74 1394.64 681.13 1404.01 681.13 1404.01 690.52 1413.37 690.52 1422.74 690.52 1422.74 681.13 1413.37 681.13"/><polygon class="cls-5" points="1394.64 681.13 1394.64 671.74 1385.28 671.74 1375.91 671.74 1366.54 671.74 1357.18 671.74 1347.81 671.74 1347.81 662.35 1338.45 662.35 1329.08 662.35 1319.71 662.35 1310.35 662.35 1300.98 662.35 1300.98 671.74 1291.62 671.74 1282.25 671.74 1272.89 671.74 1263.52 671.74 1263.52 681.13 1254.15 681.13 1254.15 671.74 1244.79 671.74 1235.42 671.74 1226.06 671.74 1216.69 671.74 1216.69 662.35 1207.33 662.35 1207.33 652.96 1197.96 652.96 1197.96 643.57 1188.59 643.57 1188.59 634.17 1179.23 634.17 1169.86 634.17 1160.49 634.17 1151.13 634.17 1141.76 634.17 1132.4 634.17 1123.03 634.17 1113.67 634.17 1104.3 634.17 1094.93 634.17 1085.57 634.17 1085.57 643.57 1076.2 643.57 1066.84 643.57 1066.84 634.17 1066.84 624.78 1057.47 624.78 1048.11 624.78 1048.11 615.39 1038.74 615.39 1029.37 615.39 1020.01 615.39 1010.64 615.39 1001.28 615.39 991.91 615.39 991.91 624.78 982.54 624.78 973.18 624.78 963.81 624.78 954.45 624.78 954.45 615.39 945.08 615.39 945.08 606 935.72 606 935.72 596.61 935.72 587.22 926.35 587.22 916.98 587.22 916.98 577.83 907.62 577.83 898.25 577.83 888.89 577.83 879.52 577.83 879.52 587.22 870.15 587.22 870.15 596.61 860.79 596.61 851.42 596.61 851.42 606 842.06 606 842.06 615.39 832.69 615.39 823.33 615.39 823.33 624.78 813.96 624.78 804.59 624.78 804.59 634.17 795.23 634.17 785.86 634.17 776.5 634.17 776.5 624.78 767.13 624.78 767.13 615.39 757.76 615.39 757.76 606 748.4 606 748.4 596.61 748.4 587.22 739.03 587.22 739.03 577.83 729.67 577.83 729.67 568.43 720.3 568.43 720.3 559.04 710.93 559.04 701.57 559.04 692.2 559.04 682.84 559.04 673.47 559.04 673.47 568.43 664.11 568.43 664.11 577.83 654.74 577.83 654.74 587.22 645.37 587.22 636.01 587.22 636.01 577.83 636.01 568.43 626.64 568.43 617.28 568.43 617.28 577.83 607.91 577.83 598.54 577.83 589.18 577.83 589.18 587.22 579.81 587.22 570.45 587.22 561.08 587.22 561.08 596.61 551.72 596.61 542.35 596.61 532.98 596.61 532.98 606 523.62 606 514.25 606 514.25 615.39 504.89 615.39 504.89 606 504.89 596.61 495.52 596.61 495.52 587.22 495.52 577.83 486.15 577.83 486.15 568.43 476.79 568.43 467.42 568.43 467.42 559.04 458.06 559.04 448.69 559.04 439.32 559.04 439.32 549.65 429.96 549.65 420.59 549.65 411.23 549.65 401.86 549.65 392.5 549.65 392.5 559.04 383.13 559.04 383.13 568.43 373.76 568.43 364.4 568.43 355.03 568.43 355.03 559.04 355.03 549.65 345.67 549.65 336.3 549.65 336.3 540.26 326.94 540.26 317.57 540.26 308.2 540.26 298.84 540.26 289.47 540.26 289.47 549.65 280.11 549.65 270.74 549.65 270.74 559.04 261.37 559.04 261.37 549.65 252.01 549.65 242.64 549.65 242.64 540.26 233.28 540.26 223.91 540.26 223.91 530.87 214.54 530.87 214.54 521.48 205.18 521.48 195.81 521.48 186.45 521.48 177.08 521.48 167.72 521.48 158.35 521.48 148.98 521.48 139.62 521.48 130.25 521.48 120.89 521.48 120.89 530.87 111.52 530.87 111.52 540.26 102.15 540.26 102.15 549.65 92.79 549.65 92.79 559.04 92.79 568.43 83.42 568.43 83.42 577.83 83.42 587.22 74.06 587.22 74.06 596.61 64.69 596.61 64.69 606 55.33 606 55.33 596.61 45.96 596.61 36.59 596.61 27.23 596.61 27.23 587.22 17.86 587.22 8.5 587.22 -0.87 587.22 -10.24 587.22 -10.24 577.83 -19.6 577.83 -28.97 577.83 -38.33 577.83 -47.7 577.83 -57.06 577.83 -66.43 577.83 -66.43 587.22 -75.8 587.22 -85.16 587.22 -94.53 587.22 -103.89 587.22 -103.89 596.61 -113.26 596.61 -113.26 606 -122.63 606 -131.99 606 -131.99 615.39 -141.36 615.39 -141.36 624.78 -150.72 624.78 -160.09 624.78 -160.09 634.17 -169.46 634.17 -169.46 643.57 -178.82 643.57 -188.19 643.57 -197.55 643.57 -197.55 652.96 -206.92 652.96 -216.28 652.96 -225.65 652.96 -235.02 652.96 -244.38 652.96 -253.75 652.96 -263.11 652.96 -272.48 652.96 -281.85 652.96 -281.85 662.35 -291.21 662.35 -300.58 662.35 -300.58 671.74 -309.94 671.74 -319.31 671.74 -319.31 681.13 -319.31 690.52 -309.94 690.52 -300.58 690.52 -291.21 690.52 -281.85 690.52 -272.48 690.52 -263.11 690.52 -253.75 690.52 -244.38 690.52 -244.38 681.13 -235.02 681.13 -235.02 690.52 -225.65 690.52 -216.28 690.52 -206.92 690.52 -197.55 690.52 -188.19 690.52 -188.19 681.13 -178.82 681.13 -169.46 681.13 -169.46 671.74 -160.09 671.74 -150.72 671.74 -150.72 662.35 -141.36 662.35 -131.99 662.35 -131.99 652.96 -122.63 652.96 -113.26 652.96 -103.89 652.96 -94.53 652.96 -85.16 652.96 -75.8 652.96 -66.43 652.96 -66.43 662.35 -57.06 662.35 -47.7 662.35 -38.33 662.35 -28.97 662.35 -28.97 671.74 -19.6 671.74 -10.24 671.74 -10.24 681.13 -0.87 681.13 8.5 681.13 17.86 681.13 17.86 690.52 27.23 690.52 36.59 690.52 45.96 690.52 45.96 699.91 55.33 699.91 64.69 699.91 74.06 699.91 83.42 699.91 92.79 699.91 102.15 699.91 111.52 699.91 120.89 699.91 130.25 699.91 139.62 699.91 148.98 699.91 158.35 699.91 167.72 699.91 177.08 699.91 186.45 699.91 195.81 699.91 205.18 699.91 205.18 690.52 214.54 690.52 223.91 690.52 233.28 690.52 242.64 690.52 252.01 690.52 252.01 681.13 261.37 681.13 261.37 690.52 270.74 690.52 280.11 690.52 289.47 690.52 298.84 690.52 308.2 690.52 308.2 699.91 317.57 699.91 326.94 699.91 336.3 699.91 345.67 699.91 355.03 699.91 355.03 709.3 364.4 709.3 373.76 709.3 383.13 709.3 392.5 709.3 392.5 718.7 401.86 718.7 411.23 718.7 420.59 718.7 429.96 718.7 439.32 718.7 448.69 718.7 458.06 718.7 467.42 718.7 476.79 718.7 476.79 728.09 486.15 728.09 495.52 728.09 504.89 728.09 514.25 728.09 523.62 728.09 532.98 728.09 542.35 728.09 542.35 718.7 551.72 718.7 561.08 718.7 570.45 718.7 579.81 718.7 589.18 718.7 598.54 718.7 598.54 709.3 607.91 709.3 617.28 709.3 626.64 709.3 636.01 709.3 645.37 709.3 645.37 699.91 654.74 699.91 664.11 699.91 673.47 699.91 682.84 699.91 682.84 690.52 692.2 690.52 701.57 690.52 701.57 681.13 710.93 681.13 720.3 681.13 720.3 671.74 729.67 671.74 739.03 671.74 748.4 671.74 748.4 662.35 757.76 662.35 767.13 662.35 776.5 662.35 785.86 662.35 795.23 662.35 804.59 662.35 813.96 662.35 823.33 662.35 832.69 662.35 832.69 671.74 842.06 671.74 851.42 671.74 860.79 671.74 860.79 681.13 870.15 681.13 879.52 681.13 888.89 681.13 888.89 690.52 898.25 690.52 907.62 690.52 916.98 690.52 926.35 690.52 926.35 699.91 935.72 699.91 945.08 699.91 954.45 699.91 963.81 699.91 973.18 699.91 982.54 699.91 991.91 699.91 991.91 690.52 1001.28 690.52 1010.64 690.52 1020.01 690.52 1029.37 690.52 1029.37 681.13 1038.74 681.13 1048.11 681.13 1057.47 681.13 1057.47 671.74 1066.84 671.74 1076.2 671.74 1085.57 671.74 1094.93 671.74 1104.3 671.74 1113.67 671.74 1123.03 671.74 1123.03 681.13 1132.4 681.13 1141.76 681.13 1151.13 681.13 1160.49 681.13 1160.49 690.52 1169.86 690.52 1179.23 690.52 1188.59 690.52 1197.96 690.52 1207.33 690.52 1216.69 690.52 1226.06 690.52 1235.42 690.52 1235.42 699.91 1244.79 699.91 1254.15 699.91 1263.52 699.91 1272.89 699.91 1282.25 699.91 1291.62 699.91 1300.98 699.91 1310.35 699.91 1319.71 699.91 1329.08 699.91 1329.08 690.52 1338.45 690.52 1347.81 690.52 1357.18 690.52 1366.54 690.52 1366.54 699.91 1375.91 699.91 1385.28 699.91 1385.28 690.52 1394.64 690.52 1404.01 690.52 1404.01 681.13 1394.64 681.13"/></g></g><g id="nuage4"><g class="cls-2"><polygon class="cls-6" points="1869.89 498 1869.89 488.61 1869.89 479.22 1879.26 479.22 1888.63 479.22 1897.99 479.22 1897.99 469.83 1897.99 460.44 1907.36 460.44 1907.36 451.04 1916.72 451.04 1916.72 441.65 1926.09 441.65 1935.45 441.65 1935.45 432.26 1944.82 432.26 1954.19 432.26 1963.55 432.26 1972.92 432.26 1972.92 422.87 1982.28 422.87 1982.28 413.48 1991.65 413.48 2001.02 413.48 2010.38 413.48 2019.75 413.48 2029.11 413.48 2029.11 404.09 2038.48 404.09 2038.48 394.7 2047.85 394.7 2057.21 394.7 2066.58 394.7 2066.58 385.3 2075.94 385.3 2085.31 385.3 2085.31 394.7 2094.67 394.7 2104.04 394.7 2104.04 404.09 2113.41 404.09 2122.77 404.09 2132.14 404.09 2141.5 404.09 2150.87 404.09 2160.24 404.09 2169.6 404.09 2178.97 404.09 2178.97 413.48 2188.33 413.48 2197.7 413.48 2197.7 422.87 2197.7 432.26 2197.7 441.65 2207.06 441.65 2207.06 451.04 2216.43 451.04 2216.43 460.44 2225.8 460.44 2225.8 469.83 2225.8 479.22 2225.8 488.61 2235.16 488.61 2235.16 498 2235.16 507.39 2225.8 507.39 2225.8 498 2216.43 498 2216.43 488.61 2207.06 488.61 2207.06 479.22 2197.7 479.22 2197.7 469.83 2188.33 469.83 2188.33 460.44 2178.97 460.44 2169.6 460.44 2160.24 460.44 2150.87 460.44 2141.5 460.44 2141.5 469.83 2132.14 469.83 2132.14 479.22 2122.77 479.22 2113.41 479.22 2113.41 469.83 2104.04 469.83 2104.04 460.44 2094.67 460.44 2094.67 451.04 2085.31 451.04 2085.31 441.65 2075.94 441.65 2075.94 432.26 2066.58 432.26 2066.58 422.87 2057.21 422.87 2047.85 422.87 2038.48 422.87 2029.11 422.87 2029.11 432.26 2019.75 432.26 2010.38 432.26 2010.38 441.65 2001.02 441.65 1991.65 441.65 1991.65 451.04 1991.65 460.44 1991.65 469.83 1991.65 479.22 1982.28 479.22 1972.92 479.22 1963.55 479.22 1963.55 469.83 1954.19 469.83 1954.19 460.44 1944.82 460.44 1935.45 460.44 1926.09 460.44 1926.09 469.83 1926.09 479.22 1916.72 479.22 1916.72 488.61 1907.36 488.61 1897.99 488.61 1888.63 488.61 1888.63 498 1879.26 498 1879.26 507.39 1869.89 507.39 1869.89 516.78 1860.53 516.78 1860.53 507.39 1860.53 498 1869.89 498"/><polygon class="cls-6" points="1740.89 507.39 1740.89 498 1740.89 488.61 1750.25 488.61 1759.62 488.61 1768.98 488.61 1768.98 479.22 1768.98 469.83 1778.35 469.83 1778.35 460.44 1787.71 460.44 1787.71 451.04 1797.08 451.04 1806.45 451.04 1806.45 441.65 1815.81 441.65 1825.18 441.65 1834.54 441.65 1843.91 441.65 1843.91 432.26 1853.28 432.26 1853.28 422.87 1862.64 422.87 1872.01 422.87 1881.37 422.87 1890.74 422.87 1900.11 422.87 1900.11 413.48 1909.47 413.48 1909.47 404.09 1918.84 404.09 1928.2 404.09 1937.57 404.09 1937.57 394.7 1946.93 394.7 1956.3 394.7 1956.3 404.09 1965.67 404.09 1975.03 404.09 1975.03 413.48 1984.4 413.48 1993.76 413.48 2003.13 413.48 2012.5 413.48 2021.86 413.48 2031.23 413.48 2040.59 413.48 2049.96 413.48 2049.96 422.87 2059.32 422.87 2068.69 422.87 2068.69 432.26 2068.69 441.65 2068.69 451.04 2078.06 451.04 2078.06 460.44 2087.42 460.44 2087.42 469.83 2096.79 469.83 2096.79 479.22 2096.79 488.61 2096.79 498 2106.15 498 2106.15 507.39 2106.15 516.78 2096.79 516.78 2096.79 507.39 2087.42 507.39 2087.42 498 2078.06 498 2078.06 488.61 2068.69 488.61 2068.69 479.22 2059.32 479.22 2059.32 469.83 2049.96 469.83 2040.59 469.83 2031.23 469.83 2021.86 469.83 2012.5 469.83 2012.5 479.22 2003.13 479.22 2003.13 488.61 1993.76 488.61 1984.4 488.61 1984.4 479.22 1975.03 479.22 1975.03 469.83 1965.67 469.83 1965.67 460.44 1956.3 460.44 1956.3 451.04 1946.93 451.04 1946.93 441.65 1937.57 441.65 1937.57 432.26 1928.2 432.26 1918.84 432.26 1909.47 432.26 1900.11 432.26 1900.11 441.65 1890.74 441.65 1881.37 441.65 1881.37 451.04 1872.01 451.04 1862.64 451.04 1862.64 460.44 1862.64 469.83 1862.64 479.22 1862.64 488.61 1853.28 488.61 1843.91 488.61 1834.54 488.61 1834.54 479.22 1825.18 479.22 1825.18 469.83 1815.81 469.83 1806.45 469.83 1797.08 469.83 1797.08 479.22 1797.08 488.61 1787.71 488.61 1787.71 498 1778.35 498 1768.98 498 1759.62 498 1759.62 507.39 1750.25 507.39 1750.25 516.78 1740.89 516.78 1740.89 526.17 1731.52 526.17 1731.52 516.78 1731.52 507.39 1740.89 507.39"/><polygon class="cls-5" points="2216.43 526.17 2216.43 535.57 2207.06 535.57 2197.7 535.57 2188.33 535.57 2188.33 526.17 2178.97 526.17 2169.6 526.17 2169.6 516.78 2160.24 516.78 2150.87 516.78 2141.5 516.78 2132.14 516.78 2132.14 526.17 2122.77 526.17 2122.77 516.78 2122.77 507.39 2113.41 507.39 2113.41 498 2104.04 498 2094.67 498 2085.31 498 2075.94 498 2075.94 507.39 2066.58 507.39 2057.21 507.39 2057.21 516.78 2047.85 516.78 2038.48 516.78 2029.11 516.78 2029.11 507.39 2019.75 507.39 2019.75 498 2010.38 498 2010.38 488.61 2001.02 488.61 1991.65 488.61 1991.65 479.22 1982.28 479.22 1972.92 479.22 1963.55 479.22 1963.55 488.61 1954.19 488.61 1954.19 498 1944.82 498 1944.82 507.39 1935.45 507.39 1935.45 516.78 1928.2 516.78 1926.09 516.78 1926.09 507.39 1926.09 498 1916.72 498 1916.72 488.61 1907.36 488.61 1897.99 488.61 1888.63 488.61 1888.63 498 1881.37 498 1879.26 498 1872.01 498 1862.64 498 1862.64 488.61 1853.28 488.61 1843.91 488.61 1834.54 488.61 1834.54 498 1825.18 498 1825.18 507.39 1815.81 507.39 1815.81 516.78 1806.45 516.78 1806.45 526.17 1797.08 526.17 1797.08 516.78 1797.08 507.39 1787.71 507.39 1787.71 498 1778.35 498 1768.98 498 1759.62 498 1759.62 507.39 1750.25 507.39 1750.25 516.78 1740.89 516.78 1740.89 526.17 1731.52 526.17 1731.52 535.57 1731.52 544.96 1731.52 554.35 1740.89 554.35 1740.89 563.74 1750.25 563.74 1750.25 573.13 1759.62 573.13 1768.98 573.13 1778.35 573.13 1787.71 573.13 1797.08 573.13 1806.45 573.13 1815.81 573.13 1825.18 573.13 1825.18 582.52 1834.54 582.52 1843.91 582.52 1853.28 582.52 1862.64 582.52 1872.01 582.52 1881.37 582.52 1890.74 582.52 1890.74 573.13 1900.11 573.13 1909.47 573.13 1918.84 573.13 1928.2 573.13 1928.2 563.74 1935.45 563.74 1937.57 563.74 1937.57 573.13 1946.93 573.13 1954.19 573.13 1956.3 573.13 1963.55 573.13 1965.67 573.13 1972.92 573.13 1975.03 573.13 1975.03 582.52 1984.4 582.52 1993.76 582.52 2003.13 582.52 2012.5 582.52 2021.86 582.52 2021.86 573.13 2031.23 573.13 2040.59 573.13 2049.96 573.13 2059.32 573.13 2068.69 573.13 2078.06 573.13 2078.06 563.74 2085.31 563.74 2087.42 563.74 2094.67 563.74 2104.04 563.74 2104.04 573.13 2113.41 573.13 2122.77 573.13 2132.14 573.13 2141.5 573.13 2150.87 573.13 2150.87 563.74 2160.24 563.74 2169.6 563.74 2178.97 563.74 2188.33 563.74 2197.7 563.74 2207.06 563.74 2207.06 554.35 2216.43 554.35 2216.43 544.96 2225.8 544.96 2225.8 535.57 2225.8 526.17 2216.43 526.17"/><polygon class="cls-4" points="1825.18 469.83 1815.81 469.83 1806.45 469.83 1797.08 469.83 1797.08 479.22 1797.08 488.61 1787.71 488.61 1787.71 498 1787.71 507.39 1797.08 507.39 1797.08 516.78 1797.08 526.17 1806.45 526.17 1806.45 516.78 1815.81 516.78 1815.81 507.39 1825.18 507.39 1825.18 498 1834.54 498 1834.54 488.61 1834.54 479.22 1825.18 479.22 1825.18 469.83"/><polygon class="cls-4" points="2225.8 507.39 2225.8 498 2216.43 498 2216.43 488.61 2207.06 488.61 2207.06 479.22 2197.7 479.22 2197.7 469.83 2188.33 469.83 2188.33 460.44 2178.97 460.44 2169.6 460.44 2160.24 460.44 2150.87 460.44 2141.5 460.44 2141.5 469.83 2132.14 469.83 2132.14 479.22 2122.77 479.22 2113.41 479.22 2113.41 469.83 2104.04 469.83 2104.04 460.44 2094.67 460.44 2094.67 451.04 2085.31 451.04 2085.31 441.65 2075.94 441.65 2075.94 432.26 2066.58 432.26 2066.58 422.87 2057.21 422.87 2047.85 422.87 2038.48 422.87 2029.11 422.87 2029.11 432.26 2019.75 432.26 2010.38 432.26 2010.38 441.65 2001.02 441.65 1991.65 441.65 1991.65 451.04 1991.65 460.44 1991.65 469.83 1991.65 479.22 1991.65 488.61 1984.4 488.61 1984.4 479.22 1975.03 479.22 1975.03 469.83 1965.67 469.83 1965.67 460.44 1956.3 460.44 1956.3 451.04 1946.93 451.04 1946.93 441.65 1937.57 441.65 1937.57 432.26 1928.2 432.26 1918.84 432.26 1909.47 432.26 1900.11 432.26 1900.11 441.65 1890.74 441.65 1881.37 441.65 1881.37 451.04 1872.01 451.04 1862.64 451.04 1862.64 460.44 1862.64 469.83 1862.64 479.22 1862.64 488.61 1862.64 498 1872.01 498 1881.37 498 1881.37 507.39 1890.74 507.39 1890.74 516.78 1900.11 516.78 1900.11 526.17 1909.47 526.17 1918.84 526.17 1928.2 526.17 1928.2 516.78 1935.45 516.78 1937.57 516.78 1946.93 516.78 1946.93 507.39 1956.3 507.39 1965.67 507.39 1975.03 507.39 1984.4 507.39 1984.4 516.78 1993.76 516.78 1993.76 526.17 1993.76 535.57 2003.13 535.57 2003.13 526.17 2012.5 526.17 2021.86 526.17 2031.23 526.17 2040.59 526.17 2040.59 535.57 2049.96 535.57 2059.32 535.57 2059.32 544.96 2068.69 544.96 2078.06 544.96 2087.42 544.96 2087.42 535.57 2096.79 535.57 2096.79 526.17 2106.15 526.17 2106.15 516.78 2096.79 516.78 2096.79 507.39 2087.42 507.39 2087.42 498 2094.67 498 2104.04 498 2113.41 498 2113.41 507.39 2122.77 507.39 2122.77 516.78 2122.77 526.17 2132.14 526.17 2132.14 516.78 2141.5 516.78 2150.87 516.78 2160.24 516.78 2169.6 516.78 2169.6 526.17 2178.97 526.17 2188.33 526.17 2188.33 535.57 2197.7 535.57 2207.06 535.57 2216.43 535.57 2216.43 526.17 2225.8 526.17 2225.8 516.78 2235.16 516.78 2235.16 507.39 2225.8 507.39"/></g></g><g id="nuage5"><g class="cls-2"><rect class="cls-3" x="1813.28" y="279.65" width="9.37" height="9.39"/><rect class="cls-3" x="1686.84" y="307.83" width="9.37" height="9.39"/><rect class="cls-3" x="1832.02" y="265.57" width="9.37" height="9.39"/><path class="cls-3" d="M2047.42,199.83H2010V181h-9.37v-9.39h-18.73v-9.39h-18.73v-9.39H1916.3v9.39h-18.73v9.39h-9.37v-9.39h-9.36v-9.39h-28.1v-9.39h-37.46v9.39h-18.74v9.39h-26v-9.39H1749.8v-9.39H1743v-4.7h-56.19V120h-9.37v-9.39h-18.73v-9.39H1640V91.83h-46.83v9.39h-18.73v9.39h-9.37v-9.39h-9.36V91.83h-28.1v-9.4h-37.47v9.4h-18.73v9.39h-9.36V120h-9.37v28.17h-65.56v9.4h-9.37V167h-9.36v18.78H1359v9.39h-74.92v9.39h-9.37v9.39h-14v-4.69h9.36v-9.39h-32.78v-4.7h-9.37v-9.39h-14V181h-9.37v-9.39h-18.73v-9.39H1167v-9.39h-46.83v9.39h-18.73v9.39h-9.37v-9.39h-9.36v-9.39h-28.1v-9.39h-37.46v9.39H998.45v9.39h-9.36V181h-9.37v28.18H914.16v9.39H904.8V228h-9.37v18.78h-9.37v9.39H811.14v9.4h-9.37V275H783v-9.39H764.31v-9.4h-9.37v-9.39h-28.1v9.39h-9.36v9.4h-9.37v-9.4H661.28v9.4H642.55V275h-9.36v9.39h-9.37v28.17h-9.37v9.39h-9.36v-9.39h-9.37v-9.39h-9.36v-9.39h-56.2v9.39H520.8v9.39H483.33v9.39H474V340.7H464.6v9.39H417.77v9.39h-9.36V397h9.36v-9.39H436.5v-9.39h18.73v-9.39H474v-9.39h9.36v-9.39h9.37V340.7h18.73v-9.4h18.73v-9.39h37.46v9.39h18.74v9.4h9.36v9.39h9.37v18.78h18.73v-9.39h18.73v-9.39h9.37V340.7h18.73v-9.4H680v-9.39h28.09v-9.39h28.1v-9.39h18.73v9.39h18.73v9.39h28.1v9.39H820.5v-9.39h9.37v-9.39h9.36v-9.39h9.37v-9.39H858v-9.39h28.09V275h56.2v4.69h-4.69V289H890.74v9.39h-9.37V336h9.37v-9.39h18.73v-9.39H928.2v-9.39h18.73v-9.4h9.37v-4.69H961v9.39h18.73v9.39h9.37V293.74h9.36V275h9.37V260.87h32.77v9.39h18.73v9.39h9.37V289h9.37v9.39h-18.74v4.7h-51.5v4.7H993.76v9.39H975v4.69H961v9.39h-9.37V336h-9.36v9.39h-9.37v14.09H928.2v-4.7h-9.36v-9.39h-56.2v9.39h-9.36v9.39H815.81v9.4h-9.36v18.78h-9.37v9.39H750.25v9.39h-9.36V448.7h9.36v-9.4H769v-9.39h18.74v-9.39h18.73v-9.39h9.36v-9.39h9.37v-9.39h18.73V383h18.73v-9.39H876.7V383h-9.37v37.56h9.37v-9.39h18.73v-4.7h0v-4.69h18.73V397h0v-4.69h14v9.39h9.37v18.78H956.3v-9.39H975v14.09h9.37v-9.39h18.73v-9.4h18.73V397h18.73v-9.39H1050v-9.39h9.36v-4.69h4.7v18.78h18.73V383h18.73v-4.7h0v-4.69h32.77V383H1153v-9.39h9.37v4.69h9.37V397h18.73v-9.39h14V397h9.36v-9.39h18.73v-9.39h18.73v-9.39h18.74v-9.39h9.36v-4.7h0v-4.69h9.36v-4.7h4.68v9.39h18.73v9.39h9.37V345.39h9.36V340.7h9.37v9.39h28.1v9.39h18.73v-9.39h14v18.78h18.73v-9.39h18.73v-9.39H1448V340.7h18.73v-9.4h9.37v-4.69h14V336h28.1v-9.39h9.37v-4.7h0v9.39h18.73v9.4h9.37V321.91h9.36v-9.39h4.68v9.39h28.1v9.39h18.73v-9.39H1626v-9.39h9.36v-4.69h9.38v-9.4h9.36v-4.69h9.37v-9.39h23.41v9.39h18.73v9.39h18.73v9.39h28.1v-9.39h23.41v9.39h9.37V293.74h9.36V275h9.37V256.17h18.73v-9.39h74.93v9.39h18.73v9.4H1935V275h18.73v9.39h28.1V275h9.37V256.17h9.36v-9.39H2010v-9.39h9.36V228h18.74v-9.39h18.73v-9.39h9.36v-9.39h-18.73Zm-838.24,51.65v-4.7h4.69v-4.69h14v9.39h16.14v4.69H1204.5v9.4h-9.36v4.69h0V256.17h9.36v-4.69Zm-140.49,0v-4.7h28.1v4.7h-9.37v9.39h-9.36v-9.39Zm-46.83,126.78h-2.59v-4.69h12v4.69Z"/><polygon class="cls-4" points="2187.91 368.87 2187.91 359.48 2187.91 350.09 2187.91 340.7 2178.54 340.7 2169.18 340.7 2169.18 331.3 2159.81 331.3 2159.81 321.91 2159.81 312.52 2169.18 312.52 2169.18 303.13 2169.18 293.74 2169.18 284.35 2159.81 284.35 2159.81 274.96 2159.81 265.56 2150.45 265.56 2150.45 256.17 2141.08 256.17 2131.72 256.17 2122.35 256.17 2112.98 256.17 2112.98 246.78 2103.62 246.78 2103.62 237.39 2103.62 228 2094.25 228 2094.25 218.61 2084.89 218.61 2084.89 209.22 2075.52 209.22 2066.15 209.22 2056.79 209.22 2056.79 218.61 2047.42 218.61 2038.06 218.61 2038.06 228 2028.69 228 2019.33 228 2019.33 237.39 2009.96 237.39 2009.96 246.78 2000.59 246.78 2000.59 256.17 1991.23 256.17 1991.23 265.56 1991.23 274.96 1981.86 274.96 1981.86 284.35 1972.49 284.35 1963.13 284.35 1953.76 284.35 1953.76 274.96 1944.4 274.96 1935.03 274.96 1935.03 265.56 1925.67 265.56 1916.3 265.56 1916.3 256.17 1906.93 256.17 1897.57 256.17 1897.57 246.78 1888.2 246.78 1878.84 246.78 1869.47 246.78 1860.11 246.78 1850.74 246.78 1841.37 246.78 1832.01 246.78 1822.64 246.78 1822.64 256.17 1817.96 256.17 1813.28 256.17 1808.59 256.17 1803.91 256.17 1799.23 256.17 1789.86 256.17 1789.86 246.78 1780.5 246.78 1780.5 237.39 1780.5 228 1771.13 228 1771.13 218.61 1761.76 218.61 1761.76 209.22 1752.4 209.22 1743.03 209.22 1733.67 209.22 1733.67 218.61 1724.3 218.61 1714.93 218.61 1714.93 228 1705.57 228 1696.2 228 1696.2 237.39 1686.84 237.39 1686.84 246.78 1677.47 246.78 1677.47 256.17 1668.11 256.17 1668.11 265.56 1668.11 274.96 1658.74 274.96 1658.74 284.35 1654.06 284.35 1649.37 284.35 1640.01 284.35 1630.64 284.35 1630.64 274.96 1621.28 274.96 1611.91 274.96 1611.91 265.56 1602.54 265.56 1593.18 265.56 1593.18 256.17 1583.81 256.17 1574.45 256.17 1574.45 246.78 1565.08 246.78 1555.71 246.78 1546.35 246.78 1536.98 246.78 1527.62 246.78 1518.25 246.78 1508.89 246.78 1499.52 246.78 1499.52 256.17 1490.15 256.17 1480.79 256.17 1480.79 265.56 1480.79 274.96 1471.42 274.96 1471.42 284.35 1471.42 293.74 1462.06 293.74 1462.06 303.13 1462.06 312.52 1452.69 312.52 1452.69 303.13 1443.33 303.13 1433.96 303.13 1433.96 293.74 1424.59 293.74 1424.59 284.35 1415.23 284.35 1415.23 274.96 1405.86 274.96 1396.5 274.96 1387.13 274.96 1377.76 274.96 1368.4 274.96 1363.72 274.96 1363.72 265.56 1354.36 265.56 1354.36 256.17 1344.99 256.17 1335.63 256.17 1326.26 256.17 1316.89 256.17 1316.89 246.78 1307.53 246.78 1307.53 237.39 1307.53 228 1298.16 228 1298.16 218.61 1288.8 218.61 1288.8 209.22 1279.43 209.22 1270.06 209.22 1260.7 209.22 1260.7 218.61 1251.33 218.61 1241.97 218.61 1241.97 228 1232.6 228 1223.23 228 1223.23 237.39 1213.87 237.39 1213.87 246.78 1204.5 246.78 1204.5 256.17 1195.14 256.17 1195.14 265.56 1195.14 274.96 1185.77 274.96 1185.77 284.35 1176.4 284.35 1167.04 284.35 1157.67 284.35 1157.67 274.96 1148.31 274.96 1138.94 274.96 1138.94 265.56 1129.58 265.56 1120.21 265.56 1120.21 256.17 1110.84 256.17 1101.48 256.17 1101.48 246.78 1092.11 246.78 1082.75 246.78 1073.38 246.78 1064.02 246.78 1054.65 246.78 1045.28 246.78 1035.92 246.78 1026.55 246.78 1026.55 256.17 1017.19 256.17 1007.82 256.17 1007.82 265.56 1007.82 274.96 998.45 274.96 998.45 284.35 998.45 293.74 989.09 293.74 989.09 303.13 989.09 312.52 979.72 312.52 979.72 303.13 970.36 303.13 960.99 303.13 960.99 293.74 951.63 293.74 951.63 284.35 942.26 284.35 942.26 274.96 932.89 274.96 923.53 274.96 914.16 274.96 904.8 274.96 895.43 274.96 886.06 274.96 886.06 284.35 876.7 284.35 867.33 284.35 857.97 284.35 857.97 293.74 848.6 293.74 848.6 303.13 839.24 303.13 839.24 312.52 829.87 312.52 829.87 321.91 820.5 321.91 820.5 331.3 811.14 331.3 801.77 331.3 801.77 321.91 792.4 321.91 783.04 321.91 773.67 321.91 773.67 312.52 764.31 312.52 754.94 312.52 754.94 303.13 745.58 303.13 736.21 303.13 736.21 312.52 726.84 312.52 717.48 312.52 708.11 312.52 708.11 321.91 698.75 321.91 689.38 321.91 680.01 321.91 680.01 331.3 670.65 331.3 670.65 340.7 661.28 340.7 651.92 340.7 651.92 350.09 642.55 350.09 642.55 359.48 633.19 359.48 623.82 359.48 623.82 368.87 633.19 368.87 642.55 368.87 642.55 378.26 651.92 378.26 661.28 378.26 670.65 378.26 670.65 387.65 680.01 387.65 680.01 397.04 689.38 397.04 689.38 406.44 698.75 406.44 708.11 406.44 717.48 406.44 717.48 415.83 726.84 415.83 736.21 415.83 745.58 415.83 754.94 415.83 764.31 415.83 773.67 415.83 773.67 406.44 783.04 406.44 792.4 406.44 792.4 397.04 801.77 397.04 811.14 397.04 820.5 397.04 829.87 397.04 829.87 406.44 839.24 406.44 848.6 406.44 848.6 415.83 857.97 415.83 867.33 415.83 876.7 415.83 886.06 415.83 895.43 415.83 904.8 415.83 914.16 415.83 923.53 415.83 923.53 425.22 932.89 425.22 932.89 415.83 937.57 415.83 942.26 415.83 946.93 415.83 956.3 415.83 965.67 415.83 975.03 415.83 975.03 406.44 984.4 406.44 993.76 406.44 1003.13 406.44 1012.5 406.44 1021.86 406.44 1021.86 415.83 1031.23 415.83 1040.59 415.83 1049.96 415.83 1049.96 406.44 1054.65 406.44 1054.65 415.83 1064.02 415.83 1064.02 425.22 1073.38 425.22 1073.38 415.83 1082.75 415.83 1092.11 415.83 1101.48 415.83 1101.48 406.44 1110.84 406.44 1110.84 397.04 1120.21 397.04 1129.58 397.04 1129.58 387.65 1138.94 387.65 1143.62 387.65 1148.31 387.65 1152.98 387.65 1152.98 397.04 1162.35 397.04 1162.35 406.44 1171.71 406.44 1181.08 406.44 1190.45 406.44 1190.45 415.83 1199.81 415.83 1204.5 415.83 1209.18 415.83 1213.87 415.83 1218.54 415.83 1223.23 415.83 1227.91 415.83 1232.6 415.83 1237.28 415.83 1246.64 415.83 1246.64 406.44 1251.33 406.44 1251.33 415.83 1260.69 415.83 1270.06 415.83 1279.42 415.83 1288.79 415.83 1298.15 415.83 1298.15 406.44 1298.16 406.44 1302.84 406.44 1307.52 406.44 1307.53 406.44 1312.2 406.44 1316.89 406.44 1316.89 406.44 1321.57 406.44 1321.57 415.83 1330.93 415.83 1340.3 415.83 1344.98 415.83 1349.67 415.83 1354.35 415.83 1359.03 415.83 1363.71 415.83 1368.4 415.83 1373.08 415.83 1377.76 415.83 1387.13 415.83 1396.5 415.83 1396.5 425.22 1405.86 425.22 1405.86 415.83 1415.23 415.83 1415.23 406.44 1424.59 406.44 1424.59 397.04 1424.59 387.65 1433.96 387.65 1433.96 378.26 1438.64 378.26 1443.33 378.26 1448.01 378.26 1452.69 378.26 1457.37 378.26 1462.06 378.26 1466.74 378.26 1466.74 387.65 1476.11 387.65 1476.11 397.04 1485.47 397.04 1485.47 406.44 1494.84 406.44 1504.2 406.44 1513.57 406.44 1513.57 415.83 1522.93 415.83 1527.62 415.83 1532.3 415.83 1536.98 415.83 1536.98 425.22 1546.35 425.22 1546.35 415.83 1551.03 415.83 1555.71 415.83 1560.4 415.83 1565.08 415.83 1569.76 415.83 1574.45 415.83 1574.45 406.44 1579.13 406.44 1583.81 406.44 1588.49 406.44 1588.49 397.04 1593.18 397.04 1597.86 397.04 1602.54 397.04 1607.23 397.04 1616.59 397.04 1625.96 397.04 1625.96 406.44 1635.33 406.44 1644.69 406.44 1644.69 415.83 1654.06 415.83 1663.42 415.83 1672.79 415.83 1677.47 415.83 1682.15 415.83 1686.84 415.83 1691.52 415.83 1696.2 415.83 1700.89 415.83 1705.57 415.83 1710.25 415.83 1719.62 415.83 1719.62 425.22 1728.98 425.22 1728.98 415.83 1738.35 415.83 1738.35 406.44 1747.71 406.44 1747.71 397.04 1752.4 397.04 1761.76 397.04 1761.76 406.44 1771.13 406.44 1780.5 406.44 1789.86 406.44 1789.86 397.04 1799.23 397.04 1799.23 387.65 1808.59 387.65 1808.59 378.26 1813.28 378.26 1813.28 387.65 1822.64 387.65 1832.01 387.65 1832.01 397.04 1841.37 397.04 1841.37 406.44 1850.74 406.44 1850.74 415.83 1860.11 415.83 1860.11 425.22 1869.47 425.22 1869.47 415.83 1878.84 415.83 1888.2 415.83 1897.57 415.83 1897.57 406.44 1906.93 406.44 1906.93 397.04 1916.3 397.04 1925.67 397.04 1925.67 387.65 1935.03 387.65 1944.4 387.65 1953.76 387.65 1963.13 387.65 1972.49 387.65 1981.86 387.65 1981.86 397.04 1991.23 397.04 1991.23 406.44 2000.59 406.44 2000.59 415.83 2009.96 415.83 2019.33 415.83 2028.69 415.83 2028.69 406.44 2038.06 406.44 2038.06 397.04 2047.42 397.04 2056.79 397.04 2066.15 397.04 2075.52 397.04 2084.89 397.04 2084.89 406.44 2094.25 406.44 2103.62 406.44 2112.98 406.44 2112.98 397.04 2122.35 397.04 2122.35 387.65 2131.72 387.65 2131.72 378.26 2141.08 378.26 2150.45 378.26 2159.81 378.26 2169.18 378.26 2169.18 387.65 2178.54 387.65 2187.91 387.65 2197.28 387.65 2197.28 378.26 2197.28 368.87 2187.91 368.87"/><polygon class="cls-4" points="605.09 368.87 605.09 359.48 605.09 350.09 595.72 350.09 595.72 340.7 586.36 340.7 586.36 331.3 576.99 331.3 567.63 331.3 567.63 321.91 558.26 321.91 548.89 321.91 539.53 321.91 530.16 321.91 530.16 331.3 520.8 331.3 511.43 331.3 511.43 340.7 502.06 340.7 492.7 340.7 492.7 350.09 483.33 350.09 483.33 359.48 473.97 359.48 473.97 368.87 464.6 368.87 455.24 368.87 455.24 378.26 445.87 378.26 436.5 378.26 436.5 387.65 427.14 387.65 417.77 387.65 417.77 397.04 417.77 406.44 427.14 406.44 436.5 406.44 445.87 406.44 455.24 406.44 455.24 415.83 464.6 415.83 473.97 415.83 483.33 415.83 492.7 415.83 502.06 415.83 502.06 406.44 511.43 406.44 520.8 406.44 530.16 406.44 539.53 406.44 548.89 406.44 548.89 415.83 558.26 415.83 567.63 415.83 576.99 415.83 576.99 406.44 586.36 406.44 586.36 397.04 595.72 397.04 595.72 387.65 605.09 387.65 605.09 378.26 614.45 378.26 623.82 378.26 623.82 368.87 614.45 368.87 605.09 368.87"/><polygon class="cls-5" points="2206.64 406.44 2206.64 397.04 2197.28 397.04 2197.28 387.65 2187.91 387.65 2178.54 387.65 2169.18 387.65 2169.18 378.26 2159.81 378.26 2150.45 378.26 2141.08 378.26 2131.72 378.26 2131.72 387.65 2122.35 387.65 2122.35 397.04 2112.98 397.04 2112.98 406.44 2103.62 406.44 2094.25 406.44 2084.89 406.44 2084.89 397.04 2075.52 397.04 2066.15 397.04 2056.79 397.04 2047.42 397.04 2038.06 397.04 2038.06 406.44 2028.69 406.44 2028.69 415.83 2019.33 415.83 2009.96 415.83 2000.59 415.83 2000.59 406.44 1991.23 406.44 1991.23 397.04 1981.86 397.04 1981.86 387.65 1972.49 387.65 1963.13 387.65 1953.76 387.65 1944.4 387.65 1935.03 387.65 1925.67 387.65 1925.67 397.04 1916.3 397.04 1906.93 397.04 1906.93 406.44 1897.57 406.44 1897.57 415.83 1892.89 415.83 1892.89 406.44 1883.52 406.44 1883.52 397.04 1874.15 397.04 1874.15 387.65 1864.79 387.65 1855.42 387.65 1846.06 387.65 1846.06 378.26 1836.69 378.26 1827.33 378.26 1817.96 378.26 1813.28 378.26 1808.59 378.26 1803.91 378.26 1794.54 378.26 1785.18 378.26 1775.81 378.26 1766.45 378.26 1757.08 378.26 1757.08 387.65 1747.71 387.65 1747.71 397.04 1743.03 397.04 1733.67 397.04 1724.3 397.04 1714.93 397.04 1714.93 406.44 1705.57 406.44 1705.57 415.83 1700.89 415.83 1696.2 415.83 1691.52 415.83 1686.84 415.83 1682.15 415.83 1677.47 415.83 1677.47 406.44 1668.11 406.44 1668.11 397.04 1658.74 397.04 1658.74 387.65 1649.37 387.65 1640.01 387.65 1630.64 387.65 1621.28 387.65 1611.91 387.65 1602.54 387.65 1602.54 397.04 1597.86 397.04 1593.18 397.04 1588.49 397.04 1583.81 397.04 1583.81 406.44 1579.13 406.44 1574.45 406.44 1569.76 406.44 1569.76 415.83 1565.08 415.83 1560.4 415.83 1555.71 415.83 1551.03 415.83 1546.35 415.83 1541.67 415.83 1536.98 415.83 1532.3 415.83 1527.62 415.83 1527.62 406.44 1518.25 406.44 1518.25 397.04 1508.89 397.04 1508.89 387.65 1499.52 387.65 1490.15 387.65 1490.15 378.26 1480.79 378.26 1471.42 378.26 1466.74 378.26 1462.06 378.26 1457.37 378.26 1452.69 378.26 1448.01 378.26 1443.33 378.26 1438.64 378.26 1438.64 368.87 1429.28 368.87 1419.91 368.87 1419.91 378.26 1410.54 378.26 1401.18 378.26 1401.18 387.65 1391.82 387.65 1391.81 387.65 1382.45 387.65 1373.09 387.65 1373.09 378.26 1363.72 378.26 1354.36 378.26 1344.99 378.26 1335.63 378.26 1335.63 387.65 1326.26 387.65 1326.26 397.04 1316.89 397.04 1316.89 406.44 1316.89 406.44 1312.2 406.44 1307.53 406.44 1307.52 406.44 1302.84 406.44 1302.84 397.04 1293.47 397.04 1288.8 397.04 1284.11 397.04 1279.43 397.04 1274.74 397.04 1270.06 397.04 1265.37 397.04 1260.7 397.04 1251.33 397.04 1241.97 397.04 1241.97 406.44 1241.96 406.44 1232.6 406.44 1232.59 406.44 1223.23 406.44 1213.86 406.44 1213.86 415.83 1209.18 415.83 1204.5 415.83 1204.5 406.44 1195.14 406.44 1195.14 397.04 1185.77 397.04 1185.77 387.65 1176.4 387.65 1167.04 387.65 1157.67 387.65 1152.98 387.65 1148.31 387.65 1143.62 387.65 1143.62 378.26 1134.25 378.26 1124.89 378.26 1115.52 378.26 1115.52 368.87 1106.15 368.87 1096.79 368.87 1096.79 378.26 1087.42 378.26 1078.06 378.26 1078.06 387.65 1068.69 387.65 1068.69 397.04 1059.33 397.04 1059.33 406.44 1054.65 406.44 1049.96 406.44 1045.28 406.44 1045.28 397.04 1035.92 397.04 1035.92 387.65 1026.55 387.65 1017.19 387.65 1017.19 378.26 1007.82 378.26 998.45 378.26 989.09 378.26 979.72 378.26 970.36 378.26 960.99 378.26 960.99 387.65 951.63 387.65 951.63 397.04 951.63 406.44 942.26 406.44 942.26 415.83 937.57 415.83 932.89 415.83 928.2 415.83 928.2 406.44 918.84 406.44 909.47 406.44 900.11 406.44 890.74 406.44 890.74 415.83 886.06 415.83 881.37 415.83 876.7 415.83 867.33 415.83 857.97 415.83 848.6 415.83 848.6 406.44 839.24 406.44 829.87 406.44 829.87 397.04 820.5 397.04 811.14 397.04 801.77 397.04 792.4 397.04 792.4 406.44 783.04 406.44 773.67 406.44 773.67 415.83 764.31 415.83 754.94 415.83 745.58 415.83 736.21 415.83 726.84 415.83 717.48 415.83 717.48 406.44 708.11 406.44 698.75 406.44 689.38 406.44 689.38 397.04 680.01 397.04 680.01 387.65 670.65 387.65 670.65 378.26 661.28 378.26 651.92 378.26 642.55 378.26 642.55 368.87 633.19 368.87 623.82 368.87 623.82 378.26 614.45 378.26 605.09 378.26 605.09 387.65 595.72 387.65 595.72 397.04 586.36 397.04 586.36 406.44 576.99 406.44 576.99 415.83 567.63 415.83 558.26 415.83 548.89 415.83 548.89 406.44 539.53 406.44 530.16 406.44 520.8 406.44 511.43 406.44 502.06 406.44 502.06 415.83 492.7 415.83 483.33 415.83 473.97 415.83 464.6 415.83 455.24 415.83 455.24 406.44 445.87 406.44 436.5 406.44 427.14 406.44 417.77 406.44 417.77 415.83 408.4 415.83 408.4 425.22 417.77 425.22 417.77 434.61 427.14 434.61 427.14 444 436.5 444 445.87 444 455.24 444 464.6 444 473.97 444 483.33 444 492.7 444 502.06 444 502.06 434.61 511.43 434.61 520.8 434.61 530.16 434.61 539.53 434.61 548.89 434.61 558.26 434.61 567.63 434.61 576.99 434.61 576.99 444 586.36 444 595.72 444 595.72 453.39 605.09 453.39 614.45 453.39 614.45 462.78 623.82 462.78 623.82 472.17 633.19 472.17 642.55 472.17 651.92 472.17 661.28 472.17 670.65 472.17 680.01 472.17 689.38 472.17 698.75 472.17 698.75 462.78 708.11 462.78 717.48 462.78 726.84 462.78 736.21 462.78 745.58 462.78 754.94 462.78 754.94 453.39 764.31 453.39 773.67 453.39 783.04 453.39 792.4 453.39 801.77 453.39 811.14 453.39 820.5 453.39 829.87 453.39 839.24 453.39 839.24 462.78 848.6 462.78 857.97 462.78 867.33 462.78 876.7 462.78 886.06 462.78 886.06 472.17 895.43 472.17 904.8 472.17 914.16 472.17 923.53 472.17 932.89 472.17 942.26 472.17 951.63 472.17 960.99 472.17 970.36 472.17 979.72 472.17 979.72 462.78 989.09 462.78 998.45 462.78 1007.82 462.78 1017.19 462.78 1026.55 462.78 1035.92 462.78 1045.28 462.78 1054.65 462.78 1064.02 462.78 1073.38 462.78 1082.75 462.78 1087.42 462.78 1092.11 462.78 1096.79 462.78 1096.79 472.17 1106.15 472.17 1115.52 472.17 1124.89 472.17 1134.25 472.17 1143.62 472.17 1152.98 472.17 1162.35 472.17 1171.71 472.17 1171.71 462.78 1181.08 462.78 1190.45 462.78 1199.81 462.78 1209.18 462.78 1213.87 462.78 1218.54 462.78 1223.23 462.78 1227.91 462.78 1232.6 462.78 1241.97 462.78 1241.97 472.17 1251.33 472.17 1260.7 472.17 1270.06 472.17 1279.43 472.17 1288.8 472.17 1298.16 472.17 1307.53 472.17 1316.89 472.17 1326.26 472.17 1335.63 472.17 1335.63 462.78 1340.3 462.78 1344.99 462.78 1349.67 462.78 1354.36 462.78 1359.03 462.78 1359.03 472.17 1368.4 472.17 1377.76 472.17 1387.13 472.17 1396.5 472.17 1405.86 472.17 1415.23 472.17 1419.91 472.17 1424.59 472.17 1429.28 472.17 1433.96 472.17 1438.64 472.17 1443.33 472.17 1448.01 472.17 1452.69 472.17 1457.37 472.17 1466.74 472.17 1476.11 472.17 1485.47 472.17 1494.84 472.17 1494.84 462.78 1499.52 462.78 1504.2 462.78 1508.89 462.78 1513.57 462.78 1518.25 462.78 1522.93 462.78 1527.62 462.78 1532.3 462.78 1536.98 462.78 1541.67 462.78 1546.35 462.78 1551.03 462.78 1555.71 462.78 1565.08 462.78 1565.08 453.39 1569.76 453.39 1574.45 453.39 1579.13 453.39 1583.81 453.39 1588.49 453.39 1593.18 453.39 1597.86 453.39 1602.54 453.39 1607.23 453.39 1611.91 453.39 1616.59 453.39 1621.28 453.39 1625.96 453.39 1630.64 453.39 1635.33 453.39 1635.33 462.78 1644.69 462.78 1654.06 462.78 1663.42 462.78 1672.79 462.78 1682.15 462.78 1682.15 472.17 1691.52 472.17 1700.89 472.17 1710.25 472.17 1714.93 472.17 1719.62 472.17 1724.3 472.17 1728.98 472.17 1733.67 472.17 1738.35 472.17 1743.03 472.17 1747.71 472.17 1752.4 472.17 1757.08 472.17 1761.76 472.17 1766.45 472.17 1771.13 472.17 1775.81 472.17 1780.5 472.17 1789.86 472.17 1799.23 472.17 1808.59 472.17 1808.59 462.78 1813.28 462.78 1817.96 462.78 1822.64 462.78 1827.33 462.78 1832.01 462.78 1836.69 462.78 1841.37 462.78 1850.74 462.78 1860.11 462.78 1869.47 462.78 1878.84 462.78 1888.2 462.78 1888.2 453.39 1897.57 453.39 1906.93 453.39 1916.3 453.39 1925.67 453.39 1935.03 453.39 1944.4 453.39 1953.76 453.39 1963.13 453.39 1972.49 453.39 1981.86 453.39 1991.23 453.39 2000.59 453.39 2009.96 453.39 2009.96 462.78 2019.33 462.78 2028.69 462.78 2038.06 462.78 2038.06 472.17 2047.42 472.17 2056.79 472.17 2066.15 472.17 2075.52 472.17 2084.89 472.17 2094.25 472.17 2103.62 472.17 2112.98 472.17 2122.35 472.17 2131.72 472.17 2131.72 462.78 2141.08 462.78 2150.45 462.78 2159.81 462.78 2159.81 453.39 2169.18 453.39 2178.54 453.39 2187.91 453.39 2187.91 444 2197.28 444 2206.64 444 2216.01 444 2216.01 434.61 2216.01 425.22 2216.01 415.83 2216.01 406.44 2206.64 406.44"/></g></g></svg>