<svg xmlns="http://www.w3.org/2000/svg" viewBox="0 0 1920 780"><defs><style>.cls-1{fill:#d8d8d8;}.cls-2{opacity:0.86;}.cls-3{fill:#939393;}.cls-4{fill:#898989;}.cls-5{fill:#605f5f;}.cls-6{fill:#a5a5a5;}</style></defs><title>smog_8</title><g id="fond"><rect class="cls-1" x="2.78" width="1917.22" height="780"/></g><g id="nuage1"><g class="cls-2"><polygon class="cls-3" points="1008.59 80.09 999.23 80.09 989.86 80.09 980.5 80.09 971.13 80.09 971.13 70.7 971.13 61.3 961.76 61.3 961.76 51.91 952.4 51.91 943.03 51.91 943.03 42.52 933.67 42.52 924.3 42.52 924.3 33.13 914.93 33.13 905.57 33.13 896.2 33.13 886.84 33.13 877.47 33.13 877.47 42.52 868.11 42.52 858.74 42.52 858.74 51.91 849.37 51.91 849.37 42.52 840.01 42.52 840.01 33.13 830.64 33.13 821.28 33.13 811.91 33.13 811.91 23.74 802.54 23.74 793.18 23.74 783.81 23.74 774.45 23.74 774.45 33.13 765.08 33.13 755.72 33.13 755.72 42.52 746.35 42.52 746.35 51.91 746.35 61.3 736.98 61.3 736.98 70.7 736.98 80.09 736.98 89.48 727.62 89.48 718.25 89.48 708.89 89.48 699.52 89.48 690.15 89.48 680.79 89.48 671.42 89.48 671.42 98.87 662.06 98.87 662.06 108.26 652.69 108.26 652.69 117.65 652.69 127.04 643.33 127.04 643.33 136.44 633.96 136.44 624.59 136.44 615.23 136.44 605.86 136.44 596.5 136.44 587.13 136.44 577.76 136.44 568.4 136.44 568.4 145.83 559.03 145.83 559.03 155.22 549.67 155.22 540.3 155.22 540.3 145.83 530.93 145.83 521.57 145.83 521.57 136.44 512.2 136.44 512.2 127.04 502.84 127.04 493.47 127.04 484.11 127.04 484.11 136.44 474.74 136.44 474.74 145.83 465.37 145.83 465.37 136.44 456.01 136.44 446.64 136.44 437.28 136.44 427.91 136.44 418.54 136.44 418.54 145.83 409.18 145.83 399.81 145.83 399.81 155.22 390.45 155.22 390.45 164.61 381.08 164.61 381.08 174 381.08 183.39 381.08 192.78 371.71 192.78 371.71 202.17 362.35 202.17 362.35 192.78 352.98 192.78 352.98 183.39 343.62 183.39 343.62 174 334.25 174 324.89 174 315.52 174 306.15 174 296.79 174 287.42 174 287.42 183.39 278.06 183.39 278.06 192.78 268.69 192.78 259.32 192.78 249.96 192.78 240.59 192.78 240.59 202.17 231.23 202.17 231.23 211.56 231.23 220.96 221.86 220.96 221.86 230.35 212.5 230.35 203.13 230.35 193.76 230.35 184.4 230.35 175.03 230.35 175.03 239.74 165.67 239.74 165.67 249.13 165.67 258.52 165.67 267.91 165.67 277.3 175.03 277.3 175.03 267.91 184.4 267.91 193.76 267.91 193.76 258.52 203.13 258.52 212.5 258.52 212.5 249.13 221.86 249.13 231.23 249.13 231.23 239.74 240.59 239.74 240.59 230.35 249.96 230.35 249.96 220.96 259.32 220.96 268.69 220.96 268.69 211.56 278.06 211.56 287.42 211.56 287.42 202.17 296.79 202.17 306.15 202.17 315.52 202.17 324.89 202.17 324.89 211.56 334.25 211.56 343.62 211.56 343.62 220.96 352.98 220.96 352.98 230.35 362.35 230.35 362.35 239.74 362.35 249.13 371.71 249.13 381.08 249.13 381.08 239.74 390.45 239.74 399.81 239.74 399.81 230.35 409.18 230.35 409.18 220.96 418.54 220.96 427.91 220.96 427.91 211.56 437.28 211.56 437.28 202.17 446.64 202.17 456.01 202.17 465.37 202.17 465.37 192.78 474.74 192.78 484.11 192.78 493.47 192.78 493.47 183.39 502.84 183.39 512.2 183.39 512.2 192.78 521.57 192.78 530.93 192.78 530.93 202.17 540.3 202.17 549.67 202.17 559.03 202.17 559.03 211.56 568.4 211.56 577.76 211.56 577.76 202.17 587.13 202.17 587.13 192.78 596.5 192.78 596.5 183.39 605.86 183.39 605.86 174 615.23 174 615.23 164.61 624.59 164.61 633.96 164.61 643.33 164.61 643.33 155.22 652.69 155.22 662.06 155.22 671.42 155.22 680.79 155.22 690.15 155.22 699.52 155.22 699.52 164.61 708.89 164.61 708.89 174 718.25 174 718.25 183.39 727.62 183.39 736.98 183.39 736.98 192.78 746.35 192.78 746.35 183.39 746.35 174 755.72 174 755.72 164.61 755.72 155.22 765.08 155.22 765.08 145.83 765.08 136.44 774.45 136.44 783.81 136.44 783.81 127.04 793.18 127.04 802.54 127.04 811.91 127.04 821.28 127.04 830.64 127.04 840.01 127.04 849.37 127.04 858.74 127.04 858.74 136.44 868.11 136.44 877.47 136.44 877.47 145.83 886.84 145.83 896.2 145.83 896.2 155.22 905.57 155.22 914.93 155.22 914.93 164.61 924.3 164.61 933.67 164.61 943.03 164.61 943.03 155.22 952.4 155.22 952.4 145.83 952.4 136.44 961.76 136.44 961.76 127.04 971.13 127.04 971.13 117.65 980.5 117.65 980.5 108.26 989.86 108.26 999.23 108.26 999.23 98.87 1008.59 98.87 1017.96 98.87 1017.96 89.48 1027.33 89.48 1027.33 80.09 1017.96 80.09 1008.59 80.09"/><rect class="cls-3" x="1111.62" y="136.43" width="9.37" height="9.39"/><polygon class="cls-4" points="362.35 249.13 362.35 239.74 362.35 230.35 352.98 230.35 352.98 220.96 343.62 220.96 343.62 211.56 334.25 211.56 324.89 211.56 324.89 202.17 315.52 202.17 306.15 202.17 296.79 202.17 287.42 202.17 287.42 211.56 278.06 211.56 268.69 211.56 268.69 220.96 259.32 220.96 249.96 220.96 249.96 230.35 240.59 230.35 240.59 239.74 231.23 239.74 231.23 249.13 221.86 249.13 212.5 249.13 212.5 258.52 203.13 258.52 193.76 258.52 193.76 267.91 184.4 267.91 175.03 267.91 175.03 277.3 175.03 286.7 184.4 286.7 193.76 286.7 203.13 286.7 212.5 286.7 212.5 296.09 221.86 296.09 231.23 296.09 240.59 296.09 249.96 296.09 259.32 296.09 259.32 286.7 268.69 286.7 278.06 286.7 287.42 286.7 296.79 286.7 306.15 286.7 306.15 296.09 315.52 296.09 324.89 296.09 334.25 296.09 334.25 286.7 343.62 286.7 343.62 277.3 352.98 277.3 352.98 267.91 362.35 267.91 362.35 258.52 371.71 258.52 381.08 258.52 381.08 249.13 371.71 249.13 362.35 249.13"/><polygon class="cls-4" points="1149.08 249.13 1149.08 239.74 1149.08 230.35 1149.08 220.96 1139.71 220.96 1130.35 220.96 1130.35 211.56 1120.98 211.56 1120.98 202.17 1120.98 192.78 1130.35 192.78 1130.35 183.39 1130.35 174 1130.35 164.61 1120.98 164.61 1120.98 155.22 1120.98 145.83 1111.62 145.83 1111.62 136.44 1102.25 136.44 1092.89 136.44 1083.52 136.44 1074.15 136.44 1074.15 127.04 1064.79 127.04 1064.79 117.65 1064.79 108.26 1055.42 108.26 1055.42 98.87 1046.06 98.87 1046.06 89.48 1036.69 89.48 1027.33 89.48 1017.96 89.48 1017.96 98.87 1008.59 98.87 999.23 98.87 999.23 108.26 989.86 108.26 980.5 108.26 980.5 117.65 971.13 117.65 971.13 127.04 961.76 127.04 961.76 136.44 952.4 136.44 952.4 145.83 952.4 155.22 943.03 155.22 943.03 164.61 933.67 164.61 924.3 164.61 914.93 164.61 914.93 155.22 905.57 155.22 896.2 155.22 896.2 145.83 886.84 145.83 877.47 145.83 877.47 136.44 868.11 136.44 858.74 136.44 858.74 127.04 849.37 127.04 840.01 127.04 830.64 127.04 821.28 127.04 811.91 127.04 802.54 127.04 793.18 127.04 783.81 127.04 783.81 136.44 774.45 136.44 765.08 136.44 765.08 145.83 765.08 155.22 755.72 155.22 755.72 164.61 755.72 174 746.35 174 746.35 183.39 746.35 192.78 736.98 192.78 736.98 183.39 727.62 183.39 718.25 183.39 718.25 174 708.89 174 708.89 164.61 699.52 164.61 699.52 155.22 690.15 155.22 680.79 155.22 671.42 155.22 662.06 155.22 652.69 155.22 643.33 155.22 643.33 164.61 633.96 164.61 624.59 164.61 615.23 164.61 615.23 174 605.86 174 605.86 183.39 596.5 183.39 596.5 192.78 587.13 192.78 587.13 202.17 577.76 202.17 577.76 211.56 568.4 211.56 559.03 211.56 559.03 202.17 549.67 202.17 540.3 202.17 530.93 202.17 530.93 192.78 521.57 192.78 512.2 192.78 512.2 183.39 502.84 183.39 493.47 183.39 493.47 192.78 484.11 192.78 474.74 192.78 465.37 192.78 465.37 202.17 456.01 202.17 446.64 202.17 437.28 202.17 437.28 211.56 427.91 211.56 427.91 220.96 418.54 220.96 409.18 220.96 409.18 230.35 399.81 230.35 399.81 239.74 390.45 239.74 381.08 239.74 381.08 249.13 390.45 249.13 399.81 249.13 399.81 258.52 409.18 258.52 418.54 258.52 427.91 258.52 427.91 267.91 437.28 267.91 437.28 277.3 446.64 277.3 446.64 286.7 456.01 286.7 465.37 286.7 474.74 286.7 474.74 296.09 484.11 296.09 493.47 296.09 502.84 296.09 512.2 296.09 521.57 296.09 530.93 296.09 530.93 286.7 540.3 286.7 549.67 286.7 549.67 277.3 559.03 277.3 568.4 277.3 577.76 277.3 587.13 277.3 587.13 286.7 596.5 286.7 605.86 286.7 605.86 296.09 615.23 296.09 624.59 296.09 633.96 296.09 643.33 296.09 652.69 296.09 662.06 296.09 671.42 296.09 680.79 296.09 680.79 305.48 690.15 305.48 690.15 296.09 699.52 296.09 699.52 286.7 708.89 286.7 708.89 277.3 708.89 267.91 718.25 267.91 718.25 258.52 727.62 258.52 736.98 258.52 746.35 258.52 755.72 258.52 765.08 258.52 774.45 258.52 774.45 267.91 783.81 267.91 793.18 267.91 793.18 277.3 802.54 277.3 802.54 286.7 811.91 286.7 811.91 296.09 821.28 296.09 821.28 305.48 830.64 305.48 830.64 296.09 840.01 296.09 849.37 296.09 858.74 296.09 858.74 286.7 868.11 286.7 868.11 277.3 877.47 277.3 886.84 277.3 886.84 267.91 896.2 267.91 905.57 267.91 914.93 267.91 924.3 267.91 933.67 267.91 943.03 267.91 943.03 277.3 952.4 277.3 952.4 286.7 961.76 286.7 961.76 296.09 971.13 296.09 980.5 296.09 989.86 296.09 989.86 286.7 999.23 286.7 999.23 277.3 1008.59 277.3 1017.96 277.3 1027.33 277.3 1036.69 277.3 1046.06 277.3 1046.06 286.7 1055.42 286.7 1064.79 286.7 1074.15 286.7 1074.15 277.3 1083.52 277.3 1083.52 267.91 1092.89 267.91 1092.89 258.52 1102.25 258.52 1111.62 258.52 1120.98 258.52 1130.35 258.52 1130.35 267.91 1139.71 267.91 1149.08 267.91 1158.45 267.91 1158.45 258.52 1158.45 249.13 1149.08 249.13"/><polygon class="cls-5" points="1167.81 286.7 1167.81 277.3 1158.45 277.3 1158.45 267.91 1149.08 267.91 1139.71 267.91 1130.35 267.91 1130.35 258.52 1120.98 258.52 1111.62 258.52 1102.25 258.52 1092.89 258.52 1092.89 267.91 1083.52 267.91 1083.52 277.3 1074.15 277.3 1074.15 286.7 1064.79 286.7 1055.42 286.7 1046.06 286.7 1046.06 277.3 1036.69 277.3 1027.33 277.3 1017.96 277.3 1008.59 277.3 999.23 277.3 999.23 286.7 989.86 286.7 989.86 296.09 980.5 296.09 971.13 296.09 961.76 296.09 961.76 286.7 952.4 286.7 952.4 277.3 943.03 277.3 943.03 267.91 933.67 267.91 924.3 267.91 914.93 267.91 905.57 267.91 896.2 267.91 886.84 267.91 886.84 277.3 877.47 277.3 868.11 277.3 868.11 286.7 858.74 286.7 858.74 296.09 849.37 296.09 840.01 296.09 830.64 296.09 830.64 305.48 821.28 305.48 821.28 296.09 811.91 296.09 811.91 286.7 802.54 286.7 802.54 277.3 793.18 277.3 793.18 267.91 783.81 267.91 774.45 267.91 774.45 258.52 765.08 258.52 755.72 258.52 746.35 258.52 736.98 258.52 727.62 258.52 718.25 258.52 718.25 267.91 708.89 267.91 708.89 277.3 708.89 286.7 699.52 286.7 699.52 296.09 690.15 296.09 690.15 305.48 680.79 305.48 680.79 296.09 671.42 296.09 662.06 296.09 652.69 296.09 643.33 296.09 633.96 296.09 624.59 296.09 615.23 296.09 605.86 296.09 605.86 286.7 596.5 286.7 587.13 286.7 587.13 277.3 577.76 277.3 568.4 277.3 559.03 277.3 549.67 277.3 549.67 286.7 540.3 286.7 530.93 286.7 530.93 296.09 521.57 296.09 512.2 296.09 502.84 296.09 493.47 296.09 484.11 296.09 474.74 296.09 474.74 286.7 465.37 286.7 456.01 286.7 446.64 286.7 446.64 277.3 437.28 277.3 437.28 267.91 427.91 267.91 427.91 258.52 418.54 258.52 409.18 258.52 399.81 258.52 399.81 249.13 390.45 249.13 381.08 249.13 381.08 258.52 371.71 258.52 362.35 258.52 362.35 267.91 352.98 267.91 352.98 277.3 343.62 277.3 343.62 286.7 334.25 286.7 334.25 296.09 324.89 296.09 315.52 296.09 306.15 296.09 306.15 286.7 296.79 286.7 287.42 286.7 278.06 286.7 268.69 286.7 259.32 286.7 259.32 296.09 249.96 296.09 240.59 296.09 231.23 296.09 221.86 296.09 212.5 296.09 212.5 286.7 203.13 286.7 193.76 286.7 184.4 286.7 175.03 286.7 175.03 296.09 165.67 296.09 165.67 305.48 175.03 305.48 175.03 314.87 184.4 314.87 184.4 324.26 193.76 324.26 203.13 324.26 212.5 324.26 221.86 324.26 231.23 324.26 240.59 324.26 249.96 324.26 259.32 324.26 259.32 314.87 268.69 314.87 278.06 314.87 287.42 314.87 296.79 314.87 306.15 314.87 315.52 314.87 324.89 314.87 334.25 314.87 334.25 324.26 343.62 324.26 352.98 324.26 352.98 333.65 362.35 333.65 371.71 333.65 371.71 343.04 381.08 343.04 381.08 352.44 390.45 352.44 399.81 352.44 409.18 352.44 418.54 352.44 427.91 352.44 437.28 352.44 446.64 352.44 456.01 352.44 456.01 343.04 465.37 343.04 474.74 343.04 484.11 343.04 493.47 343.04 502.84 343.04 512.2 343.04 512.2 333.65 521.57 333.65 530.93 333.65 540.3 333.65 549.67 333.65 559.03 333.65 568.4 333.65 577.76 333.65 587.13 333.65 596.5 333.65 596.5 343.04 605.86 343.04 615.23 343.04 624.59 343.04 633.96 343.04 643.33 343.04 643.33 352.44 652.69 352.44 662.06 352.44 671.42 352.44 680.79 352.44 690.15 352.44 699.52 352.44 708.89 352.44 718.25 352.44 727.62 352.44 736.98 352.44 736.98 343.04 746.35 343.04 755.72 343.04 765.08 343.04 774.45 343.04 783.81 343.04 793.18 343.04 802.54 343.04 811.91 343.04 821.28 343.04 830.64 343.04 840.01 343.04 849.37 343.04 849.37 333.65 858.74 333.65 868.11 333.65 877.47 333.65 886.84 333.65 896.2 333.65 905.57 333.65 914.93 333.65 924.3 333.65 933.67 333.65 943.03 333.65 952.4 333.65 961.76 333.65 971.13 333.65 971.13 343.04 980.5 343.04 989.86 343.04 999.23 343.04 999.23 352.44 1008.59 352.44 1017.96 352.44 1027.33 352.44 1036.69 352.44 1046.06 352.44 1055.42 352.44 1064.79 352.44 1074.15 352.44 1083.52 352.44 1092.89 352.44 1092.89 343.04 1102.25 343.04 1111.62 343.04 1120.98 343.04 1120.98 333.65 1130.35 333.65 1139.71 333.65 1149.08 333.65 1149.08 324.26 1158.45 324.26 1167.81 324.26 1177.18 324.26 1177.18 314.87 1177.18 305.48 1177.18 296.09 1177.18 286.7 1167.81 286.7"/></g></g><g id="nuage2"><g class="cls-2"><polygon class="cls-6" points="122.16 176.7 122.16 167.3 122.16 157.91 112.8 157.91 103.43 157.91 94.06 157.91 94.06 148.52 94.06 139.13 84.7 139.13 84.7 129.74 75.33 129.74 75.33 120.35 65.97 120.35 56.6 120.35 56.6 110.96 47.23 110.96 37.87 110.96 28.5 110.96 19.14 110.96 19.14 101.56 9.77 101.56 9.77 92.17 0.41 92.17 -8.96 92.17 -18.33 92.17 -27.69 92.17 -37.06 92.17 -37.06 82.78 -46.42 82.78 -46.42 73.39 -55.79 73.39 -65.16 73.39 -74.52 73.39 -74.52 64 -83.89 64 -93.25 64 -93.25 73.39 -102.62 73.39 -111.98 73.39 -111.98 82.78 -121.35 82.78 -130.72 82.78 -140.08 82.78 -149.45 82.78 -158.81 82.78 -168.18 82.78 -177.55 82.78 -186.91 82.78 -186.91 92.17 -196.28 92.17 -205.64 92.17 -205.64 101.56 -205.64 110.96 -205.64 120.35 -215.01 120.35 -215.01 129.74 -224.38 129.74 -224.38 139.13 -233.74 139.13 -233.74 148.52 -233.74 157.91 -233.74 167.3 -243.11 167.3 -243.11 176.7 -243.11 186.09 -233.74 186.09 -233.74 176.7 -224.38 176.7 -224.38 167.3 -215.01 167.3 -215.01 157.91 -205.64 157.91 -205.64 148.52 -196.28 148.52 -196.28 139.13 -186.91 139.13 -177.55 139.13 -168.18 139.13 -158.81 139.13 -149.45 139.13 -149.45 148.52 -140.08 148.52 -140.08 157.91 -130.72 157.91 -121.35 157.91 -121.35 148.52 -111.98 148.52 -111.98 139.13 -102.62 139.13 -102.62 129.74 -93.25 129.74 -93.25 120.35 -83.89 120.35 -83.89 110.96 -74.52 110.96 -74.52 101.56 -65.16 101.56 -55.79 101.56 -46.42 101.56 -37.06 101.56 -37.06 110.96 -27.69 110.96 -18.33 110.96 -18.33 120.35 -8.96 120.35 0.41 120.35 0.41 129.74 0.41 139.13 0.41 148.52 0.41 157.91 9.77 157.91 19.14 157.91 28.5 157.91 28.5 148.52 37.87 148.52 37.87 139.13 47.23 139.13 56.6 139.13 65.97 139.13 65.97 148.52 65.97 157.91 75.33 157.91 75.33 167.3 84.7 167.3 94.06 167.3 103.43 167.3 103.43 176.7 112.8 176.7 112.8 186.09 122.16 186.09 122.16 195.48 131.53 195.48 131.53 186.09 131.53 176.7 122.16 176.7"/><polygon class="cls-4" points="-18.33 120.35 -18.33 110.96 -27.69 110.96 -37.06 110.96 -37.06 101.56 -46.42 101.56 -55.79 101.56 -65.16 101.56 -74.52 101.56 -74.52 110.96 -83.89 110.96 -83.89 120.35 -93.25 120.35 -93.25 129.74 -102.62 129.74 -102.62 139.13 -111.98 139.13 -111.98 148.52 -121.35 148.52 -121.35 157.91 -130.72 157.91 -140.08 157.91 -140.08 148.52 -149.45 148.52 -149.45 139.13 -158.81 139.13 -168.18 139.13 -177.55 139.13 -186.91 139.13 -196.28 139.13 -196.28 148.52 -205.64 148.52 -205.64 157.91 -215.01 157.91 -215.01 167.3 -224.38 167.3 -224.38 176.7 -233.74 176.7 -233.74 186.09 -243.11 186.09 -243.11 195.48 -233.74 195.48 -233.74 204.87 -224.38 204.87 -224.38 214.26 -215.01 214.26 -205.64 214.26 -196.28 214.26 -196.28 204.87 -186.91 204.87 -177.55 204.87 -177.55 195.48 -168.18 195.48 -158.81 195.48 -149.45 195.48 -140.08 195.48 -140.08 204.87 -130.72 204.87 -130.72 195.48 -130.72 186.09 -121.35 186.09 -121.35 176.7 -111.98 176.7 -102.62 176.7 -93.25 176.7 -83.89 176.7 -83.89 186.09 -74.52 186.09 -65.16 186.09 -65.16 195.48 -55.79 195.48 -46.42 195.48 -37.06 195.48 -37.06 186.09 -27.69 186.09 -27.69 176.7 -18.33 176.7 -18.33 167.3 -8.96 167.3 0.41 167.3 0.41 157.91 0.41 148.52 0.41 139.13 0.41 129.74 0.41 120.35 -8.96 120.35 -18.33 120.35"/><polygon class="cls-4" points="65.97 157.91 65.97 148.52 65.97 139.13 56.6 139.13 47.23 139.13 37.87 139.13 37.87 148.52 28.5 148.52 28.5 157.91 28.5 167.3 37.87 167.3 37.87 176.7 47.23 176.7 47.23 186.09 56.6 186.09 56.6 195.48 65.97 195.48 65.97 186.09 65.97 176.7 75.33 176.7 75.33 167.3 75.33 157.91 65.97 157.91"/><polygon class="cls-5" points="122.16 195.48 122.16 186.09 112.8 186.09 112.8 176.7 103.43 176.7 103.43 167.3 94.06 167.3 84.7 167.3 75.33 167.3 75.33 176.7 65.97 176.7 65.97 186.09 65.97 195.48 56.6 195.48 56.6 186.09 47.23 186.09 47.23 176.7 37.87 176.7 37.87 167.3 28.5 167.3 28.5 157.91 19.14 157.91 9.77 157.91 0.41 157.91 0.41 167.3 -8.96 167.3 -18.33 167.3 -18.33 176.7 -27.69 176.7 -27.69 186.09 -37.06 186.09 -37.06 195.48 -46.42 195.48 -55.79 195.48 -65.16 195.48 -65.16 186.09 -74.52 186.09 -83.89 186.09 -83.89 176.7 -93.25 176.7 -102.62 176.7 -111.98 176.7 -121.35 176.7 -121.35 186.09 -130.72 186.09 -130.72 195.48 -130.72 204.87 -140.08 204.87 -140.08 195.48 -149.45 195.48 -158.81 195.48 -168.18 195.48 -177.55 195.48 -177.55 204.87 -186.91 204.87 -196.28 204.87 -196.28 214.26 -205.64 214.26 -215.01 214.26 -224.38 214.26 -224.38 204.87 -233.74 204.87 -233.74 214.26 -233.74 223.65 -224.38 223.65 -224.38 233.04 -215.01 233.04 -215.01 242.44 -205.64 242.44 -196.28 242.44 -186.91 242.44 -177.55 242.44 -168.18 242.44 -158.81 242.44 -158.81 251.83 -149.45 251.83 -140.08 251.83 -130.72 251.83 -121.35 251.83 -111.98 251.83 -111.98 242.44 -102.62 242.44 -93.25 242.44 -83.89 242.44 -74.52 242.44 -74.52 233.04 -65.16 233.04 -65.16 242.44 -55.79 242.44 -46.42 242.44 -37.06 242.44 -27.69 242.44 -27.69 251.83 -18.33 251.83 -8.96 251.83 0.41 251.83 9.77 251.83 19.14 251.83 28.5 251.83 37.87 251.83 37.87 242.44 47.23 242.44 56.6 242.44 65.97 242.44 75.33 242.44 84.7 242.44 94.06 242.44 103.43 242.44 112.8 242.44 112.8 233.04 122.16 233.04 122.16 223.65 131.53 223.65 131.53 214.26 131.53 204.87 131.53 195.48 122.16 195.48"/></g></g><g id="nuage3"><g class="cls-2"><polygon class="cls-6" points="1091.76 624.78 1082.4 624.78 1082.4 615.39 1073.03 615.39 1063.67 615.39 1063.67 606 1054.3 606 1044.93 606 1035.57 606 1026.2 606 1026.2 596.61 1016.84 596.61 1007.47 596.61 998.11 596.61 998.11 587.22 988.74 587.22 988.74 577.83 979.37 577.83 979.37 568.43 970.01 568.43 960.64 568.43 951.28 568.43 941.91 568.43 941.91 577.83 932.54 577.83 932.54 568.43 932.54 559.04 923.18 559.04 923.18 549.65 923.18 540.26 913.81 540.26 904.45 540.26 904.45 530.87 895.08 530.87 895.08 521.48 895.08 512.09 885.72 512.09 876.35 512.09 866.98 512.09 857.62 512.09 848.25 512.09 848.25 502.7 838.89 502.7 829.52 502.7 820.15 502.7 810.79 502.7 801.42 502.7 792.06 502.7 792.06 512.09 782.69 512.09 773.33 512.09 763.96 512.09 754.59 512.09 745.23 512.09 745.23 521.48 735.86 521.48 726.5 521.48 726.5 512.09 717.13 512.09 717.13 502.7 707.76 502.7 698.4 502.7 689.03 502.7 689.03 493.3 679.67 493.3 670.3 493.3 660.93 493.3 651.57 493.3 642.2 493.3 632.84 493.3 632.84 483.91 632.84 474.52 632.84 465.13 623.47 465.13 623.47 455.74 614.11 455.74 604.74 455.74 604.74 446.35 595.37 446.35 586.01 446.35 586.01 436.96 576.64 436.96 567.28 436.96 557.91 436.96 548.54 436.96 548.54 427.56 539.18 427.56 539.18 418.17 529.81 418.17 520.45 418.17 511.08 418.17 511.08 408.78 501.71 408.78 492.35 408.78 482.98 408.78 473.62 408.78 464.25 408.78 464.25 399.39 454.89 399.39 454.89 390 445.52 390 445.52 380.61 436.15 380.61 436.15 371.22 426.79 371.22 417.42 371.22 417.42 361.83 408.06 361.83 398.69 361.83 389.32 361.83 379.96 361.83 370.59 361.83 361.23 361.83 361.23 371.22 351.86 371.22 342.5 371.22 333.13 371.22 333.13 380.61 323.76 380.61 323.76 371.22 314.4 371.22 314.4 361.83 305.03 361.83 305.03 352.44 295.67 352.44 286.3 352.44 276.94 352.44 267.57 352.44 258.2 352.44 248.84 352.44 239.47 352.44 230.1 352.44 220.74 352.44 211.37 352.44 202.01 352.44 202.01 361.83 192.64 361.83 183.28 361.83 173.91 361.83 173.91 371.22 164.54 371.22 164.54 380.61 155.18 380.61 155.18 390 145.81 390 145.81 399.39 136.45 399.39 136.45 408.78 127.08 408.78 117.72 408.78 108.35 408.78 108.35 418.17 98.98 418.17 89.62 418.17 80.25 418.17 70.89 418.17 70.89 408.78 61.52 408.78 52.15 408.78 42.79 408.78 33.42 408.78 24.06 408.78 24.06 418.17 14.69 418.17 5.33 418.17 -4.04 418.17 -13.41 418.17 -13.41 427.56 -13.41 436.96 -22.77 436.96 -22.77 446.35 -22.77 455.74 -22.77 465.13 -13.41 465.13 -13.41 455.74 -4.04 455.74 5.33 455.74 14.69 455.74 24.06 455.74 33.42 455.74 42.79 455.74 52.15 455.74 61.52 455.74 70.89 455.74 80.25 455.74 89.62 455.74 98.98 455.74 98.98 465.13 108.35 465.13 117.72 465.13 127.08 465.13 127.08 474.52 136.45 474.52 145.81 474.52 145.81 483.91 155.18 483.91 155.18 474.52 155.18 465.13 164.54 465.13 164.54 455.74 164.54 446.35 173.91 446.35 173.91 436.96 183.28 436.96 183.28 427.56 192.64 427.56 192.64 418.17 202.01 418.17 211.37 418.17 211.37 408.78 220.74 408.78 230.1 408.78 230.1 399.39 239.47 399.39 248.84 399.39 258.2 399.39 267.57 399.39 267.57 408.78 276.94 408.78 286.3 408.78 295.67 408.78 305.03 408.78 314.4 408.78 323.76 408.78 323.76 418.17 333.13 418.17 333.13 427.56 342.5 427.56 342.5 436.96 351.86 436.96 351.86 446.35 351.86 455.74 361.23 455.74 361.23 465.13 370.59 465.13 370.59 474.52 379.96 474.52 379.96 483.91 379.96 493.3 389.32 493.3 398.69 493.3 408.06 493.3 408.06 483.91 417.42 483.91 426.79 483.91 426.79 474.52 436.15 474.52 445.52 474.52 454.89 474.52 454.89 465.13 464.25 465.13 473.62 465.13 482.98 465.13 492.35 465.13 501.71 465.13 501.71 474.52 511.08 474.52 520.45 474.52 529.81 474.52 529.81 483.91 539.18 483.91 539.18 493.3 548.54 493.3 557.91 493.3 557.91 502.7 567.28 502.7 567.28 512.09 576.64 512.09 576.64 521.48 576.64 530.87 576.64 540.26 586.01 540.26 586.01 549.65 595.37 549.65 604.74 549.65 614.11 549.65 614.11 559.04 623.47 559.04 632.84 559.04 642.2 559.04 651.57 559.04 651.57 549.65 660.93 549.65 670.3 549.65 679.67 549.65 689.03 549.65 689.03 559.04 698.4 559.04 707.76 559.04 717.13 559.04 717.13 568.43 726.5 568.43 735.86 568.43 735.86 559.04 745.23 559.04 745.23 549.65 754.59 549.65 754.59 540.26 763.96 540.26 763.96 530.87 773.33 530.87 782.69 530.87 792.06 530.87 801.42 530.87 810.79 530.87 810.79 540.26 820.15 540.26 829.52 540.26 829.52 549.65 838.89 549.65 848.25 549.65 848.25 559.04 857.62 559.04 866.98 559.04 866.98 568.43 866.98 577.83 876.35 577.83 876.35 587.22 885.72 587.22 885.72 596.61 895.08 596.61 895.08 606 904.45 606 913.81 606 923.18 606 932.54 606 941.91 606 951.28 606 951.28 596.61 960.64 596.61 970.01 596.61 979.37 596.61 979.37 606 988.74 606 998.11 606 1007.47 606 1007.47 615.39 1016.84 615.39 1026.2 615.39 1026.2 624.78 1035.57 624.78 1035.57 634.17 1044.93 634.17 1054.3 634.17 1063.67 634.17 1073.03 634.17 1082.4 634.17 1091.76 634.17 1101.13 634.17 1110.49 634.17 1110.49 624.78 1101.13 624.78 1091.76 624.78"/><polygon class="cls-6" points="1157.33 643.57 1157.33 652.96 1166.69 652.96 1176.06 652.96 1176.06 643.57 1166.69 643.57 1157.33 643.57"/><polygon class="cls-6" points="1279.08 643.57 1269.71 643.57 1260.35 643.57 1250.98 643.57 1241.62 643.57 1232.25 643.57 1232.25 652.96 1241.62 652.96 1250.98 652.96 1260.35 652.96 1269.71 652.96 1279.08 652.96 1288.45 652.96 1288.45 643.57 1279.08 643.57"/><polygon class="cls-6" points="1213.52 652.96 1204.15 652.96 1194.79 652.96 1185.42 652.96 1185.42 662.35 1194.79 662.35 1204.15 662.35 1213.52 662.35 1222.89 662.35 1232.25 662.35 1232.25 652.96 1222.89 652.96 1213.52 652.96"/><polygon class="cls-6" points="1288.45 652.96 1288.45 662.35 1297.81 662.35 1307.18 662.35 1307.18 652.96 1297.81 652.96 1288.45 652.96"/><polygon class="cls-6" points="1400.84 662.35 1391.47 662.35 1382.11 662.35 1382.11 652.96 1372.74 652.96 1363.37 652.96 1354.01 652.96 1344.64 652.96 1335.28 652.96 1335.28 662.35 1344.64 662.35 1354.01 662.35 1354.01 671.74 1363.37 671.74 1363.37 681.13 1372.74 681.13 1382.11 681.13 1391.47 681.13 1400.84 681.13 1410.2 681.13 1410.2 671.74 1410.2 662.35 1400.84 662.35"/><polygon class="cls-4" points="614.11 549.65 604.74 549.65 595.37 549.65 586.01 549.65 586.01 540.26 576.64 540.26 576.64 530.87 576.64 521.48 576.64 512.09 567.28 512.09 567.28 502.7 557.91 502.7 557.91 493.3 548.54 493.3 539.18 493.3 539.18 483.91 529.81 483.91 529.81 474.52 520.45 474.52 511.08 474.52 501.71 474.52 501.71 465.13 492.35 465.13 482.98 465.13 473.62 465.13 464.25 465.13 454.89 465.13 454.89 474.52 445.52 474.52 436.15 474.52 426.79 474.52 426.79 483.91 417.42 483.91 408.06 483.91 408.06 493.3 398.69 493.3 389.32 493.3 379.96 493.3 379.96 483.91 379.96 474.52 370.59 474.52 370.59 465.13 361.23 465.13 361.23 455.74 351.86 455.74 351.86 446.35 351.86 436.96 342.5 436.96 342.5 427.56 333.13 427.56 333.13 418.17 323.76 418.17 323.76 408.78 314.4 408.78 305.03 408.78 295.67 408.78 286.3 408.78 276.94 408.78 267.57 408.78 267.57 399.39 258.2 399.39 248.84 399.39 239.47 399.39 230.1 399.39 230.1 408.78 220.74 408.78 211.37 408.78 211.37 418.17 202.01 418.17 192.64 418.17 192.64 427.56 183.28 427.56 183.28 436.96 173.91 436.96 173.91 446.35 164.54 446.35 164.54 455.74 164.54 465.13 155.18 465.13 155.18 474.52 155.18 483.91 145.81 483.91 145.81 474.52 136.45 474.52 127.08 474.52 127.08 465.13 117.72 465.13 108.35 465.13 98.98 465.13 98.98 455.74 89.62 455.74 80.25 455.74 70.89 455.74 61.52 455.74 52.15 455.74 42.79 455.74 33.42 455.74 24.06 455.74 14.69 455.74 5.33 455.74 -4.04 455.74 -13.41 455.74 -13.41 465.13 -22.77 465.13 -22.77 474.52 -32.14 474.52 -32.14 483.91 -41.5 483.91 -41.5 493.3 -50.87 493.3 -50.87 502.7 -50.87 512.09 -50.87 521.48 -50.87 530.87 -60.24 530.87 -60.24 540.26 -60.24 549.65 -60.24 559.04 -69.6 559.04 -78.97 559.04 -88.33 559.04 -88.33 549.65 -97.7 549.65 -107.06 549.65 -116.43 549.65 -116.43 540.26 -125.8 540.26 -135.16 540.26 -144.53 540.26 -153.9 540.26 -163.26 540.26 -163.26 549.65 -172.63 549.65 -172.63 559.04 -172.63 568.43 -181.99 568.43 -181.99 577.83 -181.99 587.22 -191.36 587.22 -191.36 596.61 -200.72 596.61 -200.72 606 -210.09 606 -219.46 606 -228.82 606 -238.19 606 -247.55 606 -256.92 606 -266.29 606 -275.65 606 -285.02 606 -294.38 606 -303.75 606 -303.75 615.39 -313.11 615.39 -313.11 624.78 -322.48 624.78 -322.48 634.17 -331.85 634.17 -341.21 634.17 -341.21 643.57 -350.58 643.57 -359.94 643.57 -359.94 652.96 -369.31 652.96 -369.31 662.35 -378.68 662.35 -378.68 671.74 -378.68 681.13 -369.31 681.13 -369.31 671.74 -359.94 671.74 -350.58 671.74 -350.58 662.35 -341.21 662.35 -331.85 662.35 -331.85 652.96 -322.48 652.96 -313.11 652.96 -303.75 652.96 -294.38 652.96 -285.02 652.96 -275.65 652.96 -266.29 652.96 -256.92 652.96 -247.55 652.96 -247.55 643.57 -238.19 643.57 -228.82 643.57 -219.46 643.57 -219.46 634.17 -210.09 634.17 -210.09 624.78 -200.72 624.78 -191.36 624.78 -191.36 615.39 -181.99 615.39 -181.99 606 -172.63 606 -163.26 606 -163.26 596.61 -153.9 596.61 -153.9 587.22 -144.53 587.22 -135.16 587.22 -125.8 587.22 -116.43 587.22 -116.43 577.83 -107.06 577.83 -97.7 577.83 -88.33 577.83 -78.97 577.83 -69.6 577.83 -60.24 577.83 -60.24 587.22 -50.87 587.22 -41.5 587.22 -32.14 587.22 -22.77 587.22 -22.77 596.61 -13.41 596.61 -4.04 596.61 5.33 596.61 5.33 606 14.69 606 14.69 596.61 24.06 596.61 24.06 587.22 33.42 587.22 33.42 577.83 33.42 568.43 42.79 568.43 42.79 559.04 42.79 549.65 52.15 549.65 52.15 540.26 61.52 540.26 61.52 530.87 70.89 530.87 70.89 521.48 80.25 521.48 89.62 521.48 98.98 521.48 108.35 521.48 117.72 521.48 127.08 521.48 136.45 521.48 145.81 521.48 155.18 521.48 164.54 521.48 164.54 530.87 173.91 530.87 173.91 540.26 183.28 540.26 192.64 540.26 192.64 549.65 202.01 549.65 211.37 549.65 211.37 559.04 220.74 559.04 220.74 549.65 230.1 549.65 239.47 549.65 239.47 540.26 248.84 540.26 258.2 540.26 267.57 540.26 276.94 540.26 286.3 540.26 286.3 549.65 295.67 549.65 305.03 549.65 305.03 559.04 305.03 568.43 314.4 568.43 323.76 568.43 333.13 568.43 333.13 559.04 342.5 559.04 342.5 549.65 351.86 549.65 361.23 549.65 370.59 549.65 379.96 549.65 389.32 549.65 389.32 559.04 398.69 559.04 408.06 559.04 417.42 559.04 417.42 568.43 426.79 568.43 436.15 568.43 436.15 577.83 445.52 577.83 445.52 587.22 445.52 596.61 454.89 596.61 454.89 606 454.89 615.39 464.25 615.39 464.25 606 473.62 606 482.98 606 482.98 596.61 492.35 596.61 501.71 596.61 511.08 596.61 511.08 587.22 520.45 587.22 529.81 587.22 539.18 587.22 539.18 577.83 548.54 577.83 557.91 577.83 567.28 577.83 567.28 568.43 576.64 568.43 586.01 568.43 586.01 577.83 586.01 587.22 595.37 587.22 604.74 587.22 604.74 577.83 614.11 577.83 614.11 568.43 623.47 568.43 623.47 559.04 614.11 559.04 614.11 549.65"/><polygon class="cls-4" points="866.98 559.04 857.62 559.04 848.25 559.04 848.25 549.65 838.89 549.65 829.52 549.65 829.52 540.26 820.15 540.26 810.79 540.26 810.79 530.87 801.42 530.87 792.06 530.87 782.69 530.87 773.33 530.87 763.96 530.87 763.96 540.26 754.59 540.26 754.59 549.65 745.23 549.65 745.23 559.04 735.86 559.04 735.86 568.43 726.5 568.43 717.13 568.43 717.13 559.04 707.76 559.04 698.4 559.04 689.03 559.04 689.03 549.65 679.67 549.65 670.3 549.65 660.93 549.65 651.57 549.65 651.57 559.04 660.93 559.04 670.3 559.04 670.3 568.43 679.67 568.43 679.67 577.83 689.03 577.83 689.03 587.22 698.4 587.22 698.4 596.61 698.4 606 707.76 606 707.76 615.39 717.13 615.39 717.13 624.78 726.5 624.78 726.5 634.17 735.86 634.17 745.23 634.17 754.59 634.17 754.59 624.78 763.96 624.78 773.33 624.78 773.33 615.39 782.69 615.39 792.06 615.39 792.06 606 801.42 606 801.42 596.61 810.79 596.61 820.15 596.61 820.15 587.22 829.52 587.22 829.52 577.83 838.89 577.83 848.25 577.83 857.62 577.83 866.98 577.83 866.98 568.43 866.98 559.04"/><rect class="cls-4" x="866.98" y="577.83" width="9.37" height="9.39"/><rect class="cls-4" x="885.72" y="596.61" width="9.37" height="9.39"/><polygon class="cls-4" points="1026.2 615.39 1016.84 615.39 1007.47 615.39 1007.47 606 998.11 606 988.74 606 979.37 606 979.37 596.61 970.01 596.61 960.64 596.61 951.28 596.61 951.28 606 941.91 606 932.54 606 923.18 606 913.81 606 904.45 606 895.08 606 895.08 615.39 904.45 615.39 904.45 624.78 913.81 624.78 923.18 624.78 932.54 624.78 941.91 624.78 941.91 615.39 951.28 615.39 960.64 615.39 970.01 615.39 979.37 615.39 988.74 615.39 998.11 615.39 998.11 624.78 1007.47 624.78 1016.84 624.78 1016.84 634.17 1016.84 643.57 1026.2 643.57 1035.57 643.57 1035.57 634.17 1035.57 624.78 1026.2 624.78 1026.2 615.39"/><rect class="cls-4" x="1138.59" y="634.17" width="9.37" height="9.39"/><rect class="cls-4" x="1147.96" y="643.57" width="9.37" height="9.39"/><polygon class="cls-4" points="1269.71 652.96 1260.35 652.96 1250.98 652.96 1241.62 652.96 1232.25 652.96 1232.25 662.35 1222.89 662.35 1213.52 662.35 1204.15 662.35 1194.79 662.35 1185.42 662.35 1185.42 652.96 1176.06 652.96 1166.69 652.96 1157.33 652.96 1157.33 662.35 1166.69 662.35 1166.69 671.74 1176.06 671.74 1185.42 671.74 1194.79 671.74 1204.15 671.74 1204.15 681.13 1213.52 681.13 1213.52 671.74 1222.89 671.74 1232.25 671.74 1241.62 671.74 1250.98 671.74 1250.98 662.35 1260.35 662.35 1269.71 662.35 1279.08 662.35 1288.45 662.35 1288.45 652.96 1279.08 652.96 1269.71 652.96"/><polygon class="cls-4" points="1363.37 681.13 1363.37 671.74 1354.01 671.74 1354.01 662.35 1344.64 662.35 1335.28 662.35 1325.91 662.35 1316.54 662.35 1307.18 662.35 1297.81 662.35 1297.81 671.74 1307.18 671.74 1316.54 671.74 1325.91 671.74 1335.28 671.74 1344.64 671.74 1344.64 681.13 1354.01 681.13 1354.01 690.52 1363.37 690.52 1372.74 690.52 1372.74 681.13 1363.37 681.13"/><polygon class="cls-5" points="1344.64 681.13 1344.64 671.74 1335.28 671.74 1325.91 671.74 1316.54 671.74 1307.18 671.74 1297.81 671.74 1297.81 662.35 1288.45 662.35 1279.08 662.35 1269.71 662.35 1260.35 662.35 1250.98 662.35 1250.98 671.74 1241.62 671.74 1232.25 671.74 1222.89 671.74 1213.52 671.74 1213.52 681.13 1204.15 681.13 1204.15 671.74 1194.79 671.74 1185.42 671.74 1176.06 671.74 1166.69 671.74 1166.69 662.35 1157.33 662.35 1157.33 652.96 1147.96 652.96 1147.96 643.57 1138.59 643.57 1138.59 634.17 1129.23 634.17 1119.86 634.17 1110.49 634.17 1101.13 634.17 1091.76 634.17 1082.4 634.17 1073.03 634.17 1063.67 634.17 1054.3 634.17 1044.93 634.17 1035.57 634.17 1035.57 643.57 1026.2 643.57 1016.84 643.57 1016.84 634.17 1016.84 624.78 1007.47 624.78 998.11 624.78 998.11 615.39 988.74 615.39 979.37 615.39 970.01 615.39 960.64 615.39 951.28 615.39 941.91 615.39 941.91 624.78 932.54 624.78 923.18 624.78 913.81 624.78 904.45 624.78 904.45 615.39 895.08 615.39 895.08 606 885.72 606 885.72 596.61 885.72 587.22 876.35 587.22 866.98 587.22 866.98 577.83 857.62 577.83 848.25 577.83 838.89 577.83 829.52 577.83 829.52 587.22 820.15 587.22 820.15 596.61 810.79 596.61 801.42 596.61 801.42 606 792.06 606 792.06 615.39 782.69 615.39 773.33 615.39 773.33 624.78 763.96 624.78 754.59 624.78 754.59 634.17 745.23 634.17 735.86 634.17 726.5 634.17 726.5 624.78 717.13 624.78 717.13 615.39 707.76 615.39 707.76 606 698.4 606 698.4 596.61 698.4 587.22 689.03 587.22 689.03 577.83 679.67 577.83 679.67 568.43 670.3 568.43 670.3 559.04 660.93 559.04 651.57 559.04 642.2 559.04 632.84 559.04 623.47 559.04 623.47 568.43 614.11 568.43 614.11 577.83 604.74 577.83 604.74 587.22 595.37 587.22 586.01 587.22 586.01 577.83 586.01 568.43 576.64 568.43 567.28 568.43 567.28 577.83 557.91 577.83 548.54 577.83 539.18 577.83 539.18 587.22 529.81 587.22 520.45 587.22 511.08 587.22 511.08 596.61 501.71 596.61 492.35 596.61 482.98 596.61 482.98 606 473.62 606 464.25 606 464.25 615.39 454.89 615.39 454.89 606 454.89 596.61 445.52 596.61 445.52 587.22 445.52 577.83 436.15 577.83 436.15 568.43 426.79 568.43 417.42 568.43 417.42 559.04 408.06 559.04 398.69 559.04 389.32 559.04 389.32 549.65 379.96 549.65 370.59 549.65 361.23 549.65 351.86 549.65 342.5 549.65 342.5 559.04 333.13 559.04 333.13 568.43 323.76 568.43 314.4 568.43 305.03 568.43 305.03 559.04 305.03 549.65 295.67 549.65 286.3 549.65 286.3 540.26 276.94 540.26 267.57 540.26 258.2 540.26 248.84 540.26 239.47 540.26 239.47 549.65 230.1 549.65 220.74 549.65 220.74 559.04 211.37 559.04 211.37 549.65 202.01 549.65 192.64 549.65 192.64 540.26 183.28 540.26 173.91 540.26 173.91 530.87 164.54 530.87 164.54 521.48 155.18 521.48 145.81 521.48 136.45 521.48 127.08 521.48 117.72 521.48 108.35 521.48 98.98 521.48 89.62 521.48 80.25 521.48 70.89 521.48 70.89 530.87 61.52 530.87 61.52 540.26 52.15 540.26 52.15 549.65 42.79 549.65 42.79 559.04 42.79 568.43 33.42 568.43 33.42 577.83 33.42 587.22 24.06 587.22 24.06 596.61 14.69 596.61 14.69 606 5.33 606 5.33 596.61 -4.04 596.61 -13.41 596.61 -22.77 596.61 -22.77 587.22 -32.14 587.22 -41.5 587.22 -50.87 587.22 -60.24 587.22 -60.24 577.83 -69.6 577.83 -78.97 577.83 -88.33 577.83 -97.7 577.83 -107.06 577.83 -116.43 577.83 -116.43 587.22 -125.8 587.22 -135.16 587.22 -144.53 587.22 -153.9 587.22 -153.9 596.61 -163.26 596.61 -163.26 606 -172.63 606 -181.99 606 -181.99 615.39 -191.36 615.39 -191.36 624.78 -200.72 624.78 -210.09 624.78 -210.09 634.17 -219.46 634.17 -219.46 643.57 -228.82 643.57 -238.19 643.57 -247.55 643.57 -247.55 652.96 -256.92 652.96 -266.29 652.96 -275.65 652.96 -285.02 652.96 -294.38 652.96 -303.75 652.96 -313.11 652.96 -322.48 652.96 -331.85 652.96 -331.85 662.35 -341.21 662.35 -350.58 662.35 -350.58 671.74 -359.94 671.74 -369.31 671.74 -369.31 681.13 -369.31 690.52 -359.94 690.52 -350.58 690.52 -341.21 690.52 -331.85 690.52 -322.48 690.52 -313.11 690.52 -303.75 690.52 -294.38 690.52 -294.38 681.13 -285.02 681.13 -285.02 690.52 -275.65 690.52 -266.29 690.52 -256.92 690.52 -247.55 690.52 -238.19 690.52 -238.19 681.13 -228.82 681.13 -219.46 681.13 -219.46 671.74 -210.09 671.74 -200.72 671.74 -200.72 662.35 -191.36 662.35 -181.99 662.35 -181.99 652.96 -172.63 652.96 -163.26 652.96 -153.9 652.96 -144.53 652.96 -135.16 652.96 -125.8 652.96 -116.43 652.96 -116.43 662.35 -107.06 662.35 -97.7 662.35 -88.33 662.35 -78.97 662.35 -78.97 671.74 -69.6 671.74 -60.24 671.74 -60.24 681.13 -50.87 681.13 -41.5 681.13 -32.14 681.13 -32.14 690.52 -22.77 690.52 -13.41 690.52 -4.04 690.52 -4.04 699.91 5.33 699.91 14.69 699.91 24.06 699.91 33.42 699.91 42.79 699.91 52.15 699.91 61.52 699.91 70.89 699.91 80.25 699.91 89.62 699.91 98.98 699.91 108.35 699.91 117.72 699.91 127.08 699.91 136.45 699.91 145.81 699.91 155.18 699.91 155.18 690.52 164.54 690.52 173.91 690.52 183.28 690.52 192.64 690.52 202.01 690.52 202.01 681.13 211.37 681.13 211.37 690.52 220.74 690.52 230.1 690.52 239.47 690.52 248.84 690.52 258.2 690.52 258.2 699.91 267.57 699.91 276.94 699.91 286.3 699.91 295.67 699.91 305.03 699.91 305.03 709.3 314.4 709.3 323.76 709.3 333.13 709.3 342.5 709.3 342.5 718.7 351.86 718.7 361.23 718.7 370.59 718.7 379.96 718.7 389.32 718.7 398.69 718.7 408.06 718.7 417.42 718.7 426.79 718.7 426.79 728.09 436.15 728.09 445.52 728.09 454.89 728.09 464.25 728.09 473.62 728.09 482.98 728.09 492.35 728.09 492.35 718.7 501.71 718.7 511.08 718.7 520.45 718.7 529.81 718.7 539.18 718.7 548.54 718.7 548.54 709.3 557.91 709.3 567.28 709.3 576.64 709.3 586.01 709.3 595.37 709.3 595.37 699.91 604.74 699.91 614.11 699.91 623.47 699.91 632.84 699.91 632.84 690.52 642.2 690.52 651.57 690.52 651.57 681.13 660.93 681.13 670.3 681.13 670.3 671.74 679.67 671.74 689.03 671.74 698.4 671.74 698.4 662.35 707.76 662.35 717.13 662.35 726.5 662.35 735.86 662.35 745.23 662.35 754.59 662.35 763.96 662.35 773.33 662.35 782.69 662.35 782.69 671.74 792.06 671.74 801.42 671.74 810.79 671.74 810.79 681.13 820.15 681.13 829.52 681.13 838.89 681.13 838.89 690.52 848.25 690.52 857.62 690.52 866.98 690.52 876.35 690.52 876.35 699.91 885.72 699.91 895.08 699.91 904.45 699.91 913.81 699.91 923.18 699.91 932.54 699.91 941.91 699.91 941.91 690.52 951.28 690.52 960.64 690.52 970.01 690.52 979.37 690.52 979.37 681.13 988.74 681.13 998.11 681.13 1007.47 681.13 1007.47 671.74 1016.84 671.74 1026.2 671.74 1035.57 671.74 1044.93 671.74 1054.3 671.74 1063.67 671.74 1073.03 671.74 1073.03 681.13 1082.4 681.13 1091.76 681.13 1101.13 681.13 1110.49 681.13 1110.49 690.52 1119.86 690.52 1129.23 690.52 1138.59 690.52 1147.96 690.52 1157.33 690.52 1166.69 690.52 1176.06 690.52 1185.42 690.52 1185.42 699.91 1194.79 699.91 1204.15 699.91 1213.52 699.91 1222.89 699.91 1232.25 699.91 1241.62 699.91 1250.98 699.91 1260.35 699.91 1269.71 699.91 1279.08 699.91 1279.08 690.52 1288.45 690.52 1297.81 690.52 1307.18 690.52 1316.54 690.52 1316.54 699.91 1325.91 699.91 1335.28 699.91 1335.28 690.52 1344.64 690.52 1354.01 690.52 1354.01 681.13 1344.64 681.13"/></g></g><g id="nuage4"><g class="cls-2"><polygon class="cls-6" points="1919.89 498 1919.89 488.61 1919.89 479.22 1929.26 479.22 1938.63 479.22 1947.99 479.22 1947.99 469.83 1947.99 460.44 1957.36 460.44 1957.36 451.04 1966.72 451.04 1966.72 441.65 1976.09 441.65 1985.45 441.65 1985.45 432.26 1994.82 432.26 2004.19 432.26 2013.55 432.26 2022.92 432.26 2022.92 422.87 2032.28 422.87 2032.28 413.48 2041.65 413.48 2051.02 413.48 2060.38 413.48 2069.75 413.48 2079.11 413.48 2079.11 404.09 2088.48 404.09 2088.48 394.7 2097.84 394.7 2107.21 394.7 2116.58 394.7 2116.58 385.3 2125.94 385.3 2135.31 385.3 2135.31 394.7 2144.67 394.7 2154.04 394.7 2154.04 404.09 2163.41 404.09 2172.77 404.09 2182.14 404.09 2191.5 404.09 2200.87 404.09 2210.24 404.09 2219.6 404.09 2228.97 404.09 2228.97 413.48 2238.33 413.48 2247.7 413.48 2247.7 422.87 2247.7 432.26 2247.7 441.65 2257.06 441.65 2257.06 451.04 2266.43 451.04 2266.43 460.44 2275.8 460.44 2275.8 469.83 2275.8 479.22 2275.8 488.61 2285.16 488.61 2285.16 498 2285.16 507.39 2275.8 507.39 2275.8 498 2266.43 498 2266.43 488.61 2257.06 488.61 2257.06 479.22 2247.7 479.22 2247.7 469.83 2238.33 469.83 2238.33 460.44 2228.97 460.44 2219.6 460.44 2210.24 460.44 2200.87 460.44 2191.5 460.44 2191.5 469.83 2182.14 469.83 2182.14 479.22 2172.77 479.22 2163.41 479.22 2163.41 469.83 2154.04 469.83 2154.04 460.44 2144.67 460.44 2144.67 451.04 2135.31 451.04 2135.31 441.65 2125.94 441.65 2125.94 432.26 2116.58 432.26 2116.58 422.87 2107.21 422.87 2097.84 422.87 2088.48 422.87 2079.11 422.87 2079.11 432.26 2069.75 432.26 2060.38 432.26 2060.38 441.65 2051.02 441.65 2041.65 441.65 2041.65 451.04 2041.65 460.44 2041.65 469.83 2041.65 479.22 2032.28 479.22 2022.92 479.22 2013.55 479.22 2013.55 469.83 2004.19 469.83 2004.19 460.44 1994.82 460.44 1985.45 460.44 1976.09 460.44 1976.09 469.83 1976.09 479.22 1966.72 479.22 1966.72 488.61 1957.36 488.61 1947.99 488.61 1938.63 488.61 1938.63 498 1929.26 498 1929.26 507.39 1919.89 507.39 1919.89 516.78 1910.53 516.78 1910.53 507.39 1910.53 498 1919.89 498"/><polygon class="cls-6" points="1790.89 507.39 1790.89 498 1790.89 488.61 1800.25 488.61 1809.62 488.61 1818.98 488.61 1818.98 479.22 1818.98 469.83 1828.35 469.83 1828.35 460.44 1837.71 460.44 1837.71 451.04 1847.08 451.04 1856.45 451.04 1856.45 441.65 1865.81 441.65 1875.18 441.65 1884.54 441.65 1893.91 441.65 1893.91 432.26 1903.28 432.26 1903.28 422.87 1912.64 422.87 1922.01 422.87 1931.37 422.87 1940.74 422.87 1950.11 422.87 1950.11 413.48 1959.47 413.48 1959.47 404.09 1968.84 404.09 1978.2 404.09 1987.57 404.09 1987.57 394.7 1996.93 394.7 2006.3 394.7 2006.3 404.09 2015.67 404.09 2025.03 404.09 2025.03 413.48 2034.4 413.48 2043.76 413.48 2053.13 413.48 2062.5 413.48 2071.86 413.48 2081.23 413.48 2090.59 413.48 2099.96 413.48 2099.96 422.87 2109.32 422.87 2118.69 422.87 2118.69 432.26 2118.69 441.65 2118.69 451.04 2128.06 451.04 2128.06 460.44 2137.42 460.44 2137.42 469.83 2146.79 469.83 2146.79 479.22 2146.79 488.61 2146.79 498 2156.15 498 2156.15 507.39 2156.15 516.78 2146.79 516.78 2146.79 507.39 2137.42 507.39 2137.42 498 2128.06 498 2128.06 488.61 2118.69 488.61 2118.69 479.22 2109.32 479.22 2109.32 469.83 2099.96 469.83 2090.59 469.83 2081.23 469.83 2071.86 469.83 2062.5 469.83 2062.5 479.22 2053.13 479.22 2053.13 488.61 2043.76 488.61 2034.4 488.61 2034.4 479.22 2025.03 479.22 2025.03 469.83 2015.67 469.83 2015.67 460.44 2006.3 460.44 2006.3 451.04 1996.93 451.04 1996.93 441.65 1987.57 441.65 1987.57 432.26 1978.2 432.26 1968.84 432.26 1959.47 432.26 1950.11 432.26 1950.11 441.65 1940.74 441.65 1931.37 441.65 1931.37 451.04 1922.01 451.04 1912.64 451.04 1912.64 460.44 1912.64 469.83 1912.64 479.22 1912.64 488.61 1903.28 488.61 1893.91 488.61 1884.54 488.61 1884.54 479.22 1875.18 479.22 1875.18 469.83 1865.81 469.83 1856.45 469.83 1847.08 469.83 1847.08 479.22 1847.08 488.61 1837.71 488.61 1837.71 498 1828.35 498 1818.98 498 1809.62 498 1809.62 507.39 1800.25 507.39 1800.25 516.78 1790.89 516.78 1790.89 526.17 1781.52 526.17 1781.52 516.78 1781.52 507.39 1790.89 507.39"/><polygon class="cls-5" points="2266.43 526.17 2266.43 535.57 2257.06 535.57 2247.7 535.57 2238.33 535.57 2238.33 526.17 2228.97 526.17 2219.6 526.17 2219.6 516.78 2210.24 516.78 2200.87 516.78 2191.5 516.78 2182.14 516.78 2182.14 526.17 2172.77 526.17 2172.77 516.78 2172.77 507.39 2163.41 507.39 2163.41 498 2154.04 498 2144.67 498 2135.31 498 2125.94 498 2125.94 507.39 2116.58 507.39 2107.21 507.39 2107.21 516.78 2097.84 516.78 2088.48 516.78 2079.11 516.78 2079.11 507.39 2069.75 507.39 2069.75 498 2060.38 498 2060.38 488.61 2051.01 488.61 2041.65 488.61 2041.65 479.22 2032.28 479.22 2022.92 479.22 2013.55 479.22 2013.55 488.61 2004.19 488.61 2004.19 498 1994.82 498 1994.82 507.39 1985.45 507.39 1985.45 516.78 1978.2 516.78 1976.09 516.78 1976.09 507.39 1976.09 498 1966.72 498 1966.72 488.61 1957.36 488.61 1947.99 488.61 1938.63 488.61 1938.63 498 1931.37 498 1929.26 498 1922.01 498 1912.64 498 1912.64 488.61 1903.28 488.61 1893.91 488.61 1884.54 488.61 1884.54 498 1875.18 498 1875.18 507.39 1865.81 507.39 1865.81 516.78 1856.45 516.78 1856.45 526.17 1847.08 526.17 1847.08 516.78 1847.08 507.39 1837.71 507.39 1837.71 498 1828.35 498 1818.98 498 1809.62 498 1809.62 507.39 1800.25 507.39 1800.25 516.78 1790.89 516.78 1790.89 526.17 1781.52 526.17 1781.52 535.57 1781.52 544.96 1781.52 554.35 1790.89 554.35 1790.89 563.74 1800.25 563.74 1800.25 573.13 1809.62 573.13 1818.98 573.13 1828.35 573.13 1837.71 573.13 1847.08 573.13 1856.45 573.13 1865.81 573.13 1875.18 573.13 1875.18 582.52 1884.54 582.52 1893.91 582.52 1903.28 582.52 1912.64 582.52 1922.01 582.52 1931.37 582.52 1940.74 582.52 1940.74 573.13 1950.11 573.13 1959.47 573.13 1968.84 573.13 1978.2 573.13 1978.2 563.74 1985.45 563.74 1987.57 563.74 1987.57 573.13 1996.93 573.13 2004.19 573.13 2006.3 573.13 2013.55 573.13 2015.67 573.13 2022.92 573.13 2025.03 573.13 2025.03 582.52 2034.4 582.52 2043.76 582.52 2053.13 582.52 2062.5 582.52 2071.86 582.52 2071.86 573.13 2081.23 573.13 2090.59 573.13 2099.96 573.13 2109.32 573.13 2118.69 573.13 2128.06 573.13 2128.06 563.74 2135.31 563.74 2137.42 563.74 2144.67 563.74 2154.04 563.74 2154.04 573.13 2163.41 573.13 2172.77 573.13 2182.14 573.13 2191.5 573.13 2200.87 573.13 2200.87 563.74 2210.24 563.74 2219.6 563.74 2228.97 563.74 2238.33 563.74 2247.7 563.74 2257.06 563.74 2257.06 554.35 2266.43 554.35 2266.43 544.96 2275.8 544.96 2275.8 535.57 2275.8 526.17 2266.43 526.17"/><polygon class="cls-4" points="1875.18 469.83 1865.81 469.83 1856.45 469.83 1847.08 469.83 1847.08 479.22 1847.08 488.61 1837.71 488.61 1837.71 498 1837.71 507.39 1847.08 507.39 1847.08 516.78 1847.08 526.17 1856.45 526.17 1856.45 516.78 1865.81 516.78 1865.81 507.39 1875.18 507.39 1875.18 498 1884.54 498 1884.54 488.61 1884.54 479.22 1875.18 479.22 1875.18 469.83"/><polygon class="cls-4" points="2275.8 507.39 2275.8 498 2266.43 498 2266.43 488.61 2257.06 488.61 2257.06 479.22 2247.7 479.22 2247.7 469.83 2238.33 469.83 2238.33 460.44 2228.97 460.44 2219.6 460.44 2210.24 460.44 2200.87 460.44 2191.5 460.44 2191.5 469.83 2182.14 469.83 2182.14 479.22 2172.77 479.22 2163.41 479.22 2163.41 469.83 2154.04 469.83 2154.04 460.44 2144.67 460.44 2144.67 451.04 2135.31 451.04 2135.31 441.65 2125.94 441.65 2125.94 432.26 2116.58 432.26 2116.58 422.87 2107.21 422.87 2097.84 422.87 2088.48 422.87 2079.11 422.87 2079.11 432.26 2069.75 432.26 2060.38 432.26 2060.38 441.65 2051.01 441.65 2041.65 441.65 2041.65 451.04 2041.65 460.44 2041.65 469.83 2041.65 479.22 2041.65 488.61 2034.4 488.61 2034.4 479.22 2025.03 479.22 2025.03 469.83 2015.67 469.83 2015.67 460.44 2006.3 460.44 2006.3 451.04 1996.93 451.04 1996.93 441.65 1987.57 441.65 1987.57 432.26 1978.2 432.26 1968.84 432.26 1959.47 432.26 1950.11 432.26 1950.11 441.65 1940.74 441.65 1931.37 441.65 1931.37 451.04 1922.01 451.04 1912.64 451.04 1912.64 460.44 1912.64 469.83 1912.64 479.22 1912.64 488.61 1912.64 498 1922.01 498 1931.37 498 1931.37 507.39 1940.74 507.39 1940.74 516.78 1950.11 516.78 1950.11 526.17 1959.47 526.17 1968.84 526.17 1978.2 526.17 1978.2 516.78 1985.45 516.78 1987.57 516.78 1996.93 516.78 1996.93 507.39 2006.3 507.39 2015.67 507.39 2025.03 507.39 2034.4 507.39 2034.4 516.78 2043.76 516.78 2043.76 526.17 2043.76 535.57 2053.13 535.57 2053.13 526.17 2062.5 526.17 2071.86 526.17 2081.23 526.17 2090.59 526.17 2090.59 535.57 2099.96 535.57 2109.32 535.57 2109.32 544.96 2118.69 544.96 2128.06 544.96 2137.42 544.96 2137.42 535.57 2146.79 535.57 2146.79 526.17 2156.15 526.17 2156.15 516.78 2146.79 516.78 2146.79 507.39 2137.42 507.39 2137.42 498 2144.67 498 2154.04 498 2163.41 498 2163.41 507.39 2172.77 507.39 2172.77 516.78 2172.77 526.17 2182.14 526.17 2182.14 516.78 2191.5 516.78 2200.87 516.78 2210.24 516.78 2219.6 516.78 2219.6 526.17 2228.97 526.17 2238.33 526.17 2238.33 535.57 2247.7 535.57 2257.06 535.57 2266.43 535.57 2266.43 526.17 2275.8 526.17 2275.8 516.78 2285.16 516.78 2285.16 507.39 2275.8 507.39"/></g></g><g id="nuage5"><g class="cls-2"><rect class="cls-3" x="1863.28" y="279.65" width="9.37" height="9.39"/><rect class="cls-3" x="1736.84" y="307.83" width="9.37" height="9.39"/><rect class="cls-3" x="1882.02" y="265.57" width="9.37" height="9.39"/><path class="cls-3" d="M2097.42,199.83H2060V181h-9.37v-9.39h-18.73v-9.39h-18.73v-9.39H1966.3v9.39h-18.73v9.39h-9.37v-9.39h-9.36v-9.39h-28.1v-9.39h-37.46v9.39h-18.74v9.39h-26v-9.39H1799.8v-9.39H1793v-4.7h-56.19V120h-9.37v-9.39h-18.73v-9.39H1690V91.83h-46.83v9.39h-18.73v9.39h-9.37v-9.39h-9.36V91.83h-28.1v-9.4h-37.47v9.4h-18.73v9.39h-9.36V120h-9.37v28.17h-65.56v9.4h-9.37V167h-9.36v18.78H1409v9.39h-74.92v9.39h-9.37v9.39h-14v-4.69h9.36v-9.39h-32.78v-4.7h-9.37v-9.39h-14V181h-9.37v-9.39h-18.73v-9.39H1217v-9.39h-46.83v9.39h-18.73v9.39h-9.37v-9.39h-9.36v-9.39h-28.1v-9.39h-37.46v9.39h-18.74v9.39h-9.36V181h-9.37v28.18H964.16v9.39H954.8V228h-9.37v18.78h-9.37v9.39H861.14v9.4h-9.37V275H833v-9.39H814.31v-9.4h-9.37v-9.39h-28.1v9.39h-9.36v9.4h-9.37v-9.4H711.28v9.4H692.55V275h-9.36v9.39h-9.37v28.17h-9.37v9.39h-9.36v-9.39h-9.37v-9.39h-9.36v-9.39h-56.2v9.39H570.8v9.39H533.33v9.39H524V340.7H514.6v9.39H467.77v9.39h-9.36V397h9.36v-9.39H486.5v-9.39h18.73v-9.39H524v-9.39h9.36v-9.39h9.37V340.7h18.73v-9.4h18.73v-9.39h37.46v9.39h18.74v9.4h9.36v9.39h9.37v18.78h18.73v-9.39h18.73v-9.39h9.37V340.7h18.73v-9.4H730v-9.39h28.09v-9.39h28.1v-9.39h18.73v9.39h18.73v9.39h28.1v9.39H870.5v-9.39h9.37v-9.39h9.36v-9.39h9.37v-9.39H908v-9.39h28.09V275h56.2v4.69h-4.69V289H940.74v9.39h-9.37V336h9.37v-9.39h18.73v-9.39H978.2v-9.39h18.73v-9.4h9.37v-4.69H1011v9.39h18.73v9.39h9.37V293.74h9.36V275h9.37V260.87h32.77v9.39h18.73v9.39h9.37V289h9.37v9.39h-18.74v4.7h-51.5v4.7h-14.06v9.39H1025v4.69h-14v9.39h-9.37V336h-9.36v9.39h-9.37v14.09H978.2v-4.7h-9.36v-9.39h-56.2v9.39h-9.36v9.39H865.81v9.4h-9.36v18.78h-9.37v9.39H800.25v9.39h-9.36V448.7h9.36v-9.4H819v-9.39h18.74v-9.39h18.73v-9.39h9.36v-9.39h9.37v-9.39h18.73V383h18.73v-9.39H926.7V383h-9.37v37.56h9.37v-9.39h18.73v-4.7h0v-4.69h18.73V397h0v-4.69h14v9.39h9.37v18.78h18.73v-9.39H1025v14.09h9.37v-9.39h18.73v-9.4h18.73V397h18.73v-9.39H1100v-9.39h9.36v-4.69h4.7v18.78h18.73V383h18.73v-4.7h0v-4.69h32.77V383H1203v-9.39h9.37v4.69h9.37V397h18.73v-9.39h14V397h9.36v-9.39h18.73v-9.39h18.73v-9.39h18.74v-9.39h9.36v-4.7h0v-4.69h9.36v-4.7h4.68v9.39h18.73v9.39h9.37V345.39h9.36V340.7h9.37v9.39h28.1v9.39h18.73v-9.39h14v18.78h18.73v-9.39h18.73v-9.39H1498V340.7h18.73v-9.4h9.37v-4.69h14V336h28.1v-9.39h9.37v-4.7h0v9.39h18.73v9.4h9.37V321.91h9.36v-9.39h4.68v9.39h28.1v9.39h18.73v-9.39H1676v-9.39h9.36v-4.69h9.38v-9.4h9.36v-4.69h9.37v-9.39h23.41v9.39h18.73v9.39h18.73v9.39h28.1v-9.39h23.41v9.39h9.37V293.74h9.36V275h9.37V256.17h18.73v-9.39h74.93v9.39h18.73v9.4H1985V275h18.73v9.39h28.1V275h9.37V256.17h9.36v-9.39H2060v-9.39h9.36V228h18.74v-9.39h18.73v-9.39h9.36v-9.39h-18.73Zm-838.24,51.65v-4.7h4.69v-4.69h14v9.39h16.14v4.69H1254.5v9.4h-9.36v4.69h0V256.17h9.36v-4.69Zm-140.49,0v-4.7h28.1v4.7h-9.37v9.39h-9.36v-9.39Zm-46.83,126.78h-2.59v-4.69h12v4.69Z"/><polygon class="cls-4" points="2237.91 368.87 2237.91 359.48 2237.91 350.09 2237.91 340.7 2228.54 340.7 2219.18 340.7 2219.18 331.3 2209.81 331.3 2209.81 321.91 2209.81 312.52 2219.18 312.52 2219.18 303.13 2219.18 293.74 2219.18 284.35 2209.81 284.35 2209.81 274.96 2209.81 265.56 2200.45 265.56 2200.45 256.17 2191.08 256.17 2181.72 256.17 2172.35 256.17 2162.98 256.17 2162.98 246.78 2153.62 246.78 2153.62 237.39 2153.62 228 2144.25 228 2144.25 218.61 2134.89 218.61 2134.89 209.22 2125.52 209.22 2116.15 209.22 2106.79 209.22 2106.79 218.61 2097.42 218.61 2088.06 218.61 2088.06 228 2078.69 228 2069.32 228 2069.32 237.39 2059.96 237.39 2059.96 246.78 2050.59 246.78 2050.59 256.17 2041.23 256.17 2041.23 265.56 2041.23 274.96 2031.86 274.96 2031.86 284.35 2022.49 284.35 2013.13 284.35 2003.76 284.35 2003.76 274.96 1994.4 274.96 1985.03 274.96 1985.03 265.56 1975.67 265.56 1966.3 265.56 1966.3 256.17 1956.93 256.17 1947.57 256.17 1947.57 246.78 1938.2 246.78 1928.84 246.78 1919.47 246.78 1910.11 246.78 1900.74 246.78 1891.37 246.78 1882.01 246.78 1872.64 246.78 1872.64 256.17 1867.96 256.17 1863.28 256.17 1858.59 256.17 1853.91 256.17 1849.23 256.17 1839.86 256.17 1839.86 246.78 1830.5 246.78 1830.5 237.39 1830.5 228 1821.13 228 1821.13 218.61 1811.76 218.61 1811.76 209.22 1802.4 209.22 1793.03 209.22 1783.67 209.22 1783.67 218.61 1774.3 218.61 1764.93 218.61 1764.93 228 1755.57 228 1746.2 228 1746.2 237.39 1736.84 237.39 1736.84 246.78 1727.47 246.78 1727.47 256.17 1718.11 256.17 1718.11 265.56 1718.11 274.96 1708.74 274.96 1708.74 284.35 1704.06 284.35 1699.37 284.35 1690.01 284.35 1680.64 284.35 1680.64 274.96 1671.28 274.96 1661.91 274.96 1661.91 265.56 1652.54 265.56 1643.18 265.56 1643.18 256.17 1633.81 256.17 1624.45 256.17 1624.45 246.78 1615.08 246.78 1605.71 246.78 1596.35 246.78 1586.98 246.78 1577.62 246.78 1568.25 246.78 1558.89 246.78 1549.52 246.78 1549.52 256.17 1540.15 256.17 1530.79 256.17 1530.79 265.56 1530.79 274.96 1521.42 274.96 1521.42 284.35 1521.42 293.74 1512.06 293.74 1512.06 303.13 1512.06 312.52 1502.69 312.52 1502.69 303.13 1493.33 303.13 1483.96 303.13 1483.96 293.74 1474.59 293.74 1474.59 284.35 1465.23 284.35 1465.23 274.96 1455.86 274.96 1446.5 274.96 1437.13 274.96 1427.76 274.96 1418.4 274.96 1413.72 274.96 1413.72 265.56 1404.36 265.56 1404.36 256.17 1394.99 256.17 1385.63 256.17 1376.26 256.17 1366.89 256.17 1366.89 246.78 1357.53 246.78 1357.53 237.39 1357.53 228 1348.16 228 1348.16 218.61 1338.8 218.61 1338.8 209.22 1329.43 209.22 1320.06 209.22 1310.7 209.22 1310.7 218.61 1301.33 218.61 1291.97 218.61 1291.97 228 1282.6 228 1273.23 228 1273.23 237.39 1263.87 237.39 1263.87 246.78 1254.5 246.78 1254.5 256.17 1245.14 256.17 1245.14 265.56 1245.14 274.96 1235.77 274.96 1235.77 284.35 1226.4 284.35 1217.04 284.35 1207.67 284.35 1207.67 274.96 1198.31 274.96 1188.94 274.96 1188.94 265.56 1179.58 265.56 1170.21 265.56 1170.21 256.17 1160.84 256.17 1151.48 256.17 1151.48 246.78 1142.11 246.78 1132.75 246.78 1123.38 246.78 1114.02 246.78 1104.65 246.78 1095.28 246.78 1085.92 246.78 1076.55 246.78 1076.55 256.17 1067.19 256.17 1057.82 256.17 1057.82 265.56 1057.82 274.96 1048.45 274.96 1048.45 284.35 1048.45 293.74 1039.09 293.74 1039.09 303.13 1039.09 312.52 1029.72 312.52 1029.72 303.13 1020.36 303.13 1010.99 303.13 1010.99 293.74 1001.63 293.74 1001.63 284.35 992.26 284.35 992.26 274.96 982.89 274.96 973.53 274.96 964.16 274.96 954.8 274.96 945.43 274.96 936.06 274.96 936.06 284.35 926.7 284.35 917.33 284.35 907.97 284.35 907.97 293.74 898.6 293.74 898.6 303.13 889.24 303.13 889.24 312.52 879.87 312.52 879.87 321.91 870.5 321.91 870.5 331.3 861.14 331.3 851.77 331.3 851.77 321.91 842.4 321.91 833.04 321.91 823.67 321.91 823.67 312.52 814.31 312.52 804.94 312.52 804.94 303.13 795.58 303.13 786.21 303.13 786.21 312.52 776.84 312.52 767.48 312.52 758.11 312.52 758.11 321.91 748.75 321.91 739.38 321.91 730.01 321.91 730.01 331.3 720.65 331.3 720.65 340.7 711.28 340.7 701.92 340.7 701.92 350.09 692.55 350.09 692.55 359.48 683.19 359.48 673.82 359.48 673.82 368.87 683.19 368.87 692.55 368.87 692.55 378.26 701.92 378.26 711.28 378.26 720.65 378.26 720.65 387.65 730.01 387.65 730.01 397.04 739.38 397.04 739.38 406.44 748.75 406.44 758.11 406.44 767.48 406.44 767.48 415.83 776.84 415.83 786.21 415.83 795.58 415.83 804.94 415.83 814.31 415.83 823.67 415.83 823.67 406.44 833.04 406.44 842.4 406.44 842.4 397.04 851.77 397.04 861.14 397.04 870.5 397.04 879.87 397.04 879.87 406.44 889.24 406.44 898.6 406.44 898.6 415.83 907.97 415.83 917.33 415.83 926.7 415.83 936.06 415.83 945.43 415.83 954.8 415.83 964.16 415.83 973.53 415.83 973.53 425.22 982.89 425.22 982.89 415.83 987.57 415.83 992.26 415.83 996.93 415.83 1006.3 415.83 1015.67 415.83 1025.03 415.83 1025.03 406.44 1034.4 406.44 1043.76 406.44 1053.13 406.44 1062.5 406.44 1071.86 406.44 1071.86 415.83 1081.23 415.83 1090.59 415.83 1099.96 415.83 1099.96 406.44 1104.65 406.44 1104.65 415.83 1114.02 415.83 1114.02 425.22 1123.38 425.22 1123.38 415.83 1132.75 415.83 1142.11 415.83 1151.48 415.83 1151.48 406.44 1160.84 406.44 1160.84 397.04 1170.21 397.04 1179.58 397.04 1179.58 387.65 1188.94 387.65 1193.62 387.65 1198.31 387.65 1202.98 387.65 1202.98 397.04 1212.35 397.04 1212.35 406.44 1221.71 406.44 1231.08 406.44 1240.45 406.44 1240.45 415.83 1249.81 415.83 1254.5 415.83 1259.18 415.83 1263.87 415.83 1268.54 415.83 1273.23 415.83 1277.91 415.83 1282.6 415.83 1287.28 415.83 1296.64 415.83 1296.64 406.44 1301.33 406.44 1301.33 415.83 1310.69 415.83 1320.06 415.83 1329.42 415.83 1338.79 415.83 1348.15 415.83 1348.15 406.44 1348.16 406.44 1352.84 406.44 1357.52 406.44 1357.53 406.44 1362.2 406.44 1366.89 406.44 1366.89 406.44 1371.57 406.44 1371.57 415.83 1380.93 415.83 1390.3 415.83 1394.98 415.83 1399.67 415.83 1404.35 415.83 1409.03 415.83 1413.71 415.83 1418.4 415.83 1423.08 415.83 1427.76 415.83 1437.13 415.83 1446.5 415.83 1446.5 425.22 1455.86 425.22 1455.86 415.83 1465.23 415.83 1465.23 406.44 1474.59 406.44 1474.59 397.04 1474.59 387.65 1483.96 387.65 1483.96 378.26 1488.64 378.26 1493.33 378.26 1498.01 378.26 1502.69 378.26 1507.37 378.26 1512.06 378.26 1516.74 378.26 1516.74 387.65 1526.11 387.65 1526.11 397.04 1535.47 397.04 1535.47 406.44 1544.84 406.44 1554.2 406.44 1563.57 406.44 1563.57 415.83 1572.93 415.83 1577.62 415.83 1582.3 415.83 1586.98 415.83 1586.98 425.22 1596.35 425.22 1596.35 415.83 1601.03 415.83 1605.71 415.83 1610.4 415.83 1615.08 415.83 1619.76 415.83 1624.45 415.83 1624.45 406.44 1629.13 406.44 1633.81 406.44 1638.49 406.44 1638.49 397.04 1643.18 397.04 1647.86 397.04 1652.54 397.04 1657.23 397.04 1666.59 397.04 1675.96 397.04 1675.96 406.44 1685.33 406.44 1694.69 406.44 1694.69 415.83 1704.06 415.83 1713.42 415.83 1722.79 415.83 1727.47 415.83 1732.15 415.83 1736.84 415.83 1741.52 415.83 1746.2 415.83 1750.89 415.83 1755.57 415.83 1760.25 415.83 1769.62 415.83 1769.62 425.22 1778.98 425.22 1778.98 415.83 1788.35 415.83 1788.35 406.44 1797.71 406.44 1797.71 397.04 1802.4 397.04 1811.76 397.04 1811.76 406.44 1821.13 406.44 1830.5 406.44 1839.86 406.44 1839.86 397.04 1849.23 397.04 1849.23 387.65 1858.59 387.65 1858.59 378.26 1863.28 378.26 1863.28 387.65 1872.64 387.65 1882.01 387.65 1882.01 397.04 1891.37 397.04 1891.37 406.44 1900.74 406.44 1900.74 415.83 1910.11 415.83 1910.11 425.22 1919.47 425.22 1919.47 415.83 1928.84 415.83 1938.2 415.83 1947.57 415.83 1947.57 406.44 1956.93 406.44 1956.93 397.04 1966.3 397.04 1975.67 397.04 1975.67 387.65 1985.03 387.65 1994.4 387.65 2003.76 387.65 2013.13 387.65 2022.49 387.65 2031.86 387.65 2031.86 397.04 2041.23 397.04 2041.23 406.44 2050.59 406.44 2050.59 415.83 2059.96 415.83 2069.32 415.83 2078.69 415.83 2078.69 406.44 2088.06 406.44 2088.06 397.04 2097.42 397.04 2106.79 397.04 2116.15 397.04 2125.52 397.04 2134.89 397.04 2134.89 406.44 2144.25 406.44 2153.62 406.44 2162.98 406.44 2162.98 397.04 2172.35 397.04 2172.35 387.65 2181.72 387.65 2181.72 378.26 2191.08 378.26 2200.45 378.26 2209.81 378.26 2219.18 378.26 2219.18 387.65 2228.54 387.65 2237.91 387.65 2247.28 387.65 2247.28 378.26 2247.28 368.87 2237.91 368.87"/><polygon class="cls-4" points="655.09 368.87 655.09 359.48 655.09 350.09 645.72 350.09 645.72 340.7 636.36 340.7 636.36 331.3 626.99 331.3 617.63 331.3 617.63 321.91 608.26 321.91 598.89 321.91 589.53 321.91 580.16 321.91 580.16 331.3 570.8 331.3 561.43 331.3 561.43 340.7 552.06 340.7 542.7 340.7 542.7 350.09 533.33 350.09 533.33 359.48 523.97 359.48 523.97 368.87 514.6 368.87 505.24 368.87 505.24 378.26 495.87 378.26 486.5 378.26 486.5 387.65 477.14 387.65 467.77 387.65 467.77 397.04 467.77 406.44 477.14 406.44 486.5 406.44 495.87 406.44 505.24 406.44 505.24 415.83 514.6 415.83 523.97 415.83 533.33 415.83 542.7 415.83 552.06 415.83 552.06 406.44 561.43 406.44 570.8 406.44 580.16 406.44 589.53 406.44 598.89 406.44 598.89 415.83 608.26 415.83 617.63 415.83 626.99 415.83 626.99 406.44 636.36 406.44 636.36 397.04 645.72 397.04 645.72 387.65 655.09 387.65 655.09 378.26 664.45 378.26 673.82 378.26 673.82 368.87 664.45 368.87 655.09 368.87"/><polygon class="cls-5" points="2256.64 406.44 2256.64 397.04 2247.28 397.04 2247.28 387.65 2237.91 387.65 2228.54 387.65 2219.18 387.65 2219.18 378.26 2209.81 378.26 2200.45 378.26 2191.08 378.26 2181.72 378.26 2181.72 387.65 2172.35 387.65 2172.35 397.04 2162.98 397.04 2162.98 406.44 2153.62 406.44 2144.25 406.44 2134.89 406.44 2134.89 397.04 2125.52 397.04 2116.15 397.04 2106.79 397.04 2097.42 397.04 2088.06 397.04 2088.06 406.44 2078.69 406.44 2078.69 415.83 2069.32 415.83 2059.96 415.83 2050.59 415.83 2050.59 406.44 2041.23 406.44 2041.23 397.04 2031.86 397.04 2031.86 387.65 2022.49 387.65 2013.13 387.65 2003.76 387.65 1994.4 387.65 1985.03 387.65 1975.67 387.65 1975.67 397.04 1966.3 397.04 1956.93 397.04 1956.93 406.44 1947.57 406.44 1947.57 415.83 1942.89 415.83 1942.89 406.44 1933.52 406.44 1933.52 397.04 1924.15 397.04 1924.15 387.65 1914.79 387.65 1905.42 387.65 1896.06 387.65 1896.06 378.26 1886.69 378.26 1877.33 378.26 1867.96 378.26 1863.28 378.26 1858.59 378.26 1853.91 378.26 1844.54 378.26 1835.18 378.26 1825.81 378.26 1816.45 378.26 1807.08 378.26 1807.08 387.65 1797.71 387.65 1797.71 397.04 1793.03 397.04 1783.67 397.04 1774.3 397.04 1764.93 397.04 1764.93 406.44 1755.57 406.44 1755.57 415.83 1750.89 415.83 1746.2 415.83 1741.52 415.83 1736.84 415.83 1732.15 415.83 1727.47 415.83 1727.47 406.44 1718.11 406.44 1718.11 397.04 1708.74 397.04 1708.74 387.65 1699.37 387.65 1690.01 387.65 1680.64 387.65 1671.28 387.65 1661.91 387.65 1652.54 387.65 1652.54 397.04 1647.86 397.04 1643.18 397.04 1638.49 397.04 1633.81 397.04 1633.81 406.44 1629.13 406.44 1624.45 406.44 1619.76 406.44 1619.76 415.83 1615.08 415.83 1610.4 415.83 1605.71 415.83 1601.03 415.83 1596.35 415.83 1591.67 415.83 1586.98 415.83 1582.3 415.83 1577.62 415.83 1577.62 406.44 1568.25 406.44 1568.25 397.04 1558.89 397.04 1558.89 387.65 1549.52 387.65 1540.15 387.65 1540.15 378.26 1530.79 378.26 1521.42 378.26 1516.74 378.26 1512.06 378.26 1507.37 378.26 1502.69 378.26 1498.01 378.26 1493.33 378.26 1488.64 378.26 1488.64 368.87 1479.28 368.87 1469.91 368.87 1469.91 378.26 1460.54 378.26 1451.18 378.26 1451.18 387.65 1441.82 387.65 1441.81 387.65 1432.45 387.65 1423.09 387.65 1423.09 378.26 1413.72 378.26 1404.36 378.26 1394.99 378.26 1385.63 378.26 1385.63 387.65 1376.26 387.65 1376.26 397.04 1366.89 397.04 1366.89 406.44 1366.89 406.44 1362.2 406.44 1357.53 406.44 1357.52 406.44 1352.84 406.44 1352.84 397.04 1343.47 397.04 1338.8 397.04 1334.11 397.04 1329.43 397.04 1324.74 397.04 1320.06 397.04 1315.37 397.04 1310.7 397.04 1301.33 397.04 1291.97 397.04 1291.97 406.44 1291.96 406.44 1282.6 406.44 1282.59 406.44 1273.23 406.44 1263.86 406.44 1263.86 415.83 1259.18 415.83 1254.5 415.83 1254.5 406.44 1245.14 406.44 1245.14 397.04 1235.77 397.04 1235.77 387.65 1226.4 387.65 1217.04 387.65 1207.67 387.65 1202.98 387.65 1198.31 387.65 1193.62 387.65 1193.62 378.26 1184.25 378.26 1174.89 378.26 1165.52 378.26 1165.52 368.87 1156.15 368.87 1146.79 368.87 1146.79 378.26 1137.42 378.26 1128.06 378.26 1128.06 387.65 1118.69 387.65 1118.69 397.04 1109.33 397.04 1109.33 406.44 1104.65 406.44 1099.96 406.44 1095.28 406.44 1095.28 397.04 1085.92 397.04 1085.92 387.65 1076.55 387.65 1067.19 387.65 1067.19 378.26 1057.82 378.26 1048.45 378.26 1039.09 378.26 1029.72 378.26 1020.36 378.26 1010.99 378.26 1010.99 387.65 1001.63 387.65 1001.63 397.04 1001.63 406.44 992.26 406.44 992.26 415.83 987.57 415.83 982.89 415.83 978.2 415.83 978.2 406.44 968.84 406.44 959.47 406.44 950.11 406.44 940.74 406.44 940.74 415.83 936.06 415.83 931.37 415.83 926.7 415.83 917.33 415.83 907.97 415.83 898.6 415.83 898.6 406.44 889.24 406.44 879.87 406.44 879.87 397.04 870.5 397.04 861.14 397.04 851.77 397.04 842.4 397.04 842.4 406.44 833.04 406.44 823.67 406.44 823.67 415.83 814.31 415.83 804.94 415.83 795.58 415.83 786.21 415.83 776.84 415.83 767.48 415.83 767.48 406.44 758.11 406.44 748.75 406.44 739.38 406.44 739.38 397.04 730.01 397.04 730.01 387.65 720.65 387.65 720.65 378.26 711.28 378.26 701.92 378.26 692.55 378.26 692.55 368.87 683.19 368.87 673.82 368.87 673.82 378.26 664.45 378.26 655.09 378.26 655.09 387.65 645.72 387.65 645.72 397.04 636.36 397.04 636.36 406.44 626.99 406.44 626.99 415.83 617.63 415.83 608.26 415.83 598.89 415.83 598.89 406.44 589.53 406.44 580.16 406.44 570.8 406.44 561.43 406.44 552.06 406.44 552.06 415.83 542.7 415.83 533.33 415.83 523.97 415.83 514.6 415.83 505.24 415.83 505.24 406.44 495.87 406.44 486.5 406.44 477.14 406.44 467.77 406.44 467.77 415.83 458.4 415.83 458.4 425.22 467.77 425.22 467.77 434.61 477.14 434.61 477.14 444 486.5 444 495.87 444 505.24 444 514.6 444 523.97 444 533.33 444 542.7 444 552.06 444 552.06 434.61 561.43 434.61 570.8 434.61 580.16 434.61 589.53 434.61 598.89 434.61 608.26 434.61 617.63 434.61 626.99 434.61 626.99 444 636.36 444 645.72 444 645.72 453.39 655.09 453.39 664.45 453.39 664.45 462.78 673.82 462.78 673.82 472.17 683.19 472.17 692.55 472.17 701.92 472.17 711.28 472.17 720.65 472.17 730.01 472.17 739.38 472.17 748.75 472.17 748.75 462.78 758.11 462.78 767.48 462.78 776.84 462.78 786.21 462.78 795.58 462.78 804.94 462.78 804.94 453.39 814.31 453.39 823.67 453.39 833.04 453.39 842.4 453.39 851.77 453.39 861.14 453.39 870.5 453.39 879.87 453.39 889.24 453.39 889.24 462.78 898.6 462.78 907.97 462.78 917.33 462.78 926.7 462.78 936.06 462.78 936.06 472.17 945.43 472.17 954.8 472.17 964.16 472.17 973.53 472.17 982.89 472.17 992.26 472.17 1001.63 472.17 1010.99 472.17 1020.36 472.17 1029.72 472.17 1029.72 462.78 1039.09 462.78 1048.45 462.78 1057.82 462.78 1067.19 462.78 1076.55 462.78 1085.92 462.78 1095.28 462.78 1104.65 462.78 1114.02 462.78 1123.38 462.78 1132.75 462.78 1137.42 462.78 1142.11 462.78 1146.79 462.78 1146.79 472.17 1156.15 472.17 1165.52 472.17 1174.89 472.17 1184.25 472.17 1193.62 472.17 1202.98 472.17 1212.35 472.17 1221.71 472.17 1221.71 462.78 1231.08 462.78 1240.45 462.78 1249.81 462.78 1259.18 462.78 1263.87 462.78 1268.54 462.78 1273.23 462.78 1277.91 462.78 1282.6 462.78 1291.97 462.78 1291.97 472.17 1301.33 472.17 1310.7 472.17 1320.06 472.17 1329.43 472.17 1338.8 472.17 1348.16 472.17 1357.53 472.17 1366.89 472.17 1376.26 472.17 1385.63 472.17 1385.63 462.78 1390.3 462.78 1394.99 462.78 1399.67 462.78 1404.36 462.78 1409.03 462.78 1409.03 472.17 1418.4 472.17 1427.76 472.17 1437.13 472.17 1446.5 472.17 1455.86 472.17 1465.23 472.17 1469.91 472.17 1474.59 472.17 1479.28 472.17 1483.96 472.17 1488.64 472.17 1493.33 472.17 1498.01 472.17 1502.69 472.17 1507.37 472.17 1516.74 472.17 1526.11 472.17 1535.47 472.17 1544.84 472.17 1544.84 462.78 1549.52 462.78 1554.2 462.78 1558.89 462.78 1563.57 462.78 1568.25 462.78 1572.93 462.78 1577.62 462.78 1582.3 462.78 1586.98 462.78 1591.67 462.78 1596.35 462.78 1601.03 462.78 1605.71 462.78 1615.08 462.78 1615.08 453.39 1619.76 453.39 1624.45 453.39 1629.13 453.39 1633.81 453.39 1638.49 453.39 1643.18 453.39 1647.86 453.39 1652.54 453.39 1657.23 453.39 1661.91 453.39 1666.59 453.39 1671.28 453.39 1675.96 453.39 1680.64 453.39 1685.33 453.39 1685.33 462.78 1694.69 462.78 1704.06 462.78 1713.42 462.78 1722.79 462.78 1732.15 462.78 1732.15 472.17 1741.52 472.17 1750.89 472.17 1760.25 472.17 1764.93 472.17 1769.62 472.17 1774.3 472.17 1778.98 472.17 1783.67 472.17 1788.35 472.17 1793.03 472.17 1797.71 472.17 1802.4 472.17 1807.08 472.17 1811.76 472.17 1816.45 472.17 1821.13 472.17 1825.81 472.17 1830.5 472.17 1839.86 472.17 1849.23 472.17 1858.59 472.17 1858.59 462.78 1863.28 462.78 1867.96 462.78 1872.64 462.78 1877.33 462.78 1882.01 462.78 1886.69 462.78 1891.37 462.78 1900.74 462.78 1910.11 462.78 1919.47 462.78 1928.84 462.78 1938.2 462.78 1938.2 453.39 1947.57 453.39 1956.93 453.39 1966.3 453.39 1975.67 453.39 1985.03 453.39 1994.4 453.39 2003.76 453.39 2013.13 453.39 2022.49 453.39 2031.86 453.39 2041.23 453.39 2050.59 453.39 2059.96 453.39 2059.96 462.78 2069.32 462.78 2078.69 462.78 2088.06 462.78 2088.06 472.17 2097.42 472.17 2106.79 472.17 2116.15 472.17 2125.52 472.17 2134.89 472.17 2144.25 472.17 2153.62 472.17 2162.98 472.17 2172.35 472.17 2181.72 472.17 2181.72 462.78 2191.08 462.78 2200.45 462.78 2209.81 462.78 2209.81 453.39 2219.18 453.39 2228.54 453.39 2237.91 453.39 2237.91 444 2247.28 444 2256.64 444 2266.01 444 2266.01 434.61 2266.01 425.22 2266.01 415.83 2266.01 406.44 2256.64 406.44"/></g></g></svg>