<svg xmlns="http://www.w3.org/2000/svg" viewBox="0 0 1920 780"><defs><style>.cls-1{fill:#d8d8d8;}.cls-2{opacity:0.86;}.cls-3{fill:#939393;}.cls-4{fill:#898989;}.cls-5{fill:#605f5f;}.cls-6{fill:#a5a5a5;}</style></defs><title>smog_1</title><g id="fond"><rect class="cls-1" x="2.78" width="1917.22" height="780"/></g><g id="nuage1"><g class="cls-2"><polygon class="cls-3" points="1538.59 80.09 1529.23 80.09 1519.86 80.09 1510.5 80.09 1501.13 80.09 1501.13 70.7 1501.13 61.3 1491.76 61.3 1491.76 51.91 1482.4 51.91 1473.03 51.91 1473.03 42.52 1463.67 42.52 1454.3 42.52 1454.3 33.13 1444.93 33.13 1435.57 33.13 1426.2 33.13 1416.84 33.13 1407.47 33.13 1407.47 42.52 1398.11 42.52 1388.74 42.52 1388.74 51.91 1379.37 51.91 1379.37 42.52 1370.01 42.52 1370.01 33.13 1360.64 33.13 1351.28 33.13 1341.91 33.13 1341.91 23.74 1332.54 23.74 1323.18 23.74 1313.81 23.74 1304.45 23.74 1304.45 33.13 1295.08 33.13 1285.71 33.13 1285.71 42.52 1276.35 42.52 1276.35 51.91 1276.35 61.3 1266.98 61.3 1266.98 70.7 1266.98 80.09 1266.98 89.48 1257.62 89.48 1248.25 89.48 1238.89 89.48 1229.52 89.48 1220.15 89.48 1210.79 89.48 1201.42 89.48 1201.42 98.87 1192.06 98.87 1192.06 108.26 1182.69 108.26 1182.69 117.65 1182.69 127.04 1173.33 127.04 1173.33 136.44 1163.96 136.44 1154.59 136.44 1145.23 136.44 1135.86 136.44 1126.5 136.44 1117.13 136.44 1107.76 136.44 1098.4 136.44 1098.4 145.83 1089.03 145.83 1089.03 155.22 1079.67 155.22 1070.3 155.22 1070.3 145.83 1060.93 145.83 1051.57 145.83 1051.57 136.44 1042.2 136.44 1042.2 127.04 1032.84 127.04 1023.47 127.04 1014.11 127.04 1014.11 136.44 1004.74 136.44 1004.74 145.83 995.37 145.83 995.37 136.44 986.01 136.44 976.64 136.44 967.28 136.44 957.91 136.44 948.54 136.44 948.54 145.83 939.18 145.83 929.81 145.83 929.81 155.22 920.45 155.22 920.45 164.61 911.08 164.61 911.08 174 911.08 183.39 911.08 192.78 901.72 192.78 901.72 202.17 892.35 202.17 892.35 192.78 882.98 192.78 882.98 183.39 873.62 183.39 873.62 174 864.25 174 854.89 174 845.52 174 836.15 174 826.79 174 817.42 174 817.42 183.39 808.06 183.39 808.06 192.78 798.69 192.78 789.33 192.78 779.96 192.78 770.59 192.78 770.59 202.17 761.23 202.17 761.23 211.56 761.23 220.96 751.86 220.96 751.86 230.35 742.5 230.35 733.13 230.35 723.76 230.35 714.4 230.35 705.03 230.35 705.03 239.74 695.67 239.74 695.67 249.13 695.67 258.52 695.67 267.91 695.67 277.3 705.03 277.3 705.03 267.91 714.4 267.91 723.76 267.91 723.76 258.52 733.13 258.52 742.5 258.52 742.5 249.13 751.86 249.13 761.23 249.13 761.23 239.74 770.59 239.74 770.59 230.35 779.96 230.35 779.96 220.96 789.33 220.96 798.69 220.96 798.69 211.56 808.06 211.56 817.42 211.56 817.42 202.17 826.79 202.17 836.15 202.17 845.52 202.17 854.89 202.17 854.89 211.56 864.25 211.56 873.62 211.56 873.62 220.96 882.98 220.96 882.98 230.35 892.35 230.35 892.35 239.74 892.35 249.13 901.72 249.13 911.08 249.13 911.08 239.74 920.45 239.74 929.81 239.74 929.81 230.35 939.18 230.35 939.18 220.96 948.54 220.96 957.91 220.96 957.91 211.56 967.28 211.56 967.28 202.17 976.64 202.17 986.01 202.17 995.37 202.17 995.37 192.78 1004.74 192.78 1014.11 192.78 1023.47 192.78 1023.47 183.39 1032.84 183.39 1042.2 183.39 1042.2 192.78 1051.57 192.78 1060.93 192.78 1060.93 202.17 1070.3 202.17 1079.67 202.17 1089.03 202.17 1089.03 211.56 1098.4 211.56 1107.76 211.56 1107.76 202.17 1117.13 202.17 1117.13 192.78 1126.5 192.78 1126.5 183.39 1135.86 183.39 1135.86 174 1145.23 174 1145.23 164.61 1154.59 164.61 1163.96 164.61 1173.33 164.61 1173.33 155.22 1182.69 155.22 1192.06 155.22 1201.42 155.22 1210.79 155.22 1220.15 155.22 1229.52 155.22 1229.52 164.61 1238.89 164.61 1238.89 174 1248.25 174 1248.25 183.39 1257.62 183.39 1266.98 183.39 1266.98 192.78 1276.35 192.78 1276.35 183.39 1276.35 174 1285.71 174 1285.71 164.61 1285.71 155.22 1295.08 155.22 1295.08 145.83 1295.08 136.44 1304.45 136.44 1313.81 136.44 1313.81 127.04 1323.18 127.04 1332.54 127.04 1341.91 127.04 1351.28 127.04 1360.64 127.04 1370.01 127.04 1379.37 127.04 1388.74 127.04 1388.74 136.44 1398.11 136.44 1407.47 136.44 1407.47 145.83 1416.84 145.83 1426.2 145.83 1426.2 155.22 1435.57 155.22 1444.93 155.22 1444.93 164.61 1454.3 164.61 1463.67 164.61 1473.03 164.61 1473.03 155.22 1482.4 155.22 1482.4 145.83 1482.4 136.44 1491.76 136.44 1491.76 127.04 1501.13 127.04 1501.13 117.65 1510.5 117.65 1510.5 108.26 1519.86 108.26 1529.23 108.26 1529.23 98.87 1538.59 98.87 1547.96 98.87 1547.96 89.48 1557.33 89.48 1557.33 80.09 1547.96 80.09 1538.59 80.09"/><rect class="cls-3" x="1641.62" y="136.43" width="9.37" height="9.39"/><polygon class="cls-4" points="892.35 249.13 892.35 239.74 892.35 230.35 882.98 230.35 882.98 220.96 873.62 220.96 873.62 211.56 864.25 211.56 854.89 211.56 854.89 202.17 845.52 202.17 836.15 202.17 826.79 202.17 817.42 202.17 817.42 211.56 808.06 211.56 798.69 211.56 798.69 220.96 789.33 220.96 779.96 220.96 779.96 230.35 770.59 230.35 770.59 239.74 761.23 239.74 761.23 249.13 751.86 249.13 742.5 249.13 742.5 258.52 733.13 258.52 723.76 258.52 723.76 267.91 714.4 267.91 705.03 267.91 705.03 277.3 705.03 286.7 714.4 286.7 723.76 286.7 733.13 286.7 742.5 286.7 742.5 296.09 751.86 296.09 761.23 296.09 770.59 296.09 779.96 296.09 789.33 296.09 789.33 286.7 798.69 286.7 808.06 286.7 817.42 286.7 826.79 286.7 836.15 286.7 836.15 296.09 845.52 296.09 854.89 296.09 864.25 296.09 864.25 286.7 873.62 286.7 873.62 277.3 882.98 277.3 882.98 267.91 892.35 267.91 892.35 258.52 901.72 258.52 911.08 258.52 911.08 249.13 901.72 249.13 892.35 249.13"/><polygon class="cls-4" points="1679.08 249.13 1679.08 239.74 1679.08 230.35 1679.08 220.96 1669.71 220.96 1660.35 220.96 1660.35 211.56 1650.98 211.56 1650.98 202.17 1650.98 192.78 1660.35 192.78 1660.35 183.39 1660.35 174 1660.35 164.61 1650.98 164.61 1650.98 155.22 1650.98 145.83 1641.62 145.83 1641.62 136.44 1632.25 136.44 1622.89 136.44 1613.52 136.44 1604.15 136.44 1604.15 127.04 1594.79 127.04 1594.79 117.65 1594.79 108.26 1585.42 108.26 1585.42 98.87 1576.06 98.87 1576.06 89.48 1566.69 89.48 1557.33 89.48 1547.96 89.48 1547.96 98.87 1538.59 98.87 1529.23 98.87 1529.23 108.26 1519.86 108.26 1510.5 108.26 1510.5 117.65 1501.13 117.65 1501.13 127.04 1491.76 127.04 1491.76 136.44 1482.4 136.44 1482.4 145.83 1482.4 155.22 1473.03 155.22 1473.03 164.61 1463.67 164.61 1454.3 164.61 1444.93 164.61 1444.93 155.22 1435.57 155.22 1426.2 155.22 1426.2 145.83 1416.84 145.83 1407.47 145.83 1407.47 136.44 1398.11 136.44 1388.74 136.44 1388.74 127.04 1379.37 127.04 1370.01 127.04 1360.64 127.04 1351.28 127.04 1341.91 127.04 1332.54 127.04 1323.18 127.04 1313.81 127.04 1313.81 136.44 1304.45 136.44 1295.08 136.44 1295.08 145.83 1295.08 155.22 1285.71 155.22 1285.71 164.61 1285.71 174 1276.35 174 1276.35 183.39 1276.35 192.78 1266.98 192.78 1266.98 183.39 1257.62 183.39 1248.25 183.39 1248.25 174 1238.89 174 1238.89 164.61 1229.52 164.61 1229.52 155.22 1220.15 155.22 1210.79 155.22 1201.42 155.22 1192.06 155.22 1182.69 155.22 1173.33 155.22 1173.33 164.61 1163.96 164.61 1154.59 164.61 1145.23 164.61 1145.23 174 1135.86 174 1135.86 183.39 1126.5 183.39 1126.5 192.78 1117.13 192.78 1117.13 202.17 1107.76 202.17 1107.76 211.56 1098.4 211.56 1089.03 211.56 1089.03 202.17 1079.67 202.17 1070.3 202.17 1060.93 202.17 1060.93 192.78 1051.57 192.78 1042.2 192.78 1042.2 183.39 1032.84 183.39 1023.47 183.39 1023.47 192.78 1014.11 192.78 1004.74 192.78 995.37 192.78 995.37 202.17 986.01 202.17 976.64 202.17 967.28 202.17 967.28 211.56 957.91 211.56 957.91 220.96 948.54 220.96 939.18 220.96 939.18 230.35 929.81 230.35 929.81 239.74 920.45 239.74 911.08 239.74 911.08 249.13 920.45 249.13 929.81 249.13 929.81 258.52 939.18 258.52 948.54 258.52 957.91 258.52 957.91 267.91 967.28 267.91 967.28 277.3 976.64 277.3 976.64 286.7 986.01 286.7 995.37 286.7 1004.74 286.7 1004.74 296.09 1014.11 296.09 1023.47 296.09 1032.84 296.09 1042.2 296.09 1051.57 296.09 1060.93 296.09 1060.93 286.7 1070.3 286.7 1079.67 286.7 1079.67 277.3 1089.03 277.3 1098.4 277.3 1107.76 277.3 1117.13 277.3 1117.13 286.7 1126.5 286.7 1135.86 286.7 1135.86 296.09 1145.23 296.09 1154.59 296.09 1163.96 296.09 1173.33 296.09 1182.69 296.09 1192.06 296.09 1201.42 296.09 1210.79 296.09 1210.79 305.48 1220.15 305.48 1220.15 296.09 1229.52 296.09 1229.52 286.7 1238.89 286.7 1238.89 277.3 1238.89 267.91 1248.25 267.91 1248.25 258.52 1257.62 258.52 1266.98 258.52 1276.35 258.52 1285.71 258.52 1295.08 258.52 1304.45 258.52 1304.45 267.91 1313.81 267.91 1323.18 267.91 1323.18 277.3 1332.54 277.3 1332.54 286.7 1341.91 286.7 1341.91 296.09 1351.28 296.09 1351.28 305.48 1360.64 305.48 1360.64 296.09 1370.01 296.09 1379.37 296.09 1388.74 296.09 1388.74 286.7 1398.11 286.7 1398.11 277.3 1407.47 277.3 1416.84 277.3 1416.84 267.91 1426.2 267.91 1435.57 267.91 1444.93 267.91 1454.3 267.91 1463.67 267.91 1473.03 267.91 1473.03 277.3 1482.4 277.3 1482.4 286.7 1491.76 286.7 1491.76 296.09 1501.13 296.09 1510.5 296.09 1519.86 296.09 1519.86 286.7 1529.23 286.7 1529.23 277.3 1538.59 277.3 1547.96 277.3 1557.33 277.3 1566.69 277.3 1576.06 277.3 1576.06 286.7 1585.42 286.7 1594.79 286.7 1604.15 286.7 1604.15 277.3 1613.52 277.3 1613.52 267.91 1622.89 267.91 1622.89 258.52 1632.25 258.52 1641.62 258.52 1650.98 258.52 1660.35 258.52 1660.35 267.91 1669.71 267.91 1679.08 267.91 1688.45 267.91 1688.45 258.52 1688.45 249.13 1679.08 249.13"/><polygon class="cls-5" points="1697.81 286.7 1697.81 277.3 1688.45 277.3 1688.45 267.91 1679.08 267.91 1669.71 267.91 1660.35 267.91 1660.35 258.52 1650.98 258.52 1641.62 258.52 1632.25 258.52 1622.89 258.52 1622.89 267.91 1613.52 267.91 1613.52 277.3 1604.15 277.3 1604.15 286.7 1594.79 286.7 1585.42 286.7 1576.06 286.7 1576.06 277.3 1566.69 277.3 1557.33 277.3 1547.96 277.3 1538.59 277.3 1529.23 277.3 1529.23 286.7 1519.86 286.7 1519.86 296.09 1510.5 296.09 1501.13 296.09 1491.76 296.09 1491.76 286.7 1482.4 286.7 1482.4 277.3 1473.03 277.3 1473.03 267.91 1463.67 267.91 1454.3 267.91 1444.93 267.91 1435.57 267.91 1426.2 267.91 1416.84 267.91 1416.84 277.3 1407.47 277.3 1398.11 277.3 1398.11 286.7 1388.74 286.7 1388.74 296.09 1379.37 296.09 1370.01 296.09 1360.64 296.09 1360.64 305.48 1351.28 305.48 1351.28 296.09 1341.91 296.09 1341.91 286.7 1332.54 286.7 1332.54 277.3 1323.18 277.3 1323.18 267.91 1313.81 267.91 1304.45 267.91 1304.45 258.52 1295.08 258.52 1285.71 258.52 1276.35 258.52 1266.98 258.52 1257.62 258.52 1248.25 258.52 1248.25 267.91 1238.89 267.91 1238.89 277.3 1238.89 286.7 1229.52 286.7 1229.52 296.09 1220.15 296.09 1220.15 305.48 1210.79 305.48 1210.79 296.09 1201.42 296.09 1192.06 296.09 1182.69 296.09 1173.33 296.09 1163.96 296.09 1154.59 296.09 1145.23 296.09 1135.86 296.09 1135.86 286.7 1126.5 286.7 1117.13 286.7 1117.13 277.3 1107.76 277.3 1098.4 277.3 1089.03 277.3 1079.67 277.3 1079.67 286.7 1070.3 286.7 1060.93 286.7 1060.93 296.09 1051.57 296.09 1042.2 296.09 1032.84 296.09 1023.47 296.09 1014.11 296.09 1004.74 296.09 1004.74 286.7 995.37 286.7 986.01 286.7 976.64 286.7 976.64 277.3 967.28 277.3 967.28 267.91 957.91 267.91 957.91 258.52 948.54 258.52 939.18 258.52 929.81 258.52 929.81 249.13 920.45 249.13 911.08 249.13 911.08 258.52 901.72 258.52 892.35 258.52 892.35 267.91 882.98 267.91 882.98 277.3 873.62 277.3 873.62 286.7 864.25 286.7 864.25 296.09 854.89 296.09 845.52 296.09 836.15 296.09 836.15 286.7 826.79 286.7 817.42 286.7 808.06 286.7 798.69 286.7 789.33 286.7 789.33 296.09 779.96 296.09 770.59 296.09 761.23 296.09 751.86 296.09 742.5 296.09 742.5 286.7 733.13 286.7 723.76 286.7 714.4 286.7 705.03 286.7 705.03 296.09 695.67 296.09 695.67 305.48 705.03 305.48 705.03 314.87 714.4 314.87 714.4 324.26 723.76 324.26 733.13 324.26 742.5 324.26 751.86 324.26 761.23 324.26 770.59 324.26 779.96 324.26 789.33 324.26 789.33 314.87 798.69 314.87 808.06 314.87 817.42 314.87 826.79 314.87 836.15 314.87 845.52 314.87 854.89 314.87 864.25 314.87 864.25 324.26 873.62 324.26 882.98 324.26 882.98 333.65 892.35 333.65 901.72 333.65 901.72 343.04 911.08 343.04 911.08 352.44 920.45 352.44 929.81 352.44 939.18 352.44 948.54 352.44 957.91 352.44 967.28 352.44 976.64 352.44 986.01 352.44 986.01 343.04 995.37 343.04 1004.74 343.04 1014.11 343.04 1023.47 343.04 1032.84 343.04 1042.2 343.04 1042.2 333.65 1051.57 333.65 1060.93 333.65 1070.3 333.65 1079.67 333.65 1089.03 333.65 1098.4 333.65 1107.76 333.65 1117.13 333.65 1126.5 333.65 1126.5 343.04 1135.86 343.04 1145.23 343.04 1154.59 343.04 1163.96 343.04 1173.33 343.04 1173.33 352.44 1182.69 352.44 1192.06 352.44 1201.42 352.44 1210.79 352.44 1220.15 352.44 1229.52 352.44 1238.89 352.44 1248.25 352.44 1257.62 352.44 1266.98 352.44 1266.98 343.04 1276.35 343.04 1285.71 343.04 1295.08 343.04 1304.45 343.04 1313.81 343.04 1323.18 343.04 1332.54 343.04 1341.91 343.04 1351.28 343.04 1360.64 343.04 1370.01 343.04 1379.37 343.04 1379.37 333.65 1388.74 333.65 1398.11 333.65 1407.47 333.65 1416.84 333.65 1426.2 333.65 1435.57 333.65 1444.93 333.65 1454.3 333.65 1463.67 333.65 1473.03 333.65 1482.4 333.65 1491.76 333.65 1501.13 333.65 1501.13 343.04 1510.5 343.04 1519.86 343.04 1529.23 343.04 1529.23 352.44 1538.59 352.44 1547.96 352.44 1557.33 352.44 1566.69 352.44 1576.06 352.44 1585.42 352.44 1594.79 352.44 1604.15 352.44 1613.52 352.44 1622.89 352.44 1622.89 343.04 1632.25 343.04 1641.62 343.04 1650.98 343.04 1650.98 333.65 1660.35 333.65 1669.71 333.65 1679.08 333.65 1679.08 324.26 1688.45 324.26 1697.81 324.26 1707.18 324.26 1707.18 314.87 1707.18 305.48 1707.18 296.09 1707.18 286.7 1697.81 286.7"/></g></g><g id="nuage2"><g class="cls-2"><polygon class="cls-6" points="452.16 176.7 452.16 167.3 452.16 157.91 442.8 157.91 433.43 157.91 424.06 157.91 424.06 148.52 424.06 139.13 414.7 139.13 414.7 129.74 405.33 129.74 405.33 120.35 395.97 120.35 386.6 120.35 386.6 110.96 377.24 110.96 367.87 110.96 358.5 110.96 349.14 110.96 349.14 101.56 339.77 101.56 339.77 92.17 330.4 92.17 321.04 92.17 311.67 92.17 302.31 92.17 292.94 92.17 292.94 82.78 283.58 82.78 283.58 73.39 274.21 73.39 264.84 73.39 255.48 73.39 255.48 64 246.11 64 236.75 64 236.75 73.39 227.38 73.39 218.01 73.39 218.01 82.78 208.65 82.78 199.28 82.78 189.92 82.78 180.55 82.78 171.19 82.78 161.82 82.78 152.45 82.78 143.09 82.78 143.09 92.17 133.72 92.17 124.36 92.17 124.36 101.56 124.36 110.96 124.36 120.35 114.99 120.35 114.99 129.74 105.63 129.74 105.63 139.13 96.26 139.13 96.26 148.52 96.26 157.91 96.26 167.3 86.89 167.3 86.89 176.7 86.89 186.09 96.26 186.09 96.26 176.7 105.63 176.7 105.63 167.3 114.99 167.3 114.99 157.91 124.36 157.91 124.36 148.52 133.72 148.52 133.72 139.13 143.09 139.13 152.45 139.13 161.82 139.13 171.19 139.13 180.55 139.13 180.55 148.52 189.92 148.52 189.92 157.91 199.28 157.91 208.65 157.91 208.65 148.52 218.01 148.52 218.01 139.13 227.38 139.13 227.38 129.74 236.75 129.74 236.75 120.35 246.11 120.35 246.11 110.96 255.48 110.96 255.48 101.56 264.84 101.56 274.21 101.56 283.58 101.56 292.94 101.56 292.94 110.96 302.31 110.96 311.67 110.96 311.67 120.35 321.04 120.35 330.4 120.35 330.4 129.74 330.4 139.13 330.4 148.52 330.4 157.91 339.77 157.91 349.14 157.91 358.5 157.91 358.5 148.52 367.87 148.52 367.87 139.13 377.24 139.13 386.6 139.13 395.97 139.13 395.97 148.52 395.97 157.91 405.33 157.91 405.33 167.3 414.7 167.3 424.06 167.3 433.43 167.3 433.43 176.7 442.8 176.7 442.8 186.09 452.16 186.09 452.16 195.48 461.53 195.48 461.53 186.09 461.53 176.7 452.16 176.7"/><polygon class="cls-4" points="311.67 120.35 311.67 110.96 302.31 110.96 292.94 110.96 292.94 101.56 283.58 101.56 274.21 101.56 264.84 101.56 255.48 101.56 255.48 110.96 246.11 110.96 246.11 120.35 236.75 120.35 236.75 129.74 227.38 129.74 227.38 139.13 218.01 139.13 218.01 148.52 208.65 148.52 208.65 157.91 199.28 157.91 189.92 157.91 189.92 148.52 180.55 148.52 180.55 139.13 171.19 139.13 161.82 139.13 152.45 139.13 143.09 139.13 133.72 139.13 133.72 148.52 124.36 148.52 124.36 157.91 114.99 157.91 114.99 167.3 105.63 167.3 105.63 176.7 96.26 176.7 96.26 186.09 86.89 186.09 86.89 195.48 96.26 195.48 96.26 204.87 105.63 204.87 105.63 214.26 114.99 214.26 124.36 214.26 133.72 214.26 133.72 204.87 143.09 204.87 152.45 204.87 152.45 195.48 161.82 195.48 171.19 195.48 180.55 195.48 189.92 195.48 189.92 204.87 199.28 204.87 199.28 195.48 199.28 186.09 208.65 186.09 208.65 176.7 218.01 176.7 227.38 176.7 236.75 176.7 246.11 176.7 246.11 186.09 255.48 186.09 264.84 186.09 264.84 195.48 274.21 195.48 283.58 195.48 292.94 195.48 292.94 186.09 302.31 186.09 302.31 176.7 311.67 176.7 311.67 167.3 321.04 167.3 330.4 167.3 330.4 157.91 330.4 148.52 330.4 139.13 330.4 129.74 330.4 120.35 321.04 120.35 311.67 120.35"/><polygon class="cls-4" points="395.97 157.91 395.97 148.52 395.97 139.13 386.6 139.13 377.24 139.13 367.87 139.13 367.87 148.52 358.5 148.52 358.5 157.91 358.5 167.3 367.87 167.3 367.87 176.7 377.24 176.7 377.24 186.09 386.6 186.09 386.6 195.48 395.97 195.48 395.97 186.09 395.97 176.7 405.33 176.7 405.33 167.3 405.33 157.91 395.97 157.91"/><polygon class="cls-5" points="452.16 195.48 452.16 186.09 442.8 186.09 442.8 176.7 433.43 176.7 433.43 167.3 424.06 167.3 414.7 167.3 405.33 167.3 405.33 176.7 395.97 176.7 395.97 186.09 395.97 195.48 386.6 195.48 386.6 186.09 377.24 186.09 377.24 176.7 367.87 176.7 367.87 167.3 358.5 167.3 358.5 157.91 349.14 157.91 339.77 157.91 330.4 157.91 330.4 167.3 321.04 167.3 311.67 167.3 311.67 176.7 302.31 176.7 302.31 186.09 292.94 186.09 292.94 195.48 283.58 195.48 274.21 195.48 264.84 195.48 264.84 186.09 255.48 186.09 246.11 186.09 246.11 176.7 236.75 176.7 227.38 176.7 218.01 176.7 208.65 176.7 208.65 186.09 199.28 186.09 199.28 195.48 199.28 204.87 189.92 204.87 189.92 195.48 180.55 195.48 171.19 195.48 161.82 195.48 152.45 195.48 152.45 204.87 143.09 204.87 133.72 204.87 133.72 214.26 124.36 214.26 114.99 214.26 105.63 214.26 105.63 204.87 96.26 204.87 96.26 214.26 96.26 223.65 105.63 223.65 105.63 233.04 114.99 233.04 114.99 242.44 124.36 242.44 133.72 242.44 143.09 242.44 152.45 242.44 161.82 242.44 171.19 242.44 171.19 251.83 180.55 251.83 189.92 251.83 199.28 251.83 208.65 251.83 218.01 251.83 218.01 242.44 227.38 242.44 236.75 242.44 246.11 242.44 255.48 242.44 255.48 233.04 264.84 233.04 264.84 242.44 274.21 242.44 283.58 242.44 292.94 242.44 302.31 242.44 302.31 251.83 311.67 251.83 321.04 251.83 330.4 251.83 339.77 251.83 349.14 251.83 358.5 251.83 367.87 251.83 367.87 242.44 377.24 242.44 386.6 242.44 395.97 242.44 405.33 242.44 414.7 242.44 424.06 242.44 433.43 242.44 442.8 242.44 442.8 233.04 452.16 233.04 452.16 223.65 461.53 223.65 461.53 214.26 461.53 204.87 461.53 195.48 452.16 195.48"/></g></g><g id="nuage3"><g class="cls-2"><rect class="cls-6" x="367.86" y="465.13" width="9.37" height="9.39"/><polygon class="cls-6" points="349.13 474.52 339.76 474.52 330.4 474.52 321.03 474.52 311.67 474.52 302.3 474.52 302.3 483.91 292.94 483.91 283.57 483.91 283.57 493.3 274.2 493.3 274.2 502.7 264.84 502.7 255.47 502.7 246.1 502.7 246.1 512.09 236.74 512.09 227.37 512.09 218.01 512.09 218.01 521.48 208.64 521.48 208.64 530.87 199.28 530.87 199.28 540.26 199.28 549.65 199.28 559.04 199.28 568.43 189.91 568.43 189.91 577.83 180.54 577.83 171.18 577.83 161.81 577.83 161.81 587.22 152.45 587.22 143.08 587.22 133.72 587.22 133.72 596.61 124.35 596.61 114.98 596.61 105.62 596.61 96.25 596.61 96.25 606 105.62 606 114.98 606 124.35 606 133.72 606 143.08 606 152.45 606 161.81 606 171.18 606 180.54 606 189.91 606 199.28 606 199.28 596.61 208.64 596.61 208.64 587.22 218.01 587.22 218.01 577.83 218.01 568.43 227.37 568.43 227.37 559.04 227.37 549.65 236.74 549.65 236.74 540.26 246.1 540.26 255.47 540.26 264.84 540.26 274.2 540.26 283.57 540.26 283.57 549.65 292.94 549.65 302.3 549.65 311.67 549.65 311.67 559.04 321.03 559.04 330.4 559.04 339.76 559.04 339.76 549.65 339.76 540.26 339.76 530.87 349.13 530.87 349.13 521.48 349.13 512.09 349.13 502.7 349.13 493.3 358.5 493.3 358.5 483.91 367.86 483.91 367.86 474.52 358.5 474.52 349.13 474.52"/><polygon class="cls-6" points="77.52 606 68.15 606 58.79 606 58.79 615.39 49.42 615.39 40.06 615.39 40.06 624.78 30.69 624.78 30.69 634.17 21.32 634.17 21.32 643.57 21.32 652.96 21.32 662.35 30.69 662.35 30.69 652.96 40.06 652.96 40.06 643.57 49.42 643.57 58.79 643.57 58.79 634.17 68.15 634.17 77.52 634.17 77.52 624.78 86.89 624.78 86.89 615.39 96.25 615.39 96.25 606 86.89 606 77.52 606"/><polygon class="cls-6" points="1491.76 624.78 1482.4 624.78 1482.4 615.39 1473.03 615.39 1463.67 615.39 1463.67 606 1454.3 606 1444.93 606 1435.57 606 1426.2 606 1426.2 596.61 1416.84 596.61 1407.47 596.61 1398.11 596.61 1398.11 587.22 1388.74 587.22 1388.74 577.83 1379.37 577.83 1379.37 568.43 1370.01 568.43 1360.64 568.43 1351.28 568.43 1341.91 568.43 1341.91 577.83 1332.54 577.83 1332.54 568.43 1332.54 559.04 1323.18 559.04 1323.18 549.65 1323.18 540.26 1313.81 540.26 1304.45 540.26 1304.45 530.87 1295.08 530.87 1295.08 521.48 1295.08 512.09 1285.71 512.09 1276.35 512.09 1266.98 512.09 1257.62 512.09 1248.25 512.09 1248.25 502.7 1238.89 502.7 1229.52 502.7 1220.15 502.7 1210.79 502.7 1201.42 502.7 1192.06 502.7 1192.06 512.09 1182.69 512.09 1173.33 512.09 1163.96 512.09 1154.59 512.09 1145.23 512.09 1145.23 521.48 1135.86 521.48 1126.5 521.48 1126.5 512.09 1117.13 512.09 1117.13 502.7 1107.76 502.7 1098.4 502.7 1089.03 502.7 1089.03 493.3 1079.67 493.3 1070.3 493.3 1060.93 493.3 1051.57 493.3 1042.2 493.3 1032.84 493.3 1032.84 483.91 1032.84 474.52 1032.84 465.13 1023.47 465.13 1023.47 455.74 1014.11 455.74 1004.74 455.74 1004.74 446.35 995.37 446.35 986.01 446.35 986.01 436.96 976.64 436.96 967.28 436.96 957.91 436.96 948.54 436.96 948.54 427.56 939.18 427.56 939.18 418.17 929.81 418.17 920.45 418.17 911.08 418.17 911.08 408.78 901.72 408.78 892.35 408.78 882.98 408.78 873.62 408.78 864.25 408.78 864.25 399.39 854.89 399.39 854.89 390 845.52 390 845.52 380.61 836.15 380.61 836.15 371.22 826.79 371.22 817.42 371.22 817.42 361.83 808.06 361.83 798.69 361.83 789.33 361.83 779.96 361.83 770.59 361.83 761.23 361.83 761.23 371.22 751.86 371.22 742.5 371.22 733.13 371.22 733.13 380.61 723.76 380.61 723.76 371.22 714.4 371.22 714.4 361.83 705.03 361.83 705.03 352.44 695.67 352.44 686.3 352.44 676.93 352.44 667.57 352.44 658.2 352.44 648.84 352.44 639.47 352.44 630.11 352.44 620.74 352.44 611.37 352.44 602.01 352.44 602.01 361.83 592.64 361.83 583.28 361.83 573.91 361.83 573.91 371.22 564.54 371.22 564.54 380.61 555.18 380.61 555.18 390 545.81 390 545.81 399.39 536.45 399.39 536.45 408.78 527.08 408.78 517.72 408.78 508.35 408.78 508.35 418.17 498.98 418.17 489.62 418.17 480.25 418.17 470.89 418.17 470.89 408.78 461.52 408.78 452.15 408.78 442.79 408.78 433.42 408.78 424.06 408.78 424.06 418.17 414.69 418.17 405.32 418.17 395.96 418.17 386.59 418.17 386.59 427.56 386.59 436.96 377.23 436.96 377.23 446.35 377.23 455.74 377.23 465.13 386.59 465.13 386.59 455.74 395.96 455.74 405.32 455.74 414.69 455.74 424.06 455.74 433.42 455.74 442.79 455.74 452.15 455.74 461.52 455.74 470.89 455.74 480.25 455.74 489.62 455.74 498.98 455.74 498.98 465.13 508.35 465.13 517.72 465.13 527.08 465.13 527.08 474.52 536.45 474.52 545.81 474.52 545.81 483.91 555.18 483.91 555.18 474.52 555.18 465.13 564.54 465.13 564.54 455.74 564.54 446.35 573.91 446.35 573.91 436.96 583.28 436.96 583.28 427.56 592.64 427.56 592.64 418.17 602.01 418.17 611.37 418.17 611.37 408.78 620.74 408.78 630.11 408.78 630.11 399.39 639.47 399.39 648.84 399.39 658.2 399.39 667.57 399.39 667.57 408.78 676.93 408.78 686.3 408.78 695.67 408.78 705.03 408.78 714.4 408.78 723.76 408.78 723.76 418.17 733.13 418.17 733.13 427.56 742.5 427.56 742.5 436.96 751.86 436.96 751.86 446.35 751.86 455.74 761.23 455.74 761.23 465.13 770.59 465.13 770.59 474.52 779.96 474.52 779.96 483.91 779.96 493.3 789.33 493.3 798.69 493.3 808.06 493.3 808.06 483.91 817.42 483.91 826.79 483.91 826.79 474.52 836.15 474.52 845.52 474.52 854.89 474.52 854.89 465.13 864.25 465.13 873.62 465.13 882.98 465.13 892.35 465.13 901.72 465.13 901.72 474.52 911.08 474.52 920.45 474.52 929.81 474.52 929.81 483.91 939.18 483.91 939.18 493.3 948.54 493.3 957.91 493.3 957.91 502.7 967.28 502.7 967.28 512.09 976.64 512.09 976.64 521.48 976.64 530.87 976.64 540.26 986.01 540.26 986.01 549.65 995.37 549.65 1004.74 549.65 1014.11 549.65 1014.11 559.04 1023.47 559.04 1032.84 559.04 1042.2 559.04 1051.57 559.04 1051.57 549.65 1060.93 549.65 1070.3 549.65 1079.67 549.65 1089.03 549.65 1089.03 559.04 1098.4 559.04 1107.76 559.04 1117.13 559.04 1117.13 568.43 1126.5 568.43 1135.86 568.43 1135.86 559.04 1145.23 559.04 1145.23 549.65 1154.59 549.65 1154.59 540.26 1163.96 540.26 1163.96 530.87 1173.33 530.87 1182.69 530.87 1192.06 530.87 1201.42 530.87 1210.79 530.87 1210.79 540.26 1220.15 540.26 1229.52 540.26 1229.52 549.65 1238.89 549.65 1248.25 549.65 1248.25 559.04 1257.62 559.04 1266.98 559.04 1266.98 568.43 1266.98 577.83 1276.35 577.83 1276.35 587.22 1285.71 587.22 1285.71 596.61 1295.08 596.61 1295.08 606 1304.45 606 1313.81 606 1323.18 606 1332.54 606 1341.91 606 1351.28 606 1351.28 596.61 1360.64 596.61 1370.01 596.61 1379.37 596.61 1379.37 606 1388.74 606 1398.11 606 1407.47 606 1407.47 615.39 1416.84 615.39 1426.2 615.39 1426.2 624.78 1435.57 624.78 1435.57 634.17 1444.93 634.17 1454.3 634.17 1463.67 634.17 1473.03 634.17 1482.4 634.17 1491.76 634.17 1501.13 634.17 1510.49 634.17 1510.49 624.78 1501.13 624.78 1491.76 624.78"/><polygon class="cls-6" points="1557.33 643.57 1557.33 652.96 1566.69 652.96 1576.06 652.96 1576.06 643.57 1566.69 643.57 1557.33 643.57"/><polygon class="cls-6" points="1679.08 643.57 1669.71 643.57 1660.35 643.57 1650.98 643.57 1641.62 643.57 1632.25 643.57 1632.25 652.96 1641.62 652.96 1650.98 652.96 1660.35 652.96 1669.71 652.96 1679.08 652.96 1688.45 652.96 1688.45 643.57 1679.08 643.57"/><polygon class="cls-6" points="1613.52 652.96 1604.15 652.96 1594.79 652.96 1585.42 652.96 1585.42 662.35 1594.79 662.35 1604.15 662.35 1613.52 662.35 1622.89 662.35 1632.25 662.35 1632.25 652.96 1622.89 652.96 1613.52 652.96"/><polygon class="cls-6" points="1688.45 652.96 1688.45 662.35 1697.81 662.35 1707.18 662.35 1707.18 652.96 1697.81 652.96 1688.45 652.96"/><polygon class="cls-6" points="1800.84 662.35 1791.47 662.35 1782.11 662.35 1782.11 652.96 1772.74 652.96 1763.37 652.96 1754.01 652.96 1744.64 652.96 1735.28 652.96 1735.28 662.35 1744.64 662.35 1754.01 662.35 1754.01 671.74 1763.37 671.74 1763.37 681.13 1772.74 681.13 1782.11 681.13 1791.47 681.13 1800.84 681.13 1810.2 681.13 1810.2 671.74 1810.2 662.35 1800.84 662.35"/><polygon class="cls-4" points="1014.11 549.65 1004.74 549.65 995.37 549.65 986.01 549.65 986.01 540.26 976.64 540.26 976.64 530.87 976.64 521.48 976.64 512.09 967.28 512.09 967.28 502.7 957.91 502.7 957.91 493.3 948.54 493.3 939.18 493.3 939.18 483.91 929.81 483.91 929.81 474.52 920.45 474.52 911.08 474.52 901.72 474.52 901.72 465.13 892.35 465.13 882.98 465.13 873.62 465.13 864.25 465.13 854.89 465.13 854.89 474.52 845.52 474.52 836.15 474.52 826.79 474.52 826.79 483.91 817.42 483.91 808.06 483.91 808.06 493.3 798.69 493.3 789.33 493.3 779.96 493.3 779.96 483.91 779.96 474.52 770.59 474.52 770.59 465.13 761.23 465.13 761.23 455.74 751.86 455.74 751.86 446.35 751.86 436.96 742.5 436.96 742.5 427.56 733.13 427.56 733.13 418.17 723.76 418.17 723.76 408.78 714.4 408.78 705.03 408.78 695.67 408.78 686.3 408.78 676.93 408.78 667.57 408.78 667.57 399.39 658.2 399.39 648.84 399.39 639.47 399.39 630.11 399.39 630.11 408.78 620.74 408.78 611.37 408.78 611.37 418.17 602.01 418.17 592.64 418.17 592.64 427.56 583.28 427.56 583.28 436.96 573.91 436.96 573.91 446.35 564.54 446.35 564.54 455.74 564.54 465.13 555.18 465.13 555.18 474.52 555.18 483.91 545.81 483.91 545.81 474.52 536.45 474.52 527.08 474.52 527.08 465.13 517.72 465.13 508.35 465.13 498.98 465.13 498.98 455.74 489.62 455.74 480.25 455.74 470.89 455.74 461.52 455.74 452.15 455.74 442.79 455.74 433.42 455.74 424.06 455.74 414.69 455.74 405.32 455.74 395.96 455.74 386.59 455.74 386.59 465.13 377.23 465.13 377.23 474.52 367.86 474.52 367.86 483.91 358.5 483.91 358.5 493.3 349.13 493.3 349.13 502.7 349.13 512.09 349.13 521.48 349.13 530.87 339.76 530.87 339.76 540.26 339.76 549.65 339.76 559.04 330.4 559.04 321.03 559.04 311.67 559.04 311.67 549.65 302.3 549.65 292.94 549.65 283.57 549.65 283.57 540.26 274.2 540.26 264.84 540.26 255.47 540.26 246.1 540.26 236.74 540.26 236.74 549.65 227.37 549.65 227.37 559.04 227.37 568.43 218.01 568.43 218.01 577.83 218.01 587.22 208.64 587.22 208.64 596.61 199.28 596.61 199.28 606 189.91 606 180.54 606 171.18 606 161.81 606 152.45 606 143.08 606 133.72 606 124.35 606 114.98 606 105.62 606 96.25 606 96.25 615.39 86.89 615.39 86.89 624.78 77.52 624.78 77.52 634.17 68.15 634.17 58.79 634.17 58.79 643.57 49.42 643.57 40.06 643.57 40.06 652.96 30.69 652.96 30.69 662.35 21.32 662.35 21.32 671.74 21.32 681.13 30.69 681.13 30.69 671.74 40.06 671.74 49.42 671.74 49.42 662.35 58.79 662.35 68.15 662.35 68.15 652.96 77.52 652.96 86.89 652.96 96.25 652.96 105.62 652.96 114.98 652.96 124.35 652.96 133.72 652.96 143.08 652.96 152.45 652.96 152.45 643.57 161.81 643.57 171.18 643.57 180.54 643.57 180.54 634.17 189.91 634.17 189.91 624.78 199.28 624.78 208.64 624.78 208.64 615.39 218.01 615.39 218.01 606 227.37 606 236.74 606 236.74 596.61 246.1 596.61 246.1 587.22 255.47 587.22 264.84 587.22 274.2 587.22 283.57 587.22 283.57 577.83 292.94 577.83 302.3 577.83 311.67 577.83 321.03 577.83 330.4 577.83 339.76 577.83 339.76 587.22 349.13 587.22 358.5 587.22 367.86 587.22 377.23 587.22 377.23 596.61 386.59 596.61 395.96 596.61 405.32 596.61 405.32 606 414.69 606 414.69 596.61 424.06 596.61 424.06 587.22 433.42 587.22 433.42 577.83 433.42 568.43 442.79 568.43 442.79 559.04 442.79 549.65 452.15 549.65 452.15 540.26 461.52 540.26 461.52 530.87 470.89 530.87 470.89 521.48 480.25 521.48 489.62 521.48 498.98 521.48 508.35 521.48 517.72 521.48 527.08 521.48 536.45 521.48 545.81 521.48 555.18 521.48 564.54 521.48 564.54 530.87 573.91 530.87 573.91 540.26 583.28 540.26 592.64 540.26 592.64 549.65 602.01 549.65 611.37 549.65 611.37 559.04 620.74 559.04 620.74 549.65 630.11 549.65 639.47 549.65 639.47 540.26 648.84 540.26 658.2 540.26 667.57 540.26 676.93 540.26 686.3 540.26 686.3 549.65 695.67 549.65 705.03 549.65 705.03 559.04 705.03 568.43 714.4 568.43 723.76 568.43 733.13 568.43 733.13 559.04 742.5 559.04 742.5 549.65 751.86 549.65 761.23 549.65 770.59 549.65 779.96 549.65 789.33 549.65 789.33 559.04 798.69 559.04 808.06 559.04 817.42 559.04 817.42 568.43 826.79 568.43 836.15 568.43 836.15 577.83 845.52 577.83 845.52 587.22 845.52 596.61 854.89 596.61 854.89 606 854.89 615.39 864.25 615.39 864.25 606 873.62 606 882.98 606 882.98 596.61 892.35 596.61 901.72 596.61 911.08 596.61 911.08 587.22 920.45 587.22 929.81 587.22 939.18 587.22 939.18 577.83 948.54 577.83 957.91 577.83 967.28 577.83 967.28 568.43 976.64 568.43 986.01 568.43 986.01 577.83 986.01 587.22 995.37 587.22 1004.74 587.22 1004.74 577.83 1014.11 577.83 1014.11 568.43 1023.47 568.43 1023.47 559.04 1014.11 559.04 1014.11 549.65"/><polygon class="cls-4" points="1266.98 559.04 1257.62 559.04 1248.25 559.04 1248.25 549.65 1238.89 549.65 1229.52 549.65 1229.52 540.26 1220.15 540.26 1210.79 540.26 1210.79 530.87 1201.42 530.87 1192.06 530.87 1182.69 530.87 1173.33 530.87 1163.96 530.87 1163.96 540.26 1154.59 540.26 1154.59 549.65 1145.23 549.65 1145.23 559.04 1135.86 559.04 1135.86 568.43 1126.5 568.43 1117.13 568.43 1117.13 559.04 1107.76 559.04 1098.4 559.04 1089.03 559.04 1089.03 549.65 1079.67 549.65 1070.3 549.65 1060.93 549.65 1051.57 549.65 1051.57 559.04 1060.93 559.04 1070.3 559.04 1070.3 568.43 1079.67 568.43 1079.67 577.83 1089.03 577.83 1089.03 587.22 1098.4 587.22 1098.4 596.61 1098.4 606 1107.76 606 1107.76 615.39 1117.13 615.39 1117.13 624.78 1126.5 624.78 1126.5 634.17 1135.86 634.17 1145.23 634.17 1154.59 634.17 1154.59 624.78 1163.96 624.78 1173.33 624.78 1173.33 615.39 1182.69 615.39 1192.06 615.39 1192.06 606 1201.42 606 1201.42 596.61 1210.79 596.61 1220.15 596.61 1220.15 587.22 1229.52 587.22 1229.52 577.83 1238.89 577.83 1248.25 577.83 1257.62 577.83 1266.98 577.83 1266.98 568.43 1266.98 559.04"/><rect class="cls-4" x="1266.98" y="577.83" width="9.37" height="9.39"/><rect class="cls-4" x="1285.72" y="596.61" width="9.37" height="9.39"/><polygon class="cls-4" points="1426.2 615.39 1416.84 615.39 1407.47 615.39 1407.47 606 1398.11 606 1388.74 606 1379.37 606 1379.37 596.61 1370.01 596.61 1360.64 596.61 1351.28 596.61 1351.28 606 1341.91 606 1332.54 606 1323.18 606 1313.81 606 1304.45 606 1295.08 606 1295.08 615.39 1304.45 615.39 1304.45 624.78 1313.81 624.78 1323.18 624.78 1332.54 624.78 1341.91 624.78 1341.91 615.39 1351.28 615.39 1360.64 615.39 1370.01 615.39 1379.37 615.39 1388.74 615.39 1398.11 615.39 1398.11 624.78 1407.47 624.78 1416.84 624.78 1416.84 634.17 1416.84 643.57 1426.2 643.57 1435.57 643.57 1435.57 634.17 1435.57 624.78 1426.2 624.78 1426.2 615.39"/><rect class="cls-4" x="1538.59" y="634.17" width="9.37" height="9.39"/><rect class="cls-4" x="1547.96" y="643.57" width="9.37" height="9.39"/><polygon class="cls-4" points="1669.71 652.96 1660.35 652.96 1650.98 652.96 1641.62 652.96 1632.25 652.96 1632.25 662.35 1622.89 662.35 1613.52 662.35 1604.15 662.35 1594.79 662.35 1585.42 662.35 1585.42 652.96 1576.06 652.96 1566.69 652.96 1557.33 652.96 1557.33 662.35 1566.69 662.35 1566.69 671.74 1576.06 671.74 1585.42 671.74 1594.79 671.74 1604.15 671.74 1604.15 681.13 1613.52 681.13 1613.52 671.74 1622.89 671.74 1632.25 671.74 1641.62 671.74 1650.98 671.74 1650.98 662.35 1660.35 662.35 1669.71 662.35 1679.08 662.35 1688.45 662.35 1688.45 652.96 1679.08 652.96 1669.71 652.96"/><polygon class="cls-4" points="1763.37 681.13 1763.37 671.74 1754.01 671.74 1754.01 662.35 1744.64 662.35 1735.28 662.35 1725.91 662.35 1716.54 662.35 1707.18 662.35 1697.81 662.35 1697.81 671.74 1707.18 671.74 1716.54 671.74 1725.91 671.74 1735.28 671.74 1744.64 671.74 1744.64 681.13 1754.01 681.13 1754.01 690.52 1763.37 690.52 1772.74 690.52 1772.74 681.13 1763.37 681.13"/><polygon class="cls-5" points="1744.64 681.13 1744.64 671.74 1735.28 671.74 1725.91 671.74 1716.54 671.74 1707.18 671.74 1697.81 671.74 1697.81 662.35 1688.45 662.35 1679.08 662.35 1669.71 662.35 1660.35 662.35 1650.98 662.35 1650.98 671.74 1641.62 671.74 1632.25 671.74 1622.89 671.74 1613.52 671.74 1613.52 681.13 1604.15 681.13 1604.15 671.74 1594.79 671.74 1585.42 671.74 1576.06 671.74 1566.69 671.74 1566.69 662.35 1557.33 662.35 1557.33 652.96 1547.96 652.96 1547.96 643.57 1538.59 643.57 1538.59 634.17 1529.23 634.17 1519.86 634.17 1510.49 634.17 1501.13 634.17 1491.76 634.17 1482.4 634.17 1473.03 634.17 1463.67 634.17 1454.3 634.17 1444.93 634.17 1435.57 634.17 1435.57 643.57 1426.2 643.57 1416.84 643.57 1416.84 634.17 1416.84 624.78 1407.47 624.78 1398.11 624.78 1398.11 615.39 1388.74 615.39 1379.37 615.39 1370.01 615.39 1360.64 615.39 1351.28 615.39 1341.91 615.39 1341.91 624.78 1332.54 624.78 1323.18 624.78 1313.81 624.78 1304.45 624.78 1304.45 615.39 1295.08 615.39 1295.08 606 1285.71 606 1285.71 596.61 1285.71 587.22 1276.35 587.22 1266.98 587.22 1266.98 577.83 1257.62 577.83 1248.25 577.83 1238.89 577.83 1229.52 577.83 1229.52 587.22 1220.15 587.22 1220.15 596.61 1210.79 596.61 1201.42 596.61 1201.42 606 1192.06 606 1192.06 615.39 1182.69 615.39 1173.33 615.39 1173.33 624.78 1163.96 624.78 1154.59 624.78 1154.59 634.17 1145.23 634.17 1135.86 634.17 1126.5 634.17 1126.5 624.78 1117.13 624.78 1117.13 615.39 1107.76 615.39 1107.76 606 1098.4 606 1098.4 596.61 1098.4 587.22 1089.03 587.22 1089.03 577.83 1079.67 577.83 1079.67 568.43 1070.3 568.43 1070.3 559.04 1060.93 559.04 1051.57 559.04 1042.2 559.04 1032.84 559.04 1023.47 559.04 1023.47 568.43 1014.11 568.43 1014.11 577.83 1004.74 577.83 1004.74 587.22 995.37 587.22 986.01 587.22 986.01 577.83 986.01 568.43 976.64 568.43 967.28 568.43 967.28 577.83 957.91 577.83 948.54 577.83 939.18 577.83 939.18 587.22 929.81 587.22 920.45 587.22 911.08 587.22 911.08 596.61 901.72 596.61 892.35 596.61 882.98 596.61 882.98 606 873.62 606 864.25 606 864.25 615.39 854.89 615.39 854.89 606 854.89 596.61 845.52 596.61 845.52 587.22 845.52 577.83 836.15 577.83 836.15 568.43 826.79 568.43 817.42 568.43 817.42 559.04 808.06 559.04 798.69 559.04 789.33 559.04 789.33 549.65 779.96 549.65 770.59 549.65 761.23 549.65 751.86 549.65 742.5 549.65 742.5 559.04 733.13 559.04 733.13 568.43 723.76 568.43 714.4 568.43 705.03 568.43 705.03 559.04 705.03 549.65 695.67 549.65 686.3 549.65 686.3 540.26 676.93 540.26 667.57 540.26 658.2 540.26 648.84 540.26 639.47 540.26 639.47 549.65 630.11 549.65 620.74 549.65 620.74 559.04 611.37 559.04 611.37 549.65 602.01 549.65 592.64 549.65 592.64 540.26 583.28 540.26 573.91 540.26 573.91 530.87 564.54 530.87 564.54 521.48 555.18 521.48 545.81 521.48 536.45 521.48 527.08 521.48 517.72 521.48 508.35 521.48 498.98 521.48 489.62 521.48 480.25 521.48 470.89 521.48 470.89 530.87 461.52 530.87 461.52 540.26 452.15 540.26 452.15 549.65 442.79 549.65 442.79 559.04 442.79 568.43 433.42 568.43 433.42 577.83 433.42 587.22 424.06 587.22 424.06 596.61 414.69 596.61 414.69 606 405.32 606 405.32 596.61 395.96 596.61 386.59 596.61 377.23 596.61 377.23 587.22 367.86 587.22 358.5 587.22 349.13 587.22 339.76 587.22 339.76 577.83 330.4 577.83 321.03 577.83 311.67 577.83 302.3 577.83 292.94 577.83 283.57 577.83 283.57 587.22 274.2 587.22 264.84 587.22 255.47 587.22 246.1 587.22 246.1 596.61 236.74 596.61 236.74 606 227.37 606 218.01 606 218.01 615.39 208.64 615.39 208.64 624.78 199.28 624.78 189.91 624.78 189.91 634.17 180.54 634.17 180.54 643.57 171.18 643.57 161.81 643.57 152.45 643.57 152.45 652.96 143.08 652.96 133.72 652.96 124.35 652.96 114.98 652.96 105.62 652.96 96.25 652.96 86.89 652.96 77.52 652.96 68.15 652.96 68.15 662.35 58.79 662.35 49.42 662.35 49.42 671.74 40.06 671.74 30.69 671.74 30.69 681.13 30.69 690.52 40.06 690.52 49.42 690.52 58.79 690.52 68.15 690.52 77.52 690.52 86.89 690.52 96.25 690.52 105.62 690.52 105.62 681.13 114.98 681.13 114.98 690.52 124.35 690.52 133.72 690.52 143.08 690.52 152.45 690.52 161.81 690.52 161.81 681.13 171.18 681.13 180.54 681.13 180.54 671.74 189.91 671.74 199.28 671.74 199.28 662.35 208.64 662.35 218.01 662.35 218.01 652.96 227.37 652.96 236.74 652.96 246.1 652.96 255.47 652.96 264.84 652.96 274.2 652.96 283.57 652.96 283.57 662.35 292.94 662.35 302.3 662.35 311.67 662.35 321.03 662.35 321.03 671.74 330.4 671.74 339.76 671.74 339.76 681.13 349.13 681.13 358.5 681.13 367.86 681.13 367.86 690.52 377.23 690.52 386.59 690.52 395.96 690.52 395.96 699.91 405.32 699.91 414.69 699.91 424.06 699.91 433.42 699.91 442.79 699.91 452.15 699.91 461.52 699.91 470.89 699.91 480.25 699.91 489.62 699.91 498.98 699.91 508.35 699.91 517.72 699.91 527.08 699.91 536.45 699.91 545.81 699.91 555.18 699.91 555.18 690.52 564.54 690.52 573.91 690.52 583.28 690.52 592.64 690.52 602.01 690.52 602.01 681.13 611.37 681.13 611.37 690.52 620.74 690.52 630.11 690.52 639.47 690.52 648.84 690.52 658.2 690.52 658.2 699.91 667.57 699.91 676.93 699.91 686.3 699.91 695.67 699.91 705.03 699.91 705.03 709.3 714.4 709.3 723.76 709.3 733.13 709.3 742.5 709.3 742.5 718.7 751.86 718.7 761.23 718.7 770.59 718.7 779.96 718.7 789.33 718.7 798.69 718.7 808.06 718.7 817.42 718.7 826.79 718.7 826.79 728.09 836.15 728.09 845.52 728.09 854.89 728.09 864.25 728.09 873.62 728.09 882.98 728.09 892.35 728.09 892.35 718.7 901.72 718.7 911.08 718.7 920.45 718.7 929.81 718.7 939.18 718.7 948.54 718.7 948.54 709.3 957.91 709.3 967.28 709.3 976.64 709.3 986.01 709.3 995.37 709.3 995.37 699.91 1004.74 699.91 1014.11 699.91 1023.47 699.91 1032.84 699.91 1032.84 690.52 1042.2 690.52 1051.57 690.52 1051.57 681.13 1060.93 681.13 1070.3 681.13 1070.3 671.74 1079.67 671.74 1089.03 671.74 1098.4 671.74 1098.4 662.35 1107.76 662.35 1117.13 662.35 1126.5 662.35 1135.86 662.35 1145.23 662.35 1154.59 662.35 1163.96 662.35 1173.33 662.35 1182.69 662.35 1182.69 671.74 1192.06 671.74 1201.42 671.74 1210.79 671.74 1210.79 681.13 1220.15 681.13 1229.52 681.13 1238.89 681.13 1238.89 690.52 1248.25 690.52 1257.62 690.52 1266.98 690.52 1276.35 690.52 1276.35 699.91 1285.71 699.91 1295.08 699.91 1304.45 699.91 1313.81 699.91 1323.18 699.91 1332.54 699.91 1341.91 699.91 1341.91 690.52 1351.28 690.52 1360.64 690.52 1370.01 690.52 1379.37 690.52 1379.37 681.13 1388.74 681.13 1398.11 681.13 1407.47 681.13 1407.47 671.74 1416.84 671.74 1426.2 671.74 1435.57 671.74 1444.93 671.74 1454.3 671.74 1463.67 671.74 1473.03 671.74 1473.03 681.13 1482.4 681.13 1491.76 681.13 1501.13 681.13 1510.49 681.13 1510.49 690.52 1519.86 690.52 1529.23 690.52 1538.59 690.52 1547.96 690.52 1557.33 690.52 1566.69 690.52 1576.06 690.52 1585.42 690.52 1585.42 699.91 1594.79 699.91 1604.15 699.91 1613.52 699.91 1622.89 699.91 1632.25 699.91 1641.62 699.91 1650.98 699.91 1660.35 699.91 1669.71 699.91 1679.08 699.91 1679.08 690.52 1688.45 690.52 1697.81 690.52 1707.18 690.52 1716.54 690.52 1716.54 699.91 1725.91 699.91 1735.28 699.91 1735.28 690.52 1744.64 690.52 1754.01 690.52 1754.01 681.13 1744.64 681.13"/></g></g><g id="nuage4"><g class="cls-2"><polygon class="cls-6" points="1559.89 498 1559.89 488.61 1559.89 479.22 1569.26 479.22 1578.63 479.22 1587.99 479.22 1587.99 469.83 1587.99 460.44 1597.36 460.44 1597.36 451.04 1606.72 451.04 1606.72 441.65 1616.09 441.65 1625.45 441.65 1625.45 432.26 1634.82 432.26 1644.19 432.26 1653.55 432.26 1662.92 432.26 1662.92 422.87 1672.28 422.87 1672.28 413.48 1681.65 413.48 1691.02 413.48 1700.38 413.48 1709.75 413.48 1719.11 413.48 1719.11 404.09 1728.48 404.09 1728.48 394.7 1737.85 394.7 1747.21 394.7 1756.58 394.7 1756.58 385.3 1765.94 385.3 1775.31 385.3 1775.31 394.7 1784.67 394.7 1794.04 394.7 1794.04 404.09 1803.41 404.09 1812.77 404.09 1822.14 404.09 1831.5 404.09 1840.87 404.09 1850.23 404.09 1859.6 404.09 1868.97 404.09 1868.97 413.48 1878.33 413.48 1887.7 413.48 1887.7 422.87 1887.7 432.26 1887.7 441.65 1897.06 441.65 1897.06 451.04 1906.43 451.04 1906.43 460.44 1915.8 460.44 1915.8 469.83 1915.8 479.22 1915.8 488.61 1925.16 488.61 1925.16 498 1925.16 507.39 1915.8 507.39 1915.8 498 1906.43 498 1906.43 488.61 1897.06 488.61 1897.06 479.22 1887.7 479.22 1887.7 469.83 1878.33 469.83 1878.33 460.44 1868.97 460.44 1859.6 460.44 1850.23 460.44 1840.87 460.44 1831.5 460.44 1831.5 469.83 1822.14 469.83 1822.14 479.22 1812.77 479.22 1803.41 479.22 1803.41 469.83 1794.04 469.83 1794.04 460.44 1784.67 460.44 1784.67 451.04 1775.31 451.04 1775.31 441.65 1765.94 441.65 1765.94 432.26 1756.58 432.26 1756.58 422.87 1747.21 422.87 1737.85 422.87 1728.48 422.87 1719.11 422.87 1719.11 432.26 1709.75 432.26 1700.38 432.26 1700.38 441.65 1691.02 441.65 1681.65 441.65 1681.65 451.04 1681.65 460.44 1681.65 469.83 1681.65 479.22 1672.28 479.22 1662.92 479.22 1653.55 479.22 1653.55 469.83 1644.19 469.83 1644.19 460.44 1634.82 460.44 1625.45 460.44 1616.09 460.44 1616.09 469.83 1616.09 479.22 1606.72 479.22 1606.72 488.61 1597.36 488.61 1587.99 488.61 1578.63 488.61 1578.63 498 1569.26 498 1569.26 507.39 1559.89 507.39 1559.89 516.78 1550.53 516.78 1550.53 507.39 1550.53 498 1559.89 498"/><polygon class="cls-6" points="1430.89 507.39 1430.89 498 1430.89 488.61 1440.25 488.61 1449.62 488.61 1458.98 488.61 1458.98 479.22 1458.98 469.83 1468.35 469.83 1468.35 460.44 1477.71 460.44 1477.71 451.04 1487.08 451.04 1496.45 451.04 1496.45 441.65 1505.81 441.65 1515.18 441.65 1524.54 441.65 1533.91 441.65 1533.91 432.26 1543.28 432.26 1543.28 422.87 1552.64 422.87 1562.01 422.87 1571.37 422.87 1580.74 422.87 1590.11 422.87 1590.11 413.48 1599.47 413.48 1599.47 404.09 1608.84 404.09 1618.2 404.09 1627.57 404.09 1627.57 394.7 1636.93 394.7 1646.3 394.7 1646.3 404.09 1655.67 404.09 1665.03 404.09 1665.03 413.48 1674.4 413.48 1683.76 413.48 1693.13 413.48 1702.5 413.48 1711.86 413.48 1721.23 413.48 1730.59 413.48 1739.96 413.48 1739.96 422.87 1749.33 422.87 1758.69 422.87 1758.69 432.26 1758.69 441.65 1758.69 451.04 1768.06 451.04 1768.06 460.44 1777.42 460.44 1777.42 469.83 1786.79 469.83 1786.79 479.22 1786.79 488.61 1786.79 498 1796.15 498 1796.15 507.39 1796.15 516.78 1786.79 516.78 1786.79 507.39 1777.42 507.39 1777.42 498 1768.06 498 1768.06 488.61 1758.69 488.61 1758.69 479.22 1749.33 479.22 1749.33 469.83 1739.96 469.83 1730.59 469.83 1721.23 469.83 1711.86 469.83 1702.5 469.83 1702.5 479.22 1693.13 479.22 1693.13 488.61 1683.76 488.61 1674.4 488.61 1674.4 479.22 1665.03 479.22 1665.03 469.83 1655.67 469.83 1655.67 460.44 1646.3 460.44 1646.3 451.04 1636.93 451.04 1636.93 441.65 1627.57 441.65 1627.57 432.26 1618.2 432.26 1608.84 432.26 1599.47 432.26 1590.11 432.26 1590.11 441.65 1580.74 441.65 1571.37 441.65 1571.37 451.04 1562.01 451.04 1552.64 451.04 1552.64 460.44 1552.64 469.83 1552.64 479.22 1552.64 488.61 1543.28 488.61 1533.91 488.61 1524.54 488.61 1524.54 479.22 1515.18 479.22 1515.18 469.83 1505.81 469.83 1496.45 469.83 1487.08 469.83 1487.08 479.22 1487.08 488.61 1477.71 488.61 1477.71 498 1468.35 498 1458.98 498 1449.62 498 1449.62 507.39 1440.25 507.39 1440.25 516.78 1430.89 516.78 1430.89 526.17 1421.52 526.17 1421.52 516.78 1421.52 507.39 1430.89 507.39"/><polygon class="cls-5" points="1906.43 526.17 1906.43 535.57 1897.06 535.57 1887.7 535.57 1878.33 535.57 1878.33 526.17 1868.97 526.17 1859.6 526.17 1859.6 516.78 1850.23 516.78 1840.87 516.78 1831.5 516.78 1822.14 516.78 1822.14 526.17 1812.77 526.17 1812.77 516.78 1812.77 507.39 1803.41 507.39 1803.41 498 1794.04 498 1784.67 498 1775.31 498 1765.94 498 1765.94 507.39 1756.58 507.39 1747.21 507.39 1747.21 516.78 1737.85 516.78 1728.48 516.78 1719.11 516.78 1719.11 507.39 1709.75 507.39 1709.75 498 1700.38 498 1700.38 488.61 1691.02 488.61 1681.65 488.61 1681.65 479.22 1672.28 479.22 1662.92 479.22 1653.55 479.22 1653.55 488.61 1644.19 488.61 1644.19 498 1634.82 498 1634.82 507.39 1625.45 507.39 1625.45 516.78 1618.2 516.78 1616.09 516.78 1616.09 507.39 1616.09 498 1606.72 498 1606.72 488.61 1597.36 488.61 1587.99 488.61 1578.63 488.61 1578.63 498 1571.37 498 1569.26 498 1562.01 498 1552.64 498 1552.64 488.61 1543.28 488.61 1533.91 488.61 1524.54 488.61 1524.54 498 1515.18 498 1515.18 507.39 1505.81 507.39 1505.81 516.78 1496.45 516.78 1496.45 526.17 1487.08 526.17 1487.08 516.78 1487.08 507.39 1477.71 507.39 1477.71 498 1468.35 498 1458.98 498 1449.62 498 1449.62 507.39 1440.25 507.39 1440.25 516.78 1430.89 516.78 1430.89 526.17 1421.52 526.17 1421.52 535.57 1421.52 544.96 1421.52 554.35 1430.89 554.35 1430.89 563.74 1440.25 563.74 1440.25 573.13 1449.62 573.13 1458.98 573.13 1468.35 573.13 1477.71 573.13 1487.08 573.13 1496.45 573.13 1505.81 573.13 1515.18 573.13 1515.18 582.52 1524.54 582.52 1533.91 582.52 1543.28 582.52 1552.64 582.52 1562.01 582.52 1571.37 582.52 1580.74 582.52 1580.74 573.13 1590.11 573.13 1599.47 573.13 1608.84 573.13 1618.2 573.13 1618.2 563.74 1625.45 563.74 1627.57 563.74 1627.57 573.13 1636.93 573.13 1644.19 573.13 1646.3 573.13 1653.55 573.13 1655.67 573.13 1662.92 573.13 1665.03 573.13 1665.03 582.52 1674.4 582.52 1683.76 582.52 1693.13 582.52 1702.5 582.52 1711.86 582.52 1711.86 573.13 1721.23 573.13 1730.59 573.13 1739.96 573.13 1749.33 573.13 1758.69 573.13 1768.06 573.13 1768.06 563.74 1775.31 563.74 1777.42 563.74 1784.67 563.74 1794.04 563.74 1794.04 573.13 1803.41 573.13 1812.77 573.13 1822.14 573.13 1831.5 573.13 1840.87 573.13 1840.87 563.74 1850.23 563.74 1859.6 563.74 1868.97 563.74 1878.33 563.74 1887.7 563.74 1897.06 563.74 1897.06 554.35 1906.43 554.35 1906.43 544.96 1915.8 544.96 1915.8 535.57 1915.8 526.17 1906.43 526.17"/><polygon class="cls-4" points="1515.18 469.83 1505.81 469.83 1496.45 469.83 1487.08 469.83 1487.08 479.22 1487.08 488.61 1477.71 488.61 1477.71 498 1477.71 507.39 1487.08 507.39 1487.08 516.78 1487.08 526.17 1496.45 526.17 1496.45 516.78 1505.81 516.78 1505.81 507.39 1515.18 507.39 1515.18 498 1524.54 498 1524.54 488.61 1524.54 479.22 1515.18 479.22 1515.18 469.83"/><polygon class="cls-4" points="1915.8 507.39 1915.8 498 1906.43 498 1906.43 488.61 1897.06 488.61 1897.06 479.22 1887.7 479.22 1887.7 469.83 1878.33 469.83 1878.33 460.44 1868.97 460.44 1859.6 460.44 1850.23 460.44 1840.87 460.44 1831.5 460.44 1831.5 469.83 1822.14 469.83 1822.14 479.22 1812.77 479.22 1803.41 479.22 1803.41 469.83 1794.04 469.83 1794.04 460.44 1784.67 460.44 1784.67 451.04 1775.31 451.04 1775.31 441.65 1765.94 441.65 1765.94 432.26 1756.58 432.26 1756.58 422.87 1747.21 422.87 1737.85 422.87 1728.48 422.87 1719.11 422.87 1719.11 432.26 1709.75 432.26 1700.38 432.26 1700.38 441.65 1691.02 441.65 1681.65 441.65 1681.65 451.04 1681.65 460.44 1681.65 469.83 1681.65 479.22 1681.65 488.61 1674.4 488.61 1674.4 479.22 1665.03 479.22 1665.03 469.83 1655.67 469.83 1655.67 460.44 1646.3 460.44 1646.3 451.04 1636.93 451.04 1636.93 441.65 1627.57 441.65 1627.57 432.26 1618.2 432.26 1608.84 432.26 1599.47 432.26 1590.11 432.26 1590.11 441.65 1580.74 441.65 1571.37 441.65 1571.37 451.04 1562.01 451.04 1552.64 451.04 1552.64 460.44 1552.64 469.83 1552.64 479.22 1552.64 488.61 1552.64 498 1562.01 498 1571.37 498 1571.37 507.39 1580.74 507.39 1580.74 516.78 1590.11 516.78 1590.11 526.17 1599.47 526.17 1608.84 526.17 1618.2 526.17 1618.2 516.78 1625.45 516.78 1627.57 516.78 1636.93 516.78 1636.93 507.39 1646.3 507.39 1655.67 507.39 1665.03 507.39 1674.4 507.39 1674.4 516.78 1683.76 516.78 1683.76 526.17 1683.76 535.57 1693.13 535.57 1693.13 526.17 1702.5 526.17 1711.86 526.17 1721.23 526.17 1730.59 526.17 1730.59 535.57 1739.96 535.57 1749.33 535.57 1749.33 544.96 1758.69 544.96 1768.06 544.96 1777.42 544.96 1777.42 535.57 1786.79 535.57 1786.79 526.17 1796.15 526.17 1796.15 516.78 1786.79 516.78 1786.79 507.39 1777.42 507.39 1777.42 498 1784.67 498 1794.04 498 1803.41 498 1803.41 507.39 1812.77 507.39 1812.77 516.78 1812.77 526.17 1822.14 526.17 1822.14 516.78 1831.5 516.78 1840.87 516.78 1850.23 516.78 1859.6 516.78 1859.6 526.17 1868.97 526.17 1878.33 526.17 1878.33 535.57 1887.7 535.57 1897.06 535.57 1906.43 535.57 1906.43 526.17 1915.8 526.17 1915.8 516.78 1925.16 516.78 1925.16 507.39 1915.8 507.39"/></g></g><g id="nuage5"><g class="cls-2"><rect class="cls-3" x="1580.98" y="284.35" width="9.37" height="9.39"/><rect class="cls-3" x="1473.28" y="279.65" width="9.37" height="9.39"/><rect class="cls-3" x="1346.84" y="307.83" width="9.37" height="9.39"/><rect class="cls-3" x="1492.02" y="265.57" width="9.37" height="9.39"/><path class="cls-3" d="M1707.42,199.83H1670V181h-9.37v-9.39h-18.73v-9.39h-18.73v-9.39H1576.3v9.39h-18.73v9.39h-9.37v-9.39h-9.36v-9.39h-28.1v-9.39h-37.46v9.39h-18.74v9.39h-26v-9.39H1409.8v-9.39H1403v-4.7h-56.19V120h-9.37v-9.39h-18.73v-9.39H1300V91.83h-46.83v9.39h-18.73v9.39h-9.37v-9.39h-9.36V91.83h-28.1v-9.4h-37.47v9.4h-18.73v9.39h-9.36V120h-9.37v28.17h-65.56v9.4h-9.37V167h-9.36v18.78H1019v9.39H944.11v9.39h-9.37v9.39h-14v-4.69h9.36v-9.39H897.28v-4.7h-9.37v-9.39h-14V181H864.5v-9.39H845.77v-9.39H827v-9.39H780.21v9.39H761.48v9.39h-9.37v-9.39h-9.36v-9.39h-28.1v-9.39H677.19v9.39H658.45v9.39h-9.36V181h-9.37v28.18H574.16v9.39H564.8V228h-9.37v18.78h-9.37v9.39H471.14v9.4h-9.37V275H443v-9.39H424.31v-9.4h-9.37v-9.39h-28.1v9.39h-9.36v9.4h-9.37v-9.4H321.28v9.4H302.55V275h-9.36v9.39h-9.37v28.17h-9.37v9.39h-9.36v-9.39h-9.37v-9.39h-9.36v-9.39h-56.2v9.39H180.8v9.39H143.33v9.39H134V340.7H124.6v9.39H77.77v9.39H68.41V397h9.36v-9.39H96.5v-9.39h18.73v-9.39H134v-9.39h9.36v-9.39h9.37V340.7h18.73v-9.4h18.73v-9.39h37.46v9.39h18.74v9.4h9.36v9.39h9.37v18.78h18.73v-9.39h18.73v-9.39h9.37V340.7h18.73v-9.4H340v-9.39h28.09v-9.39h28.1v-9.39h18.73v9.39h18.73v9.39h28.1v9.39H480.5v-9.39h9.37v-9.39h9.36v-9.39h9.37v-9.39H518v-9.39h28.09V275h56.2v4.69h-4.69V289H550.74v9.39h-9.37V336h9.37v-9.39h18.73v-9.39H588.2v-9.39h18.73v-9.4h9.37v-4.69H621v9.39h18.73v9.39h9.37V293.74h9.36V275h9.37V260.87h32.77v9.39h18.73v9.39h9.37V289h9.37v9.39H719.32v4.7h-51.5v4.7H653.76v9.39H635v4.69H621v9.39h-9.37V336h-9.36v9.39h-9.37v14.09H588.2v-4.7h-9.36v-9.39h-56.2v9.39h-9.36v9.39H475.81v9.4h-9.36v18.78h-9.37v9.39H410.25v9.39h-9.36V448.7h9.36v-9.4H429v-9.39h18.74v-9.39h18.73v-9.39h9.36v-9.39h9.37v-9.39h18.73V383h18.73v-9.39H536.7V383h-9.37v37.56h9.37v-9.39h18.73v-4.7h0v-4.69h18.73V397h0v-4.69h14v9.39h9.37v18.78H616.3v-9.39H635v14.09h9.37v-9.39h18.73v-9.4h18.73V397h18.73v-9.39H710v-9.39h9.36v-4.69H724v18.78h18.73V383h18.73v-4.7h0v-4.69h32.77V383H813v-9.39h9.37v4.69h9.37V397h18.73v-9.39h14V397h9.36v-9.39h18.73v-9.39h18.73v-9.39h18.74v-9.39h9.36v-4.7h0v-4.69h9.36v-4.7h4.68v9.39H972.2v9.39h9.37V345.39h9.36V340.7h9.37v9.39h28.1v9.39h18.73v-9.39h14v18.78h18.73v-9.39h18.73v-9.39H1108V340.7h18.73v-9.4h9.37v-4.69h14V336h28.1v-9.39h9.37v-4.7h0v9.39h18.73v9.4h9.37V321.91h9.36v-9.39h4.68v9.39h28.1v9.39h18.73v-9.39H1286v-9.39h9.36v-4.69h9.38v-9.4h9.36v-4.69h9.37v-9.39h23.41v9.39h18.73v9.39h18.73v9.39h28.1v-9.39h23.41v9.39h9.37V293.74h9.36V275h9.37V256.17h18.73v-9.39h74.93v9.39h18.73v9.4H1595V275h18.73v9.39h28.1V275h9.37V256.17h9.36v-9.39H1670v-9.39h9.36V228h18.74v-9.39h18.73v-9.39h9.36v-9.39h-18.73ZM869.18,251.48v-4.7h4.69v-4.69h14v9.39h16.14v4.69H864.5v9.4h-9.36v4.69h0V256.17h9.36v-4.69Zm-140.49,0v-4.7h28.1v4.7h-9.37v9.39h-9.36v-9.39ZM681.86,378.26h-2.59v-4.69h12v4.69Z"/><rect class="cls-3" x="1810.45" y="256.17" width="9.37" height="9.39"/><polygon class="cls-4" points="1847.91 368.87 1847.91 359.48 1847.91 350.09 1847.91 340.7 1838.54 340.7 1829.18 340.7 1829.18 331.3 1819.81 331.3 1819.81 321.91 1819.81 312.52 1829.18 312.52 1829.18 303.13 1829.18 293.74 1829.18 284.35 1819.81 284.35 1819.81 274.96 1819.81 265.56 1810.45 265.56 1810.45 256.17 1801.08 256.17 1791.71 256.17 1782.35 256.17 1772.98 256.17 1772.98 246.78 1763.62 246.78 1763.62 237.39 1763.62 228 1754.25 228 1754.25 218.61 1744.89 218.61 1744.89 209.22 1735.52 209.22 1726.15 209.22 1716.79 209.22 1716.79 218.61 1707.42 218.61 1698.06 218.61 1698.06 228 1688.69 228 1679.33 228 1679.33 237.39 1669.96 237.39 1669.96 246.78 1660.59 246.78 1660.59 256.17 1651.23 256.17 1651.23 265.56 1651.23 274.96 1641.86 274.96 1641.86 284.35 1632.49 284.35 1623.13 284.35 1613.76 284.35 1613.76 274.96 1604.4 274.96 1595.03 274.96 1595.03 265.56 1585.67 265.56 1576.3 265.56 1576.3 256.17 1566.93 256.17 1557.57 256.17 1557.57 246.78 1548.2 246.78 1538.84 246.78 1529.47 246.78 1520.11 246.78 1510.74 246.78 1501.37 246.78 1492.01 246.78 1482.64 246.78 1482.64 256.17 1477.96 256.17 1473.28 256.17 1468.59 256.17 1463.91 256.17 1459.23 256.17 1449.86 256.17 1449.86 246.78 1440.5 246.78 1440.5 237.39 1440.5 228 1431.13 228 1431.13 218.61 1421.76 218.61 1421.76 209.22 1412.4 209.22 1403.03 209.22 1393.67 209.22 1393.67 218.61 1384.3 218.61 1374.93 218.61 1374.93 228 1365.57 228 1356.2 228 1356.2 237.39 1346.84 237.39 1346.84 246.78 1337.47 246.78 1337.47 256.17 1328.11 256.17 1328.11 265.56 1328.11 274.96 1318.74 274.96 1318.74 284.35 1314.06 284.35 1309.37 284.35 1300.01 284.35 1290.64 284.35 1290.64 274.96 1281.28 274.96 1271.91 274.96 1271.91 265.56 1262.54 265.56 1253.18 265.56 1253.18 256.17 1243.81 256.17 1234.45 256.17 1234.45 246.78 1225.08 246.78 1215.71 246.78 1206.35 246.78 1196.98 246.78 1187.62 246.78 1178.25 246.78 1168.89 246.78 1159.52 246.78 1159.52 256.17 1150.15 256.17 1140.79 256.17 1140.79 265.56 1140.79 274.96 1131.42 274.96 1131.42 284.35 1131.42 293.74 1122.06 293.74 1122.06 303.13 1122.06 312.52 1112.69 312.52 1112.69 303.13 1103.33 303.13 1093.96 303.13 1093.96 293.74 1084.59 293.74 1084.59 284.35 1075.23 284.35 1075.23 274.96 1065.86 274.96 1056.5 274.96 1047.13 274.96 1037.76 274.96 1028.4 274.96 1023.72 274.96 1023.72 265.56 1014.36 265.56 1014.36 256.17 1004.99 256.17 995.63 256.17 986.26 256.17 976.89 256.17 976.89 246.78 967.53 246.78 967.53 237.39 967.53 228 958.16 228 958.16 218.61 948.8 218.61 948.8 209.22 939.43 209.22 930.06 209.22 920.7 209.22 920.7 218.61 911.33 218.61 901.97 218.61 901.97 228 892.6 228 883.24 228 883.24 237.39 873.87 237.39 873.87 246.78 864.5 246.78 864.5 256.17 855.14 256.17 855.14 265.56 855.14 274.96 845.77 274.96 845.77 284.35 836.4 284.35 827.04 284.35 817.67 284.35 817.67 274.96 808.31 274.96 798.94 274.96 798.94 265.56 789.58 265.56 780.21 265.56 780.21 256.17 770.84 256.17 761.48 256.17 761.48 246.78 752.11 246.78 742.75 246.78 733.38 246.78 724.01 246.78 714.65 246.78 705.28 246.78 695.92 246.78 686.55 246.78 686.55 256.17 677.19 256.17 667.82 256.17 667.82 265.56 667.82 274.96 658.45 274.96 658.45 284.35 658.45 293.74 649.09 293.74 649.09 303.13 649.09 312.52 639.72 312.52 639.72 303.13 630.36 303.13 620.99 303.13 620.99 293.74 611.63 293.74 611.63 284.35 602.26 284.35 602.26 274.96 592.89 274.96 583.53 274.96 574.16 274.96 564.8 274.96 555.43 274.96 546.06 274.96 546.06 284.35 536.7 284.35 527.33 284.35 517.97 284.35 517.97 293.74 508.6 293.74 508.6 303.13 499.24 303.13 499.24 312.52 489.87 312.52 489.87 321.91 480.5 321.91 480.5 331.3 471.14 331.3 461.77 331.3 461.77 321.91 452.4 321.91 443.04 321.91 433.67 321.91 433.67 312.52 424.31 312.52 414.94 312.52 414.94 303.13 405.58 303.13 396.21 303.13 396.21 312.52 386.84 312.52 377.48 312.52 368.11 312.52 368.11 321.91 358.75 321.91 349.38 321.91 340.01 321.91 340.01 331.3 330.65 331.3 330.65 340.7 321.28 340.7 311.92 340.7 311.92 350.09 302.55 350.09 302.55 359.48 293.19 359.48 283.82 359.48 283.82 368.87 293.19 368.87 302.55 368.87 302.55 378.26 311.92 378.26 321.28 378.26 330.65 378.26 330.65 387.65 340.01 387.65 340.01 397.04 349.38 397.04 349.38 406.44 358.75 406.44 368.11 406.44 377.48 406.44 377.48 415.83 386.84 415.83 396.21 415.83 405.58 415.83 414.94 415.83 424.31 415.83 433.67 415.83 433.67 406.44 443.04 406.44 452.4 406.44 452.4 397.04 461.77 397.04 471.14 397.04 480.5 397.04 489.87 397.04 489.87 406.44 499.24 406.44 508.6 406.44 508.6 415.83 517.97 415.83 527.33 415.83 536.7 415.83 546.06 415.83 555.43 415.83 564.8 415.83 574.16 415.83 583.53 415.83 583.53 425.22 592.89 425.22 592.89 415.83 597.57 415.83 602.26 415.83 606.93 415.83 616.3 415.83 625.67 415.83 635.03 415.83 635.03 406.44 644.4 406.44 653.76 406.44 663.13 406.44 672.5 406.44 681.86 406.44 681.86 415.83 691.23 415.83 700.59 415.83 709.96 415.83 709.96 406.44 714.65 406.44 714.65 415.83 724.01 415.83 724.01 425.22 733.38 425.22 733.38 415.83 742.75 415.83 752.11 415.83 761.48 415.83 761.48 406.44 770.84 406.44 770.84 397.04 780.21 397.04 789.58 397.04 789.58 387.65 798.94 387.65 803.62 387.65 808.31 387.65 812.98 387.65 812.98 397.04 822.35 397.04 822.35 406.44 831.72 406.44 841.08 406.44 850.45 406.44 850.45 415.83 859.81 415.83 864.5 415.83 869.18 415.83 873.87 415.83 878.54 415.83 883.24 415.83 887.91 415.83 892.6 415.83 897.28 415.83 906.64 415.83 906.64 406.44 911.33 406.44 911.33 415.83 920.69 415.83 930.06 415.83 939.42 415.83 948.79 415.83 958.15 415.83 958.15 406.44 958.16 406.44 962.84 406.44 967.52 406.44 967.53 406.44 972.2 406.44 976.89 406.44 976.89 406.44 981.57 406.44 981.57 415.83 990.93 415.83 1000.3 415.83 1004.98 415.83 1009.67 415.83 1014.35 415.83 1019.03 415.83 1023.72 415.83 1028.4 415.83 1033.08 415.83 1037.76 415.83 1047.13 415.83 1056.5 415.83 1056.5 425.22 1065.86 425.22 1065.86 415.83 1075.23 415.83 1075.23 406.44 1084.59 406.44 1084.59 397.04 1084.59 387.65 1093.96 387.65 1093.96 378.26 1098.64 378.26 1103.33 378.26 1108.01 378.26 1112.69 378.26 1117.37 378.26 1122.06 378.26 1126.74 378.26 1126.74 387.65 1136.11 387.65 1136.11 397.04 1145.47 397.04 1145.47 406.44 1154.84 406.44 1164.2 406.44 1173.57 406.44 1173.57 415.83 1182.93 415.83 1187.62 415.83 1192.3 415.83 1196.98 415.83 1196.98 425.22 1206.35 425.22 1206.35 415.83 1211.03 415.83 1215.71 415.83 1220.4 415.83 1225.08 415.83 1229.76 415.83 1234.45 415.83 1234.45 406.44 1239.13 406.44 1243.81 406.44 1248.49 406.44 1248.49 397.04 1253.18 397.04 1257.86 397.04 1262.54 397.04 1267.23 397.04 1276.59 397.04 1285.96 397.04 1285.96 406.44 1295.33 406.44 1304.69 406.44 1304.69 415.83 1314.06 415.83 1323.42 415.83 1332.79 415.83 1337.47 415.83 1342.15 415.83 1346.84 415.83 1351.52 415.83 1356.2 415.83 1360.89 415.83 1365.57 415.83 1370.25 415.83 1379.62 415.83 1379.62 425.22 1388.98 425.22 1388.98 415.83 1398.35 415.83 1398.35 406.44 1407.71 406.44 1407.71 397.04 1412.4 397.04 1421.76 397.04 1421.76 406.44 1431.13 406.44 1440.5 406.44 1449.86 406.44 1449.86 397.04 1459.23 397.04 1459.23 387.65 1468.59 387.65 1468.59 378.26 1473.28 378.26 1473.28 387.65 1482.64 387.65 1492.01 387.65 1492.01 397.04 1501.37 397.04 1501.37 406.44 1510.74 406.44 1510.74 415.83 1520.11 415.83 1520.11 425.22 1529.47 425.22 1529.47 415.83 1538.84 415.83 1548.2 415.83 1557.57 415.83 1557.57 406.44 1566.93 406.44 1566.93 397.04 1576.3 397.04 1585.67 397.04 1585.67 387.65 1595.03 387.65 1604.4 387.65 1613.76 387.65 1623.13 387.65 1632.49 387.65 1641.86 387.65 1641.86 397.04 1651.23 397.04 1651.23 406.44 1660.59 406.44 1660.59 415.83 1669.96 415.83 1679.33 415.83 1688.69 415.83 1688.69 406.44 1698.06 406.44 1698.06 397.04 1707.42 397.04 1716.79 397.04 1726.15 397.04 1735.52 397.04 1744.89 397.04 1744.89 406.44 1754.25 406.44 1763.62 406.44 1772.98 406.44 1772.98 397.04 1782.35 397.04 1782.35 387.65 1791.71 387.65 1791.71 378.26 1801.08 378.26 1810.45 378.26 1819.81 378.26 1829.18 378.26 1829.18 387.65 1838.54 387.65 1847.91 387.65 1857.28 387.65 1857.28 378.26 1857.28 368.87 1847.91 368.87"/><polygon class="cls-4" points="265.09 368.87 265.09 359.48 265.09 350.09 255.72 350.09 255.72 340.7 246.36 340.7 246.36 331.3 236.99 331.3 227.63 331.3 227.63 321.91 218.26 321.91 208.89 321.91 199.53 321.91 190.16 321.91 190.16 331.3 180.8 331.3 171.43 331.3 171.43 340.7 162.06 340.7 152.7 340.7 152.7 350.09 143.33 350.09 143.33 359.48 133.97 359.48 133.97 368.87 124.6 368.87 115.23 368.87 115.23 378.26 105.87 378.26 96.5 378.26 96.5 387.65 87.14 387.65 77.77 387.65 77.77 397.04 77.77 406.44 87.14 406.44 96.5 406.44 105.87 406.44 115.23 406.44 115.23 415.83 124.6 415.83 133.97 415.83 143.33 415.83 152.7 415.83 162.06 415.83 162.06 406.44 171.43 406.44 180.8 406.44 190.16 406.44 199.53 406.44 208.89 406.44 208.89 415.83 218.26 415.83 227.63 415.83 236.99 415.83 236.99 406.44 246.36 406.44 246.36 397.04 255.72 397.04 255.72 387.65 265.09 387.65 265.09 378.26 274.45 378.26 283.82 378.26 283.82 368.87 274.45 368.87 265.09 368.87"/><polygon class="cls-5" points="1866.64 406.44 1866.64 397.04 1857.28 397.04 1857.28 387.65 1847.91 387.65 1838.54 387.65 1829.18 387.65 1829.18 378.26 1819.81 378.26 1810.45 378.26 1801.08 378.26 1791.71 378.26 1791.71 387.65 1782.35 387.65 1782.35 397.04 1772.98 397.04 1772.98 406.44 1763.62 406.44 1754.25 406.44 1744.89 406.44 1744.89 397.04 1735.52 397.04 1726.15 397.04 1716.79 397.04 1707.42 397.04 1698.06 397.04 1698.06 406.44 1688.69 406.44 1688.69 415.83 1679.33 415.83 1669.96 415.83 1660.59 415.83 1660.59 406.44 1651.23 406.44 1651.23 397.04 1641.86 397.04 1641.86 387.65 1632.49 387.65 1623.13 387.65 1613.76 387.65 1604.4 387.65 1595.03 387.65 1585.67 387.65 1585.67 397.04 1576.3 397.04 1566.93 397.04 1566.93 406.44 1557.57 406.44 1557.57 415.83 1552.89 415.83 1552.89 406.44 1543.52 406.44 1543.52 397.04 1534.15 397.04 1534.15 387.65 1524.79 387.65 1515.42 387.65 1506.06 387.65 1506.06 378.26 1496.69 378.26 1487.33 378.26 1477.96 378.26 1473.28 378.26 1468.59 378.26 1463.91 378.26 1454.54 378.26 1445.18 378.26 1435.81 378.26 1426.45 378.26 1417.08 378.26 1417.08 387.65 1407.71 387.65 1407.71 397.04 1403.03 397.04 1393.67 397.04 1384.3 397.04 1374.93 397.04 1374.93 406.44 1365.57 406.44 1365.57 415.83 1360.89 415.83 1356.2 415.83 1351.52 415.83 1346.84 415.83 1342.15 415.83 1337.47 415.83 1337.47 406.44 1328.11 406.44 1328.11 397.04 1318.74 397.04 1318.74 387.65 1309.37 387.65 1300.01 387.65 1290.64 387.65 1281.28 387.65 1271.91 387.65 1262.54 387.65 1262.54 397.04 1257.86 397.04 1253.18 397.04 1248.49 397.04 1243.81 397.04 1243.81 406.44 1239.13 406.44 1234.45 406.44 1229.76 406.44 1229.76 415.83 1225.08 415.83 1220.4 415.83 1215.71 415.83 1211.03 415.83 1206.35 415.83 1201.67 415.83 1196.98 415.83 1192.3 415.83 1187.62 415.83 1187.62 406.44 1178.25 406.44 1178.25 397.04 1168.89 397.04 1168.89 387.65 1159.52 387.65 1150.15 387.65 1150.15 378.26 1140.79 378.26 1131.42 378.26 1126.74 378.26 1122.06 378.26 1117.37 378.26 1112.69 378.26 1108.01 378.26 1103.33 378.26 1098.64 378.26 1098.64 368.87 1089.28 368.87 1079.91 368.87 1079.91 378.26 1070.54 378.26 1061.18 378.26 1061.18 387.65 1051.82 387.65 1051.81 387.65 1042.45 387.65 1033.09 387.65 1033.09 378.26 1023.72 378.26 1014.36 378.26 1004.99 378.26 995.63 378.26 995.63 387.65 986.26 387.65 986.26 397.04 976.89 397.04 976.89 406.44 976.89 406.44 972.2 406.44 967.53 406.44 967.52 406.44 962.84 406.44 962.84 397.04 953.47 397.04 948.8 397.04 944.11 397.04 939.43 397.04 934.74 397.04 930.06 397.04 925.37 397.04 920.7 397.04 911.33 397.04 901.97 397.04 901.97 406.44 901.96 406.44 892.6 406.44 892.59 406.44 883.23 406.44 873.86 406.44 873.86 415.83 869.18 415.83 864.5 415.83 864.5 406.44 855.14 406.44 855.14 397.04 845.77 397.04 845.77 387.65 836.4 387.65 827.04 387.65 817.67 387.65 812.98 387.65 808.31 387.65 803.62 387.65 803.62 378.26 794.25 378.26 784.89 378.26 775.52 378.26 775.52 368.87 766.15 368.87 756.79 368.87 756.79 378.26 747.42 378.26 738.06 378.26 738.06 387.65 728.69 387.65 728.69 397.04 719.33 397.04 719.33 406.44 714.65 406.44 709.96 406.44 705.28 406.44 705.28 397.04 695.92 397.04 695.92 387.65 686.55 387.65 677.19 387.65 677.19 378.26 667.82 378.26 658.45 378.26 649.09 378.26 639.72 378.26 630.36 378.26 620.99 378.26 620.99 387.65 611.63 387.65 611.63 397.04 611.63 406.44 602.26 406.44 602.26 415.83 597.57 415.83 592.89 415.83 588.2 415.83 588.2 406.44 578.84 406.44 569.47 406.44 560.11 406.44 550.74 406.44 550.74 415.83 546.06 415.83 541.37 415.83 536.7 415.83 527.33 415.83 517.97 415.83 508.6 415.83 508.6 406.44 499.24 406.44 489.87 406.44 489.87 397.04 480.5 397.04 471.14 397.04 461.77 397.04 452.4 397.04 452.4 406.44 443.04 406.44 433.67 406.44 433.67 415.83 424.31 415.83 414.94 415.83 405.58 415.83 396.21 415.83 386.84 415.83 377.48 415.83 377.48 406.44 368.11 406.44 358.75 406.44 349.38 406.44 349.38 397.04 340.01 397.04 340.01 387.65 330.65 387.65 330.65 378.26 321.28 378.26 311.92 378.26 302.55 378.26 302.55 368.87 293.19 368.87 283.82 368.87 283.82 378.26 274.45 378.26 265.09 378.26 265.09 387.65 255.72 387.65 255.72 397.04 246.36 397.04 246.36 406.44 236.99 406.44 236.99 415.83 227.63 415.83 218.26 415.83 208.89 415.83 208.89 406.44 199.53 406.44 190.16 406.44 180.8 406.44 171.43 406.44 162.06 406.44 162.06 415.83 152.7 415.83 143.33 415.83 133.97 415.83 124.6 415.83 115.23 415.83 115.23 406.44 105.87 406.44 96.5 406.44 87.14 406.44 77.77 406.44 77.77 415.83 68.41 415.83 68.41 425.22 77.77 425.22 77.77 434.61 87.14 434.61 87.14 444 96.5 444 105.87 444 115.23 444 124.6 444 133.97 444 143.33 444 152.7 444 162.06 444 162.06 434.61 171.43 434.61 180.8 434.61 190.16 434.61 199.53 434.61 208.89 434.61 218.26 434.61 227.63 434.61 236.99 434.61 236.99 444 246.36 444 255.72 444 255.72 453.39 265.09 453.39 274.45 453.39 274.45 462.78 283.82 462.78 283.82 472.17 293.19 472.17 302.55 472.17 311.92 472.17 321.28 472.17 330.65 472.17 340.01 472.17 349.38 472.17 358.75 472.17 358.75 462.78 368.11 462.78 377.48 462.78 386.84 462.78 396.21 462.78 405.58 462.78 414.94 462.78 414.94 453.39 424.31 453.39 433.67 453.39 443.04 453.39 452.4 453.39 461.77 453.39 471.14 453.39 480.5 453.39 489.87 453.39 499.24 453.39 499.24 462.78 508.6 462.78 517.97 462.78 527.33 462.78 536.7 462.78 546.06 462.78 546.06 472.17 555.43 472.17 564.8 472.17 574.16 472.17 583.53 472.17 592.89 472.17 602.26 472.17 611.63 472.17 620.99 472.17 630.36 472.17 639.72 472.17 639.72 462.78 649.09 462.78 658.45 462.78 667.82 462.78 677.19 462.78 686.55 462.78 695.92 462.78 705.28 462.78 714.65 462.78 724.01 462.78 733.38 462.78 742.75 462.78 747.42 462.78 752.11 462.78 756.79 462.78 756.79 472.17 766.15 472.17 775.52 472.17 784.89 472.17 794.25 472.17 803.62 472.17 812.98 472.17 822.35 472.17 831.72 472.17 831.72 462.78 841.08 462.78 850.45 462.78 859.81 462.78 869.18 462.78 873.87 462.78 878.54 462.78 883.24 462.78 887.91 462.78 892.6 462.78 901.97 462.78 901.97 472.17 911.33 472.17 920.7 472.17 930.06 472.17 939.43 472.17 948.8 472.17 958.16 472.17 967.53 472.17 976.89 472.17 986.26 472.17 995.63 472.17 995.63 462.78 1000.3 462.78 1004.99 462.78 1009.67 462.78 1014.36 462.78 1019.03 462.78 1019.03 472.17 1028.4 472.17 1037.76 472.17 1047.13 472.17 1056.5 472.17 1065.86 472.17 1075.23 472.17 1079.91 472.17 1084.59 472.17 1089.28 472.17 1093.96 472.17 1098.64 472.17 1103.33 472.17 1108.01 472.17 1112.69 472.17 1117.37 472.17 1126.74 472.17 1136.11 472.17 1145.47 472.17 1154.84 472.17 1154.84 462.78 1159.52 462.78 1164.2 462.78 1168.89 462.78 1173.57 462.78 1178.25 462.78 1182.93 462.78 1187.62 462.78 1192.3 462.78 1196.98 462.78 1201.67 462.78 1206.35 462.78 1211.03 462.78 1215.71 462.78 1225.08 462.78 1225.08 453.39 1229.76 453.39 1234.45 453.39 1239.13 453.39 1243.81 453.39 1248.49 453.39 1253.18 453.39 1257.86 453.39 1262.54 453.39 1267.23 453.39 1271.91 453.39 1276.59 453.39 1281.28 453.39 1285.96 453.39 1290.64 453.39 1295.33 453.39 1295.33 462.78 1304.69 462.78 1314.06 462.78 1323.42 462.78 1332.79 462.78 1342.15 462.78 1342.15 472.17 1351.52 472.17 1360.89 472.17 1370.25 472.17 1374.93 472.17 1379.62 472.17 1384.3 472.17 1388.98 472.17 1393.67 472.17 1398.35 472.17 1403.03 472.17 1407.71 472.17 1412.4 472.17 1417.08 472.17 1421.76 472.17 1426.45 472.17 1431.13 472.17 1435.81 472.17 1440.5 472.17 1449.86 472.17 1459.23 472.17 1468.59 472.17 1468.59 462.78 1473.28 462.78 1477.96 462.78 1482.64 462.78 1487.33 462.78 1492.01 462.78 1496.69 462.78 1501.37 462.78 1510.74 462.78 1520.11 462.78 1529.47 462.78 1538.84 462.78 1548.2 462.78 1548.2 453.39 1557.57 453.39 1566.93 453.39 1576.3 453.39 1585.67 453.39 1595.03 453.39 1604.4 453.39 1613.76 453.39 1623.13 453.39 1632.49 453.39 1641.86 453.39 1651.23 453.39 1660.59 453.39 1669.96 453.39 1669.96 462.78 1679.33 462.78 1688.69 462.78 1698.06 462.78 1698.06 472.17 1707.42 472.17 1716.79 472.17 1726.15 472.17 1735.52 472.17 1744.89 472.17 1754.25 472.17 1763.62 472.17 1772.98 472.17 1782.35 472.17 1791.71 472.17 1791.71 462.78 1801.08 462.78 1810.45 462.78 1819.81 462.78 1819.81 453.39 1829.18 453.39 1838.54 453.39 1847.91 453.39 1847.91 444 1857.28 444 1866.64 444 1876.01 444 1876.01 434.61 1876.01 425.22 1876.01 415.83 1876.01 406.44 1866.64 406.44"/></g></g></svg>