<svg xmlns="http://www.w3.org/2000/svg" viewBox="0 0 1920 780"><defs><style>.cls-1{fill:#d8d8d8;}.cls-2{opacity:0.86;}.cls-3{fill:#939393;}.cls-4{fill:#898989;}.cls-5{fill:#605f5f;}.cls-6{fill:#a5a5a5;}</style></defs><title>smog_surplace</title><g id="fond"><rect class="cls-1" x="2.78" width="1917.22" height="780"/></g><g id="nuage1"><g class="cls-2"><polygon class="cls-3" points="1538.59 60.09 1529.23 60.09 1519.86 60.09 1510.5 60.09 1501.13 60.09 1501.13 50.7 1501.13 41.3 1491.76 41.3 1491.76 31.91 1482.4 31.91 1473.03 31.91 1473.03 22.52 1463.67 22.52 1454.3 22.52 1454.3 13.13 1444.93 13.13 1435.57 13.13 1426.2 13.13 1416.84 13.13 1407.47 13.13 1407.47 22.52 1398.11 22.52 1388.74 22.52 1388.74 31.91 1379.37 31.91 1379.37 22.52 1370.01 22.52 1370.01 13.13 1360.64 13.13 1351.28 13.13 1341.91 13.13 1341.91 3.74 1332.54 3.74 1323.18 3.74 1313.81 3.74 1304.45 3.74 1304.45 13.13 1295.08 13.13 1285.71 13.13 1285.71 22.52 1276.35 22.52 1276.35 31.91 1276.35 41.3 1266.98 41.3 1266.98 50.7 1266.98 60.09 1266.98 69.48 1257.62 69.48 1248.25 69.48 1238.89 69.48 1229.52 69.48 1220.15 69.48 1210.79 69.48 1201.42 69.48 1201.42 78.87 1192.06 78.87 1192.06 88.26 1182.69 88.26 1182.69 97.65 1182.69 107.04 1173.33 107.04 1173.33 116.44 1163.96 116.44 1154.59 116.44 1145.23 116.44 1135.86 116.44 1126.5 116.44 1117.13 116.44 1107.76 116.44 1098.4 116.44 1098.4 125.83 1089.03 125.83 1089.03 135.22 1079.67 135.22 1070.3 135.22 1070.3 125.83 1060.93 125.83 1051.57 125.83 1051.57 116.44 1042.2 116.44 1042.2 107.04 1032.84 107.04 1023.47 107.04 1014.11 107.04 1014.11 116.44 1004.74 116.44 1004.74 125.83 995.37 125.83 995.37 116.44 986.01 116.44 976.64 116.44 967.28 116.44 957.91 116.44 948.54 116.44 948.54 125.83 939.18 125.83 929.81 125.83 929.81 135.22 920.45 135.22 920.45 144.61 911.08 144.61 911.08 154 911.08 163.39 911.08 172.78 901.72 172.78 901.72 182.17 892.35 182.17 892.35 172.78 882.98 172.78 882.98 163.39 873.62 163.39 873.62 154 864.25 154 854.89 154 845.52 154 836.15 154 826.79 154 817.42 154 817.42 163.39 808.06 163.39 808.06 172.78 798.69 172.78 789.33 172.78 779.96 172.78 770.59 172.78 770.59 182.17 761.23 182.17 761.23 191.56 761.23 200.96 751.86 200.96 751.86 210.35 742.5 210.35 733.13 210.35 723.76 210.35 714.4 210.35 705.03 210.35 705.03 219.74 695.67 219.74 695.67 229.13 695.67 238.52 695.67 247.91 695.67 257.3 705.03 257.3 705.03 247.91 714.4 247.91 723.76 247.91 723.76 238.52 733.13 238.52 742.5 238.52 742.5 229.13 751.86 229.13 761.23 229.13 761.23 219.74 770.59 219.74 770.59 210.35 779.96 210.35 779.96 200.96 789.33 200.96 798.69 200.96 798.69 191.56 808.06 191.56 817.42 191.56 817.42 182.17 826.79 182.17 836.15 182.17 845.52 182.17 854.89 182.17 854.89 191.56 864.25 191.56 873.62 191.56 873.62 200.96 882.98 200.96 882.98 210.35 892.35 210.35 892.35 219.74 892.35 229.13 901.72 229.13 911.08 229.13 911.08 219.74 920.45 219.74 929.81 219.74 929.81 210.35 939.18 210.35 939.18 200.96 948.54 200.96 957.91 200.96 957.91 191.56 967.28 191.56 967.28 182.17 976.64 182.17 986.01 182.17 995.37 182.17 995.37 172.78 1004.74 172.78 1014.11 172.78 1023.47 172.78 1023.47 163.39 1032.84 163.39 1042.2 163.39 1042.2 172.78 1051.57 172.78 1060.93 172.78 1060.93 182.17 1070.3 182.17 1079.67 182.17 1089.03 182.17 1089.03 191.56 1098.4 191.56 1107.76 191.56 1107.76 182.17 1117.13 182.17 1117.13 172.78 1126.5 172.78 1126.5 163.39 1135.86 163.39 1135.86 154 1145.23 154 1145.23 144.61 1154.59 144.61 1163.96 144.61 1173.33 144.61 1173.33 135.22 1182.69 135.22 1192.06 135.22 1201.42 135.22 1210.79 135.22 1220.15 135.22 1229.52 135.22 1229.52 144.61 1238.89 144.61 1238.89 154 1248.25 154 1248.25 163.39 1257.62 163.39 1266.98 163.39 1266.98 172.78 1276.35 172.78 1276.35 163.39 1276.35 154 1285.71 154 1285.71 144.61 1285.71 135.22 1295.08 135.22 1295.08 125.83 1295.08 116.44 1304.45 116.44 1313.81 116.44 1313.81 107.04 1323.18 107.04 1332.54 107.04 1341.91 107.04 1351.28 107.04 1360.64 107.04 1370.01 107.04 1379.37 107.04 1388.74 107.04 1388.74 116.44 1398.11 116.44 1407.47 116.44 1407.47 125.83 1416.84 125.83 1426.2 125.83 1426.2 135.22 1435.57 135.22 1444.93 135.22 1444.93 144.61 1454.3 144.61 1463.67 144.61 1473.03 144.61 1473.03 135.22 1482.4 135.22 1482.4 125.83 1482.4 116.44 1491.76 116.44 1491.76 107.04 1501.13 107.04 1501.13 97.65 1510.5 97.65 1510.5 88.26 1519.86 88.26 1529.23 88.26 1529.23 78.87 1538.59 78.87 1547.96 78.87 1547.96 69.48 1557.33 69.48 1557.33 60.09 1547.96 60.09 1538.59 60.09"/><rect class="cls-3" x="1641.62" y="116.43" width="9.37" height="9.39"/><polygon class="cls-4" points="892.35 229.13 892.35 219.74 892.35 210.35 882.98 210.35 882.98 200.96 873.62 200.96 873.62 191.56 864.25 191.56 854.89 191.56 854.89 182.17 845.52 182.17 836.15 182.17 826.79 182.17 817.42 182.17 817.42 191.56 808.06 191.56 798.69 191.56 798.69 200.96 789.33 200.96 779.96 200.96 779.96 210.35 770.59 210.35 770.59 219.74 761.23 219.74 761.23 229.13 751.86 229.13 742.5 229.13 742.5 238.52 733.13 238.52 723.76 238.52 723.76 247.91 714.4 247.91 705.03 247.91 705.03 257.3 705.03 266.7 714.4 266.7 723.76 266.7 733.13 266.7 742.5 266.7 742.5 276.09 751.86 276.09 761.23 276.09 770.59 276.09 779.96 276.09 789.33 276.09 789.33 266.7 798.69 266.7 808.06 266.7 817.42 266.7 826.79 266.7 836.15 266.7 836.15 276.09 845.52 276.09 854.89 276.09 864.25 276.09 864.25 266.7 873.62 266.7 873.62 257.3 882.98 257.3 882.98 247.91 892.35 247.91 892.35 238.52 901.72 238.52 911.08 238.52 911.08 229.13 901.72 229.13 892.35 229.13"/><polygon class="cls-4" points="1679.08 229.13 1679.08 219.74 1679.08 210.35 1679.08 200.96 1669.71 200.96 1660.35 200.96 1660.35 191.56 1650.98 191.56 1650.98 182.17 1650.98 172.78 1660.35 172.78 1660.35 163.39 1660.35 154 1660.35 144.61 1650.98 144.61 1650.98 135.22 1650.98 125.83 1641.62 125.83 1641.62 116.44 1632.25 116.44 1622.89 116.44 1613.52 116.44 1604.15 116.44 1604.15 107.04 1594.79 107.04 1594.79 97.65 1594.79 88.26 1585.42 88.26 1585.42 78.87 1576.06 78.87 1576.06 69.48 1566.69 69.48 1557.33 69.48 1547.96 69.48 1547.96 78.87 1538.59 78.87 1529.23 78.87 1529.23 88.26 1519.86 88.26 1510.5 88.26 1510.5 97.65 1501.13 97.65 1501.13 107.04 1491.76 107.04 1491.76 116.44 1482.4 116.44 1482.4 125.83 1482.4 135.22 1473.03 135.22 1473.03 144.61 1463.67 144.61 1454.3 144.61 1444.93 144.61 1444.93 135.22 1435.57 135.22 1426.2 135.22 1426.2 125.83 1416.84 125.83 1407.47 125.83 1407.47 116.44 1398.11 116.44 1388.74 116.44 1388.74 107.04 1379.37 107.04 1370.01 107.04 1360.64 107.04 1351.28 107.04 1341.91 107.04 1332.54 107.04 1323.18 107.04 1313.81 107.04 1313.81 116.44 1304.45 116.44 1295.08 116.44 1295.08 125.83 1295.08 135.22 1285.71 135.22 1285.71 144.61 1285.71 154 1276.35 154 1276.35 163.39 1276.35 172.78 1266.98 172.78 1266.98 163.39 1257.62 163.39 1248.25 163.39 1248.25 154 1238.89 154 1238.89 144.61 1229.52 144.61 1229.52 135.22 1220.15 135.22 1210.79 135.22 1201.42 135.22 1192.06 135.22 1182.69 135.22 1173.33 135.22 1173.33 144.61 1163.96 144.61 1154.59 144.61 1145.23 144.61 1145.23 154 1135.86 154 1135.86 163.39 1126.5 163.39 1126.5 172.78 1117.13 172.78 1117.13 182.17 1107.76 182.17 1107.76 191.56 1098.4 191.56 1089.03 191.56 1089.03 182.17 1079.67 182.17 1070.3 182.17 1060.93 182.17 1060.93 172.78 1051.57 172.78 1042.2 172.78 1042.2 163.39 1032.84 163.39 1023.47 163.39 1023.47 172.78 1014.11 172.78 1004.74 172.78 995.37 172.78 995.37 182.17 986.01 182.17 976.64 182.17 967.28 182.17 967.28 191.56 957.91 191.56 957.91 200.96 948.54 200.96 939.18 200.96 939.18 210.35 929.81 210.35 929.81 219.74 920.45 219.74 911.08 219.74 911.08 229.13 920.45 229.13 929.81 229.13 929.81 238.52 939.18 238.52 948.54 238.52 957.91 238.52 957.91 247.91 967.28 247.91 967.28 257.3 976.64 257.3 976.64 266.7 986.01 266.7 995.37 266.7 1004.74 266.7 1004.74 276.09 1014.11 276.09 1023.47 276.09 1032.84 276.09 1042.2 276.09 1051.57 276.09 1060.93 276.09 1060.93 266.7 1070.3 266.7 1079.67 266.7 1079.67 257.3 1089.03 257.3 1098.4 257.3 1107.76 257.3 1117.13 257.3 1117.13 266.7 1126.5 266.7 1135.86 266.7 1135.86 276.09 1145.23 276.09 1154.59 276.09 1163.96 276.09 1173.33 276.09 1182.69 276.09 1192.06 276.09 1201.42 276.09 1210.79 276.09 1210.79 285.48 1220.15 285.48 1220.15 276.09 1229.52 276.09 1229.52 266.7 1238.89 266.7 1238.89 257.3 1238.89 247.91 1248.25 247.91 1248.25 238.52 1257.62 238.52 1266.98 238.52 1276.35 238.52 1285.71 238.52 1295.08 238.52 1304.45 238.52 1304.45 247.91 1313.81 247.91 1323.18 247.91 1323.18 257.3 1332.54 257.3 1332.54 266.7 1341.91 266.7 1341.91 276.09 1351.28 276.09 1351.28 285.48 1360.64 285.48 1360.64 276.09 1370.01 276.09 1379.37 276.09 1388.74 276.09 1388.74 266.7 1398.11 266.7 1398.11 257.3 1407.47 257.3 1416.84 257.3 1416.84 247.91 1426.2 247.91 1435.57 247.91 1444.93 247.91 1454.3 247.91 1463.67 247.91 1473.03 247.91 1473.03 257.3 1482.4 257.3 1482.4 266.7 1491.76 266.7 1491.76 276.09 1501.13 276.09 1510.5 276.09 1519.86 276.09 1519.86 266.7 1529.23 266.7 1529.23 257.3 1538.59 257.3 1547.96 257.3 1557.33 257.3 1566.69 257.3 1576.06 257.3 1576.06 266.7 1585.42 266.7 1594.79 266.7 1604.15 266.7 1604.15 257.3 1613.52 257.3 1613.52 247.91 1622.89 247.91 1622.89 238.52 1632.25 238.52 1641.62 238.52 1650.98 238.52 1660.35 238.52 1660.35 247.91 1669.71 247.91 1679.08 247.91 1688.45 247.91 1688.45 238.52 1688.45 229.13 1679.08 229.13"/><polygon class="cls-5" points="1697.81 266.7 1697.81 257.3 1688.45 257.3 1688.45 247.91 1679.08 247.91 1669.71 247.91 1660.35 247.91 1660.35 238.52 1650.98 238.52 1641.62 238.52 1632.25 238.52 1622.89 238.52 1622.89 247.91 1613.52 247.91 1613.52 257.3 1604.15 257.3 1604.15 266.7 1594.79 266.7 1585.42 266.7 1576.06 266.7 1576.06 257.3 1566.69 257.3 1557.33 257.3 1547.96 257.3 1538.59 257.3 1529.23 257.3 1529.23 266.7 1519.86 266.7 1519.86 276.09 1510.5 276.09 1501.13 276.09 1491.76 276.09 1491.76 266.7 1482.4 266.7 1482.4 257.3 1473.03 257.3 1473.03 247.91 1463.67 247.91 1454.3 247.91 1444.93 247.91 1435.57 247.91 1426.2 247.91 1416.84 247.91 1416.84 257.3 1407.47 257.3 1398.11 257.3 1398.11 266.7 1388.74 266.7 1388.74 276.09 1379.37 276.09 1370.01 276.09 1360.64 276.09 1360.64 285.48 1351.28 285.48 1351.28 276.09 1341.91 276.09 1341.91 266.7 1332.54 266.7 1332.54 257.3 1323.18 257.3 1323.18 247.91 1313.81 247.91 1304.45 247.91 1304.45 238.52 1295.08 238.52 1285.71 238.52 1276.35 238.52 1266.98 238.52 1257.62 238.52 1248.25 238.52 1248.25 247.91 1238.89 247.91 1238.89 257.3 1238.89 266.7 1229.52 266.7 1229.52 276.09 1220.15 276.09 1220.15 285.48 1210.79 285.48 1210.79 276.09 1201.42 276.09 1192.06 276.09 1182.69 276.09 1173.33 276.09 1163.96 276.09 1154.59 276.09 1145.23 276.09 1135.86 276.09 1135.86 266.7 1126.5 266.7 1117.13 266.7 1117.13 257.3 1107.76 257.3 1098.4 257.3 1089.03 257.3 1079.67 257.3 1079.67 266.7 1070.3 266.7 1060.93 266.7 1060.93 276.09 1051.57 276.09 1042.2 276.09 1032.84 276.09 1023.47 276.09 1014.11 276.09 1004.74 276.09 1004.74 266.7 995.37 266.7 986.01 266.7 976.64 266.7 976.64 257.3 967.28 257.3 967.28 247.91 957.91 247.91 957.91 238.52 948.54 238.52 939.18 238.52 929.81 238.52 929.81 229.13 920.45 229.13 911.08 229.13 911.08 238.52 901.72 238.52 892.35 238.52 892.35 247.91 882.98 247.91 882.98 257.3 873.62 257.3 873.62 266.7 864.25 266.7 864.25 276.09 854.89 276.09 845.52 276.09 836.15 276.09 836.15 266.7 826.79 266.7 817.42 266.7 808.06 266.7 798.69 266.7 789.33 266.7 789.33 276.09 779.96 276.09 770.59 276.09 761.23 276.09 751.86 276.09 742.5 276.09 742.5 266.7 733.13 266.7 723.76 266.7 714.4 266.7 705.03 266.7 705.03 276.09 695.67 276.09 695.67 285.48 705.03 285.48 705.03 294.87 714.4 294.87 714.4 304.26 723.76 304.26 733.13 304.26 742.5 304.26 751.86 304.26 761.23 304.26 770.59 304.26 779.96 304.26 789.33 304.26 789.33 294.87 798.69 294.87 808.06 294.87 817.42 294.87 826.79 294.87 836.15 294.87 845.52 294.87 854.89 294.87 864.25 294.87 864.25 304.26 873.62 304.26 882.98 304.26 882.98 313.65 892.35 313.65 901.72 313.65 901.72 323.04 911.08 323.04 911.08 332.44 920.45 332.44 929.81 332.44 939.18 332.44 948.54 332.44 957.91 332.44 967.28 332.44 976.64 332.44 986.01 332.44 986.01 323.04 995.37 323.04 1004.74 323.04 1014.11 323.04 1023.47 323.04 1032.84 323.04 1042.2 323.04 1042.2 313.65 1051.57 313.65 1060.93 313.65 1070.3 313.65 1079.67 313.65 1089.03 313.65 1098.4 313.65 1107.76 313.65 1117.13 313.65 1126.5 313.65 1126.5 323.04 1135.86 323.04 1145.23 323.04 1154.59 323.04 1163.96 323.04 1173.33 323.04 1173.33 332.44 1182.69 332.44 1192.06 332.44 1201.42 332.44 1210.79 332.44 1220.15 332.44 1229.52 332.44 1238.89 332.44 1248.25 332.44 1257.62 332.44 1266.98 332.44 1266.98 323.04 1276.35 323.04 1285.71 323.04 1295.08 323.04 1304.45 323.04 1313.81 323.04 1323.18 323.04 1332.54 323.04 1341.91 323.04 1351.28 323.04 1360.64 323.04 1370.01 323.04 1379.37 323.04 1379.37 313.65 1388.74 313.65 1398.11 313.65 1407.47 313.65 1416.84 313.65 1426.2 313.65 1435.57 313.65 1444.93 313.65 1454.3 313.65 1463.67 313.65 1473.03 313.65 1482.4 313.65 1491.76 313.65 1501.13 313.65 1501.13 323.04 1510.5 323.04 1519.86 323.04 1529.23 323.04 1529.23 332.44 1538.59 332.44 1547.96 332.44 1557.33 332.44 1566.69 332.44 1576.06 332.44 1585.42 332.44 1594.79 332.44 1604.15 332.44 1613.52 332.44 1622.89 332.44 1622.89 323.04 1632.25 323.04 1641.62 323.04 1650.98 323.04 1650.98 313.65 1660.35 313.65 1669.71 313.65 1679.08 313.65 1679.08 304.26 1688.45 304.26 1697.81 304.26 1707.18 304.26 1707.18 294.87 1707.18 285.48 1707.18 276.09 1707.18 266.7 1697.81 266.7"/></g></g><g id="nuage2"><g class="cls-2"><polygon class="cls-6" points="452.16 156.7 452.16 147.3 452.16 137.91 442.8 137.91 433.43 137.91 424.06 137.91 424.06 128.52 424.06 119.13 414.7 119.13 414.7 109.74 405.33 109.74 405.33 100.35 395.97 100.35 386.6 100.35 386.6 90.96 377.24 90.96 367.87 90.96 358.5 90.96 349.14 90.96 349.14 81.56 339.77 81.56 339.77 72.17 330.4 72.17 321.04 72.17 311.67 72.17 302.31 72.17 292.94 72.17 292.94 62.78 283.58 62.78 283.58 53.39 274.21 53.39 264.84 53.39 255.48 53.39 255.48 44 246.11 44 236.75 44 236.75 53.39 227.38 53.39 218.01 53.39 218.01 62.78 208.65 62.78 199.28 62.78 189.92 62.78 180.55 62.78 171.19 62.78 161.82 62.78 152.45 62.78 143.09 62.78 143.09 72.17 133.72 72.17 124.36 72.17 124.36 81.56 124.36 90.96 124.36 100.35 114.99 100.35 114.99 109.74 105.63 109.74 105.63 119.13 96.26 119.13 96.26 128.52 96.26 137.91 96.26 147.3 86.89 147.3 86.89 156.7 86.89 166.09 96.26 166.09 96.26 156.7 105.63 156.7 105.63 147.3 114.99 147.3 114.99 137.91 124.36 137.91 124.36 128.52 133.72 128.52 133.72 119.13 143.09 119.13 152.45 119.13 161.82 119.13 171.19 119.13 180.55 119.13 180.55 128.52 189.92 128.52 189.92 137.91 199.28 137.91 208.65 137.91 208.65 128.52 218.01 128.52 218.01 119.13 227.38 119.13 227.38 109.74 236.75 109.74 236.75 100.35 246.11 100.35 246.11 90.96 255.48 90.96 255.48 81.56 264.84 81.56 274.21 81.56 283.58 81.56 292.94 81.56 292.94 90.96 302.31 90.96 311.67 90.96 311.67 100.35 321.04 100.35 330.4 100.35 330.4 109.74 330.4 119.13 330.4 128.52 330.4 137.91 339.77 137.91 349.14 137.91 358.5 137.91 358.5 128.52 367.87 128.52 367.87 119.13 377.24 119.13 386.6 119.13 395.97 119.13 395.97 128.52 395.97 137.91 405.33 137.91 405.33 147.3 414.7 147.3 424.06 147.3 433.43 147.3 433.43 156.7 442.8 156.7 442.8 166.09 452.16 166.09 452.16 175.48 461.53 175.48 461.53 166.09 461.53 156.7 452.16 156.7"/><polygon class="cls-4" points="311.67 100.35 311.67 90.96 302.31 90.96 292.94 90.96 292.94 81.56 283.58 81.56 274.21 81.56 264.84 81.56 255.48 81.56 255.48 90.96 246.11 90.96 246.11 100.35 236.75 100.35 236.75 109.74 227.38 109.74 227.38 119.13 218.01 119.13 218.01 128.52 208.65 128.52 208.65 137.91 199.28 137.91 189.92 137.91 189.92 128.52 180.55 128.52 180.55 119.13 171.19 119.13 161.82 119.13 152.45 119.13 143.09 119.13 133.72 119.13 133.72 128.52 124.36 128.52 124.36 137.91 114.99 137.91 114.99 147.3 105.63 147.3 105.63 156.7 96.26 156.7 96.26 166.09 86.89 166.09 86.89 175.48 96.26 175.48 96.26 184.87 105.63 184.87 105.63 194.26 114.99 194.26 124.36 194.26 133.72 194.26 133.72 184.87 143.09 184.87 152.45 184.87 152.45 175.48 161.82 175.48 171.19 175.48 180.55 175.48 189.92 175.48 189.92 184.87 199.28 184.87 199.28 175.48 199.28 166.09 208.65 166.09 208.65 156.7 218.01 156.7 227.38 156.7 236.75 156.7 246.11 156.7 246.11 166.09 255.48 166.09 264.84 166.09 264.84 175.48 274.21 175.48 283.58 175.48 292.94 175.48 292.94 166.09 302.31 166.09 302.31 156.7 311.67 156.7 311.67 147.3 321.04 147.3 330.4 147.3 330.4 137.91 330.4 128.52 330.4 119.13 330.4 109.74 330.4 100.35 321.04 100.35 311.67 100.35"/><polygon class="cls-4" points="395.97 137.91 395.97 128.52 395.97 119.13 386.6 119.13 377.24 119.13 367.87 119.13 367.87 128.52 358.5 128.52 358.5 137.91 358.5 147.3 367.87 147.3 367.87 156.7 377.24 156.7 377.24 166.09 386.6 166.09 386.6 175.48 395.97 175.48 395.97 166.09 395.97 156.7 405.33 156.7 405.33 147.3 405.33 137.91 395.97 137.91"/><polygon class="cls-5" points="452.16 175.48 452.16 166.09 442.8 166.09 442.8 156.7 433.43 156.7 433.43 147.3 424.06 147.3 414.7 147.3 405.33 147.3 405.33 156.7 395.97 156.7 395.97 166.09 395.97 175.48 386.6 175.48 386.6 166.09 377.24 166.09 377.24 156.7 367.87 156.7 367.87 147.3 358.5 147.3 358.5 137.91 349.14 137.91 339.77 137.91 330.4 137.91 330.4 147.3 321.04 147.3 311.67 147.3 311.67 156.7 302.31 156.7 302.31 166.09 292.94 166.09 292.94 175.48 283.58 175.48 274.21 175.48 264.84 175.48 264.84 166.09 255.48 166.09 246.11 166.09 246.11 156.7 236.75 156.7 227.38 156.7 218.01 156.7 208.65 156.7 208.65 166.09 199.28 166.09 199.28 175.48 199.28 184.87 189.92 184.87 189.92 175.48 180.55 175.48 171.19 175.48 161.82 175.48 152.45 175.48 152.45 184.87 143.09 184.87 133.72 184.87 133.72 194.26 124.36 194.26 114.99 194.26 105.63 194.26 105.63 184.87 96.26 184.87 96.26 194.26 96.26 203.65 105.63 203.65 105.63 213.04 114.99 213.04 114.99 222.44 124.36 222.44 133.72 222.44 143.09 222.44 152.45 222.44 161.82 222.44 171.19 222.44 171.19 231.83 180.55 231.83 189.92 231.83 199.28 231.83 208.65 231.83 218.01 231.83 218.01 222.44 227.38 222.44 236.75 222.44 246.11 222.44 255.48 222.44 255.48 213.04 264.84 213.04 264.84 222.44 274.21 222.44 283.58 222.44 292.94 222.44 302.31 222.44 302.31 231.83 311.67 231.83 321.04 231.83 330.4 231.83 339.77 231.83 349.14 231.83 358.5 231.83 367.87 231.83 367.87 222.44 377.24 222.44 386.6 222.44 395.97 222.44 405.33 222.44 414.7 222.44 424.06 222.44 433.43 222.44 442.8 222.44 442.8 213.04 452.16 213.04 452.16 203.65 461.53 203.65 461.53 194.26 461.53 184.87 461.53 175.48 452.16 175.48"/></g></g><g id="nuage3"><g class="cls-2"><rect class="cls-6" x="367.86" y="455.13" width="9.37" height="9.39"/><polygon class="cls-6" points="349.13 464.52 339.76 464.52 330.4 464.52 321.03 464.52 311.67 464.52 302.3 464.52 302.3 473.91 292.94 473.91 283.57 473.91 283.57 483.3 274.2 483.3 274.2 492.7 264.84 492.7 255.47 492.7 246.1 492.7 246.1 502.09 236.74 502.09 227.37 502.09 218.01 502.09 218.01 511.48 208.64 511.48 208.64 520.87 199.28 520.87 199.28 530.26 199.28 539.65 199.28 549.04 199.28 558.43 189.91 558.43 189.91 567.83 180.54 567.83 171.18 567.83 161.81 567.83 161.81 577.22 152.45 577.22 143.08 577.22 133.72 577.22 133.72 586.61 124.35 586.61 114.98 586.61 105.62 586.61 96.25 586.61 96.25 596 105.62 596 114.98 596 124.35 596 133.72 596 143.08 596 152.45 596 161.81 596 171.18 596 180.54 596 189.91 596 199.28 596 199.28 586.61 208.64 586.61 208.64 577.22 218.01 577.22 218.01 567.83 218.01 558.43 227.37 558.43 227.37 549.04 227.37 539.65 236.74 539.65 236.74 530.26 246.1 530.26 255.47 530.26 264.84 530.26 274.2 530.26 283.57 530.26 283.57 539.65 292.94 539.65 302.3 539.65 311.67 539.65 311.67 549.04 321.03 549.04 330.4 549.04 339.76 549.04 339.76 539.65 339.76 530.26 339.76 520.87 349.13 520.87 349.13 511.48 349.13 502.09 349.13 492.7 349.13 483.3 358.5 483.3 358.5 473.91 367.86 473.91 367.86 464.52 358.5 464.52 349.13 464.52"/><polygon class="cls-6" points="77.52 596 68.15 596 58.79 596 58.79 605.39 49.42 605.39 40.06 605.39 40.06 614.78 30.69 614.78 30.69 624.17 21.32 624.17 21.32 633.57 21.32 642.96 21.32 652.35 30.69 652.35 30.69 642.96 40.06 642.96 40.06 633.57 49.42 633.57 58.79 633.57 58.79 624.17 68.15 624.17 77.52 624.17 77.52 614.78 86.89 614.78 86.89 605.39 96.25 605.39 96.25 596 86.89 596 77.52 596"/><polygon class="cls-6" points="1491.76 614.78 1482.4 614.78 1482.4 605.39 1473.03 605.39 1463.67 605.39 1463.67 596 1454.3 596 1444.93 596 1435.57 596 1426.2 596 1426.2 586.61 1416.84 586.61 1407.47 586.61 1398.11 586.61 1398.11 577.22 1388.74 577.22 1388.74 567.83 1379.37 567.83 1379.37 558.43 1370.01 558.43 1360.64 558.43 1351.28 558.43 1341.91 558.43 1341.91 567.83 1332.54 567.83 1332.54 558.43 1332.54 549.04 1323.18 549.04 1323.18 539.65 1323.18 530.26 1313.81 530.26 1304.45 530.26 1304.45 520.87 1295.08 520.87 1295.08 511.48 1295.08 502.09 1285.71 502.09 1276.35 502.09 1266.98 502.09 1257.62 502.09 1248.25 502.09 1248.25 492.7 1238.89 492.7 1229.52 492.7 1220.15 492.7 1210.79 492.7 1201.42 492.7 1192.06 492.7 1192.06 502.09 1182.69 502.09 1173.33 502.09 1163.96 502.09 1154.59 502.09 1145.23 502.09 1145.23 511.48 1135.86 511.48 1126.5 511.48 1126.5 502.09 1117.13 502.09 1117.13 492.7 1107.76 492.7 1098.4 492.7 1089.03 492.7 1089.03 483.3 1079.67 483.3 1070.3 483.3 1060.93 483.3 1051.57 483.3 1042.2 483.3 1032.84 483.3 1032.84 473.91 1032.84 464.52 1032.84 455.13 1023.47 455.13 1023.47 445.74 1014.11 445.74 1004.74 445.74 1004.74 436.35 995.37 436.35 986.01 436.35 986.01 426.96 976.64 426.96 967.28 426.96 957.91 426.96 948.54 426.96 948.54 417.56 939.18 417.56 939.18 408.17 929.81 408.17 920.45 408.17 911.08 408.17 911.08 398.78 901.72 398.78 892.35 398.78 882.98 398.78 873.62 398.78 864.25 398.78 864.25 389.39 854.89 389.39 854.89 380 845.52 380 845.52 370.61 836.15 370.61 836.15 361.22 826.79 361.22 817.42 361.22 817.42 351.83 808.06 351.83 798.69 351.83 789.33 351.83 779.96 351.83 770.59 351.83 761.23 351.83 761.23 361.22 751.86 361.22 742.5 361.22 733.13 361.22 733.13 370.61 723.76 370.61 723.76 361.22 714.4 361.22 714.4 351.83 705.03 351.83 705.03 342.44 695.67 342.44 686.3 342.44 676.93 342.44 667.57 342.44 658.2 342.44 648.84 342.44 639.47 342.44 630.11 342.44 620.74 342.44 611.37 342.44 602.01 342.44 602.01 351.83 592.64 351.83 583.28 351.83 573.91 351.83 573.91 361.22 564.54 361.22 564.54 370.61 555.18 370.61 555.18 380 545.81 380 545.81 389.39 536.45 389.39 536.45 398.78 527.08 398.78 517.72 398.78 508.35 398.78 508.35 408.17 498.98 408.17 489.62 408.17 480.25 408.17 470.89 408.17 470.89 398.78 461.52 398.78 452.15 398.78 442.79 398.78 433.42 398.78 424.06 398.78 424.06 408.17 414.69 408.17 405.32 408.17 395.96 408.17 386.59 408.17 386.59 417.56 386.59 426.96 377.23 426.96 377.23 436.35 377.23 445.74 377.23 455.13 386.59 455.13 386.59 445.74 395.96 445.74 405.32 445.74 414.69 445.74 424.06 445.74 433.42 445.74 442.79 445.74 452.15 445.74 461.52 445.74 470.89 445.74 480.25 445.74 489.62 445.74 498.98 445.74 498.98 455.13 508.35 455.13 517.72 455.13 527.08 455.13 527.08 464.52 536.45 464.52 545.81 464.52 545.81 473.91 555.18 473.91 555.18 464.52 555.18 455.13 564.54 455.13 564.54 445.74 564.54 436.35 573.91 436.35 573.91 426.96 583.28 426.96 583.28 417.56 592.64 417.56 592.64 408.17 602.01 408.17 611.37 408.17 611.37 398.78 620.74 398.78 630.11 398.78 630.11 389.39 639.47 389.39 648.84 389.39 658.2 389.39 667.57 389.39 667.57 398.78 676.93 398.78 686.3 398.78 695.67 398.78 705.03 398.78 714.4 398.78 723.76 398.78 723.76 408.17 733.13 408.17 733.13 417.56 742.5 417.56 742.5 426.96 751.86 426.96 751.86 436.35 751.86 445.74 761.23 445.74 761.23 455.13 770.59 455.13 770.59 464.52 779.96 464.52 779.96 473.91 779.96 483.3 789.33 483.3 798.69 483.3 808.06 483.3 808.06 473.91 817.42 473.91 826.79 473.91 826.79 464.52 836.15 464.52 845.52 464.52 854.89 464.52 854.89 455.13 864.25 455.13 873.62 455.13 882.98 455.13 892.35 455.13 901.72 455.13 901.72 464.52 911.08 464.52 920.45 464.52 929.81 464.52 929.81 473.91 939.18 473.91 939.18 483.3 948.54 483.3 957.91 483.3 957.91 492.7 967.28 492.7 967.28 502.09 976.64 502.09 976.64 511.48 976.64 520.87 976.64 530.26 986.01 530.26 986.01 539.65 995.37 539.65 1004.74 539.65 1014.11 539.65 1014.11 549.04 1023.47 549.04 1032.84 549.04 1042.2 549.04 1051.57 549.04 1051.57 539.65 1060.93 539.65 1070.3 539.65 1079.67 539.65 1089.03 539.65 1089.03 549.04 1098.4 549.04 1107.76 549.04 1117.13 549.04 1117.13 558.43 1126.5 558.43 1135.86 558.43 1135.86 549.04 1145.23 549.04 1145.23 539.65 1154.59 539.65 1154.59 530.26 1163.96 530.26 1163.96 520.87 1173.33 520.87 1182.69 520.87 1192.06 520.87 1201.42 520.87 1210.79 520.87 1210.79 530.26 1220.15 530.26 1229.52 530.26 1229.52 539.65 1238.89 539.65 1248.25 539.65 1248.25 549.04 1257.62 549.04 1266.98 549.04 1266.98 558.43 1266.98 567.83 1276.35 567.83 1276.35 577.22 1285.71 577.22 1285.71 586.61 1295.08 586.61 1295.08 596 1304.45 596 1313.81 596 1323.18 596 1332.54 596 1341.91 596 1351.28 596 1351.28 586.61 1360.64 586.61 1370.01 586.61 1379.37 586.61 1379.37 596 1388.74 596 1398.11 596 1407.47 596 1407.47 605.39 1416.84 605.39 1426.2 605.39 1426.2 614.78 1435.57 614.78 1435.57 624.17 1444.93 624.17 1454.3 624.17 1463.67 624.17 1473.03 624.17 1482.4 624.17 1491.76 624.17 1501.13 624.17 1510.49 624.17 1510.49 614.78 1501.13 614.78 1491.76 614.78"/><polygon class="cls-6" points="1557.33 633.57 1557.33 642.96 1566.69 642.96 1576.06 642.96 1576.06 633.57 1566.69 633.57 1557.33 633.57"/><polygon class="cls-6" points="1679.08 633.57 1669.71 633.57 1660.35 633.57 1650.98 633.57 1641.62 633.57 1632.25 633.57 1632.25 642.96 1641.62 642.96 1650.98 642.96 1660.35 642.96 1669.71 642.96 1679.08 642.96 1688.45 642.96 1688.45 633.57 1679.08 633.57"/><polygon class="cls-6" points="1613.52 642.96 1604.15 642.96 1594.79 642.96 1585.42 642.96 1585.42 652.35 1594.79 652.35 1604.15 652.35 1613.52 652.35 1622.89 652.35 1632.25 652.35 1632.25 642.96 1622.89 642.96 1613.52 642.96"/><polygon class="cls-6" points="1688.45 642.96 1688.45 652.35 1697.81 652.35 1707.18 652.35 1707.18 642.96 1697.81 642.96 1688.45 642.96"/><polygon class="cls-6" points="1800.84 652.35 1791.47 652.35 1782.11 652.35 1782.11 642.96 1772.74 642.96 1763.37 642.96 1754.01 642.96 1744.64 642.96 1735.28 642.96 1735.28 652.35 1744.64 652.35 1754.01 652.35 1754.01 661.74 1763.37 661.74 1763.37 671.13 1772.74 671.13 1782.11 671.13 1791.47 671.13 1800.84 671.13 1810.2 671.13 1810.2 661.74 1810.2 652.35 1800.84 652.35"/><polygon class="cls-4" points="1014.11 539.65 1004.74 539.65 995.37 539.65 986.01 539.65 986.01 530.26 976.64 530.26 976.64 520.87 976.64 511.48 976.64 502.09 967.28 502.09 967.28 492.7 957.91 492.7 957.91 483.3 948.54 483.3 939.18 483.3 939.18 473.91 929.81 473.91 929.81 464.52 920.45 464.52 911.08 464.52 901.72 464.52 901.72 455.13 892.35 455.13 882.98 455.13 873.62 455.13 864.25 455.13 854.89 455.13 854.89 464.52 845.52 464.52 836.15 464.52 826.79 464.52 826.79 473.91 817.42 473.91 808.06 473.91 808.06 483.3 798.69 483.3 789.33 483.3 779.96 483.3 779.96 473.91 779.96 464.52 770.59 464.52 770.59 455.13 761.23 455.13 761.23 445.74 751.86 445.74 751.86 436.35 751.86 426.96 742.5 426.96 742.5 417.56 733.13 417.56 733.13 408.17 723.76 408.17 723.76 398.78 714.4 398.78 705.03 398.78 695.67 398.78 686.3 398.78 676.93 398.78 667.57 398.78 667.57 389.39 658.2 389.39 648.84 389.39 639.47 389.39 630.11 389.39 630.11 398.78 620.74 398.78 611.37 398.78 611.37 408.17 602.01 408.17 592.64 408.17 592.64 417.56 583.28 417.56 583.28 426.96 573.91 426.96 573.91 436.35 564.54 436.35 564.54 445.74 564.54 455.13 555.18 455.13 555.18 464.52 555.18 473.91 545.81 473.91 545.81 464.52 536.45 464.52 527.08 464.52 527.08 455.13 517.72 455.13 508.35 455.13 498.98 455.13 498.98 445.74 489.62 445.74 480.25 445.74 470.89 445.74 461.52 445.74 452.15 445.74 442.79 445.74 433.42 445.74 424.06 445.74 414.69 445.74 405.32 445.74 395.96 445.74 386.59 445.74 386.59 455.13 377.23 455.13 377.23 464.52 367.86 464.52 367.86 473.91 358.5 473.91 358.5 483.3 349.13 483.3 349.13 492.7 349.13 502.09 349.13 511.48 349.13 520.87 339.76 520.87 339.76 530.26 339.76 539.65 339.76 549.04 330.4 549.04 321.03 549.04 311.67 549.04 311.67 539.65 302.3 539.65 292.94 539.65 283.57 539.65 283.57 530.26 274.2 530.26 264.84 530.26 255.47 530.26 246.1 530.26 236.74 530.26 236.74 539.65 227.37 539.65 227.37 549.04 227.37 558.43 218.01 558.43 218.01 567.83 218.01 577.22 208.64 577.22 208.64 586.61 199.28 586.61 199.28 596 189.91 596 180.54 596 171.18 596 161.81 596 152.45 596 143.08 596 133.72 596 124.35 596 114.98 596 105.62 596 96.25 596 96.25 605.39 86.89 605.39 86.89 614.78 77.52 614.78 77.52 624.17 68.15 624.17 58.79 624.17 58.79 633.57 49.42 633.57 40.06 633.57 40.06 642.96 30.69 642.96 30.69 652.35 21.32 652.35 21.32 661.74 21.32 671.13 30.69 671.13 30.69 661.74 40.06 661.74 49.42 661.74 49.42 652.35 58.79 652.35 68.15 652.35 68.15 642.96 77.52 642.96 86.89 642.96 96.25 642.96 105.62 642.96 114.98 642.96 124.35 642.96 133.72 642.96 143.08 642.96 152.45 642.96 152.45 633.57 161.81 633.57 171.18 633.57 180.54 633.57 180.54 624.17 189.91 624.17 189.91 614.78 199.28 614.78 208.64 614.78 208.64 605.39 218.01 605.39 218.01 596 227.37 596 236.74 596 236.74 586.61 246.1 586.61 246.1 577.22 255.47 577.22 264.84 577.22 274.2 577.22 283.57 577.22 283.57 567.83 292.94 567.83 302.3 567.83 311.67 567.83 321.03 567.83 330.4 567.83 339.76 567.83 339.76 577.22 349.13 577.22 358.5 577.22 367.86 577.22 377.23 577.22 377.23 586.61 386.59 586.61 395.96 586.61 405.32 586.61 405.32 596 414.69 596 414.69 586.61 424.06 586.61 424.06 577.22 433.42 577.22 433.42 567.83 433.42 558.43 442.79 558.43 442.79 549.04 442.79 539.65 452.15 539.65 452.15 530.26 461.52 530.26 461.52 520.87 470.89 520.87 470.89 511.48 480.25 511.48 489.62 511.48 498.98 511.48 508.35 511.48 517.72 511.48 527.08 511.48 536.45 511.48 545.81 511.48 555.18 511.48 564.54 511.48 564.54 520.87 573.91 520.87 573.91 530.26 583.28 530.26 592.64 530.26 592.64 539.65 602.01 539.65 611.37 539.65 611.37 549.04 620.74 549.04 620.74 539.65 630.11 539.65 639.47 539.65 639.47 530.26 648.84 530.26 658.2 530.26 667.57 530.26 676.93 530.26 686.3 530.26 686.3 539.65 695.67 539.65 705.03 539.65 705.03 549.04 705.03 558.43 714.4 558.43 723.76 558.43 733.13 558.43 733.13 549.04 742.5 549.04 742.5 539.65 751.86 539.65 761.23 539.65 770.59 539.65 779.96 539.65 789.33 539.65 789.33 549.04 798.69 549.04 808.06 549.04 817.42 549.04 817.42 558.43 826.79 558.43 836.15 558.43 836.15 567.83 845.52 567.83 845.52 577.22 845.52 586.61 854.89 586.61 854.89 596 854.89 605.39 864.25 605.39 864.25 596 873.62 596 882.98 596 882.98 586.61 892.35 586.61 901.72 586.61 911.08 586.61 911.08 577.22 920.45 577.22 929.81 577.22 939.18 577.22 939.18 567.83 948.54 567.83 957.91 567.83 967.28 567.83 967.28 558.43 976.64 558.43 986.01 558.43 986.01 567.83 986.01 577.22 995.37 577.22 1004.74 577.22 1004.74 567.83 1014.11 567.83 1014.11 558.43 1023.47 558.43 1023.47 549.04 1014.11 549.04 1014.11 539.65"/><polygon class="cls-4" points="1266.98 549.04 1257.62 549.04 1248.25 549.04 1248.25 539.65 1238.89 539.65 1229.52 539.65 1229.52 530.26 1220.15 530.26 1210.79 530.26 1210.79 520.87 1201.42 520.87 1192.06 520.87 1182.69 520.87 1173.33 520.87 1163.96 520.87 1163.96 530.26 1154.59 530.26 1154.59 539.65 1145.23 539.65 1145.23 549.04 1135.86 549.04 1135.86 558.43 1126.5 558.43 1117.13 558.43 1117.13 549.04 1107.76 549.04 1098.4 549.04 1089.03 549.04 1089.03 539.65 1079.67 539.65 1070.3 539.65 1060.93 539.65 1051.57 539.65 1051.57 549.04 1060.93 549.04 1070.3 549.04 1070.3 558.43 1079.67 558.43 1079.67 567.83 1089.03 567.83 1089.03 577.22 1098.4 577.22 1098.4 586.61 1098.4 596 1107.76 596 1107.76 605.39 1117.13 605.39 1117.13 614.78 1126.5 614.78 1126.5 624.17 1135.86 624.17 1145.23 624.17 1154.59 624.17 1154.59 614.78 1163.96 614.78 1173.33 614.78 1173.33 605.39 1182.69 605.39 1192.06 605.39 1192.06 596 1201.42 596 1201.42 586.61 1210.79 586.61 1220.15 586.61 1220.15 577.22 1229.52 577.22 1229.52 567.83 1238.89 567.83 1248.25 567.83 1257.62 567.83 1266.98 567.83 1266.98 558.43 1266.98 549.04"/><rect class="cls-4" x="1266.98" y="567.83" width="9.37" height="9.39"/><rect class="cls-4" x="1285.72" y="586.61" width="9.37" height="9.39"/><polygon class="cls-4" points="1426.2 605.39 1416.84 605.39 1407.47 605.39 1407.47 596 1398.11 596 1388.74 596 1379.37 596 1379.37 586.61 1370.01 586.61 1360.64 586.61 1351.28 586.61 1351.28 596 1341.91 596 1332.54 596 1323.18 596 1313.81 596 1304.45 596 1295.08 596 1295.08 605.39 1304.45 605.39 1304.45 614.78 1313.81 614.78 1323.18 614.78 1332.54 614.78 1341.91 614.78 1341.91 605.39 1351.28 605.39 1360.64 605.39 1370.01 605.39 1379.37 605.39 1388.74 605.39 1398.11 605.39 1398.11 614.78 1407.47 614.78 1416.84 614.78 1416.84 624.17 1416.84 633.57 1426.2 633.57 1435.57 633.57 1435.57 624.17 1435.57 614.78 1426.2 614.78 1426.2 605.39"/><rect class="cls-4" x="1538.59" y="624.17" width="9.37" height="9.39"/><rect class="cls-4" x="1547.96" y="633.57" width="9.37" height="9.39"/><polygon class="cls-4" points="1669.71 642.96 1660.35 642.96 1650.98 642.96 1641.62 642.96 1632.25 642.96 1632.25 652.35 1622.89 652.35 1613.52 652.35 1604.15 652.35 1594.79 652.35 1585.42 652.35 1585.42 642.96 1576.06 642.96 1566.69 642.96 1557.33 642.96 1557.33 652.35 1566.69 652.35 1566.69 661.74 1576.06 661.74 1585.42 661.74 1594.79 661.74 1604.15 661.74 1604.15 671.13 1613.52 671.13 1613.52 661.74 1622.89 661.74 1632.25 661.74 1641.62 661.74 1650.98 661.74 1650.98 652.35 1660.35 652.35 1669.71 652.35 1679.08 652.35 1688.45 652.35 1688.45 642.96 1679.08 642.96 1669.71 642.96"/><polygon class="cls-4" points="1763.37 671.13 1763.37 661.74 1754.01 661.74 1754.01 652.35 1744.64 652.35 1735.28 652.35 1725.91 652.35 1716.54 652.35 1707.18 652.35 1697.81 652.35 1697.81 661.74 1707.18 661.74 1716.54 661.74 1725.91 661.74 1735.28 661.74 1744.64 661.74 1744.64 671.13 1754.01 671.13 1754.01 680.52 1763.37 680.52 1772.74 680.52 1772.74 671.13 1763.37 671.13"/><polygon class="cls-5" points="1744.64 671.13 1744.64 661.74 1735.28 661.74 1725.91 661.74 1716.54 661.74 1707.18 661.74 1697.81 661.74 1697.81 652.35 1688.45 652.35 1679.08 652.35 1669.71 652.35 1660.35 652.35 1650.98 652.35 1650.98 661.74 1641.62 661.74 1632.25 661.74 1622.89 661.74 1613.52 661.74 1613.52 671.13 1604.15 671.13 1604.15 661.74 1594.79 661.74 1585.42 661.74 1576.06 661.74 1566.69 661.74 1566.69 652.35 1557.33 652.35 1557.33 642.96 1547.96 642.96 1547.96 633.57 1538.59 633.57 1538.59 624.17 1529.23 624.17 1519.86 624.17 1510.49 624.17 1501.13 624.17 1491.76 624.17 1482.4 624.17 1473.03 624.17 1463.67 624.17 1454.3 624.17 1444.93 624.17 1435.57 624.17 1435.57 633.57 1426.2 633.57 1416.84 633.57 1416.84 624.17 1416.84 614.78 1407.47 614.78 1398.11 614.78 1398.11 605.39 1388.74 605.39 1379.37 605.39 1370.01 605.39 1360.64 605.39 1351.28 605.39 1341.91 605.39 1341.91 614.78 1332.54 614.78 1323.18 614.78 1313.81 614.78 1304.45 614.78 1304.45 605.39 1295.08 605.39 1295.08 596 1285.71 596 1285.71 586.61 1285.71 577.22 1276.35 577.22 1266.98 577.22 1266.98 567.83 1257.62 567.83 1248.25 567.83 1238.89 567.83 1229.52 567.83 1229.52 577.22 1220.15 577.22 1220.15 586.61 1210.79 586.61 1201.42 586.61 1201.42 596 1192.06 596 1192.06 605.39 1182.69 605.39 1173.33 605.39 1173.33 614.78 1163.96 614.78 1154.59 614.78 1154.59 624.17 1145.23 624.17 1135.86 624.17 1126.5 624.17 1126.5 614.78 1117.13 614.78 1117.13 605.39 1107.76 605.39 1107.76 596 1098.4 596 1098.4 586.61 1098.4 577.22 1089.03 577.22 1089.03 567.83 1079.67 567.83 1079.67 558.43 1070.3 558.43 1070.3 549.04 1060.93 549.04 1051.57 549.04 1042.2 549.04 1032.84 549.04 1023.47 549.04 1023.47 558.43 1014.11 558.43 1014.11 567.83 1004.74 567.83 1004.74 577.22 995.37 577.22 986.01 577.22 986.01 567.83 986.01 558.43 976.64 558.43 967.28 558.43 967.28 567.83 957.91 567.83 948.54 567.83 939.18 567.83 939.18 577.22 929.81 577.22 920.45 577.22 911.08 577.22 911.08 586.61 901.72 586.61 892.35 586.61 882.98 586.61 882.98 596 873.62 596 864.25 596 864.25 605.39 854.89 605.39 854.89 596 854.89 586.61 845.52 586.61 845.52 577.22 845.52 567.83 836.15 567.83 836.15 558.43 826.79 558.43 817.42 558.43 817.42 549.04 808.06 549.04 798.69 549.04 789.33 549.04 789.33 539.65 779.96 539.65 770.59 539.65 761.23 539.65 751.86 539.65 742.5 539.65 742.5 549.04 733.13 549.04 733.13 558.43 723.76 558.43 714.4 558.43 705.03 558.43 705.03 549.04 705.03 539.65 695.67 539.65 686.3 539.65 686.3 530.26 676.93 530.26 667.57 530.26 658.2 530.26 648.84 530.26 639.47 530.26 639.47 539.65 630.11 539.65 620.74 539.65 620.74 549.04 611.37 549.04 611.37 539.65 602.01 539.65 592.64 539.65 592.64 530.26 583.28 530.26 573.91 530.26 573.91 520.87 564.54 520.87 564.54 511.48 555.18 511.48 545.81 511.48 536.45 511.48 527.08 511.48 517.72 511.48 508.35 511.48 498.98 511.48 489.62 511.48 480.25 511.48 470.89 511.48 470.89 520.87 461.52 520.87 461.52 530.26 452.15 530.26 452.15 539.65 442.79 539.65 442.79 549.04 442.79 558.43 433.42 558.43 433.42 567.83 433.42 577.22 424.06 577.22 424.06 586.61 414.69 586.61 414.69 596 405.32 596 405.32 586.61 395.96 586.61 386.59 586.61 377.23 586.61 377.23 577.22 367.86 577.22 358.5 577.22 349.13 577.22 339.76 577.22 339.76 567.83 330.4 567.83 321.03 567.83 311.67 567.83 302.3 567.83 292.94 567.83 283.57 567.83 283.57 577.22 274.2 577.22 264.84 577.22 255.47 577.22 246.1 577.22 246.1 586.61 236.74 586.61 236.74 596 227.37 596 218.01 596 218.01 605.39 208.64 605.39 208.64 614.78 199.28 614.78 189.91 614.78 189.91 624.17 180.54 624.17 180.54 633.57 171.18 633.57 161.81 633.57 152.45 633.57 152.45 642.96 143.08 642.96 133.72 642.96 124.35 642.96 114.98 642.96 105.62 642.96 96.25 642.96 86.89 642.96 77.52 642.96 68.15 642.96 68.15 652.35 58.79 652.35 49.42 652.35 49.42 661.74 40.06 661.74 30.69 661.74 30.69 671.13 30.69 680.52 40.06 680.52 49.42 680.52 58.79 680.52 68.15 680.52 77.52 680.52 86.89 680.52 96.25 680.52 105.62 680.52 105.62 671.13 114.98 671.13 114.98 680.52 124.35 680.52 133.72 680.52 143.08 680.52 152.45 680.52 161.81 680.52 161.81 671.13 171.18 671.13 180.54 671.13 180.54 661.74 189.91 661.74 199.28 661.74 199.28 652.35 208.64 652.35 218.01 652.35 218.01 642.96 227.37 642.96 236.74 642.96 246.1 642.96 255.47 642.96 264.84 642.96 274.2 642.96 283.57 642.96 283.57 652.35 292.94 652.35 302.3 652.35 311.67 652.35 321.03 652.35 321.03 661.74 330.4 661.74 339.76 661.74 339.76 671.13 349.13 671.13 358.5 671.13 367.86 671.13 367.86 680.52 377.23 680.52 386.59 680.52 395.96 680.52 395.96 689.91 405.32 689.91 414.69 689.91 424.06 689.91 433.42 689.91 442.79 689.91 452.15 689.91 461.52 689.91 470.89 689.91 480.25 689.91 489.62 689.91 498.98 689.91 508.35 689.91 517.72 689.91 527.08 689.91 536.45 689.91 545.81 689.91 555.18 689.91 555.18 680.52 564.54 680.52 573.91 680.52 583.28 680.52 592.64 680.52 602.01 680.52 602.01 671.13 611.37 671.13 611.37 680.52 620.74 680.52 630.11 680.52 639.47 680.52 648.84 680.52 658.2 680.52 658.2 689.91 667.57 689.91 676.93 689.91 686.3 689.91 695.67 689.91 705.03 689.91 705.03 699.3 714.4 699.3 723.76 699.3 733.13 699.3 742.5 699.3 742.5 708.7 751.86 708.7 761.23 708.7 770.59 708.7 779.96 708.7 789.33 708.7 798.69 708.7 808.06 708.7 817.42 708.7 826.79 708.7 826.79 718.09 836.15 718.09 845.52 718.09 854.89 718.09 864.25 718.09 873.62 718.09 882.98 718.09 892.35 718.09 892.35 708.7 901.72 708.7 911.08 708.7 920.45 708.7 929.81 708.7 939.18 708.7 948.54 708.7 948.54 699.3 957.91 699.3 967.28 699.3 976.64 699.3 986.01 699.3 995.37 699.3 995.37 689.91 1004.74 689.91 1014.11 689.91 1023.47 689.91 1032.84 689.91 1032.84 680.52 1042.2 680.52 1051.57 680.52 1051.57 671.13 1060.93 671.13 1070.3 671.13 1070.3 661.74 1079.67 661.74 1089.03 661.74 1098.4 661.74 1098.4 652.35 1107.76 652.35 1117.13 652.35 1126.5 652.35 1135.86 652.35 1145.23 652.35 1154.59 652.35 1163.96 652.35 1173.33 652.35 1182.69 652.35 1182.69 661.74 1192.06 661.74 1201.42 661.74 1210.79 661.74 1210.79 671.13 1220.15 671.13 1229.52 671.13 1238.89 671.13 1238.89 680.52 1248.25 680.52 1257.62 680.52 1266.98 680.52 1276.35 680.52 1276.35 689.91 1285.71 689.91 1295.08 689.91 1304.45 689.91 1313.81 689.91 1323.18 689.91 1332.54 689.91 1341.91 689.91 1341.91 680.52 1351.28 680.52 1360.64 680.52 1370.01 680.52 1379.37 680.52 1379.37 671.13 1388.74 671.13 1398.11 671.13 1407.47 671.13 1407.47 661.74 1416.84 661.74 1426.2 661.74 1435.57 661.74 1444.93 661.74 1454.3 661.74 1463.67 661.74 1473.03 661.74 1473.03 671.13 1482.4 671.13 1491.76 671.13 1501.13 671.13 1510.49 671.13 1510.49 680.52 1519.86 680.52 1529.23 680.52 1538.59 680.52 1547.96 680.52 1557.33 680.52 1566.69 680.52 1576.06 680.52 1585.42 680.52 1585.42 689.91 1594.79 689.91 1604.15 689.91 1613.52 689.91 1622.89 689.91 1632.25 689.91 1641.62 689.91 1650.98 689.91 1660.35 689.91 1669.71 689.91 1679.08 689.91 1679.08 680.52 1688.45 680.52 1697.81 680.52 1707.18 680.52 1716.54 680.52 1716.54 689.91 1725.91 689.91 1735.28 689.91 1735.28 680.52 1744.64 680.52 1754.01 680.52 1754.01 671.13 1744.64 671.13"/></g></g><g id="nuage4"><g class="cls-2"><polygon class="cls-6" points="1559.89 508 1559.89 498.61 1559.89 489.22 1569.26 489.22 1578.63 489.22 1587.99 489.22 1587.99 479.83 1587.99 470.44 1597.36 470.44 1597.36 461.04 1606.72 461.04 1606.72 451.65 1616.09 451.65 1625.45 451.65 1625.45 442.26 1634.82 442.26 1644.19 442.26 1653.55 442.26 1662.92 442.26 1662.92 432.87 1672.28 432.87 1672.28 423.48 1681.65 423.48 1691.02 423.48 1700.38 423.48 1709.75 423.48 1719.11 423.48 1719.11 414.09 1728.48 414.09 1728.48 404.7 1737.85 404.7 1747.21 404.7 1756.58 404.7 1756.58 395.3 1765.94 395.3 1775.31 395.3 1775.31 404.7 1784.67 404.7 1794.04 404.7 1794.04 414.09 1803.41 414.09 1812.77 414.09 1822.14 414.09 1831.5 414.09 1840.87 414.09 1850.23 414.09 1859.6 414.09 1868.97 414.09 1868.97 423.48 1878.33 423.48 1887.7 423.48 1887.7 432.87 1887.7 442.26 1887.7 451.65 1897.06 451.65 1897.06 461.04 1906.43 461.04 1906.43 470.44 1915.8 470.44 1915.8 479.83 1915.8 489.22 1915.8 498.61 1925.16 498.61 1925.16 508 1925.16 517.39 1915.8 517.39 1915.8 508 1906.43 508 1906.43 498.61 1897.06 498.61 1897.06 489.22 1887.7 489.22 1887.7 479.83 1878.33 479.83 1878.33 470.44 1868.97 470.44 1859.6 470.44 1850.23 470.44 1840.87 470.44 1831.5 470.44 1831.5 479.83 1822.14 479.83 1822.14 489.22 1812.77 489.22 1803.41 489.22 1803.41 479.83 1794.04 479.83 1794.04 470.44 1784.67 470.44 1784.67 461.04 1775.31 461.04 1775.31 451.65 1765.94 451.65 1765.94 442.26 1756.58 442.26 1756.58 432.87 1747.21 432.87 1737.85 432.87 1728.48 432.87 1719.11 432.87 1719.11 442.26 1709.75 442.26 1700.38 442.26 1700.38 451.65 1691.02 451.65 1681.65 451.65 1681.65 461.04 1681.65 470.44 1681.65 479.83 1681.65 489.22 1672.28 489.22 1662.92 489.22 1653.55 489.22 1653.55 479.83 1644.19 479.83 1644.19 470.44 1634.82 470.44 1625.45 470.44 1616.09 470.44 1616.09 479.83 1616.09 489.22 1606.72 489.22 1606.72 498.61 1597.36 498.61 1587.99 498.61 1578.63 498.61 1578.63 508 1569.26 508 1569.26 517.39 1559.89 517.39 1559.89 526.78 1550.53 526.78 1550.53 517.39 1550.53 508 1559.89 508"/><polygon class="cls-6" points="1430.89 517.39 1430.89 508 1430.89 498.61 1440.25 498.61 1449.62 498.61 1458.98 498.61 1458.98 489.22 1458.98 479.83 1468.35 479.83 1468.35 470.44 1477.71 470.44 1477.71 461.04 1487.08 461.04 1496.45 461.04 1496.45 451.65 1505.81 451.65 1515.18 451.65 1524.54 451.65 1533.91 451.65 1533.91 442.26 1543.28 442.26 1543.28 432.87 1552.64 432.87 1562.01 432.87 1571.37 432.87 1580.74 432.87 1590.11 432.87 1590.11 423.48 1599.47 423.48 1599.47 414.09 1608.84 414.09 1618.2 414.09 1627.57 414.09 1627.57 404.7 1636.93 404.7 1646.3 404.7 1646.3 414.09 1655.67 414.09 1665.03 414.09 1665.03 423.48 1674.4 423.48 1683.76 423.48 1693.13 423.48 1702.5 423.48 1711.86 423.48 1721.23 423.48 1730.59 423.48 1739.96 423.48 1739.96 432.87 1749.33 432.87 1758.69 432.87 1758.69 442.26 1758.69 451.65 1758.69 461.04 1768.06 461.04 1768.06 470.44 1777.42 470.44 1777.42 479.83 1786.79 479.83 1786.79 489.22 1786.79 498.61 1786.79 508 1796.15 508 1796.15 517.39 1796.15 526.78 1786.79 526.78 1786.79 517.39 1777.42 517.39 1777.42 508 1768.06 508 1768.06 498.61 1758.69 498.61 1758.69 489.22 1749.33 489.22 1749.33 479.83 1739.96 479.83 1730.59 479.83 1721.23 479.83 1711.86 479.83 1702.5 479.83 1702.5 489.22 1693.13 489.22 1693.13 498.61 1683.76 498.61 1674.4 498.61 1674.4 489.22 1665.03 489.22 1665.03 479.83 1655.67 479.83 1655.67 470.44 1646.3 470.44 1646.3 461.04 1636.93 461.04 1636.93 451.65 1627.57 451.65 1627.57 442.26 1618.2 442.26 1608.84 442.26 1599.47 442.26 1590.11 442.26 1590.11 451.65 1580.74 451.65 1571.37 451.65 1571.37 461.04 1562.01 461.04 1552.64 461.04 1552.64 470.44 1552.64 479.83 1552.64 489.22 1552.64 498.61 1543.28 498.61 1533.91 498.61 1524.54 498.61 1524.54 489.22 1515.18 489.22 1515.18 479.83 1505.81 479.83 1496.45 479.83 1487.08 479.83 1487.08 489.22 1487.08 498.61 1477.71 498.61 1477.71 508 1468.35 508 1458.98 508 1449.62 508 1449.62 517.39 1440.25 517.39 1440.25 526.78 1430.89 526.78 1430.89 536.17 1421.52 536.17 1421.52 526.78 1421.52 517.39 1430.89 517.39"/><polygon class="cls-5" points="1906.43 536.17 1906.43 545.57 1897.06 545.57 1887.7 545.57 1878.33 545.57 1878.33 536.17 1868.97 536.17 1859.6 536.17 1859.6 526.78 1850.23 526.78 1840.87 526.78 1831.5 526.78 1822.14 526.78 1822.14 536.17 1812.77 536.17 1812.77 526.78 1812.77 517.39 1803.41 517.39 1803.41 508 1794.04 508 1784.67 508 1775.31 508 1765.94 508 1765.94 517.39 1756.58 517.39 1747.21 517.39 1747.21 526.78 1737.85 526.78 1728.48 526.78 1719.11 526.78 1719.11 517.39 1709.75 517.39 1709.75 508 1700.38 508 1700.38 498.61 1691.02 498.61 1681.65 498.61 1681.65 489.22 1672.28 489.22 1662.92 489.22 1653.55 489.22 1653.55 498.61 1644.19 498.61 1644.19 508 1634.82 508 1634.82 517.39 1625.45 517.39 1625.45 526.78 1618.2 526.78 1616.09 526.78 1616.09 517.39 1616.09 508 1606.72 508 1606.72 498.61 1597.36 498.61 1587.99 498.61 1578.63 498.61 1578.63 508 1571.37 508 1569.26 508 1562.01 508 1552.64 508 1552.64 498.61 1543.28 498.61 1533.91 498.61 1524.54 498.61 1524.54 508 1515.18 508 1515.18 517.39 1505.81 517.39 1505.81 526.78 1496.45 526.78 1496.45 536.17 1487.08 536.17 1487.08 526.78 1487.08 517.39 1477.71 517.39 1477.71 508 1468.35 508 1458.98 508 1449.62 508 1449.62 517.39 1440.25 517.39 1440.25 526.78 1430.89 526.78 1430.89 536.17 1421.52 536.17 1421.52 545.57 1421.52 554.96 1421.52 564.35 1430.89 564.35 1430.89 573.74 1440.25 573.74 1440.25 583.13 1449.62 583.13 1458.98 583.13 1468.35 583.13 1477.71 583.13 1487.08 583.13 1496.45 583.13 1505.81 583.13 1515.18 583.13 1515.18 592.52 1524.54 592.52 1533.91 592.52 1543.28 592.52 1552.64 592.52 1562.01 592.52 1571.37 592.52 1580.74 592.52 1580.74 583.13 1590.11 583.13 1599.47 583.13 1608.84 583.13 1618.2 583.13 1618.2 573.74 1625.45 573.74 1627.57 573.74 1627.57 583.13 1636.93 583.13 1644.19 583.13 1646.3 583.13 1653.55 583.13 1655.67 583.13 1662.92 583.13 1665.03 583.13 1665.03 592.52 1674.4 592.52 1683.76 592.52 1693.13 592.52 1702.5 592.52 1711.86 592.52 1711.86 583.13 1721.23 583.13 1730.59 583.13 1739.96 583.13 1749.33 583.13 1758.69 583.13 1768.06 583.13 1768.06 573.74 1775.31 573.74 1777.42 573.74 1784.67 573.74 1794.04 573.74 1794.04 583.13 1803.41 583.13 1812.77 583.13 1822.14 583.13 1831.5 583.13 1840.87 583.13 1840.87 573.74 1850.23 573.74 1859.6 573.74 1868.97 573.74 1878.33 573.74 1887.7 573.74 1897.06 573.74 1897.06 564.35 1906.43 564.35 1906.43 554.96 1915.8 554.96 1915.8 545.57 1915.8 536.17 1906.43 536.17"/><polygon class="cls-4" points="1515.18 479.83 1505.81 479.83 1496.45 479.83 1487.08 479.83 1487.08 489.22 1487.08 498.61 1477.71 498.61 1477.71 508 1477.71 517.39 1487.08 517.39 1487.08 526.78 1487.08 536.17 1496.45 536.17 1496.45 526.78 1505.81 526.78 1505.81 517.39 1515.18 517.39 1515.18 508 1524.54 508 1524.54 498.61 1524.54 489.22 1515.18 489.22 1515.18 479.83"/><polygon class="cls-4" points="1915.8 517.39 1915.8 508 1906.43 508 1906.43 498.61 1897.06 498.61 1897.06 489.22 1887.7 489.22 1887.7 479.83 1878.33 479.83 1878.33 470.44 1868.97 470.44 1859.6 470.44 1850.23 470.44 1840.87 470.44 1831.5 470.44 1831.5 479.83 1822.14 479.83 1822.14 489.22 1812.77 489.22 1803.41 489.22 1803.41 479.83 1794.04 479.83 1794.04 470.44 1784.67 470.44 1784.67 461.04 1775.31 461.04 1775.31 451.65 1765.94 451.65 1765.94 442.26 1756.58 442.26 1756.58 432.87 1747.21 432.87 1737.85 432.87 1728.48 432.87 1719.11 432.87 1719.11 442.26 1709.75 442.26 1700.38 442.26 1700.38 451.65 1691.02 451.65 1681.65 451.65 1681.65 461.04 1681.65 470.44 1681.65 479.83 1681.65 489.22 1681.65 498.61 1674.4 498.61 1674.4 489.22 1665.03 489.22 1665.03 479.83 1655.67 479.83 1655.67 470.44 1646.3 470.44 1646.3 461.04 1636.93 461.04 1636.93 451.65 1627.57 451.65 1627.57 442.26 1618.2 442.26 1608.84 442.26 1599.47 442.26 1590.11 442.26 1590.11 451.65 1580.74 451.65 1571.37 451.65 1571.37 461.04 1562.01 461.04 1552.64 461.04 1552.64 470.44 1552.64 479.83 1552.64 489.22 1552.64 498.61 1552.64 508 1562.01 508 1571.37 508 1571.37 517.39 1580.74 517.39 1580.74 526.78 1590.11 526.78 1590.11 536.17 1599.47 536.17 1608.84 536.17 1618.2 536.17 1618.2 526.78 1625.45 526.78 1627.57 526.78 1636.93 526.78 1636.93 517.39 1646.3 517.39 1655.67 517.39 1665.03 517.39 1674.4 517.39 1674.4 526.78 1683.76 526.78 1683.76 536.17 1683.76 545.57 1693.13 545.57 1693.13 536.17 1702.5 536.17 1711.86 536.17 1721.23 536.17 1730.59 536.17 1730.59 545.57 1739.96 545.57 1749.33 545.57 1749.33 554.96 1758.69 554.96 1768.06 554.96 1777.42 554.96 1777.42 545.57 1786.79 545.57 1786.79 536.17 1796.15 536.17 1796.15 526.78 1786.79 526.78 1786.79 517.39 1777.42 517.39 1777.42 508 1784.67 508 1794.04 508 1803.41 508 1803.41 517.39 1812.77 517.39 1812.77 526.78 1812.77 536.17 1822.14 536.17 1822.14 526.78 1831.5 526.78 1840.87 526.78 1850.23 526.78 1859.6 526.78 1859.6 536.17 1868.97 536.17 1878.33 536.17 1878.33 545.57 1887.7 545.57 1897.06 545.57 1906.43 545.57 1906.43 536.17 1915.8 536.17 1915.8 526.78 1925.16 526.78 1925.16 517.39 1915.8 517.39"/></g></g><g id="nuage5"><g class="cls-2"><rect class="cls-3" x="1580.98" y="304.35" width="9.37" height="9.39"/><rect class="cls-3" x="1473.28" y="299.65" width="9.37" height="9.39"/><rect class="cls-3" x="1346.84" y="327.83" width="9.37" height="9.39"/><rect class="cls-3" x="1492.02" y="285.57" width="9.37" height="9.39"/><path class="cls-3" d="M1707.42,219.83H1670V201h-9.37v-9.39h-18.73v-9.39h-18.73v-9.39H1576.3v9.39h-18.73v9.39h-9.37v-9.39h-9.36v-9.39h-28.1v-9.39h-37.46v9.39h-18.74v9.39h-26v-9.39H1409.8v-9.39H1403v-4.7h-56.19V140h-9.37v-9.39h-18.73v-9.39H1300v-9.39h-46.83v9.39h-18.73v9.39h-9.37v-9.39h-9.36v-9.39h-28.1v-9.4h-37.47v9.4h-18.73v9.39h-9.36V140h-9.37v28.17h-65.56v9.4h-9.37V187h-9.36v18.78H1019v9.39H944.11v9.39h-9.37v9.39h-14v-4.69h9.36v-9.39H897.28v-4.7h-9.37v-9.39h-14V201H864.5v-9.39H845.77v-9.39H827v-9.39H780.21v9.39H761.48v9.39h-9.37v-9.39h-9.36v-9.39h-28.1v-9.39H677.19v9.39H658.45v9.39h-9.36V201h-9.37v28.18H574.16v9.39H564.8V248h-9.37v18.78h-9.37v9.39H471.14v9.4h-9.37V295H443v-9.39H424.31v-9.4h-9.37v-9.39h-28.1v9.39h-9.36v9.4h-9.37v-9.4H321.28v9.4H302.55V295h-9.36v9.39h-9.37v28.17h-9.37v9.39h-9.36v-9.39h-9.37v-9.39h-9.36v-9.39h-56.2v9.39H180.8v9.39H143.33v9.39H134V360.7H124.6v9.39H77.77v9.39H68.41V417h9.36v-9.39H96.5v-9.39h18.73v-9.39H134v-9.39h9.36v-9.39h9.37V360.7h18.73v-9.4h18.73v-9.39h37.46v9.39h18.74v9.4h9.36v9.39h9.37v18.78h18.73v-9.39h18.73v-9.39h9.37V360.7h18.73v-9.4H340v-9.39h28.09v-9.39h28.1v-9.39h18.73v9.39h18.73v9.39h28.1v9.39H480.5v-9.39h9.37v-9.39h9.36v-9.39h9.37v-9.39H518v-9.39h28.09V295h56.2v4.69h-4.69V309H550.74v9.39h-9.37V356h9.37v-9.39h18.73v-9.39H588.2v-9.39h18.73v-9.4h9.37v-4.69H621v9.39h18.73v9.39h9.37V313.74h9.36V295h9.37V280.87h32.77v9.39h18.73v9.39h9.37V309h9.37v9.39H719.32v4.7h-51.5v4.7H653.76v9.39H635v4.69H621v9.39h-9.37V356h-9.36v9.39h-9.37v14.09H588.2v-4.7h-9.36v-9.39h-56.2v9.39h-9.36v9.39H475.81v9.4h-9.36v18.78h-9.37v9.39H410.25v9.39h-9.36V468.7h9.36v-9.4H429v-9.39h18.74v-9.39h18.73v-9.39h9.36v-9.39h9.37v-9.39h18.73V403h18.73v-9.39H536.7V403h-9.37v37.56h9.37v-9.39h18.73v-4.7h0v-4.69h18.73V417h0v-4.69h14v9.39h9.37v18.78H616.3v-9.39H635v14.09h9.37v-9.39h18.73v-9.4h18.73V417h18.73v-9.39H710v-9.39h9.36v-4.69H724v18.78h18.73V403h18.73v-4.7h0v-4.69h32.77V403H813v-9.39h9.37v4.69h9.37V417h18.73v-9.39h14V417h9.36v-9.39h18.73v-9.39h18.73v-9.39h18.74v-9.39h9.36v-4.7h0v-4.69h9.36v-4.7h4.68v9.39H972.2v9.39h9.37V365.39h9.36V360.7h9.37v9.39h28.1v9.39h18.73v-9.39h14v18.78h18.73v-9.39h18.73v-9.39H1108V360.7h18.73v-9.4h9.37v-4.69h14V356h28.1v-9.39h9.37v-4.7h0v9.39h18.73v9.4h9.37V341.91h9.36v-9.39h4.68v9.39h28.1v9.39h18.73v-9.39H1286v-9.39h9.36v-4.69h9.38v-9.4h9.36v-4.69h9.37v-9.39h23.41v9.39h18.73v9.39h18.73v9.39h28.1v-9.39h23.41v9.39h9.37V313.74h9.36V295h9.37V276.17h18.73v-9.39h74.93v9.39h18.73v9.4H1595V295h18.73v9.39h28.1V295h9.37V276.17h9.36v-9.39H1670v-9.39h9.36V248h18.74v-9.39h18.73v-9.39h9.36v-9.39h-18.73ZM869.18,271.48v-4.7h4.69v-4.69h14v9.39h16.14v4.69H864.5v9.4h-9.36v4.69h0V276.17h9.36v-4.69Zm-140.49,0v-4.7h28.1v4.7h-9.37v9.39h-9.36v-9.39ZM681.86,398.26h-2.59v-4.69h12v4.69Z"/><rect class="cls-3" x="1810.45" y="276.17" width="9.37" height="9.39"/><polygon class="cls-4" points="1847.91 388.87 1847.91 379.48 1847.91 370.09 1847.91 360.7 1838.54 360.7 1829.18 360.7 1829.18 351.3 1819.81 351.3 1819.81 341.91 1819.81 332.52 1829.18 332.52 1829.18 323.13 1829.18 313.74 1829.18 304.35 1819.81 304.35 1819.81 294.96 1819.81 285.56 1810.45 285.56 1810.45 276.17 1801.08 276.17 1791.71 276.17 1782.35 276.17 1772.98 276.17 1772.98 266.78 1763.62 266.78 1763.62 257.39 1763.62 248 1754.25 248 1754.25 238.61 1744.89 238.61 1744.89 229.22 1735.52 229.22 1726.15 229.22 1716.79 229.22 1716.79 238.61 1707.42 238.61 1698.06 238.61 1698.06 248 1688.69 248 1679.33 248 1679.33 257.39 1669.96 257.39 1669.96 266.78 1660.59 266.78 1660.59 276.17 1651.23 276.17 1651.23 285.56 1651.23 294.96 1641.86 294.96 1641.86 304.35 1632.49 304.35 1623.13 304.35 1613.76 304.35 1613.76 294.96 1604.4 294.96 1595.03 294.96 1595.03 285.56 1585.67 285.56 1576.3 285.56 1576.3 276.17 1566.93 276.17 1557.57 276.17 1557.57 266.78 1548.2 266.78 1538.84 266.78 1529.47 266.78 1520.11 266.78 1510.74 266.78 1501.37 266.78 1492.01 266.78 1482.64 266.78 1482.64 276.17 1477.96 276.17 1473.28 276.17 1468.59 276.17 1463.91 276.17 1459.23 276.17 1449.86 276.17 1449.86 266.78 1440.5 266.78 1440.5 257.39 1440.5 248 1431.13 248 1431.13 238.61 1421.76 238.61 1421.76 229.22 1412.4 229.22 1403.03 229.22 1393.67 229.22 1393.67 238.61 1384.3 238.61 1374.93 238.61 1374.93 248 1365.57 248 1356.2 248 1356.2 257.39 1346.84 257.39 1346.84 266.78 1337.47 266.78 1337.47 276.17 1328.11 276.17 1328.11 285.56 1328.11 294.96 1318.74 294.96 1318.74 304.35 1314.06 304.35 1309.37 304.35 1300.01 304.35 1290.64 304.35 1290.64 294.96 1281.28 294.96 1271.91 294.96 1271.91 285.56 1262.54 285.56 1253.18 285.56 1253.18 276.17 1243.81 276.17 1234.45 276.17 1234.45 266.78 1225.08 266.78 1215.71 266.78 1206.35 266.78 1196.98 266.78 1187.62 266.78 1178.25 266.78 1168.89 266.78 1159.52 266.78 1159.52 276.17 1150.15 276.17 1140.79 276.17 1140.79 285.56 1140.79 294.96 1131.42 294.96 1131.42 304.35 1131.42 313.74 1122.06 313.74 1122.06 323.13 1122.06 332.52 1112.69 332.52 1112.69 323.13 1103.33 323.13 1093.96 323.13 1093.96 313.74 1084.59 313.74 1084.59 304.35 1075.23 304.35 1075.23 294.96 1065.86 294.96 1056.5 294.96 1047.13 294.96 1037.76 294.96 1028.4 294.96 1023.72 294.96 1023.72 285.56 1014.36 285.56 1014.36 276.17 1004.99 276.17 995.63 276.17 986.26 276.17 976.89 276.17 976.89 266.78 967.53 266.78 967.53 257.39 967.53 248 958.16 248 958.16 238.61 948.8 238.61 948.8 229.22 939.43 229.22 930.06 229.22 920.7 229.22 920.7 238.61 911.33 238.61 901.97 238.61 901.97 248 892.6 248 883.24 248 883.24 257.39 873.87 257.39 873.87 266.78 864.5 266.78 864.5 276.17 855.14 276.17 855.14 285.56 855.14 294.96 845.77 294.96 845.77 304.35 836.4 304.35 827.04 304.35 817.67 304.35 817.67 294.96 808.31 294.96 798.94 294.96 798.94 285.56 789.58 285.56 780.21 285.56 780.21 276.17 770.84 276.17 761.48 276.17 761.48 266.78 752.11 266.78 742.75 266.78 733.38 266.78 724.01 266.78 714.65 266.78 705.28 266.78 695.92 266.78 686.55 266.78 686.55 276.17 677.19 276.17 667.82 276.17 667.82 285.56 667.82 294.96 658.45 294.96 658.45 304.35 658.45 313.74 649.09 313.74 649.09 323.13 649.09 332.52 639.72 332.52 639.72 323.13 630.36 323.13 620.99 323.13 620.99 313.74 611.63 313.74 611.63 304.35 602.26 304.35 602.26 294.96 592.89 294.96 583.53 294.96 574.16 294.96 564.8 294.96 555.43 294.96 546.06 294.96 546.06 304.35 536.7 304.35 527.33 304.35 517.97 304.35 517.97 313.74 508.6 313.74 508.6 323.13 499.24 323.13 499.24 332.52 489.87 332.52 489.87 341.91 480.5 341.91 480.5 351.3 471.14 351.3 461.77 351.3 461.77 341.91 452.4 341.91 443.04 341.91 433.67 341.91 433.67 332.52 424.31 332.52 414.94 332.52 414.94 323.13 405.58 323.13 396.21 323.13 396.21 332.52 386.84 332.52 377.48 332.52 368.11 332.52 368.11 341.91 358.75 341.91 349.38 341.91 340.01 341.91 340.01 351.3 330.65 351.3 330.65 360.7 321.28 360.7 311.92 360.7 311.92 370.09 302.55 370.09 302.55 379.48 293.19 379.48 283.82 379.48 283.82 388.87 293.19 388.87 302.55 388.87 302.55 398.26 311.92 398.26 321.28 398.26 330.65 398.26 330.65 407.65 340.01 407.65 340.01 417.04 349.38 417.04 349.38 426.44 358.75 426.44 368.11 426.44 377.48 426.44 377.48 435.83 386.84 435.83 396.21 435.83 405.58 435.83 414.94 435.83 424.31 435.83 433.67 435.83 433.67 426.44 443.04 426.44 452.4 426.44 452.4 417.04 461.77 417.04 471.14 417.04 480.5 417.04 489.87 417.04 489.87 426.44 499.24 426.44 508.6 426.44 508.6 435.83 517.97 435.83 527.33 435.83 536.7 435.83 546.06 435.83 555.43 435.83 564.8 435.83 574.16 435.83 583.53 435.83 583.53 445.22 592.89 445.22 592.89 435.83 597.57 435.83 602.26 435.83 606.93 435.83 616.3 435.83 625.67 435.83 635.03 435.83 635.03 426.44 644.4 426.44 653.76 426.44 663.13 426.44 672.5 426.44 681.86 426.44 681.86 435.83 691.23 435.83 700.59 435.83 709.96 435.83 709.96 426.44 714.65 426.44 714.65 435.83 724.01 435.83 724.01 445.22 733.38 445.22 733.38 435.83 742.75 435.83 752.11 435.83 761.48 435.83 761.48 426.44 770.84 426.44 770.84 417.04 780.21 417.04 789.58 417.04 789.58 407.65 798.94 407.65 803.62 407.65 808.31 407.65 812.98 407.65 812.98 417.04 822.35 417.04 822.35 426.44 831.72 426.44 841.08 426.44 850.45 426.44 850.45 435.83 859.81 435.83 864.5 435.83 869.18 435.83 873.87 435.83 878.54 435.83 883.24 435.83 887.91 435.83 892.6 435.83 897.28 435.83 906.64 435.83 906.64 426.44 911.33 426.44 911.33 435.83 920.69 435.83 930.06 435.83 939.42 435.83 948.79 435.83 958.15 435.83 958.15 426.44 958.16 426.44 962.84 426.44 967.52 426.44 967.53 426.44 972.2 426.44 976.89 426.44 976.89 426.44 981.57 426.44 981.57 435.83 990.93 435.83 1000.3 435.83 1004.98 435.83 1009.67 435.83 1014.35 435.83 1019.03 435.83 1023.72 435.83 1028.4 435.83 1033.08 435.83 1037.76 435.83 1047.13 435.83 1056.5 435.83 1056.5 445.22 1065.86 445.22 1065.86 435.83 1075.23 435.83 1075.23 426.44 1084.59 426.44 1084.59 417.04 1084.59 407.65 1093.96 407.65 1093.96 398.26 1098.64 398.26 1103.33 398.26 1108.01 398.26 1112.69 398.26 1117.37 398.26 1122.06 398.26 1126.74 398.26 1126.74 407.65 1136.11 407.65 1136.11 417.04 1145.47 417.04 1145.47 426.44 1154.84 426.44 1164.2 426.44 1173.57 426.44 1173.57 435.83 1182.93 435.83 1187.62 435.83 1192.3 435.83 1196.98 435.83 1196.98 445.22 1206.35 445.22 1206.35 435.83 1211.03 435.83 1215.71 435.83 1220.4 435.83 1225.08 435.83 1229.76 435.83 1234.45 435.83 1234.45 426.44 1239.13 426.44 1243.81 426.44 1248.49 426.44 1248.49 417.04 1253.18 417.04 1257.86 417.04 1262.54 417.04 1267.23 417.04 1276.59 417.04 1285.96 417.04 1285.96 426.44 1295.33 426.44 1304.69 426.44 1304.69 435.83 1314.06 435.83 1323.42 435.83 1332.79 435.83 1337.47 435.83 1342.15 435.83 1346.84 435.83 1351.52 435.83 1356.2 435.83 1360.89 435.83 1365.57 435.83 1370.25 435.83 1379.62 435.83 1379.62 445.22 1388.98 445.22 1388.98 435.83 1398.35 435.83 1398.35 426.44 1407.71 426.44 1407.71 417.04 1412.4 417.04 1421.76 417.04 1421.76 426.44 1431.13 426.44 1440.5 426.44 1449.86 426.44 1449.86 417.04 1459.23 417.04 1459.23 407.65 1468.59 407.65 1468.59 398.26 1473.28 398.26 1473.28 407.65 1482.64 407.65 1492.01 407.65 1492.01 417.04 1501.37 417.04 1501.37 426.44 1510.74 426.44 1510.74 435.83 1520.11 435.83 1520.11 445.22 1529.47 445.22 1529.47 435.83 1538.84 435.83 1548.2 435.83 1557.57 435.83 1557.57 426.44 1566.93 426.44 1566.93 417.04 1576.3 417.04 1585.67 417.04 1585.67 407.65 1595.03 407.65 1604.4 407.65 1613.76 407.65 1623.13 407.65 1632.49 407.65 1641.86 407.65 1641.86 417.04 1651.23 417.04 1651.23 426.44 1660.59 426.44 1660.59 435.83 1669.96 435.83 1679.33 435.83 1688.69 435.83 1688.69 426.44 1698.06 426.44 1698.06 417.04 1707.42 417.04 1716.79 417.04 1726.15 417.04 1735.52 417.04 1744.89 417.04 1744.89 426.44 1754.25 426.44 1763.62 426.44 1772.98 426.44 1772.98 417.04 1782.35 417.04 1782.35 407.65 1791.71 407.65 1791.71 398.26 1801.08 398.26 1810.45 398.26 1819.81 398.26 1829.18 398.26 1829.18 407.65 1838.54 407.65 1847.91 407.65 1857.28 407.65 1857.28 398.26 1857.28 388.87 1847.91 388.87"/><polygon class="cls-4" points="265.09 388.87 265.09 379.48 265.09 370.09 255.72 370.09 255.72 360.7 246.36 360.7 246.36 351.3 236.99 351.3 227.63 351.3 227.63 341.91 218.26 341.91 208.89 341.91 199.53 341.91 190.16 341.91 190.16 351.3 180.8 351.3 171.43 351.3 171.43 360.7 162.06 360.7 152.7 360.7 152.7 370.09 143.33 370.09 143.33 379.48 133.97 379.48 133.97 388.87 124.6 388.87 115.23 388.87 115.23 398.26 105.87 398.26 96.5 398.26 96.5 407.65 87.14 407.65 77.77 407.65 77.77 417.04 77.77 426.44 87.14 426.44 96.5 426.44 105.87 426.44 115.23 426.44 115.23 435.83 124.6 435.83 133.97 435.83 143.33 435.83 152.7 435.83 162.06 435.83 162.06 426.44 171.43 426.44 180.8 426.44 190.16 426.44 199.53 426.44 208.89 426.44 208.89 435.83 218.26 435.83 227.63 435.83 236.99 435.83 236.99 426.44 246.36 426.44 246.36 417.04 255.72 417.04 255.72 407.65 265.09 407.65 265.09 398.26 274.45 398.26 283.82 398.26 283.82 388.87 274.45 388.87 265.09 388.87"/><polygon class="cls-5" points="1866.64 426.44 1866.64 417.04 1857.28 417.04 1857.28 407.65 1847.91 407.65 1838.54 407.65 1829.18 407.65 1829.18 398.26 1819.81 398.26 1810.45 398.26 1801.08 398.26 1791.71 398.26 1791.71 407.65 1782.35 407.65 1782.35 417.04 1772.98 417.04 1772.98 426.44 1763.62 426.44 1754.25 426.44 1744.89 426.44 1744.89 417.04 1735.52 417.04 1726.15 417.04 1716.79 417.04 1707.42 417.04 1698.06 417.04 1698.06 426.44 1688.69 426.44 1688.69 435.83 1679.33 435.83 1669.96 435.83 1660.59 435.83 1660.59 426.44 1651.23 426.44 1651.23 417.04 1641.86 417.04 1641.86 407.65 1632.49 407.65 1623.13 407.65 1613.76 407.65 1604.4 407.65 1595.03 407.65 1585.67 407.65 1585.67 417.04 1576.3 417.04 1566.93 417.04 1566.93 426.44 1557.57 426.44 1557.57 435.83 1552.89 435.83 1552.89 426.44 1543.52 426.44 1543.52 417.04 1534.15 417.04 1534.15 407.65 1524.79 407.65 1515.42 407.65 1506.06 407.65 1506.06 398.26 1496.69 398.26 1487.33 398.26 1477.96 398.26 1473.28 398.26 1468.59 398.26 1463.91 398.26 1454.54 398.26 1445.18 398.26 1435.81 398.26 1426.45 398.26 1417.08 398.26 1417.08 407.65 1407.71 407.65 1407.71 417.04 1403.03 417.04 1393.67 417.04 1384.3 417.04 1374.93 417.04 1374.93 426.44 1365.57 426.44 1365.57 435.83 1360.89 435.83 1356.2 435.83 1351.52 435.83 1346.84 435.83 1342.15 435.83 1337.47 435.83 1337.47 426.44 1328.11 426.44 1328.11 417.04 1318.74 417.04 1318.74 407.65 1309.37 407.65 1300.01 407.65 1290.64 407.65 1281.28 407.65 1271.91 407.65 1262.54 407.65 1262.54 417.04 1257.86 417.04 1253.18 417.04 1248.49 417.04 1243.81 417.04 1243.81 426.44 1239.13 426.44 1234.45 426.44 1229.76 426.44 1229.76 435.83 1225.08 435.83 1220.4 435.83 1215.71 435.83 1211.03 435.83 1206.35 435.83 1201.67 435.83 1196.98 435.83 1192.3 435.83 1187.62 435.83 1187.62 426.44 1178.25 426.44 1178.25 417.04 1168.89 417.04 1168.89 407.65 1159.52 407.65 1150.15 407.65 1150.15 398.26 1140.79 398.26 1131.42 398.26 1126.74 398.26 1122.06 398.26 1117.37 398.26 1112.69 398.26 1108.01 398.26 1103.33 398.26 1098.64 398.26 1098.64 388.87 1089.28 388.87 1079.91 388.87 1079.91 398.26 1070.54 398.26 1061.18 398.26 1061.18 407.65 1051.82 407.65 1051.81 407.65 1042.45 407.65 1033.09 407.65 1033.09 398.26 1023.72 398.26 1014.36 398.26 1004.99 398.26 995.63 398.26 995.63 407.65 986.26 407.65 986.26 417.04 976.89 417.04 976.89 426.44 976.89 426.44 972.2 426.44 967.53 426.44 967.52 426.44 962.84 426.44 962.84 417.04 953.47 417.04 948.8 417.04 944.11 417.04 939.43 417.04 934.74 417.04 930.06 417.04 925.37 417.04 920.7 417.04 911.33 417.04 901.97 417.04 901.97 426.44 901.96 426.44 892.6 426.44 892.59 426.44 883.23 426.44 873.86 426.44 873.86 435.83 869.18 435.83 864.5 435.83 864.5 426.44 855.14 426.44 855.14 417.04 845.77 417.04 845.77 407.65 836.4 407.65 827.04 407.65 817.67 407.65 812.98 407.65 808.31 407.65 803.62 407.65 803.62 398.26 794.25 398.26 784.89 398.26 775.52 398.26 775.52 388.87 766.15 388.87 756.79 388.87 756.79 398.26 747.42 398.26 738.06 398.26 738.06 407.65 728.69 407.65 728.69 417.04 719.33 417.04 719.33 426.44 714.65 426.44 709.96 426.44 705.28 426.44 705.28 417.04 695.92 417.04 695.92 407.65 686.55 407.65 677.19 407.65 677.19 398.26 667.82 398.26 658.45 398.26 649.09 398.26 639.72 398.26 630.36 398.26 620.99 398.26 620.99 407.65 611.63 407.65 611.63 417.04 611.63 426.44 602.26 426.44 602.26 435.83 597.57 435.83 592.89 435.83 588.2 435.83 588.2 426.44 578.84 426.44 569.47 426.44 560.11 426.44 550.74 426.44 550.74 435.83 546.06 435.83 541.37 435.83 536.7 435.83 527.33 435.83 517.97 435.83 508.6 435.83 508.6 426.44 499.24 426.44 489.87 426.44 489.87 417.04 480.5 417.04 471.14 417.04 461.77 417.04 452.4 417.04 452.4 426.44 443.04 426.44 433.67 426.44 433.67 435.83 424.31 435.83 414.94 435.83 405.58 435.83 396.21 435.83 386.84 435.83 377.48 435.83 377.48 426.44 368.11 426.44 358.75 426.44 349.38 426.44 349.38 417.04 340.01 417.04 340.01 407.65 330.65 407.65 330.65 398.26 321.28 398.26 311.92 398.26 302.55 398.26 302.55 388.87 293.19 388.87 283.82 388.87 283.82 398.26 274.45 398.26 265.09 398.26 265.09 407.65 255.72 407.65 255.72 417.04 246.36 417.04 246.36 426.44 236.99 426.44 236.99 435.83 227.63 435.83 218.26 435.83 208.89 435.83 208.89 426.44 199.53 426.44 190.16 426.44 180.8 426.44 171.43 426.44 162.06 426.44 162.06 435.83 152.7 435.83 143.33 435.83 133.97 435.83 124.6 435.83 115.23 435.83 115.23 426.44 105.87 426.44 96.5 426.44 87.14 426.44 77.77 426.44 77.77 435.83 68.41 435.83 68.41 445.22 77.77 445.22 77.77 454.61 87.14 454.61 87.14 464 96.5 464 105.87 464 115.23 464 124.6 464 133.97 464 143.33 464 152.7 464 162.06 464 162.06 454.61 171.43 454.61 180.8 454.61 190.16 454.61 199.53 454.61 208.89 454.61 218.26 454.61 227.63 454.61 236.99 454.61 236.99 464 246.36 464 255.72 464 255.72 473.39 265.09 473.39 274.45 473.39 274.45 482.78 283.82 482.78 283.82 492.17 293.19 492.17 302.55 492.17 311.92 492.17 321.28 492.17 330.65 492.17 340.01 492.17 349.38 492.17 358.75 492.17 358.75 482.78 368.11 482.78 377.48 482.78 386.84 482.78 396.21 482.78 405.58 482.78 414.94 482.78 414.94 473.39 424.31 473.39 433.67 473.39 443.04 473.39 452.4 473.39 461.77 473.39 471.14 473.39 480.5 473.39 489.87 473.39 499.24 473.39 499.24 482.78 508.6 482.78 517.97 482.78 527.33 482.78 536.7 482.78 546.06 482.78 546.06 492.17 555.43 492.17 564.8 492.17 574.16 492.17 583.53 492.17 592.89 492.17 602.26 492.17 611.63 492.17 620.99 492.17 630.36 492.17 639.72 492.17 639.72 482.78 649.09 482.78 658.45 482.78 667.82 482.78 677.19 482.78 686.55 482.78 695.92 482.78 705.28 482.78 714.65 482.78 724.01 482.78 733.38 482.78 742.75 482.78 747.42 482.78 752.11 482.78 756.79 482.78 756.79 492.17 766.15 492.17 775.52 492.17 784.89 492.17 794.25 492.17 803.62 492.17 812.98 492.17 822.35 492.17 831.72 492.17 831.72 482.78 841.08 482.78 850.45 482.78 859.81 482.78 869.18 482.78 873.87 482.78 878.54 482.78 883.24 482.78 887.91 482.78 892.6 482.78 901.97 482.78 901.97 492.17 911.33 492.17 920.7 492.17 930.06 492.17 939.43 492.17 948.8 492.17 958.16 492.17 967.53 492.17 976.89 492.17 986.26 492.17 995.63 492.17 995.63 482.78 1000.3 482.78 1004.99 482.78 1009.67 482.78 1014.36 482.78 1019.03 482.78 1019.03 492.17 1028.4 492.17 1037.76 492.17 1047.13 492.17 1056.5 492.17 1065.86 492.17 1075.23 492.17 1079.91 492.17 1084.59 492.17 1089.28 492.17 1093.96 492.17 1098.64 492.17 1103.33 492.17 1108.01 492.17 1112.69 492.17 1117.37 492.17 1126.74 492.17 1136.11 492.17 1145.47 492.17 1154.84 492.17 1154.84 482.78 1159.52 482.78 1164.2 482.78 1168.89 482.78 1173.57 482.78 1178.25 482.78 1182.93 482.78 1187.62 482.78 1192.3 482.78 1196.98 482.78 1201.67 482.78 1206.35 482.78 1211.03 482.78 1215.71 482.78 1225.08 482.78 1225.08 473.39 1229.76 473.39 1234.45 473.39 1239.13 473.39 1243.81 473.39 1248.49 473.39 1253.18 473.39 1257.86 473.39 1262.54 473.39 1267.23 473.39 1271.91 473.39 1276.59 473.39 1281.28 473.39 1285.96 473.39 1290.64 473.39 1295.33 473.39 1295.33 482.78 1304.69 482.78 1314.06 482.78 1323.42 482.78 1332.79 482.78 1342.15 482.78 1342.15 492.17 1351.52 492.17 1360.89 492.17 1370.25 492.17 1374.93 492.17 1379.62 492.17 1384.3 492.17 1388.98 492.17 1393.67 492.17 1398.35 492.17 1403.03 492.17 1407.71 492.17 1412.4 492.17 1417.08 492.17 1421.76 492.17 1426.45 492.17 1431.13 492.17 1435.81 492.17 1440.5 492.17 1449.86 492.17 1459.23 492.17 1468.59 492.17 1468.59 482.78 1473.28 482.78 1477.96 482.78 1482.64 482.78 1487.33 482.78 1492.01 482.78 1496.69 482.78 1501.37 482.78 1510.74 482.78 1520.11 482.78 1529.47 482.78 1538.84 482.78 1548.2 482.78 1548.2 473.39 1557.57 473.39 1566.93 473.39 1576.3 473.39 1585.67 473.39 1595.03 473.39 1604.4 473.39 1613.76 473.39 1623.13 473.39 1632.49 473.39 1641.86 473.39 1651.23 473.39 1660.59 473.39 1669.96 473.39 1669.96 482.78 1679.33 482.78 1688.69 482.78 1698.06 482.78 1698.06 492.17 1707.42 492.17 1716.79 492.17 1726.15 492.17 1735.52 492.17 1744.89 492.17 1754.25 492.17 1763.62 492.17 1772.98 492.17 1782.35 492.17 1791.71 492.17 1791.71 482.78 1801.08 482.78 1810.45 482.78 1819.81 482.78 1819.81 473.39 1829.18 473.39 1838.54 473.39 1847.91 473.39 1847.91 464 1857.28 464 1866.64 464 1876.01 464 1876.01 454.61 1876.01 445.22 1876.01 435.83 1876.01 426.44 1866.64 426.44"/></g></g></svg>