<svg xmlns="http://www.w3.org/2000/svg" viewBox="0 0 1920 780"><defs><style>.cls-1{fill:#d8d8d8;}.cls-2{opacity:0.86;}.cls-3{fill:#939393;}.cls-4{fill:#898989;}.cls-5{fill:#605f5f;}.cls-6{fill:#a5a5a5;}</style></defs><title>smog_5</title><g id="fond"><rect class="cls-1" x="2.78" width="1917.22" height="780"/></g><g id="nuage1"><g class="cls-2"><polygon class="cls-3" points="1258.59 80.09 1249.23 80.09 1239.86 80.09 1230.5 80.09 1221.13 80.09 1221.13 70.7 1221.13 61.3 1211.76 61.3 1211.76 51.91 1202.4 51.91 1193.03 51.91 1193.03 42.52 1183.67 42.52 1174.3 42.52 1174.3 33.13 1164.93 33.13 1155.57 33.13 1146.2 33.13 1136.84 33.13 1127.47 33.13 1127.47 42.52 1118.11 42.52 1108.74 42.52 1108.74 51.91 1099.37 51.91 1099.37 42.52 1090.01 42.52 1090.01 33.13 1080.64 33.13 1071.28 33.13 1061.91 33.13 1061.91 23.74 1052.54 23.74 1043.18 23.74 1033.81 23.74 1024.45 23.74 1024.45 33.13 1015.08 33.13 1005.72 33.13 1005.72 42.52 996.35 42.52 996.35 51.91 996.35 61.3 986.98 61.3 986.98 70.7 986.98 80.09 986.98 89.48 977.62 89.48 968.25 89.48 958.89 89.48 949.52 89.48 940.15 89.48 930.79 89.48 921.42 89.48 921.42 98.87 912.06 98.87 912.06 108.26 902.69 108.26 902.69 117.65 902.69 127.04 893.33 127.04 893.33 136.44 883.96 136.44 874.59 136.44 865.23 136.44 855.86 136.44 846.5 136.44 837.13 136.44 827.76 136.44 818.4 136.44 818.4 145.83 809.03 145.83 809.03 155.22 799.67 155.22 790.3 155.22 790.3 145.83 780.93 145.83 771.57 145.83 771.57 136.44 762.2 136.44 762.2 127.04 752.84 127.04 743.47 127.04 734.11 127.04 734.11 136.44 724.74 136.44 724.74 145.83 715.37 145.83 715.37 136.44 706.01 136.44 696.64 136.44 687.28 136.44 677.91 136.44 668.54 136.44 668.54 145.83 659.18 145.83 649.81 145.83 649.81 155.22 640.45 155.22 640.45 164.61 631.08 164.61 631.08 174 631.08 183.39 631.08 192.78 621.72 192.78 621.72 202.17 612.35 202.17 612.35 192.78 602.98 192.78 602.98 183.39 593.62 183.39 593.62 174 584.25 174 574.89 174 565.52 174 556.15 174 546.79 174 537.42 174 537.42 183.39 528.06 183.39 528.06 192.78 518.69 192.78 509.32 192.78 499.96 192.78 490.59 192.78 490.59 202.17 481.23 202.17 481.23 211.56 481.23 220.96 471.86 220.96 471.86 230.35 462.5 230.35 453.13 230.35 443.76 230.35 434.4 230.35 425.03 230.35 425.03 239.74 415.67 239.74 415.67 249.13 415.67 258.52 415.67 267.91 415.67 277.3 425.03 277.3 425.03 267.91 434.4 267.91 443.76 267.91 443.76 258.52 453.13 258.52 462.5 258.52 462.5 249.13 471.86 249.13 481.23 249.13 481.23 239.74 490.59 239.74 490.59 230.35 499.96 230.35 499.96 220.96 509.32 220.96 518.69 220.96 518.69 211.56 528.06 211.56 537.42 211.56 537.42 202.17 546.79 202.17 556.15 202.17 565.52 202.17 574.89 202.17 574.89 211.56 584.25 211.56 593.62 211.56 593.62 220.96 602.98 220.96 602.98 230.35 612.35 230.35 612.35 239.74 612.35 249.13 621.72 249.13 631.08 249.13 631.08 239.74 640.45 239.74 649.81 239.74 649.81 230.35 659.18 230.35 659.18 220.96 668.54 220.96 677.91 220.96 677.91 211.56 687.28 211.56 687.28 202.17 696.64 202.17 706.01 202.17 715.37 202.17 715.37 192.78 724.74 192.78 734.11 192.78 743.47 192.78 743.47 183.39 752.84 183.39 762.2 183.39 762.2 192.78 771.57 192.78 780.93 192.78 780.93 202.17 790.3 202.17 799.67 202.17 809.03 202.17 809.03 211.56 818.4 211.56 827.76 211.56 827.76 202.17 837.13 202.17 837.13 192.78 846.5 192.78 846.5 183.39 855.86 183.39 855.86 174 865.23 174 865.23 164.61 874.59 164.61 883.96 164.61 893.33 164.61 893.33 155.22 902.69 155.22 912.06 155.22 921.42 155.22 930.79 155.22 940.15 155.22 949.52 155.22 949.52 164.61 958.89 164.61 958.89 174 968.25 174 968.25 183.39 977.62 183.39 986.98 183.39 986.98 192.78 996.35 192.78 996.35 183.39 996.35 174 1005.72 174 1005.72 164.61 1005.72 155.22 1015.08 155.22 1015.08 145.83 1015.08 136.44 1024.45 136.44 1033.81 136.44 1033.81 127.04 1043.18 127.04 1052.54 127.04 1061.91 127.04 1071.28 127.04 1080.64 127.04 1090.01 127.04 1099.37 127.04 1108.74 127.04 1108.74 136.44 1118.11 136.44 1127.47 136.44 1127.47 145.83 1136.84 145.83 1146.2 145.83 1146.2 155.22 1155.57 155.22 1164.93 155.22 1164.93 164.61 1174.3 164.61 1183.67 164.61 1193.03 164.61 1193.03 155.22 1202.4 155.22 1202.4 145.83 1202.4 136.44 1211.76 136.44 1211.76 127.04 1221.13 127.04 1221.13 117.65 1230.5 117.65 1230.5 108.26 1239.86 108.26 1249.23 108.26 1249.23 98.87 1258.59 98.87 1267.96 98.87 1267.96 89.48 1277.33 89.48 1277.33 80.09 1267.96 80.09 1258.59 80.09"/><rect class="cls-3" x="1361.62" y="136.43" width="9.37" height="9.39"/><polygon class="cls-4" points="612.35 249.13 612.35 239.74 612.35 230.35 602.98 230.35 602.98 220.96 593.62 220.96 593.62 211.56 584.25 211.56 574.89 211.56 574.89 202.17 565.52 202.17 556.15 202.17 546.79 202.17 537.42 202.17 537.42 211.56 528.06 211.56 518.69 211.56 518.69 220.96 509.32 220.96 499.96 220.96 499.96 230.35 490.59 230.35 490.59 239.74 481.23 239.74 481.23 249.13 471.86 249.13 462.5 249.13 462.5 258.52 453.13 258.52 443.76 258.52 443.76 267.91 434.4 267.91 425.03 267.91 425.03 277.3 425.03 286.7 434.4 286.7 443.76 286.7 453.13 286.7 462.5 286.7 462.5 296.09 471.86 296.09 481.23 296.09 490.59 296.09 499.96 296.09 509.32 296.09 509.32 286.7 518.69 286.7 528.06 286.7 537.42 286.7 546.79 286.7 556.15 286.7 556.15 296.09 565.52 296.09 574.89 296.09 584.25 296.09 584.25 286.7 593.62 286.7 593.62 277.3 602.98 277.3 602.98 267.91 612.35 267.91 612.35 258.52 621.72 258.52 631.08 258.52 631.08 249.13 621.72 249.13 612.35 249.13"/><polygon class="cls-4" points="1399.08 249.13 1399.08 239.74 1399.08 230.35 1399.08 220.96 1389.71 220.96 1380.35 220.96 1380.35 211.56 1370.98 211.56 1370.98 202.17 1370.98 192.78 1380.35 192.78 1380.35 183.39 1380.35 174 1380.35 164.61 1370.98 164.61 1370.98 155.22 1370.98 145.83 1361.62 145.83 1361.62 136.44 1352.25 136.44 1342.89 136.44 1333.52 136.44 1324.15 136.44 1324.15 127.04 1314.79 127.04 1314.79 117.65 1314.79 108.26 1305.42 108.26 1305.42 98.87 1296.06 98.87 1296.06 89.48 1286.69 89.48 1277.33 89.48 1267.96 89.48 1267.96 98.87 1258.59 98.87 1249.23 98.87 1249.23 108.26 1239.86 108.26 1230.5 108.26 1230.5 117.65 1221.13 117.65 1221.13 127.04 1211.76 127.04 1211.76 136.44 1202.4 136.44 1202.4 145.83 1202.4 155.22 1193.03 155.22 1193.03 164.61 1183.67 164.61 1174.3 164.61 1164.93 164.61 1164.93 155.22 1155.57 155.22 1146.2 155.22 1146.2 145.83 1136.84 145.83 1127.47 145.83 1127.47 136.44 1118.11 136.44 1108.74 136.44 1108.74 127.04 1099.37 127.04 1090.01 127.04 1080.64 127.04 1071.28 127.04 1061.91 127.04 1052.54 127.04 1043.18 127.04 1033.81 127.04 1033.81 136.44 1024.45 136.44 1015.08 136.44 1015.08 145.83 1015.08 155.22 1005.72 155.22 1005.72 164.61 1005.72 174 996.35 174 996.35 183.39 996.35 192.78 986.98 192.78 986.98 183.39 977.62 183.39 968.25 183.39 968.25 174 958.89 174 958.89 164.61 949.52 164.61 949.52 155.22 940.15 155.22 930.79 155.22 921.42 155.22 912.06 155.22 902.69 155.22 893.33 155.22 893.33 164.61 883.96 164.61 874.59 164.61 865.23 164.61 865.23 174 855.86 174 855.86 183.39 846.5 183.39 846.5 192.78 837.13 192.78 837.13 202.17 827.76 202.17 827.76 211.56 818.4 211.56 809.03 211.56 809.03 202.17 799.67 202.17 790.3 202.17 780.93 202.17 780.93 192.78 771.57 192.78 762.2 192.78 762.2 183.39 752.84 183.39 743.47 183.39 743.47 192.78 734.11 192.78 724.74 192.78 715.37 192.78 715.37 202.17 706.01 202.17 696.64 202.17 687.28 202.17 687.28 211.56 677.91 211.56 677.91 220.96 668.54 220.96 659.18 220.96 659.18 230.35 649.81 230.35 649.81 239.74 640.45 239.74 631.08 239.74 631.08 249.13 640.45 249.13 649.81 249.13 649.81 258.52 659.18 258.52 668.54 258.52 677.91 258.52 677.91 267.91 687.28 267.91 687.28 277.3 696.64 277.3 696.64 286.7 706.01 286.7 715.37 286.7 724.74 286.7 724.74 296.09 734.11 296.09 743.47 296.09 752.84 296.09 762.2 296.09 771.57 296.09 780.93 296.09 780.93 286.7 790.3 286.7 799.67 286.7 799.67 277.3 809.03 277.3 818.4 277.3 827.76 277.3 837.13 277.3 837.13 286.7 846.5 286.7 855.86 286.7 855.86 296.09 865.23 296.09 874.59 296.09 883.96 296.09 893.33 296.09 902.69 296.09 912.06 296.09 921.42 296.09 930.79 296.09 930.79 305.48 940.15 305.48 940.15 296.09 949.52 296.09 949.52 286.7 958.89 286.7 958.89 277.3 958.89 267.91 968.25 267.91 968.25 258.52 977.62 258.52 986.98 258.52 996.35 258.52 1005.72 258.52 1015.08 258.52 1024.45 258.52 1024.45 267.91 1033.81 267.91 1043.18 267.91 1043.18 277.3 1052.54 277.3 1052.54 286.7 1061.91 286.7 1061.91 296.09 1071.28 296.09 1071.28 305.48 1080.64 305.48 1080.64 296.09 1090.01 296.09 1099.37 296.09 1108.74 296.09 1108.74 286.7 1118.11 286.7 1118.11 277.3 1127.47 277.3 1136.84 277.3 1136.84 267.91 1146.2 267.91 1155.57 267.91 1164.93 267.91 1174.3 267.91 1183.67 267.91 1193.03 267.91 1193.03 277.3 1202.4 277.3 1202.4 286.7 1211.76 286.7 1211.76 296.09 1221.13 296.09 1230.5 296.09 1239.86 296.09 1239.86 286.7 1249.23 286.7 1249.23 277.3 1258.59 277.3 1267.96 277.3 1277.33 277.3 1286.69 277.3 1296.06 277.3 1296.06 286.7 1305.42 286.7 1314.79 286.7 1324.15 286.7 1324.15 277.3 1333.52 277.3 1333.52 267.91 1342.89 267.91 1342.89 258.52 1352.25 258.52 1361.62 258.52 1370.98 258.52 1380.35 258.52 1380.35 267.91 1389.71 267.91 1399.08 267.91 1408.45 267.91 1408.45 258.52 1408.45 249.13 1399.08 249.13"/><polygon class="cls-5" points="1417.81 286.7 1417.81 277.3 1408.45 277.3 1408.45 267.91 1399.08 267.91 1389.71 267.91 1380.35 267.91 1380.35 258.52 1370.98 258.52 1361.62 258.52 1352.25 258.52 1342.89 258.52 1342.89 267.91 1333.52 267.91 1333.52 277.3 1324.15 277.3 1324.15 286.7 1314.79 286.7 1305.42 286.7 1296.06 286.7 1296.06 277.3 1286.69 277.3 1277.33 277.3 1267.96 277.3 1258.59 277.3 1249.23 277.3 1249.23 286.7 1239.86 286.7 1239.86 296.09 1230.5 296.09 1221.13 296.09 1211.76 296.09 1211.76 286.7 1202.4 286.7 1202.4 277.3 1193.03 277.3 1193.03 267.91 1183.67 267.91 1174.3 267.91 1164.93 267.91 1155.57 267.91 1146.2 267.91 1136.84 267.91 1136.84 277.3 1127.47 277.3 1118.11 277.3 1118.11 286.7 1108.74 286.7 1108.74 296.09 1099.37 296.09 1090.01 296.09 1080.64 296.09 1080.64 305.48 1071.28 305.48 1071.28 296.09 1061.91 296.09 1061.91 286.7 1052.54 286.7 1052.54 277.3 1043.18 277.3 1043.18 267.91 1033.81 267.91 1024.45 267.91 1024.45 258.52 1015.08 258.52 1005.72 258.52 996.35 258.52 986.98 258.52 977.62 258.52 968.25 258.52 968.25 267.91 958.89 267.91 958.89 277.3 958.89 286.7 949.52 286.7 949.52 296.09 940.15 296.09 940.15 305.48 930.79 305.48 930.79 296.09 921.42 296.09 912.06 296.09 902.69 296.09 893.33 296.09 883.96 296.09 874.59 296.09 865.23 296.09 855.86 296.09 855.86 286.7 846.5 286.7 837.13 286.7 837.13 277.3 827.76 277.3 818.4 277.3 809.03 277.3 799.67 277.3 799.67 286.7 790.3 286.7 780.93 286.7 780.93 296.09 771.57 296.09 762.2 296.09 752.84 296.09 743.47 296.09 734.11 296.09 724.74 296.09 724.74 286.7 715.37 286.7 706.01 286.7 696.64 286.7 696.64 277.3 687.28 277.3 687.28 267.91 677.91 267.91 677.91 258.52 668.54 258.52 659.18 258.52 649.81 258.52 649.81 249.13 640.45 249.13 631.08 249.13 631.08 258.52 621.72 258.52 612.35 258.52 612.35 267.91 602.98 267.91 602.98 277.3 593.62 277.3 593.62 286.7 584.25 286.7 584.25 296.09 574.89 296.09 565.52 296.09 556.15 296.09 556.15 286.7 546.79 286.7 537.42 286.7 528.06 286.7 518.69 286.7 509.32 286.7 509.32 296.09 499.96 296.09 490.59 296.09 481.23 296.09 471.86 296.09 462.5 296.09 462.5 286.7 453.13 286.7 443.76 286.7 434.4 286.7 425.03 286.7 425.03 296.09 415.67 296.09 415.67 305.48 425.03 305.48 425.03 314.87 434.4 314.87 434.4 324.26 443.76 324.26 453.13 324.26 462.5 324.26 471.86 324.26 481.23 324.26 490.59 324.26 499.96 324.26 509.32 324.26 509.32 314.87 518.69 314.87 528.06 314.87 537.42 314.87 546.79 314.87 556.15 314.87 565.52 314.87 574.89 314.87 584.25 314.87 584.25 324.26 593.62 324.26 602.98 324.26 602.98 333.65 612.35 333.65 621.72 333.65 621.72 343.04 631.08 343.04 631.08 352.44 640.45 352.44 649.81 352.44 659.18 352.44 668.54 352.44 677.91 352.44 687.28 352.44 696.64 352.44 706.01 352.44 706.01 343.04 715.37 343.04 724.74 343.04 734.11 343.04 743.47 343.04 752.84 343.04 762.2 343.04 762.2 333.65 771.57 333.65 780.93 333.65 790.3 333.65 799.67 333.65 809.03 333.65 818.4 333.65 827.76 333.65 837.13 333.65 846.5 333.65 846.5 343.04 855.86 343.04 865.23 343.04 874.59 343.04 883.96 343.04 893.33 343.04 893.33 352.44 902.69 352.44 912.06 352.44 921.42 352.44 930.79 352.44 940.15 352.44 949.52 352.44 958.89 352.44 968.25 352.44 977.62 352.44 986.98 352.44 986.98 343.04 996.35 343.04 1005.72 343.04 1015.08 343.04 1024.45 343.04 1033.81 343.04 1043.18 343.04 1052.54 343.04 1061.91 343.04 1071.28 343.04 1080.64 343.04 1090.01 343.04 1099.37 343.04 1099.37 333.65 1108.74 333.65 1118.11 333.65 1127.47 333.65 1136.84 333.65 1146.2 333.65 1155.57 333.65 1164.93 333.65 1174.3 333.65 1183.67 333.65 1193.03 333.65 1202.4 333.65 1211.76 333.65 1221.13 333.65 1221.13 343.04 1230.5 343.04 1239.86 343.04 1249.23 343.04 1249.23 352.44 1258.59 352.44 1267.96 352.44 1277.33 352.44 1286.69 352.44 1296.06 352.44 1305.42 352.44 1314.79 352.44 1324.15 352.44 1333.52 352.44 1342.89 352.44 1342.89 343.04 1352.25 343.04 1361.62 343.04 1370.98 343.04 1370.98 333.65 1380.35 333.65 1389.71 333.65 1399.08 333.65 1399.08 324.26 1408.45 324.26 1417.81 324.26 1427.18 324.26 1427.18 314.87 1427.18 305.48 1427.18 296.09 1427.18 286.7 1417.81 286.7"/></g></g><g id="nuage2"><g class="cls-2"><polygon class="cls-6" points="262.16 176.7 262.16 167.3 262.16 157.91 252.8 157.91 243.43 157.91 234.06 157.91 234.06 148.52 234.06 139.13 224.7 139.13 224.7 129.74 215.33 129.74 215.33 120.35 205.97 120.35 196.6 120.35 196.6 110.96 187.24 110.96 177.87 110.96 168.5 110.96 159.14 110.96 159.14 101.56 149.77 101.56 149.77 92.17 140.41 92.17 131.04 92.17 121.67 92.17 112.31 92.17 102.94 92.17 102.94 82.78 93.58 82.78 93.58 73.39 84.21 73.39 74.84 73.39 65.48 73.39 65.48 64 56.11 64 46.75 64 46.75 73.39 37.38 73.39 28.02 73.39 28.02 82.78 18.65 82.78 9.28 82.78 -0.08 82.78 -9.45 82.78 -18.81 82.78 -28.18 82.78 -37.55 82.78 -46.91 82.78 -46.91 92.17 -56.28 92.17 -65.64 92.17 -65.64 101.56 -65.64 110.96 -65.64 120.35 -75.01 120.35 -75.01 129.74 -84.38 129.74 -84.38 139.13 -93.74 139.13 -93.74 148.52 -93.74 157.91 -93.74 167.3 -103.11 167.3 -103.11 176.7 -103.11 186.09 -93.74 186.09 -93.74 176.7 -84.38 176.7 -84.38 167.3 -75.01 167.3 -75.01 157.91 -65.64 157.91 -65.64 148.52 -56.28 148.52 -56.28 139.13 -46.91 139.13 -37.55 139.13 -28.18 139.13 -18.81 139.13 -9.45 139.13 -9.45 148.52 -0.08 148.52 -0.08 157.91 9.28 157.91 18.65 157.91 18.65 148.52 28.02 148.52 28.02 139.13 37.38 139.13 37.38 129.74 46.75 129.74 46.75 120.35 56.11 120.35 56.11 110.96 65.48 110.96 65.48 101.56 74.84 101.56 84.21 101.56 93.58 101.56 102.94 101.56 102.94 110.96 112.31 110.96 121.67 110.96 121.67 120.35 131.04 120.35 140.41 120.35 140.41 129.74 140.41 139.13 140.41 148.52 140.41 157.91 149.77 157.91 159.14 157.91 168.5 157.91 168.5 148.52 177.87 148.52 177.87 139.13 187.24 139.13 196.6 139.13 205.97 139.13 205.97 148.52 205.97 157.91 215.33 157.91 215.33 167.3 224.7 167.3 234.06 167.3 243.43 167.3 243.43 176.7 252.8 176.7 252.8 186.09 262.16 186.09 262.16 195.48 271.53 195.48 271.53 186.09 271.53 176.7 262.16 176.7"/><polygon class="cls-4" points="121.67 120.35 121.67 110.96 112.31 110.96 102.94 110.96 102.94 101.56 93.58 101.56 84.21 101.56 74.84 101.56 65.48 101.56 65.48 110.96 56.11 110.96 56.11 120.35 46.75 120.35 46.75 129.74 37.38 129.74 37.38 139.13 28.02 139.13 28.02 148.52 18.65 148.52 18.65 157.91 9.28 157.91 -0.08 157.91 -0.08 148.52 -9.45 148.52 -9.45 139.13 -18.81 139.13 -28.18 139.13 -37.55 139.13 -46.91 139.13 -56.28 139.13 -56.28 148.52 -65.64 148.52 -65.64 157.91 -75.01 157.91 -75.01 167.3 -84.38 167.3 -84.38 176.7 -93.74 176.7 -93.74 186.09 -103.11 186.09 -103.11 195.48 -93.74 195.48 -93.74 204.87 -84.38 204.87 -84.38 214.26 -75.01 214.26 -65.64 214.26 -56.28 214.26 -56.28 204.87 -46.91 204.87 -37.55 204.87 -37.55 195.48 -28.18 195.48 -18.81 195.48 -9.45 195.48 -0.08 195.48 -0.08 204.87 9.28 204.87 9.28 195.48 9.28 186.09 18.65 186.09 18.65 176.7 28.02 176.7 37.38 176.7 46.75 176.7 56.11 176.7 56.11 186.09 65.48 186.09 74.84 186.09 74.84 195.48 84.21 195.48 93.58 195.48 102.94 195.48 102.94 186.09 112.31 186.09 112.31 176.7 121.67 176.7 121.67 167.3 131.04 167.3 140.41 167.3 140.41 157.91 140.41 148.52 140.41 139.13 140.41 129.74 140.41 120.35 131.04 120.35 121.67 120.35"/><polygon class="cls-4" points="205.97 157.91 205.97 148.52 205.97 139.13 196.6 139.13 187.24 139.13 177.87 139.13 177.87 148.52 168.5 148.52 168.5 157.91 168.5 167.3 177.87 167.3 177.87 176.7 187.24 176.7 187.24 186.09 196.6 186.09 196.6 195.48 205.97 195.48 205.97 186.09 205.97 176.7 215.33 176.7 215.33 167.3 215.33 157.91 205.97 157.91"/><polygon class="cls-5" points="262.16 195.48 262.16 186.09 252.8 186.09 252.8 176.7 243.43 176.7 243.43 167.3 234.06 167.3 224.7 167.3 215.33 167.3 215.33 176.7 205.97 176.7 205.97 186.09 205.97 195.48 196.6 195.48 196.6 186.09 187.24 186.09 187.24 176.7 177.87 176.7 177.87 167.3 168.5 167.3 168.5 157.91 159.14 157.91 149.77 157.91 140.41 157.91 140.41 167.3 131.04 167.3 121.67 167.3 121.67 176.7 112.31 176.7 112.31 186.09 102.94 186.09 102.94 195.48 93.58 195.48 84.21 195.48 74.84 195.48 74.84 186.09 65.48 186.09 56.11 186.09 56.11 176.7 46.75 176.7 37.38 176.7 28.02 176.7 18.65 176.7 18.65 186.09 9.28 186.09 9.28 195.48 9.28 204.87 -0.08 204.87 -0.08 195.48 -9.45 195.48 -18.81 195.48 -28.18 195.48 -37.55 195.48 -37.55 204.87 -46.91 204.87 -56.28 204.87 -56.28 214.26 -65.64 214.26 -75.01 214.26 -84.38 214.26 -84.38 204.87 -93.74 204.87 -93.74 214.26 -93.74 223.65 -84.38 223.65 -84.38 233.04 -75.01 233.04 -75.01 242.44 -65.64 242.44 -56.28 242.44 -46.91 242.44 -37.55 242.44 -28.18 242.44 -18.81 242.44 -18.81 251.83 -9.45 251.83 -0.08 251.83 9.28 251.83 18.65 251.83 28.02 251.83 28.02 242.44 37.38 242.44 46.75 242.44 56.11 242.44 65.48 242.44 65.48 233.04 74.84 233.04 74.84 242.44 84.21 242.44 93.58 242.44 102.94 242.44 112.31 242.44 112.31 251.83 121.67 251.83 131.04 251.83 140.41 251.83 149.77 251.83 159.14 251.83 168.5 251.83 177.87 251.83 177.87 242.44 187.24 242.44 196.6 242.44 205.97 242.44 215.33 242.44 224.7 242.44 234.06 242.44 243.43 242.44 252.8 242.44 252.8 233.04 262.16 233.04 262.16 223.65 271.53 223.65 271.53 214.26 271.53 204.87 271.53 195.48 262.16 195.48"/></g></g><g id="nuage3"><g class="cls-2"><rect class="cls-6" x="127.86" y="465.13" width="9.37" height="9.39"/><polygon class="cls-6" points="109.13 474.52 99.76 474.52 90.4 474.52 81.03 474.52 71.67 474.52 62.3 474.52 62.3 483.91 52.94 483.91 43.57 483.91 43.57 493.3 34.2 493.3 34.2 502.7 24.84 502.7 15.47 502.7 6.11 502.7 6.11 512.09 -3.26 512.09 -12.63 512.09 -21.99 512.09 -21.99 521.48 -31.36 521.48 -31.36 530.87 -40.72 530.87 -40.72 540.26 -40.72 549.65 -40.72 559.04 -40.72 568.43 -50.09 568.43 -50.09 577.83 -59.46 577.83 -68.82 577.83 -78.19 577.83 -78.19 587.22 -87.55 587.22 -96.92 587.22 -106.28 587.22 -106.28 596.61 -115.65 596.61 -125.02 596.61 -134.38 596.61 -143.75 596.61 -143.75 606 -134.38 606 -125.02 606 -115.65 606 -106.28 606 -96.92 606 -87.55 606 -78.19 606 -68.82 606 -59.46 606 -50.09 606 -40.72 606 -40.72 596.61 -31.36 596.61 -31.36 587.22 -21.99 587.22 -21.99 577.83 -21.99 568.43 -12.63 568.43 -12.63 559.04 -12.63 549.65 -3.26 549.65 -3.26 540.26 6.11 540.26 15.47 540.26 24.84 540.26 34.2 540.26 43.57 540.26 43.57 549.65 52.94 549.65 62.3 549.65 71.67 549.65 71.67 559.04 81.03 559.04 90.4 559.04 99.76 559.04 99.76 549.65 99.76 540.26 99.76 530.87 109.13 530.87 109.13 521.48 109.13 512.09 109.13 502.7 109.13 493.3 118.5 493.3 118.5 483.91 127.86 483.91 127.86 474.52 118.5 474.52 109.13 474.52"/><polygon class="cls-6" points="1251.76 624.78 1242.4 624.78 1242.4 615.39 1233.03 615.39 1223.67 615.39 1223.67 606 1214.3 606 1204.93 606 1195.57 606 1186.2 606 1186.2 596.61 1176.84 596.61 1167.47 596.61 1158.11 596.61 1158.11 587.22 1148.74 587.22 1148.74 577.83 1139.37 577.83 1139.37 568.43 1130.01 568.43 1120.64 568.43 1111.28 568.43 1101.91 568.43 1101.91 577.83 1092.54 577.83 1092.54 568.43 1092.54 559.04 1083.18 559.04 1083.18 549.65 1083.18 540.26 1073.81 540.26 1064.45 540.26 1064.45 530.87 1055.08 530.87 1055.08 521.48 1055.08 512.09 1045.71 512.09 1036.35 512.09 1026.98 512.09 1017.62 512.09 1008.25 512.09 1008.25 502.7 998.89 502.7 989.52 502.7 980.15 502.7 970.79 502.7 961.42 502.7 952.06 502.7 952.06 512.09 942.69 512.09 933.33 512.09 923.96 512.09 914.59 512.09 905.23 512.09 905.23 521.48 895.86 521.48 886.5 521.48 886.5 512.09 877.13 512.09 877.13 502.7 867.76 502.7 858.4 502.7 849.03 502.7 849.03 493.3 839.67 493.3 830.3 493.3 820.93 493.3 811.57 493.3 802.2 493.3 792.84 493.3 792.84 483.91 792.84 474.52 792.84 465.13 783.47 465.13 783.47 455.74 774.11 455.74 764.74 455.74 764.74 446.35 755.37 446.35 746.01 446.35 746.01 436.96 736.64 436.96 727.28 436.96 717.91 436.96 708.54 436.96 708.54 427.56 699.18 427.56 699.18 418.17 689.81 418.17 680.45 418.17 671.08 418.17 671.08 408.78 661.72 408.78 652.35 408.78 642.98 408.78 633.62 408.78 624.25 408.78 624.25 399.39 614.89 399.39 614.89 390 605.52 390 605.52 380.61 596.15 380.61 596.15 371.22 586.79 371.22 577.42 371.22 577.42 361.83 568.06 361.83 558.69 361.83 549.33 361.83 539.96 361.83 530.59 361.83 521.23 361.83 521.23 371.22 511.86 371.22 502.5 371.22 493.13 371.22 493.13 380.61 483.76 380.61 483.76 371.22 474.4 371.22 474.4 361.83 465.03 361.83 465.03 352.44 455.67 352.44 446.3 352.44 436.94 352.44 427.57 352.44 418.2 352.44 408.84 352.44 399.47 352.44 390.11 352.44 380.74 352.44 371.37 352.44 362.01 352.44 362.01 361.83 352.64 361.83 343.28 361.83 333.91 361.83 333.91 371.22 324.54 371.22 324.54 380.61 315.18 380.61 315.18 390 305.81 390 305.81 399.39 296.45 399.39 296.45 408.78 287.08 408.78 277.71 408.78 268.35 408.78 268.35 418.17 258.98 418.17 249.62 418.17 240.25 418.17 230.89 418.17 230.89 408.78 221.52 408.78 212.15 408.78 202.79 408.78 193.42 408.78 184.06 408.78 184.06 418.17 174.69 418.17 165.32 418.17 155.96 418.17 146.59 418.17 146.59 427.56 146.59 436.96 137.23 436.96 137.23 446.35 137.23 455.74 137.23 465.13 146.59 465.13 146.59 455.74 155.96 455.74 165.32 455.74 174.69 455.74 184.06 455.74 193.42 455.74 202.79 455.74 212.15 455.74 221.52 455.74 230.89 455.74 240.25 455.74 249.62 455.74 258.98 455.74 258.98 465.13 268.35 465.13 277.71 465.13 287.08 465.13 287.08 474.52 296.45 474.52 305.81 474.52 305.81 483.91 315.18 483.91 315.18 474.52 315.18 465.13 324.54 465.13 324.54 455.74 324.54 446.35 333.91 446.35 333.91 436.96 343.28 436.96 343.28 427.56 352.64 427.56 352.64 418.17 362.01 418.17 371.37 418.17 371.37 408.78 380.74 408.78 390.11 408.78 390.11 399.39 399.47 399.39 408.84 399.39 418.2 399.39 427.57 399.39 427.57 408.78 436.94 408.78 446.3 408.78 455.67 408.78 465.03 408.78 474.4 408.78 483.76 408.78 483.76 418.17 493.13 418.17 493.13 427.56 502.5 427.56 502.5 436.96 511.86 436.96 511.86 446.35 511.86 455.74 521.23 455.74 521.23 465.13 530.59 465.13 530.59 474.52 539.96 474.52 539.96 483.91 539.96 493.3 549.33 493.3 558.69 493.3 568.06 493.3 568.06 483.91 577.42 483.91 586.79 483.91 586.79 474.52 596.15 474.52 605.52 474.52 614.89 474.52 614.89 465.13 624.25 465.13 633.62 465.13 642.98 465.13 652.35 465.13 661.72 465.13 661.72 474.52 671.08 474.52 680.45 474.52 689.81 474.52 689.81 483.91 699.18 483.91 699.18 493.3 708.54 493.3 717.91 493.3 717.91 502.7 727.28 502.7 727.28 512.09 736.64 512.09 736.64 521.48 736.64 530.87 736.64 540.26 746.01 540.26 746.01 549.65 755.37 549.65 764.74 549.65 774.11 549.65 774.11 559.04 783.47 559.04 792.84 559.04 802.2 559.04 811.57 559.04 811.57 549.65 820.93 549.65 830.3 549.65 839.67 549.65 849.03 549.65 849.03 559.04 858.4 559.04 867.76 559.04 877.13 559.04 877.13 568.43 886.5 568.43 895.86 568.43 895.86 559.04 905.23 559.04 905.23 549.65 914.59 549.65 914.59 540.26 923.96 540.26 923.96 530.87 933.33 530.87 942.69 530.87 952.06 530.87 961.42 530.87 970.79 530.87 970.79 540.26 980.15 540.26 989.52 540.26 989.52 549.65 998.89 549.65 1008.25 549.65 1008.25 559.04 1017.62 559.04 1026.98 559.04 1026.98 568.43 1026.98 577.83 1036.35 577.83 1036.35 587.22 1045.71 587.22 1045.71 596.61 1055.08 596.61 1055.08 606 1064.45 606 1073.81 606 1083.18 606 1092.54 606 1101.91 606 1111.28 606 1111.28 596.61 1120.64 596.61 1130.01 596.61 1139.37 596.61 1139.37 606 1148.74 606 1158.11 606 1167.47 606 1167.47 615.39 1176.84 615.39 1186.2 615.39 1186.2 624.78 1195.57 624.78 1195.57 634.17 1204.93 634.17 1214.3 634.17 1223.67 634.17 1233.03 634.17 1242.4 634.17 1251.76 634.17 1261.13 634.17 1270.49 634.17 1270.49 624.78 1261.13 624.78 1251.76 624.78"/><polygon class="cls-6" points="1317.33 643.57 1317.33 652.96 1326.69 652.96 1336.06 652.96 1336.06 643.57 1326.69 643.57 1317.33 643.57"/><polygon class="cls-6" points="1439.08 643.57 1429.71 643.57 1420.35 643.57 1410.98 643.57 1401.62 643.57 1392.25 643.57 1392.25 652.96 1401.62 652.96 1410.98 652.96 1420.35 652.96 1429.71 652.96 1439.08 652.96 1448.45 652.96 1448.45 643.57 1439.08 643.57"/><polygon class="cls-6" points="1373.52 652.96 1364.15 652.96 1354.79 652.96 1345.42 652.96 1345.42 662.35 1354.79 662.35 1364.15 662.35 1373.52 662.35 1382.89 662.35 1392.25 662.35 1392.25 652.96 1382.89 652.96 1373.52 652.96"/><polygon class="cls-6" points="1448.45 652.96 1448.45 662.35 1457.81 662.35 1467.18 662.35 1467.18 652.96 1457.81 652.96 1448.45 652.96"/><polygon class="cls-6" points="1560.84 662.35 1551.47 662.35 1542.11 662.35 1542.11 652.96 1532.74 652.96 1523.37 652.96 1514.01 652.96 1504.64 652.96 1495.28 652.96 1495.28 662.35 1504.64 662.35 1514.01 662.35 1514.01 671.74 1523.37 671.74 1523.37 681.13 1532.74 681.13 1542.11 681.13 1551.47 681.13 1560.84 681.13 1570.2 681.13 1570.2 671.74 1570.2 662.35 1560.84 662.35"/><polygon class="cls-4" points="774.11 549.65 764.74 549.65 755.37 549.65 746.01 549.65 746.01 540.26 736.64 540.26 736.64 530.87 736.64 521.48 736.64 512.09 727.28 512.09 727.28 502.7 717.91 502.7 717.91 493.3 708.54 493.3 699.18 493.3 699.18 483.91 689.81 483.91 689.81 474.52 680.45 474.52 671.08 474.52 661.72 474.52 661.72 465.13 652.35 465.13 642.98 465.13 633.62 465.13 624.25 465.13 614.89 465.13 614.89 474.52 605.52 474.52 596.15 474.52 586.79 474.52 586.79 483.91 577.42 483.91 568.06 483.91 568.06 493.3 558.69 493.3 549.33 493.3 539.96 493.3 539.96 483.91 539.96 474.52 530.59 474.52 530.59 465.13 521.23 465.13 521.23 455.74 511.86 455.74 511.86 446.35 511.86 436.96 502.5 436.96 502.5 427.56 493.13 427.56 493.13 418.17 483.76 418.17 483.76 408.78 474.4 408.78 465.03 408.78 455.67 408.78 446.3 408.78 436.94 408.78 427.57 408.78 427.57 399.39 418.2 399.39 408.84 399.39 399.47 399.39 390.11 399.39 390.11 408.78 380.74 408.78 371.37 408.78 371.37 418.17 362.01 418.17 352.64 418.17 352.64 427.56 343.28 427.56 343.28 436.96 333.91 436.96 333.91 446.35 324.54 446.35 324.54 455.74 324.54 465.13 315.18 465.13 315.18 474.52 315.18 483.91 305.81 483.91 305.81 474.52 296.45 474.52 287.08 474.52 287.08 465.13 277.71 465.13 268.35 465.13 258.98 465.13 258.98 455.74 249.62 455.74 240.25 455.74 230.89 455.74 221.52 455.74 212.15 455.74 202.79 455.74 193.42 455.74 184.06 455.74 174.69 455.74 165.32 455.74 155.96 455.74 146.59 455.74 146.59 465.13 137.23 465.13 137.23 474.52 127.86 474.52 127.86 483.91 118.5 483.91 118.5 493.3 109.13 493.3 109.13 502.7 109.13 512.09 109.13 521.48 109.13 530.87 99.76 530.87 99.76 540.26 99.76 549.65 99.76 559.04 90.4 559.04 81.03 559.04 71.67 559.04 71.67 549.65 62.3 549.65 52.94 549.65 43.57 549.65 43.57 540.26 34.2 540.26 24.84 540.26 15.47 540.26 6.11 540.26 -3.26 540.26 -3.26 549.65 -12.63 549.65 -12.63 559.04 -12.63 568.43 -21.99 568.43 -21.99 577.83 -21.99 587.22 -31.36 587.22 -31.36 596.61 -40.72 596.61 -40.72 606 -50.09 606 -59.46 606 -68.82 606 -78.19 606 -87.55 606 -96.92 606 -106.28 606 -115.65 606 -125.02 606 -134.38 606 -143.75 606 -143.75 615.39 -153.11 615.39 -153.11 624.78 -162.48 624.78 -162.48 634.17 -171.85 634.17 -181.21 634.17 -181.21 643.57 -190.58 643.57 -199.94 643.57 -199.94 652.96 -209.31 652.96 -209.31 662.35 -218.68 662.35 -218.68 671.74 -218.68 681.13 -209.31 681.13 -209.31 671.74 -199.94 671.74 -190.58 671.74 -190.58 662.35 -181.21 662.35 -171.85 662.35 -171.85 652.96 -162.48 652.96 -153.11 652.96 -143.75 652.96 -134.38 652.96 -125.02 652.96 -115.65 652.96 -106.28 652.96 -96.92 652.96 -87.55 652.96 -87.55 643.57 -78.19 643.57 -68.82 643.57 -59.46 643.57 -59.46 634.17 -50.09 634.17 -50.09 624.78 -40.72 624.78 -31.36 624.78 -31.36 615.39 -21.99 615.39 -21.99 606 -12.63 606 -3.26 606 -3.26 596.61 6.11 596.61 6.11 587.22 15.47 587.22 24.84 587.22 34.2 587.22 43.57 587.22 43.57 577.83 52.94 577.83 62.3 577.83 71.67 577.83 81.03 577.83 90.4 577.83 99.76 577.83 99.76 587.22 109.13 587.22 118.5 587.22 127.86 587.22 137.23 587.22 137.23 596.61 146.59 596.61 155.96 596.61 165.32 596.61 165.32 606 174.69 606 174.69 596.61 184.06 596.61 184.06 587.22 193.42 587.22 193.42 577.83 193.42 568.43 202.79 568.43 202.79 559.04 202.79 549.65 212.15 549.65 212.15 540.26 221.52 540.26 221.52 530.87 230.89 530.87 230.89 521.48 240.25 521.48 249.62 521.48 258.98 521.48 268.35 521.48 277.71 521.48 287.08 521.48 296.45 521.48 305.81 521.48 315.18 521.48 324.54 521.48 324.54 530.87 333.91 530.87 333.91 540.26 343.28 540.26 352.64 540.26 352.64 549.65 362.01 549.65 371.37 549.65 371.37 559.04 380.74 559.04 380.74 549.65 390.11 549.65 399.47 549.65 399.47 540.26 408.84 540.26 418.2 540.26 427.57 540.26 436.94 540.26 446.3 540.26 446.3 549.65 455.67 549.65 465.03 549.65 465.03 559.04 465.03 568.43 474.4 568.43 483.76 568.43 493.13 568.43 493.13 559.04 502.5 559.04 502.5 549.65 511.86 549.65 521.23 549.65 530.59 549.65 539.96 549.65 549.33 549.65 549.33 559.04 558.69 559.04 568.06 559.04 577.42 559.04 577.42 568.43 586.79 568.43 596.15 568.43 596.15 577.83 605.52 577.83 605.52 587.22 605.52 596.61 614.89 596.61 614.89 606 614.89 615.39 624.25 615.39 624.25 606 633.62 606 642.98 606 642.98 596.61 652.35 596.61 661.72 596.61 671.08 596.61 671.08 587.22 680.45 587.22 689.81 587.22 699.18 587.22 699.18 577.83 708.54 577.83 717.91 577.83 727.28 577.83 727.28 568.43 736.64 568.43 746.01 568.43 746.01 577.83 746.01 587.22 755.37 587.22 764.74 587.22 764.74 577.83 774.11 577.83 774.11 568.43 783.47 568.43 783.47 559.04 774.11 559.04 774.11 549.65"/><polygon class="cls-4" points="1026.98 559.04 1017.62 559.04 1008.25 559.04 1008.25 549.65 998.89 549.65 989.52 549.65 989.52 540.26 980.15 540.26 970.79 540.26 970.79 530.87 961.42 530.87 952.06 530.87 942.69 530.87 933.33 530.87 923.96 530.87 923.96 540.26 914.59 540.26 914.59 549.65 905.23 549.65 905.23 559.04 895.86 559.04 895.86 568.43 886.5 568.43 877.13 568.43 877.13 559.04 867.76 559.04 858.4 559.04 849.03 559.04 849.03 549.65 839.67 549.65 830.3 549.65 820.93 549.65 811.57 549.65 811.57 559.04 820.93 559.04 830.3 559.04 830.3 568.43 839.67 568.43 839.67 577.83 849.03 577.83 849.03 587.22 858.4 587.22 858.4 596.61 858.4 606 867.76 606 867.76 615.39 877.13 615.39 877.13 624.78 886.5 624.78 886.5 634.17 895.86 634.17 905.23 634.17 914.59 634.17 914.59 624.78 923.96 624.78 933.33 624.78 933.33 615.39 942.69 615.39 952.06 615.39 952.06 606 961.42 606 961.42 596.61 970.79 596.61 980.15 596.61 980.15 587.22 989.52 587.22 989.52 577.83 998.89 577.83 1008.25 577.83 1017.62 577.83 1026.98 577.83 1026.98 568.43 1026.98 559.04"/><rect class="cls-4" x="1026.98" y="577.83" width="9.37" height="9.39"/><rect class="cls-4" x="1045.72" y="596.61" width="9.37" height="9.39"/><polygon class="cls-4" points="1186.2 615.39 1176.84 615.39 1167.47 615.39 1167.47 606 1158.11 606 1148.74 606 1139.37 606 1139.37 596.61 1130.01 596.61 1120.64 596.61 1111.28 596.61 1111.28 606 1101.91 606 1092.54 606 1083.18 606 1073.81 606 1064.45 606 1055.08 606 1055.08 615.39 1064.45 615.39 1064.45 624.78 1073.81 624.78 1083.18 624.78 1092.54 624.78 1101.91 624.78 1101.91 615.39 1111.28 615.39 1120.64 615.39 1130.01 615.39 1139.37 615.39 1148.74 615.39 1158.11 615.39 1158.11 624.78 1167.47 624.78 1176.84 624.78 1176.84 634.17 1176.84 643.57 1186.2 643.57 1195.57 643.57 1195.57 634.17 1195.57 624.78 1186.2 624.78 1186.2 615.39"/><rect class="cls-4" x="1298.59" y="634.17" width="9.37" height="9.39"/><rect class="cls-4" x="1307.96" y="643.57" width="9.37" height="9.39"/><polygon class="cls-4" points="1429.71 652.96 1420.35 652.96 1410.98 652.96 1401.62 652.96 1392.25 652.96 1392.25 662.35 1382.89 662.35 1373.52 662.35 1364.15 662.35 1354.79 662.35 1345.42 662.35 1345.42 652.96 1336.06 652.96 1326.69 652.96 1317.33 652.96 1317.33 662.35 1326.69 662.35 1326.69 671.74 1336.06 671.74 1345.42 671.74 1354.79 671.74 1364.15 671.74 1364.15 681.13 1373.52 681.13 1373.52 671.74 1382.89 671.74 1392.25 671.74 1401.62 671.74 1410.98 671.74 1410.98 662.35 1420.35 662.35 1429.71 662.35 1439.08 662.35 1448.45 662.35 1448.45 652.96 1439.08 652.96 1429.71 652.96"/><polygon class="cls-4" points="1523.37 681.13 1523.37 671.74 1514.01 671.74 1514.01 662.35 1504.64 662.35 1495.28 662.35 1485.91 662.35 1476.54 662.35 1467.18 662.35 1457.81 662.35 1457.81 671.74 1467.18 671.74 1476.54 671.74 1485.91 671.74 1495.28 671.74 1504.64 671.74 1504.64 681.13 1514.01 681.13 1514.01 690.52 1523.37 690.52 1532.74 690.52 1532.74 681.13 1523.37 681.13"/><polygon class="cls-5" points="1504.64 681.13 1504.64 671.74 1495.28 671.74 1485.91 671.74 1476.54 671.74 1467.18 671.74 1457.81 671.74 1457.81 662.35 1448.45 662.35 1439.08 662.35 1429.71 662.35 1420.35 662.35 1410.98 662.35 1410.98 671.74 1401.62 671.74 1392.25 671.74 1382.89 671.74 1373.52 671.74 1373.52 681.13 1364.15 681.13 1364.15 671.74 1354.79 671.74 1345.42 671.74 1336.06 671.74 1326.69 671.74 1326.69 662.35 1317.33 662.35 1317.33 652.96 1307.96 652.96 1307.96 643.57 1298.59 643.57 1298.59 634.17 1289.23 634.17 1279.86 634.17 1270.49 634.17 1261.13 634.17 1251.76 634.17 1242.4 634.17 1233.03 634.17 1223.67 634.17 1214.3 634.17 1204.93 634.17 1195.57 634.17 1195.57 643.57 1186.2 643.57 1176.84 643.57 1176.84 634.17 1176.84 624.78 1167.47 624.78 1158.11 624.78 1158.11 615.39 1148.74 615.39 1139.37 615.39 1130.01 615.39 1120.64 615.39 1111.28 615.39 1101.91 615.39 1101.91 624.78 1092.54 624.78 1083.18 624.78 1073.81 624.78 1064.45 624.78 1064.45 615.39 1055.08 615.39 1055.08 606 1045.71 606 1045.71 596.61 1045.71 587.22 1036.35 587.22 1026.98 587.22 1026.98 577.83 1017.62 577.83 1008.25 577.83 998.89 577.83 989.52 577.83 989.52 587.22 980.15 587.22 980.15 596.61 970.79 596.61 961.42 596.61 961.42 606 952.06 606 952.06 615.39 942.69 615.39 933.33 615.39 933.33 624.78 923.96 624.78 914.59 624.78 914.59 634.17 905.23 634.17 895.86 634.17 886.5 634.17 886.5 624.78 877.13 624.78 877.13 615.39 867.76 615.39 867.76 606 858.4 606 858.4 596.61 858.4 587.22 849.03 587.22 849.03 577.83 839.67 577.83 839.67 568.43 830.3 568.43 830.3 559.04 820.93 559.04 811.57 559.04 802.2 559.04 792.84 559.04 783.47 559.04 783.47 568.43 774.11 568.43 774.11 577.83 764.74 577.83 764.74 587.22 755.37 587.22 746.01 587.22 746.01 577.83 746.01 568.43 736.64 568.43 727.28 568.43 727.28 577.83 717.91 577.83 708.54 577.83 699.18 577.83 699.18 587.22 689.81 587.22 680.45 587.22 671.08 587.22 671.08 596.61 661.72 596.61 652.35 596.61 642.98 596.61 642.98 606 633.62 606 624.25 606 624.25 615.39 614.89 615.39 614.89 606 614.89 596.61 605.52 596.61 605.52 587.22 605.52 577.83 596.15 577.83 596.15 568.43 586.79 568.43 577.42 568.43 577.42 559.04 568.06 559.04 558.69 559.04 549.33 559.04 549.33 549.65 539.96 549.65 530.59 549.65 521.23 549.65 511.86 549.65 502.5 549.65 502.5 559.04 493.13 559.04 493.13 568.43 483.76 568.43 474.4 568.43 465.03 568.43 465.03 559.04 465.03 549.65 455.67 549.65 446.3 549.65 446.3 540.26 436.94 540.26 427.57 540.26 418.2 540.26 408.84 540.26 399.47 540.26 399.47 549.65 390.11 549.65 380.74 549.65 380.74 559.04 371.37 559.04 371.37 549.65 362.01 549.65 352.64 549.65 352.64 540.26 343.28 540.26 333.91 540.26 333.91 530.87 324.54 530.87 324.54 521.48 315.18 521.48 305.81 521.48 296.45 521.48 287.08 521.48 277.71 521.48 268.35 521.48 258.98 521.48 249.62 521.48 240.25 521.48 230.89 521.48 230.89 530.87 221.52 530.87 221.52 540.26 212.15 540.26 212.15 549.65 202.79 549.65 202.79 559.04 202.79 568.43 193.42 568.43 193.42 577.83 193.42 587.22 184.06 587.22 184.06 596.61 174.69 596.61 174.69 606 165.32 606 165.32 596.61 155.96 596.61 146.59 596.61 137.23 596.61 137.23 587.22 127.86 587.22 118.5 587.22 109.13 587.22 99.76 587.22 99.76 577.83 90.4 577.83 81.03 577.83 71.67 577.83 62.3 577.83 52.94 577.83 43.57 577.83 43.57 587.22 34.2 587.22 24.84 587.22 15.47 587.22 6.11 587.22 6.11 596.61 -3.26 596.61 -3.26 606 -12.63 606 -21.99 606 -21.99 615.39 -31.36 615.39 -31.36 624.78 -40.72 624.78 -50.09 624.78 -50.09 634.17 -59.46 634.17 -59.46 643.57 -68.82 643.57 -78.19 643.57 -87.55 643.57 -87.55 652.96 -96.92 652.96 -106.28 652.96 -115.65 652.96 -125.02 652.96 -134.38 652.96 -143.75 652.96 -153.11 652.96 -162.48 652.96 -171.85 652.96 -171.85 662.35 -181.21 662.35 -190.58 662.35 -190.58 671.74 -199.94 671.74 -209.31 671.74 -209.31 681.13 -209.31 690.52 -199.94 690.52 -190.58 690.52 -181.21 690.52 -171.85 690.52 -162.48 690.52 -153.11 690.52 -143.75 690.52 -134.38 690.52 -134.38 681.13 -125.02 681.13 -125.02 690.52 -115.65 690.52 -106.28 690.52 -96.92 690.52 -87.55 690.52 -78.19 690.52 -78.19 681.13 -68.82 681.13 -59.46 681.13 -59.46 671.74 -50.09 671.74 -40.72 671.74 -40.72 662.35 -31.36 662.35 -21.99 662.35 -21.99 652.96 -12.63 652.96 -3.26 652.96 6.11 652.96 15.47 652.96 24.84 652.96 34.2 652.96 43.57 652.96 43.57 662.35 52.94 662.35 62.3 662.35 71.67 662.35 81.03 662.35 81.03 671.74 90.4 671.74 99.76 671.74 99.76 681.13 109.13 681.13 118.5 681.13 127.86 681.13 127.86 690.52 137.23 690.52 146.59 690.52 155.96 690.52 155.96 699.91 165.32 699.91 174.69 699.91 184.06 699.91 193.42 699.91 202.79 699.91 212.15 699.91 221.52 699.91 230.89 699.91 240.25 699.91 249.62 699.91 258.98 699.91 268.35 699.91 277.71 699.91 287.08 699.91 296.45 699.91 305.81 699.91 315.18 699.91 315.18 690.52 324.54 690.52 333.91 690.52 343.28 690.52 352.64 690.52 362.01 690.52 362.01 681.13 371.37 681.13 371.37 690.52 380.74 690.52 390.11 690.52 399.47 690.52 408.84 690.52 418.2 690.52 418.2 699.91 427.57 699.91 436.94 699.91 446.3 699.91 455.67 699.91 465.03 699.91 465.03 709.3 474.4 709.3 483.76 709.3 493.13 709.3 502.5 709.3 502.5 718.7 511.86 718.7 521.23 718.7 530.59 718.7 539.96 718.7 549.33 718.7 558.69 718.7 568.06 718.7 577.42 718.7 586.79 718.7 586.79 728.09 596.15 728.09 605.52 728.09 614.89 728.09 624.25 728.09 633.62 728.09 642.98 728.09 652.35 728.09 652.35 718.7 661.72 718.7 671.08 718.7 680.45 718.7 689.81 718.7 699.18 718.7 708.54 718.7 708.54 709.3 717.91 709.3 727.28 709.3 736.64 709.3 746.01 709.3 755.37 709.3 755.37 699.91 764.74 699.91 774.11 699.91 783.47 699.91 792.84 699.91 792.84 690.52 802.2 690.52 811.57 690.52 811.57 681.13 820.93 681.13 830.3 681.13 830.3 671.74 839.67 671.74 849.03 671.74 858.4 671.74 858.4 662.35 867.76 662.35 877.13 662.35 886.5 662.35 895.86 662.35 905.23 662.35 914.59 662.35 923.96 662.35 933.33 662.35 942.69 662.35 942.69 671.74 952.06 671.74 961.42 671.74 970.79 671.74 970.79 681.13 980.15 681.13 989.52 681.13 998.89 681.13 998.89 690.52 1008.25 690.52 1017.62 690.52 1026.98 690.52 1036.35 690.52 1036.35 699.91 1045.71 699.91 1055.08 699.91 1064.45 699.91 1073.81 699.91 1083.18 699.91 1092.54 699.91 1101.91 699.91 1101.91 690.52 1111.28 690.52 1120.64 690.52 1130.01 690.52 1139.37 690.52 1139.37 681.13 1148.74 681.13 1158.11 681.13 1167.47 681.13 1167.47 671.74 1176.84 671.74 1186.2 671.74 1195.57 671.74 1204.93 671.74 1214.3 671.74 1223.67 671.74 1233.03 671.74 1233.03 681.13 1242.4 681.13 1251.76 681.13 1261.13 681.13 1270.49 681.13 1270.49 690.52 1279.86 690.52 1289.23 690.52 1298.59 690.52 1307.96 690.52 1317.33 690.52 1326.69 690.52 1336.06 690.52 1345.42 690.52 1345.42 699.91 1354.79 699.91 1364.15 699.91 1373.52 699.91 1382.89 699.91 1392.25 699.91 1401.62 699.91 1410.98 699.91 1420.35 699.91 1429.71 699.91 1439.08 699.91 1439.08 690.52 1448.45 690.52 1457.81 690.52 1467.18 690.52 1476.54 690.52 1476.54 699.91 1485.91 699.91 1495.28 699.91 1495.28 690.52 1504.64 690.52 1514.01 690.52 1514.01 681.13 1504.64 681.13"/></g></g><g id="nuage4"><g class="cls-2"><polygon class="cls-6" points="1769.89 498 1769.89 488.61 1769.89 479.22 1779.26 479.22 1788.63 479.22 1797.99 479.22 1797.99 469.83 1797.99 460.44 1807.36 460.44 1807.36 451.04 1816.72 451.04 1816.72 441.65 1826.09 441.65 1835.45 441.65 1835.45 432.26 1844.82 432.26 1854.19 432.26 1863.55 432.26 1872.92 432.26 1872.92 422.87 1882.28 422.87 1882.28 413.48 1891.65 413.48 1901.02 413.48 1910.38 413.48 1919.75 413.48 1929.11 413.48 1929.11 404.09 1938.48 404.09 1938.48 394.7 1947.85 394.7 1957.21 394.7 1966.58 394.7 1966.58 385.3 1975.94 385.3 1985.31 385.3 1985.31 394.7 1994.67 394.7 2004.04 394.7 2004.04 404.09 2013.41 404.09 2022.77 404.09 2032.14 404.09 2041.5 404.09 2050.87 404.09 2060.24 404.09 2069.6 404.09 2078.97 404.09 2078.97 413.48 2088.33 413.48 2097.7 413.48 2097.7 422.87 2097.7 432.26 2097.7 441.65 2107.06 441.65 2107.06 451.04 2116.43 451.04 2116.43 460.44 2125.8 460.44 2125.8 469.83 2125.8 479.22 2125.8 488.61 2135.16 488.61 2135.16 498 2135.16 507.39 2125.8 507.39 2125.8 498 2116.43 498 2116.43 488.61 2107.06 488.61 2107.06 479.22 2097.7 479.22 2097.7 469.83 2088.33 469.83 2088.33 460.44 2078.97 460.44 2069.6 460.44 2060.24 460.44 2050.87 460.44 2041.5 460.44 2041.5 469.83 2032.14 469.83 2032.14 479.22 2022.77 479.22 2013.41 479.22 2013.41 469.83 2004.04 469.83 2004.04 460.44 1994.67 460.44 1994.67 451.04 1985.31 451.04 1985.31 441.65 1975.94 441.65 1975.94 432.26 1966.58 432.26 1966.58 422.87 1957.21 422.87 1947.85 422.87 1938.48 422.87 1929.11 422.87 1929.11 432.26 1919.75 432.26 1910.38 432.26 1910.38 441.65 1901.02 441.65 1891.65 441.65 1891.65 451.04 1891.65 460.44 1891.65 469.83 1891.65 479.22 1882.28 479.22 1872.92 479.22 1863.55 479.22 1863.55 469.83 1854.19 469.83 1854.19 460.44 1844.82 460.44 1835.45 460.44 1826.09 460.44 1826.09 469.83 1826.09 479.22 1816.72 479.22 1816.72 488.61 1807.36 488.61 1797.99 488.61 1788.63 488.61 1788.63 498 1779.26 498 1779.26 507.39 1769.89 507.39 1769.89 516.78 1760.53 516.78 1760.53 507.39 1760.53 498 1769.89 498"/><polygon class="cls-6" points="1640.89 507.39 1640.89 498 1640.89 488.61 1650.25 488.61 1659.62 488.61 1668.98 488.61 1668.98 479.22 1668.98 469.83 1678.35 469.83 1678.35 460.44 1687.71 460.44 1687.71 451.04 1697.08 451.04 1706.45 451.04 1706.45 441.65 1715.81 441.65 1725.18 441.65 1734.54 441.65 1743.91 441.65 1743.91 432.26 1753.28 432.26 1753.28 422.87 1762.64 422.87 1772.01 422.87 1781.37 422.87 1790.74 422.87 1800.11 422.87 1800.11 413.48 1809.47 413.48 1809.47 404.09 1818.84 404.09 1828.2 404.09 1837.57 404.09 1837.57 394.7 1846.93 394.7 1856.3 394.7 1856.3 404.09 1865.67 404.09 1875.03 404.09 1875.03 413.48 1884.4 413.48 1893.76 413.48 1903.13 413.48 1912.5 413.48 1921.86 413.48 1931.23 413.48 1940.59 413.48 1949.96 413.48 1949.96 422.87 1959.33 422.87 1968.69 422.87 1968.69 432.26 1968.69 441.65 1968.69 451.04 1978.06 451.04 1978.06 460.44 1987.42 460.44 1987.42 469.83 1996.79 469.83 1996.79 479.22 1996.79 488.61 1996.79 498 2006.15 498 2006.15 507.39 2006.15 516.78 1996.79 516.78 1996.79 507.39 1987.42 507.39 1987.42 498 1978.06 498 1978.06 488.61 1968.69 488.61 1968.69 479.22 1959.33 479.22 1959.33 469.83 1949.96 469.83 1940.59 469.83 1931.23 469.83 1921.86 469.83 1912.5 469.83 1912.5 479.22 1903.13 479.22 1903.13 488.61 1893.76 488.61 1884.4 488.61 1884.4 479.22 1875.03 479.22 1875.03 469.83 1865.67 469.83 1865.67 460.44 1856.3 460.44 1856.3 451.04 1846.93 451.04 1846.93 441.65 1837.57 441.65 1837.57 432.26 1828.2 432.26 1818.84 432.26 1809.47 432.26 1800.11 432.26 1800.11 441.65 1790.74 441.65 1781.37 441.65 1781.37 451.04 1772.01 451.04 1762.64 451.04 1762.64 460.44 1762.64 469.83 1762.64 479.22 1762.64 488.61 1753.28 488.61 1743.91 488.61 1734.54 488.61 1734.54 479.22 1725.18 479.22 1725.18 469.83 1715.81 469.83 1706.45 469.83 1697.08 469.83 1697.08 479.22 1697.08 488.61 1687.71 488.61 1687.71 498 1678.35 498 1668.98 498 1659.62 498 1659.62 507.39 1650.25 507.39 1650.25 516.78 1640.89 516.78 1640.89 526.17 1631.52 526.17 1631.52 516.78 1631.52 507.39 1640.89 507.39"/><polygon class="cls-5" points="2116.43 526.17 2116.43 535.57 2107.06 535.57 2097.7 535.57 2088.33 535.57 2088.33 526.17 2078.97 526.17 2069.6 526.17 2069.6 516.78 2060.24 516.78 2050.87 516.78 2041.5 516.78 2032.14 516.78 2032.14 526.17 2022.77 526.17 2022.77 516.78 2022.77 507.39 2013.41 507.39 2013.41 498 2004.04 498 1994.67 498 1985.31 498 1975.94 498 1975.94 507.39 1966.58 507.39 1957.21 507.39 1957.21 516.78 1947.85 516.78 1938.48 516.78 1929.11 516.78 1929.11 507.39 1919.75 507.39 1919.75 498 1910.38 498 1910.38 488.61 1901.02 488.61 1891.65 488.61 1891.65 479.22 1882.28 479.22 1872.92 479.22 1863.55 479.22 1863.55 488.61 1854.19 488.61 1854.19 498 1844.82 498 1844.82 507.39 1835.45 507.39 1835.45 516.78 1828.2 516.78 1826.09 516.78 1826.09 507.39 1826.09 498 1816.72 498 1816.72 488.61 1807.36 488.61 1797.99 488.61 1788.63 488.61 1788.63 498 1781.37 498 1779.26 498 1772.01 498 1762.64 498 1762.64 488.61 1753.28 488.61 1743.91 488.61 1734.54 488.61 1734.54 498 1725.18 498 1725.18 507.39 1715.81 507.39 1715.81 516.78 1706.45 516.78 1706.45 526.17 1697.08 526.17 1697.08 516.78 1697.08 507.39 1687.71 507.39 1687.71 498 1678.35 498 1668.98 498 1659.62 498 1659.62 507.39 1650.25 507.39 1650.25 516.78 1640.89 516.78 1640.89 526.17 1631.52 526.17 1631.52 535.57 1631.52 544.96 1631.52 554.35 1640.89 554.35 1640.89 563.74 1650.25 563.74 1650.25 573.13 1659.62 573.13 1668.98 573.13 1678.35 573.13 1687.71 573.13 1697.08 573.13 1706.45 573.13 1715.81 573.13 1725.18 573.13 1725.18 582.52 1734.54 582.52 1743.91 582.52 1753.28 582.52 1762.64 582.52 1772.01 582.52 1781.37 582.52 1790.74 582.52 1790.74 573.13 1800.11 573.13 1809.47 573.13 1818.84 573.13 1828.2 573.13 1828.2 563.74 1835.45 563.74 1837.57 563.74 1837.57 573.13 1846.93 573.13 1854.19 573.13 1856.3 573.13 1863.55 573.13 1865.67 573.13 1872.92 573.13 1875.03 573.13 1875.03 582.52 1884.4 582.52 1893.76 582.52 1903.13 582.52 1912.5 582.52 1921.86 582.52 1921.86 573.13 1931.23 573.13 1940.59 573.13 1949.96 573.13 1959.33 573.13 1968.69 573.13 1978.06 573.13 1978.06 563.74 1985.31 563.74 1987.42 563.74 1994.67 563.74 2004.04 563.74 2004.04 573.13 2013.41 573.13 2022.77 573.13 2032.14 573.13 2041.5 573.13 2050.87 573.13 2050.87 563.74 2060.24 563.74 2069.6 563.74 2078.97 563.74 2088.33 563.74 2097.7 563.74 2107.06 563.74 2107.06 554.35 2116.43 554.35 2116.43 544.96 2125.8 544.96 2125.8 535.57 2125.8 526.17 2116.43 526.17"/><polygon class="cls-4" points="1725.18 469.83 1715.81 469.83 1706.45 469.83 1697.08 469.83 1697.08 479.22 1697.08 488.61 1687.71 488.61 1687.71 498 1687.71 507.39 1697.08 507.39 1697.08 516.78 1697.08 526.17 1706.45 526.17 1706.45 516.78 1715.81 516.78 1715.81 507.39 1725.18 507.39 1725.18 498 1734.54 498 1734.54 488.61 1734.54 479.22 1725.18 479.22 1725.18 469.83"/><polygon class="cls-4" points="2125.8 507.39 2125.8 498 2116.43 498 2116.43 488.61 2107.06 488.61 2107.06 479.22 2097.7 479.22 2097.7 469.83 2088.33 469.83 2088.33 460.44 2078.97 460.44 2069.6 460.44 2060.24 460.44 2050.87 460.44 2041.5 460.44 2041.5 469.83 2032.14 469.83 2032.14 479.22 2022.77 479.22 2013.41 479.22 2013.41 469.83 2004.04 469.83 2004.04 460.44 1994.67 460.44 1994.67 451.04 1985.31 451.04 1985.31 441.65 1975.94 441.65 1975.94 432.26 1966.58 432.26 1966.58 422.87 1957.21 422.87 1947.85 422.87 1938.48 422.87 1929.11 422.87 1929.11 432.26 1919.75 432.26 1910.38 432.26 1910.38 441.65 1901.02 441.65 1891.65 441.65 1891.65 451.04 1891.65 460.44 1891.65 469.83 1891.65 479.22 1891.65 488.61 1884.4 488.61 1884.4 479.22 1875.03 479.22 1875.03 469.83 1865.67 469.83 1865.67 460.44 1856.3 460.44 1856.3 451.04 1846.93 451.04 1846.93 441.65 1837.57 441.65 1837.57 432.26 1828.2 432.26 1818.84 432.26 1809.47 432.26 1800.11 432.26 1800.11 441.65 1790.74 441.65 1781.37 441.65 1781.37 451.04 1772.01 451.04 1762.64 451.04 1762.64 460.44 1762.64 469.83 1762.64 479.22 1762.64 488.61 1762.64 498 1772.01 498 1781.37 498 1781.37 507.39 1790.74 507.39 1790.74 516.78 1800.11 516.78 1800.11 526.17 1809.47 526.17 1818.84 526.17 1828.2 526.17 1828.2 516.78 1835.45 516.78 1837.57 516.78 1846.93 516.78 1846.93 507.39 1856.3 507.39 1865.67 507.39 1875.03 507.39 1884.4 507.39 1884.4 516.78 1893.76 516.78 1893.76 526.17 1893.76 535.57 1903.13 535.57 1903.13 526.17 1912.5 526.17 1921.86 526.17 1931.23 526.17 1940.59 526.17 1940.59 535.57 1949.96 535.57 1959.33 535.57 1959.33 544.96 1968.69 544.96 1978.06 544.96 1987.42 544.96 1987.42 535.57 1996.79 535.57 1996.79 526.17 2006.15 526.17 2006.15 516.78 1996.79 516.78 1996.79 507.39 1987.42 507.39 1987.42 498 1994.67 498 2004.04 498 2013.41 498 2013.41 507.39 2022.77 507.39 2022.77 516.78 2022.77 526.17 2032.14 526.17 2032.14 516.78 2041.5 516.78 2050.87 516.78 2060.24 516.78 2069.6 516.78 2069.6 526.17 2078.97 526.17 2088.33 526.17 2088.33 535.57 2097.7 535.57 2107.06 535.57 2116.43 535.57 2116.43 526.17 2125.8 526.17 2125.8 516.78 2135.16 516.78 2135.16 507.39 2125.8 507.39"/></g></g><g id="nuage5"><g class="cls-2"><rect class="cls-3" x="1810.98" y="284.35" width="9.37" height="9.39"/><rect class="cls-3" x="1703.28" y="279.65" width="9.37" height="9.39"/><rect class="cls-3" x="1576.84" y="307.83" width="9.37" height="9.39"/><rect class="cls-3" x="1722.02" y="265.57" width="9.37" height="9.39"/><path class="cls-3" d="M1937.42,199.83H1900V181h-9.37v-9.39h-18.73v-9.39h-18.73v-9.39H1806.3v9.39h-18.73v9.39h-9.37v-9.39h-9.36v-9.39h-28.1v-9.39h-37.46v9.39h-18.74v9.39h-26v-9.39H1639.8v-9.39H1633v-4.7h-56.19V120h-9.37v-9.39h-18.73v-9.39H1530V91.83h-46.83v9.39h-18.73v9.39h-9.37v-9.39h-9.36V91.83h-28.1v-9.4h-37.47v9.4h-18.73v9.39h-9.36V120h-9.37v28.17h-65.56v9.4h-9.37V167h-9.36v18.78H1249v9.39h-74.92v9.39h-9.37v9.39h-14v-4.69h9.36v-9.39h-32.78v-4.7h-9.37v-9.39h-14V181h-9.37v-9.39h-18.73v-9.39H1057v-9.39h-46.83v9.39H991.48v9.39h-9.37v-9.39h-9.36v-9.39h-28.1v-9.39H907.19v9.39H888.45v9.39h-9.36V181h-9.37v28.18H804.16v9.39H794.8V228h-9.37v18.78h-9.37v9.39H701.14v9.4h-9.37V275H673v-9.39H654.31v-9.4h-9.37v-9.39h-28.1v9.39h-9.36v9.4h-9.37v-9.4H551.28v9.4H532.55V275h-9.36v9.39h-9.37v28.17h-9.37v9.39h-9.36v-9.39h-9.37v-9.39h-9.36v-9.39h-56.2v9.39H410.8v9.39H373.33v9.39H364V340.7H354.6v9.39H307.77v9.39h-9.36V397h9.36v-9.39H326.5v-9.39h18.73v-9.39H364v-9.39h9.36v-9.39h9.37V340.7h18.73v-9.4h18.73v-9.39h37.46v9.39h18.74v9.4h9.36v9.39h9.37v18.78h18.73v-9.39h18.73v-9.39h9.37V340.7h18.73v-9.4H570v-9.39h28.09v-9.39h28.1v-9.39h18.73v9.39h18.73v9.39h28.1v9.39H710.5v-9.39h9.37v-9.39h9.36v-9.39h9.37v-9.39H748v-9.39h28.09V275h56.2v4.69h-4.69V289H780.74v9.39h-9.37V336h9.37v-9.39h18.73v-9.39H818.2v-9.39h18.73v-9.4h9.37v-4.69H851v9.39h18.73v9.39h9.37V293.74h9.36V275h9.37V260.87h32.77v9.39h18.73v9.39h9.37V289h9.37v9.39H949.32v4.7h-51.5v4.7H883.76v9.39H865v4.69H851v9.39h-9.37V336h-9.36v9.39h-9.37v14.09H818.2v-4.7h-9.36v-9.39h-56.2v9.39h-9.36v9.39H705.81v9.4h-9.36v18.78h-9.37v9.39H640.25v9.39h-9.36V448.7h9.36v-9.4H659v-9.39h18.74v-9.39h18.73v-9.39h9.36v-9.39h9.37v-9.39h18.73V383h18.73v-9.39H766.7V383h-9.37v37.56h9.37v-9.39h18.73v-4.7h0v-4.69h18.73V397h0v-4.69h14v9.39h9.37v18.78H846.3v-9.39H865v14.09h9.37v-9.39h18.73v-9.4h18.73V397h18.73v-9.39H940v-9.39h9.36v-4.69H954v18.78h18.73V383h18.73v-4.7h0v-4.69h32.77V383H1043v-9.39h9.37v4.69h9.37V397h18.73v-9.39h14V397h9.36v-9.39h18.73v-9.39h18.73v-9.39h18.74v-9.39h9.36v-4.7h0v-4.69h9.36v-4.7h4.68v9.39h18.73v9.39h9.37V345.39h9.36V340.7h9.37v9.39h28.1v9.39h18.73v-9.39h14v18.78h18.73v-9.39h18.73v-9.39H1338V340.7h18.73v-9.4h9.37v-4.69h14V336h28.1v-9.39h9.37v-4.7h0v9.39h18.73v9.4h9.37V321.91h9.36v-9.39h4.68v9.39h28.1v9.39h18.73v-9.39H1516v-9.39h9.36v-4.69h9.38v-9.4h9.36v-4.69h9.37v-9.39h23.41v9.39h18.73v9.39h18.73v9.39h28.1v-9.39h23.41v9.39h9.37V293.74h9.36V275h9.37V256.17h18.73v-9.39h74.93v9.39h18.73v9.4H1825V275h18.73v9.39h28.1V275h9.37V256.17h9.36v-9.39H1900v-9.39h9.36V228h18.74v-9.39h18.73v-9.39h9.36v-9.39h-18.73Zm-838.24,51.65v-4.7h4.69v-4.69h14v9.39h16.14v4.69H1094.5v9.4h-9.36v4.69h0V256.17h9.36v-4.69Zm-140.49,0v-4.7h28.1v4.7h-9.37v9.39h-9.36v-9.39ZM911.86,378.26h-2.59v-4.69h12v4.69Z"/><polygon class="cls-4" points="2077.91 368.87 2077.91 359.48 2077.91 350.09 2077.91 340.7 2068.54 340.7 2059.18 340.7 2059.18 331.3 2049.81 331.3 2049.81 321.91 2049.81 312.52 2059.18 312.52 2059.18 303.13 2059.18 293.74 2059.18 284.35 2049.81 284.35 2049.81 274.96 2049.81 265.56 2040.45 265.56 2040.45 256.17 2031.08 256.17 2021.71 256.17 2012.35 256.17 2002.98 256.17 2002.98 246.78 1993.62 246.78 1993.62 237.39 1993.62 228 1984.25 228 1984.25 218.61 1974.89 218.61 1974.89 209.22 1965.52 209.22 1956.15 209.22 1946.79 209.22 1946.79 218.61 1937.42 218.61 1928.06 218.61 1928.06 228 1918.69 228 1909.33 228 1909.33 237.39 1899.96 237.39 1899.96 246.78 1890.59 246.78 1890.59 256.17 1881.23 256.17 1881.23 265.56 1881.23 274.96 1871.86 274.96 1871.86 284.35 1862.49 284.35 1853.13 284.35 1843.76 284.35 1843.76 274.96 1834.4 274.96 1825.03 274.96 1825.03 265.56 1815.67 265.56 1806.3 265.56 1806.3 256.17 1796.93 256.17 1787.57 256.17 1787.57 246.78 1778.2 246.78 1768.84 246.78 1759.47 246.78 1750.11 246.78 1740.74 246.78 1731.37 246.78 1722.01 246.78 1712.64 246.78 1712.64 256.17 1707.96 256.17 1703.28 256.17 1698.59 256.17 1693.91 256.17 1689.23 256.17 1679.86 256.17 1679.86 246.78 1670.5 246.78 1670.5 237.39 1670.5 228 1661.13 228 1661.13 218.61 1651.76 218.61 1651.76 209.22 1642.4 209.22 1633.03 209.22 1623.67 209.22 1623.67 218.61 1614.3 218.61 1604.93 218.61 1604.93 228 1595.57 228 1586.2 228 1586.2 237.39 1576.84 237.39 1576.84 246.78 1567.47 246.78 1567.47 256.17 1558.11 256.17 1558.11 265.56 1558.11 274.96 1548.74 274.96 1548.74 284.35 1544.06 284.35 1539.37 284.35 1530.01 284.35 1520.64 284.35 1520.64 274.96 1511.28 274.96 1501.91 274.96 1501.91 265.56 1492.54 265.56 1483.18 265.56 1483.18 256.17 1473.81 256.17 1464.45 256.17 1464.45 246.78 1455.08 246.78 1445.71 246.78 1436.35 246.78 1426.98 246.78 1417.62 246.78 1408.25 246.78 1398.89 246.78 1389.52 246.78 1389.52 256.17 1380.15 256.17 1370.79 256.17 1370.79 265.56 1370.79 274.96 1361.42 274.96 1361.42 284.35 1361.42 293.74 1352.06 293.74 1352.06 303.13 1352.06 312.52 1342.69 312.52 1342.69 303.13 1333.33 303.13 1323.96 303.13 1323.96 293.74 1314.59 293.74 1314.59 284.35 1305.23 284.35 1305.23 274.96 1295.86 274.96 1286.5 274.96 1277.13 274.96 1267.76 274.96 1258.4 274.96 1253.72 274.96 1253.72 265.56 1244.36 265.56 1244.36 256.17 1234.99 256.17 1225.63 256.17 1216.26 256.17 1206.89 256.17 1206.89 246.78 1197.53 246.78 1197.53 237.39 1197.53 228 1188.16 228 1188.16 218.61 1178.8 218.61 1178.8 209.22 1169.43 209.22 1160.06 209.22 1150.7 209.22 1150.7 218.61 1141.33 218.61 1131.97 218.61 1131.97 228 1122.6 228 1113.23 228 1113.23 237.39 1103.87 237.39 1103.87 246.78 1094.5 246.78 1094.5 256.17 1085.14 256.17 1085.14 265.56 1085.14 274.96 1075.77 274.96 1075.77 284.35 1066.4 284.35 1057.04 284.35 1047.67 284.35 1047.67 274.96 1038.31 274.96 1028.94 274.96 1028.94 265.56 1019.58 265.56 1010.21 265.56 1010.21 256.17 1000.84 256.17 991.48 256.17 991.48 246.78 982.11 246.78 972.75 246.78 963.38 246.78 954.01 246.78 944.65 246.78 935.28 246.78 925.92 246.78 916.55 246.78 916.55 256.17 907.19 256.17 897.82 256.17 897.82 265.56 897.82 274.96 888.45 274.96 888.45 284.35 888.45 293.74 879.09 293.74 879.09 303.13 879.09 312.52 869.72 312.52 869.72 303.13 860.36 303.13 850.99 303.13 850.99 293.74 841.63 293.74 841.63 284.35 832.26 284.35 832.26 274.96 822.89 274.96 813.53 274.96 804.16 274.96 794.8 274.96 785.43 274.96 776.06 274.96 776.06 284.35 766.7 284.35 757.33 284.35 747.97 284.35 747.97 293.74 738.6 293.74 738.6 303.13 729.24 303.13 729.24 312.52 719.87 312.52 719.87 321.91 710.5 321.91 710.5 331.3 701.14 331.3 691.77 331.3 691.77 321.91 682.4 321.91 673.04 321.91 663.67 321.91 663.67 312.52 654.31 312.52 644.94 312.52 644.94 303.13 635.58 303.13 626.21 303.13 626.21 312.52 616.84 312.52 607.48 312.52 598.11 312.52 598.11 321.91 588.75 321.91 579.38 321.91 570.01 321.91 570.01 331.3 560.65 331.3 560.65 340.7 551.28 340.7 541.92 340.7 541.92 350.09 532.55 350.09 532.55 359.48 523.19 359.48 513.82 359.48 513.82 368.87 523.19 368.87 532.55 368.87 532.55 378.26 541.92 378.26 551.28 378.26 560.65 378.26 560.65 387.65 570.01 387.65 570.01 397.04 579.38 397.04 579.38 406.44 588.75 406.44 598.11 406.44 607.48 406.44 607.48 415.83 616.84 415.83 626.21 415.83 635.58 415.83 644.94 415.83 654.31 415.83 663.67 415.83 663.67 406.44 673.04 406.44 682.4 406.44 682.4 397.04 691.77 397.04 701.14 397.04 710.5 397.04 719.87 397.04 719.87 406.44 729.24 406.44 738.6 406.44 738.6 415.83 747.97 415.83 757.33 415.83 766.7 415.83 776.06 415.83 785.43 415.83 794.8 415.83 804.16 415.83 813.53 415.83 813.53 425.22 822.89 425.22 822.89 415.83 827.57 415.83 832.26 415.83 836.93 415.83 846.3 415.83 855.67 415.83 865.03 415.83 865.03 406.44 874.4 406.44 883.76 406.44 893.13 406.44 902.5 406.44 911.86 406.44 911.86 415.83 921.23 415.83 930.59 415.83 939.96 415.83 939.96 406.44 944.65 406.44 944.65 415.83 954.01 415.83 954.01 425.22 963.38 425.22 963.38 415.83 972.75 415.83 982.11 415.83 991.48 415.83 991.48 406.44 1000.84 406.44 1000.84 397.04 1010.21 397.04 1019.58 397.04 1019.58 387.65 1028.94 387.65 1033.62 387.65 1038.31 387.65 1042.98 387.65 1042.98 397.04 1052.35 397.04 1052.35 406.44 1061.71 406.44 1071.08 406.44 1080.45 406.44 1080.45 415.83 1089.81 415.83 1094.5 415.83 1099.18 415.83 1103.87 415.83 1108.54 415.83 1113.23 415.83 1117.91 415.83 1122.6 415.83 1127.28 415.83 1136.64 415.83 1136.64 406.44 1141.33 406.44 1141.33 415.83 1150.69 415.83 1160.06 415.83 1169.42 415.83 1178.79 415.83 1188.15 415.83 1188.15 406.44 1188.16 406.44 1192.84 406.44 1197.52 406.44 1197.53 406.44 1202.2 406.44 1206.89 406.44 1206.89 406.44 1211.57 406.44 1211.57 415.83 1220.93 415.83 1230.3 415.83 1234.98 415.83 1239.67 415.83 1244.35 415.83 1249.03 415.83 1253.71 415.83 1258.4 415.83 1263.08 415.83 1267.76 415.83 1277.13 415.83 1286.5 415.83 1286.5 425.22 1295.86 425.22 1295.86 415.83 1305.23 415.83 1305.23 406.44 1314.59 406.44 1314.59 397.04 1314.59 387.65 1323.96 387.65 1323.96 378.26 1328.64 378.26 1333.33 378.26 1338.01 378.26 1342.69 378.26 1347.37 378.26 1352.06 378.26 1356.74 378.26 1356.74 387.65 1366.11 387.65 1366.11 397.04 1375.47 397.04 1375.47 406.44 1384.84 406.44 1394.2 406.44 1403.57 406.44 1403.57 415.83 1412.93 415.83 1417.62 415.83 1422.3 415.83 1426.98 415.83 1426.98 425.22 1436.35 425.22 1436.35 415.83 1441.03 415.83 1445.71 415.83 1450.4 415.83 1455.08 415.83 1459.76 415.83 1464.45 415.83 1464.45 406.44 1469.13 406.44 1473.81 406.44 1478.49 406.44 1478.49 397.04 1483.18 397.04 1487.86 397.04 1492.54 397.04 1497.23 397.04 1506.59 397.04 1515.96 397.04 1515.96 406.44 1525.33 406.44 1534.69 406.44 1534.69 415.83 1544.06 415.83 1553.42 415.83 1562.79 415.83 1567.47 415.83 1572.15 415.83 1576.84 415.83 1581.52 415.83 1586.2 415.83 1590.89 415.83 1595.57 415.83 1600.25 415.83 1609.62 415.83 1609.62 425.22 1618.98 425.22 1618.98 415.83 1628.35 415.83 1628.35 406.44 1637.71 406.44 1637.71 397.04 1642.4 397.04 1651.76 397.04 1651.76 406.44 1661.13 406.44 1670.5 406.44 1679.86 406.44 1679.86 397.04 1689.23 397.04 1689.23 387.65 1698.59 387.65 1698.59 378.26 1703.28 378.26 1703.28 387.65 1712.64 387.65 1722.01 387.65 1722.01 397.04 1731.37 397.04 1731.37 406.44 1740.74 406.44 1740.74 415.83 1750.11 415.83 1750.11 425.22 1759.47 425.22 1759.47 415.83 1768.84 415.83 1778.2 415.83 1787.57 415.83 1787.57 406.44 1796.93 406.44 1796.93 397.04 1806.3 397.04 1815.67 397.04 1815.67 387.65 1825.03 387.65 1834.4 387.65 1843.76 387.65 1853.13 387.65 1862.49 387.65 1871.86 387.65 1871.86 397.04 1881.23 397.04 1881.23 406.44 1890.59 406.44 1890.59 415.83 1899.96 415.83 1909.33 415.83 1918.69 415.83 1918.69 406.44 1928.06 406.44 1928.06 397.04 1937.42 397.04 1946.79 397.04 1956.15 397.04 1965.52 397.04 1974.89 397.04 1974.89 406.44 1984.25 406.44 1993.62 406.44 2002.98 406.44 2002.98 397.04 2012.35 397.04 2012.35 387.65 2021.71 387.65 2021.71 378.26 2031.08 378.26 2040.45 378.26 2049.81 378.26 2059.18 378.26 2059.18 387.65 2068.54 387.65 2077.91 387.65 2087.28 387.65 2087.28 378.26 2087.28 368.87 2077.91 368.87"/><polygon class="cls-4" points="495.09 368.87 495.09 359.48 495.09 350.09 485.72 350.09 485.72 340.7 476.36 340.7 476.36 331.3 466.99 331.3 457.63 331.3 457.63 321.91 448.26 321.91 438.89 321.91 429.53 321.91 420.16 321.91 420.16 331.3 410.8 331.3 401.43 331.3 401.43 340.7 392.06 340.7 382.7 340.7 382.7 350.09 373.33 350.09 373.33 359.48 363.97 359.48 363.97 368.87 354.6 368.87 345.24 368.87 345.24 378.26 335.87 378.26 326.5 378.26 326.5 387.65 317.14 387.65 307.77 387.65 307.77 397.04 307.77 406.44 317.14 406.44 326.5 406.44 335.87 406.44 345.24 406.44 345.24 415.83 354.6 415.83 363.97 415.83 373.33 415.83 382.7 415.83 392.06 415.83 392.06 406.44 401.43 406.44 410.8 406.44 420.16 406.44 429.53 406.44 438.89 406.44 438.89 415.83 448.26 415.83 457.63 415.83 466.99 415.83 466.99 406.44 476.36 406.44 476.36 397.04 485.72 397.04 485.72 387.65 495.09 387.65 495.09 378.26 504.45 378.26 513.82 378.26 513.82 368.87 504.45 368.87 495.09 368.87"/><polygon class="cls-5" points="2096.64 406.44 2096.64 397.04 2087.28 397.04 2087.28 387.65 2077.91 387.65 2068.54 387.65 2059.18 387.65 2059.18 378.26 2049.81 378.26 2040.45 378.26 2031.08 378.26 2021.71 378.26 2021.71 387.65 2012.35 387.65 2012.35 397.04 2002.98 397.04 2002.98 406.44 1993.62 406.44 1984.25 406.44 1974.89 406.44 1974.89 397.04 1965.52 397.04 1956.15 397.04 1946.79 397.04 1937.42 397.04 1928.06 397.04 1928.06 406.44 1918.69 406.44 1918.69 415.83 1909.33 415.83 1899.96 415.83 1890.59 415.83 1890.59 406.44 1881.23 406.44 1881.23 397.04 1871.86 397.04 1871.86 387.65 1862.49 387.65 1853.13 387.65 1843.76 387.65 1834.4 387.65 1825.03 387.65 1815.67 387.65 1815.67 397.04 1806.3 397.04 1796.93 397.04 1796.93 406.44 1787.57 406.44 1787.57 415.83 1782.89 415.83 1782.89 406.44 1773.52 406.44 1773.52 397.04 1764.15 397.04 1764.15 387.65 1754.79 387.65 1745.42 387.65 1736.06 387.65 1736.06 378.26 1726.69 378.26 1717.33 378.26 1707.96 378.26 1703.28 378.26 1698.59 378.26 1693.91 378.26 1684.54 378.26 1675.18 378.26 1665.81 378.26 1656.45 378.26 1647.08 378.26 1647.08 387.65 1637.71 387.65 1637.71 397.04 1633.03 397.04 1623.67 397.04 1614.3 397.04 1604.93 397.04 1604.93 406.44 1595.57 406.44 1595.57 415.83 1590.89 415.83 1586.2 415.83 1581.52 415.83 1576.84 415.83 1572.15 415.83 1567.47 415.83 1567.47 406.44 1558.11 406.44 1558.11 397.04 1548.74 397.04 1548.74 387.65 1539.37 387.65 1530.01 387.65 1520.64 387.65 1511.28 387.65 1501.91 387.65 1492.54 387.65 1492.54 397.04 1487.86 397.04 1483.18 397.04 1478.49 397.04 1473.81 397.04 1473.81 406.44 1469.13 406.44 1464.45 406.44 1459.76 406.44 1459.76 415.83 1455.08 415.83 1450.4 415.83 1445.71 415.83 1441.03 415.83 1436.35 415.83 1431.67 415.83 1426.98 415.83 1422.3 415.83 1417.62 415.83 1417.62 406.44 1408.25 406.44 1408.25 397.04 1398.89 397.04 1398.89 387.65 1389.52 387.65 1380.15 387.65 1380.15 378.26 1370.79 378.26 1361.42 378.26 1356.74 378.26 1352.06 378.26 1347.37 378.26 1342.69 378.26 1338.01 378.26 1333.33 378.26 1328.64 378.26 1328.64 368.87 1319.28 368.87 1309.91 368.87 1309.91 378.26 1300.54 378.26 1291.18 378.26 1291.18 387.65 1281.82 387.65 1281.81 387.65 1272.45 387.65 1263.09 387.65 1263.09 378.26 1253.72 378.26 1244.36 378.26 1234.99 378.26 1225.63 378.26 1225.63 387.65 1216.26 387.65 1216.26 397.04 1206.89 397.04 1206.89 406.44 1206.89 406.44 1202.2 406.44 1197.53 406.44 1197.52 406.44 1192.84 406.44 1192.84 397.04 1183.47 397.04 1178.8 397.04 1174.11 397.04 1169.43 397.04 1164.74 397.04 1160.06 397.04 1155.37 397.04 1150.7 397.04 1141.33 397.04 1131.97 397.04 1131.97 406.44 1131.96 406.44 1122.6 406.44 1122.59 406.44 1113.23 406.44 1103.86 406.44 1103.86 415.83 1099.18 415.83 1094.5 415.83 1094.5 406.44 1085.14 406.44 1085.14 397.04 1075.77 397.04 1075.77 387.65 1066.4 387.65 1057.04 387.65 1047.67 387.65 1042.98 387.65 1038.31 387.65 1033.62 387.65 1033.62 378.26 1024.25 378.26 1014.89 378.26 1005.52 378.26 1005.52 368.87 996.15 368.87 986.79 368.87 986.79 378.26 977.42 378.26 968.06 378.26 968.06 387.65 958.69 387.65 958.69 397.04 949.33 397.04 949.33 406.44 944.65 406.44 939.96 406.44 935.28 406.44 935.28 397.04 925.92 397.04 925.92 387.65 916.55 387.65 907.19 387.65 907.19 378.26 897.82 378.26 888.45 378.26 879.09 378.26 869.72 378.26 860.36 378.26 850.99 378.26 850.99 387.65 841.63 387.65 841.63 397.04 841.63 406.44 832.26 406.44 832.26 415.83 827.57 415.83 822.89 415.83 818.2 415.83 818.2 406.44 808.84 406.44 799.47 406.44 790.11 406.44 780.74 406.44 780.74 415.83 776.06 415.83 771.37 415.83 766.7 415.83 757.33 415.83 747.97 415.83 738.6 415.83 738.6 406.44 729.24 406.44 719.87 406.44 719.87 397.04 710.5 397.04 701.14 397.04 691.77 397.04 682.4 397.04 682.4 406.44 673.04 406.44 663.67 406.44 663.67 415.83 654.31 415.83 644.94 415.83 635.58 415.83 626.21 415.83 616.84 415.83 607.48 415.83 607.48 406.44 598.11 406.44 588.75 406.44 579.38 406.44 579.38 397.04 570.01 397.04 570.01 387.65 560.65 387.65 560.65 378.26 551.28 378.26 541.92 378.26 532.55 378.26 532.55 368.87 523.19 368.87 513.82 368.87 513.82 378.26 504.45 378.26 495.09 378.26 495.09 387.65 485.72 387.65 485.72 397.04 476.36 397.04 476.36 406.44 466.99 406.44 466.99 415.83 457.63 415.83 448.26 415.83 438.89 415.83 438.89 406.44 429.53 406.44 420.16 406.44 410.8 406.44 401.43 406.44 392.06 406.44 392.06 415.83 382.7 415.83 373.33 415.83 363.97 415.83 354.6 415.83 345.24 415.83 345.24 406.44 335.87 406.44 326.5 406.44 317.14 406.44 307.77 406.44 307.77 415.83 298.4 415.83 298.4 425.22 307.77 425.22 307.77 434.61 317.14 434.61 317.14 444 326.5 444 335.87 444 345.24 444 354.6 444 363.97 444 373.33 444 382.7 444 392.06 444 392.06 434.61 401.43 434.61 410.8 434.61 420.16 434.61 429.53 434.61 438.89 434.61 448.26 434.61 457.63 434.61 466.99 434.61 466.99 444 476.36 444 485.72 444 485.72 453.39 495.09 453.39 504.45 453.39 504.45 462.78 513.82 462.78 513.82 472.17 523.19 472.17 532.55 472.17 541.92 472.17 551.28 472.17 560.65 472.17 570.01 472.17 579.38 472.17 588.75 472.17 588.75 462.78 598.11 462.78 607.48 462.78 616.84 462.78 626.21 462.78 635.58 462.78 644.94 462.78 644.94 453.39 654.31 453.39 663.67 453.39 673.04 453.39 682.4 453.39 691.77 453.39 701.14 453.39 710.5 453.39 719.87 453.39 729.24 453.39 729.24 462.78 738.6 462.78 747.97 462.78 757.33 462.78 766.7 462.78 776.06 462.78 776.06 472.17 785.43 472.17 794.8 472.17 804.16 472.17 813.53 472.17 822.89 472.17 832.26 472.17 841.63 472.17 850.99 472.17 860.36 472.17 869.72 472.17 869.72 462.78 879.09 462.78 888.45 462.78 897.82 462.78 907.19 462.78 916.55 462.78 925.92 462.78 935.28 462.78 944.65 462.78 954.01 462.78 963.38 462.78 972.75 462.78 977.42 462.78 982.11 462.78 986.79 462.78 986.79 472.17 996.15 472.17 1005.52 472.17 1014.89 472.17 1024.25 472.17 1033.62 472.17 1042.98 472.17 1052.35 472.17 1061.71 472.17 1061.71 462.78 1071.08 462.78 1080.45 462.78 1089.81 462.78 1099.18 462.78 1103.87 462.78 1108.54 462.78 1113.23 462.78 1117.91 462.78 1122.6 462.78 1131.97 462.78 1131.97 472.17 1141.33 472.17 1150.7 472.17 1160.06 472.17 1169.43 472.17 1178.8 472.17 1188.16 472.17 1197.53 472.17 1206.89 472.17 1216.26 472.17 1225.63 472.17 1225.63 462.78 1230.3 462.78 1234.99 462.78 1239.67 462.78 1244.36 462.78 1249.03 462.78 1249.03 472.17 1258.4 472.17 1267.76 472.17 1277.13 472.17 1286.5 472.17 1295.86 472.17 1305.23 472.17 1309.91 472.17 1314.59 472.17 1319.28 472.17 1323.96 472.17 1328.64 472.17 1333.33 472.17 1338.01 472.17 1342.69 472.17 1347.37 472.17 1356.74 472.17 1366.11 472.17 1375.47 472.17 1384.84 472.17 1384.84 462.78 1389.52 462.78 1394.2 462.78 1398.89 462.78 1403.57 462.78 1408.25 462.78 1412.93 462.78 1417.62 462.78 1422.3 462.78 1426.98 462.78 1431.67 462.78 1436.35 462.78 1441.03 462.78 1445.71 462.78 1455.08 462.78 1455.08 453.39 1459.76 453.39 1464.45 453.39 1469.13 453.39 1473.81 453.39 1478.49 453.39 1483.18 453.39 1487.86 453.39 1492.54 453.39 1497.23 453.39 1501.91 453.39 1506.59 453.39 1511.28 453.39 1515.96 453.39 1520.64 453.39 1525.33 453.39 1525.33 462.78 1534.69 462.78 1544.06 462.78 1553.42 462.78 1562.79 462.78 1572.15 462.78 1572.15 472.17 1581.52 472.17 1590.89 472.17 1600.25 472.17 1604.93 472.17 1609.62 472.17 1614.3 472.17 1618.98 472.17 1623.67 472.17 1628.35 472.17 1633.03 472.17 1637.71 472.17 1642.4 472.17 1647.08 472.17 1651.76 472.17 1656.45 472.17 1661.13 472.17 1665.81 472.17 1670.5 472.17 1679.86 472.17 1689.23 472.17 1698.59 472.17 1698.59 462.78 1703.28 462.78 1707.96 462.78 1712.64 462.78 1717.33 462.78 1722.01 462.78 1726.69 462.78 1731.37 462.78 1740.74 462.78 1750.11 462.78 1759.47 462.78 1768.84 462.78 1778.2 462.78 1778.2 453.39 1787.57 453.39 1796.93 453.39 1806.3 453.39 1815.67 453.39 1825.03 453.39 1834.4 453.39 1843.76 453.39 1853.13 453.39 1862.49 453.39 1871.86 453.39 1881.23 453.39 1890.59 453.39 1899.96 453.39 1899.96 462.78 1909.33 462.78 1918.69 462.78 1928.06 462.78 1928.06 472.17 1937.42 472.17 1946.79 472.17 1956.15 472.17 1965.52 472.17 1974.89 472.17 1984.25 472.17 1993.62 472.17 2002.98 472.17 2012.35 472.17 2021.71 472.17 2021.71 462.78 2031.08 462.78 2040.45 462.78 2049.81 462.78 2049.81 453.39 2059.18 453.39 2068.54 453.39 2077.91 453.39 2077.91 444 2087.28 444 2096.64 444 2106.01 444 2106.01 434.61 2106.01 425.22 2106.01 415.83 2106.01 406.44 2096.64 406.44"/></g></g></svg>