<svg xmlns="http://www.w3.org/2000/svg" viewBox="0 0 1920 780"><defs><style>.cls-1{fill:#d8d8d8;}.cls-2{opacity:0.86;}.cls-3{fill:#939393;}.cls-4{fill:#898989;}.cls-5{fill:#605f5f;}.cls-6{fill:#a5a5a5;}</style></defs><title>smog_6</title><g id="fond"><rect class="cls-1" x="2.78" width="1917.22" height="780"/></g><g id="nuage1"><g class="cls-2"><polygon class="cls-3" points="1178.59 80.09 1169.23 80.09 1159.86 80.09 1150.5 80.09 1141.13 80.09 1141.13 70.7 1141.13 61.3 1131.76 61.3 1131.76 51.91 1122.4 51.91 1113.03 51.91 1113.03 42.52 1103.67 42.52 1094.3 42.52 1094.3 33.13 1084.93 33.13 1075.57 33.13 1066.2 33.13 1056.84 33.13 1047.47 33.13 1047.47 42.52 1038.11 42.52 1028.74 42.52 1028.74 51.91 1019.37 51.91 1019.37 42.52 1010.01 42.52 1010.01 33.13 1000.64 33.13 991.28 33.13 981.91 33.13 981.91 23.74 972.54 23.74 963.18 23.74 953.81 23.74 944.45 23.74 944.45 33.13 935.08 33.13 925.72 33.13 925.72 42.52 916.35 42.52 916.35 51.91 916.35 61.3 906.98 61.3 906.98 70.7 906.98 80.09 906.98 89.48 897.62 89.48 888.25 89.48 878.89 89.48 869.52 89.48 860.15 89.48 850.79 89.48 841.42 89.48 841.42 98.87 832.06 98.87 832.06 108.26 822.69 108.26 822.69 117.65 822.69 127.04 813.33 127.04 813.33 136.44 803.96 136.44 794.59 136.44 785.23 136.44 775.86 136.44 766.5 136.44 757.13 136.44 747.76 136.44 738.4 136.44 738.4 145.83 729.03 145.83 729.03 155.22 719.67 155.22 710.3 155.22 710.3 145.83 700.93 145.83 691.57 145.83 691.57 136.44 682.2 136.44 682.2 127.04 672.84 127.04 663.47 127.04 654.11 127.04 654.11 136.44 644.74 136.44 644.74 145.83 635.37 145.83 635.37 136.44 626.01 136.44 616.64 136.44 607.28 136.44 597.91 136.44 588.54 136.44 588.54 145.83 579.18 145.83 569.81 145.83 569.81 155.22 560.45 155.22 560.45 164.61 551.08 164.61 551.08 174 551.08 183.39 551.08 192.78 541.72 192.78 541.72 202.17 532.35 202.17 532.35 192.78 522.98 192.78 522.98 183.39 513.62 183.39 513.62 174 504.25 174 494.89 174 485.52 174 476.15 174 466.79 174 457.42 174 457.42 183.39 448.06 183.39 448.06 192.78 438.69 192.78 429.32 192.78 419.96 192.78 410.59 192.78 410.59 202.17 401.23 202.17 401.23 211.56 401.23 220.96 391.86 220.96 391.86 230.35 382.5 230.35 373.13 230.35 363.76 230.35 354.4 230.35 345.03 230.35 345.03 239.74 335.67 239.74 335.67 249.13 335.67 258.52 335.67 267.91 335.67 277.3 345.03 277.3 345.03 267.91 354.4 267.91 363.76 267.91 363.76 258.52 373.13 258.52 382.5 258.52 382.5 249.13 391.86 249.13 401.23 249.13 401.23 239.74 410.59 239.74 410.59 230.35 419.96 230.35 419.96 220.96 429.32 220.96 438.69 220.96 438.69 211.56 448.06 211.56 457.42 211.56 457.42 202.17 466.79 202.17 476.15 202.17 485.52 202.17 494.89 202.17 494.89 211.56 504.25 211.56 513.62 211.56 513.62 220.96 522.98 220.96 522.98 230.35 532.35 230.35 532.35 239.74 532.35 249.13 541.72 249.13 551.08 249.13 551.08 239.74 560.45 239.74 569.81 239.74 569.81 230.35 579.18 230.35 579.18 220.96 588.54 220.96 597.91 220.96 597.91 211.56 607.28 211.56 607.28 202.17 616.64 202.17 626.01 202.17 635.37 202.17 635.37 192.78 644.74 192.78 654.11 192.78 663.47 192.78 663.47 183.39 672.84 183.39 682.2 183.39 682.2 192.78 691.57 192.78 700.93 192.78 700.93 202.17 710.3 202.17 719.67 202.17 729.03 202.17 729.03 211.56 738.4 211.56 747.76 211.56 747.76 202.17 757.13 202.17 757.13 192.78 766.5 192.78 766.5 183.39 775.86 183.39 775.86 174 785.23 174 785.23 164.61 794.59 164.61 803.96 164.61 813.33 164.61 813.33 155.22 822.69 155.22 832.06 155.22 841.42 155.22 850.79 155.22 860.15 155.22 869.52 155.22 869.52 164.61 878.89 164.61 878.89 174 888.25 174 888.25 183.39 897.62 183.39 906.98 183.39 906.98 192.78 916.35 192.78 916.35 183.39 916.35 174 925.72 174 925.72 164.61 925.72 155.22 935.08 155.22 935.08 145.83 935.08 136.44 944.45 136.44 953.81 136.44 953.81 127.04 963.18 127.04 972.54 127.04 981.91 127.04 991.28 127.04 1000.64 127.04 1010.01 127.04 1019.37 127.04 1028.74 127.04 1028.74 136.44 1038.11 136.44 1047.47 136.44 1047.47 145.83 1056.84 145.83 1066.2 145.83 1066.2 155.22 1075.57 155.22 1084.93 155.22 1084.93 164.61 1094.3 164.61 1103.67 164.61 1113.03 164.61 1113.03 155.22 1122.4 155.22 1122.4 145.83 1122.4 136.44 1131.76 136.44 1131.76 127.04 1141.13 127.04 1141.13 117.65 1150.5 117.65 1150.5 108.26 1159.86 108.26 1169.23 108.26 1169.23 98.87 1178.59 98.87 1187.96 98.87 1187.96 89.48 1197.33 89.48 1197.33 80.09 1187.96 80.09 1178.59 80.09"/><rect class="cls-3" x="1281.62" y="136.43" width="9.37" height="9.39"/><polygon class="cls-4" points="532.35 249.13 532.35 239.74 532.35 230.35 522.98 230.35 522.98 220.96 513.62 220.96 513.62 211.56 504.25 211.56 494.89 211.56 494.89 202.17 485.52 202.17 476.15 202.17 466.79 202.17 457.42 202.17 457.42 211.56 448.06 211.56 438.69 211.56 438.69 220.96 429.32 220.96 419.96 220.96 419.96 230.35 410.59 230.35 410.59 239.74 401.23 239.74 401.23 249.13 391.86 249.13 382.5 249.13 382.5 258.52 373.13 258.52 363.76 258.52 363.76 267.91 354.4 267.91 345.03 267.91 345.03 277.3 345.03 286.7 354.4 286.7 363.76 286.7 373.13 286.7 382.5 286.7 382.5 296.09 391.86 296.09 401.23 296.09 410.59 296.09 419.96 296.09 429.32 296.09 429.32 286.7 438.69 286.7 448.06 286.7 457.42 286.7 466.79 286.7 476.15 286.7 476.15 296.09 485.52 296.09 494.89 296.09 504.25 296.09 504.25 286.7 513.62 286.7 513.62 277.3 522.98 277.3 522.98 267.91 532.35 267.91 532.35 258.52 541.72 258.52 551.08 258.52 551.08 249.13 541.72 249.13 532.35 249.13"/><polygon class="cls-4" points="1319.08 249.13 1319.08 239.74 1319.08 230.35 1319.08 220.96 1309.71 220.96 1300.35 220.96 1300.35 211.56 1290.98 211.56 1290.98 202.17 1290.98 192.78 1300.35 192.78 1300.35 183.39 1300.35 174 1300.35 164.61 1290.98 164.61 1290.98 155.22 1290.98 145.83 1281.62 145.83 1281.62 136.44 1272.25 136.44 1262.89 136.44 1253.52 136.44 1244.15 136.44 1244.15 127.04 1234.79 127.04 1234.79 117.65 1234.79 108.26 1225.42 108.26 1225.42 98.87 1216.06 98.87 1216.06 89.48 1206.69 89.48 1197.33 89.48 1187.96 89.48 1187.96 98.87 1178.59 98.87 1169.23 98.87 1169.23 108.26 1159.86 108.26 1150.5 108.26 1150.5 117.65 1141.13 117.65 1141.13 127.04 1131.76 127.04 1131.76 136.44 1122.4 136.44 1122.4 145.83 1122.4 155.22 1113.03 155.22 1113.03 164.61 1103.67 164.61 1094.3 164.61 1084.93 164.61 1084.93 155.22 1075.57 155.22 1066.2 155.22 1066.2 145.83 1056.84 145.83 1047.47 145.83 1047.47 136.44 1038.11 136.44 1028.74 136.44 1028.74 127.04 1019.37 127.04 1010.01 127.04 1000.64 127.04 991.28 127.04 981.91 127.04 972.54 127.04 963.18 127.04 953.81 127.04 953.81 136.44 944.45 136.44 935.08 136.44 935.08 145.83 935.08 155.22 925.72 155.22 925.72 164.61 925.72 174 916.35 174 916.35 183.39 916.35 192.78 906.98 192.78 906.98 183.39 897.62 183.39 888.25 183.39 888.25 174 878.89 174 878.89 164.61 869.52 164.61 869.52 155.22 860.15 155.22 850.79 155.22 841.42 155.22 832.06 155.22 822.69 155.22 813.33 155.22 813.33 164.61 803.96 164.61 794.59 164.61 785.23 164.61 785.23 174 775.86 174 775.86 183.39 766.5 183.39 766.5 192.78 757.13 192.78 757.13 202.17 747.76 202.17 747.76 211.56 738.4 211.56 729.03 211.56 729.03 202.17 719.67 202.17 710.3 202.17 700.93 202.17 700.93 192.78 691.57 192.78 682.2 192.78 682.2 183.39 672.84 183.39 663.47 183.39 663.47 192.78 654.11 192.78 644.74 192.78 635.37 192.78 635.37 202.17 626.01 202.17 616.64 202.17 607.28 202.17 607.28 211.56 597.91 211.56 597.91 220.96 588.54 220.96 579.18 220.96 579.18 230.35 569.81 230.35 569.81 239.74 560.45 239.74 551.08 239.74 551.08 249.13 560.45 249.13 569.81 249.13 569.81 258.52 579.18 258.52 588.54 258.52 597.91 258.52 597.91 267.91 607.28 267.91 607.28 277.3 616.64 277.3 616.64 286.7 626.01 286.7 635.37 286.7 644.74 286.7 644.74 296.09 654.11 296.09 663.47 296.09 672.84 296.09 682.2 296.09 691.57 296.09 700.93 296.09 700.93 286.7 710.3 286.7 719.67 286.7 719.67 277.3 729.03 277.3 738.4 277.3 747.76 277.3 757.13 277.3 757.13 286.7 766.5 286.7 775.86 286.7 775.86 296.09 785.23 296.09 794.59 296.09 803.96 296.09 813.33 296.09 822.69 296.09 832.06 296.09 841.42 296.09 850.79 296.09 850.79 305.48 860.15 305.48 860.15 296.09 869.52 296.09 869.52 286.7 878.89 286.7 878.89 277.3 878.89 267.91 888.25 267.91 888.25 258.52 897.62 258.52 906.98 258.52 916.35 258.52 925.72 258.52 935.08 258.52 944.45 258.52 944.45 267.91 953.81 267.91 963.18 267.91 963.18 277.3 972.54 277.3 972.54 286.7 981.91 286.7 981.91 296.09 991.28 296.09 991.28 305.48 1000.64 305.48 1000.64 296.09 1010.01 296.09 1019.37 296.09 1028.74 296.09 1028.74 286.7 1038.11 286.7 1038.11 277.3 1047.47 277.3 1056.84 277.3 1056.84 267.91 1066.2 267.91 1075.57 267.91 1084.93 267.91 1094.3 267.91 1103.67 267.91 1113.03 267.91 1113.03 277.3 1122.4 277.3 1122.4 286.7 1131.76 286.7 1131.76 296.09 1141.13 296.09 1150.5 296.09 1159.86 296.09 1159.86 286.7 1169.23 286.7 1169.23 277.3 1178.59 277.3 1187.96 277.3 1197.33 277.3 1206.69 277.3 1216.06 277.3 1216.06 286.7 1225.42 286.7 1234.79 286.7 1244.15 286.7 1244.15 277.3 1253.52 277.3 1253.52 267.91 1262.89 267.91 1262.89 258.52 1272.25 258.52 1281.62 258.52 1290.98 258.52 1300.35 258.52 1300.35 267.91 1309.71 267.91 1319.08 267.91 1328.45 267.91 1328.45 258.52 1328.45 249.13 1319.08 249.13"/><polygon class="cls-5" points="1337.81 286.7 1337.81 277.3 1328.45 277.3 1328.45 267.91 1319.08 267.91 1309.71 267.91 1300.35 267.91 1300.35 258.52 1290.98 258.52 1281.62 258.52 1272.25 258.52 1262.89 258.52 1262.89 267.91 1253.52 267.91 1253.52 277.3 1244.15 277.3 1244.15 286.7 1234.79 286.7 1225.42 286.7 1216.06 286.7 1216.06 277.3 1206.69 277.3 1197.33 277.3 1187.96 277.3 1178.59 277.3 1169.23 277.3 1169.23 286.7 1159.86 286.7 1159.86 296.09 1150.5 296.09 1141.13 296.09 1131.76 296.09 1131.76 286.7 1122.4 286.7 1122.4 277.3 1113.03 277.3 1113.03 267.91 1103.67 267.91 1094.3 267.91 1084.93 267.91 1075.57 267.91 1066.2 267.91 1056.84 267.91 1056.84 277.3 1047.47 277.3 1038.11 277.3 1038.11 286.7 1028.74 286.7 1028.74 296.09 1019.37 296.09 1010.01 296.09 1000.64 296.09 1000.64 305.48 991.28 305.48 991.28 296.09 981.91 296.09 981.91 286.7 972.54 286.7 972.54 277.3 963.18 277.3 963.18 267.91 953.81 267.91 944.45 267.91 944.45 258.52 935.08 258.52 925.72 258.52 916.35 258.52 906.98 258.52 897.62 258.52 888.25 258.52 888.25 267.91 878.89 267.91 878.89 277.3 878.89 286.7 869.52 286.7 869.52 296.09 860.15 296.09 860.15 305.48 850.79 305.48 850.79 296.09 841.42 296.09 832.06 296.09 822.69 296.09 813.33 296.09 803.96 296.09 794.59 296.09 785.23 296.09 775.86 296.09 775.86 286.7 766.5 286.7 757.13 286.7 757.13 277.3 747.76 277.3 738.4 277.3 729.03 277.3 719.67 277.3 719.67 286.7 710.3 286.7 700.93 286.7 700.93 296.09 691.57 296.09 682.2 296.09 672.84 296.09 663.47 296.09 654.11 296.09 644.74 296.09 644.74 286.7 635.37 286.7 626.01 286.7 616.64 286.7 616.64 277.3 607.28 277.3 607.28 267.91 597.91 267.91 597.91 258.52 588.54 258.52 579.18 258.52 569.81 258.52 569.81 249.13 560.45 249.13 551.08 249.13 551.08 258.52 541.72 258.52 532.35 258.52 532.35 267.91 522.98 267.91 522.98 277.3 513.62 277.3 513.62 286.7 504.25 286.7 504.25 296.09 494.89 296.09 485.52 296.09 476.15 296.09 476.15 286.7 466.79 286.7 457.42 286.7 448.06 286.7 438.69 286.7 429.32 286.7 429.32 296.09 419.96 296.09 410.59 296.09 401.23 296.09 391.86 296.09 382.5 296.09 382.5 286.7 373.13 286.7 363.76 286.7 354.4 286.7 345.03 286.7 345.03 296.09 335.67 296.09 335.67 305.48 345.03 305.48 345.03 314.87 354.4 314.87 354.4 324.26 363.76 324.26 373.13 324.26 382.5 324.26 391.86 324.26 401.23 324.26 410.59 324.26 419.96 324.26 429.32 324.26 429.32 314.87 438.69 314.87 448.06 314.87 457.42 314.87 466.79 314.87 476.15 314.87 485.52 314.87 494.89 314.87 504.25 314.87 504.25 324.26 513.62 324.26 522.98 324.26 522.98 333.65 532.35 333.65 541.72 333.65 541.72 343.04 551.08 343.04 551.08 352.44 560.45 352.44 569.81 352.44 579.18 352.44 588.54 352.44 597.91 352.44 607.28 352.44 616.64 352.44 626.01 352.44 626.01 343.04 635.37 343.04 644.74 343.04 654.11 343.04 663.47 343.04 672.84 343.04 682.2 343.04 682.2 333.65 691.57 333.65 700.93 333.65 710.3 333.65 719.67 333.65 729.03 333.65 738.4 333.65 747.76 333.65 757.13 333.65 766.5 333.65 766.5 343.04 775.86 343.04 785.23 343.04 794.59 343.04 803.96 343.04 813.33 343.04 813.33 352.44 822.69 352.44 832.06 352.44 841.42 352.44 850.79 352.44 860.15 352.44 869.52 352.44 878.89 352.44 888.25 352.44 897.62 352.44 906.98 352.44 906.98 343.04 916.35 343.04 925.72 343.04 935.08 343.04 944.45 343.04 953.81 343.04 963.18 343.04 972.54 343.04 981.91 343.04 991.28 343.04 1000.64 343.04 1010.01 343.04 1019.37 343.04 1019.37 333.65 1028.74 333.65 1038.11 333.65 1047.47 333.65 1056.84 333.65 1066.2 333.65 1075.57 333.65 1084.93 333.65 1094.3 333.65 1103.67 333.65 1113.03 333.65 1122.4 333.65 1131.76 333.65 1141.13 333.65 1141.13 343.04 1150.5 343.04 1159.86 343.04 1169.23 343.04 1169.23 352.44 1178.59 352.44 1187.96 352.44 1197.33 352.44 1206.69 352.44 1216.06 352.44 1225.42 352.44 1234.79 352.44 1244.15 352.44 1253.52 352.44 1262.89 352.44 1262.89 343.04 1272.25 343.04 1281.62 343.04 1290.98 343.04 1290.98 333.65 1300.35 333.65 1309.71 333.65 1319.08 333.65 1319.08 324.26 1328.45 324.26 1337.81 324.26 1347.18 324.26 1347.18 314.87 1347.18 305.48 1347.18 296.09 1347.18 286.7 1337.81 286.7"/></g></g><g id="nuage2"><g class="cls-2"><polygon class="cls-6" points="222.16 176.7 222.16 167.3 222.16 157.91 212.8 157.91 203.43 157.91 194.06 157.91 194.06 148.52 194.06 139.13 184.7 139.13 184.7 129.74 175.33 129.74 175.33 120.35 165.97 120.35 156.6 120.35 156.6 110.96 147.24 110.96 137.87 110.96 128.5 110.96 119.14 110.96 119.14 101.56 109.77 101.56 109.77 92.17 100.41 92.17 91.04 92.17 81.67 92.17 72.31 92.17 62.94 92.17 62.94 82.78 53.58 82.78 53.58 73.39 44.21 73.39 34.84 73.39 25.48 73.39 25.48 64 16.11 64 6.75 64 6.75 73.39 -2.62 73.39 -11.98 73.39 -11.98 82.78 -21.35 82.78 -30.72 82.78 -40.08 82.78 -49.45 82.78 -58.81 82.78 -68.18 82.78 -77.55 82.78 -86.91 82.78 -86.91 92.17 -96.28 92.17 -105.64 92.17 -105.64 101.56 -105.64 110.96 -105.64 120.35 -115.01 120.35 -115.01 129.74 -124.38 129.74 -124.38 139.13 -133.74 139.13 -133.74 148.52 -133.74 157.91 -133.74 167.3 -143.11 167.3 -143.11 176.7 -143.11 186.09 -133.74 186.09 -133.74 176.7 -124.38 176.7 -124.38 167.3 -115.01 167.3 -115.01 157.91 -105.64 157.91 -105.64 148.52 -96.28 148.52 -96.28 139.13 -86.91 139.13 -77.55 139.13 -68.18 139.13 -58.81 139.13 -49.45 139.13 -49.45 148.52 -40.08 148.52 -40.08 157.91 -30.72 157.91 -21.35 157.91 -21.35 148.52 -11.98 148.52 -11.98 139.13 -2.62 139.13 -2.62 129.74 6.75 129.74 6.75 120.35 16.11 120.35 16.11 110.96 25.48 110.96 25.48 101.56 34.84 101.56 44.21 101.56 53.58 101.56 62.94 101.56 62.94 110.96 72.31 110.96 81.67 110.96 81.67 120.35 91.04 120.35 100.41 120.35 100.41 129.74 100.41 139.13 100.41 148.52 100.41 157.91 109.77 157.91 119.14 157.91 128.5 157.91 128.5 148.52 137.87 148.52 137.87 139.13 147.24 139.13 156.6 139.13 165.97 139.13 165.97 148.52 165.97 157.91 175.33 157.91 175.33 167.3 184.7 167.3 194.06 167.3 203.43 167.3 203.43 176.7 212.8 176.7 212.8 186.09 222.16 186.09 222.16 195.48 231.53 195.48 231.53 186.09 231.53 176.7 222.16 176.7"/><polygon class="cls-4" points="81.67 120.35 81.67 110.96 72.31 110.96 62.94 110.96 62.94 101.56 53.58 101.56 44.21 101.56 34.84 101.56 25.48 101.56 25.48 110.96 16.11 110.96 16.11 120.35 6.75 120.35 6.75 129.74 -2.62 129.74 -2.62 139.13 -11.98 139.13 -11.98 148.52 -21.35 148.52 -21.35 157.91 -30.72 157.91 -40.08 157.91 -40.08 148.52 -49.45 148.52 -49.45 139.13 -58.81 139.13 -68.18 139.13 -77.55 139.13 -86.91 139.13 -96.28 139.13 -96.28 148.52 -105.64 148.52 -105.64 157.91 -115.01 157.91 -115.01 167.3 -124.38 167.3 -124.38 176.7 -133.74 176.7 -133.74 186.09 -143.11 186.09 -143.11 195.48 -133.74 195.48 -133.74 204.87 -124.38 204.87 -124.38 214.26 -115.01 214.26 -105.64 214.26 -96.28 214.26 -96.28 204.87 -86.91 204.87 -77.55 204.87 -77.55 195.48 -68.18 195.48 -58.81 195.48 -49.45 195.48 -40.08 195.48 -40.08 204.87 -30.72 204.87 -30.72 195.48 -30.72 186.09 -21.35 186.09 -21.35 176.7 -11.98 176.7 -2.62 176.7 6.75 176.7 16.11 176.7 16.11 186.09 25.48 186.09 34.84 186.09 34.84 195.48 44.21 195.48 53.58 195.48 62.94 195.48 62.94 186.09 72.31 186.09 72.31 176.7 81.67 176.7 81.67 167.3 91.04 167.3 100.41 167.3 100.41 157.91 100.41 148.52 100.41 139.13 100.41 129.74 100.41 120.35 91.04 120.35 81.67 120.35"/><polygon class="cls-4" points="165.97 157.91 165.97 148.52 165.97 139.13 156.6 139.13 147.24 139.13 137.87 139.13 137.87 148.52 128.5 148.52 128.5 157.91 128.5 167.3 137.87 167.3 137.87 176.7 147.24 176.7 147.24 186.09 156.6 186.09 156.6 195.48 165.97 195.48 165.97 186.09 165.97 176.7 175.33 176.7 175.33 167.3 175.33 157.91 165.97 157.91"/><polygon class="cls-5" points="222.16 195.48 222.16 186.09 212.8 186.09 212.8 176.7 203.43 176.7 203.43 167.3 194.06 167.3 184.7 167.3 175.33 167.3 175.33 176.7 165.97 176.7 165.97 186.09 165.97 195.48 156.6 195.48 156.6 186.09 147.24 186.09 147.24 176.7 137.87 176.7 137.87 167.3 128.5 167.3 128.5 157.91 119.14 157.91 109.77 157.91 100.41 157.91 100.41 167.3 91.04 167.3 81.67 167.3 81.67 176.7 72.31 176.7 72.31 186.09 62.94 186.09 62.94 195.48 53.58 195.48 44.21 195.48 34.84 195.48 34.84 186.09 25.48 186.09 16.11 186.09 16.11 176.7 6.75 176.7 -2.62 176.7 -11.98 176.7 -21.35 176.7 -21.35 186.09 -30.72 186.09 -30.72 195.48 -30.72 204.87 -40.08 204.87 -40.08 195.48 -49.45 195.48 -58.81 195.48 -68.18 195.48 -77.55 195.48 -77.55 204.87 -86.91 204.87 -96.28 204.87 -96.28 214.26 -105.64 214.26 -115.01 214.26 -124.38 214.26 -124.38 204.87 -133.74 204.87 -133.74 214.26 -133.74 223.65 -124.38 223.65 -124.38 233.04 -115.01 233.04 -115.01 242.44 -105.64 242.44 -96.28 242.44 -86.91 242.44 -77.55 242.44 -68.18 242.44 -58.81 242.44 -58.81 251.83 -49.45 251.83 -40.08 251.83 -30.72 251.83 -21.35 251.83 -11.98 251.83 -11.98 242.44 -2.62 242.44 6.75 242.44 16.11 242.44 25.48 242.44 25.48 233.04 34.84 233.04 34.84 242.44 44.21 242.44 53.58 242.44 62.94 242.44 72.31 242.44 72.31 251.83 81.67 251.83 91.04 251.83 100.41 251.83 109.77 251.83 119.14 251.83 128.5 251.83 137.87 251.83 137.87 242.44 147.24 242.44 156.6 242.44 165.97 242.44 175.33 242.44 184.7 242.44 194.06 242.44 203.43 242.44 212.8 242.44 212.8 233.04 222.16 233.04 222.16 223.65 231.53 223.65 231.53 214.26 231.53 204.87 231.53 195.48 222.16 195.48"/></g></g><g id="nuage3"><g class="cls-2"><rect class="cls-6" x="77.86" y="465.13" width="9.37" height="9.39"/><polygon class="cls-6" points="59.13 474.52 49.76 474.52 40.4 474.52 31.03 474.52 21.67 474.52 12.3 474.52 12.3 483.91 2.94 483.91 -6.43 483.91 -6.43 493.3 -15.8 493.3 -15.8 502.7 -25.16 502.7 -34.53 502.7 -43.9 502.7 -43.9 512.09 -53.26 512.09 -62.63 512.09 -71.99 512.09 -71.99 521.48 -81.36 521.48 -81.36 530.87 -90.72 530.87 -90.72 540.26 -90.72 549.65 -90.72 559.04 -90.72 568.43 -100.09 568.43 -100.09 577.83 -109.46 577.83 -118.82 577.83 -128.19 577.83 -128.19 587.22 -137.55 587.22 -146.92 587.22 -156.28 587.22 -156.28 596.61 -165.65 596.61 -175.02 596.61 -184.38 596.61 -193.75 596.61 -193.75 606 -184.38 606 -175.02 606 -165.65 606 -156.28 606 -146.92 606 -137.55 606 -128.19 606 -118.82 606 -109.46 606 -100.09 606 -90.72 606 -90.72 596.61 -81.36 596.61 -81.36 587.22 -71.99 587.22 -71.99 577.83 -71.99 568.43 -62.63 568.43 -62.63 559.04 -62.63 549.65 -53.26 549.65 -53.26 540.26 -43.9 540.26 -34.53 540.26 -25.16 540.26 -15.8 540.26 -6.43 540.26 -6.43 549.65 2.94 549.65 12.3 549.65 21.67 549.65 21.67 559.04 31.03 559.04 40.4 559.04 49.76 559.04 49.76 549.65 49.76 540.26 49.76 530.87 59.13 530.87 59.13 521.48 59.13 512.09 59.13 502.7 59.13 493.3 68.5 493.3 68.5 483.91 77.86 483.91 77.86 474.52 68.5 474.52 59.13 474.52"/><polygon class="cls-6" points="1201.76 624.78 1192.4 624.78 1192.4 615.39 1183.03 615.39 1173.67 615.39 1173.67 606 1164.3 606 1154.93 606 1145.57 606 1136.2 606 1136.2 596.61 1126.84 596.61 1117.47 596.61 1108.11 596.61 1108.11 587.22 1098.74 587.22 1098.74 577.83 1089.37 577.83 1089.37 568.43 1080.01 568.43 1070.64 568.43 1061.28 568.43 1051.91 568.43 1051.91 577.83 1042.54 577.83 1042.54 568.43 1042.54 559.04 1033.18 559.04 1033.18 549.65 1033.18 540.26 1023.81 540.26 1014.45 540.26 1014.45 530.87 1005.08 530.87 1005.08 521.48 1005.08 512.09 995.72 512.09 986.35 512.09 976.98 512.09 967.62 512.09 958.25 512.09 958.25 502.7 948.89 502.7 939.52 502.7 930.15 502.7 920.79 502.7 911.42 502.7 902.06 502.7 902.06 512.09 892.69 512.09 883.33 512.09 873.96 512.09 864.59 512.09 855.23 512.09 855.23 521.48 845.86 521.48 836.5 521.48 836.5 512.09 827.13 512.09 827.13 502.7 817.76 502.7 808.4 502.7 799.03 502.7 799.03 493.3 789.67 493.3 780.3 493.3 770.93 493.3 761.57 493.3 752.2 493.3 742.84 493.3 742.84 483.91 742.84 474.52 742.84 465.13 733.47 465.13 733.47 455.74 724.11 455.74 714.74 455.74 714.74 446.35 705.37 446.35 696.01 446.35 696.01 436.96 686.64 436.96 677.28 436.96 667.91 436.96 658.54 436.96 658.54 427.56 649.18 427.56 649.18 418.17 639.81 418.17 630.45 418.17 621.08 418.17 621.08 408.78 611.72 408.78 602.35 408.78 592.98 408.78 583.62 408.78 574.25 408.78 574.25 399.39 564.89 399.39 564.89 390 555.52 390 555.52 380.61 546.15 380.61 546.15 371.22 536.79 371.22 527.42 371.22 527.42 361.83 518.06 361.83 508.69 361.83 499.32 361.83 489.96 361.83 480.59 361.83 471.23 361.83 471.23 371.22 461.86 371.22 452.5 371.22 443.13 371.22 443.13 380.61 433.76 380.61 433.76 371.22 424.4 371.22 424.4 361.83 415.03 361.83 415.03 352.44 405.67 352.44 396.3 352.44 386.94 352.44 377.57 352.44 368.2 352.44 358.84 352.44 349.47 352.44 340.11 352.44 330.74 352.44 321.37 352.44 312.01 352.44 312.01 361.83 302.64 361.83 293.28 361.83 283.91 361.83 283.91 371.22 274.54 371.22 274.54 380.61 265.18 380.61 265.18 390 255.81 390 255.81 399.39 246.45 399.39 246.45 408.78 237.08 408.78 227.72 408.78 218.35 408.78 218.35 418.17 208.98 418.17 199.62 418.17 190.25 418.17 180.89 418.17 180.89 408.78 171.52 408.78 162.15 408.78 152.79 408.78 143.42 408.78 134.06 408.78 134.06 418.17 124.69 418.17 115.33 418.17 105.96 418.17 96.59 418.17 96.59 427.56 96.59 436.96 87.23 436.96 87.23 446.35 87.23 455.74 87.23 465.13 96.59 465.13 96.59 455.74 105.96 455.74 115.33 455.74 124.69 455.74 134.06 455.74 143.42 455.74 152.79 455.74 162.15 455.74 171.52 455.74 180.89 455.74 190.25 455.74 199.62 455.74 208.98 455.74 208.98 465.13 218.35 465.13 227.72 465.13 237.08 465.13 237.08 474.52 246.45 474.52 255.81 474.52 255.81 483.91 265.18 483.91 265.18 474.52 265.18 465.13 274.54 465.13 274.54 455.74 274.54 446.35 283.91 446.35 283.91 436.96 293.28 436.96 293.28 427.56 302.64 427.56 302.64 418.17 312.01 418.17 321.37 418.17 321.37 408.78 330.74 408.78 340.11 408.78 340.11 399.39 349.47 399.39 358.84 399.39 368.2 399.39 377.57 399.39 377.57 408.78 386.94 408.78 396.3 408.78 405.67 408.78 415.03 408.78 424.4 408.78 433.76 408.78 433.76 418.17 443.13 418.17 443.13 427.56 452.5 427.56 452.5 436.96 461.86 436.96 461.86 446.35 461.86 455.74 471.23 455.74 471.23 465.13 480.59 465.13 480.59 474.52 489.96 474.52 489.96 483.91 489.96 493.3 499.32 493.3 508.69 493.3 518.06 493.3 518.06 483.91 527.42 483.91 536.79 483.91 536.79 474.52 546.15 474.52 555.52 474.52 564.89 474.52 564.89 465.13 574.25 465.13 583.62 465.13 592.98 465.13 602.35 465.13 611.72 465.13 611.72 474.52 621.08 474.52 630.45 474.52 639.81 474.52 639.81 483.91 649.18 483.91 649.18 493.3 658.54 493.3 667.91 493.3 667.91 502.7 677.28 502.7 677.28 512.09 686.64 512.09 686.64 521.48 686.64 530.87 686.64 540.26 696.01 540.26 696.01 549.65 705.37 549.65 714.74 549.65 724.11 549.65 724.11 559.04 733.47 559.04 742.84 559.04 752.2 559.04 761.57 559.04 761.57 549.65 770.93 549.65 780.3 549.65 789.67 549.65 799.03 549.65 799.03 559.04 808.4 559.04 817.76 559.04 827.13 559.04 827.13 568.43 836.5 568.43 845.86 568.43 845.86 559.04 855.23 559.04 855.23 549.65 864.59 549.65 864.59 540.26 873.96 540.26 873.96 530.87 883.33 530.87 892.69 530.87 902.06 530.87 911.42 530.87 920.79 530.87 920.79 540.26 930.15 540.26 939.52 540.26 939.52 549.65 948.89 549.65 958.25 549.65 958.25 559.04 967.62 559.04 976.98 559.04 976.98 568.43 976.98 577.83 986.35 577.83 986.35 587.22 995.72 587.22 995.72 596.61 1005.08 596.61 1005.08 606 1014.45 606 1023.81 606 1033.18 606 1042.54 606 1051.91 606 1061.28 606 1061.28 596.61 1070.64 596.61 1080.01 596.61 1089.37 596.61 1089.37 606 1098.74 606 1108.11 606 1117.47 606 1117.47 615.39 1126.84 615.39 1136.2 615.39 1136.2 624.78 1145.57 624.78 1145.57 634.17 1154.93 634.17 1164.3 634.17 1173.67 634.17 1183.03 634.17 1192.4 634.17 1201.76 634.17 1211.13 634.17 1220.49 634.17 1220.49 624.78 1211.13 624.78 1201.76 624.78"/><polygon class="cls-6" points="1267.33 643.57 1267.33 652.96 1276.69 652.96 1286.06 652.96 1286.06 643.57 1276.69 643.57 1267.33 643.57"/><polygon class="cls-6" points="1389.08 643.57 1379.71 643.57 1370.35 643.57 1360.98 643.57 1351.62 643.57 1342.25 643.57 1342.25 652.96 1351.62 652.96 1360.98 652.96 1370.35 652.96 1379.71 652.96 1389.08 652.96 1398.45 652.96 1398.45 643.57 1389.08 643.57"/><polygon class="cls-6" points="1323.52 652.96 1314.15 652.96 1304.79 652.96 1295.42 652.96 1295.42 662.35 1304.79 662.35 1314.15 662.35 1323.52 662.35 1332.89 662.35 1342.25 662.35 1342.25 652.96 1332.89 652.96 1323.52 652.96"/><polygon class="cls-6" points="1398.45 652.96 1398.45 662.35 1407.81 662.35 1417.18 662.35 1417.18 652.96 1407.81 652.96 1398.45 652.96"/><polygon class="cls-6" points="1510.84 662.35 1501.47 662.35 1492.11 662.35 1492.11 652.96 1482.74 652.96 1473.37 652.96 1464.01 652.96 1454.64 652.96 1445.28 652.96 1445.28 662.35 1454.64 662.35 1464.01 662.35 1464.01 671.74 1473.37 671.74 1473.37 681.13 1482.74 681.13 1492.11 681.13 1501.47 681.13 1510.84 681.13 1520.2 681.13 1520.2 671.74 1520.2 662.35 1510.84 662.35"/><polygon class="cls-4" points="724.11 549.65 714.74 549.65 705.37 549.65 696.01 549.65 696.01 540.26 686.64 540.26 686.64 530.87 686.64 521.48 686.64 512.09 677.28 512.09 677.28 502.7 667.91 502.7 667.91 493.3 658.54 493.3 649.18 493.3 649.18 483.91 639.81 483.91 639.81 474.52 630.45 474.52 621.08 474.52 611.72 474.52 611.72 465.13 602.35 465.13 592.98 465.13 583.62 465.13 574.25 465.13 564.89 465.13 564.89 474.52 555.52 474.52 546.15 474.52 536.79 474.52 536.79 483.91 527.42 483.91 518.06 483.91 518.06 493.3 508.69 493.3 499.32 493.3 489.96 493.3 489.96 483.91 489.96 474.52 480.59 474.52 480.59 465.13 471.23 465.13 471.23 455.74 461.86 455.74 461.86 446.35 461.86 436.96 452.5 436.96 452.5 427.56 443.13 427.56 443.13 418.17 433.76 418.17 433.76 408.78 424.4 408.78 415.03 408.78 405.67 408.78 396.3 408.78 386.94 408.78 377.57 408.78 377.57 399.39 368.2 399.39 358.84 399.39 349.47 399.39 340.11 399.39 340.11 408.78 330.74 408.78 321.37 408.78 321.37 418.17 312.01 418.17 302.64 418.17 302.64 427.56 293.28 427.56 293.28 436.96 283.91 436.96 283.91 446.35 274.54 446.35 274.54 455.74 274.54 465.13 265.18 465.13 265.18 474.52 265.18 483.91 255.81 483.91 255.81 474.52 246.45 474.52 237.08 474.52 237.08 465.13 227.72 465.13 218.35 465.13 208.98 465.13 208.98 455.74 199.62 455.74 190.25 455.74 180.89 455.74 171.52 455.74 162.15 455.74 152.79 455.74 143.42 455.74 134.06 455.74 124.69 455.74 115.33 455.74 105.96 455.74 96.59 455.74 96.59 465.13 87.23 465.13 87.23 474.52 77.86 474.52 77.86 483.91 68.5 483.91 68.5 493.3 59.13 493.3 59.13 502.7 59.13 512.09 59.13 521.48 59.13 530.87 49.76 530.87 49.76 540.26 49.76 549.65 49.76 559.04 40.4 559.04 31.03 559.04 21.67 559.04 21.67 549.65 12.3 549.65 2.94 549.65 -6.43 549.65 -6.43 540.26 -15.8 540.26 -25.16 540.26 -34.53 540.26 -43.9 540.26 -53.26 540.26 -53.26 549.65 -62.63 549.65 -62.63 559.04 -62.63 568.43 -71.99 568.43 -71.99 577.83 -71.99 587.22 -81.36 587.22 -81.36 596.61 -90.72 596.61 -90.72 606 -100.09 606 -109.46 606 -118.82 606 -128.19 606 -137.55 606 -146.92 606 -156.28 606 -165.65 606 -175.02 606 -184.38 606 -193.75 606 -193.75 615.39 -203.11 615.39 -203.11 624.78 -212.48 624.78 -212.48 634.17 -221.85 634.17 -231.21 634.17 -231.21 643.57 -240.58 643.57 -249.94 643.57 -249.94 652.96 -259.31 652.96 -259.31 662.35 -268.68 662.35 -268.68 671.74 -268.68 681.13 -259.31 681.13 -259.31 671.74 -249.94 671.74 -240.58 671.74 -240.58 662.35 -231.21 662.35 -221.85 662.35 -221.85 652.96 -212.48 652.96 -203.11 652.96 -193.75 652.96 -184.38 652.96 -175.02 652.96 -165.65 652.96 -156.28 652.96 -146.92 652.96 -137.55 652.96 -137.55 643.57 -128.19 643.57 -118.82 643.57 -109.46 643.57 -109.46 634.17 -100.09 634.17 -100.09 624.78 -90.72 624.78 -81.36 624.78 -81.36 615.39 -71.99 615.39 -71.99 606 -62.63 606 -53.26 606 -53.26 596.61 -43.9 596.61 -43.9 587.22 -34.53 587.22 -25.16 587.22 -15.8 587.22 -6.43 587.22 -6.43 577.83 2.94 577.83 12.3 577.83 21.67 577.83 31.03 577.83 40.4 577.83 49.76 577.83 49.76 587.22 59.13 587.22 68.5 587.22 77.86 587.22 87.23 587.22 87.23 596.61 96.59 596.61 105.96 596.61 115.33 596.61 115.33 606 124.69 606 124.69 596.61 134.06 596.61 134.06 587.22 143.42 587.22 143.42 577.83 143.42 568.43 152.79 568.43 152.79 559.04 152.79 549.65 162.15 549.65 162.15 540.26 171.52 540.26 171.52 530.87 180.89 530.87 180.89 521.48 190.25 521.48 199.62 521.48 208.98 521.48 218.35 521.48 227.72 521.48 237.08 521.48 246.45 521.48 255.81 521.48 265.18 521.48 274.54 521.48 274.54 530.87 283.91 530.87 283.91 540.26 293.28 540.26 302.64 540.26 302.64 549.65 312.01 549.65 321.37 549.65 321.37 559.04 330.74 559.04 330.74 549.65 340.11 549.65 349.47 549.65 349.47 540.26 358.84 540.26 368.2 540.26 377.57 540.26 386.94 540.26 396.3 540.26 396.3 549.65 405.67 549.65 415.03 549.65 415.03 559.04 415.03 568.43 424.4 568.43 433.76 568.43 443.13 568.43 443.13 559.04 452.5 559.04 452.5 549.65 461.86 549.65 471.23 549.65 480.59 549.65 489.96 549.65 499.32 549.65 499.32 559.04 508.69 559.04 518.06 559.04 527.42 559.04 527.42 568.43 536.79 568.43 546.15 568.43 546.15 577.83 555.52 577.83 555.52 587.22 555.52 596.61 564.89 596.61 564.89 606 564.89 615.39 574.25 615.39 574.25 606 583.62 606 592.98 606 592.98 596.61 602.35 596.61 611.72 596.61 621.08 596.61 621.08 587.22 630.45 587.22 639.81 587.22 649.18 587.22 649.18 577.83 658.54 577.83 667.91 577.83 677.28 577.83 677.28 568.43 686.64 568.43 696.01 568.43 696.01 577.83 696.01 587.22 705.37 587.22 714.74 587.22 714.74 577.83 724.11 577.83 724.11 568.43 733.47 568.43 733.47 559.04 724.11 559.04 724.11 549.65"/><polygon class="cls-4" points="976.98 559.04 967.62 559.04 958.25 559.04 958.25 549.65 948.89 549.65 939.52 549.65 939.52 540.26 930.15 540.26 920.79 540.26 920.79 530.87 911.42 530.87 902.06 530.87 892.69 530.87 883.33 530.87 873.96 530.87 873.96 540.26 864.59 540.26 864.59 549.65 855.23 549.65 855.23 559.04 845.86 559.04 845.86 568.43 836.5 568.43 827.13 568.43 827.13 559.04 817.76 559.04 808.4 559.04 799.03 559.04 799.03 549.65 789.67 549.65 780.3 549.65 770.93 549.65 761.57 549.65 761.57 559.04 770.93 559.04 780.3 559.04 780.3 568.43 789.67 568.43 789.67 577.83 799.03 577.83 799.03 587.22 808.4 587.22 808.4 596.61 808.4 606 817.76 606 817.76 615.39 827.13 615.39 827.13 624.78 836.5 624.78 836.5 634.17 845.86 634.17 855.23 634.17 864.59 634.17 864.59 624.78 873.96 624.78 883.33 624.78 883.33 615.39 892.69 615.39 902.06 615.39 902.06 606 911.42 606 911.42 596.61 920.79 596.61 930.15 596.61 930.15 587.22 939.52 587.22 939.52 577.83 948.89 577.83 958.25 577.83 967.62 577.83 976.98 577.83 976.98 568.43 976.98 559.04"/><rect class="cls-4" x="976.98" y="577.83" width="9.37" height="9.39"/><rect class="cls-4" x="995.72" y="596.61" width="9.37" height="9.39"/><polygon class="cls-4" points="1136.2 615.39 1126.84 615.39 1117.47 615.39 1117.47 606 1108.11 606 1098.74 606 1089.37 606 1089.37 596.61 1080.01 596.61 1070.64 596.61 1061.28 596.61 1061.28 606 1051.91 606 1042.54 606 1033.18 606 1023.81 606 1014.45 606 1005.08 606 1005.08 615.39 1014.45 615.39 1014.45 624.78 1023.81 624.78 1033.18 624.78 1042.54 624.78 1051.91 624.78 1051.91 615.39 1061.28 615.39 1070.64 615.39 1080.01 615.39 1089.37 615.39 1098.74 615.39 1108.11 615.39 1108.11 624.78 1117.47 624.78 1126.84 624.78 1126.84 634.17 1126.84 643.57 1136.2 643.57 1145.57 643.57 1145.57 634.17 1145.57 624.78 1136.2 624.78 1136.2 615.39"/><rect class="cls-4" x="1248.59" y="634.17" width="9.37" height="9.39"/><rect class="cls-4" x="1257.96" y="643.57" width="9.37" height="9.39"/><polygon class="cls-4" points="1379.71 652.96 1370.35 652.96 1360.98 652.96 1351.62 652.96 1342.25 652.96 1342.25 662.35 1332.89 662.35 1323.52 662.35 1314.15 662.35 1304.79 662.35 1295.42 662.35 1295.42 652.96 1286.06 652.96 1276.69 652.96 1267.33 652.96 1267.33 662.35 1276.69 662.35 1276.69 671.74 1286.06 671.74 1295.42 671.74 1304.79 671.74 1314.15 671.74 1314.15 681.13 1323.52 681.13 1323.52 671.74 1332.89 671.74 1342.25 671.74 1351.62 671.74 1360.98 671.74 1360.98 662.35 1370.35 662.35 1379.71 662.35 1389.08 662.35 1398.45 662.35 1398.45 652.96 1389.08 652.96 1379.71 652.96"/><polygon class="cls-4" points="1473.37 681.13 1473.37 671.74 1464.01 671.74 1464.01 662.35 1454.64 662.35 1445.28 662.35 1435.91 662.35 1426.54 662.35 1417.18 662.35 1407.81 662.35 1407.81 671.74 1417.18 671.74 1426.54 671.74 1435.91 671.74 1445.28 671.74 1454.64 671.74 1454.64 681.13 1464.01 681.13 1464.01 690.52 1473.37 690.52 1482.74 690.52 1482.74 681.13 1473.37 681.13"/><polygon class="cls-5" points="1454.64 681.13 1454.64 671.74 1445.28 671.74 1435.91 671.74 1426.54 671.74 1417.18 671.74 1407.81 671.74 1407.81 662.35 1398.45 662.35 1389.08 662.35 1379.71 662.35 1370.35 662.35 1360.98 662.35 1360.98 671.74 1351.62 671.74 1342.25 671.74 1332.89 671.74 1323.52 671.74 1323.52 681.13 1314.15 681.13 1314.15 671.74 1304.79 671.74 1295.42 671.74 1286.06 671.74 1276.69 671.74 1276.69 662.35 1267.33 662.35 1267.33 652.96 1257.96 652.96 1257.96 643.57 1248.59 643.57 1248.59 634.17 1239.23 634.17 1229.86 634.17 1220.49 634.17 1211.13 634.17 1201.76 634.17 1192.4 634.17 1183.03 634.17 1173.67 634.17 1164.3 634.17 1154.93 634.17 1145.57 634.17 1145.57 643.57 1136.2 643.57 1126.84 643.57 1126.84 634.17 1126.84 624.78 1117.47 624.78 1108.11 624.78 1108.11 615.39 1098.74 615.39 1089.37 615.39 1080.01 615.39 1070.64 615.39 1061.28 615.39 1051.91 615.39 1051.91 624.78 1042.54 624.78 1033.18 624.78 1023.81 624.78 1014.45 624.78 1014.45 615.39 1005.08 615.39 1005.08 606 995.72 606 995.72 596.61 995.72 587.22 986.35 587.22 976.98 587.22 976.98 577.83 967.62 577.83 958.25 577.83 948.89 577.83 939.52 577.83 939.52 587.22 930.15 587.22 930.15 596.61 920.79 596.61 911.42 596.61 911.42 606 902.06 606 902.06 615.39 892.69 615.39 883.33 615.39 883.33 624.78 873.96 624.78 864.59 624.78 864.59 634.17 855.23 634.17 845.86 634.17 836.5 634.17 836.5 624.78 827.13 624.78 827.13 615.39 817.76 615.39 817.76 606 808.4 606 808.4 596.61 808.4 587.22 799.03 587.22 799.03 577.83 789.67 577.83 789.67 568.43 780.3 568.43 780.3 559.04 770.93 559.04 761.57 559.04 752.2 559.04 742.84 559.04 733.47 559.04 733.47 568.43 724.11 568.43 724.11 577.83 714.74 577.83 714.74 587.22 705.37 587.22 696.01 587.22 696.01 577.83 696.01 568.43 686.64 568.43 677.28 568.43 677.28 577.83 667.91 577.83 658.54 577.83 649.18 577.83 649.18 587.22 639.81 587.22 630.45 587.22 621.08 587.22 621.08 596.61 611.72 596.61 602.35 596.61 592.98 596.61 592.98 606 583.62 606 574.25 606 574.25 615.39 564.89 615.39 564.89 606 564.89 596.61 555.52 596.61 555.52 587.22 555.52 577.83 546.15 577.83 546.15 568.43 536.79 568.43 527.42 568.43 527.42 559.04 518.06 559.04 508.69 559.04 499.32 559.04 499.32 549.65 489.96 549.65 480.59 549.65 471.23 549.65 461.86 549.65 452.5 549.65 452.5 559.04 443.13 559.04 443.13 568.43 433.76 568.43 424.4 568.43 415.03 568.43 415.03 559.04 415.03 549.65 405.67 549.65 396.3 549.65 396.3 540.26 386.94 540.26 377.57 540.26 368.2 540.26 358.84 540.26 349.47 540.26 349.47 549.65 340.11 549.65 330.74 549.65 330.74 559.04 321.37 559.04 321.37 549.65 312.01 549.65 302.64 549.65 302.64 540.26 293.28 540.26 283.91 540.26 283.91 530.87 274.54 530.87 274.54 521.48 265.18 521.48 255.81 521.48 246.45 521.48 237.08 521.48 227.72 521.48 218.35 521.48 208.98 521.48 199.62 521.48 190.25 521.48 180.89 521.48 180.89 530.87 171.52 530.87 171.52 540.26 162.15 540.26 162.15 549.65 152.79 549.65 152.79 559.04 152.79 568.43 143.42 568.43 143.42 577.83 143.42 587.22 134.06 587.22 134.06 596.61 124.69 596.61 124.69 606 115.33 606 115.33 596.61 105.96 596.61 96.59 596.61 87.23 596.61 87.23 587.22 77.86 587.22 68.5 587.22 59.13 587.22 49.76 587.22 49.76 577.83 40.4 577.83 31.03 577.83 21.67 577.83 12.3 577.83 2.94 577.83 -6.43 577.83 -6.43 587.22 -15.8 587.22 -25.16 587.22 -34.53 587.22 -43.9 587.22 -43.9 596.61 -53.26 596.61 -53.26 606 -62.63 606 -71.99 606 -71.99 615.39 -81.36 615.39 -81.36 624.78 -90.72 624.78 -100.09 624.78 -100.09 634.17 -109.46 634.17 -109.46 643.57 -118.82 643.57 -128.19 643.57 -137.55 643.57 -137.55 652.96 -146.92 652.96 -156.28 652.96 -165.65 652.96 -175.02 652.96 -184.38 652.96 -193.75 652.96 -203.11 652.96 -212.48 652.96 -221.85 652.96 -221.85 662.35 -231.21 662.35 -240.58 662.35 -240.58 671.74 -249.94 671.74 -259.31 671.74 -259.31 681.13 -259.31 690.52 -249.94 690.52 -240.58 690.52 -231.21 690.52 -221.85 690.52 -212.48 690.52 -203.11 690.52 -193.75 690.52 -184.38 690.52 -184.38 681.13 -175.02 681.13 -175.02 690.52 -165.65 690.52 -156.28 690.52 -146.92 690.52 -137.55 690.52 -128.19 690.52 -128.19 681.13 -118.82 681.13 -109.46 681.13 -109.46 671.74 -100.09 671.74 -90.72 671.74 -90.72 662.35 -81.36 662.35 -71.99 662.35 -71.99 652.96 -62.63 652.96 -53.26 652.96 -43.9 652.96 -34.53 652.96 -25.16 652.96 -15.8 652.96 -6.43 652.96 -6.43 662.35 2.94 662.35 12.3 662.35 21.67 662.35 31.03 662.35 31.03 671.74 40.4 671.74 49.76 671.74 49.76 681.13 59.13 681.13 68.5 681.13 77.86 681.13 77.86 690.52 87.23 690.52 96.59 690.52 105.96 690.52 105.96 699.91 115.33 699.91 124.69 699.91 134.06 699.91 143.42 699.91 152.79 699.91 162.15 699.91 171.52 699.91 180.89 699.91 190.25 699.91 199.62 699.91 208.98 699.91 218.35 699.91 227.72 699.91 237.08 699.91 246.45 699.91 255.81 699.91 265.18 699.91 265.18 690.52 274.54 690.52 283.91 690.52 293.28 690.52 302.64 690.52 312.01 690.52 312.01 681.13 321.37 681.13 321.37 690.52 330.74 690.52 340.11 690.52 349.47 690.52 358.84 690.52 368.2 690.52 368.2 699.91 377.57 699.91 386.94 699.91 396.3 699.91 405.67 699.91 415.03 699.91 415.03 709.3 424.4 709.3 433.76 709.3 443.13 709.3 452.5 709.3 452.5 718.7 461.86 718.7 471.23 718.7 480.59 718.7 489.96 718.7 499.32 718.7 508.69 718.7 518.06 718.7 527.42 718.7 536.79 718.7 536.79 728.09 546.15 728.09 555.52 728.09 564.89 728.09 574.25 728.09 583.62 728.09 592.98 728.09 602.35 728.09 602.35 718.7 611.72 718.7 621.08 718.7 630.45 718.7 639.81 718.7 649.18 718.7 658.54 718.7 658.54 709.3 667.91 709.3 677.28 709.3 686.64 709.3 696.01 709.3 705.37 709.3 705.37 699.91 714.74 699.91 724.11 699.91 733.47 699.91 742.84 699.91 742.84 690.52 752.2 690.52 761.57 690.52 761.57 681.13 770.93 681.13 780.3 681.13 780.3 671.74 789.67 671.74 799.03 671.74 808.4 671.74 808.4 662.35 817.76 662.35 827.13 662.35 836.5 662.35 845.86 662.35 855.23 662.35 864.59 662.35 873.96 662.35 883.33 662.35 892.69 662.35 892.69 671.74 902.06 671.74 911.42 671.74 920.79 671.74 920.79 681.13 930.15 681.13 939.52 681.13 948.89 681.13 948.89 690.52 958.25 690.52 967.62 690.52 976.98 690.52 986.35 690.52 986.35 699.91 995.72 699.91 1005.08 699.91 1014.45 699.91 1023.81 699.91 1033.18 699.91 1042.54 699.91 1051.91 699.91 1051.91 690.52 1061.28 690.52 1070.64 690.52 1080.01 690.52 1089.37 690.52 1089.37 681.13 1098.74 681.13 1108.11 681.13 1117.47 681.13 1117.47 671.74 1126.84 671.74 1136.2 671.74 1145.57 671.74 1154.93 671.74 1164.3 671.74 1173.67 671.74 1183.03 671.74 1183.03 681.13 1192.4 681.13 1201.76 681.13 1211.13 681.13 1220.49 681.13 1220.49 690.52 1229.86 690.52 1239.23 690.52 1248.59 690.52 1257.96 690.52 1267.33 690.52 1276.69 690.52 1286.06 690.52 1295.42 690.52 1295.42 699.91 1304.79 699.91 1314.15 699.91 1323.52 699.91 1332.89 699.91 1342.25 699.91 1351.62 699.91 1360.98 699.91 1370.35 699.91 1379.71 699.91 1389.08 699.91 1389.08 690.52 1398.45 690.52 1407.81 690.52 1417.18 690.52 1426.54 690.52 1426.54 699.91 1435.91 699.91 1445.28 699.91 1445.28 690.52 1454.64 690.52 1464.01 690.52 1464.01 681.13 1454.64 681.13"/></g></g><g id="nuage4"><g class="cls-2"><polygon class="cls-6" points="1819.89 498 1819.89 488.61 1819.89 479.22 1829.26 479.22 1838.63 479.22 1847.99 479.22 1847.99 469.83 1847.99 460.44 1857.36 460.44 1857.36 451.04 1866.72 451.04 1866.72 441.65 1876.09 441.65 1885.45 441.65 1885.45 432.26 1894.82 432.26 1904.19 432.26 1913.55 432.26 1922.92 432.26 1922.92 422.87 1932.28 422.87 1932.28 413.48 1941.65 413.48 1951.02 413.48 1960.38 413.48 1969.75 413.48 1979.11 413.48 1979.11 404.09 1988.48 404.09 1988.48 394.7 1997.85 394.7 2007.21 394.7 2016.58 394.7 2016.58 385.3 2025.94 385.3 2035.31 385.3 2035.31 394.7 2044.67 394.7 2054.04 394.7 2054.04 404.09 2063.41 404.09 2072.77 404.09 2082.14 404.09 2091.5 404.09 2100.87 404.09 2110.24 404.09 2119.6 404.09 2128.97 404.09 2128.97 413.48 2138.33 413.48 2147.7 413.48 2147.7 422.87 2147.7 432.26 2147.7 441.65 2157.06 441.65 2157.06 451.04 2166.43 451.04 2166.43 460.44 2175.8 460.44 2175.8 469.83 2175.8 479.22 2175.8 488.61 2185.16 488.61 2185.16 498 2185.16 507.39 2175.8 507.39 2175.8 498 2166.43 498 2166.43 488.61 2157.06 488.61 2157.06 479.22 2147.7 479.22 2147.7 469.83 2138.33 469.83 2138.33 460.44 2128.97 460.44 2119.6 460.44 2110.24 460.44 2100.87 460.44 2091.5 460.44 2091.5 469.83 2082.14 469.83 2082.14 479.22 2072.77 479.22 2063.41 479.22 2063.41 469.83 2054.04 469.83 2054.04 460.44 2044.67 460.44 2044.67 451.04 2035.31 451.04 2035.31 441.65 2025.94 441.65 2025.94 432.26 2016.58 432.26 2016.58 422.87 2007.21 422.87 1997.85 422.87 1988.48 422.87 1979.11 422.87 1979.11 432.26 1969.75 432.26 1960.38 432.26 1960.38 441.65 1951.02 441.65 1941.65 441.65 1941.65 451.04 1941.65 460.44 1941.65 469.83 1941.65 479.22 1932.28 479.22 1922.92 479.22 1913.55 479.22 1913.55 469.83 1904.19 469.83 1904.19 460.44 1894.82 460.44 1885.45 460.44 1876.09 460.44 1876.09 469.83 1876.09 479.22 1866.72 479.22 1866.72 488.61 1857.36 488.61 1847.99 488.61 1838.63 488.61 1838.63 498 1829.26 498 1829.26 507.39 1819.89 507.39 1819.89 516.78 1810.53 516.78 1810.53 507.39 1810.53 498 1819.89 498"/><polygon class="cls-6" points="1690.89 507.39 1690.89 498 1690.89 488.61 1700.25 488.61 1709.62 488.61 1718.98 488.61 1718.98 479.22 1718.98 469.83 1728.35 469.83 1728.35 460.44 1737.71 460.44 1737.71 451.04 1747.08 451.04 1756.45 451.04 1756.45 441.65 1765.81 441.65 1775.18 441.65 1784.54 441.65 1793.91 441.65 1793.91 432.26 1803.28 432.26 1803.28 422.87 1812.64 422.87 1822.01 422.87 1831.37 422.87 1840.74 422.87 1850.11 422.87 1850.11 413.48 1859.47 413.48 1859.47 404.09 1868.84 404.09 1878.2 404.09 1887.57 404.09 1887.57 394.7 1896.93 394.7 1906.3 394.7 1906.3 404.09 1915.67 404.09 1925.03 404.09 1925.03 413.48 1934.4 413.48 1943.76 413.48 1953.13 413.48 1962.5 413.48 1971.86 413.48 1981.23 413.48 1990.59 413.48 1999.96 413.48 1999.96 422.87 2009.33 422.87 2018.69 422.87 2018.69 432.26 2018.69 441.65 2018.69 451.04 2028.06 451.04 2028.06 460.44 2037.42 460.44 2037.42 469.83 2046.79 469.83 2046.79 479.22 2046.79 488.61 2046.79 498 2056.15 498 2056.15 507.39 2056.15 516.78 2046.79 516.78 2046.79 507.39 2037.42 507.39 2037.42 498 2028.06 498 2028.06 488.61 2018.69 488.61 2018.69 479.22 2009.33 479.22 2009.33 469.83 1999.96 469.83 1990.59 469.83 1981.23 469.83 1971.86 469.83 1962.5 469.83 1962.5 479.22 1953.13 479.22 1953.13 488.61 1943.76 488.61 1934.4 488.61 1934.4 479.22 1925.03 479.22 1925.03 469.83 1915.67 469.83 1915.67 460.44 1906.3 460.44 1906.3 451.04 1896.93 451.04 1896.93 441.65 1887.57 441.65 1887.57 432.26 1878.2 432.26 1868.84 432.26 1859.47 432.26 1850.11 432.26 1850.11 441.65 1840.74 441.65 1831.37 441.65 1831.37 451.04 1822.01 451.04 1812.64 451.04 1812.64 460.44 1812.64 469.83 1812.64 479.22 1812.64 488.61 1803.28 488.61 1793.91 488.61 1784.54 488.61 1784.54 479.22 1775.18 479.22 1775.18 469.83 1765.81 469.83 1756.45 469.83 1747.08 469.83 1747.08 479.22 1747.08 488.61 1737.71 488.61 1737.71 498 1728.35 498 1718.98 498 1709.62 498 1709.62 507.39 1700.25 507.39 1700.25 516.78 1690.89 516.78 1690.89 526.17 1681.52 526.17 1681.52 516.78 1681.52 507.39 1690.89 507.39"/><polygon class="cls-5" points="2166.43 526.17 2166.43 535.57 2157.06 535.57 2147.7 535.57 2138.33 535.57 2138.33 526.17 2128.97 526.17 2119.6 526.17 2119.6 516.78 2110.24 516.78 2100.87 516.78 2091.5 516.78 2082.14 516.78 2082.14 526.17 2072.77 526.17 2072.77 516.78 2072.77 507.39 2063.41 507.39 2063.41 498 2054.04 498 2044.67 498 2035.31 498 2025.94 498 2025.94 507.39 2016.58 507.39 2007.21 507.39 2007.21 516.78 1997.85 516.78 1988.48 516.78 1979.11 516.78 1979.11 507.39 1969.75 507.39 1969.75 498 1960.38 498 1960.38 488.61 1951.02 488.61 1941.65 488.61 1941.65 479.22 1932.28 479.22 1922.92 479.22 1913.55 479.22 1913.55 488.61 1904.19 488.61 1904.19 498 1894.82 498 1894.82 507.39 1885.45 507.39 1885.45 516.78 1878.2 516.78 1876.09 516.78 1876.09 507.39 1876.09 498 1866.72 498 1866.72 488.61 1857.36 488.61 1847.99 488.61 1838.63 488.61 1838.63 498 1831.37 498 1829.26 498 1822.01 498 1812.64 498 1812.64 488.61 1803.28 488.61 1793.91 488.61 1784.54 488.61 1784.54 498 1775.18 498 1775.18 507.39 1765.81 507.39 1765.81 516.78 1756.45 516.78 1756.45 526.17 1747.08 526.17 1747.08 516.78 1747.08 507.39 1737.71 507.39 1737.71 498 1728.35 498 1718.98 498 1709.62 498 1709.62 507.39 1700.25 507.39 1700.25 516.78 1690.89 516.78 1690.89 526.17 1681.52 526.17 1681.52 535.57 1681.52 544.96 1681.52 554.35 1690.89 554.35 1690.89 563.74 1700.25 563.74 1700.25 573.13 1709.62 573.13 1718.98 573.13 1728.35 573.13 1737.71 573.13 1747.08 573.13 1756.45 573.13 1765.81 573.13 1775.18 573.13 1775.18 582.52 1784.54 582.52 1793.91 582.52 1803.28 582.52 1812.64 582.52 1822.01 582.52 1831.37 582.52 1840.74 582.52 1840.74 573.13 1850.11 573.13 1859.47 573.13 1868.84 573.13 1878.2 573.13 1878.2 563.74 1885.45 563.74 1887.57 563.74 1887.57 573.13 1896.93 573.13 1904.19 573.13 1906.3 573.13 1913.55 573.13 1915.67 573.13 1922.92 573.13 1925.03 573.13 1925.03 582.52 1934.4 582.52 1943.76 582.52 1953.13 582.52 1962.5 582.52 1971.86 582.52 1971.86 573.13 1981.23 573.13 1990.59 573.13 1999.96 573.13 2009.33 573.13 2018.69 573.13 2028.06 573.13 2028.06 563.74 2035.31 563.74 2037.42 563.74 2044.67 563.74 2054.04 563.74 2054.04 573.13 2063.41 573.13 2072.77 573.13 2082.14 573.13 2091.5 573.13 2100.87 573.13 2100.87 563.74 2110.24 563.74 2119.6 563.74 2128.97 563.74 2138.33 563.74 2147.7 563.74 2157.06 563.74 2157.06 554.35 2166.43 554.35 2166.43 544.96 2175.8 544.96 2175.8 535.57 2175.8 526.17 2166.43 526.17"/><polygon class="cls-4" points="1775.18 469.83 1765.81 469.83 1756.45 469.83 1747.08 469.83 1747.08 479.22 1747.08 488.61 1737.71 488.61 1737.71 498 1737.71 507.39 1747.08 507.39 1747.08 516.78 1747.08 526.17 1756.45 526.17 1756.45 516.78 1765.81 516.78 1765.81 507.39 1775.18 507.39 1775.18 498 1784.54 498 1784.54 488.61 1784.54 479.22 1775.18 479.22 1775.18 469.83"/><polygon class="cls-4" points="2175.8 507.39 2175.8 498 2166.43 498 2166.43 488.61 2157.06 488.61 2157.06 479.22 2147.7 479.22 2147.7 469.83 2138.33 469.83 2138.33 460.44 2128.97 460.44 2119.6 460.44 2110.24 460.44 2100.87 460.44 2091.5 460.44 2091.5 469.83 2082.14 469.83 2082.14 479.22 2072.77 479.22 2063.41 479.22 2063.41 469.83 2054.04 469.83 2054.04 460.44 2044.67 460.44 2044.67 451.04 2035.31 451.04 2035.31 441.65 2025.94 441.65 2025.94 432.26 2016.58 432.26 2016.58 422.87 2007.21 422.87 1997.85 422.87 1988.48 422.87 1979.11 422.87 1979.11 432.26 1969.75 432.26 1960.38 432.26 1960.38 441.65 1951.02 441.65 1941.65 441.65 1941.65 451.04 1941.65 460.44 1941.65 469.83 1941.65 479.22 1941.65 488.61 1934.4 488.61 1934.4 479.22 1925.03 479.22 1925.03 469.83 1915.67 469.83 1915.67 460.44 1906.3 460.44 1906.3 451.04 1896.93 451.04 1896.93 441.65 1887.57 441.65 1887.57 432.26 1878.2 432.26 1868.84 432.26 1859.47 432.26 1850.11 432.26 1850.11 441.65 1840.74 441.65 1831.37 441.65 1831.37 451.04 1822.01 451.04 1812.64 451.04 1812.64 460.44 1812.64 469.83 1812.64 479.22 1812.64 488.61 1812.64 498 1822.01 498 1831.37 498 1831.37 507.39 1840.74 507.39 1840.74 516.78 1850.11 516.78 1850.11 526.17 1859.47 526.17 1868.84 526.17 1878.2 526.17 1878.2 516.78 1885.45 516.78 1887.57 516.78 1896.93 516.78 1896.93 507.39 1906.3 507.39 1915.67 507.39 1925.03 507.39 1934.4 507.39 1934.4 516.78 1943.76 516.78 1943.76 526.17 1943.76 535.57 1953.13 535.57 1953.13 526.17 1962.5 526.17 1971.86 526.17 1981.23 526.17 1990.59 526.17 1990.59 535.57 1999.96 535.57 2009.33 535.57 2009.33 544.96 2018.69 544.96 2028.06 544.96 2037.42 544.96 2037.42 535.57 2046.79 535.57 2046.79 526.17 2056.15 526.17 2056.15 516.78 2046.79 516.78 2046.79 507.39 2037.42 507.39 2037.42 498 2044.67 498 2054.04 498 2063.41 498 2063.41 507.39 2072.77 507.39 2072.77 516.78 2072.77 526.17 2082.14 526.17 2082.14 516.78 2091.5 516.78 2100.87 516.78 2110.24 516.78 2119.6 516.78 2119.6 526.17 2128.97 526.17 2138.33 526.17 2138.33 535.57 2147.7 535.57 2157.06 535.57 2166.43 535.57 2166.43 526.17 2175.8 526.17 2175.8 516.78 2185.16 516.78 2185.16 507.39 2175.8 507.39"/></g></g><g id="nuage5"><g class="cls-2"><rect class="cls-3" x="1870.98" y="284.35" width="9.37" height="9.39"/><rect class="cls-3" x="1763.28" y="279.65" width="9.37" height="9.39"/><rect class="cls-3" x="1636.84" y="307.83" width="9.37" height="9.39"/><rect class="cls-3" x="1782.02" y="265.57" width="9.37" height="9.39"/><path class="cls-3" d="M1997.42,199.83H1960V181h-9.37v-9.39h-18.73v-9.39h-18.73v-9.39H1866.3v9.39h-18.73v9.39h-9.37v-9.39h-9.36v-9.39h-28.1v-9.39h-37.46v9.39h-18.74v9.39h-26v-9.39H1699.8v-9.39H1693v-4.7h-56.19V120h-9.37v-9.39h-18.73v-9.39H1590V91.83h-46.83v9.39h-18.73v9.39h-9.37v-9.39h-9.36V91.83h-28.1v-9.4h-37.47v9.4h-18.73v9.39h-9.36V120h-9.37v28.17h-65.56v9.4h-9.37V167h-9.36v18.78H1309v9.39h-74.92v9.39h-9.37v9.39h-14v-4.69h9.36v-9.39h-32.78v-4.7h-9.37v-9.39h-14V181h-9.37v-9.39h-18.73v-9.39H1117v-9.39h-46.83v9.39h-18.73v9.39h-9.37v-9.39h-9.36v-9.39h-28.1v-9.39H967.19v9.39H948.45v9.39h-9.36V181h-9.37v28.18H864.16v9.39H854.8V228h-9.37v18.78h-9.37v9.39H761.14v9.4h-9.37V275H733v-9.39H714.31v-9.4h-9.37v-9.39h-28.1v9.39h-9.36v9.4h-9.37v-9.4H611.28v9.4H592.55V275h-9.36v9.39h-9.37v28.17h-9.37v9.39h-9.36v-9.39h-9.37v-9.39h-9.36v-9.39h-56.2v9.39H470.8v9.39H433.33v9.39H424V340.7H414.6v9.39H367.77v9.39h-9.36V397h9.36v-9.39H386.5v-9.39h18.73v-9.39H424v-9.39h9.36v-9.39h9.37V340.7h18.73v-9.4h18.73v-9.39h37.46v9.39h18.74v9.4h9.36v9.39h9.37v18.78h18.73v-9.39h18.73v-9.39h9.37V340.7h18.73v-9.4H630v-9.39h28.09v-9.39h28.1v-9.39h18.73v9.39h18.73v9.39h28.1v9.39H770.5v-9.39h9.37v-9.39h9.36v-9.39h9.37v-9.39H808v-9.39h28.09V275h56.2v4.69h-4.69V289H840.74v9.39h-9.37V336h9.37v-9.39h18.73v-9.39H878.2v-9.39h18.73v-9.4h9.37v-4.69H911v9.39h18.73v9.39h9.37V293.74h9.36V275h9.37V260.87h32.77v9.39h18.73v9.39h9.37V289h9.37v9.39h-18.74v4.7h-51.5v4.7H943.76v9.39H925v4.69H911v9.39h-9.37V336h-9.36v9.39h-9.37v14.09H878.2v-4.7h-9.36v-9.39h-56.2v9.39h-9.36v9.39H765.81v9.4h-9.36v18.78h-9.37v9.39H700.25v9.39h-9.36V448.7h9.36v-9.4H719v-9.39h18.74v-9.39h18.73v-9.39h9.36v-9.39h9.37v-9.39h18.73V383h18.73v-9.39H826.7V383h-9.37v37.56h9.37v-9.39h18.73v-4.7h0v-4.69h18.73V397h0v-4.69h14v9.39h9.37v18.78H906.3v-9.39H925v14.09h9.37v-9.39h18.73v-9.4h18.73V397h18.73v-9.39H1000v-9.39h9.36v-4.69h4.7v18.78h18.73V383h18.73v-4.7h0v-4.69h32.77V383H1103v-9.39h9.37v4.69h9.37V397h18.73v-9.39h14V397h9.36v-9.39h18.73v-9.39h18.73v-9.39h18.74v-9.39h9.36v-4.7h0v-4.69h9.36v-4.7h4.68v9.39h18.73v9.39h9.37V345.39h9.36V340.7h9.37v9.39h28.1v9.39h18.73v-9.39h14v18.78h18.73v-9.39h18.73v-9.39H1398V340.7h18.73v-9.4h9.37v-4.69h14V336h28.1v-9.39h9.37v-4.7h0v9.39h18.73v9.4h9.37V321.91h9.36v-9.39h4.68v9.39h28.1v9.39h18.73v-9.39H1576v-9.39h9.36v-4.69h9.38v-9.4h9.36v-4.69h9.37v-9.39h23.41v9.39h18.73v9.39h18.73v9.39h28.1v-9.39h23.41v9.39h9.37V293.74h9.36V275h9.37V256.17h18.73v-9.39h74.93v9.39h18.73v9.4H1885V275h18.73v9.39h28.1V275h9.37V256.17h9.36v-9.39H1960v-9.39h9.36V228h18.74v-9.39h18.73v-9.39h9.36v-9.39h-18.73Zm-838.24,51.65v-4.7h4.69v-4.69h14v9.39h16.14v4.69H1154.5v9.4h-9.36v4.69h0V256.17h9.36v-4.69Zm-140.49,0v-4.7h28.1v4.7h-9.37v9.39h-9.36v-9.39ZM971.86,378.26h-2.59v-4.69h12v4.69Z"/><polygon class="cls-4" points="2137.91 368.87 2137.91 359.48 2137.91 350.09 2137.91 340.7 2128.54 340.7 2119.18 340.7 2119.18 331.3 2109.81 331.3 2109.81 321.91 2109.81 312.52 2119.18 312.52 2119.18 303.13 2119.18 293.74 2119.18 284.35 2109.81 284.35 2109.81 274.96 2109.81 265.56 2100.45 265.56 2100.45 256.17 2091.08 256.17 2081.72 256.17 2072.35 256.17 2062.98 256.17 2062.98 246.78 2053.62 246.78 2053.62 237.39 2053.62 228 2044.25 228 2044.25 218.61 2034.89 218.61 2034.89 209.22 2025.52 209.22 2016.15 209.22 2006.79 209.22 2006.79 218.61 1997.42 218.61 1988.06 218.61 1988.06 228 1978.69 228 1969.33 228 1969.33 237.39 1959.96 237.39 1959.96 246.78 1950.59 246.78 1950.59 256.17 1941.23 256.17 1941.23 265.56 1941.23 274.96 1931.86 274.96 1931.86 284.35 1922.49 284.35 1913.13 284.35 1903.76 284.35 1903.76 274.96 1894.4 274.96 1885.03 274.96 1885.03 265.56 1875.67 265.56 1866.3 265.56 1866.3 256.17 1856.93 256.17 1847.57 256.17 1847.57 246.78 1838.2 246.78 1828.84 246.78 1819.47 246.78 1810.11 246.78 1800.74 246.78 1791.37 246.78 1782.01 246.78 1772.64 246.78 1772.64 256.17 1767.96 256.17 1763.28 256.17 1758.59 256.17 1753.91 256.17 1749.23 256.17 1739.86 256.17 1739.86 246.78 1730.5 246.78 1730.5 237.39 1730.5 228 1721.13 228 1721.13 218.61 1711.76 218.61 1711.76 209.22 1702.4 209.22 1693.03 209.22 1683.67 209.22 1683.67 218.61 1674.3 218.61 1664.93 218.61 1664.93 228 1655.57 228 1646.2 228 1646.2 237.39 1636.84 237.39 1636.84 246.78 1627.47 246.78 1627.47 256.17 1618.11 256.17 1618.11 265.56 1618.11 274.96 1608.74 274.96 1608.74 284.35 1604.06 284.35 1599.37 284.35 1590.01 284.35 1580.64 284.35 1580.64 274.96 1571.28 274.96 1561.91 274.96 1561.91 265.56 1552.54 265.56 1543.18 265.56 1543.18 256.17 1533.81 256.17 1524.45 256.17 1524.45 246.78 1515.08 246.78 1505.71 246.78 1496.35 246.78 1486.98 246.78 1477.62 246.78 1468.25 246.78 1458.89 246.78 1449.52 246.78 1449.52 256.17 1440.15 256.17 1430.79 256.17 1430.79 265.56 1430.79 274.96 1421.42 274.96 1421.42 284.35 1421.42 293.74 1412.06 293.74 1412.06 303.13 1412.06 312.52 1402.69 312.52 1402.69 303.13 1393.33 303.13 1383.96 303.13 1383.96 293.74 1374.59 293.74 1374.59 284.35 1365.23 284.35 1365.23 274.96 1355.86 274.96 1346.5 274.96 1337.13 274.96 1327.76 274.96 1318.4 274.96 1313.72 274.96 1313.72 265.56 1304.36 265.56 1304.36 256.17 1294.99 256.17 1285.63 256.17 1276.26 256.17 1266.89 256.17 1266.89 246.78 1257.53 246.78 1257.53 237.39 1257.53 228 1248.16 228 1248.16 218.61 1238.8 218.61 1238.8 209.22 1229.43 209.22 1220.06 209.22 1210.7 209.22 1210.7 218.61 1201.33 218.61 1191.97 218.61 1191.97 228 1182.6 228 1173.23 228 1173.23 237.39 1163.87 237.39 1163.87 246.78 1154.5 246.78 1154.5 256.17 1145.14 256.17 1145.14 265.56 1145.14 274.96 1135.77 274.96 1135.77 284.35 1126.4 284.35 1117.04 284.35 1107.67 284.35 1107.67 274.96 1098.31 274.96 1088.94 274.96 1088.94 265.56 1079.58 265.56 1070.21 265.56 1070.21 256.17 1060.84 256.17 1051.48 256.17 1051.48 246.78 1042.11 246.78 1032.75 246.78 1023.38 246.78 1014.01 246.78 1004.65 246.78 995.28 246.78 985.92 246.78 976.55 246.78 976.55 256.17 967.19 256.17 957.82 256.17 957.82 265.56 957.82 274.96 948.45 274.96 948.45 284.35 948.45 293.74 939.09 293.74 939.09 303.13 939.09 312.52 929.72 312.52 929.72 303.13 920.36 303.13 910.99 303.13 910.99 293.74 901.63 293.74 901.63 284.35 892.26 284.35 892.26 274.96 882.89 274.96 873.53 274.96 864.16 274.96 854.8 274.96 845.43 274.96 836.06 274.96 836.06 284.35 826.7 284.35 817.33 284.35 807.97 284.35 807.97 293.74 798.6 293.74 798.6 303.13 789.24 303.13 789.24 312.52 779.87 312.52 779.87 321.91 770.5 321.91 770.5 331.3 761.14 331.3 751.77 331.3 751.77 321.91 742.4 321.91 733.04 321.91 723.67 321.91 723.67 312.52 714.31 312.52 704.94 312.52 704.94 303.13 695.58 303.13 686.21 303.13 686.21 312.52 676.84 312.52 667.48 312.52 658.11 312.52 658.11 321.91 648.75 321.91 639.38 321.91 630.01 321.91 630.01 331.3 620.65 331.3 620.65 340.7 611.28 340.7 601.92 340.7 601.92 350.09 592.55 350.09 592.55 359.48 583.19 359.48 573.82 359.48 573.82 368.87 583.19 368.87 592.55 368.87 592.55 378.26 601.92 378.26 611.28 378.26 620.65 378.26 620.65 387.65 630.01 387.65 630.01 397.04 639.38 397.04 639.38 406.44 648.75 406.44 658.11 406.44 667.48 406.44 667.48 415.83 676.84 415.83 686.21 415.83 695.58 415.83 704.94 415.83 714.31 415.83 723.67 415.83 723.67 406.44 733.04 406.44 742.4 406.44 742.4 397.04 751.77 397.04 761.14 397.04 770.5 397.04 779.87 397.04 779.87 406.44 789.24 406.44 798.6 406.44 798.6 415.83 807.97 415.83 817.33 415.83 826.7 415.83 836.06 415.83 845.43 415.83 854.8 415.83 864.16 415.83 873.53 415.83 873.53 425.22 882.89 425.22 882.89 415.83 887.57 415.83 892.26 415.83 896.93 415.83 906.3 415.83 915.67 415.83 925.03 415.83 925.03 406.44 934.4 406.44 943.76 406.44 953.13 406.44 962.5 406.44 971.86 406.44 971.86 415.83 981.23 415.83 990.59 415.83 999.96 415.83 999.96 406.44 1004.65 406.44 1004.65 415.83 1014.01 415.83 1014.01 425.22 1023.38 425.22 1023.38 415.83 1032.75 415.83 1042.11 415.83 1051.48 415.83 1051.48 406.44 1060.84 406.44 1060.84 397.04 1070.21 397.04 1079.58 397.04 1079.58 387.65 1088.94 387.65 1093.62 387.65 1098.31 387.65 1102.98 387.65 1102.98 397.04 1112.35 397.04 1112.35 406.44 1121.71 406.44 1131.08 406.44 1140.45 406.44 1140.45 415.83 1149.81 415.83 1154.5 415.83 1159.18 415.83 1163.87 415.83 1168.54 415.83 1173.23 415.83 1177.91 415.83 1182.6 415.83 1187.28 415.83 1196.64 415.83 1196.64 406.44 1201.33 406.44 1201.33 415.83 1210.69 415.83 1220.06 415.83 1229.42 415.83 1238.79 415.83 1248.15 415.83 1248.15 406.44 1248.16 406.44 1252.84 406.44 1257.52 406.44 1257.53 406.44 1262.2 406.44 1266.89 406.44 1266.89 406.44 1271.57 406.44 1271.57 415.83 1280.93 415.83 1290.3 415.83 1294.98 415.83 1299.67 415.83 1304.35 415.83 1309.03 415.83 1313.71 415.83 1318.4 415.83 1323.08 415.83 1327.76 415.83 1337.13 415.83 1346.5 415.83 1346.5 425.22 1355.86 425.22 1355.86 415.83 1365.23 415.83 1365.23 406.44 1374.59 406.44 1374.59 397.04 1374.59 387.65 1383.96 387.65 1383.96 378.26 1388.64 378.26 1393.33 378.26 1398.01 378.26 1402.69 378.26 1407.37 378.26 1412.06 378.26 1416.74 378.26 1416.74 387.65 1426.11 387.65 1426.11 397.04 1435.47 397.04 1435.47 406.44 1444.84 406.44 1454.2 406.44 1463.57 406.44 1463.57 415.83 1472.93 415.83 1477.62 415.83 1482.3 415.83 1486.98 415.83 1486.98 425.22 1496.35 425.22 1496.35 415.83 1501.03 415.83 1505.71 415.83 1510.4 415.83 1515.08 415.83 1519.76 415.83 1524.45 415.83 1524.45 406.44 1529.13 406.44 1533.81 406.44 1538.49 406.44 1538.49 397.04 1543.18 397.04 1547.86 397.04 1552.54 397.04 1557.23 397.04 1566.59 397.04 1575.96 397.04 1575.96 406.44 1585.33 406.44 1594.69 406.44 1594.69 415.83 1604.06 415.83 1613.42 415.83 1622.79 415.83 1627.47 415.83 1632.15 415.83 1636.84 415.83 1641.52 415.83 1646.2 415.83 1650.89 415.83 1655.57 415.83 1660.25 415.83 1669.62 415.83 1669.62 425.22 1678.98 425.22 1678.98 415.83 1688.35 415.83 1688.35 406.44 1697.71 406.44 1697.71 397.04 1702.4 397.04 1711.76 397.04 1711.76 406.44 1721.13 406.44 1730.5 406.44 1739.86 406.44 1739.86 397.04 1749.23 397.04 1749.23 387.65 1758.59 387.65 1758.59 378.26 1763.28 378.26 1763.28 387.65 1772.64 387.65 1782.01 387.65 1782.01 397.04 1791.37 397.04 1791.37 406.44 1800.74 406.44 1800.74 415.83 1810.11 415.83 1810.11 425.22 1819.47 425.22 1819.47 415.83 1828.84 415.83 1838.2 415.83 1847.57 415.83 1847.57 406.44 1856.93 406.44 1856.93 397.04 1866.3 397.04 1875.67 397.04 1875.67 387.65 1885.03 387.65 1894.4 387.65 1903.76 387.65 1913.13 387.65 1922.49 387.65 1931.86 387.65 1931.86 397.04 1941.23 397.04 1941.23 406.44 1950.59 406.44 1950.59 415.83 1959.96 415.83 1969.33 415.83 1978.69 415.83 1978.69 406.44 1988.06 406.44 1988.06 397.04 1997.42 397.04 2006.79 397.04 2016.15 397.04 2025.52 397.04 2034.89 397.04 2034.89 406.44 2044.25 406.44 2053.62 406.44 2062.98 406.44 2062.98 397.04 2072.35 397.04 2072.35 387.65 2081.72 387.65 2081.72 378.26 2091.08 378.26 2100.45 378.26 2109.81 378.26 2119.18 378.26 2119.18 387.65 2128.54 387.65 2137.91 387.65 2147.28 387.65 2147.28 378.26 2147.28 368.87 2137.91 368.87"/><polygon class="cls-4" points="555.09 368.87 555.09 359.48 555.09 350.09 545.72 350.09 545.72 340.7 536.36 340.7 536.36 331.3 526.99 331.3 517.63 331.3 517.63 321.91 508.26 321.91 498.89 321.91 489.53 321.91 480.16 321.91 480.16 331.3 470.8 331.3 461.43 331.3 461.43 340.7 452.06 340.7 442.7 340.7 442.7 350.09 433.33 350.09 433.33 359.48 423.97 359.48 423.97 368.87 414.6 368.87 405.24 368.87 405.24 378.26 395.87 378.26 386.5 378.26 386.5 387.65 377.14 387.65 367.77 387.65 367.77 397.04 367.77 406.44 377.14 406.44 386.5 406.44 395.87 406.44 405.24 406.44 405.24 415.83 414.6 415.83 423.97 415.83 433.33 415.83 442.7 415.83 452.06 415.83 452.06 406.44 461.43 406.44 470.8 406.44 480.16 406.44 489.53 406.44 498.89 406.44 498.89 415.83 508.26 415.83 517.63 415.83 526.99 415.83 526.99 406.44 536.36 406.44 536.36 397.04 545.72 397.04 545.72 387.65 555.09 387.65 555.09 378.26 564.45 378.26 573.82 378.26 573.82 368.87 564.45 368.87 555.09 368.87"/><polygon class="cls-5" points="2156.64 406.44 2156.64 397.04 2147.28 397.04 2147.28 387.65 2137.91 387.65 2128.54 387.65 2119.18 387.65 2119.18 378.26 2109.81 378.26 2100.45 378.26 2091.08 378.26 2081.72 378.26 2081.72 387.65 2072.35 387.65 2072.35 397.04 2062.98 397.04 2062.98 406.44 2053.62 406.44 2044.25 406.44 2034.89 406.44 2034.89 397.04 2025.52 397.04 2016.15 397.04 2006.79 397.04 1997.42 397.04 1988.06 397.04 1988.06 406.44 1978.69 406.44 1978.69 415.83 1969.33 415.83 1959.96 415.83 1950.59 415.83 1950.59 406.44 1941.23 406.44 1941.23 397.04 1931.86 397.04 1931.86 387.65 1922.49 387.65 1913.13 387.65 1903.76 387.65 1894.4 387.65 1885.03 387.65 1875.67 387.65 1875.67 397.04 1866.3 397.04 1856.93 397.04 1856.93 406.44 1847.57 406.44 1847.57 415.83 1842.89 415.83 1842.89 406.44 1833.52 406.44 1833.52 397.04 1824.15 397.04 1824.15 387.65 1814.79 387.65 1805.42 387.65 1796.06 387.65 1796.06 378.26 1786.69 378.26 1777.33 378.26 1767.96 378.26 1763.28 378.26 1758.59 378.26 1753.91 378.26 1744.54 378.26 1735.18 378.26 1725.81 378.26 1716.45 378.26 1707.08 378.26 1707.08 387.65 1697.71 387.65 1697.71 397.04 1693.03 397.04 1683.67 397.04 1674.3 397.04 1664.93 397.04 1664.93 406.44 1655.57 406.44 1655.57 415.83 1650.89 415.83 1646.2 415.83 1641.52 415.83 1636.84 415.83 1632.15 415.83 1627.47 415.83 1627.47 406.44 1618.11 406.44 1618.11 397.04 1608.74 397.04 1608.74 387.65 1599.37 387.65 1590.01 387.65 1580.64 387.65 1571.28 387.65 1561.91 387.65 1552.54 387.65 1552.54 397.04 1547.86 397.04 1543.18 397.04 1538.49 397.04 1533.81 397.04 1533.81 406.44 1529.13 406.44 1524.45 406.44 1519.76 406.44 1519.76 415.83 1515.08 415.83 1510.4 415.83 1505.71 415.83 1501.03 415.83 1496.35 415.83 1491.67 415.83 1486.98 415.83 1482.3 415.83 1477.62 415.83 1477.62 406.44 1468.25 406.44 1468.25 397.04 1458.89 397.04 1458.89 387.65 1449.52 387.65 1440.15 387.65 1440.15 378.26 1430.79 378.26 1421.42 378.26 1416.74 378.26 1412.06 378.26 1407.37 378.26 1402.69 378.26 1398.01 378.26 1393.33 378.26 1388.64 378.26 1388.64 368.87 1379.28 368.87 1369.91 368.87 1369.91 378.26 1360.54 378.26 1351.18 378.26 1351.18 387.65 1341.82 387.65 1341.81 387.65 1332.45 387.65 1323.09 387.65 1323.09 378.26 1313.72 378.26 1304.36 378.26 1294.99 378.26 1285.63 378.26 1285.63 387.65 1276.26 387.65 1276.26 397.04 1266.89 397.04 1266.89 406.44 1266.89 406.44 1262.2 406.44 1257.53 406.44 1257.52 406.44 1252.84 406.44 1252.84 397.04 1243.47 397.04 1238.8 397.04 1234.11 397.04 1229.43 397.04 1224.74 397.04 1220.06 397.04 1215.37 397.04 1210.7 397.04 1201.33 397.04 1191.97 397.04 1191.97 406.44 1191.96 406.44 1182.6 406.44 1182.59 406.44 1173.23 406.44 1163.86 406.44 1163.86 415.83 1159.18 415.83 1154.5 415.83 1154.5 406.44 1145.14 406.44 1145.14 397.04 1135.77 397.04 1135.77 387.65 1126.4 387.65 1117.04 387.65 1107.67 387.65 1102.98 387.65 1098.31 387.65 1093.62 387.65 1093.62 378.26 1084.25 378.26 1074.89 378.26 1065.52 378.26 1065.52 368.87 1056.15 368.87 1046.79 368.87 1046.79 378.26 1037.42 378.26 1028.06 378.26 1028.06 387.65 1018.69 387.65 1018.69 397.04 1009.33 397.04 1009.33 406.44 1004.65 406.44 999.96 406.44 995.28 406.44 995.28 397.04 985.92 397.04 985.92 387.65 976.55 387.65 967.19 387.65 967.19 378.26 957.82 378.26 948.45 378.26 939.09 378.26 929.72 378.26 920.36 378.26 910.99 378.26 910.99 387.65 901.63 387.65 901.63 397.04 901.63 406.44 892.26 406.44 892.26 415.83 887.57 415.83 882.89 415.83 878.2 415.83 878.2 406.44 868.84 406.44 859.47 406.44 850.11 406.44 840.74 406.44 840.74 415.83 836.06 415.83 831.37 415.83 826.7 415.83 817.33 415.83 807.97 415.83 798.6 415.83 798.6 406.44 789.24 406.44 779.87 406.44 779.87 397.04 770.5 397.04 761.14 397.04 751.77 397.04 742.4 397.04 742.4 406.44 733.04 406.44 723.67 406.44 723.67 415.83 714.31 415.83 704.94 415.83 695.58 415.83 686.21 415.83 676.84 415.83 667.48 415.83 667.48 406.44 658.11 406.44 648.75 406.44 639.38 406.44 639.38 397.04 630.01 397.04 630.01 387.65 620.65 387.65 620.65 378.26 611.28 378.26 601.92 378.26 592.55 378.26 592.55 368.87 583.19 368.87 573.82 368.87 573.82 378.26 564.45 378.26 555.09 378.26 555.09 387.65 545.72 387.65 545.72 397.04 536.36 397.04 536.36 406.44 526.99 406.44 526.99 415.83 517.63 415.83 508.26 415.83 498.89 415.83 498.89 406.44 489.53 406.44 480.16 406.44 470.8 406.44 461.43 406.44 452.06 406.44 452.06 415.83 442.7 415.83 433.33 415.83 423.97 415.83 414.6 415.83 405.24 415.83 405.24 406.44 395.87 406.44 386.5 406.44 377.14 406.44 367.77 406.44 367.77 415.83 358.4 415.83 358.4 425.22 367.77 425.22 367.77 434.61 377.14 434.61 377.14 444 386.5 444 395.87 444 405.24 444 414.6 444 423.97 444 433.33 444 442.7 444 452.06 444 452.06 434.61 461.43 434.61 470.8 434.61 480.16 434.61 489.53 434.61 498.89 434.61 508.26 434.61 517.63 434.61 526.99 434.61 526.99 444 536.36 444 545.72 444 545.72 453.39 555.09 453.39 564.45 453.39 564.45 462.78 573.82 462.78 573.82 472.17 583.19 472.17 592.55 472.17 601.92 472.17 611.28 472.17 620.65 472.17 630.01 472.17 639.38 472.17 648.75 472.17 648.75 462.78 658.11 462.78 667.48 462.78 676.84 462.78 686.21 462.78 695.58 462.78 704.94 462.78 704.94 453.39 714.31 453.39 723.67 453.39 733.04 453.39 742.4 453.39 751.77 453.39 761.14 453.39 770.5 453.39 779.87 453.39 789.24 453.39 789.24 462.78 798.6 462.78 807.97 462.78 817.33 462.78 826.7 462.78 836.06 462.78 836.06 472.17 845.43 472.17 854.8 472.17 864.16 472.17 873.53 472.17 882.89 472.17 892.26 472.17 901.63 472.17 910.99 472.17 920.36 472.17 929.72 472.17 929.72 462.78 939.09 462.78 948.45 462.78 957.82 462.78 967.19 462.78 976.55 462.78 985.92 462.78 995.28 462.78 1004.65 462.78 1014.01 462.78 1023.38 462.78 1032.75 462.78 1037.42 462.78 1042.11 462.78 1046.79 462.78 1046.79 472.17 1056.15 472.17 1065.52 472.17 1074.89 472.17 1084.25 472.17 1093.62 472.17 1102.98 472.17 1112.35 472.17 1121.71 472.17 1121.71 462.78 1131.08 462.78 1140.45 462.78 1149.81 462.78 1159.18 462.78 1163.87 462.78 1168.54 462.78 1173.23 462.78 1177.91 462.78 1182.6 462.78 1191.97 462.78 1191.97 472.17 1201.33 472.17 1210.7 472.17 1220.06 472.17 1229.43 472.17 1238.8 472.17 1248.16 472.17 1257.53 472.17 1266.89 472.17 1276.26 472.17 1285.63 472.17 1285.63 462.78 1290.3 462.78 1294.99 462.78 1299.67 462.78 1304.36 462.78 1309.03 462.78 1309.03 472.17 1318.4 472.17 1327.76 472.17 1337.13 472.17 1346.5 472.17 1355.86 472.17 1365.23 472.17 1369.91 472.17 1374.59 472.17 1379.28 472.17 1383.96 472.17 1388.64 472.17 1393.33 472.17 1398.01 472.17 1402.69 472.17 1407.37 472.17 1416.74 472.17 1426.11 472.17 1435.47 472.17 1444.84 472.17 1444.84 462.78 1449.52 462.78 1454.2 462.78 1458.89 462.78 1463.57 462.78 1468.25 462.78 1472.93 462.78 1477.62 462.78 1482.3 462.78 1486.98 462.78 1491.67 462.78 1496.35 462.78 1501.03 462.78 1505.71 462.78 1515.08 462.78 1515.08 453.39 1519.76 453.39 1524.45 453.39 1529.13 453.39 1533.81 453.39 1538.49 453.39 1543.18 453.39 1547.86 453.39 1552.54 453.39 1557.23 453.39 1561.91 453.39 1566.59 453.39 1571.28 453.39 1575.96 453.39 1580.64 453.39 1585.33 453.39 1585.33 462.78 1594.69 462.78 1604.06 462.78 1613.42 462.78 1622.79 462.78 1632.15 462.78 1632.15 472.17 1641.52 472.17 1650.89 472.17 1660.25 472.17 1664.93 472.17 1669.62 472.17 1674.3 472.17 1678.98 472.17 1683.67 472.17 1688.35 472.17 1693.03 472.17 1697.71 472.17 1702.4 472.17 1707.08 472.17 1711.76 472.17 1716.45 472.17 1721.13 472.17 1725.81 472.17 1730.5 472.17 1739.86 472.17 1749.23 472.17 1758.59 472.17 1758.59 462.78 1763.28 462.78 1767.96 462.78 1772.64 462.78 1777.33 462.78 1782.01 462.78 1786.69 462.78 1791.37 462.78 1800.74 462.78 1810.11 462.78 1819.47 462.78 1828.84 462.78 1838.2 462.78 1838.2 453.39 1847.57 453.39 1856.93 453.39 1866.3 453.39 1875.67 453.39 1885.03 453.39 1894.4 453.39 1903.76 453.39 1913.13 453.39 1922.49 453.39 1931.86 453.39 1941.23 453.39 1950.59 453.39 1959.96 453.39 1959.96 462.78 1969.33 462.78 1978.69 462.78 1988.06 462.78 1988.06 472.17 1997.42 472.17 2006.79 472.17 2016.15 472.17 2025.52 472.17 2034.89 472.17 2044.25 472.17 2053.62 472.17 2062.98 472.17 2072.35 472.17 2081.72 472.17 2081.72 462.78 2091.08 462.78 2100.45 462.78 2109.81 462.78 2109.81 453.39 2119.18 453.39 2128.54 453.39 2137.91 453.39 2137.91 444 2147.28 444 2156.64 444 2166.01 444 2166.01 434.61 2166.01 425.22 2166.01 415.83 2166.01 406.44 2156.64 406.44"/></g></g></svg>