<svg xmlns="http://www.w3.org/2000/svg" viewBox="0 0 1920 780"><defs><style>.cls-1{fill:#d8d8d8;}.cls-2{opacity:0.86;}.cls-3{fill:#939393;}.cls-4{fill:#898989;}.cls-5{fill:#605f5f;}.cls-6{fill:#a5a5a5;}</style></defs><title>smog_9</title><g id="fond"><rect class="cls-1" x="2.78" width="1917.22" height="780"/></g><g id="nuage1"><g class="cls-2"><polygon class="cls-3" points="948.59 80.09 939.23 80.09 929.86 80.09 920.5 80.09 911.13 80.09 911.13 70.7 911.13 61.3 901.76 61.3 901.76 51.91 892.4 51.91 883.03 51.91 883.03 42.52 873.67 42.52 864.3 42.52 864.3 33.13 854.93 33.13 845.57 33.13 836.2 33.13 826.84 33.13 817.47 33.13 817.47 42.52 808.11 42.52 798.74 42.52 798.74 51.91 789.37 51.91 789.37 42.52 780.01 42.52 780.01 33.13 770.64 33.13 761.28 33.13 751.91 33.13 751.91 23.74 742.54 23.74 733.18 23.74 723.81 23.74 714.45 23.74 714.45 33.13 705.08 33.13 695.72 33.13 695.72 42.52 686.35 42.52 686.35 51.91 686.35 61.3 676.98 61.3 676.98 70.7 676.98 80.09 676.98 89.48 667.62 89.48 658.25 89.48 648.89 89.48 639.52 89.48 630.15 89.48 620.79 89.48 611.42 89.48 611.42 98.87 602.06 98.87 602.06 108.26 592.69 108.26 592.69 117.65 592.69 127.04 583.33 127.04 583.33 136.44 573.96 136.44 564.59 136.44 555.23 136.44 545.86 136.44 536.5 136.44 527.13 136.44 517.76 136.44 508.4 136.44 508.4 145.83 499.03 145.83 499.03 155.22 489.67 155.22 480.3 155.22 480.3 145.83 470.94 145.83 461.57 145.83 461.57 136.44 452.2 136.44 452.2 127.04 442.84 127.04 433.47 127.04 424.11 127.04 424.11 136.44 414.74 136.44 414.74 145.83 405.37 145.83 405.37 136.44 396.01 136.44 386.64 136.44 377.28 136.44 367.91 136.44 358.54 136.44 358.54 145.83 349.18 145.83 339.81 145.83 339.81 155.22 330.45 155.22 330.45 164.61 321.08 164.61 321.08 174 321.08 183.39 321.08 192.78 311.71 192.78 311.71 202.17 302.35 202.17 302.35 192.78 292.98 192.78 292.98 183.39 283.62 183.39 283.62 174 274.25 174 264.89 174 255.52 174 246.15 174 236.79 174 227.42 174 227.42 183.39 218.06 183.39 218.06 192.78 208.69 192.78 199.32 192.78 189.96 192.78 180.59 192.78 180.59 202.17 171.23 202.17 171.23 211.56 171.23 220.96 161.86 220.96 161.86 230.35 152.5 230.35 143.13 230.35 133.76 230.35 124.4 230.35 115.03 230.35 115.03 239.74 105.67 239.74 105.67 249.13 105.67 258.52 105.67 267.91 105.67 277.3 115.03 277.3 115.03 267.91 124.4 267.91 133.76 267.91 133.76 258.52 143.13 258.52 152.5 258.52 152.5 249.13 161.86 249.13 171.23 249.13 171.23 239.74 180.59 239.74 180.59 230.35 189.96 230.35 189.96 220.96 199.32 220.96 208.69 220.96 208.69 211.56 218.06 211.56 227.42 211.56 227.42 202.17 236.79 202.17 246.15 202.17 255.52 202.17 264.89 202.17 264.89 211.56 274.25 211.56 283.62 211.56 283.62 220.96 292.98 220.96 292.98 230.35 302.35 230.35 302.35 239.74 302.35 249.13 311.71 249.13 321.08 249.13 321.08 239.74 330.45 239.74 339.81 239.74 339.81 230.35 349.18 230.35 349.18 220.96 358.54 220.96 367.91 220.96 367.91 211.56 377.28 211.56 377.28 202.17 386.64 202.17 396.01 202.17 405.37 202.17 405.37 192.78 414.74 192.78 424.11 192.78 433.47 192.78 433.47 183.39 442.84 183.39 452.2 183.39 452.2 192.78 461.57 192.78 470.94 192.78 470.94 202.17 480.3 202.17 489.67 202.17 499.03 202.17 499.03 211.56 508.4 211.56 517.76 211.56 517.76 202.17 527.13 202.17 527.13 192.78 536.5 192.78 536.5 183.39 545.86 183.39 545.86 174 555.23 174 555.23 164.61 564.59 164.61 573.96 164.61 583.33 164.61 583.33 155.22 592.69 155.22 602.06 155.22 611.42 155.22 620.79 155.22 630.15 155.22 639.52 155.22 639.52 164.61 648.89 164.61 648.89 174 658.25 174 658.25 183.39 667.62 183.39 676.98 183.39 676.98 192.78 686.35 192.78 686.35 183.39 686.35 174 695.72 174 695.72 164.61 695.72 155.22 705.08 155.22 705.08 145.83 705.08 136.44 714.45 136.44 723.81 136.44 723.81 127.04 733.18 127.04 742.54 127.04 751.91 127.04 761.28 127.04 770.64 127.04 780.01 127.04 789.37 127.04 798.74 127.04 798.74 136.44 808.11 136.44 817.47 136.44 817.47 145.83 826.84 145.83 836.2 145.83 836.2 155.22 845.57 155.22 854.93 155.22 854.93 164.61 864.3 164.61 873.67 164.61 883.03 164.61 883.03 155.22 892.4 155.22 892.4 145.83 892.4 136.44 901.76 136.44 901.76 127.04 911.13 127.04 911.13 117.65 920.5 117.65 920.5 108.26 929.86 108.26 939.23 108.26 939.23 98.87 948.59 98.87 957.96 98.87 957.96 89.48 967.33 89.48 967.33 80.09 957.96 80.09 948.59 80.09"/><rect class="cls-3" x="1051.62" y="136.43" width="9.37" height="9.39"/><polygon class="cls-4" points="302.35 249.13 302.35 239.74 302.35 230.35 292.98 230.35 292.98 220.96 283.62 220.96 283.62 211.56 274.25 211.56 264.89 211.56 264.89 202.17 255.52 202.17 246.15 202.17 236.79 202.17 227.42 202.17 227.42 211.56 218.06 211.56 208.69 211.56 208.69 220.96 199.32 220.96 189.96 220.96 189.96 230.35 180.59 230.35 180.59 239.74 171.23 239.74 171.23 249.13 161.86 249.13 152.5 249.13 152.5 258.52 143.13 258.52 133.76 258.52 133.76 267.91 124.4 267.91 115.03 267.91 115.03 277.3 115.03 286.7 124.4 286.7 133.76 286.7 143.13 286.7 152.5 286.7 152.5 296.09 161.86 296.09 171.23 296.09 180.59 296.09 189.96 296.09 199.32 296.09 199.32 286.7 208.69 286.7 218.06 286.7 227.42 286.7 236.79 286.7 246.15 286.7 246.15 296.09 255.52 296.09 264.89 296.09 274.25 296.09 274.25 286.7 283.62 286.7 283.62 277.3 292.98 277.3 292.98 267.91 302.35 267.91 302.35 258.52 311.71 258.52 321.08 258.52 321.08 249.13 311.71 249.13 302.35 249.13"/><polygon class="cls-4" points="1089.08 249.13 1089.08 239.74 1089.08 230.35 1089.08 220.96 1079.71 220.96 1070.35 220.96 1070.35 211.56 1060.98 211.56 1060.98 202.17 1060.98 192.78 1070.35 192.78 1070.35 183.39 1070.35 174 1070.35 164.61 1060.98 164.61 1060.98 155.22 1060.98 145.83 1051.62 145.83 1051.62 136.44 1042.25 136.44 1032.89 136.44 1023.52 136.44 1014.15 136.44 1014.15 127.04 1004.79 127.04 1004.79 117.65 1004.79 108.26 995.42 108.26 995.42 98.87 986.06 98.87 986.06 89.48 976.69 89.48 967.33 89.48 957.96 89.48 957.96 98.87 948.59 98.87 939.23 98.87 939.23 108.26 929.86 108.26 920.5 108.26 920.5 117.65 911.13 117.65 911.13 127.04 901.76 127.04 901.76 136.44 892.4 136.44 892.4 145.83 892.4 155.22 883.03 155.22 883.03 164.61 873.67 164.61 864.3 164.61 854.93 164.61 854.93 155.22 845.57 155.22 836.2 155.22 836.2 145.83 826.84 145.83 817.47 145.83 817.47 136.44 808.11 136.44 798.74 136.44 798.74 127.04 789.37 127.04 780.01 127.04 770.64 127.04 761.28 127.04 751.91 127.04 742.54 127.04 733.18 127.04 723.81 127.04 723.81 136.44 714.45 136.44 705.08 136.44 705.08 145.83 705.08 155.22 695.72 155.22 695.72 164.61 695.72 174 686.35 174 686.35 183.39 686.35 192.78 676.98 192.78 676.98 183.39 667.62 183.39 658.25 183.39 658.25 174 648.89 174 648.89 164.61 639.52 164.61 639.52 155.22 630.15 155.22 620.79 155.22 611.42 155.22 602.06 155.22 592.69 155.22 583.33 155.22 583.33 164.61 573.96 164.61 564.59 164.61 555.23 164.61 555.23 174 545.86 174 545.86 183.39 536.5 183.39 536.5 192.78 527.13 192.78 527.13 202.17 517.76 202.17 517.76 211.56 508.4 211.56 499.03 211.56 499.03 202.17 489.67 202.17 480.3 202.17 470.94 202.17 470.94 192.78 461.57 192.78 452.2 192.78 452.2 183.39 442.84 183.39 433.47 183.39 433.47 192.78 424.11 192.78 414.74 192.78 405.37 192.78 405.37 202.17 396.01 202.17 386.64 202.17 377.28 202.17 377.28 211.56 367.91 211.56 367.91 220.96 358.54 220.96 349.18 220.96 349.18 230.35 339.81 230.35 339.81 239.74 330.45 239.74 321.08 239.74 321.08 249.13 330.45 249.13 339.81 249.13 339.81 258.52 349.18 258.52 358.54 258.52 367.91 258.52 367.91 267.91 377.28 267.91 377.28 277.3 386.64 277.3 386.64 286.7 396.01 286.7 405.37 286.7 414.74 286.7 414.74 296.09 424.11 296.09 433.47 296.09 442.84 296.09 452.2 296.09 461.57 296.09 470.94 296.09 470.94 286.7 480.3 286.7 489.67 286.7 489.67 277.3 499.03 277.3 508.4 277.3 517.76 277.3 527.13 277.3 527.13 286.7 536.5 286.7 545.86 286.7 545.86 296.09 555.23 296.09 564.59 296.09 573.96 296.09 583.33 296.09 592.69 296.09 602.06 296.09 611.42 296.09 620.79 296.09 620.79 305.48 630.15 305.48 630.15 296.09 639.52 296.09 639.52 286.7 648.89 286.7 648.89 277.3 648.89 267.91 658.25 267.91 658.25 258.52 667.62 258.52 676.98 258.52 686.35 258.52 695.72 258.52 705.08 258.52 714.45 258.52 714.45 267.91 723.81 267.91 733.18 267.91 733.18 277.3 742.54 277.3 742.54 286.7 751.91 286.7 751.91 296.09 761.28 296.09 761.28 305.48 770.64 305.48 770.64 296.09 780.01 296.09 789.37 296.09 798.74 296.09 798.74 286.7 808.11 286.7 808.11 277.3 817.47 277.3 826.84 277.3 826.84 267.91 836.2 267.91 845.57 267.91 854.93 267.91 864.3 267.91 873.67 267.91 883.03 267.91 883.03 277.3 892.4 277.3 892.4 286.7 901.76 286.7 901.76 296.09 911.13 296.09 920.5 296.09 929.86 296.09 929.86 286.7 939.23 286.7 939.23 277.3 948.59 277.3 957.96 277.3 967.33 277.3 976.69 277.3 986.06 277.3 986.06 286.7 995.42 286.7 1004.79 286.7 1014.15 286.7 1014.15 277.3 1023.52 277.3 1023.52 267.91 1032.89 267.91 1032.89 258.52 1042.25 258.52 1051.62 258.52 1060.98 258.52 1070.35 258.52 1070.35 267.91 1079.71 267.91 1089.08 267.91 1098.45 267.91 1098.45 258.52 1098.45 249.13 1089.08 249.13"/><polygon class="cls-5" points="1107.81 286.7 1107.81 277.3 1098.45 277.3 1098.45 267.91 1089.08 267.91 1079.71 267.91 1070.35 267.91 1070.35 258.52 1060.98 258.52 1051.62 258.52 1042.25 258.52 1032.89 258.52 1032.89 267.91 1023.52 267.91 1023.52 277.3 1014.15 277.3 1014.15 286.7 1004.79 286.7 995.42 286.7 986.06 286.7 986.06 277.3 976.69 277.3 967.33 277.3 957.96 277.3 948.59 277.3 939.23 277.3 939.23 286.7 929.86 286.7 929.86 296.09 920.5 296.09 911.13 296.09 901.76 296.09 901.76 286.7 892.4 286.7 892.4 277.3 883.03 277.3 883.03 267.91 873.67 267.91 864.3 267.91 854.93 267.91 845.57 267.91 836.2 267.91 826.84 267.91 826.84 277.3 817.47 277.3 808.11 277.3 808.11 286.7 798.74 286.7 798.74 296.09 789.37 296.09 780.01 296.09 770.64 296.09 770.64 305.48 761.28 305.48 761.28 296.09 751.91 296.09 751.91 286.7 742.54 286.7 742.54 277.3 733.18 277.3 733.18 267.91 723.81 267.91 714.45 267.91 714.45 258.52 705.08 258.52 695.72 258.52 686.35 258.52 676.98 258.52 667.62 258.52 658.25 258.52 658.25 267.91 648.89 267.91 648.89 277.3 648.89 286.7 639.52 286.7 639.52 296.09 630.15 296.09 630.15 305.48 620.79 305.48 620.79 296.09 611.42 296.09 602.06 296.09 592.69 296.09 583.33 296.09 573.96 296.09 564.59 296.09 555.23 296.09 545.86 296.09 545.86 286.7 536.5 286.7 527.13 286.7 527.13 277.3 517.76 277.3 508.4 277.3 499.03 277.3 489.67 277.3 489.67 286.7 480.3 286.7 470.94 286.7 470.94 296.09 461.57 296.09 452.2 296.09 442.84 296.09 433.47 296.09 424.11 296.09 414.74 296.09 414.74 286.7 405.37 286.7 396.01 286.7 386.64 286.7 386.64 277.3 377.28 277.3 377.28 267.91 367.91 267.91 367.91 258.52 358.54 258.52 349.18 258.52 339.81 258.52 339.81 249.13 330.45 249.13 321.08 249.13 321.08 258.52 311.71 258.52 302.35 258.52 302.35 267.91 292.98 267.91 292.98 277.3 283.62 277.3 283.62 286.7 274.25 286.7 274.25 296.09 264.89 296.09 255.52 296.09 246.15 296.09 246.15 286.7 236.79 286.7 227.42 286.7 218.06 286.7 208.69 286.7 199.32 286.7 199.32 296.09 189.96 296.09 180.59 296.09 171.23 296.09 161.86 296.09 152.5 296.09 152.5 286.7 143.13 286.7 133.76 286.7 124.4 286.7 115.03 286.7 115.03 296.09 105.67 296.09 105.67 305.48 115.03 305.48 115.03 314.87 124.4 314.87 124.4 324.26 133.76 324.26 143.13 324.26 152.5 324.26 161.86 324.26 171.23 324.26 180.59 324.26 189.96 324.26 199.32 324.26 199.32 314.87 208.69 314.87 218.06 314.87 227.42 314.87 236.79 314.87 246.15 314.87 255.52 314.87 264.89 314.87 274.25 314.87 274.25 324.26 283.62 324.26 292.98 324.26 292.98 333.65 302.35 333.65 311.71 333.65 311.71 343.04 321.08 343.04 321.08 352.44 330.45 352.44 339.81 352.44 349.18 352.44 358.54 352.44 367.91 352.44 377.28 352.44 386.64 352.44 396.01 352.44 396.01 343.04 405.37 343.04 414.74 343.04 424.11 343.04 433.47 343.04 442.84 343.04 452.2 343.04 452.2 333.65 461.57 333.65 470.94 333.65 480.3 333.65 489.67 333.65 499.03 333.65 508.4 333.65 517.76 333.65 527.13 333.65 536.5 333.65 536.5 343.04 545.86 343.04 555.23 343.04 564.59 343.04 573.96 343.04 583.33 343.04 583.33 352.44 592.69 352.44 602.06 352.44 611.42 352.44 620.79 352.44 630.15 352.44 639.52 352.44 648.89 352.44 658.25 352.44 667.62 352.44 676.98 352.44 676.98 343.04 686.35 343.04 695.72 343.04 705.08 343.04 714.45 343.04 723.81 343.04 733.18 343.04 742.54 343.04 751.91 343.04 761.28 343.04 770.64 343.04 780.01 343.04 789.37 343.04 789.37 333.65 798.74 333.65 808.11 333.65 817.47 333.65 826.84 333.65 836.2 333.65 845.57 333.65 854.93 333.65 864.3 333.65 873.67 333.65 883.03 333.65 892.4 333.65 901.76 333.65 911.13 333.65 911.13 343.04 920.5 343.04 929.86 343.04 939.23 343.04 939.23 352.44 948.59 352.44 957.96 352.44 967.33 352.44 976.69 352.44 986.06 352.44 995.42 352.44 1004.79 352.44 1014.15 352.44 1023.52 352.44 1032.89 352.44 1032.89 343.04 1042.25 343.04 1051.62 343.04 1060.98 343.04 1060.98 333.65 1070.35 333.65 1079.71 333.65 1089.08 333.65 1089.08 324.26 1098.45 324.26 1107.81 324.26 1117.18 324.26 1117.18 314.87 1117.18 305.48 1117.18 296.09 1117.18 286.7 1107.81 286.7"/></g></g><g id="nuage2"><g class="cls-2"><polygon class="cls-6" points="82.16 176.7 82.16 167.3 82.16 157.91 72.8 157.91 63.43 157.91 54.06 157.91 54.06 148.52 54.06 139.13 44.7 139.13 44.7 129.74 35.33 129.74 35.33 120.35 25.97 120.35 16.6 120.35 16.6 110.96 7.24 110.96 -2.13 110.96 -11.5 110.96 -20.86 110.96 -20.86 101.56 -30.23 101.56 -30.23 92.17 -39.59 92.17 -48.96 92.17 -58.33 92.17 -67.69 92.17 -77.06 92.17 -77.06 82.78 -86.42 82.78 -86.42 73.39 -95.79 73.39 -105.16 73.39 -114.52 73.39 -114.52 64 -123.89 64 -133.25 64 -133.25 73.39 -142.62 73.39 -151.99 73.39 -151.99 82.78 -161.35 82.78 -170.72 82.78 -180.08 82.78 -189.45 82.78 -198.81 82.78 -208.18 82.78 -217.55 82.78 -226.91 82.78 -226.91 92.17 -236.28 92.17 -245.64 92.17 -245.64 101.56 -245.64 110.96 -245.64 120.35 -255.01 120.35 -255.01 129.74 -264.38 129.74 -264.38 139.13 -273.74 139.13 -273.74 148.52 -273.74 157.91 -273.74 167.3 -283.11 167.3 -283.11 176.7 -283.11 186.09 -273.74 186.09 -273.74 176.7 -264.38 176.7 -264.38 167.3 -255.01 167.3 -255.01 157.91 -245.64 157.91 -245.64 148.52 -236.28 148.52 -236.28 139.13 -226.91 139.13 -217.55 139.13 -208.18 139.13 -198.81 139.13 -189.45 139.13 -189.45 148.52 -180.08 148.52 -180.08 157.91 -170.72 157.91 -161.35 157.91 -161.35 148.52 -151.99 148.52 -151.99 139.13 -142.62 139.13 -142.62 129.74 -133.25 129.74 -133.25 120.35 -123.89 120.35 -123.89 110.96 -114.52 110.96 -114.52 101.56 -105.16 101.56 -95.79 101.56 -86.42 101.56 -77.06 101.56 -77.06 110.96 -67.69 110.96 -58.33 110.96 -58.33 120.35 -48.96 120.35 -39.59 120.35 -39.59 129.74 -39.59 139.13 -39.59 148.52 -39.59 157.91 -30.23 157.91 -20.86 157.91 -11.5 157.91 -11.5 148.52 -2.13 148.52 -2.13 139.13 7.24 139.13 16.6 139.13 25.97 139.13 25.97 148.52 25.97 157.91 35.33 157.91 35.33 167.3 44.7 167.3 54.06 167.3 63.43 167.3 63.43 176.7 72.8 176.7 72.8 186.09 82.16 186.09 82.16 195.48 91.53 195.48 91.53 186.09 91.53 176.7 82.16 176.7"/><polygon class="cls-4" points="25.97 157.91 25.97 148.52 25.97 139.13 16.6 139.13 7.24 139.13 -2.13 139.13 -2.13 148.52 -11.5 148.52 -11.5 157.91 -11.5 167.3 -2.13 167.3 -2.13 176.7 7.24 176.7 7.24 186.09 16.6 186.09 16.6 195.48 25.97 195.48 25.97 186.09 25.97 176.7 35.33 176.7 35.33 167.3 35.33 157.91 25.97 157.91"/><polygon class="cls-5" points="82.16 195.48 82.16 186.09 72.8 186.09 72.8 176.7 63.43 176.7 63.43 167.3 54.06 167.3 44.7 167.3 35.33 167.3 35.33 176.7 25.97 176.7 25.97 186.09 25.97 195.48 16.6 195.48 16.6 186.09 7.24 186.09 7.24 176.7 -2.13 176.7 -2.13 167.3 -11.5 167.3 -11.5 157.91 -20.86 157.91 -30.23 157.91 -39.59 157.91 -39.59 167.3 -48.96 167.3 -58.33 167.3 -58.33 176.7 -67.69 176.7 -67.69 186.09 -77.06 186.09 -77.06 195.48 -86.42 195.48 -95.79 195.48 -105.16 195.48 -105.16 186.09 -114.52 186.09 -123.89 186.09 -123.89 176.7 -133.25 176.7 -142.62 176.7 -151.99 176.7 -161.35 176.7 -161.35 186.09 -170.72 186.09 -170.72 195.48 -170.72 204.87 -180.08 204.87 -180.08 195.48 -189.45 195.48 -198.81 195.48 -208.18 195.48 -217.55 195.48 -217.55 204.87 -226.91 204.87 -236.28 204.87 -236.28 214.26 -245.64 214.26 -255.01 214.26 -264.38 214.26 -264.38 204.87 -273.74 204.87 -273.74 214.26 -273.74 223.65 -264.38 223.65 -264.38 233.04 -255.01 233.04 -255.01 242.44 -245.64 242.44 -236.28 242.44 -226.91 242.44 -217.55 242.44 -208.18 242.44 -198.81 242.44 -198.81 251.83 -189.45 251.83 -180.08 251.83 -170.72 251.83 -161.35 251.83 -151.99 251.83 -151.99 242.44 -142.62 242.44 -133.25 242.44 -123.89 242.44 -114.52 242.44 -114.52 233.04 -105.16 233.04 -105.16 242.44 -95.79 242.44 -86.42 242.44 -77.06 242.44 -67.69 242.44 -67.69 251.83 -58.33 251.83 -48.96 251.83 -39.59 251.83 -30.23 251.83 -20.86 251.83 -11.5 251.83 -2.13 251.83 -2.13 242.44 7.24 242.44 16.6 242.44 25.97 242.44 35.33 242.44 44.7 242.44 54.06 242.44 63.43 242.44 72.8 242.44 72.8 233.04 82.16 233.04 82.16 223.65 91.53 223.65 91.53 214.26 91.53 204.87 91.53 195.48 82.16 195.48"/></g></g><g id="nuage3"><g class="cls-2"><polygon class="cls-6" points="1031.76 624.78 1022.4 624.78 1022.4 615.39 1013.03 615.39 1003.67 615.39 1003.67 606 994.3 606 984.93 606 975.57 606 966.2 606 966.2 596.61 956.84 596.61 947.47 596.61 938.11 596.61 938.11 587.22 928.74 587.22 928.74 577.83 919.37 577.83 919.37 568.43 910.01 568.43 900.64 568.43 891.28 568.43 881.91 568.43 881.91 577.83 872.54 577.83 872.54 568.43 872.54 559.04 863.18 559.04 863.18 549.65 863.18 540.26 853.81 540.26 844.45 540.26 844.45 530.87 835.08 530.87 835.08 521.48 835.08 512.09 825.72 512.09 816.35 512.09 806.98 512.09 797.62 512.09 788.25 512.09 788.25 502.7 778.89 502.7 769.52 502.7 760.15 502.7 750.79 502.7 741.42 502.7 732.06 502.7 732.06 512.09 722.69 512.09 713.33 512.09 703.96 512.09 694.59 512.09 685.23 512.09 685.23 521.48 675.86 521.48 666.5 521.48 666.5 512.09 657.13 512.09 657.13 502.7 647.76 502.7 638.4 502.7 629.03 502.7 629.03 493.3 619.67 493.3 610.3 493.3 600.93 493.3 591.57 493.3 582.2 493.3 572.84 493.3 572.84 483.91 572.84 474.52 572.84 465.13 563.47 465.13 563.47 455.74 554.11 455.74 544.74 455.74 544.74 446.35 535.37 446.35 526.01 446.35 526.01 436.96 516.64 436.96 507.28 436.96 497.91 436.96 488.54 436.96 488.54 427.56 479.18 427.56 479.18 418.17 469.81 418.17 460.45 418.17 451.08 418.17 451.08 408.78 441.71 408.78 432.35 408.78 422.98 408.78 413.62 408.78 404.25 408.78 404.25 399.39 394.89 399.39 394.89 390 385.52 390 385.52 380.61 376.15 380.61 376.15 371.22 366.79 371.22 357.42 371.22 357.42 361.83 348.06 361.83 338.69 361.83 329.32 361.83 319.96 361.83 310.59 361.83 301.23 361.83 301.23 371.22 291.86 371.22 282.5 371.22 273.13 371.22 273.13 380.61 263.76 380.61 263.76 371.22 254.4 371.22 254.4 361.83 245.03 361.83 245.03 352.44 235.67 352.44 226.3 352.44 216.94 352.44 207.57 352.44 198.2 352.44 188.84 352.44 179.47 352.44 170.1 352.44 160.74 352.44 151.37 352.44 142.01 352.44 142.01 361.83 132.64 361.83 123.28 361.83 113.91 361.83 113.91 371.22 104.54 371.22 104.54 380.61 95.18 380.61 95.18 390 85.81 390 85.81 399.39 76.45 399.39 76.45 408.78 67.08 408.78 57.72 408.78 48.35 408.78 48.35 418.17 38.98 418.17 29.62 418.17 20.25 418.17 10.89 418.17 10.89 408.78 1.52 408.78 -7.85 408.78 -17.21 408.78 -26.58 408.78 -35.94 408.78 -35.94 418.17 -45.31 418.17 -54.67 418.17 -64.04 418.17 -73.41 418.17 -73.41 427.56 -73.41 436.96 -82.77 436.96 -82.77 446.35 -82.77 455.74 -82.77 465.13 -73.41 465.13 -73.41 455.74 -64.04 455.74 -54.67 455.74 -45.31 455.74 -35.94 455.74 -26.58 455.74 -17.21 455.74 -7.85 455.74 1.52 455.74 10.89 455.74 20.25 455.74 29.62 455.74 38.98 455.74 38.98 465.13 48.35 465.13 57.72 465.13 67.08 465.13 67.08 474.52 76.45 474.52 85.81 474.52 85.81 483.91 95.18 483.91 95.18 474.52 95.18 465.13 104.54 465.13 104.54 455.74 104.54 446.35 113.91 446.35 113.91 436.96 123.28 436.96 123.28 427.56 132.64 427.56 132.64 418.17 142.01 418.17 151.37 418.17 151.37 408.78 160.74 408.78 170.1 408.78 170.1 399.39 179.47 399.39 188.84 399.39 198.2 399.39 207.57 399.39 207.57 408.78 216.94 408.78 226.3 408.78 235.67 408.78 245.03 408.78 254.4 408.78 263.76 408.78 263.76 418.17 273.13 418.17 273.13 427.56 282.5 427.56 282.5 436.96 291.86 436.96 291.86 446.35 291.86 455.74 301.23 455.74 301.23 465.13 310.59 465.13 310.59 474.52 319.96 474.52 319.96 483.91 319.96 493.3 329.32 493.3 338.69 493.3 348.06 493.3 348.06 483.91 357.42 483.91 366.79 483.91 366.79 474.52 376.15 474.52 385.52 474.52 394.89 474.52 394.89 465.13 404.25 465.13 413.62 465.13 422.98 465.13 432.35 465.13 441.71 465.13 441.71 474.52 451.08 474.52 460.45 474.52 469.81 474.52 469.81 483.91 479.18 483.91 479.18 493.3 488.54 493.3 497.91 493.3 497.91 502.7 507.28 502.7 507.28 512.09 516.64 512.09 516.64 521.48 516.64 530.87 516.64 540.26 526.01 540.26 526.01 549.65 535.37 549.65 544.74 549.65 554.11 549.65 554.11 559.04 563.47 559.04 572.84 559.04 582.2 559.04 591.57 559.04 591.57 549.65 600.93 549.65 610.3 549.65 619.67 549.65 629.03 549.65 629.03 559.04 638.4 559.04 647.76 559.04 657.13 559.04 657.13 568.43 666.5 568.43 675.86 568.43 675.86 559.04 685.23 559.04 685.23 549.65 694.59 549.65 694.59 540.26 703.96 540.26 703.96 530.87 713.33 530.87 722.69 530.87 732.06 530.87 741.42 530.87 750.79 530.87 750.79 540.26 760.15 540.26 769.52 540.26 769.52 549.65 778.89 549.65 788.25 549.65 788.25 559.04 797.62 559.04 806.98 559.04 806.98 568.43 806.98 577.83 816.35 577.83 816.35 587.22 825.72 587.22 825.72 596.61 835.08 596.61 835.08 606 844.45 606 853.81 606 863.18 606 872.54 606 881.91 606 891.28 606 891.28 596.61 900.64 596.61 910.01 596.61 919.37 596.61 919.37 606 928.74 606 938.11 606 947.47 606 947.47 615.39 956.84 615.39 966.2 615.39 966.2 624.78 975.57 624.78 975.57 634.17 984.93 634.17 994.3 634.17 1003.67 634.17 1013.03 634.17 1022.4 634.17 1031.76 634.17 1041.13 634.17 1050.49 634.17 1050.49 624.78 1041.13 624.78 1031.76 624.78"/><polygon class="cls-6" points="1097.33 643.57 1097.33 652.96 1106.69 652.96 1116.06 652.96 1116.06 643.57 1106.69 643.57 1097.33 643.57"/><polygon class="cls-6" points="1219.08 643.57 1209.71 643.57 1200.35 643.57 1190.98 643.57 1181.62 643.57 1172.25 643.57 1172.25 652.96 1181.62 652.96 1190.98 652.96 1200.35 652.96 1209.71 652.96 1219.08 652.96 1228.45 652.96 1228.45 643.57 1219.08 643.57"/><polygon class="cls-6" points="1153.52 652.96 1144.15 652.96 1134.79 652.96 1125.42 652.96 1125.42 662.35 1134.79 662.35 1144.15 662.35 1153.52 662.35 1162.89 662.35 1172.25 662.35 1172.25 652.96 1162.89 652.96 1153.52 652.96"/><polygon class="cls-6" points="1228.45 652.96 1228.45 662.35 1237.81 662.35 1247.18 662.35 1247.18 652.96 1237.81 652.96 1228.45 652.96"/><polygon class="cls-6" points="1340.84 662.35 1331.47 662.35 1322.11 662.35 1322.11 652.96 1312.74 652.96 1303.37 652.96 1294.01 652.96 1284.64 652.96 1275.28 652.96 1275.28 662.35 1284.64 662.35 1294.01 662.35 1294.01 671.74 1303.37 671.74 1303.37 681.13 1312.74 681.13 1322.11 681.13 1331.47 681.13 1340.84 681.13 1350.2 681.13 1350.2 671.74 1350.2 662.35 1340.84 662.35"/><polygon class="cls-4" points="554.11 549.65 544.74 549.65 535.37 549.65 526.01 549.65 526.01 540.26 516.64 540.26 516.64 530.87 516.64 521.48 516.64 512.09 507.28 512.09 507.28 502.7 497.91 502.7 497.91 493.3 488.54 493.3 479.18 493.3 479.18 483.91 469.81 483.91 469.81 474.52 460.45 474.52 451.08 474.52 441.71 474.52 441.71 465.13 432.35 465.13 422.98 465.13 413.62 465.13 404.25 465.13 394.89 465.13 394.89 474.52 385.52 474.52 376.15 474.52 366.79 474.52 366.79 483.91 357.42 483.91 348.06 483.91 348.06 493.3 338.69 493.3 329.32 493.3 319.96 493.3 319.96 483.91 319.96 474.52 310.59 474.52 310.59 465.13 301.23 465.13 301.23 455.74 291.86 455.74 291.86 446.35 291.86 436.96 282.5 436.96 282.5 427.56 273.13 427.56 273.13 418.17 263.76 418.17 263.76 408.78 254.4 408.78 245.03 408.78 235.67 408.78 226.3 408.78 216.94 408.78 207.57 408.78 207.57 399.39 198.2 399.39 188.84 399.39 179.47 399.39 170.1 399.39 170.1 408.78 160.74 408.78 151.37 408.78 151.37 418.17 142.01 418.17 132.64 418.17 132.64 427.56 123.28 427.56 123.28 436.96 113.91 436.96 113.91 446.35 104.54 446.35 104.54 455.74 104.54 465.13 95.18 465.13 95.18 474.52 95.18 483.91 85.81 483.91 85.81 474.52 76.45 474.52 67.08 474.52 67.08 465.13 57.72 465.13 48.35 465.13 38.98 465.13 38.98 455.74 29.62 455.74 20.25 455.74 10.89 455.74 1.52 455.74 -7.85 455.74 -17.21 455.74 -26.58 455.74 -35.94 455.74 -45.31 455.74 -54.67 455.74 -64.04 455.74 -73.41 455.74 -73.41 465.13 -82.77 465.13 -82.77 474.52 -92.14 474.52 -92.14 483.91 -101.5 483.91 -101.5 493.3 -110.87 493.3 -110.87 502.7 -110.87 512.09 -110.87 521.48 -110.87 530.87 -120.24 530.87 -120.24 540.26 -120.24 549.65 -120.24 559.04 -129.6 559.04 -138.97 559.04 -148.33 559.04 -148.33 549.65 -157.7 549.65 -167.06 549.65 -176.43 549.65 -176.43 540.26 -185.8 540.26 -195.16 540.26 -204.53 540.26 -213.9 540.26 -223.26 540.26 -223.26 549.65 -232.63 549.65 -232.63 559.04 -232.63 568.43 -241.99 568.43 -241.99 577.83 -241.99 587.22 -251.36 587.22 -251.36 596.61 -260.72 596.61 -260.72 606 -270.09 606 -279.46 606 -288.82 606 -298.19 606 -307.55 606 -316.92 606 -326.29 606 -335.65 606 -345.02 606 -354.38 606 -363.75 606 -363.75 615.39 -373.11 615.39 -373.11 624.78 -382.48 624.78 -382.48 634.17 -391.85 634.17 -401.21 634.17 -401.21 643.57 -410.58 643.57 -419.94 643.57 -419.94 652.96 -429.31 652.96 -429.31 662.35 -438.68 662.35 -438.68 671.74 -438.68 681.13 -429.31 681.13 -429.31 671.74 -419.94 671.74 -410.58 671.74 -410.58 662.35 -401.21 662.35 -391.85 662.35 -391.85 652.96 -382.48 652.96 -373.11 652.96 -363.75 652.96 -354.38 652.96 -345.02 652.96 -335.65 652.96 -326.29 652.96 -316.92 652.96 -307.55 652.96 -307.55 643.57 -298.19 643.57 -288.82 643.57 -279.46 643.57 -279.46 634.17 -270.09 634.17 -270.09 624.78 -260.72 624.78 -251.36 624.78 -251.36 615.39 -241.99 615.39 -241.99 606 -232.63 606 -223.26 606 -223.26 596.61 -213.9 596.61 -213.9 587.22 -204.53 587.22 -195.16 587.22 -185.8 587.22 -176.43 587.22 -176.43 577.83 -167.06 577.83 -157.7 577.83 -148.33 577.83 -138.97 577.83 -129.6 577.83 -120.24 577.83 -120.24 587.22 -110.87 587.22 -101.5 587.22 -92.14 587.22 -82.77 587.22 -82.77 596.61 -73.41 596.61 -64.04 596.61 -54.67 596.61 -54.67 606 -45.31 606 -45.31 596.61 -35.94 596.61 -35.94 587.22 -26.58 587.22 -26.58 577.83 -26.58 568.43 -17.21 568.43 -17.21 559.04 -17.21 549.65 -7.85 549.65 -7.85 540.26 1.52 540.26 1.52 530.87 10.89 530.87 10.89 521.48 20.25 521.48 29.62 521.48 38.98 521.48 48.35 521.48 57.72 521.48 67.08 521.48 76.45 521.48 85.81 521.48 95.18 521.48 104.54 521.48 104.54 530.87 113.91 530.87 113.91 540.26 123.28 540.26 132.64 540.26 132.64 549.65 142.01 549.65 151.37 549.65 151.37 559.04 160.74 559.04 160.74 549.65 170.1 549.65 179.47 549.65 179.47 540.26 188.84 540.26 198.2 540.26 207.57 540.26 216.94 540.26 226.3 540.26 226.3 549.65 235.67 549.65 245.03 549.65 245.03 559.04 245.03 568.43 254.4 568.43 263.76 568.43 273.13 568.43 273.13 559.04 282.5 559.04 282.5 549.65 291.86 549.65 301.23 549.65 310.59 549.65 319.96 549.65 329.32 549.65 329.32 559.04 338.69 559.04 348.06 559.04 357.42 559.04 357.42 568.43 366.79 568.43 376.15 568.43 376.15 577.83 385.52 577.83 385.52 587.22 385.52 596.61 394.89 596.61 394.89 606 394.89 615.39 404.25 615.39 404.25 606 413.62 606 422.98 606 422.98 596.61 432.35 596.61 441.71 596.61 451.08 596.61 451.08 587.22 460.45 587.22 469.81 587.22 479.18 587.22 479.18 577.83 488.54 577.83 497.91 577.83 507.28 577.83 507.28 568.43 516.64 568.43 526.01 568.43 526.01 577.83 526.01 587.22 535.37 587.22 544.74 587.22 544.74 577.83 554.11 577.83 554.11 568.43 563.47 568.43 563.47 559.04 554.11 559.04 554.11 549.65"/><polygon class="cls-4" points="806.98 559.04 797.62 559.04 788.25 559.04 788.25 549.65 778.89 549.65 769.52 549.65 769.52 540.26 760.15 540.26 750.79 540.26 750.79 530.87 741.42 530.87 732.06 530.87 722.69 530.87 713.33 530.87 703.96 530.87 703.96 540.26 694.59 540.26 694.59 549.65 685.23 549.65 685.23 559.04 675.86 559.04 675.86 568.43 666.5 568.43 657.13 568.43 657.13 559.04 647.76 559.04 638.4 559.04 629.03 559.04 629.03 549.65 619.67 549.65 610.3 549.65 600.93 549.65 591.57 549.65 591.57 559.04 600.93 559.04 610.3 559.04 610.3 568.43 619.67 568.43 619.67 577.83 629.03 577.83 629.03 587.22 638.4 587.22 638.4 596.61 638.4 606 647.76 606 647.76 615.39 657.13 615.39 657.13 624.78 666.5 624.78 666.5 634.17 675.86 634.17 685.23 634.17 694.59 634.17 694.59 624.78 703.96 624.78 713.33 624.78 713.33 615.39 722.69 615.39 732.06 615.39 732.06 606 741.42 606 741.42 596.61 750.79 596.61 760.15 596.61 760.15 587.22 769.52 587.22 769.52 577.83 778.89 577.83 788.25 577.83 797.62 577.83 806.98 577.83 806.98 568.43 806.98 559.04"/><rect class="cls-4" x="806.98" y="577.83" width="9.37" height="9.39"/><rect class="cls-4" x="825.72" y="596.61" width="9.37" height="9.39"/><polygon class="cls-4" points="966.2 615.39 956.84 615.39 947.47 615.39 947.47 606 938.11 606 928.74 606 919.37 606 919.37 596.61 910.01 596.61 900.64 596.61 891.28 596.61 891.28 606 881.91 606 872.54 606 863.18 606 853.81 606 844.45 606 835.08 606 835.08 615.39 844.45 615.39 844.45 624.78 853.81 624.78 863.18 624.78 872.54 624.78 881.91 624.78 881.91 615.39 891.28 615.39 900.64 615.39 910.01 615.39 919.37 615.39 928.74 615.39 938.11 615.39 938.11 624.78 947.47 624.78 956.84 624.78 956.84 634.17 956.84 643.57 966.2 643.57 975.57 643.57 975.57 634.17 975.57 624.78 966.2 624.78 966.2 615.39"/><rect class="cls-4" x="1078.59" y="634.17" width="9.37" height="9.39"/><rect class="cls-4" x="1087.96" y="643.57" width="9.37" height="9.39"/><polygon class="cls-4" points="1209.71 652.96 1200.35 652.96 1190.98 652.96 1181.62 652.96 1172.25 652.96 1172.25 662.35 1162.89 662.35 1153.52 662.35 1144.15 662.35 1134.79 662.35 1125.42 662.35 1125.42 652.96 1116.06 652.96 1106.69 652.96 1097.33 652.96 1097.33 662.35 1106.69 662.35 1106.69 671.74 1116.06 671.74 1125.42 671.74 1134.79 671.74 1144.15 671.74 1144.15 681.13 1153.52 681.13 1153.52 671.74 1162.89 671.74 1172.25 671.74 1181.62 671.74 1190.98 671.74 1190.98 662.35 1200.35 662.35 1209.71 662.35 1219.08 662.35 1228.45 662.35 1228.45 652.96 1219.08 652.96 1209.71 652.96"/><polygon class="cls-4" points="1303.37 681.13 1303.37 671.74 1294.01 671.74 1294.01 662.35 1284.64 662.35 1275.28 662.35 1265.91 662.35 1256.54 662.35 1247.18 662.35 1237.81 662.35 1237.81 671.74 1247.18 671.74 1256.54 671.74 1265.91 671.74 1275.28 671.74 1284.64 671.74 1284.64 681.13 1294.01 681.13 1294.01 690.52 1303.37 690.52 1312.74 690.52 1312.74 681.13 1303.37 681.13"/><polygon class="cls-5" points="1284.64 681.13 1284.64 671.74 1275.28 671.74 1265.91 671.74 1256.54 671.74 1247.18 671.74 1237.81 671.74 1237.81 662.35 1228.45 662.35 1219.08 662.35 1209.71 662.35 1200.35 662.35 1190.98 662.35 1190.98 671.74 1181.62 671.74 1172.25 671.74 1162.89 671.74 1153.52 671.74 1153.52 681.13 1144.15 681.13 1144.15 671.74 1134.79 671.74 1125.42 671.74 1116.06 671.74 1106.69 671.74 1106.69 662.35 1097.33 662.35 1097.33 652.96 1087.96 652.96 1087.96 643.57 1078.59 643.57 1078.59 634.17 1069.23 634.17 1059.86 634.17 1050.49 634.17 1041.13 634.17 1031.76 634.17 1022.4 634.17 1013.03 634.17 1003.67 634.17 994.3 634.17 984.93 634.17 975.57 634.17 975.57 643.57 966.2 643.57 956.84 643.57 956.84 634.17 956.84 624.78 947.47 624.78 938.11 624.78 938.11 615.39 928.74 615.39 919.37 615.39 910.01 615.39 900.64 615.39 891.28 615.39 881.91 615.39 881.91 624.78 872.54 624.78 863.18 624.78 853.81 624.78 844.45 624.78 844.45 615.39 835.08 615.39 835.08 606 825.72 606 825.72 596.61 825.72 587.22 816.35 587.22 806.98 587.22 806.98 577.83 797.62 577.83 788.25 577.83 778.89 577.83 769.52 577.83 769.52 587.22 760.15 587.22 760.15 596.61 750.79 596.61 741.42 596.61 741.42 606 732.06 606 732.06 615.39 722.69 615.39 713.33 615.39 713.33 624.78 703.96 624.78 694.59 624.78 694.59 634.17 685.23 634.17 675.86 634.17 666.5 634.17 666.5 624.78 657.13 624.78 657.13 615.39 647.76 615.39 647.76 606 638.4 606 638.4 596.61 638.4 587.22 629.03 587.22 629.03 577.83 619.67 577.83 619.67 568.43 610.3 568.43 610.3 559.04 600.93 559.04 591.57 559.04 582.2 559.04 572.84 559.04 563.47 559.04 563.47 568.43 554.11 568.43 554.11 577.83 544.74 577.83 544.74 587.22 535.37 587.22 526.01 587.22 526.01 577.83 526.01 568.43 516.64 568.43 507.28 568.43 507.28 577.83 497.91 577.83 488.54 577.83 479.18 577.83 479.18 587.22 469.81 587.22 460.45 587.22 451.08 587.22 451.08 596.61 441.71 596.61 432.35 596.61 422.98 596.61 422.98 606 413.62 606 404.25 606 404.25 615.39 394.89 615.39 394.89 606 394.89 596.61 385.52 596.61 385.52 587.22 385.52 577.83 376.15 577.83 376.15 568.43 366.79 568.43 357.42 568.43 357.42 559.04 348.06 559.04 338.69 559.04 329.32 559.04 329.32 549.65 319.96 549.65 310.59 549.65 301.23 549.65 291.86 549.65 282.5 549.65 282.5 559.04 273.13 559.04 273.13 568.43 263.76 568.43 254.4 568.43 245.03 568.43 245.03 559.04 245.03 549.65 235.67 549.65 226.3 549.65 226.3 540.26 216.94 540.26 207.57 540.26 198.2 540.26 188.84 540.26 179.47 540.26 179.47 549.65 170.1 549.65 160.74 549.65 160.74 559.04 151.37 559.04 151.37 549.65 142.01 549.65 132.64 549.65 132.64 540.26 123.28 540.26 113.91 540.26 113.91 530.87 104.54 530.87 104.54 521.48 95.18 521.48 85.81 521.48 76.45 521.48 67.08 521.48 57.72 521.48 48.35 521.48 38.98 521.48 29.62 521.48 20.25 521.48 10.89 521.48 10.89 530.87 1.52 530.87 1.52 540.26 -7.85 540.26 -7.85 549.65 -17.21 549.65 -17.21 559.04 -17.21 568.43 -26.58 568.43 -26.58 577.83 -26.58 587.22 -35.94 587.22 -35.94 596.61 -45.31 596.61 -45.31 606 -54.67 606 -54.67 596.61 -64.04 596.61 -73.41 596.61 -82.77 596.61 -82.77 587.22 -92.14 587.22 -101.5 587.22 -110.87 587.22 -120.24 587.22 -120.24 577.83 -129.6 577.83 -138.97 577.83 -148.33 577.83 -157.7 577.83 -167.06 577.83 -176.43 577.83 -176.43 587.22 -185.8 587.22 -195.16 587.22 -204.53 587.22 -213.9 587.22 -213.9 596.61 -223.26 596.61 -223.26 606 -232.63 606 -241.99 606 -241.99 615.39 -251.36 615.39 -251.36 624.78 -260.72 624.78 -270.09 624.78 -270.09 634.17 -279.46 634.17 -279.46 643.57 -288.82 643.57 -298.19 643.57 -307.55 643.57 -307.55 652.96 -316.92 652.96 -326.29 652.96 -335.65 652.96 -345.02 652.96 -354.38 652.96 -363.75 652.96 -373.11 652.96 -382.48 652.96 -391.85 652.96 -391.85 662.35 -401.21 662.35 -410.58 662.35 -410.58 671.74 -419.94 671.74 -429.31 671.74 -429.31 681.13 -429.31 690.52 -419.94 690.52 -410.58 690.52 -401.21 690.52 -391.85 690.52 -382.48 690.52 -373.11 690.52 -363.75 690.52 -354.38 690.52 -354.38 681.13 -345.02 681.13 -345.02 690.52 -335.65 690.52 -326.29 690.52 -316.92 690.52 -307.55 690.52 -298.19 690.52 -298.19 681.13 -288.82 681.13 -279.46 681.13 -279.46 671.74 -270.09 671.74 -260.72 671.74 -260.72 662.35 -251.36 662.35 -241.99 662.35 -241.99 652.96 -232.63 652.96 -223.26 652.96 -213.9 652.96 -204.53 652.96 -195.16 652.96 -185.8 652.96 -176.43 652.96 -176.43 662.35 -167.06 662.35 -157.7 662.35 -148.33 662.35 -138.97 662.35 -138.97 671.74 -129.6 671.74 -120.24 671.74 -120.24 681.13 -110.87 681.13 -101.5 681.13 -92.14 681.13 -92.14 690.52 -82.77 690.52 -73.41 690.52 -64.04 690.52 -64.04 699.91 -54.67 699.91 -45.31 699.91 -35.94 699.91 -26.58 699.91 -17.21 699.91 -7.85 699.91 1.52 699.91 10.89 699.91 20.25 699.91 29.62 699.91 38.98 699.91 48.35 699.91 57.72 699.91 67.08 699.91 76.45 699.91 85.81 699.91 95.18 699.91 95.18 690.52 104.54 690.52 113.91 690.52 123.28 690.52 132.64 690.52 142.01 690.52 142.01 681.13 151.37 681.13 151.37 690.52 160.74 690.52 170.1 690.52 179.47 690.52 188.84 690.52 198.2 690.52 198.2 699.91 207.57 699.91 216.94 699.91 226.3 699.91 235.67 699.91 245.03 699.91 245.03 709.3 254.4 709.3 263.76 709.3 273.13 709.3 282.5 709.3 282.5 718.7 291.86 718.7 301.23 718.7 310.59 718.7 319.96 718.7 329.32 718.7 338.69 718.7 348.06 718.7 357.42 718.7 366.79 718.7 366.79 728.09 376.15 728.09 385.52 728.09 394.89 728.09 404.25 728.09 413.62 728.09 422.98 728.09 432.35 728.09 432.35 718.7 441.71 718.7 451.08 718.7 460.45 718.7 469.81 718.7 479.18 718.7 488.54 718.7 488.54 709.3 497.91 709.3 507.28 709.3 516.64 709.3 526.01 709.3 535.37 709.3 535.37 699.91 544.74 699.91 554.11 699.91 563.47 699.91 572.84 699.91 572.84 690.52 582.2 690.52 591.57 690.52 591.57 681.13 600.93 681.13 610.3 681.13 610.3 671.74 619.67 671.74 629.03 671.74 638.4 671.74 638.4 662.35 647.76 662.35 657.13 662.35 666.5 662.35 675.86 662.35 685.23 662.35 694.59 662.35 703.96 662.35 713.33 662.35 722.69 662.35 722.69 671.74 732.06 671.74 741.42 671.74 750.79 671.74 750.79 681.13 760.15 681.13 769.52 681.13 778.89 681.13 778.89 690.52 788.25 690.52 797.62 690.52 806.98 690.52 816.35 690.52 816.35 699.91 825.72 699.91 835.08 699.91 844.45 699.91 853.81 699.91 863.18 699.91 872.54 699.91 881.91 699.91 881.91 690.52 891.28 690.52 900.64 690.52 910.01 690.52 919.37 690.52 919.37 681.13 928.74 681.13 938.11 681.13 947.47 681.13 947.47 671.74 956.84 671.74 966.2 671.74 975.57 671.74 984.93 671.74 994.3 671.74 1003.67 671.74 1013.03 671.74 1013.03 681.13 1022.4 681.13 1031.76 681.13 1041.13 681.13 1050.49 681.13 1050.49 690.52 1059.86 690.52 1069.23 690.52 1078.59 690.52 1087.96 690.52 1097.33 690.52 1106.69 690.52 1116.06 690.52 1125.42 690.52 1125.42 699.91 1134.79 699.91 1144.15 699.91 1153.52 699.91 1162.89 699.91 1172.25 699.91 1181.62 699.91 1190.98 699.91 1200.35 699.91 1209.71 699.91 1219.08 699.91 1219.08 690.52 1228.45 690.52 1237.81 690.52 1247.18 690.52 1256.54 690.52 1256.54 699.91 1265.91 699.91 1275.28 699.91 1275.28 690.52 1284.64 690.52 1294.01 690.52 1294.01 681.13 1284.64 681.13"/></g></g><g id="nuage4"><g class="cls-2"><polygon class="cls-6" points="1850.89 507.39 1850.89 498 1850.89 488.61 1860.25 488.61 1869.62 488.61 1878.98 488.61 1878.98 479.22 1878.98 469.83 1888.35 469.83 1888.35 460.44 1897.71 460.44 1897.71 451.04 1907.08 451.04 1916.45 451.04 1916.45 441.65 1925.81 441.65 1935.18 441.65 1944.54 441.65 1953.91 441.65 1953.91 432.26 1963.28 432.26 1963.28 422.87 1972.64 422.87 1982.01 422.87 1991.37 422.87 2000.74 422.87 2010.11 422.87 2010.11 413.48 2019.47 413.48 2019.47 404.09 2028.84 404.09 2038.2 404.09 2047.57 404.09 2047.57 394.7 2056.93 394.7 2066.3 394.7 2066.3 404.09 2075.67 404.09 2085.03 404.09 2085.03 413.48 2094.4 413.48 2103.76 413.48 2113.13 413.48 2122.5 413.48 2131.86 413.48 2141.23 413.48 2150.59 413.48 2159.96 413.48 2159.96 422.87 2169.32 422.87 2178.69 422.87 2178.69 432.26 2178.69 441.65 2178.69 451.04 2188.06 451.04 2188.06 460.44 2197.42 460.44 2197.42 469.83 2206.79 469.83 2206.79 479.22 2206.79 488.61 2206.79 498 2216.15 498 2216.15 507.39 2216.15 516.78 2206.79 516.78 2206.79 507.39 2197.42 507.39 2197.42 498 2188.06 498 2188.06 488.61 2178.69 488.61 2178.69 479.22 2169.32 479.22 2169.32 469.83 2159.96 469.83 2150.59 469.83 2141.23 469.83 2131.86 469.83 2122.5 469.83 2122.5 479.22 2113.13 479.22 2113.13 488.61 2103.76 488.61 2094.4 488.61 2094.4 479.22 2085.03 479.22 2085.03 469.83 2075.67 469.83 2075.67 460.44 2066.3 460.44 2066.3 451.04 2056.93 451.04 2056.93 441.65 2047.57 441.65 2047.57 432.26 2038.2 432.26 2028.84 432.26 2019.47 432.26 2010.11 432.26 2010.11 441.65 2000.74 441.65 1991.37 441.65 1991.37 451.04 1982.01 451.04 1972.64 451.04 1972.64 460.44 1972.64 469.83 1972.64 479.22 1972.64 488.61 1963.28 488.61 1953.91 488.61 1944.54 488.61 1944.54 479.22 1935.18 479.22 1935.18 469.83 1925.81 469.83 1916.45 469.83 1907.08 469.83 1907.08 479.22 1907.08 488.61 1897.71 488.61 1897.71 498 1888.35 498 1878.98 498 1869.62 498 1869.62 507.39 1860.25 507.39 1860.25 516.78 1850.89 516.78 1850.89 526.17 1841.52 526.17 1841.52 516.78 1841.52 507.39 1850.89 507.39"/><polygon class="cls-5" points="2326.43 526.17 2326.43 535.57 2317.06 535.57 2307.7 535.57 2298.33 535.57 2298.33 526.17 2288.97 526.17 2279.6 526.17 2279.6 516.78 2270.24 516.78 2260.87 516.78 2251.5 516.78 2242.14 516.78 2242.14 526.17 2232.77 526.17 2232.77 516.78 2232.77 507.39 2223.41 507.39 2223.41 498 2214.04 498 2204.67 498 2195.31 498 2185.94 498 2185.94 507.39 2176.58 507.39 2167.21 507.39 2167.21 516.78 2157.84 516.78 2148.48 516.78 2139.11 516.78 2139.11 507.39 2129.75 507.39 2129.75 498 2120.38 498 2120.38 488.61 2111.01 488.61 2101.65 488.61 2101.65 479.22 2092.28 479.22 2082.92 479.22 2073.55 479.22 2073.55 488.61 2064.19 488.61 2064.19 498 2054.82 498 2054.82 507.39 2045.45 507.39 2045.45 516.78 2038.2 516.78 2036.09 516.78 2036.09 507.39 2036.09 498 2026.72 498 2026.72 488.61 2017.36 488.61 2007.99 488.61 1998.63 488.61 1998.63 498 1991.37 498 1989.26 498 1982.01 498 1972.64 498 1972.64 488.61 1963.28 488.61 1953.91 488.61 1944.54 488.61 1944.54 498 1935.18 498 1935.18 507.39 1925.81 507.39 1925.81 516.78 1916.45 516.78 1916.45 526.17 1907.08 526.17 1907.08 516.78 1907.08 507.39 1897.71 507.39 1897.71 498 1888.35 498 1878.98 498 1869.62 498 1869.62 507.39 1860.25 507.39 1860.25 516.78 1850.89 516.78 1850.89 526.17 1841.52 526.17 1841.52 535.57 1841.52 544.96 1841.52 554.35 1850.89 554.35 1850.89 563.74 1860.25 563.74 1860.25 573.13 1869.62 573.13 1878.98 573.13 1888.35 573.13 1897.71 573.13 1907.08 573.13 1916.45 573.13 1925.81 573.13 1935.18 573.13 1935.18 582.52 1944.54 582.52 1953.91 582.52 1963.28 582.52 1972.64 582.52 1982.01 582.52 1991.37 582.52 2000.74 582.52 2000.74 573.13 2010.11 573.13 2019.47 573.13 2028.84 573.13 2038.2 573.13 2038.2 563.74 2045.45 563.74 2047.57 563.74 2047.57 573.13 2056.93 573.13 2064.19 573.13 2066.3 573.13 2073.55 573.13 2075.67 573.13 2082.92 573.13 2085.03 573.13 2085.03 582.52 2094.4 582.52 2103.76 582.52 2113.13 582.52 2122.5 582.52 2131.86 582.52 2131.86 573.13 2141.23 573.13 2150.59 573.13 2159.96 573.13 2169.32 573.13 2178.69 573.13 2188.06 573.13 2188.06 563.74 2195.31 563.74 2197.42 563.74 2204.67 563.74 2214.04 563.74 2214.04 573.13 2223.41 573.13 2232.77 573.13 2242.14 573.13 2251.5 573.13 2260.87 573.13 2260.87 563.74 2270.24 563.74 2279.6 563.74 2288.97 563.74 2298.33 563.74 2307.7 563.74 2317.06 563.74 2317.06 554.35 2326.43 554.35 2326.43 544.96 2335.8 544.96 2335.8 535.57 2335.8 526.17 2326.43 526.17"/><polygon class="cls-4" points="1935.18 469.83 1925.81 469.83 1916.45 469.83 1907.08 469.83 1907.08 479.22 1907.08 488.61 1897.71 488.61 1897.71 498 1897.71 507.39 1907.08 507.39 1907.08 516.78 1907.08 526.17 1916.45 526.17 1916.45 516.78 1925.81 516.78 1925.81 507.39 1935.18 507.39 1935.18 498 1944.54 498 1944.54 488.61 1944.54 479.22 1935.18 479.22 1935.18 469.83"/></g></g><g id="nuage5"><g class="cls-2"><rect class="cls-3" x="1796.84" y="307.83" width="9.37" height="9.39"/><path class="cls-3" d="M2157.42,199.83H2120V181h-9.37v-9.39h-18.73v-9.39h-18.73v-9.39H2026.3v9.39h-18.73v9.39h-9.37v-9.39h-9.36v-9.39h-28.1v-9.39h-37.46v9.39h-18.74v9.39h-26v-9.39H1859.8v-9.39H1853v-4.7h-56.19V120h-9.37v-9.39h-18.73v-9.39H1750V91.83h-46.83v9.39h-18.73v9.39h-9.37v-9.39h-9.36V91.83h-28.1v-9.4h-37.47v9.4h-18.73v9.39h-9.36V120h-9.37v28.17h-65.56v9.4h-9.37V167h-9.36v18.78H1469v9.39h-74.92v9.39h-9.37v9.39h-14v-4.69h9.36v-9.39h-32.78v-4.7h-9.37v-9.39h-14V181h-9.37v-9.39h-18.73v-9.39H1277v-9.39h-46.83v9.39h-18.73v9.39h-9.37v-9.39h-9.36v-9.39h-28.1v-9.39h-37.46v9.39h-18.74v9.39h-9.36V181h-9.37v28.18h-65.56v9.39h-9.36V228h-9.37v18.78h-9.37v9.39H921.14v9.4h-9.37V275H893v-9.39H874.31v-9.4h-9.37v-9.39h-28.1v9.39h-9.36v9.4h-9.37v-9.4H771.28v9.4H752.55V275h-9.36v9.39h-9.37v28.17h-9.37v9.39h-9.36v-9.39h-9.37v-9.39h-9.36v-9.39h-56.2v9.39H630.8v9.39H593.33v9.39H584V340.7H574.6v9.39H527.77v9.39h-9.36V397h9.36v-9.39H546.5v-9.39h18.73v-9.39H584v-9.39h9.36v-9.39h9.37V340.7h18.73v-9.4h18.73v-9.39h37.46v9.39h18.74v9.4h9.36v9.39h9.37v18.78h18.73v-9.39h18.73v-9.39h9.37V340.7h18.73v-9.4H790v-9.39h28.09v-9.39h28.1v-9.39h18.73v9.39h18.73v9.39h28.1v9.39H930.5v-9.39h9.37v-9.39h9.36v-9.39h9.37v-9.39H968v-9.39h28.09V275h56.2v4.69h-4.69V289h-46.83v9.39h-9.37V336h9.37v-9.39h18.73v-9.39h18.73v-9.39h18.73v-9.4h9.37v-4.69H1071v9.39h18.73v9.39h9.37V293.74h9.36V275h9.37V260.87h32.77v9.39h18.73v9.39h9.37V289h9.37v9.39h-18.74v4.7h-51.5v4.7h-14.06v9.39H1085v4.69h-14v9.39h-9.37V336h-9.36v9.39h-9.37v14.09h-4.69v-4.7h-9.36v-9.39h-56.2v9.39h-9.36v9.39H925.81v9.4h-9.36v18.78h-9.37v9.39H860.25v9.39h-9.36V448.7h9.36v-9.4H879v-9.39h18.74v-9.39h18.73v-9.39h9.36v-9.39h9.37v-9.39h18.73V383h18.73v-9.39H986.7V383h-9.37v37.56h9.37v-9.39h18.73v-4.7h0v-4.69h18.73V397h0v-4.69h14v9.39h9.37v18.78h18.73v-9.39H1085v14.09h9.37v-9.39h18.73v-9.4h18.73V397h18.73v-9.39H1160v-9.39h9.36v-4.69h4.7v18.78h18.73V383h18.73v-4.7h0v-4.69h32.77V383H1263v-9.39h9.37v4.69h9.37V397h18.73v-9.39h14V397h9.36v-9.39h18.73v-9.39h18.73v-9.39h18.74v-9.39h9.36v-4.7h0v-4.69h9.36v-4.7h4.68v9.39h18.73v9.39h9.37V345.39h9.36V340.7h9.37v9.39h28.1v9.39h18.73v-9.39h14v18.78h18.73v-9.39h18.73v-9.39H1558V340.7h18.73v-9.4h9.37v-4.69h14V336h28.1v-9.39h9.37v-4.7h0v9.39h18.73v9.4h9.37V321.91h9.36v-9.39h4.68v9.39h28.1v9.39h18.73v-9.39H1736v-9.39h9.36v-4.69h9.38v-9.4h9.36v-4.69h9.37v-9.39h23.41v9.39h18.73v9.39h18.73v9.39h28.1v-9.39h23.41v9.39h9.37V293.74h9.36V275h9.37V256.17h18.73v-9.39h74.93v9.39h18.73v9.4H2045V275h18.73v9.39h28.1V275h9.37V256.17h9.36v-9.39H2120v-9.39h9.36V228h18.74v-9.39h18.73v-9.39h9.36v-9.39h-18.73Zm-838.24,51.65v-4.7h4.69v-4.69h14v9.39h16.14v4.69H1314.5v9.4h-9.36v4.69h0V256.17h9.36v-4.69Zm-140.49,0v-4.7h28.1v4.7h-9.37v9.39h-9.36v-9.39Zm-46.83,126.78h-2.59v-4.69h12v4.69Z"/><polygon class="cls-4" points="2297.91 368.87 2297.91 359.48 2297.91 350.09 2297.91 340.7 2288.54 340.7 2279.18 340.7 2279.18 331.3 2269.81 331.3 2269.81 321.91 2269.81 312.52 2279.18 312.52 2279.18 303.13 2279.18 293.74 2279.18 284.35 2269.81 284.35 2269.81 274.96 2269.81 265.56 2260.45 265.56 2260.45 256.17 2251.08 256.17 2241.72 256.17 2232.35 256.17 2222.98 256.17 2222.98 246.78 2213.62 246.78 2213.62 237.39 2213.62 228 2204.25 228 2204.25 218.61 2194.89 218.61 2194.89 209.22 2185.52 209.22 2176.15 209.22 2166.79 209.22 2166.79 218.61 2157.42 218.61 2148.06 218.61 2148.06 228 2138.69 228 2129.32 228 2129.32 237.39 2119.96 237.39 2119.96 246.78 2110.59 246.78 2110.59 256.17 2101.23 256.17 2101.23 265.56 2101.23 274.96 2091.86 274.96 2091.86 284.35 2082.49 284.35 2073.13 284.35 2063.76 284.35 2063.76 274.96 2054.4 274.96 2045.03 274.96 2045.03 265.56 2035.67 265.56 2026.3 265.56 2026.3 256.17 2016.93 256.17 2007.57 256.17 2007.57 246.78 1998.2 246.78 1988.84 246.78 1979.47 246.78 1970.11 246.78 1960.74 246.78 1951.37 246.78 1942.01 246.78 1932.64 246.78 1932.64 256.17 1927.96 256.17 1923.28 256.17 1918.59 256.17 1913.91 256.17 1909.23 256.17 1899.86 256.17 1899.86 246.78 1890.5 246.78 1890.5 237.39 1890.5 228 1881.13 228 1881.13 218.61 1871.76 218.61 1871.76 209.22 1862.4 209.22 1853.03 209.22 1843.67 209.22 1843.67 218.61 1834.3 218.61 1824.93 218.61 1824.93 228 1815.57 228 1806.2 228 1806.2 237.39 1796.84 237.39 1796.84 246.78 1787.47 246.78 1787.47 256.17 1778.11 256.17 1778.11 265.56 1778.11 274.96 1768.74 274.96 1768.74 284.35 1764.06 284.35 1759.37 284.35 1750.01 284.35 1740.64 284.35 1740.64 274.96 1731.28 274.96 1721.91 274.96 1721.91 265.56 1712.54 265.56 1703.18 265.56 1703.18 256.17 1693.81 256.17 1684.45 256.17 1684.45 246.78 1675.08 246.78 1665.71 246.78 1656.35 246.78 1646.98 246.78 1637.62 246.78 1628.25 246.78 1618.89 246.78 1609.52 246.78 1609.52 256.17 1600.15 256.17 1590.79 256.17 1590.79 265.56 1590.79 274.96 1581.42 274.96 1581.42 284.35 1581.42 293.74 1572.06 293.74 1572.06 303.13 1572.06 312.52 1562.69 312.52 1562.69 303.13 1553.33 303.13 1543.96 303.13 1543.96 293.74 1534.59 293.74 1534.59 284.35 1525.23 284.35 1525.23 274.96 1515.86 274.96 1506.5 274.96 1497.13 274.96 1487.76 274.96 1478.4 274.96 1473.72 274.96 1473.72 265.56 1464.36 265.56 1464.36 256.17 1454.99 256.17 1445.63 256.17 1436.26 256.17 1426.89 256.17 1426.89 246.78 1417.53 246.78 1417.53 237.39 1417.53 228 1408.16 228 1408.16 218.61 1398.8 218.61 1398.8 209.22 1389.43 209.22 1380.06 209.22 1370.7 209.22 1370.7 218.61 1361.33 218.61 1351.97 218.61 1351.97 228 1342.6 228 1333.23 228 1333.23 237.39 1323.87 237.39 1323.87 246.78 1314.5 246.78 1314.5 256.17 1305.14 256.17 1305.14 265.56 1305.14 274.96 1295.77 274.96 1295.77 284.35 1286.4 284.35 1277.04 284.35 1267.67 284.35 1267.67 274.96 1258.31 274.96 1248.94 274.96 1248.94 265.56 1239.58 265.56 1230.21 265.56 1230.21 256.17 1220.84 256.17 1211.48 256.17 1211.48 246.78 1202.11 246.78 1192.75 246.78 1183.38 246.78 1174.02 246.78 1164.65 246.78 1155.28 246.78 1145.92 246.78 1136.55 246.78 1136.55 256.17 1127.19 256.17 1117.82 256.17 1117.82 265.56 1117.82 274.96 1108.45 274.96 1108.45 284.35 1108.45 293.74 1099.09 293.74 1099.09 303.13 1099.09 312.52 1089.72 312.52 1089.72 303.13 1080.36 303.13 1070.99 303.13 1070.99 293.74 1061.63 293.74 1061.63 284.35 1052.26 284.35 1052.26 274.96 1042.89 274.96 1033.53 274.96 1024.16 274.96 1014.8 274.96 1005.43 274.96 996.06 274.96 996.06 284.35 986.7 284.35 977.33 284.35 967.97 284.35 967.97 293.74 958.6 293.74 958.6 303.13 949.24 303.13 949.24 312.52 939.87 312.52 939.87 321.91 930.5 321.91 930.5 331.3 921.14 331.3 911.77 331.3 911.77 321.91 902.4 321.91 893.04 321.91 883.67 321.91 883.67 312.52 874.31 312.52 864.94 312.52 864.94 303.13 855.58 303.13 846.21 303.13 846.21 312.52 836.84 312.52 827.48 312.52 818.11 312.52 818.11 321.91 808.75 321.91 799.38 321.91 790.01 321.91 790.01 331.3 780.65 331.3 780.65 340.7 771.28 340.7 761.92 340.7 761.92 350.09 752.55 350.09 752.55 359.48 743.19 359.48 733.82 359.48 733.82 368.87 743.19 368.87 752.55 368.87 752.55 378.26 761.92 378.26 771.28 378.26 780.65 378.26 780.65 387.65 790.01 387.65 790.01 397.04 799.38 397.04 799.38 406.44 808.75 406.44 818.11 406.44 827.48 406.44 827.48 415.83 836.84 415.83 846.21 415.83 855.58 415.83 864.94 415.83 874.31 415.83 883.67 415.83 883.67 406.44 893.04 406.44 902.4 406.44 902.4 397.04 911.77 397.04 921.14 397.04 930.5 397.04 939.87 397.04 939.87 406.44 949.24 406.44 958.6 406.44 958.6 415.83 967.97 415.83 977.33 415.83 986.7 415.83 996.06 415.83 1005.43 415.83 1014.8 415.83 1024.16 415.83 1033.53 415.83 1033.53 425.22 1042.89 425.22 1042.89 415.83 1047.57 415.83 1052.26 415.83 1056.93 415.83 1066.3 415.83 1075.67 415.83 1085.03 415.83 1085.03 406.44 1094.4 406.44 1103.76 406.44 1113.13 406.44 1122.5 406.44 1131.86 406.44 1131.86 415.83 1141.23 415.83 1150.59 415.83 1159.96 415.83 1159.96 406.44 1164.65 406.44 1164.65 415.83 1174.02 415.83 1174.02 425.22 1183.38 425.22 1183.38 415.83 1192.75 415.83 1202.11 415.83 1211.48 415.83 1211.48 406.44 1220.84 406.44 1220.84 397.04 1230.21 397.04 1239.58 397.04 1239.58 387.65 1248.94 387.65 1253.62 387.65 1258.31 387.65 1262.98 387.65 1262.98 397.04 1272.35 397.04 1272.35 406.44 1281.71 406.44 1291.08 406.44 1300.45 406.44 1300.45 415.83 1309.81 415.83 1314.5 415.83 1319.18 415.83 1323.87 415.83 1328.54 415.83 1333.23 415.83 1337.91 415.83 1342.6 415.83 1347.28 415.83 1356.64 415.83 1356.64 406.44 1361.33 406.44 1361.33 415.83 1370.69 415.83 1380.06 415.83 1389.42 415.83 1398.79 415.83 1408.15 415.83 1408.15 406.44 1408.16 406.44 1412.84 406.44 1417.52 406.44 1417.53 406.44 1422.2 406.44 1426.89 406.44 1426.89 406.44 1431.57 406.44 1431.57 415.83 1440.93 415.83 1450.3 415.83 1454.98 415.83 1459.67 415.83 1464.35 415.83 1469.03 415.83 1473.71 415.83 1478.4 415.83 1483.08 415.83 1487.76 415.83 1497.13 415.83 1506.5 415.83 1506.5 425.22 1515.86 425.22 1515.86 415.83 1525.23 415.83 1525.23 406.44 1534.59 406.44 1534.59 397.04 1534.59 387.65 1543.96 387.65 1543.96 378.26 1548.64 378.26 1553.33 378.26 1558.01 378.26 1562.69 378.26 1567.37 378.26 1572.06 378.26 1576.74 378.26 1576.74 387.65 1586.11 387.65 1586.11 397.04 1595.47 397.04 1595.47 406.44 1604.84 406.44 1614.2 406.44 1623.57 406.44 1623.57 415.83 1632.93 415.83 1637.62 415.83 1642.3 415.83 1646.98 415.83 1646.98 425.22 1656.35 425.22 1656.35 415.83 1661.03 415.83 1665.71 415.83 1670.4 415.83 1675.08 415.83 1679.76 415.83 1684.45 415.83 1684.45 406.44 1689.13 406.44 1693.81 406.44 1698.49 406.44 1698.49 397.04 1703.18 397.04 1707.86 397.04 1712.54 397.04 1717.23 397.04 1726.59 397.04 1735.96 397.04 1735.96 406.44 1745.33 406.44 1754.69 406.44 1754.69 415.83 1764.06 415.83 1773.42 415.83 1782.79 415.83 1787.47 415.83 1792.15 415.83 1796.84 415.83 1801.52 415.83 1806.2 415.83 1810.89 415.83 1815.57 415.83 1820.25 415.83 1829.62 415.83 1829.62 425.22 1838.98 425.22 1838.98 415.83 1848.35 415.83 1848.35 406.44 1857.71 406.44 1857.71 397.04 1862.4 397.04 1871.76 397.04 1871.76 406.44 1881.13 406.44 1890.5 406.44 1899.86 406.44 1899.86 397.04 1909.23 397.04 1909.23 387.65 1918.59 387.65 1918.59 378.26 1923.28 378.26 1923.28 387.65 1932.64 387.65 1942.01 387.65 1942.01 397.04 1951.37 397.04 1951.37 406.44 1960.74 406.44 1960.74 415.83 1970.11 415.83 1970.11 425.22 1979.47 425.22 1979.47 415.83 1988.84 415.83 1998.2 415.83 2007.57 415.83 2007.57 406.44 2016.93 406.44 2016.93 397.04 2026.3 397.04 2035.67 397.04 2035.67 387.65 2045.03 387.65 2054.4 387.65 2063.76 387.65 2073.13 387.65 2082.49 387.65 2091.86 387.65 2091.86 397.04 2101.23 397.04 2101.23 406.44 2110.59 406.44 2110.59 415.83 2119.96 415.83 2129.32 415.83 2138.69 415.83 2138.69 406.44 2148.06 406.44 2148.06 397.04 2157.42 397.04 2166.79 397.04 2176.15 397.04 2185.52 397.04 2194.89 397.04 2194.89 406.44 2204.25 406.44 2213.62 406.44 2222.98 406.44 2222.98 397.04 2232.35 397.04 2232.35 387.65 2241.72 387.65 2241.72 378.26 2251.08 378.26 2260.45 378.26 2269.81 378.26 2279.18 378.26 2279.18 387.65 2288.54 387.65 2297.91 387.65 2307.28 387.65 2307.28 378.26 2307.28 368.87 2297.91 368.87"/><polygon class="cls-4" points="715.09 368.87 715.09 359.48 715.09 350.09 705.72 350.09 705.72 340.7 696.36 340.7 696.36 331.3 686.99 331.3 677.63 331.3 677.63 321.91 668.26 321.91 658.89 321.91 649.53 321.91 640.16 321.91 640.16 331.3 630.8 331.3 621.43 331.3 621.43 340.7 612.06 340.7 602.7 340.7 602.7 350.09 593.33 350.09 593.33 359.48 583.97 359.48 583.97 368.87 574.6 368.87 565.24 368.87 565.24 378.26 555.87 378.26 546.5 378.26 546.5 387.65 537.14 387.65 527.77 387.65 527.77 397.04 527.77 406.44 537.14 406.44 546.5 406.44 555.87 406.44 565.24 406.44 565.24 415.83 574.6 415.83 583.97 415.83 593.33 415.83 602.7 415.83 612.06 415.83 612.06 406.44 621.43 406.44 630.8 406.44 640.16 406.44 649.53 406.44 658.89 406.44 658.89 415.83 668.26 415.83 677.63 415.83 686.99 415.83 686.99 406.44 696.36 406.44 696.36 397.04 705.72 397.04 705.72 387.65 715.09 387.65 715.09 378.26 724.45 378.26 733.82 378.26 733.82 368.87 724.45 368.87 715.09 368.87"/><polygon class="cls-5" points="2316.64 406.44 2316.64 397.04 2307.28 397.04 2307.28 387.65 2297.91 387.65 2288.54 387.65 2279.18 387.65 2279.18 378.26 2269.81 378.26 2260.45 378.26 2251.08 378.26 2241.72 378.26 2241.72 387.65 2232.35 387.65 2232.35 397.04 2222.98 397.04 2222.98 406.44 2213.62 406.44 2204.25 406.44 2194.89 406.44 2194.89 397.04 2185.52 397.04 2176.15 397.04 2166.79 397.04 2157.42 397.04 2148.06 397.04 2148.06 406.44 2138.69 406.44 2138.69 415.83 2129.32 415.83 2119.96 415.83 2110.59 415.83 2110.59 406.44 2101.23 406.44 2101.23 397.04 2091.86 397.04 2091.86 387.65 2082.49 387.65 2073.13 387.65 2063.76 387.65 2054.4 387.65 2045.03 387.65 2035.67 387.65 2035.67 397.04 2026.3 397.04 2016.93 397.04 2016.93 406.44 2007.57 406.44 2007.57 415.83 2002.89 415.83 2002.89 406.44 1993.52 406.44 1993.52 397.04 1984.15 397.04 1984.15 387.65 1974.79 387.65 1965.42 387.65 1956.06 387.65 1956.06 378.26 1946.69 378.26 1937.33 378.26 1927.96 378.26 1923.28 378.26 1918.59 378.26 1913.91 378.26 1904.54 378.26 1895.18 378.26 1885.81 378.26 1876.45 378.26 1867.08 378.26 1867.08 387.65 1857.71 387.65 1857.71 397.04 1853.03 397.04 1843.67 397.04 1834.3 397.04 1824.93 397.04 1824.93 406.44 1815.57 406.44 1815.57 415.83 1810.89 415.83 1806.2 415.83 1801.52 415.83 1796.84 415.83 1792.15 415.83 1787.47 415.83 1787.47 406.44 1778.11 406.44 1778.11 397.04 1768.74 397.04 1768.74 387.65 1759.37 387.65 1750.01 387.65 1740.64 387.65 1731.28 387.65 1721.91 387.65 1712.54 387.65 1712.54 397.04 1707.86 397.04 1703.18 397.04 1698.49 397.04 1693.81 397.04 1693.81 406.44 1689.13 406.44 1684.45 406.44 1679.76 406.44 1679.76 415.83 1675.08 415.83 1670.4 415.83 1665.71 415.83 1661.03 415.83 1656.35 415.83 1651.67 415.83 1646.98 415.83 1642.3 415.83 1637.62 415.83 1637.62 406.44 1628.25 406.44 1628.25 397.04 1618.89 397.04 1618.89 387.65 1609.52 387.65 1600.15 387.65 1600.15 378.26 1590.79 378.26 1581.42 378.26 1576.74 378.26 1572.06 378.26 1567.37 378.26 1562.69 378.26 1558.01 378.26 1553.33 378.26 1548.64 378.26 1548.64 368.87 1539.28 368.87 1529.91 368.87 1529.91 378.26 1520.54 378.26 1511.18 378.26 1511.18 387.65 1501.82 387.65 1501.81 387.65 1492.45 387.65 1483.09 387.65 1483.09 378.26 1473.72 378.26 1464.36 378.26 1454.99 378.26 1445.63 378.26 1445.63 387.65 1436.26 387.65 1436.26 397.04 1426.89 397.04 1426.89 406.44 1426.89 406.44 1422.2 406.44 1417.53 406.44 1417.52 406.44 1412.84 406.44 1412.84 397.04 1403.47 397.04 1398.8 397.04 1394.11 397.04 1389.43 397.04 1384.74 397.04 1380.06 397.04 1375.37 397.04 1370.7 397.04 1361.33 397.04 1351.97 397.04 1351.97 406.44 1351.96 406.44 1342.6 406.44 1342.59 406.44 1333.23 406.44 1323.86 406.44 1323.86 415.83 1319.18 415.83 1314.5 415.83 1314.5 406.44 1305.14 406.44 1305.14 397.04 1295.77 397.04 1295.77 387.65 1286.4 387.65 1277.04 387.65 1267.67 387.65 1262.98 387.65 1258.31 387.65 1253.62 387.65 1253.62 378.26 1244.25 378.26 1234.89 378.26 1225.52 378.26 1225.52 368.87 1216.15 368.87 1206.79 368.87 1206.79 378.26 1197.42 378.26 1188.06 378.26 1188.06 387.65 1178.69 387.65 1178.69 397.04 1169.33 397.04 1169.33 406.44 1164.65 406.44 1159.96 406.44 1155.28 406.44 1155.28 397.04 1145.92 397.04 1145.92 387.65 1136.55 387.65 1127.19 387.65 1127.19 378.26 1117.82 378.26 1108.45 378.26 1099.09 378.26 1089.72 378.26 1080.36 378.26 1070.99 378.26 1070.99 387.65 1061.63 387.65 1061.63 397.04 1061.63 406.44 1052.26 406.44 1052.26 415.83 1047.57 415.83 1042.89 415.83 1038.2 415.83 1038.2 406.44 1028.84 406.44 1019.47 406.44 1010.11 406.44 1000.74 406.44 1000.74 415.83 996.06 415.83 991.37 415.83 986.7 415.83 977.33 415.83 967.97 415.83 958.6 415.83 958.6 406.44 949.24 406.44 939.87 406.44 939.87 397.04 930.5 397.04 921.14 397.04 911.77 397.04 902.4 397.04 902.4 406.44 893.04 406.44 883.67 406.44 883.67 415.83 874.31 415.83 864.94 415.83 855.58 415.83 846.21 415.83 836.84 415.83 827.48 415.83 827.48 406.44 818.11 406.44 808.75 406.44 799.38 406.44 799.38 397.04 790.01 397.04 790.01 387.65 780.65 387.65 780.65 378.26 771.28 378.26 761.92 378.26 752.55 378.26 752.55 368.87 743.19 368.87 733.82 368.87 733.82 378.26 724.45 378.26 715.09 378.26 715.09 387.65 705.72 387.65 705.72 397.04 696.36 397.04 696.36 406.44 686.99 406.44 686.99 415.83 677.63 415.83 668.26 415.83 658.89 415.83 658.89 406.44 649.53 406.44 640.16 406.44 630.8 406.44 621.43 406.44 612.06 406.44 612.06 415.83 602.7 415.83 593.33 415.83 583.97 415.83 574.6 415.83 565.24 415.83 565.24 406.44 555.87 406.44 546.5 406.44 537.14 406.44 527.77 406.44 527.77 415.83 518.4 415.83 518.4 425.22 527.77 425.22 527.77 434.61 537.14 434.61 537.14 444 546.5 444 555.87 444 565.24 444 574.6 444 583.97 444 593.33 444 602.7 444 612.06 444 612.06 434.61 621.43 434.61 630.8 434.61 640.16 434.61 649.53 434.61 658.89 434.61 668.26 434.61 677.63 434.61 686.99 434.61 686.99 444 696.36 444 705.72 444 705.72 453.39 715.09 453.39 724.45 453.39 724.45 462.78 733.82 462.78 733.82 472.17 743.19 472.17 752.55 472.17 761.92 472.17 771.28 472.17 780.65 472.17 790.01 472.17 799.38 472.17 808.75 472.17 808.75 462.78 818.11 462.78 827.48 462.78 836.84 462.78 846.21 462.78 855.58 462.78 864.94 462.78 864.94 453.39 874.31 453.39 883.67 453.39 893.04 453.39 902.4 453.39 911.77 453.39 921.14 453.39 930.5 453.39 939.87 453.39 949.24 453.39 949.24 462.78 958.6 462.78 967.97 462.78 977.33 462.78 986.7 462.78 996.06 462.78 996.06 472.17 1005.43 472.17 1014.8 472.17 1024.16 472.17 1033.53 472.17 1042.89 472.17 1052.26 472.17 1061.63 472.17 1070.99 472.17 1080.36 472.17 1089.72 472.17 1089.72 462.78 1099.09 462.78 1108.45 462.78 1117.82 462.78 1127.19 462.78 1136.55 462.78 1145.92 462.78 1155.28 462.78 1164.65 462.78 1174.02 462.78 1183.38 462.78 1192.75 462.78 1197.42 462.78 1202.11 462.78 1206.79 462.78 1206.79 472.17 1216.15 472.17 1225.52 472.17 1234.89 472.17 1244.25 472.17 1253.62 472.17 1262.98 472.17 1272.35 472.17 1281.71 472.17 1281.71 462.78 1291.08 462.78 1300.45 462.78 1309.81 462.78 1319.18 462.78 1323.87 462.78 1328.54 462.78 1333.23 462.78 1337.91 462.78 1342.6 462.78 1351.97 462.78 1351.97 472.17 1361.33 472.17 1370.7 472.17 1380.06 472.17 1389.43 472.17 1398.8 472.17 1408.16 472.17 1417.53 472.17 1426.89 472.17 1436.26 472.17 1445.63 472.17 1445.63 462.78 1450.3 462.78 1454.99 462.78 1459.67 462.78 1464.36 462.78 1469.03 462.78 1469.03 472.17 1478.4 472.17 1487.76 472.17 1497.13 472.17 1506.5 472.17 1515.86 472.17 1525.23 472.17 1529.91 472.17 1534.59 472.17 1539.28 472.17 1543.96 472.17 1548.64 472.17 1553.33 472.17 1558.01 472.17 1562.69 472.17 1567.37 472.17 1576.74 472.17 1586.11 472.17 1595.47 472.17 1604.84 472.17 1604.84 462.78 1609.52 462.78 1614.2 462.78 1618.89 462.78 1623.57 462.78 1628.25 462.78 1632.93 462.78 1637.62 462.78 1642.3 462.78 1646.98 462.78 1651.67 462.78 1656.35 462.78 1661.03 462.78 1665.71 462.78 1675.08 462.78 1675.08 453.39 1679.76 453.39 1684.45 453.39 1689.13 453.39 1693.81 453.39 1698.49 453.39 1703.18 453.39 1707.86 453.39 1712.54 453.39 1717.23 453.39 1721.91 453.39 1726.59 453.39 1731.28 453.39 1735.96 453.39 1740.64 453.39 1745.33 453.39 1745.33 462.78 1754.69 462.78 1764.06 462.78 1773.42 462.78 1782.79 462.78 1792.15 462.78 1792.15 472.17 1801.52 472.17 1810.89 472.17 1820.25 472.17 1824.93 472.17 1829.62 472.17 1834.3 472.17 1838.98 472.17 1843.67 472.17 1848.35 472.17 1853.03 472.17 1857.71 472.17 1862.4 472.17 1867.08 472.17 1871.76 472.17 1876.45 472.17 1881.13 472.17 1885.81 472.17 1890.5 472.17 1899.86 472.17 1909.23 472.17 1918.59 472.17 1918.59 462.78 1923.28 462.78 1927.96 462.78 1932.64 462.78 1937.33 462.78 1942.01 462.78 1946.69 462.78 1951.37 462.78 1960.74 462.78 1970.11 462.78 1979.47 462.78 1988.84 462.78 1998.2 462.78 1998.2 453.39 2007.57 453.39 2016.93 453.39 2026.3 453.39 2035.67 453.39 2045.03 453.39 2054.4 453.39 2063.76 453.39 2073.13 453.39 2082.49 453.39 2091.86 453.39 2101.23 453.39 2110.59 453.39 2119.96 453.39 2119.96 462.78 2129.32 462.78 2138.69 462.78 2148.06 462.78 2148.06 472.17 2157.42 472.17 2166.79 472.17 2176.15 472.17 2185.52 472.17 2194.89 472.17 2204.25 472.17 2213.62 472.17 2222.98 472.17 2232.35 472.17 2241.72 472.17 2241.72 462.78 2251.08 462.78 2260.45 462.78 2269.81 462.78 2269.81 453.39 2279.18 453.39 2288.54 453.39 2297.91 453.39 2297.91 444 2307.28 444 2316.64 444 2326.01 444 2326.01 434.61 2326.01 425.22 2326.01 415.83 2326.01 406.44 2316.64 406.44"/></g></g></svg>