<svg xmlns="http://www.w3.org/2000/svg" width="51" height="36" viewBox="0 0 51 36">
    <polygon fill="#000" points="18.214 0 32.786 0 32.786 6.91 36.428 6.91 36.428 10.546 43.672 10.546 43.672 14.182 47.357 14.182 47.357 17.818 51 17.818 51 25.091 47.357 25.091 47.357 28.728 43.715 28.728 43.715 32.364 36.605 32.364 36.605 36 14.395 36 14.395 32.364 7.285 32.364 7.285 28.728 3.643 28.728 3.643 25.091 0 25.091 0 17.818 3.643 17.818 3.643 14.182 7.328 14.182 7.328 10.546 14.572 10.546 14.572 6.91 18.214 6.91"/>
    <polygon fill="#e5e3c1" points="43.042 17.909 43.042 14.291 32.217 14.291 32.217 21.527 28.608 21.527 28.608 25.145 21.392 25.145 21.392 21.527 17.783 21.527 17.783 14.291 6.958 14.291 6.958 17.909 3.35 17.909 3.35 25.145 6.958 25.145 6.958 28.763 14.175 28.763 14.175 32.382 35.825 32.382 35.825 28.763 43.042 28.763 43.042 25.145 46.65 25.145 46.65 17.909"/>
    <polygon fill="#e5e3c1" points="28.608 21.527 28.608 0 21.392 0 21.392 21.527"/>
</svg>
