<svg xmlns="http://www.w3.org/2000/svg" width="141" height="154" viewBox="0 0 141 154">
  <g fill="none">
    <polygon fill="#E5E3C1" points="127.613 .644 13.884 .644 13.884 7.354 7.194 7.354 7.194 14.06 .504 14.06 .504 128.099 7.194 128.099 7.194 134.807 13.884 134.807 13.884 141.515 127.613 141.515 127.613 134.807 134.302 134.807 134.302 128.099 140.991 128.099 140.991 14.06 134.302 14.06 134.302 7.354 127.613 7.354"/>
    <polygon fill="#3F3700" points="120.922 20.77 114.233 20.77 114.233 14.061 107.542 14.061 107.542 7.354 94.163 7.354 94.163 .644 47.333 .644 47.333 7.354 33.953 7.354 33.953 14.061 27.264 14.061 27.264 20.77 20.574 20.77 20.574 27.478 13.884 27.478 13.884 34.186 127.612 34.186 127.612 27.478 120.922 27.478"/>
    <polygon fill="#FF0" points="127.612 34.186 120.922 34.186 120.922 27.478 114.232 27.478 114.232 20.77 27.264 20.77 27.264 27.478 20.573 27.478 20.573 34.186 13.884 34.186 13.884 40.894 127.612 40.894"/>
    <polygon fill="#FFF" points="47.333 7.354 94.163 7.354 94.163 14.06 107.542 14.06 107.542 27.477 33.954 27.477 33.954 14.06 47.333 14.06"/>
    <polygon fill="#3F3700" points="94.163 153.931 94.163 147.223 107.542 147.223 107.542 140.515 114.232 140.515 114.232 133.807 120.922 133.807 120.922 127.099 127.612 127.099 127.612 120.391 134.301 120.391 134.301 106.975 140.991 106.975 140.991 46.602 134.302 46.602 134.302 33.186 127.612 33.186 127.612 39.894 120.922 39.894 120.922 33.186 114.232 33.186 114.232 26.477 101.197 26.477 101.197 19.77 94.163 19.77 94.163 13.06 47.333 13.06 47.333 19.77 40.643 19.77 40.643 26.477 27.264 26.477 27.264 33.186 20.574 33.186 20.574 39.894 13.883 39.894 13.883 33.186 7.194 33.186 7.194 46.602 .504 46.602 .504 106.975 7.195 106.975 7.195 120.391 13.884 120.391 13.884 127.099 20.573 127.099 20.573 133.807 27.264 133.807 27.264 140.515 33.954 140.515 33.954 147.223 47.333 147.223 47.333 153.931"/>
    <polygon fill="#C4BC97" points="13.884 113.682 13.884 120.391 20.573 120.391 20.573 127.099 27.264 127.099 27.264 133.807 33.953 133.807 33.953 140.515 40.644 140.515 47.333 140.515 47.333 147.223 54.024 147.223 60.713 147.223 67.404 147.223 74.093 147.223 80.782 147.223 87.473 147.223 94.163 147.223 94.163 140.515 100.853 140.515 107.542 140.515 107.542 133.807 114.233 133.807 114.233 127.099 120.922 127.099 120.922 120.391 127.613 120.391 127.613 113.682 127.613 106.975 134.302 106.975 134.302 100.266 134.302 93.558 134.302 86.85 134.302 80.142 134.302 73.434 134.302 66.726 134.302 60.018 127.613 60.018 127.613 53.31 127.613 46.602 120.922 46.602 120.922 39.894 114.233 39.894 114.233 33.186 107.542 33.186 100.853 33.186 100.853 26.478 94.163 26.478 94.163 19.77 87.473 19.77 80.782 19.77 74.093 19.77 67.404 19.77 60.713 19.77 54.024 19.77 47.333 19.77 47.333 26.478 40.644 26.478 40.644 33.186 33.953 33.186 27.264 33.186 27.264 39.894 20.573 39.894 20.573 46.602 13.884 46.602 13.884 53.31 13.884 60.018 7.195 60.018 7.195 66.726 7.195 73.434 7.195 80.142 7.195 86.85 7.195 93.558 7.195 100.266 7.195 106.975 13.884 106.975"/>
  </g>
</svg>
