<svg xmlns="http://www.w3.org/2000/svg" width="48" height="47" viewBox="0 0 48 47">
  <g fill="none">
    <polygon fill="#3F3700" points="48 46.967 .002 46.967 .002 40.248 6.802 40.248 6.802 33.54 13.792 33.54 13.792 26.832 20.07 26.832 20.07 20.135 26.76 20.135 26.76 13.427 33.45 13.416 33.45 6.718 40.14 6.718 40.14 .02 48 .02 48 46.967"/>
    <polygon fill="#FFF" points="48 47 7 47 7 40.551 13.689 40.551 13.689 33.843 20.379 33.843 20.379 27.135 27.069 27.135 27.069 20.427 33.759 20.427 33.759 13.719 40.449 13.719 40.449 7.01 48 7.01 48 47"/>
  </g>
</svg>
