<svg xmlns="http://www.w3.org/2000/svg" width="48" height="76" viewBox="0 0 48 76">
  <polygon fill-rule="evenodd" points="1052.51 152.94 1052.51 155.274 1050.167 155.274 1050.167 157.609 1047.822 157.609 1047.822 159.946 1045.48 159.946 1045.48 162.28 1043.136 162.28 1043.136 164.615 1040.793 164.615 1040.793 166.952 1038.448 166.952 1038.448 169.286 1036.105 169.286 1036.105 171.621 1033.762 171.621 1033.762 173.957 1031.418 173.957 1031.418 176.292 1033.762 176.292 1033.762 178.626 1047.822 178.626 1047.822 180.962 1045.48 180.962 1045.48 183.297 1043.136 183.297 1043.136 185.632 1040.793 185.632 1040.793 187.968 1038.448 187.968 1038.448 190.303 1036.105 190.303 1036.105 192.638 1033.762 192.638 1033.762 194.974 1036.105 194.974 1036.105 197.309 1045.48 197.309 1045.48 199.643 1043.136 199.643 1043.136 204.315 1040.793 204.315 1040.793 208.984 1038.448 208.984 1038.448 213.655 1036.105 213.655 1036.105 218.327 1033.762 218.327 1033.762 222.996 1031.418 222.996 1031.418 227.667 1036.105 227.667 1036.105 225.332 1038.448 225.332 1038.448 222.996 1040.793 222.996 1040.793 220.661 1043.136 220.661 1043.136 218.327 1045.48 218.327 1045.48 215.99 1047.822 215.99 1047.822 213.655 1050.167 213.655 1050.167 211.321 1052.51 211.321 1052.51 208.984 1054.852 208.984 1054.852 206.649 1057.197 206.649 1057.197 204.315 1059.541 204.315 1059.541 201.98 1061.884 201.98 1061.884 199.643 1064.226 199.643 1064.226 197.309 1066.571 197.309 1066.571 194.974 1068.915 194.974 1068.915 192.638 1071.258 192.638 1071.258 190.303 1059.541 190.303 1059.541 187.968 1061.884 187.968 1061.884 185.632 1064.226 185.632 1064.226 183.297 1066.571 183.297 1066.571 180.962 1068.915 180.962 1068.915 178.626 1071.258 178.626 1071.258 176.292 1073.601 176.292 1073.601 173.957 1075.945 173.957 1075.945 171.621 1061.884 171.621 1061.884 169.286 1064.226 169.286 1064.226 166.952 1066.571 166.952 1066.571 164.615 1068.915 164.615 1068.915 162.28 1071.258 162.28 1071.258 159.946 1073.601 159.946 1073.601 157.609 1075.945 157.609 1075.945 155.274 1078.289 155.274 1078.289 152.94" transform="translate(-1031 -152)"/>
</svg>
