<svg xmlns="http://www.w3.org/2000/svg" width="9600" height="4837" viewBox="0 0 9600 4837">
  <g fill="none">
    <polygon fill="#D2F3F9" points="9553.17 188.3 9506.34 188.3 9459.51 188.3 9412.68 188.3 9365.85 188.3 9319.02 188.3 9272.19 188.3 9225.37 188.3 9178.54 188.3 9131.71 188.3 9084.88 188.3 9038.05 188.3 8991.22 188.3 8944.39 188.3 8897.56 141.35 8850.73 141.35 8803.9 141.35 8757.07 141.35 8710.24 141.35 8663.42 141.35 8616.58 141.35 8569.76 141.35 8522.93 141.35 8476.1 141.35 8429.27 141.35 8382.44 141.35 8335.61 141.35 8288.78 141.35 8241.95 141.35 8195.12 141.35 8148.29 141.35 8101.46 141.35 8054.63 141.35 8007.81 141.35 7960.98 141.35 7914.15 141.35 7867.32 141.35 7820.49 141.35 7773.66 141.35 7726.83 141.35 7680 141.35 7633.17 141.35 7586.34 141.35 7539.51 141.35 7492.68 141.35 7445.85 141.35 7399.02 141.35 7352.19 141.35 7305.37 141.35 7258.54 141.35 7211.71 188.3 7164.88 188.3 7118.05 188.3 7071.22 188.3 7024.39 188.3 6977.56 188.3 6930.73 235.26 6883.9 235.26 6837.07 235.26 6790.24 235.26 6743.41 282.22 6696.59 282.22 6649.76 282.22 6602.93 329.17 6556.1 329.17 6509.27 329.17 6462.44 329.17 6415.61 329.17 6368.78 376.13 6321.95 376.13 6275.12 376.13 6228.29 376.13 6181.46 376.13 6134.63 376.13 6087.81 376.13 6040.98 376.13 5994.15 423.09 5947.32 423.09 5900.49 423.09 5853.66 423.09 5806.83 423.09 5760 423.09 5713.17 423.09 5666.34 423.09 5619.51 423.09 5572.68 423.09 5525.85 423.09 5479.02 423.09 5432.19 423.09 5385.37 423.09 5338.54 423.09 5291.71 423.09 5244.88 423.09 5198.05 376.13 5151.22 376.13 5104.39 376.13 5057.56 376.13 5010.73 329.17 4963.9 329.17 4917.07 282.22 4870.24 282.22 4823.41 282.22 4776.59 235.26 4729.76 235.26 4682.93 188.3 4636.1 188.3 4589.27 141.35 4542.44 141.35 4495.61 141.35 4448.78 141.35 4401.95 94.39 4355.12 94.39 4308.29 94.39 4261.46 47.43 4214.63 47.43 4167.81 47.43 4120.98 47.43 4074.15 47.43 4027.32 47.43 3980.49 47.43 3933.66 47.43 3886.83 .48 3840 .48 3793.17 .48 3746.34 .48 3699.51 .48 3652.68 .48 3605.85 .48 3559.02 .48 3512.2 .48 3465.37 47.43 3418.54 47.43 3371.71 47.43 3324.88 47.43 3278.05 47.43 3231.22 47.43 3184.39 47.43 3137.56 47.43 3090.73 47.43 3043.9 47.43 2997.07 47.43 2950.24 47.43 2903.41 47.43 2856.59 47.43 2809.76 94.39 2762.93 94.39 2716.1 94.39 2669.27 94.39 2622.44 141.35 2575.61 141.35 2528.78 188.3 2481.95 188.3 2435.12 235.26 2388.29 235.26 2341.46 282.22 2294.63 282.22 2247.8 282.22 2200.98 329.17 2154.15 329.17 2107.32 329.17 2060.49 376.13 2013.66 376.13 1966.83 376.13 1920 376.13 1873.17 376.13 1826.34 423.09 1779.51 423.09 1732.68 423.09 1685.85 423.09 1639.02 423.09 1592.19 470.04 1545.37 470.04 1498.54 470.04 1451.71 470.04 1404.88 470.04 1358.05 470.04 1311.22 517 1264.39 517 1217.56 517 1170.73 517 1123.9 517 1077.07 517 1030.24 517 983.41 517 936.59 517 889.76 517 842.93 517 796.1 517 749.27 517 702.44 517 655.61 517 608.78 517 561.95 470.04 515.12 470.04 468.29 470.04 421.46 470.04 374.63 423.09 327.81 423.09 280.98 376.13 234.15 376.13 187.32 376.13 140.49 329.17 93.66 329.17 46.83 282.22 0 282.22 0 329.17 0 376.13 46.83 376.13 93.66 376.13 93.66 423.09 140.49 423.09 187.32 423.09 187.32 470.04 234.15 470.04 280.98 470.04 327.81 470.04 327.81 517 374.63 517 421.46 517 421.46 563.96 468.29 563.96 515.12 563.96 561.95 563.96 608.78 563.96 608.78 610.91 655.61 610.91 702.44 610.91 749.27 610.91 796.1 610.91 842.93 610.91 889.76 610.91 936.59 610.91 983.41 610.91 1030.24 610.91 1077.07 610.91 1123.9 610.91 1170.73 610.91 1217.56 610.91 1264.39 610.91 1311.22 610.91 1311.22 563.96 1358.05 563.96 1404.88 563.96 1451.71 563.96 1498.54 563.96 1545.37 563.96 1592.19 563.96 1592.19 517 1639.02 517 1685.85 517 1732.68 517 1779.51 517 1826.34 517 1826.34 470.04 1873.17 470.04 1920 470.04 1966.83 470.04 2013.66 470.04 2060.49 470.04 2060.49 423.09 2107.32 423.09 2154.15 423.09 2200.98 423.09 2200.98 376.13 2247.8 376.13 2294.63 376.13 2341.46 376.13 2341.46 329.17 2388.29 329.17 2435.12 329.17 2435.12 282.22 2481.95 282.22 2528.78 282.22 2528.78 235.26 2575.61 235.26 2622.44 235.26 2622.44 188.3 2669.27 188.3 2716.1 188.3 2762.93 188.3 2809.76 188.3 2809.76 141.35 2856.59 141.35 2903.41 141.35 2950.24 141.35 2997.07 141.35 3043.9 141.35 3090.73 141.35 3137.56 141.35 3184.39 141.35 3231.22 141.35 3278.05 141.35 3324.88 141.35 3371.71 141.35 3418.54 141.35 3465.37 141.35 3465.37 94.39 3512.2 94.39 3559.02 94.39 3605.85 94.39 3652.68 94.39 3699.51 94.39 3746.34 94.39 3793.17 94.39 3840 94.39 3886.83 94.39 3933.66 94.39 3933.66 141.35 3980.49 141.35 4027.32 141.35 4074.15 141.35 4120.98 141.35 4167.81 141.35 4214.63 141.35 4261.46 141.35 4308.29 141.35 4308.29 188.3 4355.12 188.3 4401.95 188.3 4448.78 188.3 4448.78 235.26 4495.61 235.26 4542.44 235.26 4589.27 235.26 4636.1 235.26 4636.1 282.22 4682.93 282.22 4729.76 282.22 4729.76 329.17 4776.59 329.17 4823.41 329.17 4823.41 376.13 4870.24 376.13 4917.07 376.13 4963.9 376.13 4963.9 423.09 5010.73 423.09 5057.56 423.09 5057.56 470.04 5104.39 470.04 5151.22 470.04 5198.05 470.04 5244.88 470.04 5244.88 517 5291.71 517 5338.54 517 5385.37 517 5432.19 517 5479.02 517 5525.85 517 5572.68 517 5619.51 517 5666.34 517 5713.17 517 5760 517 5806.83 517 5853.66 517 5900.49 517 5947.32 517 5994.15 517 5994.15 470.04 6040.98 470.04 6087.81 470.04 6134.63 470.04 6181.46 470.04 6228.29 470.04 6275.12 470.04 6321.95 470.04 6368.78 470.04 6368.78 423.09 6415.61 423.09 6462.44 423.09 6509.27 423.09 6556.1 423.09 6602.93 423.09 6602.93 376.13 6649.76 376.13 6696.59 376.13 6743.41 376.13 6743.41 329.17 6790.24 329.17 6837.07 329.17 6883.9 329.17 6930.73 329.17 6930.73 282.22 6977.56 282.22 7024.39 282.22 7071.22 282.22 7118.05 282.22 7164.88 282.22 7211.71 282.22 7211.71 235.26 7258.54 235.26 7305.37 235.26 7352.19 235.26 7399.02 235.26 7445.85 235.26 7492.68 235.26 7539.51 235.26 7586.34 235.26 7633.17 235.26 7680 235.26 7726.83 235.26 7773.66 235.26 7820.49 235.26 7867.32 235.26 7914.15 235.26 7960.98 235.26 8007.81 235.26 8054.63 235.26 8101.46 235.26 8148.29 235.26 8195.12 235.26 8241.95 235.26 8288.78 235.26 8335.61 235.26 8382.44 235.26 8429.27 235.26 8476.1 235.26 8522.93 235.26 8569.76 235.26 8616.58 235.26 8663.42 235.26 8710.24 235.26 8757.07 235.26 8803.9 235.26 8850.73 235.26 8897.56 235.26 8944.39 235.26 8944.39 282.22 8991.22 282.22 9038.05 282.22 9084.88 282.22 9131.71 282.22 9178.54 282.22 9225.37 282.22 9272.19 282.22 9319.02 282.22 9365.85 282.22 9412.68 282.22 9459.51 282.22 9506.34 282.22 9553.17 282.22 9600 282.22 9600 235.26 9600 188.3"/>
    <polygon fill="#B6F1FF" points="9553.17 282.22 9506.34 282.22 9459.51 282.22 9412.68 282.22 9365.85 282.22 9319.02 282.22 9272.19 282.22 9225.37 282.22 9178.54 282.22 9131.71 282.22 9084.88 282.22 9038.05 282.22 8991.22 282.22 8944.39 282.22 8944.39 235.26 8897.56 235.26 8850.73 235.26 8803.9 235.26 8757.07 235.26 8710.24 235.26 8663.42 235.26 8616.58 235.26 8569.76 235.26 8522.93 235.26 8476.1 235.26 8429.27 235.26 8382.44 235.26 8335.61 235.26 8288.78 235.26 8241.95 235.26 8195.12 235.26 8148.29 235.26 8101.46 235.26 8054.63 235.26 8007.81 235.26 7960.98 235.26 7914.15 235.26 7867.32 235.26 7820.49 235.26 7773.66 235.26 7726.83 235.26 7680 235.26 7633.17 235.26 7586.34 235.26 7539.51 235.26 7492.68 235.26 7445.85 235.26 7399.02 235.26 7352.19 235.26 7305.37 235.26 7258.54 235.26 7211.71 235.26 7211.71 282.22 7164.88 282.22 7118.05 282.22 7071.22 282.22 7024.39 282.22 6977.56 282.22 6930.73 282.22 6930.73 329.17 6883.9 329.17 6837.07 329.17 6790.24 329.17 6743.41 329.17 6743.41 376.13 6696.59 376.13 6649.76 376.13 6602.93 376.13 6602.93 423.09 6556.1 423.09 6509.27 423.09 6462.44 423.09 6415.61 423.09 6368.78 423.09 6368.78 470.04 6321.95 470.04 6275.12 470.04 6228.29 470.04 6181.46 470.04 6134.63 470.04 6087.81 470.04 6040.98 470.04 5994.15 470.04 5994.15 517 5947.32 517 5900.49 517 5853.66 517 5806.83 517 5760 517 5713.17 517 5666.34 517 5619.51 517 5572.68 517 5525.85 517 5479.02 517 5432.19 517 5385.37 517 5338.54 517 5291.71 517 5244.88 517 5244.88 470.04 5198.05 470.04 5151.22 470.04 5104.39 470.04 5057.56 470.04 5057.56 423.09 5010.73 423.09 4963.9 423.09 4963.9 376.13 4917.07 376.13 4870.24 376.13 4823.41 376.13 4823.41 329.17 4776.59 329.17 4729.76 329.17 4729.76 282.22 4682.93 282.22 4636.1 282.22 4636.1 235.26 4589.27 235.26 4542.44 235.26 4495.61 235.26 4448.78 235.26 4448.78 188.3 4401.95 188.3 4355.12 188.3 4308.29 188.3 4308.29 141.35 4261.46 141.35 4214.63 141.35 4167.81 141.35 4120.98 141.35 4074.15 141.35 4027.32 141.35 3980.49 141.35 3933.66 141.35 3933.66 94.39 3886.83 94.39 3840 94.39 3793.17 94.39 3746.34 94.39 3699.51 94.39 3652.68 94.39 3605.85 94.39 3559.02 94.39 3512.2 94.39 3465.37 94.39 3465.37 141.35 3418.54 141.35 3371.71 141.35 3324.88 141.35 3278.05 141.35 3231.22 141.35 3184.39 141.35 3137.56 141.35 3090.73 141.35 3043.9 141.35 2997.07 141.35 2950.24 141.35 2903.41 141.35 2856.59 141.35 2809.76 141.35 2809.76 188.3 2762.93 188.3 2716.1 188.3 2669.27 188.3 2622.44 188.3 2622.44 235.26 2575.61 235.26 2528.78 235.26 2528.78 282.22 2481.95 282.22 2435.12 282.22 2435.12 329.17 2388.29 329.17 2341.46 329.17 2341.46 376.13 2294.63 376.13 2247.8 376.13 2200.98 376.13 2200.98 423.09 2154.15 423.09 2107.32 423.09 2060.49 423.09 2060.49 470.04 2013.66 470.04 1966.83 470.04 1920 470.04 1873.17 470.04 1826.34 470.04 1826.34 517 1779.51 517 1732.68 517 1685.85 517 1639.02 517 1592.19 517 1592.19 563.96 1545.37 563.96 1498.54 563.96 1451.71 563.96 1404.88 563.96 1358.05 563.96 1311.22 563.96 1311.22 610.91 1264.39 610.91 1217.56 610.91 1170.73 610.91 1123.9 610.91 1077.07 610.91 1030.24 610.91 983.41 610.91 936.59 610.91 889.76 610.91 842.93 610.91 796.1 610.91 749.27 610.91 702.44 610.91 655.61 610.91 608.78 610.91 608.78 563.96 561.95 563.96 515.12 563.96 468.29 563.96 421.46 563.96 421.46 517 374.63 517 327.81 517 327.81 470.04 280.98 470.04 234.15 470.04 187.32 470.04 187.32 423.09 140.49 423.09 93.66 423.09 93.66 376.13 46.83 376.13 0 376.13 0 423.09 0 470.04 0 517 0 563.96 0 610.91 0 657.87 0 704.83 0 751.78 0 798.74 0 845.7 0 892.65 0 939.61 0 986.57 0 1033.52 0 1080.48 0 1127.43 0 1174.39 0 1221.35 0 1268.3 0 1315.26 0 1362.22 0 1409.17 0 1456.13 0 1503.09 0 1550.04 0 1597 0 1643.96 0 1690.91 0 1737.87 0 1784.83 0 1831.78 0 1878.74 0 1925.7 0 1972.65 0 2019.61 0 2066.57 0 2113.52 0 2160.48 0 2207.43 0 2254.39 0 2301.35 0 2348.3 0 2395.26 0 2442.22 0 2489.17 0 2536.13 0 2583.09 0 2630.04 0 2677 0 2723.96 0 2770.91 0 2817.87 0 2864.83 0 2911.78 0 2958.74 0 3005.7 0 3052.65 0 3099.61 0 3146.57 0 3193.52 0 3240.48 0 3287.43 0 3334.39 0 3381.35 0 3428.3 0 3475.26 0 3522.22 0 3569.17 0 3616.13 0 3663.09 0 3710.04 0 3757 0 3803.96 0 3850.91 0 3897.87 0 3944.83 0 3991.78 0 4038.74 0 4085.7 0 4132.65 0 4179.61 0 4226.56 0 4273.52 0 4320.48 0 4367.44 0 4414.39 0 4461.35 0 4508.3 0 4555.26 0 4602.22 0 4649.17 0 4696.13 0 4743.09 0 4790.04 0 4837 46.83 4837 93.66 4837 140.49 4837 187.32 4837 234.15 4837 280.98 4837 327.81 4837 374.63 4837 421.46 4837 468.29 4837 515.12 4837 561.95 4837 608.78 4837 655.61 4837 702.44 4837 749.27 4837 796.1 4837 842.93 4837 889.76 4837 936.59 4837 983.41 4837 1030.24 4837 1077.07 4837 1123.9 4837 1170.73 4837 1217.56 4837 1264.39 4837 1311.22 4837 1358.05 4837 1404.88 4837 1451.71 4837 1498.54 4837 1545.37 4837 1592.19 4837 1639.02 4837 1685.85 4837 1732.68 4837 1779.51 4837 1826.34 4837 1873.17 4837 1920 4837 1966.83 4837 2013.66 4837 2060.49 4837 2107.32 4837 2154.15 4837 2200.98 4837 2247.8 4837 2294.63 4837 2341.46 4837 2388.29 4837 2435.12 4837 2481.95 4837 2528.78 4837 2575.61 4837 2622.44 4837 2669.27 4837 2716.1 4837 2762.93 4837 2809.76 4837 2856.59 4837 2903.41 4837 2950.24 4837 2997.07 4837 3043.9 4837 3090.73 4837 3137.56 4837 3184.39 4837 3231.22 4837 3278.05 4837 3324.88 4837 3371.71 4837 3418.54 4837 3465.37 4837 3512.2 4837 3559.02 4837 3605.85 4837 3652.68 4837 3699.51 4837 3746.34 4837 3793.17 4837 3840 4837 3886.83 4837 3933.66 4837 3980.49 4837 4027.32 4837 4074.15 4837 4120.98 4837 4167.81 4837 4214.63 4837 4261.46 4837 4308.29 4837 4355.12 4837 4401.95 4837 4448.78 4837 4495.61 4837 4542.44 4837 4589.27 4837 4636.1 4837 4682.93 4837 4729.76 4837 4776.59 4837 4823.41 4837 4870.24 4837 4917.07 4837 4963.9 4837 5010.73 4837 5057.56 4837 5104.39 4837 5151.22 4837 5198.05 4837 5244.88 4837 5291.71 4837 5338.54 4837 5385.37 4837 5432.19 4837 5479.02 4837 5525.85 4837 5572.68 4837 5619.51 4837 5666.34 4837 5713.17 4837 5760 4837 5806.83 4837 5853.66 4837 5900.49 4837 5947.32 4837 5994.15 4837 6040.98 4837 6087.81 4837 6134.63 4837 6181.46 4837 6228.29 4837 6275.12 4837 6321.95 4837 6368.78 4837 6415.61 4837 6462.44 4837 6509.27 4837 6556.1 4837 6602.93 4837 6649.76 4837 6696.59 4837 6743.41 4837 6790.24 4837 6837.07 4837 6883.9 4837 6930.73 4837 6977.56 4837 7024.39 4837 7071.22 4837 7118.05 4837 7164.88 4837 7211.71 4837 7258.54 4837 7305.37 4837 7352.19 4837 7399.02 4837 7445.85 4837 7492.68 4837 7539.51 4837 7586.34 4837 7633.17 4837 7680 4837 7726.83 4837 7773.66 4837 7820.49 4837 7867.32 4837 7914.15 4837 7960.98 4837 8007.81 4837 8054.63 4837 8101.46 4837 8148.29 4837 8195.12 4837 8241.95 4837 8288.78 4837 8335.61 4837 8382.44 4837 8429.27 4837 8476.1 4837 8522.93 4837 8569.76 4837 8616.58 4837 8663.42 4837 8710.24 4837 8757.07 4837 8803.9 4837 8850.73 4837 8897.56 4837 8944.39 4837 8991.22 4837 9038.05 4837 9084.88 4837 9131.71 4837 9178.54 4837 9225.37 4837 9272.19 4837 9319.02 4837 9365.85 4837 9412.68 4837 9459.51 4837 9506.34 4837 9553.17 4837 9600 4837 9600 4790.04 9600 4743.09 9600 4696.13 9600 4649.17 9600 4602.22 9600 4555.26 9600 4508.3 9600 4461.35 9600 4414.39 9600 4367.44 9600 4320.48 9600 4273.52 9600 4226.56 9600 4179.61 9600 4132.65 9600 4085.7 9600 4038.74 9600 3991.78 9600 3944.83 9600 3897.87 9600 3850.91 9600 3803.96 9600 3757 9600 3710.04 9600 3663.09 9600 3616.13 9600 3569.17 9600 3522.22 9600 3475.26 9600 3428.3 9600 3381.35 9600 3334.39 9600 3287.43 9600 3240.48 9600 3193.52 9600 3146.57 9600 3099.61 9600 3052.65 9600 3005.7 9600 2958.74 9600 2911.78 9600 2864.83 9600 2817.87 9600 2770.91 9600 2723.96 9600 2677 9600 2630.04 9600 2583.09 9600 2536.13 9600 2489.17 9600 2442.22 9600 2395.26 9600 2348.3 9600 2301.35 9600 2254.39 9600 2207.43 9600 2160.48 9600 2113.52 9600 2066.57 9600 2019.61 9600 1972.65 9600 1925.7 9600 1878.74 9600 1831.78 9600 1784.83 9600 1737.87 9600 1690.91 9600 1643.96 9600 1597 9600 1550.04 9600 1503.09 9600 1456.13 9600 1409.17 9600 1362.22 9600 1315.26 9600 1268.3 9600 1221.35 9600 1174.39 9600 1127.43 9600 1080.48 9600 1033.52 9600 986.57 9600 939.61 9600 892.65 9600 845.7 9600 798.74 9600 751.78 9600 704.83 9600 657.87 9600 610.91 9600 563.96 9600 517 9600 470.04 9600 423.09 9600 376.13 9600 329.17 9600 282.22"/>
    <rect width="46.83" height="46.96" x="280.98" y="658.74" fill="#F0FDFF" opacity=".56"/>
    <rect width="46.83" height="46.96" x="8733.24" y="799.57" fill="#F0FDFF" opacity=".56"/>
    <rect width="46.83" height="46.96" x="1498.54" y="987.43" fill="#F0FDFF" opacity=".56"/>
    <rect width="46.83" height="46.96" x="4636.1" y="1128.3" fill="#F0FDFF" opacity=".56"/>
    <rect width="46.83" height="46.96" x="4566.1" y="460.3" fill="#F0FDFF" opacity=".56"/>
    <rect width="46.83" height="46.96" x="6901.39" y="1011.3" fill="#F0FDFF" opacity=".56"/>
    <rect width="46.83" height="46.96" x="5525.85" y="1222.22" fill="#F0FDFF" opacity=".56"/>
    <rect width="46.83" height="46.96" x="7750.85" y="547.22" fill="#F0FDFF" opacity=".56"/>
    <rect width="46.83" height="46.96" x="3559.02" y="1691.78" fill="#F0FDFF" opacity=".56"/>
    <rect width="40.87" height="46.96" x="649.49" y="1742.65" fill="#F0FDFF" opacity=".56"/>
    <rect width="46.83" height="46.96" x="7399.2" y="1715.65" fill="#F0FDFF" opacity=".56"/>
    <rect width="46.83" height="46.96" x="4963.9" y="1973.52" fill="#F0FDFF" opacity=".56"/>
    <rect width="46.83" height="46.96" x="4917.07" y="2020.48" fill="#F0FDFF" opacity=".56"/>
    <rect width="46.83" height="46.96" x="5010.73" y="2020.48" fill="#F0FDFF" opacity=".56"/>
    <rect width="46.83" height="46.96" x="2669.27" y="2067.43" fill="#F0FDFF" opacity=".56"/>
    <rect width="46.83" height="46.96" x="4963.9" y="2067.43" fill="#F0FDFF" opacity=".56"/>
    <rect width="46.83" height="46.96" x="6831.9" y="2255.52" fill="#F0FDFF" opacity=".56"/>
    <rect width="46.83" height="46.96" x="6785.07" y="2302.48" fill="#F0FDFF" opacity=".56"/>
    <rect width="46.83" height="46.96" x="6878.73" y="2302.48" fill="#F0FDFF" opacity=".56"/>
    <rect width="46.83" height="46.96" x="6831.9" y="2349.43" fill="#F0FDFF" opacity=".56"/>
    <rect width="46.83" height="46.96" x="4659.9" y="3141.52" fill="#F0FDFF" opacity=".56"/>
    <rect width="46.83" height="46.96" x="4613.07" y="3188.48" fill="#F0FDFF" opacity=".56"/>
    <rect width="46.83" height="46.96" x="4706.73" y="3188.48" fill="#F0FDFF" opacity=".56"/>
    <rect width="46.83" height="46.96" x="4659.9" y="3235.43" fill="#F0FDFF" opacity=".56"/>
    <rect width="46.83" height="46.96" x="3652.9" y="2325.52" fill="#F0FDFF" opacity=".56"/>
    <rect width="46.83" height="46.96" x="3606.07" y="2372.48" fill="#F0FDFF" opacity=".56"/>
    <rect width="46.83" height="46.96" x="3699.73" y="2372.48" fill="#F0FDFF" opacity=".56"/>
    <rect width="46.83" height="46.96" x="3652.9" y="2419.43" fill="#F0FDFF" opacity=".56"/>
    <rect width="46.83" height="46.96" x="2458.9" y="1312.52" fill="#F0FDFF" opacity=".56"/>
    <rect width="46.83" height="46.96" x="2412.07" y="1359.48" fill="#F0FDFF" opacity=".56"/>
    <rect width="46.83" height="46.96" x="2505.73" y="1359.48" fill="#F0FDFF" opacity=".56"/>
    <rect width="46.83" height="46.96" x="2458.9" y="1406.43" fill="#F0FDFF" opacity=".56"/>
    <rect width="46.83" height="46.96" x="1311.9" y="1715.52" fill="#F0FDFF" opacity=".56"/>
    <rect width="46.83" height="46.96" x="1265.07" y="1762.48" fill="#F0FDFF" opacity=".56"/>
    <rect width="46.83" height="46.96" x="1358.73" y="1762.48" fill="#F0FDFF" opacity=".56"/>
    <rect width="46.83" height="46.96" x="1311.9" y="1809.43" fill="#F0FDFF" opacity=".56"/>
    <rect width="46.83" height="46.96" x="3125.9" y="2818.52" fill="#F0FDFF" opacity=".56"/>
    <rect width="46.83" height="46.96" x="3079.07" y="2865.48" fill="#F0FDFF" opacity=".56"/>
    <rect width="46.83" height="46.96" x="3172.73" y="2865.48" fill="#F0FDFF" opacity=".56"/>
    <rect width="46.83" height="46.96" x="3125.9" y="2912.43" fill="#F0FDFF" opacity=".56"/>
    <rect width="46.83" height="46.96" x="6110.9" y="3452.52" fill="#F0FDFF" opacity=".56"/>
    <rect width="46.83" height="46.96" x="6064.07" y="3499.48" fill="#F0FDFF" opacity=".56"/>
    <rect width="46.83" height="46.96" x="6157.73" y="3499.48" fill="#F0FDFF" opacity=".56"/>
    <rect width="46.83" height="46.96" x="6110.9" y="3546.43" fill="#F0FDFF" opacity=".56"/>
    <rect width="46.83" height="46.96" x="8452.9" y="2110.52" fill="#F0FDFF" opacity=".56"/>
    <rect width="46.83" height="46.96" x="8406.07" y="2157.48" fill="#F0FDFF" opacity=".56"/>
    <rect width="46.83" height="46.96" x="8499.73" y="2157.48" fill="#F0FDFF" opacity=".56"/>
    <rect width="46.83" height="46.96" x="8452.9" y="2204.43" fill="#F0FDFF" opacity=".56"/>
    <rect width="46.83" height="46.96" x="1288.9" y="3351.52" fill="#F0FDFF" opacity=".56"/>
    <rect width="46.83" height="46.96" x="1242.07" y="3398.48" fill="#F0FDFF" opacity=".56"/>
    <rect width="46.83" height="46.96" x="1335.73" y="3398.48" fill="#F0FDFF" opacity=".56"/>
    <rect width="46.83" height="46.96" x="1288.9" y="3445.43" fill="#F0FDFF" opacity=".56"/>
    <rect width="46.83" height="46.96" x="6228.29" y="2208.3" fill="#F0FDFF" opacity=".56"/>
    <rect width="46.83" height="46.96" x="7586.68" y="2426.96" fill="#F0FDFF" opacity=".56"/>
    <rect width="46.83" height="46.96" x="8991.22" y="2724.83" fill="#F0FDFF" opacity=".56"/>
    <rect width="46.83" height="46.96" x="4402.12" y="2701.78" fill="#F0FDFF" opacity=".56"/>
    <rect width="46.83" height="46.96" x="2119.32" y="2744.61" fill="#F0FDFF" opacity=".56"/>
    <rect width="46.83" height="46.96" x="1042.41" y="3006.43" fill="#F0FDFF" opacity=".56"/>
    <rect width="46.83" height="46.96" x="6134.63" y="3069.43" fill="#F0FDFF" opacity=".56"/>
    <rect width="46.83" height="46.96" x="5308.22" y="3328.04" fill="#F0FDFF" opacity=".56"/>
    <rect width="46.83" height="46.96" x="267.8" y="3704.83" fill="#F0FDFF" opacity=".56"/>
    <rect width="46.83" height="46.96" x="8640.41" y="3639.83" fill="#F0FDFF" opacity=".56"/>
    <rect width="46.83" height="46.96" x="2716.1" y="3716.57" fill="#F0FDFF" opacity=".56"/>
    <rect width="46.83" height="46.96" x="1685.85" y="4077.3" fill="#F0FDFF" opacity=".56"/>
    <rect width="46.83" height="46.96" x="6924.39" y="4199.13" fill="#F0FDFF" opacity=".56"/>
  </g>
</svg>
