<svg xmlns="http://www.w3.org/2000/svg" width="9600" height="4978" viewBox="0 0 9600 4978">
  <g fill="none">
    <polygon fill="#D2F3F9" points="9553.17 704.96 9506.34 704.96 9459.51 704.96 9412.68 704.96 9365.85 704.96 9319.02 704.96 9272.19 704.96 9225.37 704.96 9178.54 704.96 9131.71 751.91 9084.88 751.91 9038.05 751.91 8991.22 751.91 8944.39 751.91 8897.56 751.91 8850.73 751.91 8803.9 751.91 8757.07 704.96 8710.24 704.96 8663.42 704.96 8616.58 704.96 8569.76 704.96 8522.93 704.96 8476.1 704.96 8429.27 704.96 8382.44 704.96 8335.61 704.96 8288.78 704.96 8241.95 704.96 8195.12 658 8148.29 658 8101.46 658 8054.63 658 8007.81 611.04 7960.98 611.04 7914.15 611.04 7867.32 564.09 7820.49 564.09 7773.66 564.09 7726.83 517.13 7680 517.13 7633.17 517.13 7586.34 470.17 7539.51 470.17 7492.68 423.22 7445.85 423.22 7399.02 376.26 7352.19 376.26 7305.37 376.26 7258.54 376.26 7211.71 329.3 7164.88 329.3 7118.05 329.3 7071.22 329.3 7024.39 282.35 6977.56 282.35 6930.73 235.39 6883.9 235.39 6837.07 235.39 6790.24 235.39 6743.41 188.43 6696.59 188.43 6649.76 188.43 6602.93 188.43 6556.1 188.43 6509.27 188.43 6462.44 188.43 6415.61 188.43 6368.78 141.48 6321.95 141.48 6275.12 141.48 6228.29 141.48 6181.46 141.48 6134.63 141.48 6087.81 141.48 6040.98 141.48 5994.15 141.48 5947.32 141.48 5900.49 141.48 5853.66 188.43 5806.83 188.43 5760 188.43 5713.17 188.43 5666.34 188.43 5619.51 188.43 5572.68 188.43 5525.85 188.43 5479.02 235.39 5432.19 235.39 5385.37 235.39 5338.54 235.39 5291.71 235.39 5244.88 282.35 5198.05 282.35 5151.22 282.35 5104.39 282.35 5057.56 329.3 5010.73 329.3 4963.9 329.3 4917.07 329.3 4870.24 376.26 4823.41 376.26 4776.59 376.26 4729.76 376.26 4682.93 423.22 4636.1 423.22 4589.27 423.22 4542.44 423.22 4495.61 423.22 4448.78 470.17 4401.95 470.17 4355.12 517.13 4308.29 517.13 4261.46 564.09 4214.63 564.09 4167.81 564.09 4120.98 611.04 4074.15 611.04 4027.32 658 3980.49 658 3933.66 704.96 3886.83 704.96 3840 704.96 3793.17 751.91 3746.34 751.91 3699.51 751.91 3652.68 751.91 3605.85 751.91 3559.02 751.91 3512.2 751.91 3465.37 751.91 3418.54 751.91 3371.71 751.91 3324.88 751.91 3278.05 751.91 3231.22 751.91 3184.39 751.91 3137.56 751.91 3090.73 751.91 3043.9 751.91 2997.07 751.91 2950.24 751.91 2903.41 751.91 2856.59 751.91 2809.76 704.96 2762.93 704.96 2716.1 704.96 2669.27 704.96 2622.44 658 2575.61 658 2528.78 658 2481.95 658 2435.12 611.04 2388.29 611.04 2341.46 564.09 2294.63 564.09 2247.8 517.13 2200.98 517.13 2154.15 517.13 2107.32 470.17 2060.49 470.17 2013.66 423.22 1966.83 423.22 1920 423.22 1873.17 423.22 1826.34 376.26 1779.51 376.26 1732.68 376.26 1685.85 376.26 1639.02 329.3 1592.19 329.3 1545.37 282.35 1498.54 282.35 1451.71 235.39 1404.88 235.39 1358.05 188.43 1311.22 188.43 1264.39 141.48 1217.56 141.48 1170.73 141.48 1123.9 94.52 1077.07 94.52 1030.24 94.52 983.41 94.52 936.59 47.56 889.76 47.56 842.93 47.56 796.1 47.56 749.27 47.56 702.44 47.56 655.61 47.56 608.78 47.56 561.95 47.56 515.12 47.56 468.29 47.56 421.46 .61 374.63 .61 327.81 .61 280.98 .61 234.15 .61 187.32 .61 140.49 .61 93.66 .61 46.83 47.56 0 47.56 0 94.52 0 141.48 46.83 141.48 46.83 94.52 93.66 94.52 140.49 94.52 187.32 94.52 234.15 94.52 280.98 94.52 327.81 94.52 374.63 94.52 421.46 94.52 468.29 94.52 468.29 141.48 515.12 141.48 561.95 141.48 608.78 141.48 655.61 141.48 702.44 141.48 749.27 141.48 796.1 141.48 842.93 141.48 889.76 141.48 936.59 141.48 983.41 141.48 983.41 188.43 1030.24 188.43 1077.07 188.43 1123.9 188.43 1170.73 188.43 1170.73 235.39 1217.56 235.39 1264.39 235.39 1311.22 235.39 1311.22 282.35 1358.05 282.35 1404.88 282.35 1404.88 329.3 1451.71 329.3 1498.54 329.3 1498.54 376.26 1545.37 376.26 1592.19 376.26 1592.19 423.22 1639.02 423.22 1685.85 423.22 1685.85 470.17 1732.68 470.17 1779.51 470.17 1826.34 470.17 1873.17 470.17 1873.17 517.13 1920 517.13 1966.83 517.13 2013.66 517.13 2060.49 517.13 2060.49 564.09 2107.32 564.09 2154.15 564.09 2154.15 611.04 2200.98 611.04 2247.8 611.04 2294.63 611.04 2294.63 658 2341.46 658 2388.29 658 2388.29 704.96 2435.12 704.96 2481.95 704.96 2481.95 751.91 2528.78 751.91 2575.61 751.91 2622.44 751.91 2669.27 751.91 2669.27 798.87 2716.1 798.87 2762.93 798.87 2809.76 798.87 2856.59 798.87 2856.59 845.83 2903.41 845.83 2950.24 845.83 2997.07 845.83 3043.9 845.83 3090.73 845.83 3137.56 845.83 3184.39 845.83 3231.22 845.83 3278.05 845.83 3324.88 845.83 3371.71 845.83 3418.54 845.83 3465.37 845.83 3512.2 845.83 3559.02 845.83 3605.85 845.83 3652.68 845.83 3699.51 845.83 3746.34 845.83 3793.17 845.83 3793.17 798.87 3840 798.87 3886.83 798.87 3933.66 798.87 3933.66 751.91 3980.49 751.91 4027.32 751.91 4027.32 704.96 4074.15 704.96 4120.98 704.96 4120.98 658 4167.81 658 4214.63 658 4261.46 658 4261.46 611.04 4308.29 611.04 4355.12 611.04 4355.12 564.09 4401.95 564.09 4448.78 564.09 4448.78 517.13 4495.61 517.13 4542.44 517.13 4589.27 517.13 4636.1 517.13 4682.93 517.13 4682.93 470.17 4729.76 470.17 4776.59 470.17 4823.41 470.17 4870.24 470.17 4870.24 423.22 4917.07 423.22 4963.9 423.22 5010.73 423.22 5057.56 423.22 5057.56 376.26 5104.39 376.26 5151.22 376.26 5198.05 376.26 5244.88 376.26 5244.88 329.3 5291.71 329.3 5338.54 329.3 5385.37 329.3 5432.19 329.3 5479.02 329.3 5479.02 282.35 5525.85 282.35 5572.68 282.35 5619.51 282.35 5666.34 282.35 5713.17 282.35 5760 282.35 5806.83 282.35 5853.66 282.35 5853.66 235.39 5900.49 235.39 5947.32 235.39 5994.15 235.39 6040.98 235.39 6087.81 235.39 6134.63 235.39 6181.46 235.39 6228.29 235.39 6275.12 235.39 6321.95 235.39 6368.78 235.39 6415.61 235.39 6415.61 282.35 6462.44 282.35 6509.27 282.35 6556.1 282.35 6602.93 282.35 6649.76 282.35 6696.59 282.35 6743.41 282.35 6790.24 282.35 6790.24 329.3 6837.07 329.3 6883.9 329.3 6930.73 329.3 6977.56 329.3 6977.56 376.26 7024.39 376.26 7071.22 376.26 7071.22 423.22 7118.05 423.22 7164.88 423.22 7211.71 423.22 7258.54 423.22 7258.54 470.17 7305.37 470.17 7352.19 470.17 7399.02 470.17 7445.85 470.17 7445.85 517.13 7492.68 517.13 7539.51 517.13 7539.51 564.09 7586.34 564.09 7633.17 564.09 7633.17 611.04 7680 611.04 7726.83 611.04 7773.66 611.04 7773.66 658 7820.49 658 7867.32 658 7914.15 658 7914.15 704.96 7960.98 704.96 8007.81 704.96 8054.63 704.96 8054.63 751.91 8101.46 751.91 8148.29 751.91 8195.12 751.91 8241.95 751.91 8241.95 798.87 8288.78 798.87 8335.61 798.87 8382.44 798.87 8429.27 798.87 8476.1 798.87 8522.93 798.87 8569.76 798.87 8616.58 798.87 8663.42 798.87 8710.24 798.87 8757.07 798.87 8803.9 798.87 8803.9 845.83 8850.73 845.83 8897.56 845.83 8944.39 845.83 8991.22 845.83 9038.05 845.83 9084.88 845.83 9131.71 845.83 9131.71 798.87 9178.54 798.87 9225.37 798.87 9272.19 798.87 9319.02 798.87 9365.85 798.87 9412.68 798.87 9459.51 798.87 9506.34 798.87 9553.17 798.87 9600 798.87 9600 751.91 9600 704.96"/>
    <polygon fill="#B6F1FF" points="9553.17 798.87 9506.34 798.87 9459.51 798.87 9412.68 798.87 9365.85 798.87 9319.02 798.87 9272.19 798.87 9225.37 798.87 9178.54 798.87 9131.71 798.87 9131.71 845.83 9084.88 845.83 9038.05 845.83 8991.22 845.83 8944.39 845.83 8897.56 845.83 8850.73 845.83 8803.9 845.83 8803.9 798.87 8757.07 798.87 8710.24 798.87 8663.42 798.87 8616.58 798.87 8569.76 798.87 8522.93 798.87 8476.1 798.87 8429.27 798.87 8382.44 798.87 8335.61 798.87 8288.78 798.87 8241.95 798.87 8241.95 751.91 8195.12 751.91 8148.29 751.91 8101.46 751.91 8054.63 751.91 8054.63 704.96 8007.81 704.96 7960.98 704.96 7914.15 704.96 7914.15 658 7867.32 658 7820.49 658 7773.66 658 7773.66 611.04 7726.83 611.04 7680 611.04 7633.17 611.04 7633.17 564.09 7586.34 564.09 7539.51 564.09 7539.51 517.13 7492.68 517.13 7445.85 517.13 7445.85 470.17 7399.02 470.17 7352.19 470.17 7305.37 470.17 7258.54 470.17 7258.54 423.22 7211.71 423.22 7164.88 423.22 7118.05 423.22 7071.22 423.22 7071.22 376.26 7024.39 376.26 6977.56 376.26 6977.56 329.3 6930.73 329.3 6883.9 329.3 6837.07 329.3 6790.24 329.3 6790.24 282.35 6743.41 282.35 6696.59 282.35 6649.76 282.35 6602.93 282.35 6556.1 282.35 6509.27 282.35 6462.44 282.35 6415.61 282.35 6415.61 235.39 6368.78 235.39 6321.95 235.39 6275.12 235.39 6228.29 235.39 6181.46 235.39 6134.63 235.39 6087.81 235.39 6040.98 235.39 5994.15 235.39 5947.32 235.39 5900.49 235.39 5853.66 235.39 5853.66 282.35 5806.83 282.35 5760 282.35 5713.17 282.35 5666.34 282.35 5619.51 282.35 5572.68 282.35 5525.85 282.35 5479.02 282.35 5479.02 329.3 5432.19 329.3 5385.37 329.3 5338.54 329.3 5291.71 329.3 5244.88 329.3 5244.88 376.26 5198.05 376.26 5151.22 376.26 5104.39 376.26 5057.56 376.26 5057.56 423.22 5010.73 423.22 4963.9 423.22 4917.07 423.22 4870.24 423.22 4870.24 470.17 4823.41 470.17 4776.59 470.17 4729.76 470.17 4682.93 470.17 4682.93 517.13 4636.1 517.13 4589.27 517.13 4542.44 517.13 4495.61 517.13 4448.78 517.13 4448.78 564.09 4401.95 564.09 4355.12 564.09 4355.12 611.04 4308.29 611.04 4261.46 611.04 4261.46 658 4214.63 658 4167.81 658 4120.98 658 4120.98 704.96 4074.15 704.96 4027.32 704.96 4027.32 751.91 3980.49 751.91 3933.66 751.91 3933.66 798.87 3886.83 798.87 3840 798.87 3793.17 798.87 3793.17 845.83 3746.34 845.83 3699.51 845.83 3652.68 845.83 3605.85 845.83 3559.02 845.83 3512.2 845.83 3465.37 845.83 3418.54 845.83 3371.71 845.83 3324.88 845.83 3278.05 845.83 3231.22 845.83 3184.39 845.83 3137.56 845.83 3090.73 845.83 3043.9 845.83 2997.07 845.83 2950.24 845.83 2903.41 845.83 2856.59 845.83 2856.59 798.87 2809.76 798.87 2762.93 798.87 2716.1 798.87 2669.27 798.87 2669.27 751.91 2622.44 751.91 2575.61 751.91 2528.78 751.91 2481.95 751.91 2481.95 704.96 2435.12 704.96 2388.29 704.96 2388.29 658 2341.46 658 2294.63 658 2294.63 611.04 2247.8 611.04 2200.98 611.04 2154.15 611.04 2154.15 564.09 2107.32 564.09 2060.49 564.09 2060.49 517.13 2013.66 517.13 1966.83 517.13 1920 517.13 1873.17 517.13 1873.17 470.17 1826.34 470.17 1779.51 470.17 1732.68 470.17 1685.85 470.17 1685.85 423.22 1639.02 423.22 1592.19 423.22 1592.19 376.26 1545.37 376.26 1498.54 376.26 1498.54 329.3 1451.71 329.3 1404.88 329.3 1404.88 282.35 1358.05 282.35 1311.22 282.35 1311.22 235.39 1264.39 235.39 1217.56 235.39 1170.73 235.39 1170.73 188.43 1123.9 188.43 1077.07 188.43 1030.24 188.43 983.41 188.43 983.41 141.48 936.59 141.48 889.76 141.48 842.93 141.48 796.1 141.48 749.27 141.48 702.44 141.48 655.61 141.48 608.78 141.48 561.95 141.48 515.12 141.48 468.29 141.48 468.29 94.52 421.46 94.52 374.63 94.52 327.81 94.52 280.98 94.52 234.15 94.52 187.32 94.52 140.49 94.52 93.66 94.52 46.83 94.52 46.83 141.48 0 141.48 0 188.43 0 235.39 0 282.35 0 329.3 0 376.26 0 423.22 0 470.17 0 517.13 0 564.09 0 611.04 0 658 0 704.96 0 751.91 0 798.87 0 845.83 0 892.78 0 939.74 0 986.7 0 1033.65 0 1080.61 0 1127.57 0 1174.52 0 1221.48 0 1268.43 0 1315.39 0 1362.35 0 1409.3 0 1456.26 0 1503.22 0 1550.17 0 1597.13 0 1644.09 0 1691.04 0 1738 0 1784.96 0 1831.91 0 1878.87 0 1925.83 0 1972.78 0 2019.74 0 2066.7 0 2113.65 0 2160.61 0 2207.57 0 2254.52 0 2301.48 0 2348.43 0 2395.39 0 2442.35 0 2489.3 0 2536.26 0 2583.22 0 2630.17 0 2677.13 0 2724.09 0 2771.04 0 2818 0 2864.96 0 2911.91 0 2958.87 0 3005.83 0 3052.78 0 3099.74 0 3146.7 0 3193.65 0 3240.61 0 3287.57 0 3334.52 0 3381.48 0 3428.43 0 3475.39 0 3522.35 0 3569.3 0 3616.26 0 3663.22 0 3710.17 0 3757.13 0 3804.09 0 3851.04 0 3898 0 3944.96 0 3991.91 0 4038.87 0 4085.83 0 4132.78 0 4179.74 0 4226.7 0 4273.65 0 4320.61 0 4367.56 0 4414.52 0 4461.48 0 4508.44 0 4555.39 0 4602.35 0 4649.3 0 4696.26 0 4743.22 0 4790.17 0 4837.13 0 4884.09 0 4931.04 0 4978 46.83 4978 93.66 4978 140.49 4978 187.32 4978 234.15 4978 280.98 4978 327.81 4978 374.63 4978 421.46 4978 468.29 4978 515.12 4978 561.95 4978 608.78 4978 655.61 4978 702.44 4978 749.27 4978 796.1 4978 842.93 4978 889.76 4978 936.59 4978 983.41 4978 1030.24 4978 1077.07 4978 1123.9 4978 1170.73 4978 1217.56 4978 1264.39 4978 1311.22 4978 1358.05 4978 1404.88 4978 1451.71 4978 1498.54 4978 1545.37 4978 1592.19 4978 1639.02 4978 1685.85 4978 1732.68 4978 1779.51 4978 1826.34 4978 1873.17 4978 1920 4978 1966.83 4978 2013.66 4978 2060.49 4978 2107.32 4978 2154.15 4978 2200.98 4978 2247.8 4978 2294.63 4978 2341.46 4978 2388.29 4978 2435.12 4978 2481.95 4978 2528.78 4978 2575.61 4978 2622.44 4978 2669.27 4978 2716.1 4978 2762.93 4978 2809.76 4978 2856.59 4978 2903.41 4978 2950.24 4978 2997.07 4978 3043.9 4978 3090.73 4978 3137.56 4978 3184.39 4978 3231.22 4978 3278.05 4978 3324.88 4978 3371.71 4978 3418.54 4978 3465.37 4978 3512.2 4978 3559.02 4978 3605.85 4978 3652.68 4978 3699.51 4978 3746.34 4978 3793.17 4978 3840 4978 3886.83 4978 3933.66 4978 3980.49 4978 4027.32 4978 4074.15 4978 4120.98 4978 4167.81 4978 4214.63 4978 4261.46 4978 4308.29 4978 4355.12 4978 4401.95 4978 4448.78 4978 4495.61 4978 4542.44 4978 4589.27 4978 4636.1 4978 4682.93 4978 4729.76 4978 4776.59 4978 4823.41 4978 4870.24 4978 4917.07 4978 4963.9 4978 5010.73 4978 5057.56 4978 5104.39 4978 5151.22 4978 5198.05 4978 5244.88 4978 5291.71 4978 5338.54 4978 5385.37 4978 5432.19 4978 5479.02 4978 5525.85 4978 5572.68 4978 5619.51 4978 5666.34 4978 5713.17 4978 5760 4978 5806.83 4978 5853.66 4978 5900.49 4978 5947.32 4978 5994.15 4978 6040.98 4978 6087.81 4978 6134.63 4978 6181.46 4978 6228.29 4978 6275.12 4978 6321.95 4978 6368.78 4978 6415.61 4978 6462.44 4978 6509.27 4978 6556.1 4978 6602.93 4978 6649.76 4978 6696.59 4978 6743.41 4978 6790.24 4978 6837.07 4978 6883.9 4978 6930.73 4978 6977.56 4978 7024.39 4978 7071.22 4978 7118.05 4978 7164.88 4978 7211.71 4978 7258.54 4978 7305.37 4978 7352.19 4978 7399.02 4978 7445.85 4978 7492.68 4978 7539.51 4978 7586.34 4978 7633.17 4978 7680 4978 7726.83 4978 7773.66 4978 7820.49 4978 7867.32 4978 7914.15 4978 7960.98 4978 8007.81 4978 8054.63 4978 8101.46 4978 8148.29 4978 8195.12 4978 8241.95 4978 8288.78 4978 8335.61 4978 8382.44 4978 8429.27 4978 8476.1 4978 8522.93 4978 8569.76 4978 8616.58 4978 8663.42 4978 8710.24 4978 8757.07 4978 8803.9 4978 8850.73 4978 8897.56 4978 8944.39 4978 8991.22 4978 9038.05 4978 9084.88 4978 9131.71 4978 9178.54 4978 9225.37 4978 9272.19 4978 9319.02 4978 9365.85 4978 9412.68 4978 9459.51 4978 9506.34 4978 9553.17 4978 9600 4978 9600 4931.04 9600 4884.09 9600 4837.13 9600 4790.17 9600 4743.22 9600 4696.26 9600 4649.3 9600 4602.35 9600 4555.39 9600 4508.44 9600 4461.48 9600 4414.52 9600 4367.56 9600 4320.61 9600 4273.65 9600 4226.7 9600 4179.74 9600 4132.78 9600 4085.83 9600 4038.87 9600 3991.91 9600 3944.96 9600 3898 9600 3851.04 9600 3804.09 9600 3757.13 9600 3710.17 9600 3663.22 9600 3616.26 9600 3569.3 9600 3522.35 9600 3475.39 9600 3428.43 9600 3381.48 9600 3334.52 9600 3287.57 9600 3240.61 9600 3193.65 9600 3146.7 9600 3099.74 9600 3052.78 9600 3005.83 9600 2958.87 9600 2911.91 9600 2864.96 9600 2818 9600 2771.04 9600 2724.09 9600 2677.13 9600 2630.17 9600 2583.22 9600 2536.26 9600 2489.3 9600 2442.35 9600 2395.39 9600 2348.43 9600 2301.48 9600 2254.52 9600 2207.57 9600 2160.61 9600 2113.65 9600 2066.7 9600 2019.74 9600 1972.78 9600 1925.83 9600 1878.87 9600 1831.91 9600 1784.96 9600 1738 9600 1691.04 9600 1644.09 9600 1597.13 9600 1550.17 9600 1503.22 9600 1456.26 9600 1409.3 9600 1362.35 9600 1315.39 9600 1268.43 9600 1221.48 9600 1174.52 9600 1127.57 9600 1080.61 9600 1033.65 9600 986.7 9600 939.74 9600 892.78 9600 845.83 9600 798.87"/>
    <rect width="46.83" height="46.96" x="616.98" y="4249.74" fill="#F0FDFF" opacity=".56"/>
    <rect width="46.83" height="46.96" x="8594.24" y="4578.57" fill="#F0FDFF" opacity=".56"/>
    <rect width="46.83" height="46.96" x="1498.54" y="818.43" fill="#F0FDFF" opacity=".56"/>
    <rect width="46.83" height="46.96" x="5212.1" y="4752.3" fill="#F0FDFF" opacity=".56"/>
    <rect width="46.83" height="46.96" x="4697.1" y="4202.3" fill="#F0FDFF" opacity=".56"/>
    <rect width="46.83" height="46.96" x="6879.39" y="4775.3" fill="#F0FDFF" opacity=".56"/>
    <rect width="46.83" height="46.96" x="5586.85" y="574.22" fill="#F0FDFF" opacity=".56"/>
    <rect width="46.83" height="46.96" x="7564.85" y="4705.22" fill="#F0FDFF" opacity=".56"/>
    <rect width="46.83" height="46.96" x="3620.02" y="1043.78" fill="#F0FDFF" opacity=".56"/>
    <rect width="40.87" height="46.96" x="730.49" y="915.65" fill="#F0FDFF" opacity=".56"/>
    <rect width="46.83" height="46.96" x="7483.2" y="938.65" fill="#F0FDFF" opacity=".56"/>
    <rect width="46.83" height="46.96" x="5071.9" y="1137.52" fill="#F0FDFF" opacity=".56"/>
    <rect width="46.83" height="46.96" x="5025.07" y="1184.48" fill="#F0FDFF" opacity=".56"/>
    <rect width="46.83" height="46.96" x="5118.73" y="1184.48" fill="#F0FDFF" opacity=".56"/>
    <rect width="46.83" height="46.96" x="2730.27" y="1419.43" fill="#F0FDFF" opacity=".56"/>
    <rect width="46.83" height="46.96" x="5071.9" y="1231.43" fill="#F0FDFF" opacity=".56"/>
    <rect width="46.83" height="46.96" x="6869.9" y="1160.52" fill="#F0FDFF" opacity=".56"/>
    <rect width="46.83" height="46.96" x="6823.07" y="1207.48" fill="#F0FDFF" opacity=".56"/>
    <rect width="46.83" height="46.96" x="6916.73" y="1207.48" fill="#F0FDFF" opacity=".56"/>
    <rect width="46.83" height="46.96" x="6869.9" y="1254.43" fill="#F0FDFF" opacity=".56"/>
    <rect width="46.83" height="46.96" x="4720.9" y="2493.52" fill="#F0FDFF" opacity=".56"/>
    <rect width="46.83" height="46.96" x="4674.07" y="2540.48" fill="#F0FDFF" opacity=".56"/>
    <rect width="46.83" height="46.96" x="4767.73" y="2540.48" fill="#F0FDFF" opacity=".56"/>
    <rect width="46.83" height="46.96" x="4720.9" y="2587.43" fill="#F0FDFF" opacity=".56"/>
    <rect width="46.83" height="46.96" x="4066.9" y="1301.52" fill="#F0FDFF" opacity=".56"/>
    <rect width="46.83" height="46.96" x="4020.07" y="1348.48" fill="#F0FDFF" opacity=".56"/>
    <rect width="46.83" height="46.96" x="4113.73" y="1348.48" fill="#F0FDFF" opacity=".56"/>
    <rect width="46.83" height="46.96" x="4066.9" y="1395.43" fill="#F0FDFF" opacity=".56"/>
    <rect width="46.83" height="46.96" x="2519.9" y="4531.52" fill="#F0FDFF" opacity=".56"/>
    <rect width="46.83" height="46.96" x="2473.07" y="4578.48" fill="#F0FDFF" opacity=".56"/>
    <rect width="46.83" height="46.96" x="2566.73" y="4578.48" fill="#F0FDFF" opacity=".56"/>
    <rect width="46.83" height="46.96" x="2519.9" y="4625.43" fill="#F0FDFF" opacity=".56"/>
    <rect width="46.83" height="46.96" x="1349.9" y="503.52" fill="#F0FDFF" opacity=".56"/>
    <rect width="46.83" height="46.96" x="1303.07" y="550.48" fill="#F0FDFF" opacity=".56"/>
    <rect width="46.83" height="46.96" x="1396.73" y="550.48" fill="#F0FDFF" opacity=".56"/>
    <rect width="46.83" height="46.96" x="1349.9" y="597.43" fill="#F0FDFF" opacity=".56"/>
    <rect width="46.83" height="46.96" x="3186.9" y="2170.52" fill="#F0FDFF" opacity=".56"/>
    <rect width="46.83" height="46.96" x="3140.07" y="2217.48" fill="#F0FDFF" opacity=".56"/>
    <rect width="46.83" height="46.96" x="3233.73" y="2217.48" fill="#F0FDFF" opacity=".56"/>
    <rect width="46.83" height="46.96" x="3186.9" y="2264.43" fill="#F0FDFF" opacity=".56"/>
    <rect width="46.83" height="46.96" x="6265.9" y="2610.52" fill="#F0FDFF" opacity=".56"/>
    <rect width="46.83" height="46.96" x="6219.07" y="2657.48" fill="#F0FDFF" opacity=".56"/>
    <rect width="46.83" height="46.96" x="6312.73" y="2657.48" fill="#F0FDFF" opacity=".56"/>
    <rect width="46.83" height="46.96" x="6265.9" y="2704.43" fill="#F0FDFF" opacity=".56"/>
    <rect width="46.83" height="46.96" x="8930.9" y="4728.52" fill="#F0FDFF" opacity=".56"/>
    <rect width="46.83" height="46.96" x="8884.07" y="4775.48" fill="#F0FDFF" opacity=".56"/>
    <rect width="46.83" height="46.96" x="8977.73" y="4775.48" fill="#F0FDFF" opacity=".56"/>
    <rect width="46.83" height="46.96" x="8930.9" y="4822.43" fill="#F0FDFF" opacity=".56"/>
    <rect width="46.83" height="46.96" x="1660.9" y="2042.52" fill="#F0FDFF" opacity=".56"/>
    <rect width="46.83" height="46.96" x="1614.07" y="2089.48" fill="#F0FDFF" opacity=".56"/>
    <rect width="46.83" height="46.96" x="1707.73" y="2089.48" fill="#F0FDFF" opacity=".56"/>
    <rect width="46.83" height="46.96" x="1660.9" y="2136.43" fill="#F0FDFF" opacity=".56"/>
    <rect width="46.83" height="46.96" x="6219.29" y="1278.3" fill="#F0FDFF" opacity=".56"/>
    <rect width="46.83" height="46.96" x="7694.68" y="1653.96" fill="#F0FDFF" opacity=".56"/>
    <rect width="46.83" height="46.96" x="9071.22" y="1551.83" fill="#F0FDFF" opacity=".56"/>
    <rect width="46.83" height="46.96" x="4463.12" y="2053.78" fill="#F0FDFF" opacity=".56"/>
    <rect width="46.83" height="46.96" x="2351.32" y="1781.61" fill="#F0FDFF" opacity=".56"/>
    <rect width="46.83" height="46.96" x="904.41" y="1781.43" fill="#F0FDFF" opacity=".56"/>
    <rect width="46.83" height="46.96" x="6172.63" y="1982.43" fill="#F0FDFF" opacity=".56"/>
    <rect width="46.83" height="46.96" x="5346.22" y="2374.04" fill="#F0FDFF" opacity=".56"/>
    <rect width="46.83" height="46.96" x="351.8" y="2804.83" fill="#F0FDFF" opacity=".56"/>
    <rect width="46.83" height="46.96" x="8650.41" y="2507.83" fill="#F0FDFF" opacity=".56"/>
    <rect width="46.83" height="46.96" x="2824.1" y="2921.57" fill="#F0FDFF" opacity=".56"/>
    <rect width="46.83" height="46.96" x="1793.85" y="3309.3" fill="#F0FDFF" opacity=".56"/>
    <rect width="46.83" height="46.96" x="7085.39" y="3286.13" fill="#F0FDFF" opacity=".56"/>
  </g>
</svg>
