<svg xmlns="http://www.w3.org/2000/svg" xmlns:xlink="http://www.w3.org/1999/xlink" width="200" height="200" viewBox="0 0 200 200">
  <g transform="rotate(270 100 100)">
    <polygon fill="#3F3700" points="0 0 0 200 62.739 200 62.739 186.414 66.108 186.414 66.108 166.006 69.502 166.006 69.502 159.201 72.896 159.201 72.896 148.993 76.29 148.993 76.29 142.187 79.684 142.187 79.684 135.382 83.077 135.382 83.077 131.978 86.472 131.978 86.472 125.174 89.865 125.174 89.865 118.368 93.259 118.368 93.259 114.965 96.653 114.965 96.653 111.556 100.047 111.556 100.047 108.153 103.441 108.153 103.441 104.751 106.834 104.751 106.834 102.659 107.955 102.659 107.955 99.266 111.358 99.266 111.358 95.871 114.767 95.871 114.767 92.478 118.17 92.478 118.17 89.084 124.975 89.084 124.975 85.69 131.78 85.69 131.78 82.296 135.184 82.296 135.184 78.902 141.989 78.902 141.989 75.509 148.795 75.509 148.795 72.114 159.003 72.114 159.003 68.721 165.808 68.721 165.808 65.326 186.215 65.326 186.215 61.957 200 61.957 200 0"/>
    <polygon fill="#C4BC97" points="0 0 0 200 58.663 200 58.663 185.971 62.188 185.971 62.188 165 66 165 66 158 69 158 69 148 73 148 73 141 76 141 76 134 79 134 79 131 83 131 83 124 86 124 86 117 90 117 90 114 93 114 93 110 96 110 96 107 100 107 100 104 103 104 103 100 106 100 106 97 107 97 107 95.219 109.802 95.219 109.802 92.219 113.802 92.219 113.802 89.219 116.802 89.219 116.802 85.219 123.802 85.219 123.802 82.219 130.802 82.219 130.802 78.219 133.802 78.219 133.802 75.219 140.802 75.219 140.802 72.219 147.802 72.219 147.802 68.219 157.802 68.219 157.802 65.219 164.802 65.219 164.802 61.407 185.773 61.407 185.773 57.881 200 57.881 200 0"/>
    <polygon fill="#000" points="200 0 0 0 0 200 45.943 200 45.943 186.216 49.355 186.216 49.355 169.211 52.752 169.211 52.752 159.003 56.145 159.003 56.145 148.795 59.538 148.795 59.538 138.586 62.932 138.586 62.932 131.78 66.326 131.78 66.326 124.976 69.721 124.976 69.721 121.572 73.115 121.572 73.115 114.767 76.508 114.767 76.508 111.364 79.903 111.364 79.903 104.559 83.296 104.559 83.296 101.149 86.692 101.149 86.692 97.747 90.085 97.747 90.085 94.344 93.478 94.344 93.478 90.941 96.873 90.941 96.873 87.538 100.266 87.538 100.266 84.136 103.659 84.136 103.659 80.733 107 80.733 107 78.903 111.364 78.903 111.364 75.508 114.767 75.508 114.767 72.115 121.572 72.115 121.572 68.721 124.976 68.721 124.976 65.326 131.78 65.326 131.78 61.932 138.586 61.932 138.586 58.538 148.795 58.538 148.795 55.145 159.003 55.145 159.003 51.752 169.211 51.752 169.211 48.355 186.216 48.355 186.216 44.943 200 44.943"/>
    <polygon fill="#8E886F" points="104 .198 0 0 0 200 42.028 200 42.028 186.037 45.423 186.037 45.423 169.032 48.817 169.032 48.817 158.824 52.211 158.824 52.211 148.616 55.605 148.616 55.605 138.407 58.998 138.407 58.998 131.602 62.393 131.602 62.393 124.797 65.786 124.797 65.786 121.394 69.181 121.394 69.181 114.588 72.575 114.588 72.575 111.186 75.968 111.186 75.968 104.38 79.363 104.38 79.363 100.977 82.758 100.977 82.758 97.568 86.152 97.568 86.152 94.165 89.545 94.165 89.545 90.763 92.939 90.763 92.939 87.359 96.332 87.359 96.332 83.957 99.726 83.957 99.726 80.555 103.12 80.555 103.12 77.151 106.513 77.151 106.513 75.186 110.988 75.186 110.988 71.793 114.39 71.793 114.39 68.4 121.196 68.4 121.196 65.004 124.599 65.004 124.599 61.611 131.404 61.611 131.404 58.217 138.209 58.217 138.209 54.824 148.418 54.824 148.418 51.429 158.626 51.429 158.626 48.035 168.834 48.035 168.834 44.642 185.839 44.642 185.839 41.246 200 41.246 200 0 104 0 104 .198"/>
    <polygon fill="#C4BC97" points="0 0 0 200 22.073 200 22.073 71.951 24.634 71.951 24.634 75.368 51.895 75.368 51.895 71.951 58.711 71.951 58.711 68.534 62.117 68.534 62.117 65.117 65.525 65.117 65.525 61.701 68.933 61.701 68.933 58.284 72.34 58.284 72.34 51.45 75.748 51.45 75.748 24.116 72.34 24.116 72.34 21.49 200 21.49 200 0"/>
    <g transform="translate(14 13)">
      <polygon fill="#3F3700" points="10.634 45.284 10.634 41.867 7.227 41.867 7.227 38.45 3.819 38.45 3.819 35.033 .411 35.033 .411 14.533 3.82 14.533 3.82 11.116 7.227 11.116 7.227 7.699 10.634 7.699 10.634 4.282 14.043 4.282 14.043 .865 34.487 .865 34.487 4.282 37.895 4.282 37.895 7.699 41.302 7.699 41.302 11.116 44.71 11.116 44.71 14.533 48.117 14.533 48.117 35.033 44.71 35.033 44.71 38.45 41.302 38.45 41.302 41.867 37.894 41.867 37.894 45.284 34.487 45.284 34.487 48.701 14.042 48.701 14.042 45.284"/>
      <polygon fill="#FF0" points="14.042 41.867 10.634 41.867 10.634 38.45 7.227 38.45 7.227 35.033 3.82 35.033 3.82 17.949 44.71 17.949 44.71 35.033 41.302 35.033 41.302 38.45 37.894 38.45 37.894 41.867 34.487 41.867 34.487 45.284 14.042 45.284 14.042 41.867"/>
      <polygon fill="#FFF" points="3.82 19.657 3.82 14.533 7.227 14.533 7.227 11.116 10.634 11.116 10.634 7.699 14.043 7.699 14.043 4.282 34.487 4.282 34.487 7.699 37.895 7.699 37.895 11.116 41.302 11.116 41.302 14.533 44.71 14.533 44.71 19.657 41.302 19.657"/>
      <polygon fill="#E5E3C1" points="14.042 11.116 14.042 7.699 34.487 7.699 34.487 11.116 37.895 11.116 37.895 14.533 41.302 14.533 41.302 35.033 37.895 35.033 37.895 38.45 34.488 38.45 34.488 41.867 14.042 41.867 14.042 38.45 10.634 38.45 10.634 35.033 7.227 35.033 7.227 14.533 10.634 14.533 10.634 11.116 14.042 11.116"/>
      <polygon fill="#FFF" points="14.042 14.533 17.449 14.533 17.449 11.116 14.042 11.116"/>
      <polygon fill="#FFF" points="31.079 14.533 34.487 14.533 34.487 11.116 31.079 11.116"/>
      <polygon fill="#FFF" points="17.449 17.949 20.856 17.949 20.856 14.533 17.449 14.533"/>
      <polygon fill="#FFF" points="27.672 17.949 31.079 17.949 31.079 14.533 27.672 14.533"/>
      <polygon fill="#FFF" points="20.857 17.949 20.857 21.366 24.265 21.366 27.672 21.366 27.672 17.949 24.265 17.949"/>
      <polygon fill="#3F3700" points="14.042 17.949 17.449 17.949 17.449 14.533 14.042 14.533"/>
      <polygon fill="#3F3700" points="31.079 17.949 34.487 17.949 34.487 14.533 31.079 14.533"/>
      <polygon fill="#3F3700" points="17.449 21.366 20.856 21.366 20.856 17.949 17.449 17.949"/>
      <polygon fill="#3F3700" points="27.672 21.366 31.079 21.366 31.079 17.949 27.672 17.949"/>
      <polygon fill="#3F3700" points="27.672 28.2 27.672 24.783 27.672 21.366 24.265 21.366 20.857 21.366 20.857 24.783 20.857 28.2 24.265 28.2"/>
      <polygon fill="#3F3700" points="17.45 31.617 20.857 31.617 20.857 28.2 17.45 28.2"/>
      <polygon fill="#3F3700" points="27.672 31.617 31.079 31.617 31.079 28.2 27.672 28.2"/>
      <polygon fill="#3F3700" points="14.042 35.033 17.449 35.033 17.449 31.617 14.042 31.617"/>
      <polygon fill="#3F3700" points="31.079 35.033 34.487 35.033 34.487 31.617 31.079 31.617"/>
    </g>
  </g>
</svg>
