<svg xmlns="http://www.w3.org/2000/svg" width="262" height="142" viewBox="0 0 262 142">
  <g fill="none" fill-rule="evenodd">
    <polygon fill="#3F3700" points="7.134 47.22 254.66 47.22 254.66 40.514 247.97 40.514 247.97 33.806 241.28 33.806 241.28 27.098 234.591 27.098 234.591 20.39 227.9 20.39 227.9 13.682 201.141 13.682 201.141 6.973 181.072 6.973 181.072 .266 80.723 .266 80.723 6.973 60.653 6.973 60.653 13.682 33.894 13.682 33.894 20.39 27.205 20.39 27.205 27.098 20.514 27.098 20.514 33.806 13.824 33.806 13.824 40.514 7.134 40.514"/>
    <polygon fill="#FFF" points="207.831 27.098 53.964 27.098 53.964 20.39 60.653 20.39 60.653 13.682 80.723 13.682 80.723 6.973 181.072 6.973 181.072 13.682 201.141 13.682 201.141 20.39 207.831 20.39"/>
    <polygon fill="#FF0" points="247.97 40.514 241.28 40.514 241.28 33.806 234.591 33.806 234.591 27.098 227.901 27.098 227.901 20.39 33.894 20.39 33.894 27.098 27.204 27.098 27.204 33.806 20.514 33.806 20.514 40.514 13.823 40.514 13.823 47.222 7.134 47.222 7.134 53.93 254.66 53.93 254.66 47.222 247.97 47.222"/>
    <polygon fill="#3F3700" points="60.653 134.427 60.653 127.719 33.894 127.719 33.894 121.011 27.204 121.011 27.204 114.303 20.514 114.303 20.514 107.594 13.823 107.594 13.823 100.887 7.134 100.887 7.134 94.178 .445 94.178 .445 47.222 7.134 47.222 7.134 53.93 13.824 53.93 13.824 47.222 20.514 47.222 20.514 40.514 27.205 40.514 27.205 33.806 33.894 33.806 33.894 27.098 60.653 27.098 60.653 20.39 80.723 20.39 80.723 13.682 181.072 13.682 181.072 20.39 186.427 20.39 201.141 20.39 201.141 27.098 227.9 27.098 227.9 33.806 234.591 33.806 234.591 40.514 241.28 40.514 241.28 47.222 247.97 47.222 247.97 53.93 254.66 53.93 254.66 47.222 261.351 47.222 261.351 94.178 254.66 94.178 254.66 100.887 247.969 100.887 247.969 107.594 241.28 107.594 241.28 114.303 234.591 114.303 234.591 121.011 227.901 121.011 227.901 127.719 201.141 127.719 201.141 134.427 181.072 134.427 181.072 141.135 80.723 141.135 80.723 134.427"/>
    <polygon fill="#C4BC97" points="60.653 127.719 60.653 121.011 33.894 121.011 33.894 114.303 27.204 114.303 27.204 107.594 20.514 107.594 20.514 100.887 13.823 100.887 13.823 94.178 7.134 94.178 7.134 60.638 13.824 60.638 13.824 53.93 20.514 53.93 20.514 47.222 27.205 47.222 27.205 40.514 33.894 40.514 33.894 33.806 60.653 33.806 60.653 27.098 80.723 27.098 80.723 20.39 181.072 20.39 181.072 27.098 187.427 27.098 201.141 27.098 201.141 33.806 212.427 33.806 227.9 33.806 227.9 40.514 234.591 40.514 234.591 47.222 241.28 47.222 241.28 53.93 247.97 53.93 247.97 60.638 254.66 60.638 254.66 94.178 247.969 94.178 247.969 100.887 241.28 100.887 241.28 107.594 234.591 107.594 234.591 114.303 227.901 114.303 227.901 121.011 201.141 121.011 201.141 127.719 181.072 127.719 181.072 134.427 80.723 134.427 80.723 127.719"/>
    <polygon fill="#3F3700" points="80.723 121.011 60.653 121.011 60.653 114.303 33.894 114.303 33.894 107.594 27.204 107.594 27.204 100.887 20.514 100.887 20.514 94.178 13.823 94.178 13.823 60.638 20.514 60.638 20.514 53.93 27.205 53.93 27.205 47.222 33.894 47.222 33.894 40.514 60.653 40.514 60.653 33.806 80.723 33.806 80.723 27.098 181.072 27.098 181.072 33.806 201.141 33.806 201.141 40.514 202.329 40.514 227.9 40.514 227.9 47.222 234.591 47.222 234.591 53.93 241.28 53.93 241.28 60.638 247.969 60.638 247.969 94.178 241.28 94.178 241.28 100.887 234.591 100.887 234.591 107.594 227.901 107.594 227.901 114.303 201.141 114.303 201.141 121.011 181.072 121.011 181.072 127.719 80.723 127.719"/>
    <polygon fill="#C4BC97" points="27.301 100.887 34.089 100.887 34.089 107.594 40.876 107.594 47.664 107.594 54.451 107.594 61.239 107.594 61.239 114.303 68.027 114.303 74.814 114.303 81.602 114.303 81.602 121.011 88.389 121.011 92.176 121.011 98.964 121.011 105.751 121.011 112.539 121.011 119.326 121.011 126.114 121.011 132.902 121.011 139.689 121.011 146.477 121.011 153.264 121.011 160.051 121.011 166.839 121.011 173.626 121.011 180.414 121.011 180.414 114.303 187.201 114.303 193.988 114.303 200.777 114.303 200.777 107.594 207.564 107.594 214.351 107.594 221.139 107.594 227.926 107.594 227.926 100.887 234.714 100.887 234.714 94.178 241.501 94.178 241.501 87.47 241.501 80.762 241.501 74.054 241.501 67.346 241.501 60.638 234.714 60.638 234.714 53.93 227.926 53.93 227.926 47.222 221.139 47.222 214.351 47.222 207.564 47.222 200.777 47.222 200.777 40.514 193.988 40.514 187.201 40.514 180.414 40.514 180.414 33.806 173.626 33.806 166.839 33.806 160.051 33.806 153.264 33.806 146.477 33.806 139.689 33.806 132.902 33.806 126.114 33.806 119.326 33.806 112.539 33.806 105.751 33.806 98.964 33.806 92.176 33.806 88.389 33.806 81.602 33.806 81.602 40.514 74.814 40.514 68.027 40.514 61.239 40.514 61.239 47.222 54.451 47.222 47.664 47.222 40.876 47.222 34.089 47.222 34.089 53.93 27.301 53.93 27.301 60.638 20.514 60.638 20.514 67.346 20.514 74.054 20.514 80.762 20.514 87.47 20.514 94.178 27.301 94.178"/>
  </g>
</svg>
