<svg xmlns="http://www.w3.org/2000/svg" width="141" height="154" viewBox="0 0 141 154">
  <g fill="none">
    <polygon fill="#E5E3C1" points="127.613 .644 13.884 .644 13.884 7.354 7.194 7.354 7.194 14.06 .504 14.06 .504 128.099 7.194 128.099 7.194 134.807 13.884 134.807 13.884 141.515 127.613 141.515 127.613 134.807 134.302 134.807 134.302 128.099 140.991 128.099 140.991 14.06 134.302 14.06 134.302 7.354 127.613 7.354"/>
    <polygon fill="#3F3700" points="127.612 27.478 120.922 27.478 120.922 20.77 114.233 20.77 114.233 14.061 107.542 14.061 107.542 7.354 94.163 7.354 94.163 .644 47.333 .644 47.333 7.354 33.953 7.354 33.953 14.061 27.264 14.061 27.264 20.77 20.574 20.77 20.574 27.478 13.884 27.478 13.884 33.894 7.194 33.894 7.194 40.602 .504 40.602 .504 100.975 7.195 100.975 7.195 114.391 13.884 114.391 13.884 121.099 20.573 121.099 20.573 127.807 27.264 127.807 27.264 134.515 33.954 134.515 33.954 141.223 47.333 141.223 47.333 147.931 94.163 147.931 94.163 141.223 107.542 141.223 107.542 134.515 114.232 134.515 114.232 127.807 120.922 127.807 120.922 121.099 127.612 121.099 127.612 114.391 134.301 114.391 134.301 100.975 140.991 100.975 140.991 40.602 134.302 40.602 134.302 33.894 127.612 33.894"/>
    <polygon fill="#C4BC97" points="13.884 107.682 13.884 114.391 20.573 114.391 20.573 121.099 27.264 121.099 27.264 127.807 33.953 127.807 33.953 134.515 40.644 134.515 47.333 134.515 47.333 141.223 54.024 141.223 60.713 141.223 67.404 141.223 74.093 141.223 80.782 141.223 87.473 141.223 94.163 141.223 94.163 134.515 100.853 134.515 107.542 134.515 107.542 127.807 114.233 127.807 114.233 121.099 120.922 121.099 120.922 114.391 127.613 114.391 127.613 107.682 127.613 100.975 134.302 100.975 134.302 94.266 134.302 87.558 134.302 80.85 134.302 74.142 134.302 67.434 134.302 60.726 134.302 54.018 127.613 54.018 127.613 47.31 127.613 40.602 120.922 40.602 120.922 33.894 114.233 33.894 114.233 27.186 107.542 27.186 100.853 27.186 100.853 20.478 94.163 20.478 94.163 13.77 87.473 13.77 80.782 13.77 74.093 13.77 67.404 13.77 60.713 13.77 54.024 13.77 47.333 13.77 47.333 20.478 40.644 20.478 40.644 27.186 33.953 27.186 27.264 27.186 27.264 33.894 20.573 33.894 20.573 40.602 13.884 40.602 13.884 47.31 13.884 54.018 7.195 54.018 7.195 60.726 7.195 67.434 7.195 74.142 7.195 80.85 7.195 87.558 7.195 94.266 7.195 100.975 13.884 100.975"/>
  </g>
</svg>
