<svg xmlns="http://www.w3.org/2000/svg" width="262" height="142" viewBox="0 0 262 142">
  <g fill="none">
    <polygon fill="#3F3700" points="7.134 40.514 13.824 40.514 13.824 33.806 20.514 33.806 20.514 27.098 27.205 27.098 27.205 20.39 33.894 20.39 33.894 13.682 60.653 13.682 60.653 6.973 80.723 6.973 80.723 .266 181.072 .266 181.072 6.973 201.141 6.973 201.141 13.682 227.9 13.682 227.9 20.39 234.591 20.39 234.591 27.098 241.28 27.098 241.28 33.806 247.97 33.806 247.97 40.514 254.66 40.514 254.66 46.93 261.351 46.93 261.351 87.178 254.66 87.178 254.66 93.887 247.969 93.887 247.969 100.594 241.28 100.594 241.28 107.303 234.591 107.303 234.591 114.011 227.901 114.011 227.901 120.719 201.141 120.719 201.141 127.427 181.072 127.427 181.072 134.135 80.723 134.135 80.723 127.427 60.653 127.427 60.653 120.719 33.894 120.719 33.894 114.011 27.204 114.011 27.204 107.303 20.514 107.303 20.514 100.594 13.823 100.594 13.823 93.887 7.134 93.887 7.134 87.178 .445 87.178 .445 46.93 7.134 46.93"/>
    <polygon fill="#C4BC97" points="60.653 120.719 60.653 114.011 33.894 114.011 33.894 107.303 27.204 107.303 27.204 100.594 20.514 100.594 20.514 93.887 13.823 93.887 13.823 87.178 7.134 87.178 7.134 53.638 13.824 53.638 13.824 46.93 20.514 46.93 20.514 40.222 27.205 40.222 27.205 33.514 33.894 33.514 33.894 26.806 60.653 26.806 60.653 20.098 80.723 20.098 80.723 13.39 181.072 13.39 181.072 20.098 187.427 20.098 201.141 20.098 201.141 26.806 212.427 26.806 227.9 26.806 227.9 33.514 234.591 33.514 234.591 40.222 241.28 40.222 241.28 46.93 247.97 46.93 247.97 53.638 254.66 53.638 254.66 87.178 247.969 87.178 247.969 93.887 241.28 93.887 241.28 100.594 234.591 100.594 234.591 107.303 227.901 107.303 227.901 114.011 201.141 114.011 201.141 120.719 181.072 120.719 181.072 127.427 80.723 127.427 80.723 120.719"/>
    <polygon fill="#3F3700" points="80.723 114.011 60.653 114.011 60.653 107.303 33.894 107.303 33.894 100.594 27.204 100.594 27.204 93.887 20.514 93.887 20.514 87.178 13.823 87.178 13.823 53.638 20.514 53.638 20.514 46.93 27.205 46.93 27.205 40.222 33.894 40.222 33.894 33.514 60.653 33.514 60.653 26.806 80.723 26.806 80.723 20.098 181.072 20.098 181.072 26.806 201.141 26.806 201.141 33.514 202.329 33.514 227.9 33.514 227.9 40.222 234.591 40.222 234.591 46.93 241.28 46.93 241.28 53.638 247.969 53.638 247.969 87.178 241.28 87.178 241.28 93.887 234.591 93.887 234.591 100.594 227.901 100.594 227.901 107.303 201.141 107.303 201.141 114.011 181.072 114.011 181.072 120.719 80.723 120.719"/>
    <polygon fill="#C4BC97" points="27.301 93.887 34.089 93.887 34.089 100.594 40.876 100.594 47.664 100.594 54.451 100.594 61.239 100.594 61.239 107.303 68.027 107.303 74.814 107.303 81.602 107.303 81.602 114.011 88.389 114.011 92.176 114.011 98.964 114.011 105.751 114.011 112.539 114.011 119.326 114.011 126.114 114.011 132.902 114.011 139.689 114.011 146.477 114.011 153.264 114.011 160.051 114.011 166.839 114.011 173.626 114.011 180.414 114.011 180.414 107.303 187.201 107.303 193.988 107.303 200.777 107.303 200.777 100.594 207.564 100.594 214.351 100.594 221.139 100.594 227.926 100.594 227.926 93.887 234.714 93.887 234.714 87.178 241.501 87.178 241.501 80.47 241.501 73.762 241.501 67.054 241.501 60.346 241.501 53.638 234.714 53.638 234.714 46.93 227.926 46.93 227.926 40.222 221.139 40.222 214.351 40.222 207.564 40.222 200.777 40.222 200.777 33.514 193.988 33.514 187.201 33.514 180.414 33.514 180.414 26.806 173.626 26.806 166.839 26.806 160.051 26.806 153.264 26.806 146.477 26.806 139.689 26.806 132.902 26.806 126.114 26.806 119.326 26.806 112.539 26.806 105.751 26.806 98.964 26.806 92.176 26.806 88.389 26.806 81.602 26.806 81.602 33.514 74.814 33.514 68.027 33.514 61.239 33.514 61.239 40.222 54.451 40.222 47.664 40.222 40.876 40.222 34.089 40.222 34.089 46.93 27.301 46.93 27.301 53.638 20.514 53.638 20.514 60.346 20.514 67.054 20.514 73.762 20.514 80.47 20.514 87.178 27.301 87.178"/>
  </g>
</svg>
