<svg xmlns="http://www.w3.org/2000/svg" width="50" height="76" viewBox="0 0 50 76">
  <g fill-rule="evenodd">
    <polygon points=".984 38.19 4.736 38.19 4.736 34.428 .984 34.428"/>
    <polygon points="46.004 38.19 49.756 38.19 49.756 34.428 46.004 34.428"/>
    <polygon points="4.736 41.952 8.488 41.952 8.488 38.19 4.736 38.19"/>
    <polygon points="42.253 41.952 46.004 41.952 46.004 38.19 42.253 38.19"/>
    <polygon points="8.488 45.714 12.239 45.714 12.239 41.952 8.488 41.952"/>
    <polygon points="38.501 45.714 42.253 45.714 42.253 41.952 38.501 41.952"/>
    <polygon points="27.246 45.714 27.246 41.952 30.998 41.952 30.998 38.191 38.501 38.191 38.501 34.429 42.253 34.429 42.253 26.904 46.004 26.904 46.004 15.619 42.253 15.619 42.253 8.096 38.501 8.096 38.501 4.334 30.998 4.334 30.998 .572 19.743 .572 19.743 4.334 12.239 4.334 12.239 8.096 8.488 8.096 8.488 15.619 4.736 15.619 4.736 26.904 8.488 26.904 8.488 34.429 12.239 34.429 12.239 38.191 19.743 38.191 19.743 41.952 23.494 41.952 23.494 45.714 12.239 45.714 12.239 49.476 19.743 49.476 19.743 64.524 30.998 64.524 30.998 49.476 38.501 49.476 38.501 45.714"/>
    <polygon points="15.991 68.285 19.743 68.285 19.743 64.523 15.991 64.523"/>
    <polygon points="30.998 68.285 34.749 68.285 34.749 64.523 30.998 64.523"/>
    <polygon points="8.488 68.285 4.736 68.285 4.736 75.808 12.239 75.808 12.239 72.047 8.488 72.047"/>
    <polygon points="12.239 72.047 15.991 72.047 15.991 68.285 12.239 68.285"/>
    <polygon points="34.749 72.047 38.501 72.047 38.501 68.285 34.749 68.285"/>
    <polygon points="46.004 75.809 46.004 68.286 42.253 68.286 42.253 72.047 38.501 72.047 38.501 75.809"/>
  </g>
</svg>
