<svg xmlns="http://www.w3.org/2000/svg" width="235" height="142" viewBox="0 0 235 142">
  <g fill="none" fill-rule="evenodd">
    <polygon fill="#FFF" points="220.655 .78 213.977 .78 207.3 .78 200.622 .78 193.944 .78 187.266 .78 180.589 .78 173.911 .78 167.233 .78 160.555 .78 153.878 .78 147.2 .78 140.522 .78 133.844 .78 127.167 .78 120.489 .78 113.811 .78 107.134 .78 100.456 .78 93.778 .78 87.1 .78 80.423 .78 73.745 .78 67.067 .78 60.389 .78 53.712 .78 47.034 .78 40.356 .78 33.678 .78 27.001 .78 20.323 .78 13.645 .78 6.968 .78 6.968 7.475 13.645 7.475 20.323 7.475 27.001 7.475 33.678 7.475 40.356 7.475 47.034 7.475 53.712 7.475 60.389 7.475 67.067 7.475 73.745 7.475 80.423 7.475 87.1 7.475 93.778 7.475 100.456 7.475 107.134 7.475 113.811 7.475 120.489 7.475 127.167 7.475 133.844 7.475 140.522 7.475 147.2 7.475 153.878 7.475 160.555 7.475 167.233 7.475 173.911 7.475 180.589 7.475 187.266 7.475 193.944 7.475 200.622 7.475 207.3 7.475 213.977 7.475 220.655 7.475 227.333 7.475 227.333 .78"/>
    <polygon fill="#FF0" points="227.333 141.394 227.333 134.699 234.011 134.699 234.011 121.307 .29 121.307 .29 134.698 6.968 134.698 6.968 141.39"/>
    <polygon fill="#FFF" points="33.679 121.307 33.679 141.388 200.622 141.394 200.622 121.307"/>
    <polygon fill="#000" points="227.333 7.476 220.655 7.476 213.978 7.476 207.3 7.476 200.622 7.476 193.944 7.476 187.267 7.476 180.589 7.476 173.911 7.476 167.233 7.476 160.556 7.476 153.878 7.476 147.2 7.476 140.522 7.476 133.845 7.476 127.167 7.476 120.489 7.476 113.812 7.476 107.134 7.476 100.456 7.476 93.778 7.476 87.101 7.476 80.423 7.476 73.745 7.476 67.067 7.476 60.39 7.476 53.712 7.476 47.034 7.476 40.356 7.476 33.679 7.476 27.001 7.476 20.323 7.476 13.645 7.476 6.968 7.476 .29 7.476 .29 14.172 .29 20.868 .29 27.564 .29 34.26 .29 40.955 .29 47.652 .29 54.348 .29 61.043 .29 67.74 .29 74.435 .29 81.131 .29 87.827 .29 94.523 .29 101.219 .29 107.914 .29 114.611 .29 121.307 6.968 121.307 6.968 128.002 13.645 128.002 20.323 128.002 27.001 128.002 33.679 128.002 40.356 128.002 47.034 128.002 53.712 128.002 60.39 128.002 67.067 128.002 73.745 128.002 80.423 128.002 87.101 128.002 93.778 128.002 100.456 128.002 107.134 128.002 113.812 128.002 120.489 128.002 127.167 128.002 133.845 128.002 140.522 128.002 147.2 128.002 153.878 128.002 160.556 128.002 167.233 128.002 173.911 128.002 180.589 128.002 187.267 128.002 193.944 128.002 200.622 128.002 207.3 128.002 213.978 128.002 220.655 128.002 227.333 128.002 227.333 121.307 234.011 121.307 234.011 114.611 234.011 107.914 234.011 101.219 234.011 94.523 234.011 87.827 234.011 81.131 234.011 74.435 234.011 67.74 234.011 61.043 234.011 54.348 234.011 47.652 234.011 40.955 234.011 34.26 234.011 27.564 234.011 20.868 234.011 14.172 234.011 7.476"/>
  </g>
</svg>
