<svg xmlns="http://www.w3.org/2000/svg" width="9600" height="4790" viewBox="0 0 9600 4790">
  <g fill="none">
    <polygon fill="#DEFAFF" points="9553.17 188.26 9506.34 188.26 9459.51 188.26 9412.68 188.26 9365.85 188.26 9319.02 188.26 9272.19 188.26 9225.37 141.3 9178.54 141.3 9131.71 141.3 9084.88 141.3 9038.05 141.3 8991.22 141.3 8944.39 141.3 8897.56 141.3 8850.73 94.35 8803.9 94.35 8757.07 94.35 8710.24 94.35 8663.42 47.39 8616.58 47.39 8569.76 47.39 8522.93 47.39 8476.1 47.39 8429.27 47.39 8382.44 47.39 8335.61 47.39 8288.78 47.39 8241.95 47.39 8195.12 47.39 8148.29 47.39 8101.46 94.35 8054.63 94.35 8007.81 94.35 7960.98 94.35 7914.15 141.3 7867.32 141.3 7820.49 141.3 7773.66 188.26 7726.83 188.26 7680 188.26 7633.17 188.26 7586.34 188.26 7539.51 188.26 7492.68 235.22 7445.85 235.22 7399.02 282.17 7352.19 282.17 7305.37 329.13 7258.54 329.13 7211.71 329.13 7164.88 329.13 7118.05 376.09 7071.22 376.09 7024.39 376.09 6977.56 423.04 6930.73 423.04 6883.9 423.04 6837.07 423.04 6790.24 423.04 6743.41 423.04 6696.59 423.04 6649.76 423.04 6602.93 423.04 6556.1 423.04 6509.27 423.04 6462.44 423.04 6415.61 423.04 6368.78 423.04 6321.95 423.04 6275.12 376.09 6228.29 376.09 6181.46 376.09 6134.63 376.09 6087.81 329.13 6040.98 329.13 5994.15 282.17 5947.32 282.17 5900.49 282.17 5853.66 235.22 5806.83 235.22 5760 235.22 5713.17 235.22 5666.34 188.26 5619.51 188.26 5572.68 188.26 5525.85 141.3 5479.02 141.3 5432.19 94.35 5385.37 94.35 5338.54 47.39 5291.71 47.39 5244.88 47.39 5198.05 47.39 5151.22 47.39 5104.39 .43 5057.56 .43 5010.73 .43 4963.9 .43 4917.07 .43 4870.24 .43 4823.41 .43 4776.59 .43 4729.76 .43 4682.93 47.39 4636.1 47.39 4589.27 47.39 4542.44 47.39 4495.61 47.39 4448.78 47.39 4401.95 94.35 4355.12 94.35 4308.29 94.35 4261.46 94.35 4214.63 141.3 4167.81 141.3 4120.98 141.3 4074.15 188.26 4027.32 188.26 3980.49 188.26 3933.66 235.22 3886.83 235.22 3840 235.22 3793.17 282.17 3746.34 282.17 3699.51 329.13 3652.68 329.13 3605.85 329.13 3559.02 376.09 3512.2 376.09 3465.37 376.09 3418.54 423.04 3371.71 423.04 3324.88 423.04 3278.05 470 3231.22 470 3184.39 470 3137.56 470 3090.73 470 3043.9 470 2997.07 470 2950.24 470 2903.41 470 2856.59 470 2809.76 470 2762.93 470 2716.1 470 2669.27 470 2622.44 470 2575.61 470 2528.78 470 2481.95 470 2435.12 470 2388.29 470 2341.46 470 2294.63 470 2247.8 470 2200.98 470 2154.15 470 2107.32 423.04 2060.49 423.04 2013.66 423.04 1966.83 376.09 1920 376.09 1873.17 376.09 1826.34 329.13 1779.51 329.13 1732.68 329.13 1685.85 329.13 1639.02 329.13 1592.19 282.17 1545.37 282.17 1498.54 282.17 1451.71 282.17 1404.88 282.17 1358.05 282.17 1311.22 235.22 1264.39 235.22 1217.56 235.22 1170.73 235.22 1123.9 235.22 1077.07 235.22 1030.24 235.22 983.41 235.22 936.59 235.22 889.76 235.22 842.93 235.22 796.1 235.22 749.27 235.22 702.44 235.22 655.61 235.22 608.78 235.22 561.95 235.22 515.12 235.22 468.29 235.22 421.46 235.22 374.63 235.22 327.81 235.22 280.98 235.22 234.15 235.22 187.32 235.22 140.49 235.22 93.66 235.22 46.83 235.22 0 235.22 0 282.17 0 329.13 46.83 329.13 93.66 329.13 140.49 329.13 187.32 329.13 234.15 329.13 280.98 329.13 327.81 329.13 374.63 329.13 421.46 329.13 468.29 329.13 515.12 329.13 561.95 329.13 608.78 329.13 655.61 329.13 702.44 329.13 749.27 329.13 796.1 329.13 842.93 329.13 889.76 329.13 936.59 329.13 983.41 329.13 1030.24 329.13 1077.07 329.13 1123.9 329.13 1170.73 329.13 1217.56 329.13 1264.39 329.13 1311.22 329.13 1358.05 329.13 1358.05 376.09 1404.88 376.09 1451.71 376.09 1498.54 376.09 1545.37 376.09 1592.19 376.09 1639.02 376.09 1639.02 423.04 1685.85 423.04 1732.68 423.04 1779.51 423.04 1826.34 423.04 1873.17 423.04 1873.17 470 1920 470 1966.83 470 1966.83 516.96 2013.66 516.96 2060.49 516.96 2107.32 516.96 2154.15 516.96 2154.15 563.91 2200.98 563.91 2247.8 563.91 2294.63 563.91 2341.46 563.91 2388.29 563.91 2435.12 563.91 2481.95 563.91 2528.78 563.91 2575.61 563.91 2622.44 563.91 2669.27 563.91 2716.1 563.91 2762.93 563.91 2809.76 563.91 2856.59 563.91 2903.41 563.91 2950.24 563.91 2997.07 563.91 3043.9 563.91 3090.73 563.91 3137.56 563.91 3184.39 563.91 3231.22 563.91 3278.05 563.91 3278.05 516.96 3324.88 516.96 3371.71 516.96 3418.54 516.96 3418.54 470 3465.37 470 3512.2 470 3559.02 470 3559.02 423.04 3605.85 423.04 3652.68 423.04 3699.51 423.04 3699.51 376.09 3746.34 376.09 3793.17 376.09 3793.17 329.13 3840 329.13 3886.83 329.13 3933.66 329.13 3933.66 282.17 3980.49 282.17 4027.32 282.17 4074.15 282.17 4074.15 235.22 4120.98 235.22 4167.81 235.22 4214.63 235.22 4214.63 188.26 4261.46 188.26 4308.29 188.26 4355.12 188.26 4355.12 141.3 4401.95 141.3 4448.78 141.3 4495.61 141.3 4542.44 141.3 4589.27 141.3 4636.1 141.3 4682.93 141.3 4682.93 94.35 4729.76 94.35 4776.59 94.35 4823.41 94.35 4870.24 94.35 4917.07 94.35 4963.9 94.35 5010.73 94.35 5057.56 94.35 5104.39 94.35 5151.22 94.35 5151.22 141.3 5198.05 141.3 5244.88 141.3 5291.71 141.3 5338.54 141.3 5385.37 141.3 5385.37 188.26 5432.19 188.26 5479.02 188.26 5479.02 235.22 5525.85 235.22 5572.68 235.22 5572.68 282.17 5619.51 282.17 5666.34 282.17 5713.17 282.17 5713.17 329.13 5760 329.13 5806.83 329.13 5853.66 329.13 5900.49 329.13 5900.49 376.09 5947.32 376.09 5994.15 376.09 6040.98 376.09 6040.98 423.04 6087.81 423.04 6134.63 423.04 6134.63 470 6181.46 470 6228.29 470 6275.12 470 6321.95 470 6321.95 516.96 6368.78 516.96 6415.61 516.96 6462.44 516.96 6509.27 516.96 6556.1 516.96 6602.93 516.96 6649.76 516.96 6696.59 516.96 6743.41 516.96 6790.24 516.96 6837.07 516.96 6883.9 516.96 6930.73 516.96 6977.56 516.96 7024.39 516.96 7024.39 470 7071.22 470 7118.05 470 7164.88 470 7164.88 423.04 7211.71 423.04 7258.54 423.04 7305.37 423.04 7352.19 423.04 7352.19 376.09 7399.02 376.09 7445.85 376.09 7445.85 329.13 7492.68 329.13 7539.51 329.13 7539.51 282.17 7586.34 282.17 7633.17 282.17 7680 282.17 7726.83 282.17 7773.66 282.17 7820.49 282.17 7820.49 235.22 7867.32 235.22 7914.15 235.22 7960.98 235.22 7960.98 188.26 8007.81 188.26 8054.63 188.26 8101.46 188.26 8148.29 188.26 8148.29 141.3 8195.12 141.3 8241.95 141.3 8288.78 141.3 8335.61 141.3 8382.44 141.3 8429.27 141.3 8476.1 141.3 8522.93 141.3 8569.76 141.3 8616.58 141.3 8663.42 141.3 8663.42 188.26 8710.24 188.26 8757.07 188.26 8803.9 188.26 8850.73 188.26 8850.73 235.22 8897.56 235.22 8944.39 235.22 8991.22 235.22 9038.05 235.22 9084.88 235.22 9131.71 235.22 9178.54 235.22 9225.37 235.22 9225.37 282.17 9272.19 282.17 9319.02 282.17 9365.85 282.17 9412.68 282.17 9459.51 282.17 9506.34 282.17 9553.17 282.17 9600 282.17 9600 235.22 9600 188.26"/>
    <polygon fill="#B6F1FF" points="9553.17 282.17 9506.34 282.17 9459.51 282.17 9412.68 282.17 9365.85 282.17 9319.02 282.17 9272.19 282.17 9225.37 282.17 9225.37 235.22 9178.54 235.22 9131.71 235.22 9084.88 235.22 9038.05 235.22 8991.22 235.22 8944.39 235.22 8897.56 235.22 8850.73 235.22 8850.73 188.26 8803.9 188.26 8757.07 188.26 8710.24 188.26 8663.42 188.26 8663.42 141.3 8616.58 141.3 8569.76 141.3 8522.93 141.3 8476.1 141.3 8429.27 141.3 8382.44 141.3 8335.61 141.3 8288.78 141.3 8241.95 141.3 8195.12 141.3 8148.29 141.3 8148.29 188.26 8101.46 188.26 8054.63 188.26 8007.81 188.26 7960.98 188.26 7960.98 235.22 7914.15 235.22 7867.32 235.22 7820.49 235.22 7820.49 282.17 7773.66 282.17 7726.83 282.17 7680 282.17 7633.17 282.17 7586.34 282.17 7539.51 282.17 7539.51 329.13 7492.68 329.13 7445.85 329.13 7445.85 376.09 7399.02 376.09 7352.19 376.09 7352.19 423.04 7305.37 423.04 7258.54 423.04 7211.71 423.04 7164.88 423.04 7164.88 470 7118.05 470 7071.22 470 7024.39 470 7024.39 516.96 6977.56 516.96 6930.73 516.96 6883.9 516.96 6837.07 516.96 6790.24 516.96 6743.41 516.96 6696.59 516.96 6649.76 516.96 6602.93 516.96 6556.1 516.96 6509.27 516.96 6462.44 516.96 6415.61 516.96 6368.78 516.96 6321.95 516.96 6321.95 470 6275.12 470 6228.29 470 6181.46 470 6134.63 470 6134.63 423.04 6087.81 423.04 6040.98 423.04 6040.98 376.09 5994.15 376.09 5947.32 376.09 5900.49 376.09 5900.49 329.13 5853.66 329.13 5806.83 329.13 5760 329.13 5713.17 329.13 5713.17 282.17 5666.34 282.17 5619.51 282.17 5572.68 282.17 5572.68 235.22 5525.85 235.22 5479.02 235.22 5479.02 188.26 5432.19 188.26 5385.37 188.26 5385.37 141.3 5338.54 141.3 5291.71 141.3 5244.88 141.3 5198.05 141.3 5151.22 141.3 5151.22 94.35 5104.39 94.35 5057.56 94.35 5010.73 94.35 4963.9 94.35 4917.07 94.35 4870.24 94.35 4823.41 94.35 4776.59 94.35 4729.76 94.35 4682.93 94.35 4682.93 141.3 4636.1 141.3 4589.27 141.3 4542.44 141.3 4495.61 141.3 4448.78 141.3 4401.95 141.3 4355.12 141.3 4355.12 188.26 4308.29 188.26 4261.46 188.26 4214.63 188.26 4214.63 235.22 4167.81 235.22 4120.98 235.22 4074.15 235.22 4074.15 282.17 4027.32 282.17 3980.49 282.17 3933.66 282.17 3933.66 329.13 3886.83 329.13 3840 329.13 3793.17 329.13 3793.17 376.09 3746.34 376.09 3699.51 376.09 3699.51 423.04 3652.68 423.04 3605.85 423.04 3559.02 423.04 3559.02 470 3512.2 470 3465.37 470 3418.54 470 3418.54 516.96 3371.71 516.96 3324.88 516.96 3278.05 516.96 3278.05 563.91 3231.22 563.91 3184.39 563.91 3137.56 563.91 3090.73 563.91 3043.9 563.91 2997.07 563.91 2950.24 563.91 2903.41 563.91 2856.59 563.91 2809.76 563.91 2762.93 563.91 2716.1 563.91 2669.27 563.91 2622.44 563.91 2575.61 563.91 2528.78 563.91 2481.95 563.91 2435.12 563.91 2388.29 563.91 2341.46 563.91 2294.63 563.91 2247.8 563.91 2200.98 563.91 2154.15 563.91 2154.15 516.96 2107.32 516.96 2060.49 516.96 2013.66 516.96 1966.83 516.96 1966.83 470 1920 470 1873.17 470 1873.17 423.04 1826.34 423.04 1779.51 423.04 1732.68 423.04 1685.85 423.04 1639.02 423.04 1639.02 376.09 1592.19 376.09 1545.37 376.09 1498.54 376.09 1451.71 376.09 1404.88 376.09 1358.05 376.09 1358.05 329.13 1311.22 329.13 1264.39 329.13 1217.56 329.13 1170.73 329.13 1123.9 329.13 1077.07 329.13 1030.24 329.13 983.41 329.13 936.59 329.13 889.76 329.13 842.93 329.13 796.1 329.13 749.27 329.13 702.44 329.13 655.61 329.13 608.78 329.13 561.95 329.13 515.12 329.13 468.29 329.13 421.46 329.13 374.63 329.13 327.81 329.13 280.98 329.13 234.15 329.13 187.32 329.13 140.49 329.13 93.66 329.13 46.83 329.13 0 329.13 0 376.09 0 423.04 0 470 0 516.96 0 563.91 0 610.87 0 657.83 0 704.78 0 751.74 0 798.7 0 845.65 0 892.61 0 939.57 0 986.52 0 1033.48 0 1080.43 0 1127.39 0 1174.35 0 1221.3 0 1268.26 0 1315.22 0 1362.17 0 1409.13 0 1456.09 0 1503.04 0 1550 0 1596.96 0 1643.91 0 1690.87 0 1737.83 0 1784.78 0 1831.74 0 1878.7 0 1925.65 0 1972.61 0 2019.57 0 2066.52 0 2113.48 0 2160.43 0 2207.39 0 2254.35 0 2301.3 0 2348.26 0 2395.22 0 2442.17 0 2489.13 0 2536.09 0 2583.04 0 2630 0 2676.96 0 2723.91 0 2770.87 0 2817.83 0 2864.78 0 2911.74 0 2958.7 0 3005.65 0 3052.61 0 3099.57 0 3146.52 0 3193.48 0 3240.43 0 3287.39 0 3334.35 0 3381.3 0 3428.26 0 3475.22 0 3522.17 0 3569.13 0 3616.09 0 3663.04 0 3710 0 3756.96 0 3803.91 0 3850.87 0 3897.83 0 3944.78 0 3991.74 0 4038.7 0 4085.65 0 4132.61 0 4179.56 0 4226.52 0 4273.48 0 4320.44 0 4367.39 0 4414.35 0 4461.3 0 4508.26 0 4555.22 0 4602.17 0 4649.13 0 4696.09 0 4743.04 0 4790 46.83 4790 93.66 4790 140.49 4790 187.32 4790 234.15 4790 280.98 4790 327.81 4790 374.63 4790 421.46 4790 468.29 4790 515.12 4790 561.95 4790 608.78 4790 655.61 4790 702.44 4790 749.27 4790 796.1 4790 842.93 4790 889.76 4790 936.59 4790 983.41 4790 1030.24 4790 1077.07 4790 1123.9 4790 1170.73 4790 1217.56 4790 1264.39 4790 1311.22 4790 1358.05 4790 1404.88 4790 1451.71 4790 1498.54 4790 1545.37 4790 1592.19 4790 1639.02 4790 1685.85 4790 1732.68 4790 1779.51 4790 1826.34 4790 1873.17 4790 1920 4790 1966.83 4790 2013.66 4790 2060.49 4790 2107.32 4790 2154.15 4790 2200.98 4790 2247.8 4790 2294.63 4790 2341.46 4790 2388.29 4790 2435.12 4790 2481.95 4790 2528.78 4790 2575.61 4790 2622.44 4790 2669.27 4790 2716.1 4790 2762.93 4790 2809.76 4790 2856.59 4790 2903.41 4790 2950.24 4790 2997.07 4790 3043.9 4790 3090.73 4790 3137.56 4790 3184.39 4790 3231.22 4790 3278.05 4790 3324.88 4790 3371.71 4790 3418.54 4790 3465.37 4790 3512.2 4790 3559.02 4790 3605.85 4790 3652.68 4790 3699.51 4790 3746.34 4790 3793.17 4790 3840 4790 3886.83 4790 3933.66 4790 3980.49 4790 4027.32 4790 4074.15 4790 4120.98 4790 4167.81 4790 4214.63 4790 4261.46 4790 4308.29 4790 4355.12 4790 4401.95 4790 4448.78 4790 4495.61 4790 4542.44 4790 4589.27 4790 4636.1 4790 4682.93 4790 4729.76 4790 4776.59 4790 4823.41 4790 4870.24 4790 4917.07 4790 4963.9 4790 5010.73 4790 5057.56 4790 5104.39 4790 5151.22 4790 5198.05 4790 5244.88 4790 5291.71 4790 5338.54 4790 5385.37 4790 5432.19 4790 5479.02 4790 5525.85 4790 5572.68 4790 5619.51 4790 5666.34 4790 5713.17 4790 5760 4790 5806.83 4790 5853.66 4790 5900.49 4790 5947.32 4790 5994.15 4790 6040.98 4790 6087.81 4790 6134.63 4790 6181.46 4790 6228.29 4790 6275.12 4790 6321.95 4790 6368.78 4790 6415.61 4790 6462.44 4790 6509.27 4790 6556.1 4790 6602.93 4790 6649.76 4790 6696.59 4790 6743.41 4790 6790.24 4790 6837.07 4790 6883.9 4790 6930.73 4790 6977.56 4790 7024.39 4790 7071.22 4790 7118.05 4790 7164.88 4790 7211.71 4790 7258.54 4790 7305.37 4790 7352.19 4790 7399.02 4790 7445.85 4790 7492.68 4790 7539.51 4790 7586.34 4790 7633.17 4790 7680 4790 7726.83 4790 7773.66 4790 7820.49 4790 7867.32 4790 7914.15 4790 7960.98 4790 8007.81 4790 8054.63 4790 8101.46 4790 8148.29 4790 8195.12 4790 8241.95 4790 8288.78 4790 8335.61 4790 8382.44 4790 8429.27 4790 8476.1 4790 8522.93 4790 8569.76 4790 8616.58 4790 8663.42 4790 8710.24 4790 8757.07 4790 8803.9 4790 8850.73 4790 8897.56 4790 8944.39 4790 8991.22 4790 9038.05 4790 9084.88 4790 9131.71 4790 9178.54 4790 9225.37 4790 9272.19 4790 9319.02 4790 9365.85 4790 9412.68 4790 9459.51 4790 9506.34 4790 9553.17 4790 9600 4790 9600 4743.04 9600 4696.09 9600 4649.13 9600 4602.17 9600 4555.22 9600 4508.26 9600 4461.3 9600 4414.35 9600 4367.39 9600 4320.44 9600 4273.48 9600 4226.52 9600 4179.56 9600 4132.61 9600 4085.65 9600 4038.7 9600 3991.74 9600 3944.78 9600 3897.83 9600 3850.87 9600 3803.91 9600 3756.96 9600 3710 9600 3663.04 9600 3616.09 9600 3569.13 9600 3522.17 9600 3475.22 9600 3428.26 9600 3381.3 9600 3334.35 9600 3287.39 9600 3240.43 9600 3193.48 9600 3146.52 9600 3099.57 9600 3052.61 9600 3005.65 9600 2958.7 9600 2911.74 9600 2864.78 9600 2817.83 9600 2770.87 9600 2723.91 9600 2676.96 9600 2630 9600 2583.04 9600 2536.09 9600 2489.13 9600 2442.17 9600 2395.22 9600 2348.26 9600 2301.3 9600 2254.35 9600 2207.39 9600 2160.43 9600 2113.48 9600 2066.52 9600 2019.57 9600 1972.61 9600 1925.65 9600 1878.7 9600 1831.74 9600 1784.78 9600 1737.83 9600 1690.87 9600 1643.91 9600 1596.96 9600 1550 9600 1503.04 9600 1456.09 9600 1409.13 9600 1362.17 9600 1315.22 9600 1268.26 9600 1221.3 9600 1174.35 9600 1127.39 9600 1080.43 9600 1033.48 9600 986.52 9600 939.57 9600 892.61 9600 845.65 9600 798.7 9600 751.74 9600 704.78 9600 657.83 9600 610.87 9600 563.91 9600 516.96 9600 470 9600 423.04 9600 376.09 9600 329.13 9600 282.17"/>
    <rect width="46.83" height="46.96" x="280.98" y="751.74" fill="#F0FDFF" opacity=".56"/>
    <rect width="46.83" height="46.96" x="8710.24" y="939.57" fill="#F0FDFF" opacity=".56"/>
    <rect width="46.83" height="46.96" x="1498.54" y="1080.43" fill="#F0FDFF" opacity=".56"/>
    <rect width="46.83" height="46.96" x="4636.1" y="1221.3" fill="#F0FDFF" opacity=".56"/>
    <rect width="46.83" height="46.96" x="4636.1" y="663.3" fill="#F0FDFF" opacity=".56"/>
    <rect width="46.83" height="46.96" x="7024.39" y="1221.3" fill="#F0FDFF" opacity=".56"/>
    <rect width="46.83" height="46.96" x="5525.85" y="1315.22" fill="#F0FDFF" opacity=".56"/>
    <rect width="46.83" height="46.96" x="7703.85" y="725.22" fill="#F0FDFF" opacity=".56"/>
    <rect width="46.83" height="46.96" x="3559.02" y="1784.78" fill="#F0FDFF" opacity=".56"/>
    <rect width="46.83" height="46.96" x="702.44" y="1925.65" fill="#F0FDFF" opacity=".56"/>
    <rect width="46.83" height="46.96" x="7352.2" y="1925.65" fill="#F0FDFF" opacity=".56"/>
    <rect width="46.83" height="46.96" x="4963.9" y="2066.52" fill="#F0FDFF" opacity=".56"/>
    <rect width="46.83" height="46.96" x="4917.07" y="2113.48" fill="#F0FDFF" opacity=".56"/>
    <rect width="46.83" height="46.96" x="5010.73" y="2113.48" fill="#F0FDFF" opacity=".56"/>
    <rect width="46.83" height="46.96" x="2669.27" y="2160.43" fill="#F0FDFF" opacity=".56"/>
    <rect width="46.83" height="46.96" x="4963.9" y="2160.43" fill="#F0FDFF" opacity=".56"/>
    <rect width="46.83" height="46.96" x="6854.9" y="2629.52" fill="#F0FDFF" opacity=".56"/>
    <rect width="46.83" height="46.96" x="6808.07" y="2676.48" fill="#F0FDFF" opacity=".56"/>
    <rect width="46.83" height="46.96" x="6901.73" y="2676.48" fill="#F0FDFF" opacity=".56"/>
    <rect width="46.83" height="46.96" x="6854.9" y="2723.43" fill="#F0FDFF" opacity=".56"/>
    <rect width="46.83" height="46.96" x="4659.9" y="3234.52" fill="#F0FDFF" opacity=".56"/>
    <rect width="46.83" height="46.96" x="4613.07" y="3281.48" fill="#F0FDFF" opacity=".56"/>
    <rect width="46.83" height="46.96" x="4706.73" y="3281.48" fill="#F0FDFF" opacity=".56"/>
    <rect width="46.83" height="46.96" x="4659.9" y="3328.43" fill="#F0FDFF" opacity=".56"/>
    <rect width="46.83" height="46.96" x="3652.9" y="2496.52" fill="#F0FDFF" opacity=".56"/>
    <rect width="46.83" height="46.96" x="3606.07" y="2543.48" fill="#F0FDFF" opacity=".56"/>
    <rect width="46.83" height="46.96" x="3699.73" y="2543.48" fill="#F0FDFF" opacity=".56"/>
    <rect width="46.83" height="46.96" x="3652.9" y="2590.43" fill="#F0FDFF" opacity=".56"/>
    <rect width="46.83" height="46.96" x="2458.9" y="1405.52" fill="#F0FDFF" opacity=".56"/>
    <rect width="46.83" height="46.96" x="2412.07" y="1452.48" fill="#F0FDFF" opacity=".56"/>
    <rect width="46.83" height="46.96" x="2505.73" y="1452.48" fill="#F0FDFF" opacity=".56"/>
    <rect width="46.83" height="46.96" x="2458.9" y="1499.43" fill="#F0FDFF" opacity=".56"/>
    <rect width="46.83" height="46.96" x="1381.9" y="2047.52" fill="#F0FDFF" opacity=".56"/>
    <rect width="46.83" height="46.96" x="1335.07" y="2094.48" fill="#F0FDFF" opacity=".56"/>
    <rect width="46.83" height="46.96" x="1428.73" y="2094.48" fill="#F0FDFF" opacity=".56"/>
    <rect width="46.83" height="46.96" x="1381.9" y="2141.43" fill="#F0FDFF" opacity=".56"/>
    <rect width="46.83" height="46.96" x="3113.9" y="3126.52" fill="#F0FDFF" opacity=".56"/>
    <rect width="46.83" height="46.96" x="3067.07" y="3173.48" fill="#F0FDFF" opacity=".56"/>
    <rect width="46.83" height="46.96" x="3160.73" y="3173.48" fill="#F0FDFF" opacity=".56"/>
    <rect width="46.83" height="46.96" x="3113.9" y="3220.43" fill="#F0FDFF" opacity=".56"/>
    <rect width="46.83" height="46.96" x="6087.9" y="3709.52" fill="#F0FDFF" opacity=".56"/>
    <rect width="46.83" height="46.96" x="6041.07" y="3756.48" fill="#F0FDFF" opacity=".56"/>
    <rect width="46.83" height="46.96" x="6134.73" y="3756.48" fill="#F0FDFF" opacity=".56"/>
    <rect width="46.83" height="46.96" x="6087.9" y="3803.43" fill="#F0FDFF" opacity=".56"/>
    <rect width="46.83" height="46.96" x="8452.9" y="2203.52" fill="#F0FDFF" opacity=".56"/>
    <rect width="46.83" height="46.96" x="8406.07" y="2250.48" fill="#F0FDFF" opacity=".56"/>
    <rect width="46.83" height="46.96" x="8499.73" y="2250.48" fill="#F0FDFF" opacity=".56"/>
    <rect width="46.83" height="46.96" x="8452.9" y="2297.43" fill="#F0FDFF" opacity=".56"/>
    <rect width="46.83" height="46.96" x="1100.9" y="3727.52" fill="#F0FDFF" opacity=".56"/>
    <rect width="46.83" height="46.96" x="1054.07" y="3774.48" fill="#F0FDFF" opacity=".56"/>
    <rect width="46.83" height="46.96" x="1147.73" y="3774.48" fill="#F0FDFF" opacity=".56"/>
    <rect width="46.83" height="46.96" x="1100.9" y="3821.43" fill="#F0FDFF" opacity=".56"/>
    <rect width="46.83" height="46.96" x="6228.29" y="2301.3" fill="#F0FDFF" opacity=".56"/>
    <rect width="46.83" height="46.96" x="7492.68" y="2676.96" fill="#F0FDFF" opacity=".56"/>
    <rect width="46.83" height="46.96" x="8991.22" y="2817.83" fill="#F0FDFF" opacity=".56"/>
    <rect width="46.83" height="46.96" x="4355.12" y="2864.78" fill="#F0FDFF" opacity=".56"/>
    <rect width="46.83" height="46.96" x="2107.32" y="3052.61" fill="#F0FDFF" opacity=".56"/>
    <rect width="46.83" height="46.96" x="983.41" y="3240.43" fill="#F0FDFF" opacity=".56"/>
    <rect width="46.83" height="46.96" x="6134.63" y="3240.43" fill="#F0FDFF" opacity=".56"/>
    <rect width="46.83" height="46.96" x="5151.22" y="3663.04" fill="#F0FDFF" opacity=".56"/>
    <rect width="46.83" height="46.96" x="327.8" y="3897.83" fill="#F0FDFF" opacity=".56"/>
    <rect width="46.83" height="46.96" x="8663.41" y="3897.83" fill="#F0FDFF" opacity=".56"/>
    <rect width="46.83" height="46.96" x="2716.1" y="4179.57" fill="#F0FDFF" opacity=".56"/>
    <rect width="46.83" height="46.96" x="1685.85" y="4461.3" fill="#F0FDFF" opacity=".56"/>
    <rect width="46.83" height="46.96" x="7024.39" y="4649.13" fill="#F0FDFF" opacity=".56"/>
  </g>
</svg>
