<svg xmlns="http://www.w3.org/2000/svg" width="9600" height="4884" viewBox="0 0 9600 4884">
  <g fill="none">
    <polygon fill="#D2F3F9" points="9553.17 517.04 9506.34 517.04 9459.51 517.04 9412.68 517.04 9365.85 517.04 9319.02 517.04 9272.19 470.09 9225.37 470.09 9178.54 470.09 9131.71 470.09 9084.88 470.09 9038.05 470.09 8991.22 470.09 8944.39 470.09 8897.56 423.13 8850.73 423.13 8803.9 423.13 8757.07 376.17 8710.24 376.17 8663.42 329.22 8616.58 329.22 8569.76 329.22 8522.93 329.22 8476.1 282.26 8429.27 282.26 8382.44 282.26 8335.61 282.26 8288.78 282.26 8241.95 235.3 8195.12 235.3 8148.29 235.3 8101.46 235.3 8054.63 235.3 8007.81 235.3 7960.98 235.3 7914.15 235.3 7867.32 188.35 7820.49 188.35 7773.66 188.35 7726.83 188.35 7680 188.35 7633.17 188.35 7586.34 188.35 7539.51 188.35 7492.68 188.35 7445.85 188.35 7399.02 188.35 7352.19 141.39 7305.37 141.39 7258.54 141.39 7211.71 141.39 7164.88 141.39 7118.05 141.39 7071.22 141.39 7024.39 141.39 6977.56 141.39 6930.73 141.39 6883.9 141.39 6837.07 141.39 6790.24 141.39 6743.41 188.35 6696.59 188.35 6649.76 188.35 6602.93 188.35 6556.1 188.35 6509.27 188.35 6462.44 188.35 6415.61 188.35 6368.78 188.35 6321.95 235.3 6275.12 235.3 6228.29 235.3 6181.46 235.3 6134.63 235.3 6087.81 235.3 6040.98 282.26 5994.15 282.26 5947.32 329.22 5900.49 329.22 5853.66 329.22 5806.83 376.17 5760 376.17 5713.17 376.17 5666.34 423.13 5619.51 423.13 5572.68 423.13 5525.85 470.09 5479.02 470.09 5432.19 470.09 5385.37 470.09 5338.54 517.04 5291.71 517.04 5244.88 517.04 5198.05 517.04 5151.22 517.04 5104.39 517.04 5057.56 517.04 5010.73 517.04 4963.9 517.04 4917.07 517.04 4870.24 517.04 4823.41 517.04 4776.59 517.04 4729.76 517.04 4682.93 517.04 4636.1 517.04 4589.27 517.04 4542.44 517.04 4495.61 517.04 4448.78 517.04 4401.95 517.04 4355.12 470.09 4308.29 470.09 4261.46 470.09 4214.63 423.13 4167.81 423.13 4120.98 376.17 4074.15 376.17 4027.32 329.22 3980.49 329.22 3933.66 329.22 3886.83 282.26 3840 282.26 3793.17 282.26 3746.34 282.26 3699.51 235.3 3652.68 235.3 3605.85 188.35 3559.02 188.35 3512.2 141.39 3465.37 141.39 3418.54 141.39 3371.71 94.43 3324.88 94.43 3278.05 47.48 3231.22 47.48 3184.39 47.48 3137.56 47.48 3090.73 47.48 3043.9 .52 2997.07 .52 2950.24 .52 2903.41 .52 2856.59 .52 2809.76 .52 2762.93 .52 2716.1 .52 2669.27 .52 2622.44 .52 2575.61 .52 2528.78 .52 2481.95 .52 2435.12 .52 2388.29 .52 2341.46 .52 2294.63 .52 2247.8 .52 2200.98 .52 2154.15 .52 2107.32 .52 2060.49 .52 2013.66 .52 1966.83 47.48 1920 47.48 1873.17 47.48 1826.34 47.48 1779.51 47.48 1732.68 47.48 1685.85 94.43 1639.02 94.43 1592.19 94.43 1545.37 94.43 1498.54 94.43 1451.71 141.39 1404.88 141.39 1358.05 141.39 1311.22 141.39 1264.39 188.35 1217.56 188.35 1170.73 188.35 1123.9 235.3 1077.07 235.3 1030.24 235.3 983.41 282.26 936.59 282.26 889.76 329.22 842.93 329.22 796.1 329.22 749.27 329.22 702.44 376.17 655.61 376.17 608.78 376.17 561.95 423.13 515.12 423.13 468.29 423.13 421.46 423.13 374.63 423.13 327.81 470.09 280.98 470.09 234.15 470.09 187.32 470.09 140.49 470.09 93.66 470.09 46.83 470.09 0 470.09 0 517.04 0 564 46.83 564 93.66 564 140.49 564 187.32 564 234.15 564 280.98 564 327.81 564 327.81 517.04 374.63 517.04 421.46 517.04 468.29 517.04 515.12 517.04 561.95 517.04 561.95 470.09 608.78 470.09 655.61 470.09 702.44 470.09 702.44 423.13 749.27 423.13 796.1 423.13 842.93 423.13 889.76 423.13 889.76 376.17 936.59 376.17 983.41 376.17 983.41 329.22 1030.24 329.22 1077.07 329.22 1123.9 329.22 1123.9 282.26 1170.73 282.26 1217.56 282.26 1264.39 282.26 1264.39 235.3 1311.22 235.3 1358.05 235.3 1404.88 235.3 1451.71 235.3 1451.71 188.35 1498.54 188.35 1545.37 188.35 1592.19 188.35 1639.02 188.35 1685.85 188.35 1732.68 188.35 1732.68 141.39 1779.51 141.39 1826.34 141.39 1873.17 141.39 1920 141.39 1966.83 141.39 1966.83 94.43 2013.66 94.43 2060.49 94.43 2107.32 94.43 2154.15 94.43 2200.98 94.43 2247.8 94.43 2294.63 94.43 2341.46 94.43 2388.29 94.43 2435.12 94.43 2481.95 94.43 2528.78 94.43 2575.61 94.43 2622.44 94.43 2669.27 94.43 2716.1 94.43 2762.93 94.43 2809.76 94.43 2856.59 94.43 2903.41 94.43 2950.24 94.43 2997.07 94.43 3043.9 94.43 3090.73 94.43 3090.73 141.39 3137.56 141.39 3184.39 141.39 3231.22 141.39 3278.05 141.39 3278.05 188.35 3324.88 188.35 3371.71 188.35 3418.54 188.35 3418.54 235.3 3465.37 235.3 3512.2 235.3 3559.02 235.3 3559.02 282.26 3605.85 282.26 3652.68 282.26 3652.68 329.22 3699.51 329.22 3746.34 329.22 3746.34 376.17 3793.17 376.17 3840 376.17 3886.83 376.17 3933.66 376.17 3933.66 423.13 3980.49 423.13 4027.32 423.13 4074.15 423.13 4074.15 470.09 4120.98 470.09 4167.81 470.09 4167.81 517.04 4214.63 517.04 4261.46 517.04 4261.46 564 4308.29 564 4355.12 564 4401.95 564 4401.95 610.96 4448.78 610.96 4495.61 610.96 4542.44 610.96 4589.27 610.96 4636.1 610.96 4682.93 610.96 4729.76 610.96 4776.59 610.96 4823.41 610.96 4870.24 610.96 4917.07 610.96 4963.9 610.96 5010.73 610.96 5057.56 610.96 5104.39 610.96 5151.22 610.96 5198.05 610.96 5244.88 610.96 5291.71 610.96 5338.54 610.96 5338.54 564 5385.37 564 5432.19 564 5479.02 564 5525.85 564 5525.85 517.04 5572.68 517.04 5619.51 517.04 5666.34 517.04 5666.34 470.09 5713.17 470.09 5760 470.09 5806.83 470.09 5806.83 423.13 5853.66 423.13 5900.49 423.13 5947.32 423.13 5947.32 376.17 5994.15 376.17 6040.98 376.17 6040.98 329.22 6087.81 329.22 6134.63 329.22 6181.46 329.22 6228.29 329.22 6275.12 329.22 6321.95 329.22 6321.95 282.26 6368.78 282.26 6415.61 282.26 6462.44 282.26 6509.27 282.26 6556.1 282.26 6602.93 282.26 6649.76 282.26 6696.59 282.26 6743.41 282.26 6743.41 235.3 6790.24 235.3 6837.07 235.3 6883.9 235.3 6930.73 235.3 6977.56 235.3 7024.39 235.3 7071.22 235.3 7118.05 235.3 7164.88 235.3 7211.71 235.3 7258.54 235.3 7305.37 235.3 7352.19 235.3 7399.02 235.3 7399.02 282.26 7445.85 282.26 7492.68 282.26 7539.51 282.26 7586.34 282.26 7633.17 282.26 7680 282.26 7726.83 282.26 7773.66 282.26 7820.49 282.26 7867.32 282.26 7914.15 282.26 7914.15 329.22 7960.98 329.22 8007.81 329.22 8054.63 329.22 8101.46 329.22 8148.29 329.22 8195.12 329.22 8241.95 329.22 8288.78 329.22 8288.78 376.17 8335.61 376.17 8382.44 376.17 8429.27 376.17 8476.1 376.17 8522.93 376.17 8522.93 423.13 8569.76 423.13 8616.58 423.13 8663.42 423.13 8710.24 423.13 8710.24 470.09 8757.07 470.09 8803.9 470.09 8803.9 517.04 8850.73 517.04 8897.56 517.04 8944.39 517.04 8944.39 564 8991.22 564 9038.05 564 9084.88 564 9131.71 564 9178.54 564 9225.37 564 9272.19 564 9319.02 564 9319.02 610.96 9365.85 610.96 9412.68 610.96 9459.51 610.96 9506.34 610.96 9553.17 610.96 9553.17 564 9600 564 9600 517.04 9600 470.09"/>
    <polygon fill="#B6F1FF" points="9553.17 564 9553.17 610.96 9506.34 610.96 9459.51 610.96 9412.68 610.96 9365.85 610.96 9319.02 610.96 9319.02 564 9272.19 564 9225.37 564 9178.54 564 9131.71 564 9084.88 564 9038.05 564 8991.22 564 8944.39 564 8944.39 517.04 8897.56 517.04 8850.73 517.04 8803.9 517.04 8803.9 470.09 8757.07 470.09 8710.24 470.09 8710.24 423.13 8663.42 423.13 8616.58 423.13 8569.76 423.13 8522.93 423.13 8522.93 376.17 8476.1 376.17 8429.27 376.17 8382.44 376.17 8335.61 376.17 8288.78 376.17 8288.78 329.22 8241.95 329.22 8195.12 329.22 8148.29 329.22 8101.46 329.22 8054.63 329.22 8007.81 329.22 7960.98 329.22 7914.15 329.22 7914.15 282.26 7867.32 282.26 7820.49 282.26 7773.66 282.26 7726.83 282.26 7680 282.26 7633.17 282.26 7586.34 282.26 7539.51 282.26 7492.68 282.26 7445.85 282.26 7399.02 282.26 7399.02 235.3 7352.19 235.3 7305.37 235.3 7258.54 235.3 7211.71 235.3 7164.88 235.3 7118.05 235.3 7071.22 235.3 7024.39 235.3 6977.56 235.3 6930.73 235.3 6883.9 235.3 6837.07 235.3 6790.24 235.3 6743.41 235.3 6743.41 282.26 6696.59 282.26 6649.76 282.26 6602.93 282.26 6556.1 282.26 6509.27 282.26 6462.44 282.26 6415.61 282.26 6368.78 282.26 6321.95 282.26 6321.95 329.22 6275.12 329.22 6228.29 329.22 6181.46 329.22 6134.63 329.22 6087.81 329.22 6040.98 329.22 6040.98 376.17 5994.15 376.17 5947.32 376.17 5947.32 423.13 5900.49 423.13 5853.66 423.13 5806.83 423.13 5806.83 470.09 5760 470.09 5713.17 470.09 5666.34 470.09 5666.34 517.04 5619.51 517.04 5572.68 517.04 5525.85 517.04 5525.85 564 5479.02 564 5432.19 564 5385.37 564 5338.54 564 5338.54 610.96 5291.71 610.96 5244.88 610.96 5198.05 610.96 5151.22 610.96 5104.39 610.96 5057.56 610.96 5010.73 610.96 4963.9 610.96 4917.07 610.96 4870.24 610.96 4823.41 610.96 4776.59 610.96 4729.76 610.96 4682.93 610.96 4636.1 610.96 4589.27 610.96 4542.44 610.96 4495.61 610.96 4448.78 610.96 4401.95 610.96 4401.95 564 4355.12 564 4308.29 564 4261.46 564 4261.46 517.04 4214.63 517.04 4167.81 517.04 4167.81 470.09 4120.98 470.09 4074.15 470.09 4074.15 423.13 4027.32 423.13 3980.49 423.13 3933.66 423.13 3933.66 376.17 3886.83 376.17 3840 376.17 3793.17 376.17 3746.34 376.17 3746.34 329.22 3699.51 329.22 3652.68 329.22 3652.68 282.26 3605.85 282.26 3559.02 282.26 3559.02 235.3 3512.2 235.3 3465.37 235.3 3418.54 235.3 3418.54 188.35 3371.71 188.35 3324.88 188.35 3278.05 188.35 3278.05 141.39 3231.22 141.39 3184.39 141.39 3137.56 141.39 3090.73 141.39 3090.73 94.43 3043.9 94.43 2997.07 94.43 2950.24 94.43 2903.41 94.43 2856.59 94.43 2809.76 94.43 2762.93 94.43 2716.1 94.43 2669.27 94.43 2622.44 94.43 2575.61 94.43 2528.78 94.43 2481.95 94.43 2435.12 94.43 2388.29 94.43 2341.46 94.43 2294.63 94.43 2247.8 94.43 2200.98 94.43 2154.15 94.43 2107.32 94.43 2060.49 94.43 2013.66 94.43 1966.83 94.43 1966.83 141.39 1920 141.39 1873.17 141.39 1826.34 141.39 1779.51 141.39 1732.68 141.39 1732.68 188.35 1685.85 188.35 1639.02 188.35 1592.19 188.35 1545.37 188.35 1498.54 188.35 1451.71 188.35 1451.71 235.3 1404.88 235.3 1358.05 235.3 1311.22 235.3 1264.39 235.3 1264.39 282.26 1217.56 282.26 1170.73 282.26 1123.9 282.26 1123.9 329.22 1077.07 329.22 1030.24 329.22 983.41 329.22 983.41 376.17 936.59 376.17 889.76 376.17 889.76 423.13 842.93 423.13 796.1 423.13 749.27 423.13 702.44 423.13 702.44 470.09 655.61 470.09 608.78 470.09 561.95 470.09 561.95 517.04 515.12 517.04 468.29 517.04 421.46 517.04 374.63 517.04 327.81 517.04 327.81 564 280.98 564 234.15 564 187.32 564 140.49 564 93.66 564 46.83 564 0 564 0 610.96 0 657.91 0 704.87 0 751.83 0 798.78 0 845.74 0 892.7 0 939.65 0 986.61 0 1033.57 0 1080.52 0 1127.48 0 1174.43 0 1221.39 0 1268.35 0 1315.3 0 1362.26 0 1409.22 0 1456.17 0 1503.13 0 1550.09 0 1597.04 0 1644 0 1690.96 0 1737.91 0 1784.87 0 1831.83 0 1878.78 0 1925.74 0 1972.7 0 2019.65 0 2066.61 0 2113.57 0 2160.52 0 2207.48 0 2254.43 0 2301.39 0 2348.35 0 2395.3 0 2442.26 0 2489.22 0 2536.17 0 2583.13 0 2630.09 0 2677.04 0 2724 0 2770.96 0 2817.91 0 2864.87 0 2911.83 0 2958.78 0 3005.74 0 3052.7 0 3099.65 0 3146.61 0 3193.57 0 3240.52 0 3287.48 0 3334.43 0 3381.39 0 3428.35 0 3475.3 0 3522.26 0 3569.22 0 3616.17 0 3663.13 0 3710.09 0 3757.04 0 3804 0 3850.96 0 3897.91 0 3944.87 0 3991.83 0 4038.78 0 4085.74 0 4132.7 0 4179.65 0 4226.61 0 4273.56 0 4320.52 0 4367.48 0 4414.44 0 4461.39 0 4508.35 0 4555.3 0 4602.26 0 4649.22 0 4696.17 0 4743.13 0 4790.09 0 4837.04 0 4884 46.83 4884 93.66 4884 140.49 4884 187.32 4884 234.15 4884 280.98 4884 327.81 4884 374.63 4884 421.46 4884 468.29 4884 515.12 4884 561.95 4884 608.78 4884 655.61 4884 702.44 4884 749.27 4884 796.1 4884 842.93 4884 889.76 4884 936.59 4884 983.41 4884 1030.24 4884 1077.07 4884 1123.9 4884 1170.73 4884 1217.56 4884 1264.39 4884 1311.22 4884 1358.05 4884 1404.88 4884 1451.71 4884 1498.54 4884 1545.37 4884 1592.19 4884 1639.02 4884 1685.85 4884 1732.68 4884 1779.51 4884 1826.34 4884 1873.17 4884 1920 4884 1966.83 4884 2013.66 4884 2060.49 4884 2107.32 4884 2154.15 4884 2200.98 4884 2247.8 4884 2294.63 4884 2341.46 4884 2388.29 4884 2435.12 4884 2481.95 4884 2528.78 4884 2575.61 4884 2622.44 4884 2669.27 4884 2716.1 4884 2762.93 4884 2809.76 4884 2856.59 4884 2903.41 4884 2950.24 4884 2997.07 4884 3043.9 4884 3090.73 4884 3137.56 4884 3184.39 4884 3231.22 4884 3278.05 4884 3324.88 4884 3371.71 4884 3418.54 4884 3465.37 4884 3512.2 4884 3559.02 4884 3605.85 4884 3652.68 4884 3699.51 4884 3746.34 4884 3793.17 4884 3840 4884 3886.83 4884 3933.66 4884 3980.49 4884 4027.32 4884 4074.15 4884 4120.98 4884 4167.81 4884 4214.63 4884 4261.46 4884 4308.29 4884 4355.12 4884 4401.95 4884 4448.78 4884 4495.61 4884 4542.44 4884 4589.27 4884 4636.1 4884 4682.93 4884 4729.76 4884 4776.59 4884 4823.41 4884 4870.24 4884 4917.07 4884 4963.9 4884 5010.73 4884 5057.56 4884 5104.39 4884 5151.22 4884 5198.05 4884 5244.88 4884 5291.71 4884 5338.54 4884 5385.37 4884 5432.19 4884 5479.02 4884 5525.85 4884 5572.68 4884 5619.51 4884 5666.34 4884 5713.17 4884 5760 4884 5806.83 4884 5853.66 4884 5900.49 4884 5947.32 4884 5994.15 4884 6040.98 4884 6087.81 4884 6134.63 4884 6181.46 4884 6228.29 4884 6275.12 4884 6321.95 4884 6368.78 4884 6415.61 4884 6462.44 4884 6509.27 4884 6556.1 4884 6602.93 4884 6649.76 4884 6696.59 4884 6743.41 4884 6790.24 4884 6837.07 4884 6883.9 4884 6930.73 4884 6977.56 4884 7024.39 4884 7071.22 4884 7118.05 4884 7164.88 4884 7211.71 4884 7258.54 4884 7305.37 4884 7352.19 4884 7399.02 4884 7445.85 4884 7492.68 4884 7539.51 4884 7586.34 4884 7633.17 4884 7680 4884 7726.83 4884 7773.66 4884 7820.49 4884 7867.32 4884 7914.15 4884 7960.98 4884 8007.81 4884 8054.63 4884 8101.46 4884 8148.29 4884 8195.12 4884 8241.95 4884 8288.78 4884 8335.61 4884 8382.44 4884 8429.27 4884 8476.1 4884 8522.93 4884 8569.76 4884 8616.58 4884 8663.42 4884 8710.24 4884 8757.07 4884 8803.9 4884 8850.73 4884 8897.56 4884 8944.39 4884 8991.22 4884 9038.05 4884 9084.88 4884 9131.71 4884 9178.54 4884 9225.37 4884 9272.19 4884 9319.02 4884 9365.85 4884 9412.68 4884 9459.51 4884 9506.34 4884 9553.17 4884 9600 4884 9600 4837.04 9600 4790.09 9600 4743.13 9600 4696.17 9600 4649.22 9600 4602.26 9600 4555.3 9600 4508.35 9600 4461.39 9600 4414.44 9600 4367.48 9600 4320.52 9600 4273.56 9600 4226.61 9600 4179.65 9600 4132.7 9600 4085.74 9600 4038.78 9600 3991.83 9600 3944.87 9600 3897.91 9600 3850.96 9600 3804 9600 3757.04 9600 3710.09 9600 3663.13 9600 3616.17 9600 3569.22 9600 3522.26 9600 3475.3 9600 3428.35 9600 3381.39 9600 3334.43 9600 3287.48 9600 3240.52 9600 3193.57 9600 3146.61 9600 3099.65 9600 3052.7 9600 3005.74 9600 2958.78 9600 2911.83 9600 2864.87 9600 2817.91 9600 2770.96 9600 2724 9600 2677.04 9600 2630.09 9600 2583.13 9600 2536.17 9600 2489.22 9600 2442.26 9600 2395.3 9600 2348.35 9600 2301.39 9600 2254.43 9600 2207.48 9600 2160.52 9600 2113.57 9600 2066.61 9600 2019.65 9600 1972.7 9600 1925.74 9600 1878.78 9600 1831.83 9600 1784.87 9600 1737.91 9600 1690.96 9600 1644 9600 1597.04 9600 1550.09 9600 1503.13 9600 1456.17 9600 1409.22 9600 1362.26 9600 1315.3 9600 1268.35 9600 1221.39 9600 1174.43 9600 1127.48 9600 1080.52 9600 1033.57 9600 986.61 9600 939.65 9600 892.7 9600 845.74 9600 798.78 9600 751.83 9600 704.87 9600 657.91 9600 610.96 9600 564"/>
    <rect width="46.83" height="46.96" x="555.98" y="4634.74" fill="#F0FDFF" opacity=".56"/>
    <rect width="46.83" height="46.96" x="8733.24" y="536.57" fill="#F0FDFF" opacity=".56"/>
    <rect width="46.83" height="46.96" x="1498.54" y="724.43" fill="#F0FDFF" opacity=".56"/>
    <rect width="46.83" height="46.96" x="4636.1" y="865.3" fill="#F0FDFF" opacity=".56"/>
    <rect width="46.83" height="46.96" x="4636.1" y="4587.3" fill="#F0FDFF" opacity=".56"/>
    <rect width="46.83" height="46.96" x="6761.39" y="677.3" fill="#F0FDFF" opacity=".56"/>
    <rect width="46.83" height="46.96" x="5525.85" y="959.22" fill="#F0FDFF" opacity=".56"/>
    <rect width="46.83" height="46.96" x="7750.85" y="284.22" fill="#F0FDFF" opacity=".56"/>
    <rect width="46.83" height="46.96" x="3559.02" y="1428.78" fill="#F0FDFF" opacity=".56"/>
    <rect width="40.87" height="46.96" x="669.49" y="1300.65" fill="#F0FDFF" opacity=".56"/>
    <rect width="46.83" height="46.96" x="7422.2" y="1323.65" fill="#F0FDFF" opacity=".56"/>
    <rect width="46.83" height="46.96" x="5010.9" y="1522.52" fill="#F0FDFF" opacity=".56"/>
    <rect width="46.83" height="46.96" x="4964.07" y="1569.48" fill="#F0FDFF" opacity=".56"/>
    <rect width="46.83" height="46.96" x="5057.73" y="1569.48" fill="#F0FDFF" opacity=".56"/>
    <rect width="46.83" height="46.96" x="2669.27" y="1804.43" fill="#F0FDFF" opacity=".56"/>
    <rect width="46.83" height="46.96" x="5010.9" y="1616.43" fill="#F0FDFF" opacity=".56"/>
    <rect width="46.83" height="46.96" x="6878.9" y="1804.52" fill="#F0FDFF" opacity=".56"/>
    <rect width="46.83" height="46.96" x="6832.07" y="1851.48" fill="#F0FDFF" opacity=".56"/>
    <rect width="46.83" height="46.96" x="6925.73" y="1851.48" fill="#F0FDFF" opacity=".56"/>
    <rect width="46.83" height="46.96" x="6878.9" y="1898.43" fill="#F0FDFF" opacity=".56"/>
    <rect width="46.83" height="46.96" x="4659.9" y="2878.52" fill="#F0FDFF" opacity=".56"/>
    <rect width="46.83" height="46.96" x="4613.07" y="2925.48" fill="#F0FDFF" opacity=".56"/>
    <rect width="46.83" height="46.96" x="4706.73" y="2925.48" fill="#F0FDFF" opacity=".56"/>
    <rect width="46.83" height="46.96" x="4659.9" y="2972.43" fill="#F0FDFF" opacity=".56"/>
    <rect width="46.83" height="46.96" x="4005.9" y="1686.52" fill="#F0FDFF" opacity=".56"/>
    <rect width="46.83" height="46.96" x="3959.07" y="1733.48" fill="#F0FDFF" opacity=".56"/>
    <rect width="46.83" height="46.96" x="4052.73" y="1733.48" fill="#F0FDFF" opacity=".56"/>
    <rect width="46.83" height="46.96" x="4005.9" y="1780.43" fill="#F0FDFF" opacity=".56"/>
    <rect width="46.83" height="46.96" x="2458.9" y="1049.52" fill="#F0FDFF" opacity=".56"/>
    <rect width="46.83" height="46.96" x="2412.07" y="1096.48" fill="#F0FDFF" opacity=".56"/>
    <rect width="46.83" height="46.96" x="2505.73" y="1096.48" fill="#F0FDFF" opacity=".56"/>
    <rect width="46.83" height="46.96" x="2458.9" y="1143.43" fill="#F0FDFF" opacity=".56"/>
    <rect width="46.83" height="46.96" x="1311.9" y="1452.52" fill="#F0FDFF" opacity=".56"/>
    <rect width="46.83" height="46.96" x="1265.07" y="1499.48" fill="#F0FDFF" opacity=".56"/>
    <rect width="46.83" height="46.96" x="1358.73" y="1499.48" fill="#F0FDFF" opacity=".56"/>
    <rect width="46.83" height="46.96" x="1311.9" y="1546.43" fill="#F0FDFF" opacity=".56"/>
    <rect width="46.83" height="46.96" x="3125.9" y="2555.52" fill="#F0FDFF" opacity=".56"/>
    <rect width="46.83" height="46.96" x="3079.07" y="2602.48" fill="#F0FDFF" opacity=".56"/>
    <rect width="46.83" height="46.96" x="3172.73" y="2602.48" fill="#F0FDFF" opacity=".56"/>
    <rect width="46.83" height="46.96" x="3125.9" y="2649.43" fill="#F0FDFF" opacity=".56"/>
    <rect width="46.83" height="46.96" x="6110.9" y="3189.52" fill="#F0FDFF" opacity=".56"/>
    <rect width="46.83" height="46.96" x="6064.07" y="3236.48" fill="#F0FDFF" opacity=".56"/>
    <rect width="46.83" height="46.96" x="6157.73" y="3236.48" fill="#F0FDFF" opacity=".56"/>
    <rect width="46.83" height="46.96" x="6110.9" y="3283.43" fill="#F0FDFF" opacity=".56"/>
    <rect width="46.83" height="46.96" x="8499.9" y="1545.52" fill="#F0FDFF" opacity=".56"/>
    <rect width="46.83" height="46.96" x="8453.07" y="1592.48" fill="#F0FDFF" opacity=".56"/>
    <rect width="46.83" height="46.96" x="8546.73" y="1592.48" fill="#F0FDFF" opacity=".56"/>
    <rect width="46.83" height="46.96" x="8499.9" y="1639.43" fill="#F0FDFF" opacity=".56"/>
    <rect width="46.83" height="46.96" x="1428.9" y="2742.52" fill="#F0FDFF" opacity=".56"/>
    <rect width="46.83" height="46.96" x="1382.07" y="2789.48" fill="#F0FDFF" opacity=".56"/>
    <rect width="46.83" height="46.96" x="1475.73" y="2789.48" fill="#F0FDFF" opacity=".56"/>
    <rect width="46.83" height="46.96" x="1428.9" y="2836.43" fill="#F0FDFF" opacity=".56"/>
    <rect width="46.83" height="46.96" x="6228.29" y="1945.3" fill="#F0FDFF" opacity=".56"/>
    <rect width="46.83" height="46.96" x="7633.68" y="2038.96" fill="#F0FDFF" opacity=".56"/>
    <rect width="46.83" height="46.96" x="9038.22" y="2179.83" fill="#F0FDFF" opacity=".56"/>
    <rect width="46.83" height="46.96" x="4402.12" y="2438.78" fill="#F0FDFF" opacity=".56"/>
    <rect width="46.83" height="46.96" x="2119.32" y="2481.61" fill="#F0FDFF" opacity=".56"/>
    <rect width="46.83" height="46.96" x="1065.41" y="2555.43" fill="#F0FDFF" opacity=".56"/>
    <rect width="46.83" height="46.96" x="6181.63" y="2649.43" fill="#F0FDFF" opacity=".56"/>
    <rect width="46.83" height="46.96" x="5285.22" y="2759.04" fill="#F0FDFF" opacity=".56"/>
    <rect width="46.83" height="46.96" x="290.8" y="3189.83" fill="#F0FDFF" opacity=".56"/>
    <rect width="46.83" height="46.96" x="8617.41" y="3135.83" fill="#F0FDFF" opacity=".56"/>
    <rect width="46.83" height="46.96" x="2763.1" y="3306.57" fill="#F0FDFF" opacity=".56"/>
    <rect width="46.83" height="46.96" x="1732.85" y="3694.3" fill="#F0FDFF" opacity=".56"/>
    <rect width="46.83" height="46.96" x="7024.39" y="3671.13" fill="#F0FDFF" opacity=".56"/>
  </g>
</svg>
